<?xml version="1.0" encoding="UTF-8" standalone="no"?>
<svg
   version="1.1"
   id="svg353"
   x="0px"
   y="0px"
   viewBox="0 0 3500 1038"
   style="enable-background:new 0 0 3500 1038;"
   xml:space="preserve"
   sodipodi:docname="layer6.svg"
   inkscape:version="1.2.2 (732a01da63, 2022-12-09)"
   xmlns:inkscape="http://www.inkscape.org/namespaces/inkscape"
   xmlns:sodipodi="http://sodipodi.sourceforge.net/DTD/sodipodi-0.dtd"
   xmlns="http://www.w3.org/2000/svg"
   xmlns:svg="http://www.w3.org/2000/svg"><defs
   id="defs1168" />
<style
   type="text/css"
   id="style1158">
	.st0{fill:#430C14;}
	.st1{fill:#2C0C0C;}
</style>
<sodipodi:namedview
   bordercolor="#eeeeee"
   borderopacity="1"
   id="namedview355"
   inkscape:current-layer="svg353"
   inkscape:cx="2099.552"
   inkscape:cy="562.47131"
   inkscape:deskcolor="#505050"
   inkscape:pagecheckerboard="0"
   inkscape:pageopacity="0"
   inkscape:showpageshadow="0"
   inkscape:window-height="1017"
   inkscape:window-maximized="1"
   inkscape:window-width="1920"
   inkscape:window-x="-8"
   inkscape:window-y="-8"
   inkscape:zoom="0.48891383"
   pagecolor="#505050"
   showgrid="false">
	</sodipodi:namedview>
<path
   class="st0"
   d="M1788.2,959l-1.7,0.7l-1.7,0.7l-0.8-1.3l-0.8-1.3l-5.3,4.8l-5.3,4.8l-8.1,4.1l-4.8,3.4l-4.8,3.4h-1.2l-6.7,3.1  l-6.7,3.1l-2.5,1l-2.5,1l-3.4,0.4l-3.4,0.4l-1.6,1.5l-1.6,1.5l-7.8,2.7l-1.6,4.8l-1.6,4.8l-1.6,1.2l-1.6,1.2l0.2,4.1l0.2,4.1  l0.7,1.1l0.7,1.1l-6.7,6.6l-0.9,4l-1,4l1.2,8.5h-190.2l-0.5-0.4H788.3v-84h0.7V679.1l2.8-0.4l2.8-0.4l5,0.5v0.3l6.5,0.6v-1.3  l2.2-0.2l2.2-0.2l4.3,1.5l4.3,1.5l0.9-0.6l0.9-0.6v2.2l2.6-1.7l2.6-1.7l1.3,1.8l1.3,1.8l2.1-1.3l2,1.1l2,1.1v-2.3l1.5,1.2l1.4,1.2  l1-0.6l1-0.6l0.4,1.2l0.4,1.1l2.3-1.2l2.3-1.2l-1.2,1.9l4.2,0.7l4.2,0.7l3.1,0.3l3.1,0.3l4.1,2.2l0.6-0.6l0.6-0.6l4,2.2l4,2.2  l2.5-1.4l-1.5,1.7l6.5,2.2l2.5-1.9v2.4l2.5-1.6l3.8,0l3.8,0v1.1l3.8,0h3.8l1,0.5l1,0.5l1.8,0.6l1.8,0.6l-0.5-0.8l-0.5-0.8l2.7,0.5  l2.7,0.5l0.7,1.1l0.7,1.1l0-1.2l0-1.2l3,0.5l3,0.5l2.8,0.3l2.8,0.3v0.3l4,0.5l4,0.5l1.7,0.2l1.7,0.2l1.3,1.3l1.1-0.7l1.1-0.7  l2.4-0.4l-0.6,1.6l-0.6,1.7l1.8-1.4l1.8-1.4l1.4,2.2l4,0l4,0l7.7,1.2l1.4-1.2l1.4-1.1v1.9l6.5,0.1l11,1.5l2.5,2v-2.2l7,0.3v1.5  l6-0.2v-1.8l3.5,1.8l19.5-0.2v1.4l13.3-0.6l2.8,0.8l2.8,0.8l1.2-1.4l1.2-1.4l1.8,1.1l-0.8,1.4l2.9,0.1l2.9,0.1V705l6.5,1l6,0.2  l6,0.2l2.3-0.6l2.3-0.6l2.3,0.9l2.3,0.9l4.3-3l1.5,0.6l1.5,0.6l1.9-1l1.9-1l3.3,2l0,0c4.2,3.4,8.4,6.8,12.6,10.2c2,1.6,4,3.1,6,4.5  l-0.2,0.2l0.7,0c1.9,1.4,3.8,2.8,5.7,4.2l2,2.2l0-0.6c0.3,0.2,0.6,0.4,0.8,0.6c0.2,0.2,0.4,0.4,0.7,0.6l1.1,1.8l2.5,4.3l0.7-0.4  c0.4,0.7,0.8,1.4,1.2,2.1v1.4l0.6-0.4c0.7,1.2,1.5,2.5,2.5,3.6c1.4,1.7,3.2,2.9,5,4.1l0.4,0.4l2.2,2.8l2.2,2.8l2.1,2.2l2.1,2.2  l0.2,0.8l0.2,0.8l3.5,4.9l3.5,4.9l0.2,1.6l0.2,1.6l2.5,1.7c1.7,4,3.3,8.1,5.1,11.9l-0.5,0.8l1.2,0.7c0.8,1.7,1.5,3.5,2.3,5.2v0.2  l0,1.5l0.7-0.1c0.4,0.8,0.8,1.5,1.2,2.3l-0.2,1.2l2.4,2.8l2.4,2.8l-0.6,1l-0.6,1l1.2-0.7l1-0.6c0.1,0,0.1,0.1,0.2,0.2v1.6l2.5,0.6  l1,0.2c1.1,0.6,2.2,1.1,3.5,1.5c0.1,0,0.1,0,0.2,0l0.3,0.5l3.4,1.7l3.4,1.7h1.1c0.8,0.7,1.6,1.3,2.6,1.7v0.5l0.6-0.2  c1.7,0.7,3.7,1,5.7,0.8c0.3-0.1,0.7-0.1,1-0.2c5,2.5,9.8,5.6,14.4,8.1c7,3.8,14,6.7,21.3,9.3l0,0.1l0.1-0.1c1.4,0.5,2.9,1,4.4,1.5  l0.1,0.1l1.4,0.4c8.9,3,16.4,8.6,25.1,12l-0.1,0.3l0.2-0.2c0.1,0,0.2,0.1,0.3,0.1c2.2,0.9,4.5,1.4,6.7,1.8l0,0l0,0  c0.9,0.1,1.9,0.3,2.8,0.3v0.4l4.4-0.2l0.6,0c4.1,0,8.3-0.4,12.6-0.7l1.6,0.2l-0.1-0.2c0.5,0,1,0,1.6,0c0.8,0,1.6-0.3,2.3-0.7  l0.4,0.1l-0.1-0.2c0.6-0.4,1.2-1,1.6-1.6c0.3,0,0.6,0,0.9-0.1l1.2,0l4.7-0.1l1.8-0.2c3.6,0,7.1,0.2,10.7,0.5v0.5l1.2-0.4  c1,0.1,1.9,0.1,2.8,0.2v0.8l4.5-0.4l9,5l1.2,1.2l0.5,0.5c0,0.1,0.1,0.2,0.1,0.4c0.1,0.2,0.2,0.4,0.3,0.6l-1,1h1.5  c0.5,0.9,1,1.7,1.6,2.6l2.4,5.4h1.2c0.1,0.2,0.3,0.5,0.4,0.7l-0.2,0.3l-0.6,1l2.3,2.3c0,0.1,0.1,0.2,0.1,0.3  c1.1,3.8,2.1,7.4,3.9,10.7l-0.1,0.4l0.9,1c0.3,0.5,0.7,1.1,1.1,1.6c0.5,0.6,1,1.2,1.5,1.8l-0.2,0.7l-0.4,1.2l3.1,3.7l3.1,3.7v2.6  l1.7,0.7c0.1,0.4,0.2,0.9,0.4,1.3h0l0.6,1.5l0.6,1.5h0.4c0.8,1.3,1.9,2.6,3,3.9c0.5,0.6,1.1,1,1.7,1.3l0.1,0.4l0.6,2.5l3.2,1.9  l3.2,1.9l0.6-0.4c0.4,0.3,0.7,0.6,1.1,0.9v0.6h0.7c0.5,0.4,1.1,0.8,1.7,1.2l-0.5,0.8h1.7l3.7,3.4l3.7,3.4v3.2h2.4  c0.1,0.7,0.2,1.3,0.3,2c0.2,1.4-0.2,2.6,0.1,2.6l0,0.6c-0.9,2.2-0.2,4.5,1.5,5.9l-0.4,1.7l4.2-0.6c0.1,0,0.2,0,0.3,0  c1.8-0.2,2.8-0.3,4.5,0.3c0.5,0.2,0.9,0.3,1.3,0.3l0.2,0.2h3.6V933h-1.2c0.8-0.5,1.4-1.3,1.7-2.2c0.3-0.2,0.6-0.5,0.9-0.7l1-0.2  l20-0.1l7,1.2l5.4,0.4l4.8,0.4c0.3,0.2,0.7,0.3,1.2,0.5c0.3,0.1,0.6,0.1,1,0.2l1.2,0.5v-0.3c2,0.1,3.9-0.2,5.5-1l2,0.1l1.6-1.3  c1-0.1,2-0.2,3-0.3l0.6,1l0.9-1c1,0,2-0.1,3.1-0.1l0.3,0.5l0-0.5c1.6,0,3.2,0,4.9,0l0.1,0v0c2.1,0,4.2-0.1,6.3-0.2  c3.1-0.2,6.2-0.9,9.4-1.6l0.1,0.1l0.3-0.2c1.6-0.4,3.2-0.7,4.8-1.1l0.4,1.1l1.4-1.2l0.4-0.3c1.2-0.2,2.5-0.4,3.7-0.5l6.3,0.7v-0.6  c1.3,0.3,2.7,0.6,4.1,0.7c2.1,0.2,3.5-0.9,4.3-2.4c1.2-0.1,2.4-0.1,3.6-0.1l0.1,0l3.4,0.4l0.9-0.8c0.8-0.2,1.4-0.4,2-0.7l3.1,1.8  l3.7,2.2l0.3,0.3c0.9,1.7,1.7,3.4,2.5,4.7c0.8,1.3,1.8,2,3,2.3v1.4l2.4,2.6l2.4,2.6l0.5-0.9l0.5-0.9l1.2-8l0.6-3.5l0.6-3.5l4.8-11  l2-3l2.5-5.4l2.5-5.4V898l-6.2-0.1l-6.2-0.1l-2.3-0.6l-2.3-0.7l0-2l5.8-0.9l5.8-0.9l0.7-0.6l-3-3l-7.1-1.6l-7.1-1.6V884h9.8l9.3-2  l9.3-2l4-0.9l3.7-3.2l3.7-3.3l-0.1-4.2l-0.1-4.2h-0.4l-2.9,1.4l-2.9,1.5l-4.7,1.2l-4.7,1.3l-0.7-0.7l-0.7-0.7l8.7-8l-0.6-0.6  l-0.6-0.6l-5.3,3l-5.3,3l-7.1,0.5l-2.4-1.5v-1.4l10.4-2.5l0.6-0.8l0.6-0.8l4-2l4-2l3.3-2.8l3.3-2.9v-2.6l5.2-10.3l-0.7-0.7l-0.7-0.7  l-2.1,3l-2.1,3l-10.2,10.5h-2.3v-2.7l4-3.6V843l-4.2,3l-4.2,3l-11.4,4h-4.1v-1.6l11-3.7v-1.5l-2.8,0.7l-2.8,0.7l-3-0.3l-3.8-0.1  l-3.8-0.1l0.5-0.9l0.6-0.9l7.5-1.4l4.3-1.5l4.3-1.5l7-4.7l-6.5-1.5l5.2-1.7l5.2-1.7l5-3.4l5-3.4l0-0.7l0-0.7l2.5-3.7l2.5-3.7  l-1.9-1.9l-4.4,2.9l-4.4,2.9l-2,1.3l-2,1.3l-7,3.2l-11,1.5l-3.4-0.4l-3.5-0.4l-0.8-0.8l1.2-1.9l11.6-1.4l2.9-1.8l-18-0.2l5.4-1.3  l5.4-1.3l0.8-1.3l0.8-1.3l2.6,1.2l2.6,1.2v-1.7l-2.9-2.4l-3.2,0.3l-3.2,0.3l-0.4-1.2l-0.4-1.2l9.6,0.5l9.6,0.5l4.5-3l4.5-3.1h1.5  l6.2-7l-0.1-16.8l0.7-1.1l0.7-1.1h-1.8l-4.8,5.1l-3.3,2.1l-3.3,2l-0.5-0.5l-0.5-0.5l5-4.6l5-4.6V776h-1.7l-2.4,2.6l-2.4,2.6  l-3.7,1.9l-3.7,1.9l-14.5-1.2l-4.8-1l-4.8-1v-1.3l8.2-0.1l8.2-0.1l0.7,1.1l0.7,1.1l0-1.8l0-1.8l2.5-1.1l2.5-1.1l-0.5-0.9l-0.5-0.8  h-12l-1.9-1l-1.9-1v-0.7l0-0.7l9.1,0.3l9.1,0.3l12.5-6.1l5.2-7.5l-0.8-3l-0.8-3l0.8-2.7l0.8-2.7l0.2-4.3l0.2-4.3l-0.1-0.8l-0.1-0.8  l-11.9,9.9l-6.3,1.4l-0.5-0.5l-0.5-0.5l2.8-1.6l2.8-1.6l-6,0.5l-6,0.5l-2.2,0.5l-2.2,0.5l-1.1-1.9l6.5-1.3l10.3-3.7l1.2,1.2V738h2  l3.9-2.8l3.9-2.8l1.1-2l1.1-2.1l0-8.9l0.1-9l-0.2-4l-11.2,12.6l-5.1,2.7l-5.1,2.7l-0.8,0.4l-0.8,0.4l4.6-6.1l4.6-6.1l2.7-2l2.7-2  l1.8-1.7l1.7-1.7l-0.4-0.4l-0.4-0.5l-3.2,3.2h-0.9l1.8-3.5l3.1-6.6l3.1-6.6l1.5-1.2l1.5-1.2l-1-3.9l3.3-5h-1.2l-5.7,4l-5.7,4h-1.8  l9.8-10h-2.1l-1.9,2.2l-1.9,2.1l-4.4,2.9l-4.4,2.8h-3.6v-2h3.2l9.6-7.5l3-4.6l3-4.6l2.2-4.2l2.2-4.2l-0.6-0.6l-0.6-0.6l-3.1,2.6  l-3.1,2.6l-0.9-0.6l-0.9-0.6v1.9l-3.3,1.3l-1.7-1.7l5-3.8l5-3.8l-0.6-0.6l-0.6-0.6l-1.5-0.2l-1.5-0.2l0.5,0.8l0.5,0.8l-1.2,0.7  l-1.2,0.7l-3.9,0.7l-3.9,0.7l0.6-0.5l0.6-0.5l13.5-7.3l4.5-6.7l0-3.1l0-3.1l0.8,1.3l0.8,1.3l0.6-2.3l0.6-2.3l0.9,1.4l0.9,1.4l-0.5,4  l-0.5,4l1.3,2.6l1.3,2.6l2,1.8l2,1.8l-4.5-1.3v2l2.6,3.1l2.6,3.1h-7.2v2.1l-2-1.2l0,1.3l0,1.3l0.7,1.1l0.7,1.1l14.1,9l2.2,0.7  l2.2,0.7l-0.5,0.8l-0.5,0.8l-3.3-0.3l-3.3-0.3l-3.8-2.2l-3.8-2.1l-0.9,0.8l4.7,4.1l4.7,4.1h-1.4l-1.4,0l-3-2l-3-2l-2.2-1.6l-2.2-1.6  l0,25.6l2,9.4l4.1,4.6l4.1,4.6l-1.8-0.3l-1.8-0.3l-0.8,2.3l3.3,3.1l3.3,3.1l1,0.1l1,0.1l2.9,0.4l3,0.4l1.2-1l1.2-1l5.1,3.4v0.3  l-2.2,0.2l-2.2,0.2l-0.8-1.2l-0.8-1.2l0,1.7l0,1.7l2.5,0.6l2.5,0.6l4.4-0.4l4.4-0.3l-0.4,0.7l-0.4,0.7l-6.8,1.3l-15.9-2.1l-3.6-2  l-3.6-2v1.9l4.7,3.4l4.7,3.4l5.3,1.3l5.3,1.3l-0.6,1l-0.6,1l-5.9-0.6l-5.9-0.6l-4-2l-4-2v2l-1.5-0.6l-1.5-0.6l0,5.9l0,5.9l0.7,1  l0.7,1.1l7.6,5.7l1.7,0.2l1.7,0.2l6,2.5l2,0l2,0l15-2.2l8-0.9l4-1.6l4-1.6l-4.4,3.9l-4.4,3.9l-3-1.2l1.7,2.7l-1.7-0.6l-1.7-0.6v1.7  l-10.8,1.3l-3.7,2.8l6.4,0.1l5.1-2v1.9l-1.8,1l-1.8,1l-2.9,0.5l-2.9,0.5l-8.5,0.2v1.8l5,1.2l5,1.2l8-0.6l8-0.5l-1.4,2.2l5.3-1  l-2.2,2.7l-8.2,2.2l-4.9,0.8l-4.9,0.8l-6.1-1.6l-6.2-1.6l-1.2-1.7l-0.8,0.3l-2.8-1l-2.8-1.1l-1.5-1.3l-1.5-1.3l-3-3l-2.9-3v2.7  l0,2.7l5.5,6.6l5,4.5l8,2.4l1.3,1l1.3,1l4.5,0.5l5.5,0.3v3h8.1l-1.2,2h-4.5l-1.1,1.1l-1.1,1.1l-4.3,0.2l-4.3,0.2l-3.6,1.6l-13.4-1.3  l3,2l6,1.9l6,1.9l9,1.6l10,0.1l7.5-1.4v1.8l-7.5,1.2l-5,1.3l5.7,0.6l5.7,0.6l1.5,1.5l-1.5,1.5l-13.2-0.2l-13.2-0.2l-11-3.2l-1.8-0.4  l-1.7-0.4l2.7,3.5l2.8,3.5l4.6,2.8l4.6,2.9l7.2,2l7.2,2l6.9-1.1v2.2l-3.8,1l-3.8,1h-1.8l-1.8,0l0.7,1.1l0.7,1.1l7.7-0.7l7.6-0.7  l4-2.1l-1.4,1.7l-1.4,1.7h6l7.4-4.2l7.4-4.1l5.7-3.9l8.1,1.1l8.1,1.1h8.3l13.3,11.5l9.2,5l9.2,5l-0.4,0.7l-0.4,0.7l4,3l4,3l2,0.1  l5.8,4.7l0,15.7l0,15.7l-1.1,1.1l-1.1,1.1v3.2l-4,7.8v3.6h1.8l9.7,10l1.1-0.4l1.1-0.4l2.2,4.9l2.6,1l2.6,1h10.6l3.7,1.6l3.7,1.5  l2.9-0.6l2.9-0.6v10l0.6,1.6l0.6,1.6l1.6-1l2.7,3.2l2.7,3.2l0.6-0.5l0.6-0.5l4.3,6.3l4.3,6.3l3.7,2l3.7,2l2.4,1.9L1788.2,959z"
   id="path1161" />
<path
   class="st1"
   d="M3499.2,428.9l-0.8-0.1l-2.5-0.4l-2.5-0.4l-11-0.3l-11-0.3l-3,0.9l-3,0.9l-1.5,0.6l-1.5,0.6l-1.1,0.1l-1.1,0.1  l-2.4,1.6l-2.4,1.6l-8,3.2l-4,1.8l-4,1.8l-0.5,0.1l-0.5,0.1l-1.5,1l-1.5,1l-5,2.6l-5,2.6l-3.7,2.4l-3.7,2.4l-0.1,2l-0.1,2l-0.3,2.9  l-0.3,2.9l-0.5,1.3l-0.5,1.3l1.9,1.2l-0.6,0.9l-0.6,0.9l-0.3,5.3l-0.3,5.3l-0.7,1.8l-0.7,1.8l0,2.7l0,2.7l0.1,1.3l0.1,1.3l7.2,4.6  l7.2,4.6l1.1,0.2l1.1,0.2l1.3,0.8l1.3,0.8l-6.6,4.9l-0.6,4.5l-0.6,4.5l0.6,0.4l0.6,0.4l0.1,11.9l0.1,11.9l0.7,3.1l0.7,3.1l4.4,5.2  l4.4,5.2v2.3l-4,3.6v2.3l-5.7,8.9l-7.4,1.7l-7.4,1.7l-4.3,0.7l-4.3,0.7l-0.6,1.6l-0.6,1.6l-3.5,7.5l-3.5,7.5l-1.5,1.8l-1.5,1.8  h-18.4l-1.3-5.6l-1.3-5.6l-1.4-3.3l-1.4-3.3l-2.3-0.6l-2.3-0.6l-5-0.1l1.7-1l1.7-1l0.7-3.6l0.7-3.6l-4.4-13.3l-4.4-13.3l-2,0.7  l-2,0.7l-17-0.3l-17-0.3l-1.5,0.7l-1.5,0.7l-3,0.7l-3,0.1l-3,0.1l-3,1.1l-3,1.1l-1.3,1.3l-1.3,1.3l-1.4,3.5l-1.4,3.5l-1,0.6l-1,0.6  v18.5l4,3.2l4,3.2v1.9l-6.5,3l-6.5,3h-1.8v10.8l-1.6,3.1l-1.6,3.1l-2.7-0.1l-2.7-0.1l-2.5-0.7l-2.5-0.7l-3,2.4l-5.5,3l-5.5,3l-12,7  l-1.9,1.9l-1.9,1.9l-3.3,5.2l-3.3,5.2l0.2,4.6l0.2,4.6h-1.5v3.2l-2.2,3.1l-2.2,3.1l-6.3,6.3l-6.3,6.3v2.2l-3.5,3.7l-3.5,3.7  l-2.8,3.1l-2.8,3.1l-2.4,1.3l-2.4,1.3l-1.2-1.7l-8-0.4l-3.3-0.6l-3.3-0.6l0.3-1.2l0.3-1.2l-1.6-4l-1.6-4l-5.7-5l-3.5-1.4l-3.5-1.4  l-3,0l-3,0l-9,3.3l-1.7,2l-1.7,2l1,6.3l-6.3-4.9l-6.3-4.9l-6.1-5.5h-1.6l-1.2-1l-1.2-1l-4.9-4.1l-3.3-2.1l-3.3-2.1l-10-1.4l-10-1.4  l-1.7,1l-0.7-2.1l-3-0.5l-3-0.5l-3.7-2.5l-3.7-2.5l-1.8,1.1l-1.9-1.8l-1.9-1.8l-3.2-1.3l-3.2-1.3v-1.5l-3.2-0.8l-3.2-0.8l-2.1-0.2  l-2.1-0.2l-2.3-1.4l-8.4-1l-1.2-1.7l-1.2-1.7l-8.2-8.2l0-0.9l0-0.9l-2.5-2.4l-2.5-2.4V614h-2.9l-3.3-4.1l-3.3-4.1l-3-2.9l-17-16.6  l-1.8-2.2l-1.8-2.2v-2l-3.6-4l-3.6-4h-5.8v-1.7l-5.4-0.6l-5.4-0.6l-7.4-3.1l-2.4,0.4l-10-1.6l-3.9-1.4l-3.9-1.4l-2.9-0.5l-2.9-0.5  l-6.4-3.5l-12.4-8.3l-2.2-0.7l-2.2-0.7l-3.6-2.1l-3.6-2.1l-4.5-1.2l-4.5-1.2l-12.1,0.4l-12.1,0.4l-2.9-3.3l-2.9-3.3l-3.8-5.9  l-6.1-5.1l-3.5-3.8l-3.5-3.8l-6.1-2.2l-6.1-2.2l-0.8,0.2l-0.8,0.2v-2l-1.8,0l-1.8,0l-1.2-0.8l-1.2-0.8l-0.9-4.4l-0.9-4.4l-0.5-2  l-0.5-2l-0.9-3l-0.9-3l3.8-4l-0.6-2.8l-0.6-2.8l-3.1-4.3l-3.1-4.3l1.7-3.7l1.7-3.7h1.9l2.4-2.6l2.4-2.6v-2l-4.2-7.2l-4.2-7.2  l0.2-0.7l0.2-0.7l-4-15.8l-0.2-1.5l-0.2-1.5l-1.5-1.6l-1.5-1.6l-4-0.7l-4-0.7l-3.5-0.3l-3.5-0.3l-7.3-1.6l-7.3-1.6l-19.7,0l-19.7,0  l-6.5,1.4l-6.5,1.4l-7.3,2l-7.3,2l-1.1,0.7l-1.1,0.7l-0.9-1.4l-0.9-1.4l-4.8,2.6l-4.8,2.6l-2.7-0.9l-2.7-0.9v-1.8l-1.4,0.5l-1.4,0.5  l-1.3-2.1h-11.1l-2.7,1.9l-2.7,1.9l-2.2,0.7l-2.2,0.7v1.4l-7.5,4l-1,1.2l-1,1.2l-6.8,5l-6.8,5l-0.9,0.3l-0.9,0.3l-0.7,6.3l-3.5,3.6  l-3.5,3.6l-3.9,0.6l-3.9,0.6l-1.8-2.5l-1.8-2.5h2.7l3.5-2.5l-3.2-6.5l-1.2-0.1l-1.2-0.1l-0.8,0.1l-0.8,0.1l-5.4,0.5l-5.4,0.5  l-0.8,0.1l-0.8,0.1l-1.9-0.1l-1.9-0.1l1.4-1.4l4.7-0.4l4.7-0.4l3.8-2.6l3.8-2.6l-0.8-0.8l-0.8-0.8l-5-0.8l2.8-1.2l2.8-1.2v-2.1  l-5.1,0.7l-5.1,0.7l-4.2-1.4l-4.2-1.4l-2.3-1.2l-2.3-1.2l3-0.6l3-0.6l3.5,1.5l3.5,1.5l2-1.3l2-1.3v-2.4l-1.9-0.6l-1.9-0.6l-1.8-2  l-1.8-2h9.9l2.5-1.6l2.5-1.6l1.2-1.5l1.2-1.5V412l-2.6,1l-2.6,1l-4.2,0l-4.2,0l-3-1.4l-3-1.4l1.8-0.1l1.8-0.1v-2.9l-1-0.6l-1-0.6v-2  l0.9,0.5l0.9,0.5l1.8-1.3l1.8-1.3l-2.5-2.5l-2.5-2.5l2.3-1.7l2.3-1.7V392l-2.2,0l-2.2,0l2.3-1.8l2.3-1.8l0.2-2.9l0.2-2.9l-6.2-3  l-6.2-3l0-0.8l0-0.8l3.2,0l3.2,0l1.1-0.7l1.1-0.7l0.5-1.5l0.5-1.5l-1.9-2.1l-1.9-2.1L2620,356h2l1-2.6l1-2.6l-3.1-4.6l-3.1-4.6  l-1.7-4.4l12.4,1l1.3-1.5l1.3-1.5l-2.9-2.1l-2.9-2.1l-1.8,0l-1.8,0l3-1.9l-0.9,0l-0.9,0l1.1-1.4l1.1-1.4l-4.3-4.4l-4.3-4.4l-1.3-4.3  l-1.3-4.3l1.1-1.1l1.1-1.1v5.5l2.2,0.9l2.2,0.9l0.6-0.5l0.5-2.7l0.5-2.7l-3-6l-2-7.3l-2-7.3l0.1-4.5l0.1-4.5l-0.7-1.1l-0.7-1.1  l-0.9,0.5l-0.9,0.5l-2.9,6.2l-2.9,6.2l-1.2,3.8l-1.2,3.8l-5.5,8.1l-5.5,8.1l1.1,1.3l1.1,1.3l-3.6,2.9l-3.6,2.9l-2.6,2.1l-2.6,2.1  l0.8,1.2l0.8,1.2l6.3-1.3l-3,2.9l-4.5,2.3l-4.5,2.3l-1.4,0.7l-1.4,0.7l-0.4,1.2l-0.4,1.2l2.9,0.6l2.9,0.6v2.8h-1.7v3h-2.2l1.2,1.5  l1.2,1.5l2.6-0.5l2.6-0.5l-3.5,2l-3.5,2l-3.8,0.7l-3.8,0.7l0.6,0.9l0.6,0.9h3.9v2h3.8l0.4,1.2l0.4,1.2l-2.3,2.5l-2.3,2.5v4.5h7  l0,1.5l-3.5,4.4l-10.3,5.1h-2.1l-3.5,1.8l-3.5,1.8l0,1.3l0,1.3l1.6,0.6l1.6,0.6l11.3-3.2l4-1.5l-4.4,4.1l-4.4,4.1l-2.1,0.3l-2.1,0.3  l-0.6,4l2.1,1.3l2.1,1.3l3.4-0.6l3.4-0.6l-0.5-0.9l-0.5-0.9l1.5,0.6l1.5,0.6l4.2-2.2v1.2l-2.2,1.9l-2.2,1.9l-2.9,1.6l-2.9,1.6  l-4.6,1.4l-4.6,1.4l-2.1,0l-2.1,0l-1.1,1.3l-1.1,1.3l1.8,1.6l1.8,1.6l5.4,0.7l5.4,0.7l-1.9,0.7l-1.9,0.7l-5.2,0.7l-5.2,0.7l-0.7,1.1  l-0.7,1.1l3.6,2.6l1.9-1l1.9-1v2.1h3v-1.7l5.1,1l-0.6,1.5l-0.6,1.5v1.8h-3.9l-1.4,2.2l1.4,0.9l1.4,0.9l-1.6,0l-1.6,0l-5.1,1.7  l-5.1,1.7v2.5l4.2,0.7l4.2,0.7l4.1-0.1l4.1-0.1l1.4-1.8l1.4-1.8l-0.6,1.8l-0.6,1.8v0.8l-3.9,0.6l-3.9,0.6l-0.4,1.1l-0.4,1.1l0.8,2.2  l0.8,2.2h3.4l-0.7,0.7l-0.7,0.7l-2.2,0.3l-2.2,0.3l-7,1l-2.8-1.5l-2.8-1.5h-1l0.5,2.5l0.5,2.5l-2.8-2.3l-0.7,0.7l-0.7,0.7l2.1,3.9  l2.1,3.9l-1.1-0.2l-1.1-0.2l-1.3-1.2l-1.3-1.2h-2.9v2.8l3,3l3,3l3.6,1.2l3.6,1.2l1.4,0.2l1.4,0.2l0.6,0.6l0.6,0.6l-2.9,0.6l-2.9,0.6  l-2.3,0.9l-2.3,0.9l-6.4,0l-3.8,0.6l-3.8,0.6l0.3,1.5l0.3,1.5l3,0.9l3,0.9l4,0.6l3,0.1l3,0.1l-10.9,5.1l-7.6-1.3v5.2l1.5,3.5  l1.5,3.5l-3.1-2.6l-3.1-2.6h-1.6l0.1,3.5l0.1,3.5l1.2-0.5l1.2-0.5l-0.2,1.2l-0.2,1.2l-0.8,1.3l-0.8,1.3l1.2,3.8l-2.6,0.7l-2.6,0.7  l0.5,1.4l0.5,1.4l-2.9,1l-2.9,1l-4.4,4.6l-4.4,4.6h-4.5l1.2,2h-1.9l-0.6-7.2l-0.6-7.2l-1.9-26l-1.4-22l-0.4-0.6l-0.4-0.6l2-4.4  l2-4.4l0-5.7l0-5.7l-2.4-3.5l-2.4-3.5l-0.1-9.5l-0.1-9.5l-0.8-1.3l-0.8-1.3l5.4,5.9l5.4,5.9l1.4,1.9l1.4,1.9l-1.1,4.2l-1.1,4.2  l-1,5.9l-1,5.9l2.9,5.4l2.9,5.4l-0.9,3.2l-0.9,3.2v3.6l1-0.6l1-0.6l1.5-2.9l1.5-2.9l0.4-2.3l0.4-2.3l-2.3-3.5l-2.3-3.5l-0.7-2.2  l-0.7-2.2h1.2l2.6,1.7l2.6,1.7l2.4,3.8l2.4,3.8v2.8l3.2,1.2h0.5l-1.1-7.5l-1.7-3.2l-1.7-3.2l-4-2.3l-4-2.3l0-2.1l0-2.1l1.2-7.5h1.7  v2.3l2.6,3.3l2.6,3.3h1.9v-2.7l-3.5-7.5l-3.5-7.5l-5.9-6.1l-5.9-6.1l-2.1-6.3l-2.1-6.3l-1.2-7l-0.5-9.2l-0.5-9.2l3.8,3.7l3.8,3.7  l0.7,6.7l0.7,6.7l4.4,9.6l0.4-1.1l0.4-1.1l-1.5-6.7l-1.5-6.7v-3.8l4.1,2.7l4.1,2.7l-1.3,13.1l1.5,6.3l1.5,6.3l0.4,0.4l0.4,0.4  l-0.2-13.8l-0.2-13.8l-2.8-3l-2.8-3l-3.9-5.8l-3.9-5.8h-2.9l-0.7-1.8l-0.7-1.8l-1.8-1.3l-1.8-1.3v-24l-1,0.6l-1,0.6v16.2l-0.6-0.6  l-0.6-0.6l-0.5-30.4l-0.5-30.4l-0.2-2.5h-2.5l-0.8,4.5l-0.8-7.2l-0.8-7.2l-2.5-2.1l-1,1.3l0,0l-1,1.3l0.8,32.9l0.8,32.9l0.7,9.1  l0.7,9.1l0.4,0.7l0.4,0.7l0.1,8.8l0.1,8.8l-3.3,7l-3.3,7l-2.4,6.3l-2.4,6.3l1,1.8l1,1.8l3,1l3,1l0.7,3.6l0.7,3.6l-0.7,4.7l-0.7,4.7  l-3.1,3.2l-3.1,3.2l-1,9.9l1.6,3.2l1.6,3.2v4.7h1.8l0.5-1.9l0.5-1.9l-2-4.7l-2-4.7l1.3-3.7l1.3-3.7l1-1.3l1-1.3l0.8,1.3l0.8,1.3  l0,4.6l0,4.6l2.5,3.3l2.5,3.3l-2.5,4.8l-2.5,4.8l0,2.3l0,2.3l2.6-4.5l2.6-4.5l0.9-0.9l-0.1,3.4l-0.1,3.4l1.4,32l-0.1,5.2l-0.1,5.2  l-1.9,3.6l-1.9,3.6l-2.3-3.2l-2.3-3.2l-4.7-4.8l-4.7-4.8l-2.6-1l-2.7-1l-1.8,0.6l-1.8,0.6l1.2-1.3l-1.7-5.2l-1.8-5.2l-1.8-0.3  l-1.8-0.3l-2.6-0.2l-2.6-0.2l1.1-2.8l1.1-2.8l-2.2-2.2l-2.2-2.2l-6.2,0l-6.2,0l-8.5,5.8v3.8l1.2,1.9l1.2,1.9l-1.2,1.5l-1.2,1.5  l-2.8-1.1l-2.8-1.1l-3.7,2.2l-3.7,2.2h-2l-1.9,1.8l-1.9,1.8l0.2,3.2l0.2,3.2l-4.2-3.4l-4.2-3.4h-3.3v3l1.2,0l1.2,0l-2.4,1.3  l-2.4,1.3l1.2,0.7l1.2,0.7l-0.6,0.9l-0.6,0.9h-5.6l-4.9,2.1l-4.9,2.1l-6.2,3.1l-6.2,3.1l-13.3-0.6l-13.3-0.6l-18.5-1.3V509h-3.8  l0.3-3.5l-4.9-2.3l-4.9-2.3l0.4-0.4l0.4-0.4l3.4,1l3.4,1l3.5-1.1v-1.6l-4-1.6l-4-1.6v-1.1l0.9,0.6l0.9,0.6l3.2-3.2l-0.7-2.1  l-0.7-2.1l-1.5-1.8l-1.5-1.8l-1.1,0l-1.1,0l-2.9-2.5l-2.9-2.5h3.2l0.6-1l0.6-1l-2.1-2.6l-2.1-2.6v-1.5l1.9,0.5l1.9,0.5l0.5-2l0.5-2  l-0.9-0.3l-0.9-0.3l-1.4-4.8l-1.4-4.8h2.7l-0.1-2.2l-0.1-2.2l-2.9-3.1l-2.9-3.1l-0.6-6.1l-0.6-6.1h-1.7l-0.6,2.8l-0.6,2.8l-2.1,5.5  l-2.1,5.5l-5.8,8.6l1.1,1.3l1.1,1.3l-3.1,4.4h3.5l-2.4,2.4v1.8l3.2-2.6l-0.7,3.9l-0.7,3.9l-1.4,3.4l-1.4,3.4v1l1.6-0.6l1.6-0.6  l-6.3,6.8l-6.3,6.8l1.6,0.3l1.6,0.3l6.1-3.2l0,0.8l0,0.8l-1.7,2.6l-1.7,2.6l-2.2,2.1l-2.2,2.1l-0.4-0.4c-0.2,0.5-0.5,0.9-0.8,1.3  v1.4l-1.6-0.1c-0.2,0.1-0.5,0.2-0.7,0.3c-6.9,2.5-14.3,0.2-21.5,0.6l0,0.1l-0.3,1l-1.2-1c-1.4,0.1-2.7,0.4-4,0.8  c-2.9,0.9-4.5,2.7-5.7,5.3l0.2,0.8h-0.6c0,0,0,0,0,0c-0.2,0.6-0.4,1.1-0.6,1.7l0.3,0.5l-0.6,0.4c-1.4,4.1-2.4,8.5-3.1,12.7  c-0.1,0.9-0.3,1.7-0.4,2.6l0.3,0.2l-0.3,0c-1.1,10.3,1.6,19.2,8.6,27.3c0.3,0.3,0.5,0.6,0.8,0.9l0.7-0.6l-0.4,1c4,4.6,8,9,11,14.1  l0.9,0.9l1.7,3.3l1.7,3.3l-0.2,1.9c0.2,1.2,0.1,2.2-0.4,3l-0.1,0.7l-0.7,5.6l-2.8,9.2c0.4,1,0.5,2.1,0.3,3.2  c-0.1,0.4-0.1,0.8-0.2,1.2l0.1,0.2h-0.1c-0.4,2.7-0.3,5.5-0.3,8.3c0,0.3,0,0.5-0.1,0.8l2.8,5.3l0.4,3.1l1,6.4l1,6.4l-0.5,2.1  l-0.5,2.1l-1.5,2l-1,7c-0.3,7-4.7,13.7-10.6,18.3c-8.7,6.7-19.4,10.4-27.7,17.6c0,0-0.1,0.1-0.1,0.1l0.2,0.3l-1.2,0.7l-0.6,0.3  c-2.5,2.3-4.8,4.8-6.9,7.6l0,0.1l0.5,1.4l-1.4-0.3c-3.4,4.7-5.9,10.1-6.6,15.7c-0.1,0.7-0.2,1.4-0.3,2.1l0,0.5h-0.1  c-0.1,0.6-0.2,1.3-0.3,1.9l1.2,1.5l-1.2-0.7l-0.1-0.1c-0.3,2-0.8,3.9-1.5,5.6l0.4,0.6l-0.8,0.2c-0.8,1.6-1.9,3-3.4,3.9l0,0.2  l0.1,0.7l-1.1-0.4c-0.5,0.2-1.1,0.4-1.8,0.6l-0.5,3.5l-0.6,4.7l0.6,2.4l0.6,2.4h-5.2l0.8-2.2l0.8-2.2l-1.2-5.2l-1.2-5.2l-1.4-2.9  l-1.4-2.9l-1.3,0.3l-1.3,0.3l0.6-1l0.6-1h-2.1l0.5-1.4l0.5-1.4l-1.9-0.6l-1.9-0.6l-7.4,0.4l-7.4,0.4l-5.5,2.2l-5.5,2.2l-1.6,1.4  l-1.6,1.4l-3.2,1.1l-3.2,1.1v1.8l1.2,0l1.2,0l-3,1.9l-0.1,3.5l-0.1,3.5h1.8l-1.2,1.9l1.4,3.5l1.4,3.5l-3.8,3.8l-3.8,3.8l-4.3,4  l-4.3,4l1.3-2.4c-0.1,0.1-0.2,0.1-0.2,0.2c-1.7,1.1-3.1,2.7-4.5,4.2l0.5,0.8l0.6,1l-1.7-1c-0.5,0.6-1,1.2-1.5,1.7  c-2.3,2.6-4.8,5-7.9,6.7c-0.5,0.3-0.9,0.4-1.4,0.5l-0.2,0.2l-0.6,0l-0.6,0l-2.4,1.7l-2.4,1.7l2.1,0.5l2.1,0.5l-2.3-0.1l-2.3-0.1  l-0.3-2.1l-0.3-2.1l-2.7-1.1l-2.7-1.1l2.7-0.1l2.7-0.1l0.5-0.9l0.5-0.9l-1.6-3.1l-1.6-3.1l-2.7-1.5l-2.7-1.5l6.5-0.1v-3l-2.5-0.1  l3.3-1.5l3.3-1.4l-0.4-1.2l-0.4-1.2l-6.9-1.9l1.8-0.4l1.8-0.4v-0.9l-1.7-2.7l-1.7-2.7l1.6,0.6l1.6,0.6l1.4-0.9l1.4-0.9l-1.3,0  l-1.3,0l0.7-1.1l0.7-1.1l-1.4,0.3l-1.4,0.3l-4.3-0.8l-4.3-0.8l0.6-0.9l0.6-0.9l6.4-0.1l-3.8-2.4l-5.7-4.7v-3.4l-2.1-1.8l-2.1-1.8  l2.1-1.5l2.1-1.5l0.9,0.5l0.9,0.5l1.1-1.4l1.1-1.4l-0.6-1.6l-0.6-1.6l-2.2-0.7l-2.2-0.7l-1.3-1l-1.3-1l2.3-2.8l-3.2-4l-3.2-4  l1.5,0.6l1.5,0.6v-2.5l3.5-2.6l-5.6-11.1l2.4-4.5l0.7,2l0.7,2l3.2,2.7v-5.1l-1.1-2.8l-1.1-2.8l-1.4-7l-1.4-7l0-2.9l2.4,2.4h7.4  l0.5-2.1l0.5-2.1l-2.5,0.6l-2.5,0.6l-2.4-2.4l-2.4-2.4l-1.7-5.8l-1.7-5.8l0.6-3.7l0.6-3.7l-1.1-2.8l-1.1-2.8l-1.2,0.4l-1.2,0.4  l-1.6,5.4l-1.6,5.4l-3.6,7l-3.6,4.5l-3.6,4.5l-0.1,1.8l-0.1,1.8l1.6-0.6l1.6-0.6l-1.9,2.2l-1.9,2.2l-10,9.7l2.4,0l2.4,0l4.9-3.5  l4.9-3.5v1.8l-3.9,3.5l-3.9,3.5l-2.6,1.7l-2.6,1.7v1.8h4.1l2-1.1l2-1.1l-1.2,2l-1.2,2l-0.8-0.5l-0.8-0.5v2.1l-1.5-0.3l-3.5,1.5v2.8  l3.5,0l5.8-3l0.3,0.3l0.3,0.3l-9,10.5v1.7l-3.6,2.2l-3.6,2.2l0.3,1.6l0.3,1.6l3,0.1l3,0.1l0.9,0.1l0.9,0.1l-1.9,2.1l-1.9,2.1  l-2.5,1.2l-2.5,1.2l-4.4-1.2l-2.7-2.4l-2.7-2.4l0.7,2.9l0.7,2.9l0.2,2l-0.4,1.5l-0.4,1.5l1.2,0l1.2,0l0.5,0.5l0.5,0.5l-1.9,0.1  l-1.9,0.1l-0.6-1l-0.6-1l-0.8,0.5l-0.8,0.5l0.5-2l0.5-2h-3.1l-0.9,1.7l-0.9,1.7l1.6,2.5l1.6,2.5l7.7,5.6l-4.3,0.8l-4.3,0.8l-0.3,1.7  l-0.3,1.7l4.8,0l4.8,0l-8.5,5.1v4.7l1.5,0.6l1.5,0.6l5.3-2l0.5,0.5l0.5,0.5l-2.1,1.8l-2.1,1.8l1.1,1.3l1.1,1.3h-3.2l-3.5,1.7  l-3.5,1.7v1.6l3.1-0.4l3.1-0.4l-2.9,2.4l-2.9,2.4l-3.6,1.2l0.4,1.2l0.4,1.2l-1.9,2.7l-1.9,2.7l1,0.6l1,0.6l-1,2.6l4.1-0.4l4.1-0.4  v1.1l-4.9,2.5l-4.9,2.5l-0.3,2.3l-0.3,2.3l-5.4,0.6l-5.2,6.2l1.3,0.8l1.3,0.8l-5.9,1.3l-2.4,0.7l-0.6-1l-0.6-1h-1.9v6.6l-5.5,5.1  l-4.5,2.3v-1.9l-2.8-1l-2.8-1l3.8-0.1l3.8-0.1l-0.1-1.5l-4.2-3l-4.2-3l-3.2-6l-3.2-6l0.9-0.9l0.9-0.9l4.5,4.1l1.8,0.6l1.8,0.6v-1.7  l2.1-0.6l2.1-0.6l-3.5-4l-3.5-4l-2.8-5.1l-2.8-5.1l4,2l4,2l1.3-1.5l1.3-1.5l-1.4-0.9l-1.4-0.9l-0.6,0l-0.6,0l-4.4-6l-1.8-5.8  l-1.8-5.8l4.4,2.5l4.4,2.5l0.5-0.5l0.5-0.5l-1.6-2.4l-1.6-2.4l-6-16.5l-1.5-3l-1.5-3l0.6-1.6l0.6-1.6l5.8,5.6l1.6-0.6l1.6-0.6v-1.8  l-1.5-0.6l-1.5-0.6l0.3-1.5l0.3-1.5l-4.8-2.5l0.2-0.9l0.2-0.9l-1.3-0.9l-1.3-0.9l3,0.9l-0.5,2.2l1.5-0.6l1.5-0.6l-0.7-1.1l-0.7-1.1  l-5.6-8.3l3.1,1.5l3.1,1.5l2.3-2.3l-2.8-2.2l-2.8-2.2l-0.4-2l-0.4-2l-2.2-9.7l2.2-12.1l-1.1-1.1l-1.1-1.1l0,1.5l0,1.5l-0.8-1.3  l-0.8-1.3l-2.6,9.1h-1.6l-1.4,4.3l-1.8-2.8l0,3.2l0,3.2l-1.2,3.2h-2.9l1.2,2l-5.1,1.9v1.2l1.2-0.6l1.2-0.6l-4.8,4.4l-4.8,4.4v1.5  l5.9-0.9l-2.9,4.4l-3.3,2.4l-3.3,2.4l-1.2-0.3l-1.2-0.3v1.6l3,2.9l3,2.9l2.1-0.6l2.1-0.6l-3.3,3.4l-3.3,3.4l-12.7,8.7l0,1.2l0,1.2h3  v2.2l3.2-2.7l3.2-2.7l1.2-2.1l1.2-2.1l0,1.1l0,1.1l-3.9,5l0.9,1.3l-0.7-0.5l-0.7-0.5l-3.1,3l-3.1,3l-9.8,3.7l0.3,0.8l0.3,0.8  l6.7-0.1l6.7-0.1l-3.7,3.4l-3.7,3.4l-2.5,0.1l-2.5,0.1l-2,0.5l-0.8,0.1l-0.8,0.1v3h5.1l-2.1,2.1l-7.8,0.7l-0.3,2l-0.3,2l4.2,1.1  l3.6-0.6l3.6-0.6l-0.8,1.3l-0.8,1.3l2.6,1.6l-1.6,1.6l-1.6,1.6l-0.3-0.1l-0.3-0.1l-4.3,0.7l-4.3,0.7l-1,1.6l2.8,2.8l7.1-0.4l7.1-0.4  v1.8l-2.4,2.1l-2.4,2.1l-7.8,2l-7.8,2l-0.6,3.1l2.2,0.7l2.2,0.7l0.9-1.4l0.9-1.4l0,1.3l0,1.3l-3.3,3.3l1.1,0.4l1.1,0.4l4.2-2.1  l4.2-2.1l0.5,0.5l0.5,0.5l-3.3,2l-3.3,2l-2.2,0.7l-2.2,0.7v2.9l-2.2,0.8l-2.2,0.8l0.2,0.8l0.2,0.8l1.3,0.8l1.3,0.8l6,0.2l-9,2.7  l-2.8,0.6l-2.8,0.6l0.3,1.7l0.3,1.7l6,1.3l-1.6,0.1l-1.6,0.1l-5.4,2.5l-0.6,1.9l-0.6,1.8l0.8,0.8l0.8,0.8l3.2,0.6l3.2,0.6l0.5-1.2  l0.5-1.2l0.2,2.5l5.5-1.1l-2.5,1.2l-2.5,1.2l-4.9,2.3l-4.9,2.3l-1.6,0l-1.6,0l2.8,1.8l-5.1,2.6l-5.1,2.6h-1.2l1.3-4h-2l-0.6,0.9  l-0.6,0.9l-6.2-0.8l-0.5-0.5l-0.5-0.5l3-1.5l3-1.5l1.9,0.5l1.9,0.5l0.8-1.2l0.8-1.2l-2.2,0.6l-2.2,0.6v-2l4-1V824h-3.9l-7,1.5  l-7,1.5l-12.3-2l-0.7,0.4l-0.7,0.4l-2-0.8l-2-0.8l3.8-0.1l3.8-0.1l17.5-4.2l2.6-1.6l-0.8-1.2l-0.8-1.2l-6.6,0.6l-6.6,0.6l-5.1,0.6  l-5.1,0.6l-4.4-2.2l-4.4-2.2l-2.2-2.1l-2.2-2.1V805h2.3l1.1,1.5l1.1,1.5l6,1.8l6,1.8l6.7,0.2l6.7,0.2l0.6-1l0.6-1l-2.3-0.7l-2.3-0.7  l-9.1-4.4l-9.1-4.4l-1.7-2.6l-1.7-2.6l1.4,0.8l1.4,0.8l5.5,4l2.3-2.3l-2.4-2.1l-2.4-2.1l4,1.3l10,1l7,0.4l7.5-1.9V793h-5.9l-8-2.5  l-8-2.5l-1.8-2.3l-1.8-2.3l-1,0.3l-1,0.3l-8-6.9l5,0.6l5.5,2.6l5.5,2.6l5.8,0l5.8,0l-0.4-1.1l-0.4-1.1l-5.5-2.1l-5.5-2.1l13-1.2  l7.6-3.3l-1.3-2h-12l-7.7-2.6l-7.7-2.6l-6.8-4.5l-6.8-4.5l0.4-0.4l0.4-0.4l12.6,5.1l14.1,0l14.1,0l2.8-1.1l2.8-1.1l-0.4-1.2  l-0.4-1.2l-2.4-0.7l-2.4-0.7l2.3-0.7l2.3-0.7l-0.4-1.6l-0.4-1.6l-1.4,0.4l-1.4,0.4l-4.5,0.9l-4.5,0.9l-9-1.2l-7.4-1.1l-2.8-0.8  l-2.8-0.8l4.4-0.2l5.6-2.2l3.5-0.2l3.5-0.2l2-1.1l2-1.1l2.8-1l2.8-1V739h-8v-3h-10.9l-1.2-2h-4.8l-1.2-2h-4l-4.9-4.9l-4.9-4.9l0-1.4  l0-1.4l0.7,1.1l0.7,1.1l8,5l0.8,0.1l0.8,0.1l3,1.5l3,1.5v-1l2.6,1l2.6,1l4.9,0.1l4.9,0.1l13.1-3.8l2.7-2.9l2.7-2.9l-1.1,0.6  l-1.1,0.6l-7.6,1.6l-7.6,1.6l-4.6-0.5l-4.6-0.5l-3.8-2l-3.8-2l5-0.1l5-0.1l2.3-0.4l2.3-0.4l2.9-1.5l2.9-1.5v-3.2l-4.5,1.4l-3,0.5  l-3,0.5l8.3-6.2l0.6-1.6l0.6-1.6l-0.7-0.7l-7.4,3.1l-5.2,1l-5.2,1l-6.1-0.6l-6.1-0.6l-2.7-2.3l-2.7-2.3l-0.5-7.9l-0.5-7.9l1.8-0.1  l1.8-0.1l3.4,1.5l3.4,1.5l7.9-0.5l7.9-0.5l1.2-1.2l1.2-1.2h-6.6l-5.2-1.5l-5.2-1.5l-1.7-1.3l-1.7-1.3l17.8,1.8l8.5-2.3l-0.4-1.2  l-0.4-1.2l-7.8,0.7l-3,0.2l-4.5-0.8l-4.5-0.8l-8.6-6.2l-3.3-4.6l-3.3-4.6l-0.6-4.2l-0.6-4.2l0.7-0.5l0.7-0.5l4.4,2.2l4.4,2.2h24  l4-1.7l-7.4-1.9l-7.4-1.9l-5.3-0.2l-5.3-0.2l1.2-0.8l1.2-0.8l2.2,0l2.2,0l2.5-1.2l2.5-1.2V648l-3.2-0.1l-3.2-0.1l-2.2-0.2l-2.2-0.2  l-4.6-1.3l-4.6-1.3l-2.9-3.5l-2.9-3.5l-0.4-4.6l-0.4-4.6l0.3-0.4l0.3-0.4l3.8,2.5l3.8,2.5l4,1.2l1.4-0.9l1.4-0.9l-6.2-3.2l-1.4-2.5  l1.3,1.2l1.3,1.2h11.6l0-0.8l0-0.8l-10-4.8l-10-4.8l-2-3.7v-4l2.6,1.4l2.6,1.4l1.4-0.5l1.4-0.5l0-0.6l0-0.6l-3-3.5l-3-3.5l-1.5-5.2  l-1.5-5.2l-1.3,0.5l-1.3,0.5l-3.7,8.4l-2.7,2.5l-2.7,2.5l-3.4,3l-3.4,3l0.5,1.3l0.5,1.3h2.9l2.7-1.7l2.7-1.7l2.4-2.1l2.4-2.1l-0.5,1  l-0.5,1l-1.7,3.8l-1.7,3.8l-3,4.4l-3,4.4l-8.3,7.1h-3.6v3.1l1.5,0.6l1.5,0.6l3.6-2.1l3.6-2.1h1.1l-2.5,3h3.8l3.5-3l3.5-3l0.5,0  l0.5,0l-0.1,3.2l-0.1,3.2l-1.2,0.4l-1.2,0.4v2.9l-3.5,5.4l-1.4,2l-3.7,4.3l-3.7,4.3l-3.9,2l-3.9,2l0.5,0.5l0.5,0.5l4.4-1l4.4-1  l0.4,0.4l0.4,0.4l-1.9,0.8l-1.9,0.8l-3.2,2l-3.2,2v1.6h2.9l-4.2,4l-4.2,4l2.8,0l2.8,0l5.8-3l4.3-2.9l4.3-2.9l6-7.5l0.8-1.4l0.8-1.4  h1.5l0,10.9l0,10.9l-2.7,2.5l-2.7,2.5l-13,6.2l-5,1.5l-5,1.5l0.4,1.2l0.4,1.2l4.4-0.3l4.4-0.3l2.5-0.5l2.5-0.5l-1.9,1.4l-1.9,1.4  l1.2,0.7l1.2,0.7l3.7-1.2l3.7-1.2l8.3-6.9l0.7-0.1l0.7-0.1l0.1,9.8l0.1,9.8l-2.8,3.6l-2.8,3.6l-5.4,2.5l-5.4,2.5l-18-0.1v1.9  l2.4,1.6l2.4,1.6l11.7,0.1l-3.5,1.8l-3.5,1.8l-9,1.3l-6.5-1.9l0,1.2l0,1.2l0.8,1.2l0.8,1.2l23.7,1.9l5.5-3.6l5.4-3.6l1-2.7l1,0.6  l1,0.6l-5.2,5.5l-5.2,5.5l0.5,0.5l0.5,0.5l2-0.6l1.9-0.6l7.2-7l0.1,1.8l0.1,1.8l0.3,7.2l0.3,7.2l-4.8,4.1l-4.8,4.1h-1.5l-1.2,1.7  l-1.2,1.7l-9.4,0.3l-9.4,0.3l-1.2,0l-1.2,0v3.2l4,1v1.7l-3.8,0.6l-3.8,0.6l-1.2,0.4l-1.2,0.4v2.6l3.2,0.2l3.2,0.2l0.9,0.9h-4.1  l-1.1,1.4l-1.1,1.4l1.5,1.3l1.5,1.3l7-0.6l7-0.6l4.3-1.7l4.3-1.7l7.3-5.7h1.6l1.8-1.7l1.8-1.7l0.4,0.4l0.4,0.4l-2,4.2l-2,4.2  l-11.9,8l-6.9,1.3v1.6l2.1,0.7l2.1,0.7l-2.1,2.3l-2.1,2.3l-7.2,2.2l-7.2,2.2l-3,1.6v1.8l11,1l-5.5,1.5v3.2l4.2-0.5l4.2-0.5l4.7-2.1  l4.7-2.1l3.3-3.3l-1.3,5.2h3.8l3.2-2.5l9.2-12.7v2l-1.5,2.9l-1.5,2.9l0,2.1l0,2.1l-6.7,5.8l-6.6,3.7l-6.6,3.7h-5.1l-1.4,2.3l2.1,1.7  l2.1,1.7l9.6-2l1-1.4l2.4-1.2l2.4-1.2l-0.8,1.3l-0.8,1.3l-1.8,1.3l-1.8,1.3v2.7l3.2,1.2h3.1l2.2-2.9l3.8-0.7l3.8-0.7l-0.3,3.3  l-0.3,3.3l-6.8,4.6l0.9,0.1l0.9,0.1l-23.9,6.8l-4.8,0.2l-4.8,0.2l0.7,2l3.4,1.2l3.4,1.2l6.1,0.2l1.9,1.4l1.9,1.4l-3,0.7l-3,0.7  l-5.9,1.4l-0.4,1.1l-0.4,1.1l1.8,0.7l1.8,0.7l8,0.6l8,0.6l0.3,2.2l0.3,2.2h2.2l13.6-7.1v5.8l-1.4,1.2l-1.4,1.2l0.5,1.4l0.5,1.4  l-4.2,9.4v4.5l-1.4,1.2l-1.4,1.2l0.5,1.3l0.5,1.4l-4.1,2.2l-1.6,3l-1.6,3l0.6,1l0.6,1h-1.8l-6.5,15.5l-1.8,5.2l-1.8,5.2l-3.8,3.5  l-3.8,3.5l-10,5.4l-3.8,2.9l-3.8,2.9l-0.6,4l-0.6,4l-5.8,7.1l-5.7,7.1l-2.6,2.5l-2.6,2.5l-2.2-1.3l-2.2-1.3l2.4,2l2.4,2l-1.7,0.7  l-1.7,0.7l-0.8-1.3l-0.8-1.3l-5.3,4.8l-5.3,4.8l-8.1,4.1l-4.8,3.4l-4.8,3.4h-1.2l-6.7,3.1l-6.7,3.1l-2.5,1l-2.5,1l-3.4,0.4l-3.4,0.4  l-1.6,1.5l-1.6,1.5l-7.7,2.7l-1.6,4.8l-1.6,4.8l-1.6,1.2l-1.6,1.2l0.2,4.1l0.2,4.1l0.7,1.1l0.7,1.1l-6.7,6.6l-0.9,4l-0.9,4l1,8  l897.2,0.3l897.2,0.2V429L3499.2,428.9z"
   id="path1163" />
<path
   class="st1"
   d="M1482.4,1006.6l-0.4-0.4l0.1,0c-1.8-2.1-3.6-4.2-5.4-6.3l-0.5-0.1l-0.2-0.6c-1.5-1.7-3.1-3.4-4.6-5  c-10-10.3-22-18.6-31.5-29.4c-7.7-8.8-14.4-19-23.9-26c-1.1,1-2.6,1.5-4.5,0.9c-12.7-4.3-26.3-1.5-39.4-3.6l-0.2,0.1l-0.1-0.1  c-2-0.3-3.9-0.8-5.9-1.4c-0.4-0.1-0.7-0.2-1-0.4c-4.3-0.3-8.6-0.6-12.9-1.1c-9-0.9-17.8-3.1-26.2-6.5c-6.8-2.8-13.7-6.7-16.6-13.8  c-0.1-0.3-0.2-0.6-0.3-0.8l-0.1-0.2l-4.3-6.5l-4.5-8.5l-4.5-8.5l-4.4-2.9l-4.4-2.9l-82.3-0.3l-3.8,1.7c-0.5,1-1.4,1.8-2.7,2.3v0.7  l-0.7-0.4c-5.4,2-10.2,5.6-15.6,7.5c-5.6,2-11.6,3.3-17.3,4.8c-3.4,0.9-6.6,1.9-9.8,2.8l-0.4,0.3l-1.7,0.2c-2.3,0.6-4.5,1.1-6.8,1.5  l-0.1,0.1l-0.5,0.7l-2.5-0.5l-0.2,0c-3.6,0.2-7.4,0-11.3-1.2c-11.8-3.4-23.4-7-35.3-9.9c-12.8-3-25.6-5.8-38.3-8.9  c-2.7-0.7-3.7-2.9-3.5-5c-2-1-3.8-2.5-5.8-4.1c-2.4-1.9-4.8-3.8-7.2-5.7l-5.2,0l-7.4-0.1c-0.5,0.5-1,1-1.7,1.3l-0.1,0.1l-0.5,0.1  c-0.3,0.1-0.7,0.1-1,0.2l-2.4,0.4l-3.6,0.6c-1.3,0.4-2.6,0.8-3.9,1.3v0.4l-1.3,0.1c-2.2,0.8-4.4,1.7-6.6,2.3  c-6.4,1.8-13.2,2.1-19.7,3c-5,0.7-9.8,2.2-14.6,3.2c-0.8,1-1.9,1.6-3.5,1.7c-4.5,3.4-10.2,3.2-15.7,3c-7.3-0.3-15.3-1-22.5,0.1  c-0.4,0.1-0.9,0.1-1.3,0c-3.3,1.8-6.3,4.2-9.3,7.5c-1.8,2-3.6,4-5.4,6l-0.2,0.3h-0.1c-4.5,5.1-9,10-14.5,14.2  c-6.9,9.7-16.4,17.2-27.3,21.7c-8,5.9-15.7,8.1-25.5,6.9c-2.7-0.3-5.4-0.7-8.1-0.6c-2,0.1-2.7,0-3.5,1.7c-0.8,1.6-0.9,3.7-1.6,5.5  c-0.9,2.2-2.2,4.3-3.4,6.4c-5.7,9.9-6.9,21.7-14.6,30.6c-0.3,0.3-0.6,0.6-0.9,0.9l0.3,0.3l0.7,0.8l-1.5-0.5l0,0  c-7.4,7.6-17,10.6-26.9,13.2l0,36.1l363.8,0l360.2,0C1500.8,1029.3,1491.7,1017.7,1482.4,1006.6z"
   id="path1165" />
</svg>
