<?xml version="1.0" encoding="UTF-8" standalone="no"?>
<svg
   version="1.1"
   id="Layer_1"
   x="0px"
   y="0px"
   viewBox="0 0 3499.1 1036.7"
   style="enable-background:new 0 0 3499.1 1036.7;"
   xml:space="preserve"
   sodipodi:docname="layer0.svg"
   inkscape:version="1.2.2 (732a01da63, 2022-12-09)"
   xmlns:inkscape="http://www.inkscape.org/namespaces/inkscape"
   xmlns:sodipodi="http://sodipodi.sourceforge.net/DTD/sodipodi-0.dtd"
   xmlns="http://www.w3.org/2000/svg"
   xmlns:svg="http://www.w3.org/2000/svg"><defs
   id="defs71" /><sodipodi:namedview
   id="namedview69"
   pagecolor="#505050"
   bordercolor="#eeeeee"
   borderopacity="1"
   inkscape:showpageshadow="0"
   inkscape:pageopacity="0"
   inkscape:pagecheckerboard="0"
   inkscape:deskcolor="#505050"
   showgrid="false"
   inkscape:zoom="0.3458032"
   inkscape:cx="1753.8878"
   inkscape:cy="520.52729"
   inkscape:window-width="1920"
   inkscape:window-height="1017"
   inkscape:window-x="-8"
   inkscape:window-y="-8"
   inkscape:window-maximized="1"
   inkscape:current-layer="Layer_1" />
<style
   type="text/css"
   id="style2">
	.st0{fill:url(#SVGID_1_);}
	.st1{fill:url(#SVGID_00000116957082637615448000000009819750277579329172_);}
	.st2{fill:url(#SVGID_00000073709899690430301160000017116109321041208234_);}
	.st3{fill:url(#SVGID_00000013877643347823637520000005358545883458192001_);}
	.st4{fill:url(#SVGID_00000146463696912376264750000005988031617160436404_);}
	.st5{fill:url(#SVGID_00000161630862336225849350000009314891461702892716_);}
</style>
<linearGradient
   id="SVGID_1_"
   gradientUnits="userSpaceOnUse"
   x1="1749.5714"
   y1="1035.3831"
   x2="1749.5714"
   y2="-0.9805">
	<stop
   offset="0.5022"
   style="stop-color:#FFC01B"
   id="stop4" />
	<stop
   offset="0.6228"
   style="stop-color:#FFAF1B"
   id="stop6" />
</linearGradient>
<rect
   x="-0.4"
   y="-1"
   class="st0"
   width="3500"
   height="1036.4"
   id="rect9" />
<linearGradient
   id="SVGID_00000029756366495102845490000015793771146348659078_"
   gradientUnits="userSpaceOnUse"
   x1="1816.3055"
   y1="634.5729"
   x2="1816.3055"
   y2="478.8083">
	<stop
   offset="9.063444e-02"
   style="stop-color:#FFC01B"
   id="stop11" />
	<stop
   offset="0.3701"
   style="stop-color:#FFCE3C"
   id="stop13" />
	<stop
   offset="0.7764"
   style="stop-color:#FFE473"
   id="stop15" />
</linearGradient>
<rect
   x="1477.7"
   y="478.8"
   style="fill:url(#SVGID_00000029756366495102845490000015793771146348659078_);"
   width="677.2"
   height="155.8"
   id="rect18" />
<linearGradient
   id="SVGID_00000183936461585252557190000016218112240136017566_"
   gradientUnits="userSpaceOnUse"
   x1="307.9781"
   y1="759.3282"
   x2="386.1897"
   y2="315.768">
	<stop
   offset="0.6542"
   style="stop-color:#FB9F1B"
   id="stop20" />
	<stop
   offset="0.764"
   style="stop-color:#FCA11B"
   id="stop22" />
	<stop
   offset="0.8226"
   style="stop-color:#FEA91B"
   id="stop24" />
	<stop
   offset="0.8459"
   style="stop-color:#FFAF1B"
   id="stop26" />
</linearGradient>
<path
   style="fill:url(#SVGID_00000183936461585252557190000016218112240136017566_);"
   d="M1.5,358.6l31.5,6.1l14.1,12.9l41.2-13.4  l12.9-10.6c0,0,54.8-8.5,59.5-10.6c4.7-2.1,11.1-2.6,47.1-1.6l5.6,9.4c0,0,9.9-2.6,8.5,11.1s17.9,22.6,24.7,24.7  c6.8,2.1,24.7-1.2,25.4-0.9s47.1-24.9,47.1-24.9l16.9,2.8l80.7-42.4l70.8,24.2c0,0,21.6,0.7,39.3,6.8c17.6,6.1,80.2,18.1,80.2,18.1  s40.9,0.2,53.6,44.2c0,0,11.8,29.6,30.4,46.4c18.6,16.7,47.3,66.1,17.2,144.2c-30.1,78.1-156.5,151.1-247.5,156.5  s-209.6,18.6-329.2-92c0,0-76.9,9.4-129.9-79.3"
   id="path29" />
<linearGradient
   id="SVGID_00000119108120999653658250000007981296851369965729_"
   gradientUnits="userSpaceOnUse"
   x1="3066.1516"
   y1="671.9456"
   x2="2956.6089"
   y2="370.9791">
	<stop
   offset="0.5609"
   style="stop-color:#FB9F1B"
   id="stop31" />
	<stop
   offset="0.6795"
   style="stop-color:#FBA11B"
   id="stop33" />
	<stop
   offset="0.7429"
   style="stop-color:#FDA91B"
   id="stop35" />
	<stop
   offset="0.7881"
   style="stop-color:#FFB51B"
   id="stop37" />
</linearGradient>
<path
   style="fill:url(#SVGID_00000119108120999653658250000007981296851369965729_);"
   d="M2712.5,460.2v139.4  c0,0,13.4,19.1,14.8,28.6c1.4,9.5,24,58.2,123.9,57.5c30.5-0.2,92.3,15.1,171.8-2.1c18.8-4.1,84.3-19.5,155.7-67.1  c38.8-25.9,67.2-53.1,86.1-73.8c40.5-33.5,58.6-70.7,48-91.5c-2.6-5.2-7.4-9.6-14.9-13l-20.8-8.8l-11.6-1.4c0,0-1.8,20.1-22.9,5.3  c-13.5-1-33.1-4-54.7-13.8c-4.7-2.1-7.9-3.9-10.6-5.3c-48.2-25.7-109.1-50.5-109.1-50.5l0,0l-18-0.7c-39.3,17.3-72.3,27.4-95.3,33.5  c-45.2,12-58.4,10-90.7,24.4c-9.8,4.3-27.6,12.9-54.7,22.2c-12.3,4.2-22.6,7.2-29.6,9.2c-12.8-1.1-25.6-2.1-38.5-3.2L2712.5,460.2z"
   id="path40" />
<radialGradient
   id="SVGID_00000036225314821046066820000004826334795292497853_"
   cx="1750.7761"
   cy="447.8671"
   r="78.7059"
   gradientUnits="userSpaceOnUse">
	<stop
   offset="0.1379"
   style="stop-color:#FFE473"
   id="stop42" />
	<stop
   offset="0.4889"
   style="stop-color:#FFE371"
   id="stop44" />
	<stop
   offset="0.6765"
   style="stop-color:#FFE169"
   id="stop46" />
	<stop
   offset="0.8254"
   style="stop-color:#FFDD5B"
   id="stop48" />
	<stop
   offset="0.9533"
   style="stop-color:#FFD848"
   id="stop50" />
	<stop
   offset="1"
   style="stop-color:#FFD53F"
   id="stop52" />
</radialGradient>
<circle
   style="fill:url(#SVGID_00000036225314821046066820000004826334795292497853_);"
   cx="1750.8"
   cy="447.9"
   r="78.7"
   id="circle55" />
<linearGradient
   id="SVGID_00000147197016732465599690000016031501315541461917_"
   gradientUnits="userSpaceOnUse"
   x1="1347.0203"
   y1="496.9323"
   x2="1857.7173"
   y2="496.9323">
	<stop
   offset="6.536588e-04"
   style="stop-color:#FB9F1B"
   id="stop57" />
	<stop
   offset="0.3254"
   style="stop-color:#FBA11B"
   id="stop59" />
	<stop
   offset="0.4989"
   style="stop-color:#FDA91B"
   id="stop61" />
	<stop
   offset="0.6227"
   style="stop-color:#FFB51B"
   id="stop63" />
</linearGradient>
<path
   style="fill:url(#SVGID_00000147197016732465599690000016031501315541461917_);"
   d="M1385.5,458.1c0,0,0.2,12.5-11.3,19.5  c-11.5,7.1-27.1,26.6-27.1,26.6s-2.4,20.7,14.8,13.2c0,0,6.6-2.4,6.4,6.6c-0.2,8.9,12.5,13.9,14.8,10.6c0,0,4.9,2.1,13.4,9.9  s18.4,12,31.8,12.2s19.5-29.2,19.5-29.2l11.5,1.2l9.6,15.5c0,0,66.8-19.5,78.1-27.8l12-0.2c0,0,15.1,16.7,25.9,20.7  s77.6-4.2,77.6-4.2l-2.8-7.1c0,0,47.3-3.3,74.1,3.1l115.3-62.1l8.5-20.5l-32.9,12c0,0,1.2,10.4-6.1,4.2c-7.3-6.1-14.4-7.3-14.4-7.3  l-18.8-1.4l-31.8-10.8l-86.8,30.6c0,0-30.1-4-36.9-11.8h-8.5c0,0-1.4,4.5-25.9-12.5c0,0-10.4-11.3-29.9-0.5c0,0-32.2,10.4-45.9-0.2  c-13.6-10.6-25.9-5.4-25.9-5.4s-19.1-15.1-36.5,3.1l-16.5,8.7l-45.9-0.9c0,0-7.3-0.9-10.4,4.2"
   id="path66" />
</svg>
