<?xml version="1.0" encoding="UTF-8" standalone="no"?>
<svg
   width="3500"
   height="1038"
   version="1.1"
   id="svg4"
   sodipodi:docname="layer8.svg"
   inkscape:version="1.2.2 (732a01da63, 2022-12-09)"
   xmlns:inkscape="http://www.inkscape.org/namespaces/inkscape"
   xmlns:sodipodi="http://sodipodi.sourceforge.net/DTD/sodipodi-0.dtd"
   xmlns="http://www.w3.org/2000/svg"
   xmlns:svg="http://www.w3.org/2000/svg">
  <defs
     id="defs8" />
  <sodipodi:namedview
     id="namedview6"
     pagecolor="#505050"
     bordercolor="#eeeeee"
     borderopacity="1"
     inkscape:showpageshadow="0"
     inkscape:pageopacity="0"
     inkscape:pagecheckerboard="0"
     inkscape:deskcolor="#505050"
     showgrid="false"
     inkscape:zoom="0.34571429"
     inkscape:cx="1754.3388"
     inkscape:cy="520.66116"
     inkscape:window-width="1920"
     inkscape:window-height="1017"
     inkscape:window-x="-8"
     inkscape:window-y="-8"
     inkscape:window-maximized="1"
     inkscape:current-layer="svg4" />
  <path
     d="m2352.667 386.667-.667.666-.015 3.084-.016 3.083-.873-1.378-.872-1.378-1.112.687-1.112.687v5.715l-.911.334-.911.333-1.143 10.5-1.143 10.5-.58 11.667-.58 11.667-1.243-.477-1.244-.477-.764 3.81-.764 3.81-.28 8.5-.279 8.5-.181 3.5-.182 3.5-.781-3.301-.782-3.3-.616-.616-.616-.616-.109 42.916-.11 42.917-.322 17-.322 17-.187.5-.187.5.228 1 .228 1-.141 5-.141 5 .162 2.5.161 2.5-.023 2-.023 2-.699 22.5-.699 22.5.006 4 .005 4 .613 3 .614 3-.788 1.173-.789 1.173-12.489.574-12.488.573-30.5.021-30.5.021-8.5-.504-8.5-.504-9-.525-9-.524-7.5-.527-7.5-.526-7.535-.981-7.534-.98-3.966-.473-3.965-.472-3.5-.554-3.5-.555-4-.398-4-.399-11.5-2.098-11.5-2.098-3.5-.51-3.5-.51-3.5-.897-3.5-.896-8-1.654-8-1.655-7.5-2.001-7.5-2.001-5-1.37-5-1.371-8.788-2.656-8.787-2.655 1.396-1.621 1.397-1.62.535-2.204.535-2.203-1.21-1.655-1.21-1.655-1.934.397-1.934.397.148 1.768.149 1.768-2.649-.306-2.648-.307-.307-4.25-.308-4.25h-1.485l-.971.971-.972.972-2.456.375-2.456.374-.564 2.404-.563 2.404-2.209.32-2.209.319v-3.069l-2.117-1.132-2.116-1.133-1.262 1.347-1.262 1.348-.526 4.25-.527 4.25h5.633l-.252 1.75-.252 1.75-2.41.335-2.409.334-.95.916-.95.915 1.063 1.063 1.063 1.063 3.387.094 3.387.094 1.209 1.593 1.21 1.593-.527 1.75-.527 1.75h2.309l-.685 9.75-.686 9.75-.337 8-.337 8-.564 12.5-.564 12.5-.505 15.5-.505 15.5-.469 7.5-.469 7.5-.517 9-.518 9-.576 13-.576 13-.321 27-.321 27-.653 14-.652 14-.445 2.8-.444 2.799.985-.608.985-.609v3.236l-1.051-.649-1.051-.65-.045 4.341-.046 4.34-.103 6-.102 6 .685 3.5.686 3.5-.935-2.5-.935-2.5.045 4 .046 4-.128 4-.127 4-1.031-1.771-1.031-1.771-.834.515-.833.516-.594-1.547-.593-1.546.988.611.989.611v-1.873l-1.324-1.099-1.324-1.098-1.323 1.226-1.323 1.226.603-1.718.604-1.718-.888-.548-.887-.549-.569.921-.568.92 1.969 4.346 1.97 4.346-.493-3-.493-3 1.053 2.42 1.054 2.419-1.156 1.081-1.155 1.08-.46-1.256-.461-1.256-.939.58-.94.581.275-1.2.275-1.199-1.281-.469-1.281-.468.149.843.15.844-.218 1.5-.218 1.5-.887-2.5-.887-2.5.45 3.194.451 3.194-2.096.665-2.096.666 1.382.875 1.382.875h-6l1.5-1.06 1.5-1.061-1.5.43-1.5.429.256 1.483.257 1.483-2.757 1.282-2.756 1.282-10 4.246-10 4.246-3.811 1.85-3.81 1.849.458 1.752.458 1.752-.648-.085-.647-.084-1 .134-1 .134 1.5 1.05 1.5 1.05-2.212-.621-2.212-.621-2.066 1.106-2.066 1.105.458.741.458.741-3.43-.4-3.43-.401v-1.869l-1.25.245-1.25.244-3.5-.704-3.5-.705-2.427-.472-2.426-.473-.808-1.274-.808-1.273-.031 1-.031 1-.778-1.225-.778-1.224-2.181-.333-2.18-.333-.776-.853-.776-.853 1.25.72 1.25.719v-1.108l-4.438-2.086-4.438-2.086-1.647-2.513-1.647-2.514-2.165.545-2.165.545 2-1.585 2-1.585-1.84.638-1.84.637-1.115-.688-1.115-.689-2.852-.312-2.853-.313.704 1.248.704 1.248-1.179-1.083-1.18-1.083.638-1.661.638-1.662.895.554.895.553v-2.236l1 .618 1 .618v-2.236l.75.442.75.441 2.314-.874 2.314-.874-.756-1.259-.756-1.258 1.652 1.339 1.651 1.339-.391-2.031-.391-2.032 1.229.472 1.23.472.144-7.053.144-7.052-1.192.597-1.192.597 1.5-1.324 1.5-1.324-.039-2.93-.038-2.929-1.255-.418-1.255-.419.566 2.848.567 2.848-1.074-2.476-1.075-2.476 1.667-1.219 1.668-1.219-.415-3.555-.415-3.555h1.535l-.573-1.494-.574-1.495-1.145.641-1.145.641 1.25-1.346 1.25-1.347V892l-1.125.25-1.125.25-.3-1.275-.3-1.275.51 1.031.511 1.031.78-.482.781-.482-.487-2.547-.487-2.546-2.379-1.871-2.379-1.872V880h-4v-1.545l-3.25-1.641-3.25-1.641-4.5-.09-4.5-.091-2.5-.5-2.5-.501-22-.022-22-.022-11.042 1.855-11.042 1.856-10.217 5.495-10.218 5.495.499.498.498.499.159 8.533.16 8.533-.791 1.28-.791 1.28-.418 8.614-.417 8.615 2.658 4 2.657 4 3.472 2.25 3.472 2.25 1.18.032 1.181.032 1.941 1.468 1.941 1.468-.441-.018-.441-.019-10.907-3.481-10.907-3.482-8.593.006-8.593.005-4 1.094-4 1.094-1.643 1.458-1.642 1.458-2.858.746-2.857.745-3.058 5.705-3.058 5.705-1.118 1.118-1.118 1.118-5.324-2.053-5.324-2.054-5.5-1.536-5.5-1.536-14.5-1.117-14.5-1.116-5.422-1.498-5.422-1.498-4.826-2.757-4.827-2.756.498-.499.499-.499-1.25-.137-1.25-.138-3-.583-3-.582-1.5-.08-1.5-.079-1.811-1.577-1.811-1.577-.827 1.338-.827 1.338-1.362-.87-1.362-.87-3.117-1.094-3.118-1.095-6.882-.214-6.883-.215-2.5-.366-2.5-.365v-.32l-2-.438-2-.437-2-.262-2-.262-2.278-1.274-2.278-1.274.521-.843.521-.844-2.611-.655-2.611-.655.59-.59.59-.591-2.481-3.111-2.482-3.111-2.308-2.5-2.309-2.5-2.814-3.856-2.814-3.856-3.368-1.408-3.368-1.407v-1.923l-2.584.982-2.584.982-.815-.503-.815-.504-4.351-.564-4.351-.565-8.5-.469-8.5-.47-2.5-.219-2.5-.22-.735-1-.734-1-.016 1.162-.015 1.162-2.25-.298-2.25-.299-4.565-1.076-4.565-1.077-10.435-.265-10.435-.265-1.25.787-1.25.787-.931-.575-.931-.576-.573.928-.574.928-2.495-.274-2.496-.274v1.305l-2.75-.07-2.75-.071-1.181-.736-1.181-.736-.601.973-.601.972-2.202-.815-2.202-.814-5.516 1.542-5.516 1.543-.735 1.066-.734 1.066-.046-1-.046-1-1.019 1.75-1.019 1.75h-1.81l-2.554 2.554-2.554 2.554-1.016-.628-1.017-.629.275 1.325.275 1.324-1.617-.263-1.616-.263-1.256 1.513-1.256 1.513h-2.588l-.375 1.125-.375 1.125h-5.453l-.541.875-.541.875H1477v1.841l-3.25.691-3.25.691-1.5 1.317-1.5 1.317-.75.072-.75.071h-3.118l.618 1 .618 1H1462v2.137l-4.5 4.63-4.5 4.63v2.109l-3 2.832-3 2.832v2.492l-2.535 1.357-2.535 1.356.504 1.313.503 1.312h-1.56l-2.188 2.039-2.189 2.039v3.04l1.155-.713 1.154-.714-.687 1.111-.686 1.111-1.46-.56-1.459-.561-.613 1.599-.614 1.598-.895-.554-.895-.553V960l-1.75.015-1.75.016 1.5.969 1.5.969-2.183.016-2.182.015-.635 2-.635 2-1.932.125-1.933.125-.957.125-.957.125-1.432 1.958-1.432 1.958.471 1.542.47 1.542-1.581-1.941-1.582-1.941.015-1.059.016-1.059 1.065 1.5 1.066 1.5-.621-2.834-.621-2.834 1.21.748 1.21.748-.639-1.664-.638-1.664h1.874l-.575-1.5-.576-1.5h1.981l.523-2 .523-2h-3.714l-.974 1.742-.975 1.741-.535-.534-.534-.535 1.996-6.413 1.996-6.412 3.099-5.545 3.099-5.544 2.94-5.25 2.939-5.25h-1.782l-4.684 4.684-4.684 4.684v2.387l-1.476 1.225-1.476 1.225-2.883 6.148-2.883 6.147-1.229 5.203-1.23 5.202.743 1.202.743 1.202-1.154-.714-1.155-.713-.125 1.059-.125 1.059-.25 2-.25 2-.259 1.25-.258 1.25-.779-5-.779-5-.087-8.25L1404 944h-1.93l-.996 1.862-.997 1.863-.593 3.368-.594 3.369-.082 10.142-.083 10.143.711 1.15.711 1.151.309 4.462.308 4.462-.882-.545-.882-.545v-3.215l-.575.575-.576.575-3.174-.974-3.175-.975-4.799.049-4.798.049.607-.983.608-.983H1381v2.813l-2-.523-2-.523v-2.728l-2.976.347-2.976.346.577-.934.577-.934 1.305.5 1.305.501 1.594-1.761 1.594-1.761v-2.11l-2.018-.527-2.017-.528-1.483 1.482-1.482 1.483v-1.388l-1.489 1.236-1.489 1.236.61.986.609.987-2.12-1.135-2.121-1.135v-1.263l.635.635.635.635 2.902-6.137 2.902-6.136-1.277-.789-1.277-.79-2.859 2.708-2.859 2.707 1.649-4 1.649-4 3.95-6.07 3.95-6.069v-1.084l-2.547.487-2.548.487-4.306 6.625-4.307 6.624-1.263 3.87-1.263 3.869-.817-1.322-.817-1.322.423-.684.423-.684-2.239-.613-2.239-.614 1.5-1 1.5-1-1.5-.984-1.5-.983-1-.441-1-.44 1.345-.944 1.345-.943-2.552-.641-2.552-.641-1.541-3.246-1.54-3.247-2.753-1.196-2.752-1.196-3-1.215-3-1.215-.667-.084-.666-.084-.75-.75-.75-.75h-3.694l-1.737-.952-1.736-.951-3.929-1.748-3.93-1.747-3.055.233-3.055.232-2.722 2.981-2.723 2.981-1.078-2.014-1.078-2.015h-2.973l-1.139-2.5-1.139-2.5H1296v-4.118l-1.007.622-1.007.623-.682-1.814-.681-1.813-2.565-2.5-2.564-2.5-2.85-3.818-2.849-3.817-1.397.536-1.398.536v-1.633l-3.25-.229-3.25-.23-1.5-.02-1.5-.02-6 .597-6 .598-5 .536-5 .535-2.789 1.215-2.789 1.214-.57 2.25-.569 2.25h-1.95l-3.337 3.436-3.337 3.437-1.874-1.687-1.875-1.686.383-1.826.383-1.825-1.838-1.441-1.838-1.441-3.1-1.37-3.1-1.37-2.9.359-2.9.358-5.5 2.116-5.5 2.116-5.75 1.82-5.75 1.821v-2.603l-1.563-.6-1.564-.6.623-1.007.622-1.007h-2.89l-1.758-3.75-1.758-3.75-1.377-.811-1.377-.812.58-.938.58-.939h-1.875l-1.239-3.25-1.238-3.25-1.595-3.5-1.595-3.5-.038-.7-.038-.7-1.172-1.172-1.172-1.172.592-1.542.592-1.542-1.101.68-1.101.681-.628-1.017-.628-1.016 1.309-.032 1.309-.032-1.941-1.468-1.941-1.468h1.693l3.265 2.49 3.264 2.49 5.33 2.916 5.33 2.916 4.207-.321 4.208-.32 1.042-.645 1.043-.644v-3.668l-1.75-.761-1.75-.76-2.344-.394-2.344-.393-3.886-2.453-3.886-2.453h-1.598l-1.442-2-1.442-2-1.029-.055-1.029-.056-2.458-3.104-2.458-3.104 2.492 1.633 2.491 1.633 1.967.325 1.966.326 2.184 1.201 2.185 1.201h4.194l.606-1.581.607-1.58-3.388-3.271-3.388-3.271-3.75-1.226-3.75-1.226v-1.059l1.25.476 1.25.475 2.294-.852 2.294-.853-1.01-1.886-1.009-1.885-3.397-1.612-3.396-1.612-1.261-1.519-1.26-1.518h-2.709l-1.749-2.75-1.749-2.75-1.303-.816-1.303-.816-2.721-4.076-2.721-4.076-2.191-4.108-2.191-4.108-.059-1.888-.059-1.887 2.865 3.606 2.866 3.605.634-.635.635-.634V836h4.05l.947-2.491.947-2.491-2.987-6.452-2.986-6.452-1.441-1.442-1.442-1.441.59-3.632.589-3.633 4.295 2.517 4.294 2.517H1169v-3.73l-2.25-2.875-2.25-2.874-1.833-1.844-1.834-1.844-1.302-3.098-1.303-3.099 2.136-1.731 2.136-1.732 1 .734 1 .733 4 1.256 4 1.257 3.5.173 3.5.174-.271-2.433-.27-2.432-2.611-3.423-2.611-3.423 2.076 1.111 2.076 1.111.608.984.609.985 1.271-1.187 1.27-1.187-.411-2.151-.411-2.152-3.702-3.901-3.702-3.902-3.581-2.702-3.581-2.702-5.158-5.186-5.159-5.185.46-.46.46-.46 2.819 1.566 2.819 1.566 3.872 1.532 3.872 1.531H1173v-2.756l-6.366-5.589-6.366-5.589-.466.465-.466.466-1.398-2.749-1.397-2.748-2.52-3.5-2.52-3.5-1.837-1.367-1.836-1.367-6.544-6.846-6.543-6.845-1.58-2.288-1.579-2.287-1.339-1.369-1.338-1.369.516-.516.516-.516 2.633 2.385 2.633 2.385 1.937 1.789 1.938 1.789 3.324 1.867 3.324 1.867 1.887.951 1.887.951 3.089 1.604 3.088 1.605 1.162-1.162L1158 726.6v-2.934l-4.75-4.3-4.75-4.299-1-.045-1-.045-8.25-7.894-8.25-7.893v-2.326l2.818 2.006 2.817 2.007 1.654-.243 1.653-.243.697-.697.698-.697-3.245-4.519-3.245-4.518.509-1.23.509-1.23.699 2.307.699 2.306 1.162-.446 1.163-.446 3.778 1.837 3.777 1.838 2.179-.804 2.178-.805 1.25.44 1.25.44V689h2v-3h2v-2.846l-2.999-2.999-2.998-2.998.621-1.62.621-1.619-1.372.291-1.373.291.25-1.25.25-1.25h-3l.212-.75.213-.75-1.37-2.5-1.369-2.5-1.825-1.602-1.825-1.601.58-.579.579-.579-2.098-1.31-2.097-1.31V656h-2.245l1.245-1.5 1.245-1.5h-3.022l-.667-3.553-.666-3.552-1.439-.552-1.44-.553.574-.928.574-.928-2.111-3.577-2.11-3.577 1.153-1.39 1.154-1.39h-2.363l.553-.895.554-.895-1.542-.592-1.541-.591.193-1.264.194-1.263-.772-4.232-.771-4.232-1.029.637-1.03.636.638-1.033.639-1.033-1.588-3.184-1.589-3.184.691-.687.69-.688 1.824 2.25 1.825 2.25h1.49l3.35 2.555 3.351 2.556 1.084-.67 1.085-.671-.516-4.135-.515-4.135-.682-1.75-.682-1.75h-1.904l.713-1.155.714-1.154-1.121.693-1.12.692-2.977-4.288-2.976-4.288-1.924-2.5-1.925-2.5-.712-3.25-.713-3.25h-1.403l-1.11-2.942-1.111-2.942.553-.553.553-.552 2.451 3.607 2.451 3.607 1.648 1.637 1.648 1.638 5.37 3.931 5.371 3.931 1.369-1.872 1.369-1.872-.032-1.059-.032-1.059-1.317-1.734-1.317-1.735-.651.651-.651.651v-2.487l-2.75-2.941-2.75-2.942-2.79-3.232-2.79-3.231-3.554-6-3.554-6-2.359-6.463-2.36-6.464.406-.405.406-.406-1.386-1.385-1.385-1.386.441-2.431.441-2.432-1.008-.623-1.008-.623-.044-9.191-.043-9.191-1.01-4.5-1.011-4.5-.399-3.5-.4-3.5-.632-2.5-.633-2.5 2.316 3.5 2.315 3.5 1.771 1.939 1.77 1.938v1.302l2.652 1.208 2.652 1.209 1.082-1.082 1.082-1.082-2.905-5.216-2.905-5.216-.622-.5-.622-.5-2.67-5.5-2.67-5.5-1.463-5.5-1.463-5.5-.787-8-.787-8 .139-1.471.139-1.472-1.642-2.778-1.641-2.779h-1.508l-3.378 5.281-3.378 5.282-.825 3.968-.825 3.969-.115.5-.115.5-1.77 6-1.771 6-3.581 7.218-3.581 7.218-4.29 4.02-4.29 4.021-.662 2.087-.663 2.087.569.569.569.569 4.541-1.734 4.54-1.734 1.411-1.411 1.41-1.41H1085v-3h2l-.011 1.25-.011 1.25-1.412 4.652-1.412 4.653-.608 3.829-.609 3.829-.89.89-.891.891.529 1.378.529 1.378H1080v4.6l-1.13 1.13-1.13 1.13-.276 2.32-.275 2.32-1.261 3-1.26 3-.154.5-.153.5-1.122 4-1.122 4 .052 4.5.052 4.5-2.581 4.746-2.58 4.747.577 1.503.577 1.504h1.667l-1.19 2.267-1.191 2.267-4.961 6.483-4.961 6.483-1.789 1.307-1.789 1.306v2.03l1.526 1.526 1.525 1.525 1.725-.761 1.724-.76.786-.087.787-.086.713-1 .714-1 1.961-1.5 1.961-1.5-2.265 3.231-2.266 3.23-1.254.77-1.254.769-1.225 3.038-1.225 3.038-4.217 4.555-4.216 4.554-2.75 3.35-2.75 3.351v1.304l1.803 1.631 1.802 1.632 3.905-2.653 3.904-2.653 2.765-2.464 2.765-2.464-.466-.755-.467-.754 1.577-.605 1.576-.605h.696l-.912 3.18-.911 3.179-1.269.805-1.268.805.95.016.95.015-1.2 1.2-1.2 1.2v4.482l-1.016.628-1.017.628.576.931.575.931H1056v2.693l-1.61 3.227-1.61 3.227-1.39.534-1.39.533v3.134l-7.747 11.576-7.746 11.576-.56.5-.561.5-1.307 3.232-1.307 3.232.583 1.518.582 1.518h3.818l1.245-1.5 1.245-1.5 1.127.079 1.128.079-1.194.486-1.194.485.551 1.436.551 1.435h-1.961l-4.235 8.25-4.235 8.25-1.546 1.75-1.547 1.75h1.38l-1.247 2.25-1.248 2.25.213.75.212.75h-2.214l.576 1.5.575 1.5h-2.151l.576 1.5.575 1.5h-1.874l.597 1.557.598 1.558 1.482-.569 1.482-.569-.571 2.762-.572 2.761.544-1.25.544-1.25h2.512l1.186-2.602 1.185-2.602 2.379.597 2.379.597 2.325-3.745 2.325-3.745.701-1.5.7-1.5.071 1.2.07 1.2-2.811 4.3-2.811 4.3-1.611 4-1.611 4-1.322 3.25-1.322 3.25H1028v2.694l-1.75 2.069-1.75 2.069-1.75 2.095-1.75 2.096v1.667l-2 1.81-2 1.81v2.77l-4.163 3.96-4.163 3.96h1.24l-5.724 5.75-5.724 5.75-2.557 3.5-2.556 3.5-.617 1.677-.617 1.677 1.377 1.142 1.376 1.143 2.15-1.151 2.149-1.15.519.518.518.519-9.222 9.533-9.223 9.533.612 1.593.611 1.593 1.177-.728 1.177-.727-.693 1.805-.693 1.806 1.418-1.177 1.417-1.176.856.247.855.248 2.401-1.328 2.4-1.328-2.104 2.954-2.104 2.955-1.612 1.338-1.613 1.338-1.506 2.913-1.507 2.914.541 1.409.541 1.41h3.618l2.222-1.557 2.223-1.556.03.806.031.807 1.019-1.75 1.019-1.75h2.459l1.403-1.946 1.403-1.947.8.495.8.494-2.516 3.986-2.516 3.986-1.716 1.894-1.716 1.895-1.101 1.321-1.101 1.322-4.106 3.75-4.105 3.75h-1.154l-2.796 2.86-2.795 2.859-1.304.435-1.303.434.665 2.096.665 2.095 2.491.476 2.492.477.535-.866.535-.866h4.638l3.739-1.562 3.738-1.562 1.399.536 1.398.537 1.146 2.775 1.147 2.776-.176.793-.176.793 2.265-1.167 2.264-1.167 5.25-3.908 5.25-3.909-.033.783-.032.782-4.468 4.487-4.467 4.486V850h-2.333l.662.662.662.663-6.904 7.087-6.904 7.088-4.092 4.456-4.091 4.456v-1.503l-2.374 2.296-2.375 2.295-2.19 1.795-2.19 1.796.333 1.704.333 1.705 3.481.094 3.482.093 1.216-.938 1.217-.938 1.26.42 1.261.42-5.159 5.241-5.159 5.242-.048.443-.047.444-1.562 3.019-1.561 3.019.658 1.065.658 1.064 2.603-.497 2.602-.498-3.47 2.888-3.469 2.887-5.25 3.227-5.25 3.228v3.332l1.452 1.205 1.452 1.205 2.048-.65 2.048-.65v-1.983l1.063.657 1.063.657 1.937-1.753L972 914.69v1.24l-6.852 6.921-6.853 6.921-2.107 1.127-2.107 1.128-1.548 3.262-1.548 3.262-4.742 3.718-4.743 3.718-1.734 1.256-1.735 1.257.577 2.158.577 2.157 2.008.525 2.008.525-.659 1.068-.66 1.067h-2.823l-5.465-2.5-5.466-2.5h-1.224l-2.533-2.75-2.532-2.75.735 1.405.735 1.404-1.074-.664-1.075-.664-2.655-4.74-2.655-4.741-.236-2-.236-2-1.189-4.109-1.19-4.108.093-2.392.093-2.391-.644-5.499-.644-5.5-.967-4.315-.968-4.316.535-.866.536-.866L910 898.5l-1.033-.638.576-.931.575-.931-.74-1.197-.74-1.198-.462-6.552-.462-6.553-.026-3.75-.027-3.75h-1.527l-.024-2.75-.024-2.75-.535-3-.535-3-.504-4.5-.503-4.5-.649-2.5-.649-2.5-.199-1.5-.198-1.5-.793-5.5-.794-5.5-.41-4-.41-4-.282-2-.282-2-.784-1.765-.784-1.765.519-1.985.519-1.985h-1.689l.032-1.75.032-1.75-.533-2.229-.532-2.229.946-.585.946-.585-1.641-1.641-1.642-1.642 1.084-.361 1.084-.361-.887-2.332-.886-2.331-.665-4.352-.665-4.352-.29-2.5-.291-2.5-.707-7.5-.708-7.5-.309-5.5-.308-5.5h-.34l-.428-7-.427-7-.803-2.5-.803-2.5.2-6.5.201-6.5-.595-.982-.594-.983-.245-2.017-.245-2.018-.478-6-.478-6-1.102-2.889-1.103-2.888.519-.52.52-.519-.847-1.092-.847-1.092-.551-2.249-.55-2.249.906-.56.906-.56v2.332l1.53-.587 1.531-.588 1.13 2.481 1.13 2.48H891l.66-.09.66-.089.846 1.511.846 1.512 2.994.657 2.994.658v3.884l2.469 1.125 2.468 1.124-.569.922-.569.921 2.157.564 2.157.564-.561 1.461-.56 1.461 1.987.52 1.988.52-.402 5.637-.401 5.638-.539 3-.538 3-.537 7-.537 7-.551 5.709-.552 5.709-.761 4.291-.762 4.291 1.767 6.985 1.767 6.984 1.389 1.016 1.388 1.015.081.5.08.5 1.16 3 1.159 3 .341 1.685.341 1.685 1.07 1.999 1.07 2 .1 3.815.099 3.816.696 2.5.695 2.5h2.689l1.322-4.475 1.321-4.476-.125-3.317-.124-3.316-.837-.517-.836-.517v-7.49l-3.191-4.946-3.192-4.946.242-5.12.241-5.12-2.05-.537-2.05-.536V760.6l1.2 1.2 1.2 1.2h1.357l1.135-2.75 1.135-2.75.439-2.303.44-2.304 4.179-6.196 4.178-6.197.077-4 .076-4-3.446-7-3.446-7 .238-.75.238-.75h-1.563l-1.372-4.75-1.371-4.75-1.91-2.743-1.91-2.743.637-1.032.638-1.032-1.243.275-1.242.275-1.172-2.244-1.171-2.244-.66.661-.661.66v-3.242l-2.5-2.5-2.5-2.5V691l-1.828-1.75-1.828-1.75.435-1.25.435-1.25-1.357-.005-1.357-.005-3.75-3.444-3.75-3.444v-2.22l-.957.592-.958.591-1.678-3.282-1.678-3.283-1.36-.797-1.36-.798-.633-3.952-.632-3.953h-1.469l.297-2.702.296-2.702-.656-1.048-.656-1.048-.31-1.5-.31-1.5-.449-2.5-.448-2.5-.493-6.803-.493-6.803-.747-1.197-.746-1.197-.17-5-.17-5-.22-.5-.221-.5.18-2.233.18-2.233-.786-1.267-.785-1.267-.222-4-.222-4-.462-7-.463-7-.647-7.5-.647-7.5-1.018-3.848-1.017-3.849.278-2.652.278-2.652-.845-1.369-.846-1.368.063-23.631.063-23.631.663-2.5.663-2.5.525-13.75.525-13.75h-3.124l-1.346 1.923-1.347 1.923-1.109-2.673-1.109-2.673-.531-14.5-.53-14.5-.638-1.646-.637-1.647-2.382-.455-2.381-.455-1.052 1.052L852 446.4l-.118-2.45-.119-2.45-.244-3-.243-3-.246-.5-.246-.5-.284-3.5-.284-3.5-.108-2.715-.108-2.715-1.928-1.031-1.927-1.032-1.573.604-1.572.603v6.119l-.474-.473-.473-.474-.583-4.853-.582-4.853-.933-4.917-.933-4.918-.57-.922-.57-.923h-3.764l-.563.911-.563.91-.051 2.34-.051 2.339.436 15.152.435 15.153.522.847.521.848.208 4 .209 4-.139 6.154-.139 6.154 1.508 7.346 1.509 7.346.591 10.5.591 10.5.221 3.009.221 3.009.724 1.172.725 1.172-1.033.638-1.033.638.688 1.113.688 1.113.318 3.068.317 3.068.477 6.5.477 6.5.686 2.5.687 2.5.123 3.692.123 3.693.516.515.515.515-.803 6.293-.802 6.292-.411 8.893-.411 8.893-1.08.668-1.081.668.363 4.689.363 4.689h-1.703l.372 3.25.372 3.25-.916 1.75-.915 1.75h2.284l-.736 1.75-.736 1.75-.168 1.518-.169 1.517-.761 1.233-.762 1.232.605.979.605.98-1.048 1.96-1.049 1.96.884.546.883.546-1.631 4.765-1.631 4.764-.75.333-.75.334v4.715l-1.016.628-1.017.628.524.848.524.848-1.419 6.083-1.419 6.083h.893l-1.244 2.25-1.245 2.25-.346 2.75-.346 2.75h1.894l.777 2.75.777 2.75.216.5.216.5.729 2.239.729 2.239.887-.548.886-.548v3l-1.016.628-1.017.628.615.994.614.994L831.5 669l-1.696 1.874.587.95.587.949-1.489 1.236-1.489 1.236v3.355l-1.165 1.165-1.166 1.166-.399 3.784-.4 3.785 1.214 3.717 1.214 3.717.851-.526.851-.526v2.873l1.55 1.286 1.55 1.287-.63 5.086-.63 5.086-.301 2.79-.301 2.79-1.501 1.71-1.5 1.71-.746 2.439-.746 2.44-.224 5.56-.224 5.561-.789 3.809-.789 3.81 1.043 3.69 1.042 3.691 2.157 9 2.158 9 .357 2 .357 2 .084 1.133.083 1.134 1.916.501 1.915.501.94-.94.94-.94-.728-3.695-.728-3.694-2.092-7.351-2.092-7.351.459-9.149.46-9.149-.034-3.724-.034-3.725 1.565-3.025 1.564-3.026h1.911l.599 2.75.599 2.75 1.587 5.345 1.587 5.346 1.373 1.373 1.374 1.374 2.722 6.77 2.722 6.77 1.844.355 1.843.355.981-.981.981-.981-1.805-5.863-1.805-5.863-2.657-4.5-2.657-4.5-.675-4.5-.676-4.5-1.448-2.213-1.449-2.213-.476-7.47-.477-7.471 1.462-2.816 1.461-2.817.764.25.764.25.042.75.042.75 2.152 4.75 2.152 4.75h3.042l.977-1.825.976-1.826-1.493-5.424-1.494-5.425-1.547-2.822-1.547-2.823-.867-9.177-.866-9.178-.878-3.524-.878-3.523-1.192-2.227L842.93 658h1.213l-1.404-1.404-1.405-1.405.171-6.133.171-6.134 1.162-1.162L844 640.6V637h1.571l.153-1.75.153-1.75.26-3.75.259-3.75h1.837l-.523-2-.523-2H849v-4.937l1.482.568 1.481.569-.914 1.708-.914 1.707.282 3.544.281 3.543.839 1.358.84 1.359.183 4.54.184 4.541.735 1.75.735 1.75h-2.26l1.546 2.359 1.545 2.359-.599 1.563-.6 1.563 1.044 1.95 1.044 1.951-.876 3.052-.875 3.052.658.659.659.659.125.916.125.917.194.25.194.25.386 2.969.386 2.968-1.029.636-1.029.636 1.646 1.646 1.645 1.645h-2.261l.801 1.25.801 1.25.213 4 .213 4 .554 4 .553 4 .088 3 .087 3-.085 2-.086 2 .204 2.25.204 2.25h1.439l-.463 2.75-.463 2.75-.427 1.218-.428 1.218.919.567.918.568.132 5.214.132 5.215.125 4.5.125 4.5 1.031.735 1.031.734-1.372.016-1.373.015.988 1.25.989 1.25.532 2.941.532 2.941-1.513 2.309L860.77 752H864v7.131l1.035 1.935L866.07 763h-2.859l.758 3.361.757 3.36-.246 3.14-.247 3.139h1.59l-.282 1.75-.282 1.75.523.901.523.901.151 8.099.152 8.099.761 2.244.762 2.243-1.566-.6-1.565-.601v1.357l1.498 1.498 1.498 1.498-1.098 2.051-1.098 2.051 1.1-.679 1.1-.68V810h-2.4l1.2 1.2 1.2 1.2v4.2l-1.25 1.347-1.25 1.346 1.408-.803 1.407-.803-.535 2.046-.535 2.046.806 1.303.805 1.303-1.678 1.31-1.678 1.31 1.547-.532 1.547-.531-.054 2.279-.053 2.279-.842 1.313-.841 1.313 1.671 1.846 1.671 1.847-1.823 1.06-1.823 1.06 1.313.031 1.313.03-.313 1.846-.313 1.847 1.5 1.903 1.5 1.904-1.75-1.372-1.75-1.373v1.376l1.035 1.935L870.07 849h-2.188l.741 1.2.742 1.199.135 2.051.136 2.05.761 3.25.762 3.25h-3.229l1.081 2.021 1.081 2.02-.605.98-.605.979h1.618l.176 7.25.176 7.25.324 2.5.324 2.5 1.5 1.218 1.5 1.218-1.357.032-1.357.032.596 1.552.595 1.552-.988-.611-.989-.611v2.181l1.417.543 1.416.544-.258 4.925-.258 4.925h1.801l-.779 1.25-.779 1.25.266 5.92.267 5.921.522.846.523.846 1.181-.709 1.181-.708-1.133 1.442-1.133 1.442.497 3.25.496 3.25h1.438l-.195 8.809-.195 8.808-1.751 3.692-1.752 3.691H871v-1.679l-2.5-1.139-2.5-1.139V947h-2.865l-.589-1.854-.588-1.854-3.479-1.873-3.479-1.874V937h-2.212l-2.144-2.667-2.144-2.666-1.215-2.084-1.214-2.083-.036.827-.035.827-2.993-2.993-2.992-2.993-.976-2.565-.975-2.565-1.524.585-1.523.585-.616-1.604-.615-1.604h-2.572l-.556-1.448-.555-1.447-4.302-1.158-4.301-1.159-.388.192-.388.191-.779-1.259-.778-1.26-7.133-1.211-7.133-1.212-5.491.345-5.492.344-1.959-1.959L790 903h-2v-1.632l-3.959-2.225-3.959-2.225-2.064 2.064-2.064 2.064-1.911-1.023-1.912-1.023-1.815-.006-1.816-.005-3.926-1.09-3.926-1.09-3.589-3.655-3.589-3.654-2.44-4.5-2.439-4.5.085-.5.084-.5-.88-2.5-.881-2.5-1.033-1.791-1.034-1.79.523-.846.523-.846L744.5 868l-1.478-1.227.548-.886.548-.887h-1.667l-1.868-8.519-1.868-8.518-3.491-4.482-3.492-4.481h-1.589l-1.488-1.488-1.488-1.488-5.834-3.156-5.833-3.155-6.5-4.57-6.5-4.57-1-.797-1-.798-2.577-1.925-2.577-1.926-6.47-4.313-6.47-4.314-2.883-1.5-2.883-1.5-3.07-3.083-3.07-3.083-5.323-7.562-5.324-7.562-2.031-4.105-2.031-4.105h-1.333l-2.356-4.25-2.355-4.25-2.869-2.322-2.868-2.322-13.755.16-13.755.16-1-.089-1-.089-8.5-.481-8.5-.481-6.119-.378-6.118-.378-1.132-.699-1.131-.699-.853.527-.853.527-5.897-.921-5.897-.922-4-.499-4-.499-2.5-.539-2.5-.539-2.5-.527-2.5-.526-3.5-.581-3.5-.581-.686-.42-.685-.421-8.315-.531-8.314-.532-6.37-.987-6.37-.988-3.91 2.038-3.911 2.039-3.003 3.42-3.004 3.421-8.457 7.18-8.458 7.181-3.002-1.047-3.003-1.047-1.041 1.946L474.93 776h-1.941l-6.245 6.101-6.244 6.101-3.5 1.777-3.5 1.777-3 .621-3 .622-10.5.517-10.5.516-5 1.317-5 1.317-5-.461-5-.462-4.587-.034-4.587-.035-1.913 1.715-1.913 1.716-6.869 6.18-6.87 6.18-4.13 2.998-4.131 2.998-1.165 1.113-1.165 1.113-3.335 1.337-3.335 1.336-4 2.695-4 2.696-4.5 2.501-4.5 2.502-4.276 5.373-4.277 5.373-3.885 5-3.885 5-2.438 4.617-2.439 4.616-1.65 2.356-1.65 2.356-.013 1.528-.014 1.527-2.236 2.828-2.237 2.829-2.339 2.921-2.339 2.922h-2.781l-12.771 10.395-12.77 10.396-3.25 2.943-3.25 2.944V911h-1.564l-5.968 5.821-5.968 5.821-3.25 1.895-3.25 1.894v1.423l-2.75 1.436-2.75 1.437-2.856 1.548-2.856 1.548-3.144-.341-3.144-.341-7.289-.61-7.289-.61-2.509-.954-2.51-.955-4.202-.017-4.201-.018-6.5.411-6.5.411-3.726-1.136-3.727-1.135-1.097-3.014-1.097-3.014-1.677-3.431-1.676-3.43.277-1.244.276-1.244-1.026-.635-1.027-.634v-3.668l-1.5-.576-1.5-.575v-3.11l-5.219-7.726-5.219-7.727-9.219-9.25-9.22-9.25H148v-1.526l-1.827-.987-1.828-.987-2.422-1.124-2.423-1.124-5.014-1.642-5.014-1.641-3.986-.567-3.986-.567-6.119-.057-6.119-.058-.881.489-.881.489-4-.294-4-.294-6-.514-6-.514-.5-.151-.5-.152-2 .138-2 .138-4.75-.898-4.75-.899v1.86l-.763-.472-.764-.472-10.486-.109-10.487-.11-2.221.036-2.22.036-2.53.962-2.529.961v-1.9l-2.25.845-2.25.845-4-.165-4-.165-2.5.878-2.5.877-5.5.995-5.5.994-2.003.308-2.003.308-3.68 1.016-3.679 1.016-.568-.568-.567-.567v173.334l1750.25-.251 1750.25-.25.347-4.5.346-4.5-.719-164.144-.719-164.143-1.128.205-1.127.204-2.5.769-2.5.768-3.377 1.528-3.377 1.527-1.123.231-1.123.231-7 3.206-7 3.206-1.5.803-1.5.803-7 3.846-7 3.846-4.266 2.124-4.266 2.125.547.547.547.547-2.781 1.786-2.781 1.786-4.217 4.599-4.216 4.6-.034.597-.033.597-1.75 2.093-1.75 2.093-3.371 4.037-3.372 4.037-7.128 7.413-7.129 7.413-4.385 5.093-4.385 5.093-1.231 2.372-1.23 2.373-2.506 3.688-2.506 3.688-3.166-2.664-3.166-2.664-6.212 2.222-6.213 2.221-3.222 1.849-3.222 1.849-.616-.998-.617-.997.614-8.678.614-8.678-.852.975-.851.976-1.31 4.178-1.31 4.177.517 7.323.517 7.322.742 2 .742 2-1.767-2.374-1.767-2.375-1.741-4.587-1.741-4.587-1.115-.372-1.115-.372-.142 1.834-.142 1.833-.003 2-.003 2 .719 2.614.72 2.614-2.175.569-2.175.568.647 1.048.648 1.048-16.819-.18-16.82-.181-1.298.803-1.298.802-5.521-.066-5.522-.066-5.158 1.39-5.158 1.389-4.921 1.527-4.92 1.528-.83-.513-.829-.512V812h-3.53l-3.731 2-3.732 2h-4.562l-2.367-1.658-2.366-1.657-3.468-3.368-3.468-3.367-2.538-3.725-2.538-3.725-2.487-4.5-2.487-4.5-1.675-1.614-1.675-1.614-3.688-1.75-3.688-1.75-.145-1.636-.146-1.636.224-3.249.223-3.248-1.148-3.478-1.148-3.478-.68.14-.68.141-3-.734-3-.734-4-2.031-4-2.03-4-.464-4-.463-2.904-1.436-2.903-1.436h-3.316l-1.938-1.786-1.939-1.785-4.75-2.22-4.75-2.219-.002-.745-.002-.745-4.317-2.727-4.317-2.727-1.334-2.493-1.334-2.493-4.097-2.777-4.097-2.777-.5-.618-.5-.618-2.5-.76-2.5-.76-2.716-3.245-2.715-3.245-6.476-3.88-6.476-3.88-.53-1.5-.529-1.5-1.257-1.724-1.258-1.724 4.265-4.098 4.265-4.098-.105-3.678-.104-3.678-.033-13-.033-13 .068-6.561.069-6.56 1.357-5.94 1.358-5.939-.188-4.106-.187-4.107-1.82-4.893-1.82-4.894-1.142-1.723-1.143-1.723-5.925-4.025-5.925-4.024-1.601-.003-1.601-.002-4.899-2.602-4.899-2.603-.59-.947-.589-.947-5.156-.389-5.155-.388-1.005-.621-1.005-.621v1.768l-5.271.035-5.271.035-2.164.687-2.165.687-6.314.486-6.315.486-2 .323-2 .322-3 .782-3 .783-1.274 1.004-1.274 1.005-.558-.557-.557-.558-3.401 1.421-3.4 1.421-.768-.168-.768-.167-2.922 1.202-2.923 1.203-1.254-.482-1.255-.481L3047 615.5l-1.146 1.381-1.427-.547-1.427-.548v2.428l-1.427-.548-1.427-.547-1.195 1.44-1.196 1.441h-3.422l-.75.75-.75.75-.666.016-.667.016-6.271 2.364-6.271 2.364-.538.87-.538.87-2.191.006-2.191.006-2.864 1.494-2.865 1.494h-2.456l-1.65 3.25-1.65 3.25-1.074 7.5-1.074 7.5-.875 13.5-.875 13.5-.058 9.054-.059 9.054 3.588 3.446 3.587 3.446 1.95 3.784 1.951 3.785-.599.968-.598.968-4.69 2.132-4.689 2.131-3.147 3.327-3.146 3.328-6.758.692-6.757.693.713-1.154.713-1.154H2976v2.118l-.898-.555-.899-.555-3.158 2.95-3.158 2.95-2.193-.878-2.194-.878-5-4.977-5-4.977-3.816-4.184-3.815-4.184-4.685-2.057-4.684-2.057-.5-.61-.5-.609-2.733-1.409-2.733-1.408-2.245-2.09-2.245-2.09-6.522.088-6.522.088-3.077.646-3.077.646-8.923-4.52-8.923-4.519-6-1.476-6-1.476-13-.63-13-.629-2.986-2.096-2.987-2.095-1.763-1.763L2841 679h.908l-2.357-5.088-2.358-5.088-1.846-1.262-1.847-1.262-3.762-.589-3.763-.589-8.122-3.242-8.123-3.241-2.27-2.07-2.27-2.069-1.677-1.366-1.678-1.367-5.167-1.97-5.168-1.971-3.5-.834-3.5-.833-6.961-.719-6.96-.718-3.258-1.361-3.257-1.361h-6.61l-9.477 2.424-9.477 2.425-4 1.638-4 1.638-3.151 1.437-3.151 1.438h-2.799l-2.692 1.25-2.691 1.25-.008.75-.008.75h-2v-4h-1.514l-5.423 4.448-5.422 4.448-.751-.464-.752-.465-.608.985-.609.984-3.497-.131-3.497-.132-1.085 1.085-1.086 1.086-1.378-.529-1.378-.529v2.295l-4.25-.202-4.25-.202-1.981-.997-1.981-.998-1.988-2.526-1.987-2.527-.193-1.315-.193-1.314h1.463l.052-7.25.053-7.25-.858-1.085-.858-1.085-.177-4.665-.176-4.665H2668v-2.833l-.939-.334-.938-.333-.34-2.588-.341-2.588-1.57-2.412-1.57-2.412-.71-3.821-.709-3.821-.612-1.593-.611-1.593 1.42.824 1.42.825-.833-.911-.834-.91-.666-.086-.667-.087-2-.754-2-.754-2.5-1.145-2.5-1.145-2.655-1.882-2.655-1.883-.954.59-.955.59-2.648-2.972-2.648-2.972h-5.867l-.513-.831-.514-.83-5.795-1.355-5.796-1.355-6.5-.246-6.5-.247-12.953-.604-12.953-.604-.35-.35-.35-.35-4.447 1.338-4.447 1.338V587h-8.555l-1.972 1.322-1.973 1.322-3.5 1.339-3.5 1.339-8.796 4.341-8.797 4.342-5.241 3.872-5.241 3.872-2.254 2.876-2.255 2.875-1.708 2.635-1.708 2.634-4.119 5.366-4.119 5.365-3.638 3.828-3.638 3.829-1.093 2.042-1.093 2.042 1.1-.679 1.1-.68V648h2v2.558l-15.75 2.395-15.75 2.396-1.5.159-1.5.159-5.5.746-5.5.746-2.5.357-2.5.358-11 1.484-11 1.484-9 1.056-9 1.056-9.5 1.006-9.5 1.007-14.5 1.028-14.5 1.029-7.118.581-7.117.582-.16-5.343-.16-5.344-.024-6-.024-6 .04-1.5.04-1.5-.334-4.5-.334-4.5.848-1.689.848-1.69-.833-.515-.834-.515.264-15.795.264-15.796.589-34 .59-34 .331-24.608.331-24.609.779-1.26.779-1.261.213-14.131.214-14.131 1.827-11.244 1.827-11.244-.673-.672-.673-.673-.636.636-.637.636-1.324 5.281-1.325 5.28.55-8.5.55-8.5.437-2.5.438-2.5.51-14.75.51-14.75h-.74l-.666.667M2066.5 647l.618 1-4.309.015-4.309.016-1.188.755-1.189.756 2.471 6.979 2.47 6.979 1.001 3.199 1.001 3.2 1.461 2.8 1.461 2.801.006 1.264.006 1.263.991 1.737.992 1.736 4.571 11 4.571 11 5.811 11.5 5.811 11.5 1.876 3.157 1.877 3.156 6.31 10.344 6.31 10.343 4.909 7 4.908 7 .88 1.046.88 1.045.402 1.067.401 1.067 2.5 3.213 2.5 3.213 3.75 4.818 3.75 4.817v2.047l.75.334.75.333 3.673 4.574 3.673 4.575 3.95-.313 3.949-.312 6.378-1.999 6.377-1.999 5.75-.013L2171 795v-2.23l5.25.64 5.25.64 30-4.967 30-4.967 8.5-1.194 8.5-1.195 2.199-.819 2.199-.82-.168-4.204-.168-4.205 1.865-1.09 1.864-1.089 5.327-3.5 5.326-3.5 4.962-7.561 4.961-7.562.627-2.438.626-2.439 1.222-1.643 1.222-1.643 3.968-1.101 3.968-1.102 3.316-.005 3.315-.006 2.185-1.174 2.184-1.174 6.999-.076 6.999-.076.001-2 .001-2 2.767-.318 2.767-.318-.549-.888-.549-.889-1.468.564-1.468.563v-4.277l1.513-.58 1.512-.581 1.488 1.235 1.487 1.234v-1.863l-1.468-1.941-1.468-1.941-.032-1.75L2328 717h1.756l1.57 2.25 1.569 2.25.161-2 .16-2-.107-3-.107-3-.084-16.5-.084-16.5-.405-1.5-.405-1.5H2239.5l-12.5-.746-12.5-.746-5-.479-5-.48-6-.472-6-.472-21.5-3.028-21.5-3.028-5-.898-5-.897-15-3.095-15-3.095-11.5-2.986-11.5-2.985-9.495-3.046-9.496-3.047h-1.627l.618 1m429.194 10.639-.206.206-10.494 1.552-10.494 1.551-5 .566-5 .567-1.5.44-1.5.439-11.5 1.552-11.5 1.551-5 .463-5 .462-4 .556-4 .556-1.5.387-1.5.388-8 .586-8 .587-9 .917-9 .918-9.5.606-9.5.607-6.721.375-6.72.375-1.022.631-1.022.632.286 6.452.286 6.452-.993.993-.994.994h1.9v9h-1.2l.397 5.75.396 5.75.272 3.75.272 3.75h-1.707l1 1.869 1 1.868-.632.632-.631.631h1.143l2.594-4.427 2.595-4.427 2.653-2.087 2.653-2.087.527.526.526.527-1.993 2.737-1.993 2.738-.745 1.25-.745 1.25h.812l2.306-2 2.306-2H2363v3.185l-2.072 2.633-2.072 2.634 1.072.357 1.072.358v2.424l3.75.223 3.75.224 3.979.563 3.979.564.521.32.521.32 5.164.654 5.163.654 8.837.702 8.836.701 7-.169 7-.169 5.63-.878 5.629-.879 3.576-2.728 3.576-2.727 1.191 2.226 1.192 2.225 2.103 1.763 2.103 1.764 2 .646 2 .647 1.865 1.631 1.865 1.632.86 2.25.86 2.25 5.275-.015 5.275-.016 1.357-.859 1.357-.86-1.107-.684-1.107-.684V735h3.171l-2.6-4.652-2.6-4.652.45-.45.45-.45 2.208 1.547 2.209 1.547 1.849 2.805 1.85 2.805.006-1.434.007-1.435 2.036-4.206 2.036-4.206 2.214-.527 2.214-.527 9-3.602 9-3.602 1.706-.962 1.707-.961 3.793-.578 3.794-.577 4.663 1.434 4.662 1.435 1.087-4.317 1.087-4.316 1-.619 1.001-.618v-3.652l-2.75-1.798-2.75-1.799-1.074-1.066-1.074-1.067-3.285-2.5-3.285-2.5-2.891-2.716-2.891-2.717-.195-2.783-.195-2.784-.213-2.5-.213-2.5-.092-8.266-.092-8.266-3.05.233-3.05.232-.206.206m-440.359 16.611-.098 8.25-.368 13.748-.369 13.748-.5.002-.5.002.117 18.75.116 18.75-.902 1.75-.901 1.75h2.02l-.825 2.25-.825 2.25.149 8 .15 8-.332.706-.331.707-.538 14.793-.538 14.794-.524 44.5-.524 44.5-.414 6-.413 6 .049 1.75.049 1.75.028 2.25.028 2.25-.32 6.251-.319 6.25h.719l.718-.001-.546 1.423-.546 1.424 2.017 1.079 2.017 1.079.575-.931.576-.931-2.265-.435-2.265-.436 2.75-.136L2055 926v1.07l-1.615 2.465-1.615 2.465h-2.015l1.355-1.75 1.356-1.75-2.233 1.905-2.233 1.905v.808l1.081-.668 1.082-.669-.332 2.064-.331 2.064.75.046.75.045.75-.001.75-.001 2.593-2.249 2.594-2.249-.473-1.389-.473-1.389.879.511.88.511 2-2.026 2-2.025-1.5.845-1.5.846 1.372-1.692 1.373-1.692h-1.594l2.029-2.25 2.029-2.25 2.396-4.5 2.395-4.5.75-.333.75-.334v-2.951l1 .618 1 .618.013-1.309.014-1.309 4.736-1.589 4.737-1.588 1.914-.832 1.914-.831-.716 1.159-.716 1.158 1.552-.595 1.552-.596v-1.904l1 .618 1 .618v-1.782l3.5-1.075 3.5-1.074v.91l-3.25 1.412-3.25 1.413 1.527.039 1.528.039 2.239-1.568 2.239-1.569-.59-.956-.591-.956.655-2.984.656-2.984.907.56.907.561-.54-1.407-.539-1.406 3.544-9.396 3.544-9.395.007-1.628.007-1.627-1.555-1.29-1.554-1.291-.932-1.741-.933-1.742 1.543-3.692 1.543-3.693 1.944-2.086 1.944-2.087v-1.553l-1.75-.903-1.75-.904-3.796-.685-3.796-.686-1.099-2.412-1.099-2.412 1.145-5.701 1.145-5.701v-7.298l3.5-3.099 3.5-3.098v-3.926l1.398-1.16 1.398-1.161 2.106-.405 2.106-.406 1.066-.659 1.066-.659 7.68-1.886 7.68-1.885 1.75-.012L2132 802v-1.529l-4.786-5.985-4.786-5.986-4.958-7-4.958-7-6.22-9-6.22-9-8.584-14.5-8.585-14.5-.778-1.5-.777-1.5-2.587-5-2.587-5-2.482-5.5-2.483-5.5-4.464-11-4.464-11-2.775-7.75-2.774-7.75h-1.299l-.098 8.25"
     fill="#240404"
     fill-rule="evenodd"
     id="path2"
     inkscape:label="Layer 8 view" />
</svg>
