<?xml version="1.0" encoding="UTF-8" standalone="no"?>
<svg
   version="1.1"
   id="Layer_1"
   x="0"
   y="0"
   viewBox="0 0 3500 1038"
   style="enable-background:new 0 0 3500 1038"
   xml:space="preserve"
   sodipodi:docname="layer3.svg"
   inkscape:version="1.2.2 (732a01da63, 2022-12-09)"
   xmlns:inkscape="http://www.inkscape.org/namespaces/inkscape"
   xmlns:sodipodi="http://sodipodi.sourceforge.net/DTD/sodipodi-0.dtd"
   xmlns="http://www.w3.org/2000/svg"
   xmlns:svg="http://www.w3.org/2000/svg"><defs
   id="defs214" /><sodipodi:namedview
   id="namedview212"
   pagecolor="#505050"
   bordercolor="#eeeeee"
   borderopacity="1"
   inkscape:showpageshadow="0"
   inkscape:pageopacity="0"
   inkscape:pagecheckerboard="0"
   inkscape:deskcolor="#505050"
   showgrid="false"
   inkscape:zoom="0.69142857"
   inkscape:cx="1543.905"
   inkscape:cy="632.02479"
   inkscape:window-width="1920"
   inkscape:window-height="1017"
   inkscape:window-x="-8"
   inkscape:window-y="-8"
   inkscape:window-maximized="1"
   inkscape:current-layer="Layer_1" />
    <style
   id="style191">
        .st0{fill:#cb5c1b}.st1{fill:#9c3c1c}.st2{fill:#9c341c}
    </style>
    
    
    <g
   id="g281"
   inkscape:label="Far back"><path
     class="st0"
     d="M948.1 408.1c.4.7.5 1.6.5 2.4l.2-.5-.3-2.1-.3-2.1h-.1c.2.7.2 1.5 0 2.3zM954.5 411.5c0-.9.1-1.7.5-2.5.1-.1.1-.3.2-.4l-1.4 1 1.1 5c0-.2.1-.4.1-.5-.4-.8-.5-1.7-.5-2.6zM2089.5 613h-3.6l.8 2.4 3.2.6 6.6-6-1-.8zM2094.5 616.1l-2.3 1.1-2.3 1.1.6 3.2h3l-.6-2.8 2.4-2.8zM2068.4 626.2l1.9 1.5 1.7 1.7 1.4-1.4-3-1.8zM2070.8 623h.2v1h1.8l1.2-2h-3.2z"
     id="path193" /><path
     class="st0"
     d="m2144.7 528.3 1.6-3.6h-19l-.8-6 2.2-.4 9.4-.1h9.4l.6-2-19.2-.4-4.8-1.2v1.7h.9v1.4l-7.6 5-10.2 6.4h-1.6l-6.4 2.8-27.8 11.2-6.2.4-3 2.8 2.4.8v16.6l-8.4 6.6-3.6 4-10.2 12-5.8 8.6v1l5.6 9 6.4-6.2v-1.5l-4 1V596l5.6-5.2-1.4-.9-1.4-.8 1.1-.7 1.1-.7 3.2-6-4.2 2.2 4.6-8.2 1 .8 3.4-2.8v2.8l4 4.2v1h-3.2l4.2 7.2-1 1.6 4 3.6v1.8l-2.4-1.4 1.4 2.4h2.6l.5 2.1.6 2.1-4.8-1 1.2 2.2 1.7 2 1.4 1.7h.3v.3l1 4-3.8.2v-2l-2 1.2 4.4 6.8h2.8l6.6-4 1.2-3.2-3 2.6-1.2-1.2 5.2-6.2v-2l-2 1.2v-1.2l5-7.4.2 6.4.4 2 .2 2 5.2 5.2 2-1.2 2.8-6.6v-1.4l-2.4 2.4h-1.8l1.4-4.4 2-5 .4-3 2.4-4.6-4.4 2.4 5.2-7.6v-2.6l4.2-8.2.6.6 1 8.4 3.6 5.6-.4.6 5.4 5-3.8.2-1.6-.2v2l8.2 5.2-2.6 1.6-3.2-1 3 3.2 5.4.4v2.4l-2 1.2 1.2 1.8h4l1.6-4.2-.4-10.2-.5-1.5h-.6v-1h.3l-.6-2.1-2.4 1.4-4.4.6-1.2-2h6.2v-2h-2.4l6.4-5.2v-7.2l-4.6 4.4h-2.8l3.2-2.4 4.6-9-4.2 3.8v-1.4l2.8-4.4.8-7h1.8l1.2 8.8 6.8 5.6-2.8 1.8 2.6.8-2.2 1.4-5.2-4.2v6.2l2.8 1 1 4 4.2 1v1.2l-2 3-3.6-2.2-.2 6.8 6 3-.6 2-1.4-.2-2.8 2.6.8 1.4 4-1 3.2-6.2 6-12 4-4.4.4-5.8 5.6-9.8 1-10.6-7.4-7.2.8-17.2zM2064 591h-1v-1h1v1zm6.1-33.3-3.2 2.6.4-10.4 4.6 4.4-1.8 3.4zm54.8-31.8h-3.2l-23 11h-2.4l-8.8 5.6-10.4 4.8v1.8l-3.2 3.2-6.2-6.2 5.8-1.2 26-10.2 16-7.4 4.5-3.6 4.5-3.6.4-.2v6zm22.3 30-1 2.6-.1-1.9-.1-1.9 1.2 1.2zm-1.2 3.1h1v1h-1v-1zM2071.8 618.7l-1.8.5v2.2l1.2-1.2 4 2.2 1.8-2.8V618l-3.6.2zM1988.9 610.8l5-4.6h-2.4l-.9.7-.5.9-20 8.4-1.2 2 2.8 1.8h-3.6v2l-5-1.2v4.2l6.4 3.4 8.4.2-4.6 2.4-1.2 3h-4.6l3 1.8 2.6-2.2.2 1.8-.2 1.6h2.6l7.8 5.8 7.6-5-1-1-7 .2v-2h1.6l5-4-4.2 2-3.6-2.6 6.4-3.8v-1.8l-3 1.2v-2l3.6-4-.2-1.4 4.2-3.4-10 .8-10.4 2.8.8-1.4zM2028.3 605l-1.4.2-3.9 1.2-4.5 1.2-.3 1.8-.4 1.8 1.2-.8 1.3-.8-1.4 2.2 3 7.2-1.2 3-1.8-1 1 2.8 4.4 2 2.2-5.2 3-9-2.2-2.6zM1986.2 642.2l-2.2 1.1v3.4l4 1 1.2-1.8-3.6-.2 4.4-3.2V641l-1.6.2zM2025.2 599.7l-6.2 1.5v2l-2-1.2v2l6.4-1.2 8.8-2.2.8-2.4-1.6.2z"
     id="path195" /><path
     class="st0"
     d="m2046.5 604.1-1.5.9-1.5.9 2.4 2.4 1.4-3.4zM2046 613.4v2l2.4-2.4-1-1zM2040.2 646l-2.2.9v1h1.6l3.8-3h-1z"
     id="path197" /></g>
    
    
    
    
    
    
    <g
   id="g289"
   inkscape:label="Layer 3 view"><path
     class="st1"
     d="m529.5 469.2 2.6 1 1.2-1.2-1.9.1zM537.9 475.5l1.4 6 .3.4.4.4v-3.8l-1-1.5zM534.7 470h-1l3.6 4h1zM521.5 468.9l2.5 2.5.5-.6.6-.6-1.8-.6zM488 468.9l4 2.2v-1l-4-2.2zM547.5 491.2l2.6 1 1.2-1.2-1.9.1zM497 469.5l-2.5 1.4h2l2.5-1.4 2.5-1.4h-2zM602 461.5l-1.3 1.5.4.5.5.4 1.2-1.9 1.2-2h-.8zM623 454.3l.7-.6.6-.7H622v1.8l1.8 1.3 1.7 1.4-1.2-1.6zM628.9 461.5l.7 1.8.6 1.8.6-.6.6-.5zM623.3 450l-3.6-4h-1l3.6 4zM573.1 497.6l.1 1.9 1-2.6-1.2-1.2zM584.5 486.2l2.6 1 1.2-1.2-1.9.1zM600.2 469l-.9 1.2-1 1.3-1.4 2.4 4.1 2.2V474h-3.2l3.2-5zM589.1 482.6l.1 1.9 1-2.6-1.2-1.2zM344.9 471.5l.7 1.8.6 1.8.6-.6.6-.5zM375.9 473.5l.7 1.8.6 1.8.6-.6.6-.5-1.3-1.3zM380.9 439.8l-1.4 1.7 1.7-1.4 1.8-1.3v-.8h-.8zM383.1 434.6l.1 1.9 1-2.6-1.2-1.2zM385.8 432.7l1.2.5 1.2-.5 1.3-.5h-5zM374.5 481.1l-.7 1 1 1 .5-1.6.6-1.5h-.8zM635.5 463.9l2.5 2.5.5-.6.6-.6-1.8-.6zM347.7 481.5l-.3-.4-.4-.4v1.9l1.6 2 1.5 1.9zM355.8 497h-.8v.8l1.8 1.3 1.7 1.4-1.4-1.7zM421.5 446.1l4 1.8 2 .1-3-2zM455.5 458.2l2.6 1 1.2-1.2-1.9.1zM441.5 453.2l2.6 1 1.2-1.2-1.9.1zM466.9 460H465v.8l1.6.6 1.5.6-.6-1zM438.5 451l-3 .1 4 1.8 2 .1zM393.5 434l3 2h2l-3-2zM400.9 436H399v.8l1.6.6 1.5.6-.6-1zM481 465.9l4 2.2v-1l-4-2.2zM578 498v.8l4 1 .4-.7.5-.7-2.5-.2zM823 444.1v2.8l1.6 1 2.2-3.4-1.9-.1-1.9-.3zm2 1.9h-1v-1h1v1zM848.6 445.5l.6 1.5-1.6-.6-1.6-.6v1.9l1.3 1.3 1.4-1.1 1.3-1.1V444h-1.9zM857.5 432.2l-1.3.5-1.2.5v2.7l-3.5 2 .8.1h.7l-1.7 2.8-1.7 2.7 5-5-.6-1.4 1-.6 1-.6 1-2 1.1-1.9-.3.1zM866.6 422H864v2.1l1.8-1 1.7-.9 5.9-6.2h-1zM846 449.7v2.4l-1.2-.7-1.1-.7.8 1.2.7 1.3 1.1-1.1 1.1-1.1-.7-.7zM828.4 444.2l-.5.8h3l.5-.8.5-.9h-3zM845 448.5h-4.8l.5.7.4.8h3.9zM833.5 444.9l2.5 2.5.5-.6.6-.6-1.8-.6zM879.5 411.2l2.6 1 1.2-1.2-1.9.1zM898.5 411.2l2.6 1 1.2-1.2-1.9.1zM959.5 424.2l2.6 1 1.2-1.2-1.9.1zM1326.5 527l-3 .1 4 1.8 2 .1zM1287.7 521.5l-.5-1.5-.4-1.3-1.7.2-.6-2-.6-1.9-2.2-1.2-2.1-1.1 4.2 5 4.2 5.1 1.8.4 1.9.5v-2.6zM929.9 422.8l-1.4 1.7 1.7-1.4 1.8-1.3v-.8h-.8zM945.7 418.3l.6-.9c-.4.3-.9.5-1.5.7l.9.2 1.6.8 1.1-1.1 1.1-1.1-3.8 1.4zM955.5 425.2l2.6 1 1.2-1.2-1.9.1zM746.8 498l-1.7.1-1.6.1 1.5.5 1.5.6 1.5 1.1 1.5 1.1-1.4-1.7zM681.6 461.7l-.7 1.6 1.6 1.6.1-2.5.2-2.4h-.6zM717.5 487.2l-3-.1 4 1.8 2-.1h2zM729.5 491.9l2.5 2.5.5-.6.6-.6-1.8-.6zM658.8 471.7l1.2.5 1.2-.5 1.3-.5h-5zM671.3 453h-1l-1.7 1.9-1.8 2 .7 1 .6 1.1h2.4l-1.5-1-1.4-.9 1.8-2zM739.5 494.9l-.5 1 1 .6 1 .6V494h-.9zM663.4 467.2l-1.9 2.3 2.3-1.9 2.2-1.9v-.7h-.7zM693.8 478h-.8v1.9l1 .6 1 .6-.6-1.5zM807.8 451h-1.4l-.1 3.2-.2 3.3.5-1.3.6-1.2.7.5.8.4-.5-2.4zM798.6 457.2l.4.7-1.7 1-1.8 1 1.2.1h1.2l.7-1.1.6-1.1 1.8.5 1.9.5.4-1.2.4-1.1h-5.5zM815 451v-2h-2v2h-2.9l-.5.9-.6.9 2.4-.2 2.4-.1-.4-.7-.5-.7 6.8.5v-2.4l-2.4.9zM642.5 471.2l2.6 1 1.2-1.2-1.9.1zM750 501.9l4 2.2v-1l-4-2.2zM790.8 462h-.7l.5 1.3.5 1.4h2.9v-1.5l-1.6-.6zM781.2 471.9l-2.2 1.8v3.1l-3 2.4v3.4l-2 2.2-2 2.1v3.2l-5 5.4v2.1l-2.8 1.7-2.7 1.7-2.9 2.5-2.8 2.6.4.5.5.4 8.4-8h2.9v-4.1l1.4-.5 1.3-.5 3.2-6.7 3.3-6.7.9-1.5 1-1.5.5-1.7.6-1.8h1.3l2.5-4h-.7zM1136.5 422.2l2.6 1 1.2-1.2-1.9.1zM1152.6 423.2l.5.8h2.9v-1.6h-3.9z"
     id="path199" /><path
     class="st1"
     d="m1287.6 516.1-.5.4-.4.5h2.3v1.6l-2 .1 1 1 1.3 1.2 1.9-1 1.8-1v2.1h2.1l-1.2-2 3.6-.2-5-1.3zM1118.7 417l3.6 4h1l-3.6-4zM1161.5 424.9l1.2 1.2 1.3 1.3.5-.6.6-.6-1.8-.6zM1109.5 410.2l2.6 1 1.2-1.2-1.9.1zM1102.8 408.7l1.2.5 1.2-.5 1.3-.5h-5zM1190.5 467.3l-3.5-1.8-3.5-1.7 2 1.9 2 1.9 1.8.2 1.9.1-.3-.3zM1197.5 471.4l-3-1.8-3-1.7 2.4 2 2.3 2.1h2.1l-.4-.3zM1178 440.7l.1 1.9.1 1.9 1-2.6zM1179 447.7l.1 1.9.1 1.9 1-2.6zM1180.2 456.5v6l.5-1.8.5-1.7-.5-1.3zM1161.4 415.9l-.4-.7-2.4-.4-2.5-.5.2.6.1.6-1.2 2.5-1.3 2.5 1.5-1.9 1.5-1.8 2.4-.2 2.5-.1zM1031.9 399h1l2.2-4h-1zM1029.8 403h-.8v1.9l1 .6 1 .6-.6-1.5zM1040.5 387.2l2.6 1 1.2-1.2-1.9.1zM1044.5 386.2l2.6 1 1.2-1.2-1.9.1zM963.5 388.3l2.3.4 2.2.4 1.8-.4 1.7-.5-4 .1zM1093.5 402.2l-2.2-2.1-2.2-2.1h-1.2l1.2 2 2.2 1.1zM1092.4 404.6l-1.9 1.5 2.3-1.1 2.2-1.1v-.9h-.6zM1086.5 388.3l2.2-1.4 2.2-1.3-2.4-1.6-1 .1-1 .1 2.6 1-1.3 1.6zM1068.5 384.9l1.2 1.2 1.3 1.3.5-.6.6-.6-1.8-.6zM1079.9 358.6l-1 2.7.5.5.5.4.7-2.6.6-2.6.9.6.9.5V356h-2.1zM1053.5 384.2l1.8.5 1.7.5 1.3-.5 1.2-.5zM975.5 390l3 2h2l-3-2zM2124.5 514l3 2h2l-3-2zM1334.3 528.7l1.7.5 1.3-.5 1.2-.5h-6zM1489.4 502.4l-.6 1.5.8 4.6.5-3.7.5-3.8h-.7zM1471.8 536.7l1.2.5 1.2-.5 1.3-.5h-5zM1451.9 537h-2.9v.8l4 1-.6-.9zM2155.5 452.1l1 10.4.3-4.4.3-4.4-.8-.8zM2143 517.2l2.5-1h-6zM2215.5 399.5l2.3-1.9 2.2-1.9v-.7h-.7zM2236.5 366.2l3.5 1 1.3-.5 1.2-.5zM2159.3 465.5v9l.4-2.3.4-2.2-.4-2.2zM2213.9 401.8l-1.4 1.7 1.7-1.4 1.8-1.3v-.8h-.8zM2207.5 408.2l-4 4.3 8.5-7.9v-.6h-.6zM1441.5 529.1h-3l2.3.9 2.2.9v2.2l1.1-.6 1-.7-1.8-1.4zM1360.1 507l-.6 1.1-.7 1 .6.6.6.6v-2.2l1.8-.4 1.7-.5-1.7-.1zM1434.8 524h-.8v.8l1.8 1.3 1.7 1.4-1.4-1.7zM1386.5 520.9l1.2 1.2 1.3 1.3.5-.6.6-.6-1.8-.6zM1392.9 519.8l-1.4 1.7 1.7-1.4 1.8-1.3v-.8h-.8zM1360.7 523.7l.7 1.1.6 1-1.2.5-1.3.5 2.4.2.6-.9.5-1-1.1-.7zM1347.5 527.3l2.3.4 2.2.4 1.8-.4 1.7-.5-4 .1zM1380.8 508h-2.1l.8.6 2 1.4 2 1.5-1.4-1.7zM1412.2 512.9l-.6 1.8-.7 1.8 1.2-1.2 1.3-1.3-.6-.5zM1424.2 523.7l1.8.4 1.8-.4 1.7-.5h-7zM1394.6 512.9l-.6.9 4-1v-.8h-2.9zM1411.5 518l-3 2h2.4l1.2-2zM1406.2 497.8l.6 2.9.6 2.8.4-1.9.4-1.8zM1930.2 613.5l1-2.6-1.2-1.2zM1881.8 596h-.8v1.9l2 1.2-.6-1.5zM1879.2 558.5v6l.5-1.8.5-1.7-.5-1.3zM1876.3 549v2.9l.8-.4.7-.5.5 1.2.5 1.3.1-1.1.1-1.2-1.3-1.1zM1982.5 615.2l2.6 1 1.2-1.2-1.9.1zM2001.2 576.9l-.6 1.8-.7 1.8 1.2-1.2 1.3-1.3-.6-.5zM1989.8 612h-.6l-.5 1.4-.6 1.4 1.3.5 1.4.5-.5-1.9zM1874.8 577h-.8v1.9l2 1.2-.6-1.5zM1990 606.2l-1.5-.6-1.5-.5v.7l3 2.4zM1071.8 374.9l.9 2.6.5-2.7.5-2.8h-.8zM1484.5 514.1l-.7 1 1 1 .5-1.6.6-1.5h-.8zM1497.8 517.7l1.2.5 1.2-.5 1.3-.5h-5zM1409.8 509h-.8v.8l1.8 1.3 1.7 1.4-1.4-1.7zM2009.5 553.9l-1.5 1.4v3.1l2.2-2.2-.4-1.2zM1608.9 516.9l1-.4-2.7-1.3-2.7-1.2 1.7 1.6 1.6 1.6zM1358.1 512.6l.1 1.9 1-2.6-1.2-1.2zM1089 391.7v2.1l1.5 1.2 1.6 1.3-.5 1.4-.5 1.3h1.9v-2.2l-2-2.5zM1778.5 573.4l-2 1.3-3 1.2-3 1.1 3.8-.6 3.8-.5 3.9-3.9h-1.6zM1784.5 571h2l3-2h-2zM1607.7 532l4.6 5h1l-4.6-5zM1794.5 565.2l2.6 1 1.2-1.2-1.9.1zM1800.8 563.7l1.2.5 1.2-.5 1.3-.5h-5zM1663 526.4l.1 2.1.1 2 1-4 2-2.5h-.8zM2452.2 369.5v5l.5-1.3.5-1.2-.5-1.2zM2447.2 378.5v5l.5-1.3.5-1.2-.5-1.2zM2448.1 374.6l.1 1.9 1-2.6-1.2-1.2zM2450.2 383.5v6l.5-1.8.5-1.7-.5-1.3zM2449.7 366.7l-.5-1.2v6l.5-1.8.5-1.7zM2011.1 577l.5 1.5.6 1.5h2l-2.4-3zM2446.1 387.6l.1 1.9 1-2.6-1.2-1.2zM2455.9 369h-1l2.2 4h1zM2451.1 378.6l.1 1.9 1-2.6-1.2-1.2zM2457.5 394.2l2.6 1 1.2-1.2-1.9.1zM2454 354.8l3 2.5-.5-1.6-.6-1.5 1.1-.7 1.2-.7-2.1-1.9-2-1.9h-1.1v3.1l.8-.5.8-.5 1.4 1 1.5.9h-3.5zM2447.5 359l-6 4h2l5-4zM2450 361.9v-.9l-.5.1-5.5 3v1l3-1.6zM2171.6 439h-.8l-1.2 3-1.6-1-1.4 2.6.8-.7.9-.9 2.7 2.2 1.2-3.2 2.2 1.4-2.8-3.4zm-.6 4h-1v-1h1v1zm1-2h-1v-1h1v1zM2159.8 446h-.7l-.7 1.2-.7 1.3.8-.7.8-.8 1.6 1.3 1.6 1.2-1.4-1.7zM2469.5 398l3 2h2l-3-2zM2018.5 600.2l1.3.5 1.3.5 1.2-1.2zM2235.8 367h-.8v1.9l1 .6 1 .6-.6-1.5zM2225.9 386.8l-1.4 1.7 1.7-1.4 1.8-1.3v-.8h-.8zM2277.8 390.7l1.2.5 1.2-.5 1.3-.5h-5zM2244.7 375l3.6 4h1l-3.6-4zM2243.2 365.9l-.6 1.8-.7 1.8 1.2-1.2 1.3-1.3-.6-.5zM2434.7 366.1l-3.9 2 .5.5.4.5 3.7-2.2 3.6-2.1v-.8l-.5.1z"
     id="path201" /><path
     class="st1"
     d="m2208.6 409.9-3.8 3.9-1.7-.1-1.7-.1-.3.5h.8v1h-1v-.6l-.5.9 1.6.2 1.8.2 4.8-4.9 4.8-4.9h-1l-3.8 3.9zm-4.6 5.1h-1v-1h1v1zM59.6 434.5l-.3-.4-.3-.4v3.1l1.6.6 1.7.6-1.4-1.7zM35.7 423l3.6 4h1l-3.6-4zM60.5 439l-3 2h2.4l1.2-2zM43.9 428H42v.8l1.6.6 1.5.6zM15.2 404.5v6l.5-1.8.5-1.7-.5-1.3zM24.1 410.6l.1 1.9 1-2.6-1.2-1.2zM81.5 449.2l1.3.5 1.3.5 1.2-1.2-1.9.1zM94.3 443.8l-.6 1.7-.5.9-.5.9 1-.6 1.1-.7 1-4h-.9zM101.1 445.6l.1 1.9 1-2.6-1.2-1.2zM64.9 422.5l.7 1.8.6 1.8.6-.6.6-.5-1.3-1.3zM4.1 396l-.4.8-.5.7-1.1 7 1.1-3.5 1.2-3.5 1-.7 1.1-.8zM79.1 447.6l.1 1.9 1-2.6-1.2-1.2zM2473.5 394.5l-1.4-1.7-1.3-1.8h-.8v.8l1.8 1.3zM3204.2 468l-.5-1.2-.5-1.3v5l.5-1.3zM2475.5 391.5l-1.4-1.7-1.3-1.8h-.8v.8l1.8 1.3zM3240.2 439h-.3l-.4.1-1.9 1.4-2 1.5h2.2zM3292 420.8l-.6-.9-.5-.9h-2.9v.8zM3295 420.2l1.2-.5 1.3-.5h-5l1.3.5zM106.1 440.6l.1 1.9 1-2.6-1.2-1.2zM2012.2 567.5l1-2.6-1.2-1.2.1 1.9zM2453 354.8V353h-.8l-1.2 1.5-1.3 1.5 1.7-.6zM1609.3 514l-3.6-4h-1l3.6 4zM86.5 448.2l1.3.5 1.3.5 1.2-1.2-1.9.1zM314.5 508l-.6 1 1.5-.6 1.6-.6v-.8h-1.9zM267.5 539.2l2.6 1 1.2-1.2-1.9.1zM333.2 485.9l-.6 1.8-.7 1.8 2.5-2.5-.6-.5zM114.5 452.2l1.3.5 1.3.5 1.2-1.2-1.9.1zM333.6 477.5l-.3-.4-.3-.4v3.3h2.1l-.7 1.2-.7 1.1 1.2-.7 1.2-.8-1.3-1.6zM270 532v1.9l1.2.7 1.1.7-.7-1.1-.6-1 1.7-.5 1.8-.5-2.3-.1zM319.9 505.8l-1.4 1.7 1.7-1.4 1.8-1.3v-.8h-.8zM958.9 391l1.5-.6 1.6-.6v-.8h-1.9zM283.7 533.1l1.1 1.1 1 1 2.6-.8-2.3-.7zM203.5 490.8l1.7 1.8 1.8 1.8.4-.5.5-.5-2.2-1.3zM194.1 481.7l-.9 1.7-1.9-1.4-1.8-1.5 1.4 1.7 1.3 1.8h1.7l2.2-4h-1zM162.8 467.7l1.2.5 1.2-.5 1.3-.5h-5zM171.8 470h-.8v.8l1.8 1.3 1.7 1.4-1.4-1.7zM159.5 469.1l-2.5 1.4-2.5 1.4 1.1.1h1l2-1.5 1.9-1.4zM135.9 462H134v.8l1.6.6 1.5.6-.6-1zM217.1 491.6l.1 1.9 1-2.6-1.2-1.2zM215.9 484h-1.8l-1 1.6h3.8zM245.6 517l9.8 10h1l-9.8-10zM257.7 530l4.6 5h1l-4.6-5zM264.8 536h-.8v.8l1.8 1.3 1.7 1.4-1.4-1.7zM223.5 503.2l1.8.5 1.7.5 1.3-.5 1.2-.5zM2013.5 576.5l1.2 1.6 1.3 1.6-.7.6-.6.7h2.3v-1.8l-1.8-1.3zM3227.5 447l-3 2h2.4l1.2-2zM3227.4 451.1l-.1 2-.2 1.9h.7l.5-1.5.6-1.4-.7-.5zM3234 443h-.8l-2.3 2.1-2.4 2 2.7-1.7 2.8-1.6zM3211.5 462.9l1.2 1.2 1.3 1.3.5-.6.6-.6-1.8-.6zM3209.6 470.6l-1.6 1.5v1.2l4-3.6v-.7h-.9zM3236.5 445.1l-3.6 2.7.8.5.9.6 1.2-2 1.2-1.9h-.2zM3223.5 461.2l-1.3 1.4-1.3 1.4h2l.6-1.1.7-1-.3-.4zM3247.5 438.5l2.3-1.9 2.2-1.9v-.7h-.7zM3249.9 431.8l-1.4 1.7 1.7-1.4 1.8-1.3v-.8h-.8zM3256.5 454.2l2.6 1 1.2-1.2-1.9.1zM3238.2 460.1l-1-3.6-.2 3.4 1.1.7 1.1.6 1.1-1.1 1.2-1.2-1.7.6zM3247 434.8v-.8h-.8l-1.3 1.8-1.4 1.7 1.7-1.4zM3247.9 457h-2.9v.8l4 1-.6-.9zM3262 421h-.6l-3.9 4.2-4 4.3 8.5-7.9zM3203.8 472h-.7l.2 1.9.1 2 .8-.5.7-.5-.6-1.4zM3146.9 502.5l.7 1.8.6 1.8.6-.6.6-.5-1.3-1.3zM3139.4 509.6l-.7 2.3-.6 2.4 1.1-1.1 1-1-.4-1.3zM3131.9 515h-1.9v.8l1.6.6 1.5.6-.6-1zM3120.9 520.8l-1.4 1.7 1.7-1.4 1.8-1.3v-.8h-.8zM3155.4 493.6l-.7 2.3-.6 2.4 1.1-1.1 1-1-.4-1.3zM3144 501.5l-1.3 1.5.4.5.5.4 1.2-1.9 1.2-2h-.8zM3197.8 467.6l-.3 6.6 1.5.9V461h-.8zM3166 493.5l-1.2 3 3.3-4.6-.7-2.3zM3198.3 457.5l-.5 1.6.4.5.5.5.6-2.1.5-2h-.9zM3172.6 479.5l-.3-.4-.3-.4v3.1l1.6.6 1.7.6-1.4-1.7zM3169.5 483.1l-.7 1 1 1 .5-1.6.6-1.5h-.8zM3276.2 437.5v6l.5-1.8.5-1.7-.5-1.3zM3311.7 408.5l.1-.7.2-.8h-.9l-.6.9-.5 1 1 .6 1 .6.2 4.4 1-2.6-.8-1.7zM3315.5 404.3l2.3.4 2.2.4 1.8-.4 1.7-.5-4 .1zM3311 414.7v2.4l-1.6-1-6 1.9-5.9 1.8 1.1.1 1.1.1 4.8-1.5 4.8-1.4.8.5.8.4.6-1 .7-1.1-.6-.6zM3291.8 424.7l2.2.4 2.2-.4 2.3-.4h-9zM3306.7 429.2l-.6 2.2.6.6 1.1-2.5 1.2-2.5h-1.8zM3341.9 399.8l-1.4 1.7 1.7-1.4 1.8-1.3v-.8h-.8zM3476.4 357l-5.9 6.5 6.5-5.9v-.6zM3464.5 368.5l2.3-1.9 2.2-1.9v-.7h-.7zM3291.9 441.5l.7 1.8.6 1.8.6-.6.6-.5-1.3-1.3zM3360.2 393.7l1.8.4 1.8-.4 1.7-.5h-7zM3441.5 404.5l2.3-1.9 2.2-1.9v-.7h-.7zM3365.5 392.2l2.6 1 1.2-1.2-1.9.1zM3269.3 434.5v11l.4-2.7.4-2.8-.4-2.8zM3290.2 433.5v5l.5-1.3.5-1.2-.5-1.2zM3273.5 413l-3 .1 4 1.8 2 .1zM3275 426.7l.1 1.9.1 1.9 1-2.6zM3270 414h-.7l-2.4 2.8-2.4 2.7 2.7-2.4 2.8-2.4zM3049.5 536.2l2.6 1 1.2-1.2-1.9.1zM3261 425.8l-5.5 5.7 11.5-10.9v-.6h-.6zM3269.1 428.6l.1 1.9 1-2.6-1.2-1.2zM3285.1 436.6l.1 1.9 1-2.6-1.2-1.2zM3285.5 424.2l2.6 1 1.2-1.2-1.9.1zM3276.5 414.9l1.2 1.2 1.3 1.3.5-.6.6-.6-1.8-.6zM3281.9 439.8l-1.4 1.7 1.7-1.4 1.8-1.3v-.8h-.8zM3280.5 416.9l1.2 1.2 1.3 1.3.5-.6.6-.6-1.8-.6zM3028.8 542.7l1.2.5 1.2-.5 1.3-.5h-5zM2647.1 414.6l.1 1.9 1-2.6-1.2-1.2zM2643.5 425.3l-1.7 1.9-1.8 1.8h1.8l1.2-1.5 1.3-1.5-.4-.4zM2648.1 409.6l.1 1.9 1-2.6-1.2-1.2zM2624.5 432.2l2.6 1 1.2-1.2-1.9.1zM2628.5 431.2l2.6 1 1.2-1.2-1.9.1zM2648.5 403.1l-.7 1 1 1 .5-1.6.6-1.5h-.8zM2622.9 431h-1.8l-.6.9-.5 1 1.9-.2 2-.1-.5-.8zM2687.4 390.6l-1.1-.3-1.1-.4-1.2 3.4 1 1 .6-1.7.7-1.8.9 1.4 1 1.3-.4-1.4zM2690 390.3l.5.5.4.5 8.6.2 8.5.3v-1.3l-9-.1zM2653.5 396.2l-1.3 1.4-1.3 1.4h2l.6-1.1.7-1-.3-.4zM2668 392.4v2.4l1.7-.2 1.7-.3.4-1.1.3-1.1-2 .2zM2659.5 394.2l-1.3 1.4-1.3 1.4h2l.6-1.1.7-1-.3-.4zM2662.6 393.4l-1.8-.3.8 2.4 3.6.6-.8-2.5-1.8-.2zm1.4 1.6h-1v-1h1v1zM2475.7 393l3.6 4h1l-3.6-4zM2499.5 412.9l1.2 1.2 1.3 1.3.5-.6.6-.6-1.8-.6zM2527.9 425h-1.9v.8l1.6.6 1.5.6zM2551.9 437h-1.9v.8l1.6.6 1.5.6zM2712.5 389.3l-1.9.7-2 .7 2.4.6 2.4.6.3-.2.2-.3-.7-1zM2563.5 440.1l-.5.7 1.5-.2 1.4-.2 1.1-1.1h-3.1zM2484 402v.6l6.5 5.9-5.9-6.5zM2608.5 430.2l2.6 1 1.2-1.2-1.9.1zM2617.9 431h-1.8l-1 1.6h3.8zM2607.5 432.5l-1.2-.8-1.2-.7-.7 1.2-.7 1.3.8-.7.8-.8 1.1.9 1.1.9 2-.9 2-.9-2 .2zM2589.9 433.3l-3.9-.1-4-.2v1.5l5 .1 5.1.1zM2580.5 433.1l-1.3 1.4-1.3 1.5h3.1v-3h-.2zM2570 438.7l2.5-.5 2.5-.4v-.8h-5zM2804.5 394.2l2.6 1 1.2-1.2-1.9.1zM2981.5 499.2l2.6 1 1.2-1.2-1.9.1zM2934.8 487.7l1.2.5 1.2-.5 1.3-.5h-5zM2967.8 495.7l1.2.5 1.2-.5 1.3-.5h-5zM2941.5 489.2l2.6 1 1.2-1.2-1.9.1zM2923.3 449.5v14l.4-3.8.4-3.7-.4-3.3zM2925.8 477h-.8v1.9l1 .6 1 .6-.6-1.5zM2928 483.9v2l1.1.6 1 .7.4-.4.3-.3-1.4-1.3zM3012.8 527h-.8v.8l1.8 1.3 1.7 1.4-1.4-1.7zM3017.8 530h-.8v.8l1.8 1.3 1.7 1.4-1.4-1.7zM3002.8 517h-.8v.8l1.8 1.3 1.7 1.4-1.4-1.7zM2992.8 500h-.8v.8l1.8 1.3 1.7 1.4-1.4-1.7zM3006.7 521l3.6 4h1l-3.6-4zM2849.5 405l3 2h2l-3-2zM2780.5 394.3l2.8.4 2.7.4 2.3-.4 2.2-.4zM2473.5 395.5l2.3 2.6 2.2 2.5-.7.9-.8.8 1.2-.6 1.1-.7.5 1.2.5 1.3.1-1.1.1-1-3.2-3zM2808.5 394.3l2.8.4 2.7.4 2.3-.4 2.2-.4zM2762.6 390l-1.5.1-1.6.1 1.5.5 1.5.6 2 .9 2 .9-1.9-1.5zM2742.5 400l-3 2h2.4l1.2-2zM2832 394h-1.4l7.9 5.9.9.1h.9l-4.1-3zM2922.2 441.5v5l.5-1.3.5-1.2-.5-1.2zM2901.5 422.2l2.6 1 1.2-1.2-1.9.1zM2921 435.7l.1 1.9.1 1.9 1-2.6zM2896.5 421.2l2.6 1 1.2-1.2-1.9.1zM2727.5 395.2l2.6 1 1.2-1.2-1.9.1zM2872.5 415.2l2.6 1 1.2-1.2-1.9.1z"
     id="path203" /><path
     id="path12"
     class="st1"
     d="m2017.9 601 .4.5-.6-1.7-.6-1.8h3.9v-2l-2.4 1-2.3.9-1.4-1.2-1.3-1.2 3.9 5 .4.5zm-16-32.2-1.4 1.7 1.7-1.4 1.8-1.3v-.8h-.8l-1.3 1.8zm4.7-8.2-.6 1.7 1.5-1.3 1.5-1.2v-.8h-1.8l-.6 1.6zm-57.8 63.5-2.8-.1.4 2.2.3 2.3 2.2.1 2.1.2-2.1-.5-2.2-.5 1.4-.9 1.4-.9-3-.2 5-1.6-2.7-.1zm-7.3 5.9-3 2h2.4l1.2-2h-.6zm-7.8-7h-1.7v.8l2.8 1.7 2.7 1.8-1.9-2.1-1.9-2.2zm-2.5-5.1-1.2-1.2.1 1.9.1 1.9.5-1.3.5-1.3zm24.3 3.6-1.4-1.7-1.3-1.8h-.8v.8l1.8 1.3 1.7 1.4zm20.5-4.5h-2.9l-.5.9-.6.9 2-.5 2-.5v-.8zm.7-1.9 1.1 1.1 1 1 1.3-.4 1.3-.4-2.3-.7-2.4-.6zm-11.2 2.1 1.3.5 1.3.5 1.2-1.2-1.9.1-1.9.1zm-5.3-9.7v6l.5-1.8.5-1.7-.5-1.3-.5-1.2zm3.6 3.5h-.8v4.9l1.6 1-.4-3-.4-2.9zm-456.3-70.8 1.3.5 1.3.5 1.2-1.2-1.9.1-1.9.1zm80.4 6.6-1.4 1.7 1.7-1.4 1.8-1.3v-.8h-.8l-1.3 1.8zm6.3-12.9-.6 1.8-.7 1.8 1.2-1.2 1.3-1.3-.6-.5-.6-.6zm-3.9-2.4-.5 1.6.4.5.5.5.6-2.1.5-2h-.9l-.6 1.5zm5.8-9.5-2.1 2.6-2.1 2.6v1.6l.9.5.9.5 2.3-2.8-1.3-.5-1.3-.5 3.8-4.3h-1.1v.3zm-2.1 5v1h-1v-1h1zm14.5-2.5-1.4-1.7-1.3-1.8h-.8v.8l1.8 1.3 1.7 1.4zm-.5 6.6-.6-1.5-.6-1.6h-.8v1.9l1 .6 1 .6zm-11.1-14.3-2.4 2.7 2.7-2.4 2.8-2.4v-.7h-.7l-2.4 2.8zm11.1 3.1 1.3-2.2-1.2.7-1.2.8-1.4-1.2-1.5-1.2v2.8l2 .1 2 .2zm-3-10.4v-3.4l-.9-.5-.9-.6-2.1 3.4-2.1 3.3v1.8l2.1-3.4 2.1-3.4.9 1.4.9 1.4zm7.1 36.3-1.3-1.8h-.8v.8l1.8 1.3 1.7 1.4-1.4-1.7zm-100.6-4.6 1.3.5 1.3.5 1.2-1.2-1.9.1-1.9.1zm506.6 63.5-1.2-1.2.7 1.8.6 1.8.6-.6.6-.5-1.3-1.3zm-493-56.9-1.3-1.8h-.8v.8l1.8 1.3 1.7 1.4-1.4-1.7zm-23.6-16.9.1-2.5.2-2.4h-.6l-1.3 3.3.8.8.8.8zm.3 4.1h-.8v1.9l1 .6 1 .6-.6-1.5-.6-1.6zm-3.4-13.9-1.9.1 1.3.5 1.3.5 1.2-1.2-1.9.1zm44.7 50.6-2.6-.2-2.5-.1v1.7l2.4-.3 2.3-.3 1.9 1.5 1.9 1.4-1.7-1.9-1.7-1.8zm92.4-33.5 1.3.5 1.3.5 1.2-1.2-1.9.1-1.9.1zm49.2 19.7.3.4v-3.1l-1.6-.6-1.7-.6 1.4 1.7 1.3 1.8.3.4zm-.8 2.1 2.2 4h1l-2.2-4h-1zm24.9 9h-.8v1.9l1 .6 1 .6-.6-1.5-.6-1.6zm-35.7-60-.6 1.1-.7 1 .6.6.6.6.1-1.4.2-1.4 1.4 8 .2-4.3.1-4.2h-1.9zm11.2 42.3-1-.6-1.1-.7-.6 1.7-.7 1.7-.9-1.4-1-1.5v2.4l.9.5.8.5 1.8-1.3 1.8-1.3zm-4.2-11.3-2.2-4h-1l2.2 4h1zm33.4 36.7-.8-1.1-.9-1.1.5 1.5.4 1.5 1.9.2 1.9.3-1.5-.7-1.5-.6zm17 .3h-6.8l.4.4.4.3 4.4.6 4.5.6-1.5-1-1.4-.9zm-90-39.8 1.3.5 1.3.5 1.2-1.2-1.9.1-1.9.1zm-9 2 1.3.5 1.3.5 1.2-1.2-1.9.1-1.9.1zm-10.6 13.6-1.4 1.7 1.7-1.4 1.8-1.3v-.8h-.8l-1.3 1.8zm-7.8-4.8-.6 1.1-.7 1 .5.5.5.5.5-1.6.6-1.5h-.8zm4.4 11.2 1.3.5 1.3.5 1.2-1.2-1.9.1-1.9.1zm33.3-21.5 1.2.5 1.2-.5 1.3-.5h-5l1.3.5zm594.7-120.5 1.3.5 1.3.5 1.2-1.2-1.9.1-1.9.1zm-9 .9-.7 1 .5.5.5.5.5-1.6.6-1.5h-.8l-.6 1.1zm4.2-38.4.5-1.7-.5-1.3-.5-1.2v6l.5-1.8zm-8.9.2-3.3 3.6 3.8-3.5 3.8-3.5.5.3.6.4.4-.4.4-.5h-2.9l-3.3 3.6zm8.7-5.4 8 7-6.9-7.5h-1.9l.4.2.4.3zm12 41.7 1.3.5 1.3.5 1.2-1.2-1.9.1-1.9.1zm21.5-26.4v-1l-2.6.6-2.6.7.7-1.1.6-1h-1.1l-.1.2-.1.3-.3 1.7-.3 1.6 2.9-1 2.9-1zm-16.5 25.4 1.3.5 1.3.5 1.2-1.2-1.9.1-1.9.1zm-53 28.3 2.3-1.9 2.2-1.9v-.7h-.7l-3.8 4.5zm-1.2 2-.1 4.2-.2 4.1-1.2.5-1.3.5 1.3.1 1.3.1.5-1.4.5-1.4-.4-3.4-.4-3.3zm23.6-56.7-1.4 1.7 1.7-1.4 1.8-1.3v-.8h-.8l-1.3 1.8zm7.1-7.1v-.7h-.7l-3.8 4.5 2.3-1.9 2.2-1.9zm-9.5 43.3-.6 1 1.5-.6 1.6-.6v-.8h-1.9l-.6 1zm.5-33h-.8l-1.3 1.8-1.4 1.7 1.7-1.4 1.8-1.3v-.8zm-6.1 6.8-1.4 1.7 1.7-1.4 1.8-1.3v-.8h-.8l-1.3 1.8zm156.3-45.1 3.8.4 3.8-.4 3.7-.4h-15l3.7.4zm-46.4-2 1.2.5 1.2-.5 1.3-.5h-5l1.3.5zm25 1 1.2.5 1.2-.5 1.3-.5h-5l1.3.5zm72.8 22.3 9.8 10h1l-9.8-10h-1zm1.9-4.2.9-.9 1-.9-.9.1-6 2.9 2.5-.6 2.5-.6zm-106.7-18.1 1.2.5 1.2-.5 1.3-.5h-5l1.3.5zm105.7 19.3-3 2h2l3-2h-2zm-11.8-8 4.6 5h1l-4.6-5h-1zm-126.2 45.2 1.3.5 1.3.5 1.2-1.2-1.9.1-1.9.1zm1.6-2.6.1 1.9.5-1.3.5-1.3-1.2-1.2.1 1.9zm-2.3-14.9 2.2.4 2.2-.4 2.3-.4h-9l2.3.4zm-12.3 1.5 3.5 1 1.3-.5 1.2-.5h-6zm15 1h-5l1.3.5 1.2.5 1.2-.5 1.3-.5zm15.7-27.3-.6 1.8-.7 1.8 1.2-1.2 1.3-1.3-.6-.5-.6-.6zm-115 58.1 1.5.9 3.7-3.8 3.7-3.8h-3l-1.3.8-1.3.8h2.5v-1h1v1h-.9l-.6 1-.6 1-1.4-.5-1.4-.5-1.1 2.1-1.1 2.1-.9-.5-.9-.5-2.2 3.1-2.2 3.1-.6-.6-.6-.6-2.3 2.1-2.3 2.1.6 1.6.6 1.5 2.3-2.8 3.7-4.4.8.5.8.5 1.7-2.5 1.8-2.7zm1.4-1.4.6-1.6h1.8v.8l-3 2.5.6-1.7zm-10.7 10.4h-1.9l1.7-2 1.7-2h.6l-2.1 4zm7.1-6.1-1.2.7-1.2.7.7-1.2.7-1.2h.9v1h.1zm0-2.9h1v1h-1v-1zm-120.5 120.2 1.3.5 1.3.5 1.2-1.2-1.9.1-1.9.1zm-31.6 47.6-1.4 1.7 1.7-1.4 1.8-1.3v-.8h-.8l-1.3 1.8zm-10.4 8.4 1.3.5 1.3.5 1.2-1.2-1.9.1-1.9.1zm40.6-43.1-.4-2.8-.4-2.8-.2 3.9-.1 3.9 4-3.6v-.9l-1.4 1.1-1.5 1.2zm-22.6 24.4 6.5-5.9v-.6h-.6l-5.9 6.5zm131.6-125.3 1.2-1.2-1.9.1-1.9.1 1.3.5 1.3.5zm-16.3 28.8h-.8v6h1.7l-.5-3-.4-3zm7.1-3.2-2.4 2.7 2.7-2.4 2.8-2.4v-.7h-.7l-2.4 2.8zm6.5-44.8h.6v1h-.9l-.2.4 1.6.2 1.5.2-1.1-1.8h.1l-1.5-.5-.1.5z" /><path
     id="path14"
     class="st1"
     d="m2179.1 435-.6 1-.6 1-.9-.6-.9-.6v2.1l1.2-.1 1.3-.1.7.1.7.1 1.4-1.7-1.1-.7-1.2-.5zm.9 2h-1v-1h1v1zm3.4 18.1-1.9.1 1.3.5 1.3.5 1.2-1.2-1.9.1zm-62.2 67.9h-1l-1.1 1.4-1.2 1.4 1.1.7 1.1.7.6-.6.6-.6h-2.5l2.4-3zm3.3.1-1.3 1.4-1.3 1.5h3.1v-3h-.2l-.3.1zm-17.1 8.4-2.1 1.4-.8-.7-.8-.7.7 1.3.7 1.2 1.9-1 1.9-1 .6-1 .6-1h-.7l-2 1.5zm8.7-5.5-.6.9-.6.9.9.6.9.6.6-.9.6-.9-.9-.6-.9-.6zm.9 2h-1v-1h1v1zm17.5-9.8h-6l3.5 1 2.5-1zm19.7-14.3-.6 1.8-.7 1.8 1.2-1.2 1.3-1.3-.6-.5-.6-.6zm3.1-18.4v14l.4-3.8.4-3.7-.4-3.3-.4-3.2zm1.4-31.7-.5-1.3v5l.5-1.3.5-1.2-.5-1.2zm-27.2 70.5 4.3.4 4.3.4 3.7-.4 3.7-.4h-16zm14.6 32.3.1 1.9.5-1.3.5-1.3-1.2-1.2.1 1.9z" /><path
     class="st2"
     d="m3500.2 386.4-.7-47.1-11.2 8.3-11.3 8.4v1.9l-17.2 14.4-14.8 29.4-2.3 1.6-1.9 1.3c-.1 2.4-1.7 4.6-4.8 4.4-15.7-.9-31.1-1.6-45.7-7.2-.8.7-1.9 1.2-3.3 1.2-1.6 0-2.7-.6-3.5-1.5l-2.4-.2-12.2-8.4-7.3 1.1-9 1.4-1.9-.1-1.9-.1-2.1 1.1-2.1 1.1-2.4 3.4-7.2 3.4-19.2 1-4.6 3 2.2 3.6-2 5.8-2.2-.4-2.8 1.1-2.8 1.1-11 1-.5.1-.5.1-8-1.4-10-5h-3l-16 14.6-10 8-5.8 4-3.2 2-9.4 6.4h-1l-5.9 3.4-5.9 3.4-9.6 2.4-1.8-1.1-1.8-1.1-.7 1.1-.7 1.1.2 8.6.2 8.6-1.7-1.6-1.7-1.7-6.8 4v2.4l-6-7v-2.6l-1 .6-1 .6 1 1.6-1.6 4.6-1.6 4.6-1.4 1.1-1.4 1.1-2-.6-2-.7v-3.7l-1-.6-1-.6.2 6.6-2.6 9-2.6 4V494h-3l-4-6.5v3.6l-1.8 3.4-3.2 7.3v3.8l-1.4 1.9-1.4 1.9-3.2-6.4.2-1.4-1.8-.6-2.2 2.9-2.2 2.9-.7 2.8-.7 2.8-4 6.8-1.6-2.6-2-.2-2-.2v-3h-3v4h-2l-4.3 5h-3.7c-.3.4-.6.7-.9 1v1.8l-3.6 4.4-4.8-4.1h-3.6l-3-4.2-4 9-4 2.2h-1.1l-3.8-4-5.2 4h-2.3l-11.4 5.8-6 3-5.6-1.2 1.2-4.8h-1.1l-13.4 3.8-14.6 4.2-7-2.4-4.4-9.2-4-2-12.6-13-8.4-15-13-2.6-3-.6-2.2-1.4-23.8-5-18.8-5h-3.7l-1-3.6-2.1-4.4-2.1-4.4-.8-17.1-.8-17.1-2.3-8-2-2.4-12.6-7-7.6-1.4-3.8-2-22.2-4.6-8.9-4.1-8.9-4.1-7.5-3.6-7.5-3.6-7-5-63-.4-8.6-4-16.2 9.6-2.8 2.4-1.7-1.4-1.7-1.4-6.4-3.4h-3.2v-1.8l-6.4-2-2.8.4-2.8.4-3.9-1.4-3.9-1.4v1.7l-18.4-.6-2.4 2v-2.6l-1.5 1.9-1.5 1.9v-3.6l-2.4 1 .4 2-5-.1-5-.1-1 1.6-3.4-.4-4.6 1.6-1.3-1.1-1.3-1.1-.6 1.6-.6 1.6-4.6-.6-3.4 3.4-1.8 3.6-1.2 11.6-2 3.4-2.6 9-7.4 3.6-7.6 1.4-7.5-.1-7.5-.1-5-1.4 1.3.9 1.3.9-4.2 1-1.2-2-3 2.6-3.2.6-2.8.4-2.8.4v-1.5l-11.6.6-5.4.6-1.3 1.1-1.3 1.1-6.6 1-1.3 1.1-1.3 1.1-.6-.6-.6-.6-1.2 3-11.4-4.6-35-17.4-15-6.2-11-5.9-12.6-13-17.2-22.6-6.8-13.4v-1.6h3.3l-3.4-3.6v-1.2l1.8-.4 1.8-.4-3.6-1.4-1 4h-1.8v2.8l-2.4 1.6-2.4 1.6-11.6 6.4-9 4.6h-2l-4-4-4-4.1-1.5.4-1.5.4-2.2-2.4-22.6-8-34-1.6-29-.1-8.4.6-.9 1.1-.9 1.1-5.1 9.9-5.1 9.9v3.2l2.1 3.4 2 3.4-.6.4-9.6 3.6-1.2 3-19.2-1.6-4.2-.1-4.2-.1-1.6-1.6 3.4 1.4v-1.1l-10.4-3.4-12-7-7.4-7 .9-2.4.9-2.4v-.5l-3.6.4-3.6.4.5 1.4.5 1.4h-2.3l2.4 2.4v2.6l-9.6 10.6-6.8 8.6-6.8 8.6-8.4 7.8-2.4 2.2h.3v.8l-1.8 1.4-1.8 1.4 1.4-1.8-3.5 3.2h.7v1h-1v-.7l-.3.3 1 1.6h-3.5l.6.6.6.6-2.4 2.6-.6-.4-.6-.4-1.2 1.4-1.2 1.4.8.5.9.5 26-26.4 8.4-10.4 8.4-10.4 3.5-4.2v42l-.7 1.1-.7 1.1-10.6 5.4-10.6 5.4-11.2 15v8.6l-5.5 2.2h-14l-7-1.6-7-1.6-9.4-3-1.2-3 1 .6 1 .6 4.5-2.6 4.5-2.6-1.2-2-1.1.8h.8v1h-1v-.8l-1.1.8-4.8 2.6-4.8 2.6v-2l-2.8 2.6 2 2.4h-2.5l2 2.5 1.2 44.6-3.4 7.4-4.8 7.6-4.8 19.2v13.6l7.2 7-1 10.6-5.6 9.8-.4 5.8-4 4.4-6 12-3.2 6.2-4 1-.8-1.3 2.8-2.6 1.4.2.6-2-6-3 .2-6.8 3.6 2.2 2-3v-1.2l-4.2-1-1-4-2.8-1v-6.2l5.2 4.2 2-1.2-2.4-1.6 2.8-1-6.8-5.8-1.2-8.4h-2l-.8 6.6-2.8 4.4v1.4l4.2-3.8-4.6 9-3.2 2.4h2.8l4.6-4.4v7.2l-6.4 5.2h2.5v2h-6.1l1.2 2 4.4-.6 2.4-1.4 1.4 4.6.4 10.2-1.6 4.2h-3.9l-1.2-1.8 2-1.2V603l-5.4-.4-3-3.2 3.2 1 2.6-1.6-8.2-5.2v-2l1.6.2 3.8-.2-5.4-5-.2-1.6-3-4.6-1-8.4-.6-.8-2.2 4.9-2.1 4.9-4 7.8 3.2-1.2-2.4 4.4-.4 3-2 5-1.4 4.4h1.7l2.4-2.4v1.5l-2.8 6.6-2 1.2-5.2-5.2-.2-2-.5-2-.2-6.5-5 7.4v1.2l2-1.2v2l-5.2 6.2 1.2 1.2 3-2.6-1.2 3.2-6.6 4h-2.8l-4.4-6.8 1.8-1.2.8 2.4 2.4-1.4v-3.6l-3.2-2.6-1.8-3.4 4.8 1-.6-2.1-.5-2.1h-2.6l-1.4-2.4 2.4 1.4v-1.8l-4-3.6 1-1.6-4.2-7.2h3.2v-1.1l-4-4.2v-2.9l-2.6 2.2-1-1-3 4.6-1.4 3.8 3-1.2-3 5.8-2.2 1.4 1.4.8 1.4.9-5.6 5.2v2.2l4-1v1.6l-6.4 6.2-5.6-9v-4h-1.6l-3.4 5.8 1 1-2.6 3.8-2.5 3.8v3.3l2 2-3 9-2.2 5.2-4.4-2-1-2.8 1.8 1 1.2-3-3.8-9v-3.6l-1.4-4.4h2.8l-2-1.4-3.4-4.2 6.4.8-4-2.6.8-3.6-3.1-1.2v-2l3 2.5v-1.3l-6.2-12.4 4 3.6h1.6l-2.2-2.6-2.2-5.8 3.8 3.4h1.5l-4.2-6.8-3.8-11.8-.4 1.5-.4 1.6-3.8 6.8-4.4 5.6v1.3l2.4-1.4-5 5.6 4.4-1.2v2l-6.4 9.2 3.2-1.2-4 7.2 2 2.4-4.2 1.4v1.8l3.2 1.8-4.6 3.2h-3.6v2l2.4.2 2.8-.4-2.8 3.4 2.8 1.8-3.4 1.4v2.8h2.4l-4.2 3.4.2 1.4-3.5 4.1v1.9l3-1.2v1.8l-6.4 3.8 3.6 2.6 4.2-2-5 4.1h-1.6v1.9l7-.2 1 1-7.6 5-7.8-5.8h-2.6l.2-1.6-.2-1.8-2.6 2.2-3-1.8h3.8l4.4-4.8-7.2-1.4-5.6-2.8v-5l4.4 2.4.8-2.2 3.4-.2-8.4-3.8V607h-2v6.1l-5 5h-3.4l1.4 1.6 6.4 2.3-5 .4-3.5-.4v2l2.4 1-8 .2 3 1.9-3 .2 5 1.6-6 .2-6 3.2-.8-2.6-6.8-6.4h1.6l-3-1.8-1-13.4-11-3.8-9 2.4-13.8 5.8-6.6-4.6-8.2-10.4v-8.8l-3-2.5v-2.5l-4.2-5.2 2.2-4.2-1.2-4.6 4-5.1v-11l-1.6-1.9v.3h-1v-1h.4l-1.4-1.6-15-4-16.2-4.4-25.4 13.8-9.4 7.2.4 1.8-8.8.2-4.4 2-17.5 8.4v1.7l-8.5 1.4-9 5.2-1 1.6-5.2 1.4-1.4-4.2-2.2 1.4 1.2-2-3-2.6 1-2.8-3-1.2-3 2.4 1 1.5-3 2.4v2.9l-2-1.2v2.1h-2.4l-5.8-5.6-15.4-.4-4.6-.2-1.8-4.6-3.2-2.6v-3.4l-2.4-2.4h-4.4l-6.8-2.8-8 1.4-5.2-5.6h2.8v-2l-5-3.3v-1.7l2.7 1.1 1.2-3.2h-1.9l-3-7.2 1-1.8-2.4-4.6 4.1 3.6 1.2-2-2-1.2-4-8.2 2.4-1.4-3.8-8.4-1.2-8.4-5.6 12-3.8 5.4v3.5l4.2-3.8-5.2 10.4h-2v2.2l5.6-1.4-4.2 4.4-4.8-3.2-10.6-2.2-15.4 3.4-3.4 1-1 3.4-7 10.8 3.2 3.6-4.2 1.4-5.2-5.2h-1.3l.4-7.6-2.6-3-3.2-7.4 5 1.2v-1.8l-6-7v-1.4l3-3-5-5v-3.3l3 2.4 2.2-1.4-3.6-3.4 2.6 1.8 1.2-1.2-2.6-3.1-2.6-3.1v-2.4l-2 2.4-2 2.4v3.2l-5.6 6 3.6-1.2v1.5l-5 6.8v.5l3.6-1-5.2 4.6-1.2 3.4 2 1.2 3-2.4v2l-5 3.2-2.2 4.2 2.6 1.6-3.2 3.6.9 2.5h-1.8l-3.8-3h-2.6l-8 5-2.2 5.4-4.4 11.8-9.8 2.8-9.4 2.2-3.2-2.8-4.8.6v-2h2.4l-5-3.9h-2.4v-3.7l-3.7-4.8-3.4-9-5.4-6.4-14.4-2.9-5.2-3.4 1.2-3.8h-1.8l.4-6.4-3.9-5 3.3-.7-3.4-3.8h3.3v-.6l-4-7.8V499h-1.8l-2.6 6.4-.7-1.9-.7-1.9-.2 5.6-5 7.6 1.2 3-6.6 5.2h1.6l3.8-2v1.4l-4.4 4.7 2.8 1.6-6.2 3.2v1.5l2.2 2.2-7.4 1.4h-10.2l-5.6-2.2-3.6 3.6-2.4-.8-5.4-5-3.2-2.9h-1.2l-6.2-5.8-14-1-1.2-1.2-.6-5-1.4-2.2h-2.8l-3.2 5h-1.9l1.2-1.8-2-1.2V515h4v-1.9l-5-7.4v-6.6l-1.8-1-6.1 6.9-6.1 6.9v1.2l2.4-.6 2.4-.6-1.2 4.4-6.8 6.8-2.4-.8-4.4-10.8-2-1.6-2-1.6-19-.4-.6 2.6-.6 2.6 2.6 3-2.4 2.4v4.5l4.2 2.2-1.8 1.8-26.8 1.6-8-.4-13-3.4-14.4-5 .8-1.4-5.8.8 1 1.8h-2.1v-1.9l-3.2 1.2 1.6 1.2.4 2.2-4-1-7.2-8.8-5.1-2.9-5.1-2.9-22.2-11-9.4-3.2-9.4-3.1-7.5-4.9-7.5-4.9-6-2.6-3-2.8-11-5-3-2.6-4-.6-1-1-6.4-4.6V454l-3.2-21.6-2-7.6-6.6 4h-2l-5.2-5v-3.2l2.1 1.1 2.1 1.1 1-1-2.8-3.1-2.8-3.1-2.1.6-2.1.6-1.8 3.1-1.8 3.1 3.3-1.3v1.4l-4 6.4h-2.1l-4.6-5-2.8-1.1-2.8-1.1-15.4 1-4.8-6.4-3-6-9-2-6.2.1-6.2.1v-2.6l-4.4-1.4 3.8-3-2.4-1-4.6-4 3.4 1.1 1.2-2-2.8-3.4-1.7-4-.2-5.4 2 .6 2 .6-1.1-1.4-1.1-1.4-5-9.4 2.8 1v-2.3l-2-3.9-2-3.9v-5.7l-1.4-1.4-5.2 11.6-3.6 5v3.9l2.1-1.9 2.1-1.9-5.2 10.4h-2v2.2l2.6-.6 2.6-.6-2.2 4h-2l-2.4-1.6-2.4-1.6-11.6-1-8 2.1-8 2.1-1.6 2.6-7.2 12 1 1.6 1 1.6-.6.6-.6.6h-3.7v-2l-2.3-1.1-2.3-1.1-.1-1.7c-2.8.3-5.2-1-7.1-3.1-1.8-2-3-6.4-5.1-7.8-1.1-.8-2.9-.3-4.3-.4-.5 0-1.1-.1-1.6-.1-.6.3-1.3.6-1.8 1-.2.5-.5.9-.9 1.2 0 .1-.1.2-.1.3-.3 1.6-.6 3.2-1.1 4.8-.4 1.4-1.4 2.4-2.7 3l-1 1.8-1 1.9h-1.8l-1.4-2.4 1.3-1c-1.5-.4-2.7-1.5-3.1-3.4v-.3l-4.5-1.9-3-2.4-6-2.1-6-2.1h-8.8l-10.6 6c-.3 2.1-1.7 4-4.3 4.3l-1.9 1.4v2.1c1.1.6 1.8 1.6 2.2 2.8l.6.2v12l-1.8 1-1.3-.5c-.6.3-1.3.4-2.1.4-.9 0-1.7-.2-2.4-.6-.6.3-1.3.4-2 .4-.3 0-.6 0-.8-.1l-.9 4.9-.8-3.6H935v2h-3.9l-1.2 2-3.4-1.6-8.8-4.6-11.2-3.8-2.1-1.4-2.1-1.4-11.5.1-11.5.1-4.2 2.4-12.4 12v1l-2.9 2.9-2.9 2.9-1.4 3.1-1.4 3.1-1.5-.6-1.5-.6 1.4 1.4-1.6 3.1-1.6 3.1-1.8 3-2.2 5-1.2-1.6-1.2-1.6-9.5-4.6 1.2-2-7.4 1.4.7-1.1.7-1.1h-1.8l-1.1 2.4-1.1 2.4-3.1-.4-3.1-.4.4 2.4.4 2.4-2.8-1-2.6 1.6-3 .2-3.7.3.6 1.6.6 1.6-1-.6-1-.6-.2 2.6-1.6-4-1.2 2.6-1.2 2.6-3.8-1-.9 2.4-.9 2.4-.1-1.2.6-.2h-3l-.2 2.4.4 2.6-2.6-.6-.7-.9-.7-.9-3.6 6.4h-2.4v1.6l-3.6 4-1.3 1.9-1.3 1.9-1.2 3-6 12.4-2.8 1v4.1h-2.9l-8.4 8h-.3l-6.4-5.6-2.8-1.4-2.8-1.4-1.2-1.6-2.8-.4-1-.6-1-.6-7-1.4-2.4-2-1 .6-1 .6V491h-5v-1.7l-13.8-3.4h-3l-.5-1.9-.5-1.9-10.2-1.4-3.6-6H689l-1.2-3.6-6.8-7.6.6-7-1.6-3.1-1.6-3.1-.6-2.9-.6-2.9-1.1-.4-1.1-.4-1.4 5.4-6.4 8 1.2.4 1.2.4-3 5.6 2.4 1-1.6.1-1.6.1-4.4 4.6v2.4h-3.6l-5.8-3h-3.6l-1.2 3h-4.9l-1.6-1.6-1.6-1.6v-2.6l-4.4-1.6-2.5.1-2.5.1-8.7-11.1 2.6-1.6-5.2-5.6-5.4-11.6h-1l-.2 3-.4 1.6-3.6 8-3 6.4.7 1.1.7 1.1.9-.6.9-.6v1.7l-3 2.9-3 2.9 1.2 3.6-5.2 7.6 3 .6v.7l-2 5.4-1.8-1.6-1.8-1.6-.6.6-.6.6 2.2 4-6.4-1.4.6 5.4-2.5.4-2.5.4-1.6 2.4v5.4l-1 2.6-1 2.6h-8l-1.8-4.4-2.6-3.4-8.4-4.4-4.7 2.1-4.7 2.1h-4.9l-3.8-2-3.4-6.4-.2-1-.8-4.1-.8-4.1-4.4-4-2.7-.6-2.7-.6-.8 1.4-.8 1.4-4.4-1.6v-1.9l-6.9-2.3-2 1.1-2 1.1h-9.6l-2.5 1.4-2.5 1.4H492l-2.7-1.4-2.7-1.4-3.8-1.6-3.8-1.6h-4.8l-10-5-3.3-.6-3.3-.6-9-3-4-1.7-13-4-22-9-19-8.1h-6.2l-.6 2.5-.6 2.5-5 7.4v2.5l2.1 2.7 2.1 2.7-2.4 4.5-2.4 4.5-1 1.9-1 1.9H374v4.2l4 5.6-2.5 5.1-2.5 5h-2.9l-3.6 3.7-3.6 3.7-.6 2.6-.6 2.6-1.9 2.5-1.9-1-1.9-1-5.1-10.4-2.5-4.4-2.5-4.4 1-.6 1-.6-2.4-5.4-2.4-5.4-.6-1.8-.6-1.8-.9.5-.9.5-6.4 13.4 2.4 1.4-1.7 2.6-1.7 2.6.6 1 .6 1-7.4 12.6-7 7.4-2.2.6-2.2.6-11 18.6-2.3 2.2-2.3 2.1-1.9.4-1.9.3-1.1 3.1-1.1 3.1-5-2.6h-3.4l-1-1.8h-13l2 3.6-2.6 3.6-2.1-.7-2.1-.7-26.6-29-4.8-2.9-4.9-3.8h-4.4l-2.2-.6-2.2-.6-3.4-8.4-.7-4.5-.7-4.5h-3l-1.8 3.8-1.8 3.8-1.4.5-1.4.5-5-3.6v-3.6h-2v2.1l-1-.6-1-.6V479h-1.7l-2.3 5h-1.9l-3.9-4.5-3.9-4.5-5.4-2h-4.8l-3.7-2.5-3.7-2.5H160v1.9l-3.8 2-6.6-2.5-6.6-2.5-7.2-3.6-7.2-3.6-7.6-7.6-4.9.6-4.9.6v-4.5l-2.8 1.1-1.3-7.4-.1-2.7-.1-2.7-.7.5-.7.5-1.3 4.5-1.3 4.5H101v-4.4l-2.6 3.4-1.1-2.2-1.1-2.2-1.4 4.4-6 3-9.8 1.3v-2.8l-3.6-11.4h-1.6l-1.6 3.7-1.5 3.7-1.3-2.5-1.3-2.5 1.8-1-4-13.4H64v2.4l-2.1 4.4-2.1 4.4 1.4 1.4.8-1.8.9-1.5v1.6l-3 6h-2.1l-5.2-4.8-5.2-4.8-4.9-2.9-4.9-2.9-1.9-1-1.9-1-1.6-5.5-1.6-5.5-3.2 6.4H26l-3.4-14H21l-.1 3.5-1.8 3.4-1.8 3.4-1.1-3.4-1.1-3.4-.4-2.5-.4-2.5-1.9 3.8-1.9 3.8-.8-1.3-.7-1.4-1.6-5.8-1.7-5.7H4v3.6l-2 3.9-1.5 3 .3 156.7.2 157.6-.2 158.4L.5 1038l1749.8-.3 1750.2-.2.4-604-.7-47.1zM2193.5 425l-1.2.7-1 .6.6-1 .7-1.2h.9v.9zm-127.1 182.2.7-1.2h.9v.9l-2.4 1.4.8-1.1zM922 426h-1v-1h1v1zm55.2-10.9-1.8 5.3-9.2 2.9-9.2 2.9-1.8-1.6-1.8-1.6H951l3.2-5 .1-5.4.1-5.4 1.7.1h.2c.8-.6 1.8-1 3.1-1 1.1 0 2 .3 2.7.8.3-.1.6-.1 1-.1 1.3 0 2.3.4 3.1 1l2-1.2h4l.7 1.1.7 1.1 2.3-.6 2.3-.6.5.9.5.9-2 5.5zm48.6-1.5-.4.4-2.7-2.1-2.7-2.1V407l2.5 1 3.6 5-.3.6zM1087 383h-1v-1h1v1zm116 95v-2h.9l1.2 2h-2.1zm84 46h-1v-1h1v1zm3 3h-1v-1h1v1zm4-2v-2h.9l1.2 2h-2.1zm40 6h-1v-1h1v1zm155-10h-1v-1h1v1zm113 9h-1v-1h1v1zm370 108h-1v-1h1v1zm18 4.8-4.4 3.2 3.6.2-1.2 1.8-4-1v-3.5l4.4-2.2 1.6-.2v1.7zm6.6-48.5 1.4-2.4h.9v1h.1l-2.4 1.4zm22.1 23.4-.7.6v-2.7l1.4 1.4-.7.7zm5.3 10.3h-1v-1h1v1zm17 9h1v1h-1v-1zm.6 9.5-1.9 1.5h-1.6v-1.1l4.4-1.8h1l-1.9 1.4zm1.9-40.6 3-1.8.8.8-1.4 3.4-2.4-2.4zm3.7 8.3-1.2 1.2v-2.1l1.4-1.4 1 1-1.2 1.3zM2059 604h1v1h-1v-1zm2 70h-1v-1h1v1zm1.7 2.7-.7.7v-2.7l1.4 1.4-.7.6zm6.3-54.7h1v1h-1v-1zm2 16h-1v-1h1v1zm1.7-9.4-.7.7-3.4-3.4h2l2.9 1.9-.8.8zm.2-4.6h-1.9v-2h3.1l-1.2 2zm4.1-5.2v.8l-1.8 2.8-4-2.2-1.2 1.2v-2.2l3.6-1 3.6-.2-.2.8zm17.1-1.4-1.2 1.4.6 2.8h-3l-.6-3.2 4.6-2.2.8-.2-1.2 1.4zm-4.2-1.3-3.2-.6-.8-2.4h3.6l6-3.8 1 .8-6.6 6zM2112 905h-1v-1h1v1zm7 11.9-2 1.2V916h2v.9zm13-15.9h1v1h-1v-1zm2 16h-1v-1h1v1zm54.1-457.2-6.1 2.6-2.8 6.6-8.6 11.6-3.6 4.1-3.6 4.1-1.1 1.9-1.1 1.9-1-1-1.3-32-1-5.4 1.3-1.4 1.3-1.4 14.8 4.6 12.8 2.4v1.4zm13.9-1.8h-1v-1h1v1zm30-33h-1v-1h1v1zm61.5-24-1.7 5.1 1 3.6-13.6-1-16.6 6.4-10.6 1.9-10.5 1.8-.4-.4-.8-44.4h1.3l2.4 2.6 2.4 2.6 11 7.6 6.5 2.6 6.5 2.6 15 2 8.4.6.6.6.6.6-1.5 5.2zm153.2-12.5-.8.9-.8.9-7.6-4.6-6.2-5.9-6.2-5.9 24.4-12.4.8 4-1.7 11.5-1.9 11.5zm33.4 14.5-7.9-3.6-7.8-3.6-7.3-1.4-7.3-1.4h-.5l1.6-11.6 2.4-16.4h.6l5.4 10.5 5.5 7.6 5.5 7.6 9.8 11v1.3zm35.9 405h-1v-1h1v1zm89-171h-1v-1h1v1zm3 2h-1v-1h1v1zm0-2h-1v-1h1v1zm39-11h-1v-1h1v1zm511-127h-1v-1h1v1zm54.1-29.3-2.3 1.9-2.2 1.9-4.6 2.6.4-12h1.9l3.4 2.1 3.4 2.1v1.4zm58.1-39-.3 13.7-1 1.9-1 1.9-5-1-1.6 3.9-1.5 3.9h-3.6l-1.2 3.6-5 2.4-1.2-2-5.1-1.9-2.3 2.1-2.3 2.1-.9-.6-.9-.6-1.2-8h-2v2.2l-2.8-.6-2.8-.6-5.4 11-1.2-.4-1.2-.4-2 3.6-5.2-2.6-5.2-2.6v-1.4l8.4-2.6 6.5-3.9 6.5-3.9 10.2-6.4 11.8-8.9 7.2-6.9 7.2-6.9 2.2-1.9 2.2-1.9h.2l-.5 13.7zm38.7-7.7-.8 5.6-2.4 9-2.2 1.4h1.6l-1.6 2.5-.4 2.6-2.4 3-2.6-1-2.2 2.6 1.3 1.3h-2l-5.2-13.6-.3-1.9-.3-1.9-1.2-.4-1.2-.4-.7 2.6-.7 2.6-5.2 5.6-3.6 5.4-.9-.9-.4-12.4-.4-12.4-.4-2 .4-3 2.9 3.8 3.8 1.4 3.8 1.4 14-.1 5.3-1.4 5.3-1.4-1.3 2z"
     id="path209" /></g>
</svg>
