<?xml version="1.0" encoding="UTF-8" standalone="no"?>
<svg
   version="1.1"
   id="svg6"
   x="0px"
   y="0px"
   viewBox="0 0 3500 1038"
   style="enable-background:new 0 0 3500 1038;"
   xml:space="preserve"
   sodipodi:docname="layer2.svg"
   inkscape:version="1.2.2 (732a01da63, 2022-12-09)"
   xmlns:inkscape="http://www.inkscape.org/namespaces/inkscape"
   xmlns:sodipodi="http://sodipodi.sourceforge.net/DTD/sodipodi-0.dtd"
   xmlns="http://www.w3.org/2000/svg"
   xmlns:svg="http://www.w3.org/2000/svg"><defs
   id="defs152" />
<style
   type="text/css"
   id="style142">
	.st0{fill:#DC6C1C;}
	.st1{fill:#D46B1B;}
</style>
<sodipodi:namedview
   bordercolor="#eeeeee"
   borderopacity="1"
   id="namedview8"
   inkscape:current-layer="svg6"
   inkscape:cx="1470.8678"
   inkscape:cy="720.24795"
   inkscape:deskcolor="#505050"
   inkscape:pagecheckerboard="0"
   inkscape:pageopacity="0"
   inkscape:showpageshadow="0"
   inkscape:window-height="1017"
   inkscape:window-maximized="1"
   inkscape:window-width="1920"
   inkscape:window-x="-8"
   inkscape:window-y="-8"
   inkscape:zoom="0.34571428"
   pagecolor="#505050"
   showgrid="false">
	</sodipodi:namedview>
<g
   id="g183"
   inkscape:label="Layer 2 view">
	<path
   id="path2"
   class="st0"
   d="M1485.6,529.3c-1.6,2.8-2.9,2.1-5.1-2.9l-2.1-4.6l-0.6,1c-0.4,0.6-1.6,1.3-2.8,1.7l-2.1,0.7   l-1.6-1.6l-1.6-1.6l-0.1-2.7c-0.1-1.5-0.1-3,0-3.5l0.1-0.8l-4.1,1.3v-0.7c0-0.4,0.8-2.5,1.7-4.6l1.7-3.9l1.3,0.5l1.3,0.5l-0.6-1   c-1.1-1.8-2.7-1-3.8,1.9l-1.1,2.9l-1.8,0.5l-1.8,0.5V512c0-1.9-2.1-0.8-3,1.5c-0.5,1.3-1.8,2.9-3,3.5l-2,1.1v5.9l2.1,1.1l2.1,1.1   l-1.1,1.1c-0.7,0.7-2.2,1.2-3.4,1.2c0,0.2,0.1,0.4,0.1,0.6l0.4-0.6l-0.5,1.5c-0.1,0.4-0.2,0.8-0.4,1.2l-0.2,0.7h1   c0.5,0,1,0.8,1,1.8v1.8h2.5c1.4,0,2.5-0.3,2.5-0.6c0-0.4,1.6-0.9,3.6-1.3c2-0.4,4.3-0.9,5.2-1.3l1.6-0.6l-1.7,2.8l2.9-2.3l5.5,0.2   l5.5,0.2l1.8-1.4c1-0.8,1.7-1.9,1.7-2.5v-1.1L1485.6,529.3z M1837.4,606.1l-0.4-1.5h-1.9c-1.1,0-2.4-0.4-3.1-0.8   c-0.6-0.4-1.8-0.6-2.5-0.4c-0.7,0.2-1,0.2-0.6-0.1c1-0.6,1-3.3-0.1-3.3c-0.4,0-1.7-0.8-2.8-1.8c-1.1-1-3.6-2.8-5.7-4.1l-3.8-2.3   v2.2l-2.3-1.5l-2.3-1.5l-0.7,0.7c-0.4,0.4-1.4,0.8-2.2,0.9l-1.5,0.2v-2l3.1,1.2l1.2-3.1l-1.3-1.2l-1.3-1.2l0.8,1.5l0.8,1.5   l-2.2-2.3l-2.2-2.3l-1.5,1.2l-1.5,1.2l0.3-1.1c0.4-1.5-4.1-5.2-7.1-5.9c-1.4-0.3-4.1-1.6-6.1-2.7c-2-1.1-4.4-2.7-5.5-3.4   s-3.1-1.7-4.5-2.4l-2.5-1.1l-7.7-0.2l-7.7-0.2l-5.8-1.8c-3.2-1-7-2.6-8.3-3.5s-3.6-2-4.9-2.4l-2.4-0.7l0.7,1.1   c0.4,0.6,1.3,1.1,2.2,1.1c0.9,0,2.7,0.8,4.1,1.7c2.9,1.9,8.9,4.3,11.1,4.5l1.4,0.1l-1.9,1.3c-6.5,4.5-5.5,5,3.6,1.9   c4-1.4,7.7-2.5,8.2-2.5h0.9l-2.1,4h4.6l-3,1.9h3.6v2.2l4.8-1.2l-0.2,1.4c-0.1,0.8-0.7,2-1.4,2.8l-1.1,1.4l0.7,1.1l0.7,1.1l4.2-0.1   c2.3-0.1,4.2-0.4,4.2-0.8v-0.7l2.2,0.6l2.2,0.6l-2.4,0.9c-1.3,0.5-3,1-3.6,1.1c-0.7,0.1-1.6,0.6-2,1l-0.8,0.8l2.8-0.7l2.8-0.7v0.9   c0,0.5-1.4,2.1-3.1,3.5s-2.7,2.6-2.2,2.6s1.4-0.5,2.1-1.2l1.2-1.2v2.5l1-0.6l1-0.6l-0.7-1.2l-0.7-1.2l1.6,1.3l1.6,1.3l4-0.6   c2.2-0.3,5.4-0.8,7-1c1.7-0.2,3.4-0.6,4-1l1-0.6l0.6,1l0.6,1l-0.8,0.1c-0.4,0-1.5,0.2-2.3,0.4s-3.2,0.6-5.4,0.9   c-2.1,0.3-4.3,0.9-4.7,1.2c-1,0.6-4.7,1.5-6.6,1.7c-0.7,0-1.2,0.5-1.2,1v0.9l-1.2-0.7l-1.2-0.7l0.8,1.3l0.8,1.2l5.6-0.8l-0.2,1.1   l-0.2,1.1l5.2,0.2l5.2,0.2v-2.6l2-0.5l2-0.5l-0.6,0.9c-0.7,1.2,0.2,1.1,2.6-0.1l1.9-1v1c0,0.6-0.5,1-1.1,1h-1.1l1.4,2.2l2.3-0.4   l2.3-0.4l-0.2,1c-0.1,0.5,0.4,1.2,1.1,1.4l1.2,0.5l-1.3-3.5l2,1.9l2,1.9l-0.5,0.9l-0.5,0.9l1.6-0.6l1.6-0.6l1.2,2l2.7-2.3l2.8,1.4   l2.8,1.4l3.2-1.5l3.2-1.5l1,1.5l1,1.5L1837.4,606.1z" />
	<path
   class="st1"
   d="M2710,698.9c-2.4-0.1-4.8-0.3-7.2-0.7c-5.2-1-6.4-1.1-3.6-0.4c-0.6,0-1.3-0.1-1.9-0.1c-3.7,0-7.6-0.6-11.4-0.9   c-8.3-0.7-16.5-1.5-24.8-2.5c-16.2-1.8-32.4-3.9-48.6-5.9c-29.2-3.7-58.5-6.3-87.9-6.9c-0.9,0-1.8,0-2.7-0.1l-1.6,1.4l-1-1.6   c-0.4,0-0.8-0.1-1.2-0.1l-0.1,0c-0.3,0.2-1.1,0.1-2.1-0.2c-11.9-1-23.7-3.4-35.3-6.2c-6.9-1.7-13.8-3.5-20.8-4.9   c-1.2-0.2-2.3-0.5-3.5-0.7c-0.2,0-3.1-0.5-3.4-0.6c-3-0.4-5.9-0.8-8.9-1.1c-29.1-3.4-57.9-3.2-87-0.6c-0.6,0.1-1.1,0.1-1.4,0.1   c-1,0.1-2,0.2-3,0.3c-1.3,0.2-2.5,0.3-3.8,0.5c-4,0.5-8,1.2-12,1.5c-3.5,0.3-7.1,0.5-10.6,0.7c-1.1,0.1-2.3,0.2-3.4,0.3   c-1.4,0.2-2.8,0.4-4.2,0.7l-2.3,2.4c-1.2,1.2-2.3,2.1-3.1,2.5c-0.4,0.3-0.8,0.5-1.2,0.8l0.8,1.3l-2.6,3.4c-3.5,4.6-5.8,5.7-12.5,6   c-3.1,0.2-7.1,0.8-9.1,1.4c-3.4,1.1-9,1.9-17.9,2.3l-4.4,0.2l-0.4-1c-0.8,0.3-1.7,0.6-2.5,0.9c-0.5,0.2-1,0.3-1.4,0.4l0,0l0,0   c-13.2,4-28.4,2.5-41.9,1.2c-7.7-0.7-15.3-1.5-23-1.7c-5-0.1-10-0.3-15-0.8l-2.8,0.1l-0.3-0.5c-2.5-0.4-5-0.8-7.5-1.5   c-4.1-1.1-8.1-2.7-11.9-4.7h-0.3l0.1-0.1c-0.6-0.3-1.2-0.7-1.8-1l-0.1,0l-0.4-0.3c-2.5-1.5-4.9-3.3-7.1-5.3   c-0.3-0.1-0.5-0.2-0.6-0.2c-0.3,0-0.8-0.6-1.3-1.5c-0.9-0.9-1.8-1.9-2.7-2.9c-0.2-0.1-0.5-0.3-0.7-0.4c-1.1-0.1-1.9-0.6-2.6-1.9   c-1.2-0.9-2.3-2-3.3-3.1l-1.6,1.3l0.8-2.2c-0.3-0.4-0.6-0.7-0.9-1.1c-0.1-0.1-0.2-0.1-0.2-0.3c-0.8-1.1-1.7-2.2-2.5-3.4   c-0.6-0.9-1.1-1.8-1.5-2.8c-0.4-0.3-0.9-0.7-1.5-1.1l-3.4-2.3l0-0.1c-0.2-0.1-0.3-0.2-0.5-0.3c-0.2-0.1-0.4-0.1-0.8-0.3   c-0.6-0.2-1.2-0.5-1.9-0.7c-3.3-1.1-6.6-1.9-10-2.6c-0.1,0-0.1,0-0.2,0c-0.5-0.1-1-0.1-1.6-0.2l-3,0l-0.3-0.4   c-1-0.1-1.9-0.2-2.9-0.3c-1.3,0.6-3.2,0.5-3.7-0.4c-3.4-0.4-6.8-0.7-10.3-1c-8.4-0.8-16.8-1.5-25.1-2.3c-2.9-0.3-5.7-0.6-8.6-0.9   v0.3l-0.5-0.4c-6.3-0.7-12.7-1.5-19-2.4l-1.6,0.6v-0.8c-1.2-0.2-2.4-0.4-3.7-0.6c-0.8,0.1-1.5,0-1.7-0.3c0,0,0,0,0,0   c-3.8-0.6-7.6-1.3-11.4-2.1l-0.1,0l0-0.1c-1.6-0.3-3.2-0.7-4.8-1l-0.4,0.1l-0.1-0.2c-0.7-0.2-1.4-0.3-2-0.5   c-0.3-0.1-0.6-0.1-0.9-0.2l-0.1,0.2l-0.1-0.2c-14-3.2-28.5-4.6-42.4-8.2l-0.1,0l0,0c-1.1-0.3-2.1-0.6-3.1-0.9l-0.1,0.2l-0.2-0.3   c-0.8-0.2-1.6-0.5-2.4-0.7c-2.2-0.7-4.5-1.5-6.7-2.2c-1.5-0.2-3-0.5-3.8-0.7c-1.4-0.3-4.2-0.7-6.4-1c-2.1-0.3-4.4-1-5.1-1.5   c-0.7-0.6-1.7-1-2.1-0.9c-0.5,0.1-2.2-0.4-3.9-1.1s-3.8-1.2-4.8-1.1c-0.8,0.1-1.9-0.2-2.7-0.7c-3.4-0.7-6.8-1.5-10.1-2.8   c-0.5-0.2-1-0.4-1.5-0.6l-0.3,0.2l-0.3-0.5c-0.7-0.3-1.3-0.7-1.9-1.1l-2.4,0.8l1.4-1.5c-1.8-1.2-3.3-2.6-4.6-4.2l-15.4,0.4   l-1.4,1.1c-0.8,0.6-2,1-2.7,0.9s-2.7,0.3-4.3,1s-5.2,1.4-8,1.7s-6.1,0.7-7.5,0.9c-4.3,0.8-12.4,1.6-15.5,1.5c-3-0.1-8-0.7-8-1   c0-0.1-1-0.3-2.3-0.4l-2.3-0.3l-2.9-3.3c-1.6-1.8-2.9-3.6-2.9-3.9v-1.8l-0.1-1.2l-2.9,0.2c-1.6,0.1-2.7,0.5-2.5,0.9   c0.8,1.4-2.1,1.4-4.8,0.1l-2.8-1.4l-2.7,2.3l-1.2-2l-3.2,1.2l1-1.8l-4-3.8l1.3,3.5l-1.2-0.5c-0.7-0.3-1.2-0.9-1.1-1.4l0.2-1   l-4.6,0.8l-1.4-2.2h1.1c0.6,0,1.1-0.5,1.1-1v-1l-1.9,1c-2.4,1.3-3.4,1.3-2.6,0.1l0.6-0.9l-4,1v2.6l-10.4-0.4l0.4-2.2l-5.6,0.8   l-0.8-1.2l-0.8-1.3l2.4,1.4V598c0-0.5,0.6-0.9,1.2-1c1.9-0.1,5.7-1.1,6.6-1.7c0.5-0.3,2.6-0.8,4.7-1.2c2.1-0.3,4.5-0.8,5.4-0.9   c0.8-0.2,1.9-0.3,2.3-0.4l0.8-0.1l-1.2-2l-1,0.6c-0.5,0.3-2.3,0.8-4,1s-4.8,0.7-7,1l-4,0.6l-3.2-2.6l1.4,2.4l-2,1.2v-2.5l-1.2,1.2   c-0.7,0.7-1.6,1.2-2.1,1.2s0.5-1.2,2.2-2.6c1.7-1.4,3.1-3,3.1-3.5V588l-5.6,1.4l0.8-0.8c0.4-0.5,1.3-0.9,2-1s2.3-0.6,3.6-1.1   l2.4-0.9l-4.4-1.2v0.7c0,0.4-1.9,0.8-4.2,0.8l-4.2,0.1l-1.4-2.2l1.1-1.4c0.6-0.8,1.2-2,1.4-2.8l0.2-1.4l-4.8,1.2V577h-3.6l3-1.9   h-4.6l2.1-4h-0.9c-0.5,0-4.2,1.1-8.2,2.5c-9.1,3.1-10.1,2.6-3.6-1.9l1.9-1.3l-1.4-0.1c-2.2-0.1-8.2-2.6-11.1-4.5   c-1.5-1-3.3-1.7-4.1-1.7s-1.8-0.5-2.1-1s-1.5-1-2.5-1h-1.9l-1.2-4.7l-2.2-1.1c-1.2-0.6-3.7-1.4-5.7-1.7c-7.2-1.4-18.2-8.1-27-16.5   l-4.7-4.5l-8.2,0.3l-2.5-2c-1.4-1.1-2.5-2.6-2.5-3.3v-1.3l-5.2-0.7c-5.5-0.7-8.4-1.9-10.8-4.5l-1.5-1.6l-4-0.2   c-2.2-0.1-5.4-0.5-7.2-0.8l-3.2-0.7l-6.3,2.2c-3.5,1.2-7,2.4-7.8,2.8s-1.9,0.5-2.4,0.4s-1.5,0.3-2.3,1l-1.4,1.2l-1-1   c-0.6-0.6-1.2-1.6-1.3-2.4c-0.2-0.8-0.6-2.2-1.1-3.2l-0.8-1.8l-0.8,1.3c-0.5,0.7-0.9,2.6-0.9,4.1v2.8h-8.5l-7-3.6   c-3.8-2-7.7-4.3-8.7-5.1l-1.7-1.5l-5.3,0.7c-2.9,0.4-7.5,0.8-10.1,1s-5.4,0.8-6.1,1.4c-0.7,0.6-1.5,0.8-1.8,0.6s-2.5,0.2-4.9,1   s-4.9,1.3-5.7,1l-0.3-0.1c-0.3,0.1-0.6,0.2-0.9,0.2v0.2c0,0.4-0.6,0.8-1.2,0.9c-0.4,0-1.6,0.1-3,0.3c-0.9,0.9-2.1,1.4-3.5,1.5   c-1.3,0-2.3-0.2-3.2-0.7l-1,0.1l-0.5-0.8c-0.1-0.1-0.1-0.3-0.1-0.4c0,0-0.1,0-0.1-0.1c-2-1.7-1.8-4.2-0.5-6.2   c0.1-1,0.5-1.9,1.2-2.5l0.4-0.7c0.4-0.6,1.4-1.2,2.3-1.2c3.5,0,0.4-0.9-5.2-1.5c-3.3-0.4-6.8-0.9-7.7-1.1l-1.7-0.5l0.6-9l-1,0.3   c-0.6,0.2-1.5,1.9-2,3.8c-0.5,1.9-1.6,4-2.3,4.7c-0.7,0.7-1.3,1.9-1.3,2.5v1.2l-1.3-1.8c-0.7-1-1.8-1.8-2.4-1.8s-1.6-0.9-2.2-2   c-1.4-2.6-3-2.6-3.7,0l-0.5,2l-1.1-0.4l-1.1-0.4v-2.1c0-1.2-0.4-2.4-0.8-2.8c-0.4-0.4-0.7-1.5-0.7-2.6c0-3.8-2.6-2-3.3,2.3   c-0.5,2.5-4.6,10.1-4.6,8.5v-0.9l-1.4,1.1l-1.4,1.1l-1-1.3c-0.5-0.7-1-2.3-1.1-3.6c-0.3-5.2-1.8-4.2-2.6,1.7   c-0.7,5.3-1.2,6.2-3.6,6.2h-1.8l-1.2,3h-3.8l-3.4,3.8l-2.8-1v-2.9c0-3.7-1.3-3.7-2.7,0.1c-2.2,5.7-5.2,2.1-5.4-6.3l-0.1-4.2   l-1.6,4.5c-1.9,5.6-1.9,5.6-3.8,4l-1.5-1.3l1.2,3.2h-1c-1.2,0-2.6-4.4-2.7-8.4l-0.1-2.9l-2-0.6l-1.7,3.9c-0.9,2.1-1.7,4.2-1.7,4.6   v0.7l4.1-1.3l-0.1,0.8c-0.1,0.5-0.1,2,0,3.5l0.1,2.7l3.2,3.2l2.1-0.7c1.2-0.4,2.4-1.1,2.8-1.7l0.6-1l2.1,4.6c2.2,5,3.5,5.7,5.1,2.9   l1-1.8v1.1c0,0.6-0.8,1.7-1.7,2.5l-1.8,1.4l-11-0.4l-2.9,2.3l1.7-2.8l-1.6,0.6c-0.9,0.3-3.2,0.9-5.2,1.3s-3.6,1-3.6,1.3   c0,0.4-1.1,0.6-2.5,0.6h-2.5V532h-2.1l0.6-1c0.2-0.3,0.2-0.7,0.2-1.1c-0.2,1.7-1.4,3.1-2.9,3.8l1.1-0.2l2-0.4v2.1l-1.2-0.4   c-0.7-0.2-2-0.1-3,0.4l-1.7,0.9l-1.1-1.9c-1-0.3-1.9-1-2.6-2.2c-2.7-4.9-7-10.2-11.3-15.8l-0.1,0.4v-0.5c-2.9-3.8-5.7-7.7-7.9-11.8   c-0.7-0.4-1.1-0.9-1.1-1.4V502c-1.3-2.6-2.3-5.2-3-7.8c-0.4-0.1-0.7-0.1-1.1-0.2c-3.6-1-7.3-1.8-10.8-2.7l-0.1,0.1v-0.2   c-0.5-0.1-1.1-0.3-1.6-0.4l-0.4,0.6l-0.1-0.7c-0.4-0.1-0.8-0.2-1.2-0.3c-0.8,1.7-4.4,3.1-5.2,1.7c-0.7-0.2-1.2-0.5-1.7-0.9l0.1,1.3   l-0.9-1.4l-0.9-1.4l0.2-0.7c-0.1-0.3-0.2-0.6-0.2-0.9c-0.3-0.2-0.5-0.3-0.7-0.5c-1.8-0.6-3.6-1.4-5.4-2.2l0,0.1l0-0.1   c-1.7-0.7-3.3-1.6-5-2.5c-2-1.1-4-2.4-6-3.6c-1.1-0.6-2.2-1.2-3.3-1.8c-0.4-0.1-0.7-0.2-0.8-0.3c-1.1,0-2.2-0.2-3.4-0.3   c-2.6-0.2-5.3-0.2-7.9-0.3c-5.5-0.1-11-0.3-16.5-0.2c-0.1,0-0.1,0-0.2,0c-0.1,0-0.1,0-0.2,0c-1.5,0.3-3,0.4-4.4,0.7   c-2.6,0.5-5.2,1-7.7,1.6c-4.1,0.9-8,2.6-12.2,3.3c-3.5,0.6-6.7,0.8-9.8,0.5l0.2,0.4l-2.3-0.5c-0.6-0.1-1.7-0.3-2.9-0.4   c-3.4,0.6-6.9,1.1-10.4,1.4c-6.5,0.7-12.1-3.2-15.4-8.7l-1.4-1.5l0.3-0.5c-1.9-3.9-2.6-8.4-1.8-12.4c-0.3-3.2-0.7-6.9-0.8-9   l-0.5-4.2h1.5c0-0.5,0-0.9,0-1.4l-1.1-3l0.4-4.5c0.1-0.7,0.1-1.3,0.2-1.9c-0.5-3.2-0.9-6.4-1.2-9.7c0-0.6-0.4-2.6-0.5-4.2   c-0.6-0.7-1.1-1.2-1.5-1.2c-1.4,0-8-5.1-13.9-10.7c-2.5-2.4-4.8-4.3-5.2-4.3c-0.4,0-2.6-1.8-4.9-4s-4.4-4-4.8-4   c-0.3,0-1.9-1.8-3.5-4l-2.9-3.9l-1.6,1l-0.6-2.4l-0.4-1.6c-1.4-0.9-2.9-1.7-4.4-2.6c-1.7-0.9-3.5-1.8-5.3-2.7   c-0.4-0.2-2-0.9-2.9-1.4c-0.8-0.3-2.8-1.2-2.7-1.1c-0.8-0.3-1.6-0.6-2.4-1c-0.8-0.3-1.6-0.6-2.4-1c-0.1,0-7.4-2.6-3.3-1.4   c3.1,0.9-1.7-0.6-2.5-1c-1-0.4-2.1-0.9-3.1-1.3l-0.1,0l0-0.1c-0.8-0.3-1.6-0.7-2.4-1.1l-0.5,0.3l0.2-0.5c-0.4-0.2-0.7-0.3-1.1-0.5   c-3.2-1.4-6.4-3.3-9.2-5.6c-0.2,0-0.4-0.1-0.6-0.1c-1.5-0.2-2.9-0.8-3.1-1.3l-0.3-1l-0.9,0.6l-0.9,0.6v-0.9c0-1-3.9-2.5-5.5-2.1   c-0.6,0.1-1.9,0.2-3,0.1c-1.1-0.1-3.9,0.8-6.3,1.9l-4.3,2l-1-0.6l-0.9-0.6v2l-3.2,0.7c-1.8,0.4-6.8,2.2-11,4.1   c-4.3,1.9-8.4,3.4-9.1,3.4s-2.4,0.8-3.7,1.8s-3.4,2.1-4.7,2.4l-2.4,0.6l0-0.1c-3.4,2.6-7.4,4.1-11.5,3.5c-1.4-0.2-2.8-0.3-4.2-0.3   c1.1,0-1.9,0.4-2.7,0.6c0,0,0,0,0,0l-0.1,0.1c-1,1.4-2.3,2.5-2.9,2.5c-0.5,0-1.5,0.4-2.2,0.9l-1.2,1l-0.6-0.4   c-0.4,0.3-0.9,0.5-1.4,0.7v0.8l-1-0.4c-0.8,0.3-1.7,0.5-2.6,0.6c-0.5,0.4-1.4,0.8-2.3,1.1l-2.9,1.1l-13.4-6.5   c-7.4-3.6-13.6-6.8-13.9-7.2c-0.7-0.9-4.3-2.4-5.2-2.2c-0.4,0.1-0.8-0.4-0.8-1c0-0.6-0.3-0.9-0.6-0.5c-0.3,0.3-1.7-0.2-2.9-1.2   l-2.3-1.8l-4.3,0.4c-2.9,0.2-5.9,0.5-8.8,0.7c-6.1,0.4-8,1.3-11.5,5.2l-3,3.4l-12,0.6l-12,0.6l-5.7-1.7c-5.5-1.6-10.1-4.1-15.9-8.6   c-1.5-1.1-3-2.1-3.3-2.1c-1,0-9.8-6.2-11.5-8c-0.8-0.9-2.5-2-3.8-2.4c-1.2-0.4-2.2-1.1-2.2-1.5c0-0.4-1.3-1.4-3-2.1s-3-1.6-3-2.1   s-0.7-0.9-1.5-0.9s-1.5-0.4-1.5-0.8c0-0.4-1.6-1.4-3.5-2.1l-3.5-1.3l-5.2,1.8c-2.9,1-5.5,1.7-5.9,1.6c-0.4-0.1-2.9,0.8-5.5,1.9   c-2.6,1.2-6.2,2.3-7.9,2.5l-3.1,0.5l-7-3l-0.5-2.9l-0.5-2.9l2.1-2.5l-1.3-1.6c-0.7-0.9-1.6-3.7-2-6.2l-0.7-4.6l-0.1,2.2   c-0.1,1.2-1.1,4.1-2.3,6.3c-1.2,2.3-2.2,5.3-2.2,6.8l-0.1,2.7l-4,0.1c-2.2,0.1-7.6,0.4-12,0.8l-8,0.7l-2.3,1.5   c-1.3,0.8-3.5,3.4-5,5.7c-1.5,2.3-4.4,5.9-6.5,8c-2.1,2.1-4.4,5.2-5.3,6.8l-1.5,3l-2.7,0.6c-7.7,1.7-10.6,2.7-15.3,5.1   c-2.8,1.4-5.6,2.6-6.3,2.7c-0.6,0.1-1.6,0.4-2.1,0.8c-1.4,0.8-9,3.2-9,2.9c0-0.6-8.4,4-9.8,5.5l-1.5,1.5l-2.1-0.8   c-3.1,1.9-6.6,2.9-10.2,2.9c-1.5,0-3-0.2-4.4-0.6l-0.8-0.1c-1.3-0.1-3.1-1-4-1.9l-0.1-0.1c-0.7-0.4-1.4-0.9-2-1.5l-2.7,0.3   c-1.8,0.2-3.9,0.6-4.7,0.9s-4.4,1.1-7.9,1.7l-6.4,1.2L772,398c-0.4-0.6-1.6-1.1-2.6-1c-2.4,0.1-9.8,0.8-14.7,1.4l-3.8,0.4v-1.7   l-3.7,0.4l-3.7,0.4l-1,1.8c-0.9,1.7-14.3,15.1-18,18.1l-1.6,1.2l-6.3-0.5c-9.5-0.8-12.8-1.2-18.3-2.5c-2.8-0.6-6.3-1.2-8-1.3   s-3.2-0.4-3.5-0.7c-0.6-0.6-9.9-2.9-15-3.6c-1.9-0.3-4.8-1.1-6.5-1.7l-3-1.2l-8.8,0.6l-6.3-6.5c-3.5-3.6-6.8-6.5-7.4-6.5   s-1.1-0.4-1.1-0.9c0-0.8-2.4-2-5-2.6c-1.5-0.4-9.7-2.8-11-3.3c-0.8-0.3-5.1-0.6-9.6-0.6l-8.1-0.1l-1.4-1.1   c-0.8-0.6-2.1-1.1-2.9-1.2c-0.8,0-4.5-0.5-8.2-1.1c-3.7-0.6-7.5-0.9-8.5-0.7c-1,0.2-2.2,0-2.8-0.3c-0.5-0.3-2.3-0.6-4-0.7   c-1.7,0-5.5-0.7-8.5-1.5l-5.5-1.4l-21.5,0.2c-11.8,0.1-23.2,0.2-25.2,0.2h-3.8l-0.2,1.2c-0.1,0.8-0.2,1.6-0.3,2.3   c-0.1,0.6-1.5,3.3-3.2,6s-3.1,5.2-3.3,5.6c-0.7,2-13.1,15.3-13.2,14c0-0.4-0.5,0-1.1,1l-1,1.8l-0.9-0.6l-0.9-0.6v1.1   c0,0.6-0.6,1.1-1.4,1.1s-3,0.9-4.9,2l-3.4,2l-4.3,6.2c-2.4,3.4-5.6,7.5-7.2,9.1c-1.6,1.6-2.6,3.1-2.3,3.4s-0.3,1.2-1.2,2.1   c-1,0.9-2.6,2.9-3.5,4.4c-1,1.5-2.1,2.6-2.6,2.3c-0.4-0.3-2.2,0.8-3.9,2.4l-3.1,2.9l-0.6,2.4c-0.9,3.5-7.4,11.2-10.4,12.6   c0.2,0.4,0.3,0.8,0.3,1.2c0,1.1,0,2.3-0.1,3.4c-0.1,0.7-0.1,1.7-0.4,2.4c-0.2,1.3-1.3,4-2.5,5.3c-0.8,0.9-1.5,2.6-1.6,3.7l-0.2,2.1   l-2.8,1.2c-1.5,0.6-3.1,1.7-3.5,2.4c-0.8,1.3-9.3,5.5-11.2,5.5c-2.2,0-0.9-2.1,3.7-5.5c6.9-5.2,11.7-9.5,10.6-9.5   c-1.1,0-7.6,3-8.3,3.9c-0.3,0.3-1.7,1.1-3.2,1.8s-2.8,1.7-2.8,2.2c0,0.6-0.7,1-1.5,1h-1.5l-2.6,4.4c-2.2,3.8-4.9,6.7-7.5,8.3   c0,0-0.1,0.1-0.1,0.1c-1.6,1.1-3.3,1.9-5,2.8l0.2,0.3l-1.4,0.3c-0.5,0.2-1,0.3-1.5,0.3l-3.4,0.7c-3.4,0.7-7.8,1.4-9.7,1.6   c-1.9,0.2-5.9,0.6-8.9,0.9l-5.4,0.6l-3.3-1.1c-1.8-0.6-4.6-1.3-6.1-1.6c-4.5-0.8-6.3-1.5-6.3-2.5c0-0.5-0.7-0.9-1.5-0.9   s-1.5-0.4-1.5-0.8c0-0.9-9.1-5.7-13-6.8c-3.2-1-5-0.6-7.4,1.5c-1,0.9-2,1.5-2.2,1.4c-0.2-0.1-0.5-0.2-0.6-0.1   c-0.1,0.1-1.6,0.2-3.2,0.3l-3,0.2l-4-2.7c-2.2-1.5-5.8-4.3-8-6.3c-6.1-5.4-6.4-5.7-7.2-5.7c-0.4,0-2.5-1.5-4.7-3.3l-3.9-3.3   l-0.1-3.4c-0.1-3.8-1.3-6.2-2.5-5.5c-1,0.6-9.3-7.3-14.2-13.5l-3.6-4.5l-0.1-3.2l-0.1-3.2h1.7l-0.1-5l-0.1-5l2.8-2.3   c1.6-1.2,3.3-2.6,3.8-2.9l1-0.7l0.4-10.6l-1.9-2.5h0.8c0.4,0-0.2-1.1-1.5-2.5l-2.3-2.5l-9.1,0.5c-5,0.3-12.5,0.7-16.6,0.9   c-4.1,0.2-7.5,0.5-7.5,0.5c0,0.1-2.7,0.3-6,0.5c-3.3,0.2-9.2,0.8-13,1.3c-3.9,0.5-8.4,0.8-10,0.6c-5.4-0.6-11.9-0.6-17.5,0.1   l-2.2,0.3c-3,1.7-6.5,2.7-10,3c-0.6,0.1-1,0.1-1.3,0.1c-0.2,0-0.6,0.1-1.1,0.2c-0.7,0.1-1.5,0.2-2.2,0.3l-0.4,0.8l-1.8,0.6   c-1,0.3-2.2,0.3-2.7,0c-0.1-0.1-0.4-0.1-0.6-0.1c-2.8,1.5-5.9,2.3-9.1,2.4c-0.3,0.2-0.6,0.3-0.8,0.4c-4.2,1.9-8.3,3.5-12.6,4.4   L153,424h-0.9c-3,0.5-6.1,0.6-9.3,0.1c-0.7-0.1-1.3-0.2-2-0.4c-9.2,1.6-18.5,2.5-27.9,3l-0.5,0.5v-0.5c-0.4,0-0.8,0-1.2,0.1   c-13.2,0.5-26.4,0.9-39.6,0.8c-6.5,0-13.1,0.3-19.6-0.5c-1.8-0.2-3.5-0.5-5.3-0.7c-5.9,1.4-12,1.1-17.8-0.7c-0.2,0-0.3-0.1-0.5-0.2   l-0.2,0.2l-4.9,0.2c-5.6,0.2-6.5,0-11.6-2.5L8,421.8l-1.9-3.1l-1.9-3.1l0.3-2.8c0.2-1.5,1-3.9,1.9-5.2l1.6-2.4l-8-6.4V1038h2712.7   l0.7-111.2c0.4-61.1,0.7-137.8,0.7-170.3v-57.9C2712.8,698.8,2711.4,699,2710,698.9z"
   id="path146" />
	<path
   class="st1"
   d="M3483.9,771.5L3483.9,771.5c-1.1-9.1-1.7-13.1-2.5-17.8c-0.7-3.7-1.3-7.5-1.8-11.2c-0.2-1.1-1-3.7-2-5.9   s-1.7-4.5-1.7-5.3s-0.5-2.3-1-3.3c-0.6-1-1.1-3-1.2-4.4s-0.5-2.6-0.9-2.6s-1.3-2.2-2-5s-1.5-5-1.9-5c-0.7,0-3.6-9.1-3.2-10.3   c0.1-0.4-0.5-1-1.3-1.4c-0.8-0.3-1.5-1.1-1.5-1.8s-1-3.2-2.1-5.6s-2.2-4.9-2.3-5.5s-0.9-2.3-1.8-3.7c-0.9-1.4-2-3.7-2.3-5.2   c-0.4-1.4-1-2.6-1.3-2.6c-0.4,0-2.2-3-4.1-6.8c-1.9-3.7-3.7-7-4-7.2c-1.4-1.3-7-8.9-7-9.5c0-0.4-1.1-1.8-2.5-3.1s-2.5-2.7-2.5-3.2   s-6.8-7.6-15.1-15.8s-17-16.9-19.2-19.3s-5.7-5.8-7.5-7.5s-3.9-3.7-4.5-4.4s-3.3-3.4-6-6c-3.3-3.2-6.7-6.4-10-9.6   c-2.8-2.7-6.9-6.2-9.2-7.7c-2.3-1.6-4.3-3.3-4.5-3.7c-0.5-1.2-17.4-11.3-22.8-13.7c-2.5-1.1-5.1-2.5-5.8-3.2s-1.9-1.3-2.6-1.3   c-0.7,0-2.2-0.9-3.4-2s-2.2-1.7-2.2-1.2c0,0.4-0.3,0.3-0.8-0.3c-0.4-0.6-4.3-3.2-8.7-5.9c-4.4-2.6-8.2-5.1-8.5-5.5   c-0.6-0.8-8.6-4.5-12-5.6c-1.4-0.4-2.9-1.1-3.5-1.5s-3.7-1.5-7-2.5s-6.4-2.2-7-2.6c-0.6-0.4-1.4-0.8-2-0.9c-0.6-0.1-2.8-0.6-5-1.3   c-4.5-1.3-5.9-1.6-9.5-2.2c-1.4-0.2-5.2-0.9-8.4-1.5l-5.9-1.1l-0.8-1.3c-0.4-0.7-0.8-1-0.8-0.6s-1.5,0.2-3.3-0.3s-5.3-1.1-7.8-1.3   c-6.3-0.5-9.6-1.5-15.8-4.7c-3-1.6-6.1-2.8-7-2.8c-1.4,0-3.5-0.6-10.2-2.8c-0.8-0.3-2.8-0.7-4.4-0.9c-1.6-0.2-3.4-0.7-4-1.2   c-0.6-0.4-2.4-0.9-4.1-1.1c-1.5-0.2-3.3-0.7-4.1-1.3c-2.6-0.4-5.1-0.7-7.7-1.1c-0.1,0-0.2,0-0.4,0c-4.5,2.7-10,3.6-15,2.1   c0.1,0-2.1-0.5-3-0.8c-0.3,0-0.6-0.1-0.9-0.1c-0.3,0-0.6,0-0.8,0h-2.9l0.1-0.5c-2.1-0.3-4.2-0.6-6.3-1c-0.3-0.1-0.6-0.1-0.8-0.2   l-2.8,1.5l-2.3-2.2c-0.6-0.6-1.2-1.2-1.8-1.7c-2.1-0.9-4-2.1-5.8-3.3l-0.2,0.2l-1.3,1.1l-6.4-2.4l-2,3l-0.8-1   c-0.4-0.6-2.2-3.2-4-5.8c-0.1-0.1-0.2-0.2-0.2-0.3c-5.5-1.4-11-2.8-16.5-3.8c-3.7-0.7-7.4-1.4-11.1-1.9c-0.2,0-0.5-0.1-0.8-0.1   c-1.2-0.2-2.5-0.4-3.7-0.5c-5.9-0.8-11.8-1.5-17.7-2.2c-11.8-1.3-23.7-2.5-35.4-4c-12.7-1.6-25.2-3.8-37.7-6.4   c-1.1-0.2-2.3-0.4-3.4-0.7c0,0-0.1,0-0.1,0c-0.1,0-0.3,0-0.4-0.1c-0.2,0.1-0.4,0.2-0.6,0.2l-2.1,0.6l-1.5-1.3   c-0.5-0.1-0.9-0.1-1.4-0.2c-4.1-0.4-8.1-0.7-12.2-1.1c-6.5-0.7-13.1-1.6-19.6-3.1l-1,0.2l-0.4-0.6c-6.5-1.6-12.8-3.9-18.5-7.2   l-0.5,0.7l-1.6-1.3c-0.5-0.4-0.9-1-1.2-1.5c-1.2-0.8-2.3-1.6-3.4-2.5c-1.5-0.3-2.9-1.1-4.5-2.7c-1.5-1.4-3.8-3.2-5.1-4.1l-2.4-1.5   l-5.8,0.6c-3.2,0.3-8.7,0.8-12.3,1.1c-6.5,0.4-9.7,0.9-12.8,1.9c-0.9,0.3-3.2,0.7-5.2,1c-1.9,0.3-5.8,0.9-8.5,1.4s-6.8,0.8-9,0.6   s-10.1-0.6-17.5-0.8l-13.5-0.5l-6.1-3.1c-3.3-1.7-7-4-8.1-5s-4.4-3.2-7.4-4.8l-5.4-2.9l-3.9,1.4c-2.2,0.8-4.6,1.5-5.5,1.7   s-2.2,0.6-3.1,0.9c-0.8,0.3-3.5,1.1-6,1.7c-2.5,0.6-5.3,1.3-6.2,1.5c-13.9,3.7-24.1,5.4-30.7,4.9l-5.4-0.4l-2.3,2.2   c-0.1,0.1-0.2,0.2-0.3,0.3c-2.2,5.6-5.2,11-8.2,16.2c-1,1.7-1.9,3.3-2.8,5c-0.4,1.4-0.8,2.6-1.2,2.8c-0.5,0.3-1.4,2.4-2,4.6   s-1.3,3.8-1.6,3.6c-0.2-0.2-0.2-0.4-0.2-0.8c-0.8,1.8-1.7,3.6-2.5,5.4c-0.2,0.5-1.5,3.4-1.7,3.8c-0.6,1.3-1.1,2.6-1.6,4   c-0.3,0.7-0.6,1.4-0.8,2.1v15.9c0,10.5,0.2,19.1,0.5,19.1s0.7,3.7,0.8,8.2s0.6,11.4,1.1,15.2c1,7.6,1.4,12.7,1.5,19.2   c0.1,2.3,0.4,4.2,0.7,4.2c0.4,0,0.5,2.6,0.4,5.8l-0.3,5.8l0.9,1.7c0.5,1,1.1,4.8,1.4,8.5s0.7,8,1.1,9.6c0.3,1.6,0.8,5.4,1.1,8.5   c0.5,6.5,0.9,10.3,1.9,18.2c0.7,5.4,1.3,10.9,2,18c0.2,1.9,0.6,5.8,1,8.5c1.3,10.5,1.4,12.2,2.1,18.5c0.4,3.6,0.7,7.4,0.8,8.5   s0.5,2.6,1,3.3c0.4,0.7,0.7,2.3,0.6,3.5c-0.1,1.2,0.1,4,0.6,6.1s0.9,6,1,8.5s0.7,6.5,1.4,8.9l1.2,4.3l-0.5,2.9l-0.5,3h2l-0.2,2.2   c-0.1,1.2-0.1,2.5,0,2.8c0.3,0.8,1.8,10.2,2.4,15.7c0.1,1.2,0.5,2.5,0.9,2.8c0.3,0.3,0.4,1.2,0.1,2l-0.5,1.4h2.1v2.8   c0,2.5,0.7,6.8,1.1,6.8c0.1,0,0.3,1.8,0.6,4s0.7,5.3,1,7s0.6,4.2,0.6,5.8v2.8h1.8l-1.3,4h2.3l-1.2,3h0.8c0.4,0,0.9,1.6,1,3.5   s0.7,4.7,1.4,6.2c1.2,3,1.6,4.5,2.2,8.2c0.2,1.4,0.9,4.5,1.6,7c0.7,2.5,1.4,5.8,1.6,7.4c0.2,1.6,0.9,3.5,1.5,4.3s0.8,1.4,0.4,1.4   s-0.2,0.6,0.4,1.4c0.6,0.8,1.1,1.8,1,2.2c-0.1,0.5,0.1,1.8,0.6,2.9c3.1,8.1,3.5,9.7,3,10.6l-0.6,0.9h2.3l-1.2,3l1,0.6   c0.5,0.3,1,1.4,1,2.3s0.9,3.6,1.9,5.8c1.1,2.2,2.1,4.7,2.2,5.4s0.6,1.6,1,1.9c0.4,0.3,0.9,1.8,1.2,3.4c0.3,1.6,1,3.2,1.5,3.5   s1.3,1.8,1.6,3.3s1,2.7,1.4,2.7s0.8,1.1,0.9,2.5c0.1,1.4,1.3,4.3,2.7,6.5s2.5,4.5,2.5,5.1s0.8,1.7,1.8,2.4s1.8,1.7,1.8,2.1   c0,0.5,0.7,2.2,1.4,3.8c0.7,1.7,1.4,3.6,1.6,4.4c0.1,0.7,1.2,2,2.3,2.8s2.1,2.1,2.1,2.8s0.7,1.6,1.5,1.9l1.5,0.6v3.8l2.9,3.4   c1.6,1.8,2.7,3.7,2.4,4.1c-0.3,0.4,0.1,0.8,0.7,0.8s1,0.3,0.7,0.6s0.5,1.7,1.8,3.1c1.3,1.4,2.4,3.2,2.4,4v1.4l1.6-1l2.4,3.9   c1.3,2.2,2.8,3.9,3.2,3.9s0.8,0.5,0.8,1c0,1.1,1.1,2.6,4.5,6.2l2,2.1l-1.5-0.8c-0.8-0.5-0.3,0.4,1.2,2s2.8,3.3,2.8,3.8   c0,0.6,0.7,1.7,1.5,2.6c6.1,6.4,10.4,11.5,10.1,11.8c-0.2,0.2,1.4,2.2,3.5,4.4l3.9,4l-1.1,1.8h0.9c1.1,0,7.2,6,7.2,7.1   c0,0.4,2,2.8,4.5,5.2s4.5,4.8,4.5,5.1s3,3.4,6.7,6.8s7.4,7.1,8.2,8.1c0.9,1,2.2,2.4,2.9,3s2.6,2.3,4.2,3.6s4.1,3.4,5.6,4.5   c1.5,1.1,3.3,2.6,4,3.2c0.7,0.7,1.6,1.2,1.9,1.2s2.1,1.1,3.9,2.5s3.8,2.5,4.4,2.5s1.2,0.3,1.4,0.8c0.2,0.4,1.8,1.5,3.5,2.5l3.2,1.8   h10.6l-3-1.9h1.2c0.7,0,1.5,0.4,1.8,1l0.6,1h300.8l0.6-1c0.3-0.6,1.1-1,1.6-1h1l-1.4,2.2l7.9-0.4c9.2-0.5,9.1-0.5,16.7-4   c3.2-1.5,6.5-2.7,7.2-2.7c0.8,0,1.4-0.4,1.4-0.8c0-0.5,0.6-0.9,1.2-0.9c2.8-0.2,5.5-1.2,10-3.7c2.6-1.5,4.8-2.3,4.8-1.8v0.8l0.7-1   c0.9-1.2,13.6-7.5,15.1-7.5c0.6,0,1.2-0.4,1.3-0.9c0.3-0.9,9.6-5.2,10.2-4.8c0.2,0.1,1.3-0.7,2.5-1.7s2.1-1.5,2.1-1.1   c0,0.5,0.6,0.1,1.3-0.9s1.9-1.9,2.8-2c2.6-0.5,5.4-1.9,7.3-3.7c1-0.9,3.9-2.7,6.5-4s5.6-3.1,6.7-4.1c1.1-1,2.7-1.9,3.5-2.1   s2.2-1,3-1.9s3.4-2.6,5.8-3.9c2.3-1.3,4.2-2.8,4.2-3.2V981l2,1.2v-1c0-0.5,2.4-2.4,5.2-4.3s5.5-3.6,5.8-3.9   c0.5-0.5,7.6-5.8,15.5-11.5c2.2-1.6,4.1-3.3,4.3-3.7s0.9-0.8,1.7-0.8s1.8-0.8,2.4-1.8c0.6-1,1-1.4,1.1-1c0,0.4,1.8-1,4.1-3.2   s5.4-5,7.1-6.2c1.7-1.3,5.7-4.9,9-8s7.5-6.7,9.4-8s3.5-2.7,3.5-3.1c0-1,4.9-5.8,5.9-5.8c0.4,0,1.4-1.1,2.1-2.5l1.3-2.5l0.9,0.5   l0.8,0.5v-1.4c0-0.8,1.9-3.1,4.3-5.3c4.2-3.9,4.7-4.6,4.7-6.3c0-0.5,1.1-1.4,2.6-2c1.4-0.6,2.3-1.5,2.1-1.9   c-0.6-0.9,1.9-4.5,2.8-4.1c0.4,0.2,1.4-1,2.3-2.6c0.9-1.6,3.1-4.5,4.9-6.4c1.8-1.9,3.2-4.1,3.2-4.9c0-0.7,1-2.4,2.2-3.6   c1.2-1.2,2.2-2.6,2.2-3s0.4-1.1,1-1.5s2.4-3.3,4-6.5s3.3-5.7,3.6-5.8c0.3,0,1-1,1.4-2.3c0.4-1.2,0.8-2.5,0.9-2.8   c0.2-0.5,1.3-3.1,3.9-9.4c0.9-2.1,1.6-4.7,1.6-5.7s0.6-2.4,1.2-3.1c0.7-0.7,1.3-1.8,1.3-2.3s1.3-6.1,2.8-12.4   c3.1-12.8,3.5-15.7,4.1-32.1l0.4-11.5L3483.9,771.5z"
   id="path148" />
</g>
</svg>
