<?xml version="1.0" encoding="UTF-8" standalone="no"?>
<svg
   version="1.1"
   id="svg4"
   x="0"
   y="0"
   viewBox="0 0 3500 1038"
   style="enable-background:new 0 0 3500 1038"
   xml:space="preserve"
   sodipodi:docname="layer5.svg"
   inkscape:version="1.2.2 (732a01da63, 2022-12-09)"
   xmlns:inkscape="http://www.inkscape.org/namespaces/inkscape"
   xmlns:sodipodi="http://sodipodi.sourceforge.net/DTD/sodipodi-0.dtd"
   xmlns="http://www.w3.org/2000/svg"
   xmlns:svg="http://www.w3.org/2000/svg"><defs
   id="defs336" /><sodipodi:namedview
   id="namedview334"
   pagecolor="#505050"
   bordercolor="#eeeeee"
   borderopacity="1"
   inkscape:showpageshadow="0"
   inkscape:pageopacity="0"
   inkscape:pagecheckerboard="0"
   inkscape:deskcolor="#505050"
   showgrid="false"
   inkscape:zoom="0.97782766"
   inkscape:cx="2300.5076"
   inkscape:cy="742.46212"
   inkscape:window-width="1920"
   inkscape:window-height="1017"
   inkscape:window-x="-8"
   inkscape:window-y="-8"
   inkscape:window-maximized="1"
   inkscape:current-layer="svg4" />
    <style
   id="style327">
        .st0{fill:#5c1414}
    </style>
    
    <path
   class="st0"
   d="m3500.3 513.3-.7-125.2-8.1 6.1-8.1 6.1-1.7 2-1.7 2v8.4l-3.6 13.8-3.6 13.8-1.9 7.5-1.9 7.5-1.9 5.4-1.9 5.4-1.4 1.1-1.4 1.1-1.7 3.2-1.7 3.2-2.2 1.2-2.2 1.2-5 .7-4.2 2-4.2 2-1.1-.7-1.1-.7-1.3 1.9-4 1.9-4 1.9h-1l-4.5 2.4-4.5 2.4-2 .4-2 .4-3.5.6-3.5.6-2.9 1.4-2.9 1.4h-4.7V494l-4.2-1.1-4.2-1.1-2.4-.7-2.4-.7.7 1.1.7 1.1-3.5 1.2-3.5 1.2-.8 1.2-.8 1.2-3.5 1.8-3.5 1.8-4.3 2.3-4.3 2.3-2.5-.5-2.5-.5v-1.9l-.9.5-.9.5-2.5-3h-1.9l-3.9-2.8-3.9-2.8v-2l-2-1.4-2-1.4v-2.7l-6.5-6.1-6-4.2-6-4.2-4.4-2.3-4.4-2.3-25.6.5-25.6.5-3.5.6-3.5.6-25.2 9.9-5.1 2.6-5.1 2.6-.1 2.5-.1 2.5-.4 1.5-2.6 6-.7 13-1 8.4-1 8.4 3.6 2.7 3.5 1.2v3.5l2.1 2.1-5.3 4.5-5.3 4.5-6.5 4.5.5.9.5.9-2.1 1.3.5.8.5.8-2.2 2.2-2.2 2.2-9 7.9h-1.6l-2.8 2.9-2.8 2.9-2 1.1-2 1.1-4.8-.9-3.2-.6-3.2-.6v-1.5l-3.8-.1-3.8-.1-10-1.6-10-1.6-12 2-43 5-21.6 2.3-2.4 2.9-2.4 2.9-3.1 10.2-3.1 10.2-1.4 1.6-1.4 1.6-5.8 1.2-13.9 6-13.9 6h-2.2l-4-1.6-4-1.6v-4.9l1.5-3 1.5-3h-.9l-3.4 2-3.4 2-1.6-.6-1.6-.6v1.9l-5 2.3v-2h-2.8l-.8 2.3-5.2.5-5.2.5v1.2h-5.6l-3.5-2.4-3.5-2.4-6-7.9-1.7-1.6-1.7-1.6.6-.9.6-.9-1.1-.7-1.1-.7-.3-5.6-.3-5.6.7.4.7.4.3-.9.3-.9 13.5 6.5v-.7l2.9 1.5 2.9 1.5 3.6.6 2.1 1.2 2.1 1.2.6-.6.6-.6 14.1 7.4v-1.4l2.7 2.2.5-.5.5-.5 2.3 2.8 2.4-.5 2.4-.5 2.2-2.3 2.2-2.3-2.3-.8-2.3-.8-1-.3-5.6-2.3-2.4-.1-3.9-2.9h-4.6v-1.7l-8.5-2.5-4.5-2-4.5-2-1.5-.3-1.5-.3v-.3l-2.3-.4-2.3-.4-8.8-4h-2.2l-1.4-3.2-1.4-3.2-1.3-1.6-1.3-1.6-1.7-.6-1.7-.6 2.7-8.6 1.3-3.2 1.3-3.2 1 .1 1 .1 1.2-.1 1.3-.1v-2.8l-3-2.5V544h-2v-2.8l-1.2-.6-1.2-.6 4.5 1.1-.3-2.9-.3-2.9-1.1-1.9-.7-2.8-.7-2.8h-2v-3.9l1.5.6 1.5.6 1.6-.6 1.6-.6-1-1.2-1-1.2-.7-4-.5-.5-.5-.5-2.5-3.5-2.5-3.5-1.3-2.9-1.3-2.9 1.5 1.3 1.5 1.3 1.2-.7 1.2-.7-.7-4.1-.7-4.1-3.5-8.5-3.5-8.5-1.1-6.5-1.1-6.5-.7-.9-.7-.9-3.6 5.3-3.6 5.3v3.4l-.9.6-.9.6-5.8 8.4-5.3 8-.9 1.1-.9 1.1.5 2.1.5 2.1 3.4-2.2 3.4-2.2v-2.4h3.2l-.4.8-.4.8-4.9 10-1.3 1.3-1.3 1.3v2.7l-8.5 9.6-2.2 2.4-2.2 2.4.5.9.5.9 2.7-.6 2.7-.6-2.9 2.8-2.9 2.8-1.3.2-1.3.2v-2h-4.1l-.5-1.3-.5-1.3-5.5-2.9-5.5-2.9v-2.4h-3l-.2-4-.1-.8-.1-.8-.5-1-.5-1 .2-5 .2-5 .4-8-.8-3.3-.8-3.3-2.4-1.1-2.4-1.1V485h-3.9l-.7-1.1-.7-1.1-1.9.5-1.9.5v-1.6l-6.5-1.5-3.5.4v-2.2l-2.5.5-7-3.4-7-3.4h-1l-1.3-1.3-1.3-1.3h-3l-2.5-2-2.5-2h-3.1l-3.3-1.2-3.3-1.2-2.2 2.2-2.9-1.4-2.9-1.4.6-1.5.6-1.5h-2.4l.4-1.2.4-1.2-1.5-5.3 1-1 1-1-.9-1.3-.9-1.3-.5-5v-4l-1.2-2.7-1.2-2.7-1.8-.5-1.8-.5-1-2.8-1-2.8-.9-2-.9-2-.7-2.4-.7-2.4-3.5-3.9-3.5-3.9-.9.6-.9.6.5 2.2.5 2.2.5 5.2.5 5.2-1.1.4-1.1.4 1.8 3.5 1.8 3.5.1 5.3.1 5.3 1.4.8 1.4.8-2.6 1.6-.4-1.2-.4-1.2h-3.8l.6-8.5.6-8.5h-3.9l-2.1-2.2-2.1-2.2-.7-2.8-.7-2.8h-1.8l.3-1.5-1.6-6-.8-.5-.8-.5-3.6-7.7-3.6-7.7v-3l-4-4v-3h-2v-2.1l-2.3-2.3-2.3-2.3-14.9-3.2-14.9-3.2-8.5-1.4-8.5-1.4-7.9-1.9-2.1 1.4-11 .2-11 .2-2.2-1.8-4.9 2.4-5 2.4h-3.2l-3 1.5-3 1.5-3.9.1-3.9.1-2-.3-2-.3-6-4.1-6.3-1.9-6.3-1.9-.6-.9-.6-.9-.9 1.4-.9 1.4v-2.5h-4.8l-5.9-5h-2.2v-2h-3.9l-2.8 1.2-2.8 1.2-1.3 1.3-1.3 1.3h-3.4l-1.9-1.4-1.9-1.4 1.2-1.9-1.5-1.2-1.5-1.2 1.2-7.8h-1.9l-1.2-2.6-1.2-2.6.9.6.9.6.6-1 .6-1-2.4-5.8-2.4-5.8-.7-3.3-3 4.6-3 4.6-.1 1.8-.1 1.8-2.6 2.7-2.6 2.7v1.6l1.6-.6 1.6-.6-1.3 1.6-1.3 1.6-2.2-2-2.2-2h-2.5l-9.4-4.3-3.5-3.2-3.5-3.2-9.6-1.3-9.6-1.3-2.2 1.2-2.2 1.2-.6-.6-.6-.6 1.1-2.5 1.1-2.5h-2l-.6 1.5-.6 1.5-1.9-.6-1.9-.6v2.3l-.9-.6-.9-.6-1 1.7-1 1.7-6.4-1.7-6.4-1.7-5-.5-5-.5-4.6-.6-4.6-.6-9 5.3-9 5.3-2.5 7.6-2.9 2.5-2.9 2.5v1.8l-3.8 1.7-3.8 1.7-4.3 2.9-4.3 2.9h-.9v-5.6l-1.4-1.9-1.4-1.9-2.2 6-2.2 6-20.4 3.5-6.8 1.7-6.8 1.7-2.5 7-2.5 7 .9 2.6.9 2.6-3.1 2.1-3.1 2.1-3.4.8-3.4.8-3 1.3-3 1.3-4.9 1.3-4.9 1.3-6.6 5.9-6.6 5.9-5.5 3.8-5.5 3.8-1.8 6.2-1.8 6.2-1.4-.5-1.4-.5v1.9l-1.5-.6-1.5-.6v4.7l-2.1 1.3-2.1 1.3.5 1.4.5 1.4-2.2-.2-2.2-.2v2.8l-5 2-5 2-1.6 1.4-1.6 1.4h-2l-6 2.9-6 2.9-1.7 2.5-1.7 2.5-4.8 2.7-4.8 2.7-2 1.8-2 1.8-9.6 4.2-5.5 1.4-5.5 1.4-7.2 3.7-7.3 3.7-13 5.4-13 5.4-5.4 2.3-5.4 2.3-1.2 2.3-1.2 2.3-.7 2.3-.7 2.3 3.2 3.2 3.2 3.2-1.3 2.1-1.3 2.1-1.6 2.7-1.6 2.7 2.2 3.5-.7 10.7-2.3 8.3-1.3 6.4-1.3 6.4-2.5 2.3-2.5 2.3 1.1 2.8-2.2.6-2.3.6 1.9 2.1 1.9 2.1-3.4-1.3v5.3l-6 2.1v3l-5.9 6.2-5.9 6.2-2.6 12.9-2.6 12.9-1.3 11.5-1.3 11.5-5.1 5.2-5.1 5.2-2.7 7.9.9 3.7.9 3.7-4.6 6.3-2.3-.6-2.3-.6v2.3l-1.5-1.3-1.5-1.3-2.1-3-2.1-3 1.3.8 1.3.8-.7-2.4-.7-2.4-2.4-5.4-2.4-5.4v-.8l1.9 1 1.9 1h4.1v-1.9l-3.5-2h3.6v-1.3l-2.7-5.4-2.7-5.4 2.7-1.6-2.4-7.3-2.4-7.3-.4-12.6-.6-.6-.6-.6-2 2.4-2 2.4v2.2l-3 2.5v3l-4.5 5.6-2.2 2.8-2.2 2.8 1.9 1.9 2.2-1.9 2.2-1.9-2.4 4.4-2.4 4.4-5 5.1-5 5.1-2.8 1.9-2.8 1.9 2.1 2.1 2.8-1.8 2.8-1.8-1.3 1.6-1.3 1.6.6.9.6.9-2 1.8-2 1.8v2.9l4.5-2.9 4-1.3-6 5.1-4.1 2.7-4.1 2.7-1.9 1.1-1.9 1.1 1.4 1.5 3.1-1.1 3.1-1.1v1.2l-1.7 1.8-1.7 1.8h4.4l3.7-2 3.7-2 2.5-1.7 2.5-1.7-3.2 4.9-7.3 3.8h-7l-.6 1-.6 1 6 2.3-2.5 1.3-2.5 1.3h-2.8v2.2l7-1.3v1.6l-.9 1.4-.9 1.4-2-1.2-9.1-1.1-1.3 2.1h3.1v2l2.6.6 2.6.6-3.1 1.5-3.1 1.5v2.6l2.1.7 2.1.7 3.5-3.2h4.3v2l-4 2-4 2h-4l-2.3-1.1-2.3-1.1-1.9-2.5-1.9-2.5 2.2 1.2 2.2 1.2.9-.9.9-.9-1.3-3.3h-1.7l1.2-5.9-3.1-9.4-3.1-9.4v-5.4l-1.8.3-1.8.3-.3 3.1-.3 3.1-4.8 5-4.8 5-5.7.7-5.7.7-5.5-1.1-5.5-1.1.6-1 .6-1-1.4-.9-1.4-.9 7.6.6 7.6.6 1.5-2.4-1.6-1.6-1.6-1.6-1.8-.2-1.8-.2-1.7-.4-1.7-.4-.7-.7-.7-.7 2.4-2.9 4.8 1.8.6-1 .6-1h3.6l2.5-3-.8-.8-2.5-.5-2.5-.5-6.7-2.2-6.7-2.2-.6-2.3-.6-2.3-8-8.3v-1.2l6.5 6 5.8 3.6 2.9.8 2.9.8 1.3-2.2-3.8-3.3-3.8-3.3h2l4.1 1.4 4.1 1.4 8.2-.8 1.1-.7 1.1-.7-1.4-.9-1.4-.9h-3.6l-7.2-3.1-7.2-3.1-4.1-4.2-4.1-4.2-.7-2.2-.7-2.2h2.2l2.2 1.2 2.2 1.2 2.1 1.6 2.1 1.6 9.5.5-.6-1.6-.6-1.6V627h-3.9l-.6-.9-.6-.9 4.3-1.3 4.2-1.3-.5-.9-.5-.9-3.7.3-3.7.3-4.3-4.5-4.3-4.5-1.1-3.8-1.1-3.8 1.2 1.5 1.2 1.5 5.4 3.5h3l1.4-2.2-1.4-.9-1.4-.9h6.2l5.4-2.8-1-.6-1-.6-4.2-.5-4.2-.5-2.7-1.9-2.7-1.9-1.1-3.6-1.1-3.6h1.8v1.8l3.6 2.2 3.6 2.2 1.8-1.8-4.1-5.7-4.1-5.7h1.1l-1.9-5.1-.4-2.4-.4-2.4 1.7-7.4-1-2.9-1-2.9h-.9l-2.4 2.8-2.4 2.8v2.4l-6.5 4.8-3.8 1.4 1.2 1.2 1.2 1.2 3.3-1.2 3.3-1.2h2.8l-2.6 2.4-2.6 2.4-3.4 1.8-3.4 1.8-9.5.8v-2.1l-2-1.1-2-1.1.4 2.3.4 2.3.1.8.1.8 7.5 3.4-9.5.6v1.8l2.1 1.1 2.1 1.2 7.1-.7 7.1-.7 3.4-1-2.4 6.6-1 .7-1 .7h-6.6l.8 2.5 2.4.3 2.4.3.9.8.9.8-3.6.7-3.6.7-6.7-1.4-1.3-2-1.8.7-1.8.7 2.3 2.5 2.3 2.5 2.1.1 2.1.1-1.9.8-1.9.8-4.1-.7-4.1-.7-1 1 2.7 2.3 2.7 2.3-2.2.6-2.2.6 2.2 2.2h9.8l8.8-3.2.4.4.4.4-3.2 6.8-3.7 1.9-3.7 1.9-.5.1-.5.1-7 2.4-7.6-.7-2.8-2.3-.6.9-.6.9 3.5 3.2 2.5 1.1 2.5 1.1-3.2-.6-3.2-.6-.7 1.2-.7 1.2 2.9 2.9 2.2.2 2.2.2v1.6h7.9l5.1-1.9v1.4l-.8 1.3-.8 1.3-3.7 2-3.7 2-2.5.2-2.5.2v1.2l2.4 2.4h6.7l4-1.9 4-1.9v1.5l-4.5 6.5-4.5 2.5-4.5 2.5-11.5.2v2.9l1.3-1.3 1.3 1.1 1.3 1.1 3.3.1 3.3.1-6 2.6h-2.6l.4 1.2.4 1.2 3.3.3 3.3.3 3.2-1.1 3.2-1.1-1.6 1.6-1.6 1.6-4.5.8-4.5.8-7.7-3.8-1.2 1.4-.7 2.8-.7 2.8 1.8-.3 1.8-.3 2.4 1.7 2.4 1.7.8-.5.8-.5 2.1 1.1 2.1 1.1 1.2-.9 1.2-.9 4-1.4-7.5 6.2v1.9h3v-1.7l3.7-.6 3.7-.6.8.8-3.3 1.7-3.3 1.7-11.4-1-1.3.8-1.3.8-5.7-1.6v2.9h2.8l1.6 3.3 1.6 3.3 10.6-1.4 1.4 1.3 1.4 1.3 4.6-2.4 4.6-2.4 1.8-1.6 1.8-1.6.4.4.4.4-1.6 4.1-17.8 7.4h-8.4v2h-3v2.9l1.1.7 1.1.7-1.6 1.8-1.6 1.8-.3 1.8-.3 1.8-.1 1.2-.1 1.2h-5v1.9l2.9 1.5 3 1.5h2.1v-3h5.1l-1.2 2h4.7l2.4-2.4v2.1l-2.5 1.2-2.5 1.2-3.4.1-5.4 1.8-5.4 1.8-.4 1.1-.4 1.1 2.6.6 2.6.6 3-2.5-.6 1.6-.6 1.6h-1.8v3.1l-5 4.9-5 4.9-1.5-.6-1.5-.6-.9 2.5-.9 2.5-1.3.5-1.3.5-3.5-1.8v-4.8l1.1-2.5 1.1-2.5-2.2-3.6-2.2-3.6h2.4l-2.5-3h6.2v-2.1l-1.8-.6-1.8-.6-3.5-4.2v-1.5h9.6l3-2-4.5-3.8v-3l-1.2-.5-1.2-.5 9.4-.2 1.2-1.9-2-1-2-1-2.3-.1-2.3-.1 1.8-.5 1.8-.5V698l-4-.6-4-.6 1.1-1.3 1.1-1.3-.6-1-.6-1-2.7-.6-2.7-.6-2.5-1.9-2.5-1.9h2.5v-3h-1.7l.5-2.4.5-2.4-4.3-2.3 1.2-1.5 1.2-1.5-1.4-.9-1.4-.9 2.2-.6 2.2-.6V669l-4.8-3.4-4.8-3.4-1.5-1.9-1.5-1.9-1.2-2.1-1.2-2.1.8-.5.8-.5 4.7 1.7 4.7 1.7 3.3-3.3-2.1-.7-2.1-.7v-1.4l-6-3.5v-3l3.2 1.3 3.2 1.3 2.8-.3 2.8-.3v-1.7l-4.3-1.4-8.7-5.3V635h5.2l-.6-1.5-.6-1.5h1.9v-3.4l-2.8-2.3-2.8-2.3 6 3h3.5v-1.7l-4.5-4.4-4.5-4.4v-3l-2.4-2.4h3.4v-2h3.9l.5-.8.5-.8-4.7-2.5.4-1.7.4-1.7-6.2-6.9-1-1.8-1-1.8h1.2l2.9 2.1 2.9 2.1 1-.6 1-.6-4.3-4.5-4.3-4.5-2.6-13.1h-2.2l-1 .7-1 .7-5.5 11-2.6 3.2-2.6 3.2 1.8.7 1.8.7.4-1.2.4-1.2h1.9l-4.1 8.1-5.8 3.6-4.2 5.4h2l2.5-.9 2.5-.9-.2 1.4-.2 1.4-2.2 2.3-2.2 2.3v1.4h3.6l1.9-1.5-2.3 2-2.3 2v2.6l4-1.3v1.1l-11 6.2v.9l2.2.8 2.2.8-3.3 1.7-3.3 1.7.6 1 .6 1h2.9v2.2l-4 1v2l3-.4 3-.4-4.4 4.7h-1.7v2l2.8-.7 2.8-.7 3-1.4 3-1.4-12 11.1h-1.3l-.6 1.6-.6 1.6 2.3-.6 2.3-.6 1.2 1.9 1.2 1.9 3.5-1.2-3.8 2.7-3.8 2.7-3.4.6-3.4.6v1.7l1.2.1 1.2.1 1.2-.2 1.2-.2v1.2l-2.9 1-2.9 1 .5 1.4.5 1.4h3.3l8.8-4 .5.5.5.5-3.6 1.5-3.6 1.5-.6 1.5-.6 1.5-2.2.6-2.2.6-3.1 6.6 1 2.3 1 2.3 3.2-1.3 3.5-1v3l-6.2 1.2h-4.8l-.6 1.6-.6 1.6 2.3 2.3-2.8 2.2-2.8 2.2.8.8.8.8 4.2-1.1 4.2-1.1.7.7-5.6 3.7-5.6 3.7-3.3.7-3.3.7-.3 2.3-.3 2.3 4.2-.4 4.2-.4-3.3 2.8-3.3 2.8 7.6.1-1.1 2.1-1.1 2.1 2.1-1.1 2.1-1.1v1l-9 9v3.6l2.9 3.9v3.5l-11.5 5.7-.3.8-.3.8h-4.8v3.9l1.9 1 1.9 1 11.1-.7-2.1 1.4-2 1.4 1.1 2.9-1.5.6-1.5.6.5.8.5.8-2.1 1.1-2.1 1.1 1.2 1.4 1.2 1.4-2.5 3h-2.3l-4.4 4.5-4.4 4.5-3.3 1.1-3.3 1.1-2.8-1.4-2.8-1.4-8.4 1.4-8.4 1.4-6 2.4-5.9 2.4h-2.5l-10.4 7h-4.4l-5.9-6.2-12.2-6.9-5.2-4.8-12.8-1.4-1.9-1.3-2.5-6.2-5-3.8-5-3.8.7-1.6.7-1.6 3-10 .8-5.2.8-5.2 1.6-4.8 1.6-4.8-9.5-14.6-19.8.6-19.8.6-7.7 2-7.7 2-5.7.9-5.7.9-3.1-3.5 3.2-3.2h2.4l-2.4-2-2.4-2h-2.5l-1.7-1.9-1.7-1.9 5.2.5 5.2.5-.5-1.4-.5-1.4-1.9-.3-1.9-.3-5-3.9h3.5v-3.8l-4.5-3.3 2.3 1.1 2.3 1.1 2-1.2-8.1-9.1-1.5-5.1-1.5-5.1.6-4.2.6-4.2-.6-1.6-.6-1.6-2.6 2.2-1.3 4.3-1.3 4.3-3.1 8.9-3.1 8.9-3.2 3.3-3.2 3.3 2.1 1.3 2.4-2.3 2.4-2.3v2l-5.9 7.9-.1 2.4 1.8 1.1 6.4-6.5-.7 2.5-.7 2.5-3.3 3.5-3.3 3.5-1.1 2.1-1.1 2.1.5.5.5.5 1.9-1.9 1.9-1.9h2.1l-1.6 2.2-1.6 2.2v1.7l2.3-1.4-1.3 3.5v.8h-3.8l-6 7.6-5.8 1.8-5.8 1.8-1.2-1.6-1.2-1.6h-2.2l-.7-1.2-.7-1.2.2-3.8.2-3.8-5.1-2.3.6-2 .6-2-1.3-.8-1.3-.8 1.3-1.5 1.3-1.5-2.8-1.6-2.8-1.6 6.5 1.2v-1.3l-6.4-6.3-6.4-6.3.6-2.1.6-2.1.9.5.9.5v-2.9l-7-7V673h3v-1.6l-1.7-2.5-1.7-2.5 1.5 1.2 1.5 1.2 1.3-1.3v-4.2l-.8 1.3-.8 1.3-2.1-4.3-2.1-4.3-1.4-10-.9-1.7-.9-1.7-1.5.6-1.5.6v2.4l-4.5 5.9-4.5 5.9-1.5 1.8-1.5 1.8v1h3.3l2.7-3.5-1.4 4.1-1.4 4.1-1.7 3.4-1.7 3.4-1.5 1.7-1.5 1.7.7 1.1.7 1.1 6-5.7-1.1 2.1-1.1 2.1-3.5 2.9-3.5 2.9-5.2 3.6 1.1 1.8 2.5-1 2.5-1h.9v3.8l-11 9.4v1.8h3.1l-1.6 1.6-1.6 1.6v3.5l-2.5 2.7 1.2.5 1.2.5v2.8h-2v3.1l-2-1.2v3.6l1.5 2.9 1.5 2.9-.6 1.1-.6 1 1.2-.7 1.2-.7v2.2l1.8-1 1.8-1 2.1.2 2 .2-.9 2.4-1.7.6-1.7.6-1.7 1.2-1.7 1.2-10.6-6.9-10.6-6.9-1.5-4-.3-3-.1-2.6-.1-2.6-2-2.1-2-2.1v-1.9l-2.2-.7-2.2-.7-3.5-3.7v-2.7l-4-3.2-4-3.2V686h-2.2l.6-1.6.6-1.6-1 .6-1 .6.5-3.3.5-3.3.4-1.9.4-1.9-.9-2.3-.9-2.3-8.6-4.1-8.6-4.1.7-1.1.7-1.1-2.1 1.3-5.9-2.6-5.9-2.6-1.7-1.7-1.7-1.7 2-2-2.3-1.6-2.3-1.6h3.4v-2h-2.2l2.3-2.8-2.7-2.2-2.7-2.2-.3-2-.3-2h2V630l-1.4-.8-1.4-.8-2.6-4.2-2.6-4.2v-1l2 1.2 2 1.2 1.3-1.3-5.8-7.6-1.8-2.8-1.8-2.8.4-.4.4-.4 5.6 5.8 1.4-.5 1.4-.5v-3.3l-4.5-6-4.5-6v-2.8l1.8 1.7 1.8 1.7h3.3v-2.7l-3-3.8-3-3.8-1.1-3.9-1.1-3.9.6-2 .6-2-1.9-.5-1.9-.5.4-2.9.4-2.9h-1.1l-2 2.2-2 2.2v2.6l-6.3 9.6-7.6 11.4 1.1.7 1.1.7 4.5-4.8 4.5-4.8-1 2.7-1 2.7-2 4-2 4-2.5 3.7-2.5 3.7v3.6l1.2.4 1.2.4 3.5-1.8v1l-4.4 5.4-4.4 5.4.9 1.7.9 1.7.9-.6.9-.6v1.7l-3.6 3.4-3.6 3.4-1.4 2.6-1.4 2.6.6.6.6.6h3.8l-1.3 2.1-1.5-.6-1.5-.6-3.7 3.3-7-4.8.4-1 .4-1 1.3.3 1.3.3 4.9-1.2-4-4.4-.7-3.7-.7-3.7-1.3-.5-1.3-.5-2.1-2.9-2.1-2.9 4.3.1.4-1.8.4-1.8h-3.1l-4.3-4.5-3.8-7.4v-6l-1.4-.8-1.4-.8-.7-6h-3l-.6 5-.6 5-5.5 13-1.6 2-1.4 6.5h2.3l-3.2 4.1-3.2 4.1 2.8 1.8h1.6l2.7-1.8 2.7-1.8-3.2 4.7-3.2 4.7-2 1.2v5.9l2.5.1-3.8 3.5-3.8 3.5v1h4.1l-2.1 4h-2.4l-9.7-8.7 4.2-1.1v-2.1l-2.5-2.2-6.5-3.9V635l5.3.6.8-2.3-2.9-3.3-2.9-3.3-.7-1.9-.7-1.9 1.8.7 1.8.7h1l1.2-.1 1.2-.1v-2.9l-3-2.1-3-2.1-.5-3.5-.5-3.5-.5-3.5-.5-3.5h-2.9l-.6 2.8-.6 2.8-3.7 7.3-3.7 7.3 1.6 1.2 1.6 1.2-2.4 3-2.4 3v2.6l1.6.6 1.6.6-2.5 2.3-2.5 2.3-3 13.3-1.3 1.3-1.7-1-1.7-1-2-3.4-2-3.4-3.1-5.9-3.1-6-15-4.6-2-1.6-2-1.6 1.8-1.4 1.8-1.4-.7-1.1-.7-1.1-5.4-3.1-5.4-3 1.1-2.2 1.1-2.2 2.1-1.4-4.1-3.8-4.1-3.8-4.5-12.5h-2.4l-1.7 7.2-1.7 7.2-1.7 4.5-1.7 4.5-2.3 4.3-2.3 4.3v2.6l2.9 2.4 4-2.2 1.1 4.1 1.1 4.1-.6 1.5-.6 1.5-3.8-.6-3.8-.6-6.4 7.8-6.4 7.8-.8.3-.8.3v2.8h1.9l7.6-6.4 3.5-2.9v6.1l-1.8 2.3-1.8 2.3-48.2-3.4-19.3 3.3c-.7.5-1.7.8-2.8.8-1.5 0-2.6-.5-3.4-1.3l-.6 1.6-2.7-.7-2.7-.7-1.2-.9c-.4.1-.9.1-1.4 0-2-.2-4-.6-5.9-1h-2l-.4-.6c-1-.3-1.9-.5-2.8-.9l-.3.1-2.4.4.1-1.4c-.4-.2-.8-.3-1.2-.5l.2.4-.4-.4c-2.5-1-4.9-2.1-7.3-3.4l-1.6.4v-1.3c-2.8-1.6-5.6-3.3-8.3-5.2l-.8 1.5-4.8-4.6v-.8c-.9-.7-1.8-1.3-2.7-2l-1.3 1.5-.2-.7-.2-2.1c-4-2.9-8.1-5.8-12.3-8.4h-.2v-.1c-5.8-3.5-11.9-6.3-18.6-7.6-.3-.1-.7-.1-1-.2-8.2-1.5-16.8-1.7-25.3-1.6V616.4l-1.6-1.9c-2.1 0-4.2.1-6.2.2l-1.2 1.2h-2.7l.3-1.1c-4.5.2-9 .4-13.4.5-1.4 0-2.9 0-4.3.1l-.2.5h-1.6v-.5c-4.9 0-9.8-.1-14.7-.3l-1.3 2.2V615c-3.3-.1-6.7-.3-10-.6l-.2 1.3-1.9 1.7-1.9 1.7v-1.9l2.2-2.2-.5-.8c-4.6-.4-9.1-.9-13.7-1.5l-.2.7h-2.5l.2-1c-1.4-.2-2.9-.4-4.3-.6h-1.2v-.2c-5.7-.9-11.3-1.9-17-2.9-.3.1-.6.1-1 .1l.8 2.9-2.5.9-2.4-1.5.4-.3h-.8l-.6 1.1-1 1.9h-1.9l1.6-3.5c-.7-.4-1.3-.9-1.7-1.5v.1h-6.1l.6-.9.6-.9-2-.6-2-.6v-.6c-3.6-.8-7.2-1.5-10.8-2.3l-.5 1h-2.7l-.8-1.8c-7.4-1.6-14.8-3.1-22.2-4.5l.4.4-.7.7-.7.7v-1.9c-7-1.3-14-2.6-21-3.6-33.7-5-67.3-1.9-101 2-14 1.6-26.9 4.9-40.4 8.4-6.8 1.7-14.6 3.3-21.8 2.5l.1.5-.6-.6c-4.2-.5-8.2-1.8-11.8-4.4-1.5-1.1-2.4-2.6-2.4-4.3h-1l-5.4-6.1-5.6-1.6-5.6-1.6-24.5-.3-24.5-.3-9-.5-9-.5-6-1-23-1.4-11-.4-4-.6-4-.6-20-1.2-3.5-.5-3.5-.5-13.5-.5-13.5-.5-4.8-1.1-4.8-1.1-1.2 1.2-4-2.2-4.1.1-4.1.1-3.3-1-3.5-.9-8-1.2-6-1.1-6-1.1-4.7-1.6-4.7-1.6-.8.8-.8.8 2.4 3.9v8h2.1l1.4 3.3 1.4 3.3-.6 2.4-.6 2.4-2 2.2-2 2.2-6.2 1-11 .7-8.7-.9-8.7-.6-5.8 1.5-5.8 1.5-13 .4-13 .4-9 3.6-9 3.6-7.3 4.2-7.3 4.2-1.7 5-1.7 5-9.8 16.5-4.1 4.1-4.1 4.1-8.4 5.8-.6-.9-.6-.9 3.1-4.8 3.1-4.8 1.9-2.8 1.9-2.8-.6-.9-.6-.9 5.1-1.3-.4-.7-.4-.7 1.9-3.2 1.9-3.2v-.9l-2.5.9-3.5-7.1-3.5-7.1-1.8-2.1-1.8-2.1-.7-1-.7-1-2.1-1.8-2.1-1.8-4.9 1.1-4.9 1.1-14 5.3-2.6 2.8-2.6 2.8-8.2-8v-1h3.8l.6-2.1.6-2.1-1.6-2.6-1.6-2.6-2.1-2.5-2.1-2.5 2.6 2.2 2.6 2.2h5.4v-2.8l-2.6-1.7-2.6-1.7-1.9-1.9-1.9-2v-2h2.3l-.6-3.4-.6-3.4 1.5-.6 1.5-.6-4.6-5.1-4.6-5.1v-2l1.8.7 1.8.7 3.5 1v-2.9l-9.3-9.8 2.6-.3 2.6-.3v-2.7l-3-3.3-3-3.3v-1.4l-2.3-5.6-.4-4-.4-4-.4-1.2-.4-1.2h-1.9l-.7 2.2-.7 2.2-6.4 13.1-6.4 13.1v2.4h2.1l2.1-3.5 2.1-3.5.4.4.4.4-3.1 8.4-3.1 8.4-2.9 4-2.9 4v4.3l.7.7.7.7 2.3-1.5 2.3-1.5v2.1l-1.9 3.8-1.9 3.8.5 2 .5 2-3.3 7.8-1.9 5.7-1.9 5.7v1.2l1.6-.3 1.6-.3 2.5-4.5 2.5-4.5-.6 3.3-.7 2.7-4 5.5-.6 4-2.7 4-2.7 4v3.5h-2v-2l-2.8-2.8-2.8-2.8-7.2-6.1-7.2-6.1-2.1-1.1-2.1-1.1-3.3.6-3.3.6-.6 1.5-6.5 3.1-6.5 3.1-7 3.1-4 1.3-4 1.3-.6.4-.5.5-6 3.1-.2 3-.2 3 1.1 6 1.1 6 1.5 1.3 1.5 1.3 8-1.2 1.9-1 1.9-1 1.6 2 1.6 2 5 .7 1.2 1.2 1.2 1.2v5.1l1.2.1 1.2.1-3.5.9-3.5.9-14 .9-19 1.1h-4l-2.5 2.1-4.3.7-4.3.7-21-.1-5.3-1.6-5.3-1.7-2.4-2.3-2.9-2.1-3.8-1.5-3.8-1.5-5.5-2.3V655h-3v-2h-5v-1.8l-2.5-.6-2.5-.6v-2.1l-.9.5-.9.5-1.2-1.5-1.2-1.5h-3.6l-.6-1-.6-1-.8.5-.9.5-1.7-1.7-1.7-1.7-2.4-.3-2.4-.3-1.1-.7-1.1-.7-2.3-.5-2.3-.5-4-.8-4-.9-3.8-1.6-3.5-1.2v1.3l-1.9-1.7-1.9-1.7-1.8.4-5-2.1-4.5-3.9V622h-2v-2.3l-5-4.9-5-4.9-3-.6-3-.6.5-5.6.5-5.6 1.6-22 1.6-22 .4-.6.4-.6.7-6.9.7-6.9.4-.7.4-.7 2.2-30.7v-12l-1.2-4.3-1.2-4.3-.9.6-.9.6-.7 4.7-.7 4.7-1.4 1-1.4 1-.3 1.5-.3 1.5-.8 4.8-.8 4.8-.8.5-.8.5-.7-2.2-.7-2.2-.8 8-.8 8-.6 13.4-.6 13.5-.8 7-.6 8-.6 8-.9 3.5-.9 3.5-1.2 10.7-1.2 10.7-3.1-2.2-3.1-2.2-5.3-5.5-5.3-5.5-3-6-1.2-2-1.2-2-1.8-2.7-1.8-2.7-4.2-1.1-4.2-1.1-2-1.6-6.8-2.3-6.8-2.3v-1.4l-2.6-1.2-2.6-1.2-9.6-.6-9.7-.6-2 .1-3.2.6-2.8.5.3 20.1.3 21-.3 20.8-.3 20.8v-82.4H0V1038h.5V653.5L1 846l-.3 96.2-.2 95.8 1749.8-.3 1750.3-.2.2-199.5.2-199.5-.7-125.2zM2144 649h.8l1.4 1.8 1.4 1.8-1.8-1.4-1.8-1.4v-.8zm-98-49h1v1h-1v-1zm-27 33h-1v-1h1v1zm7 31h1v1h-1v-1zm1 16h-1v-1h1v1zm-111.1 0h-2.4l1.5-1 1.5-1h.6l-1.2 2zm-317.2 34.7-.7.7-.7-.7-.7-.7h2.7l-.6.7zM.7 650.2l-.4 3.3v-12l.4 2.7.4 2.7-.4 3.3zm346-95.5-.7.7v-2.7l.7.7.7.7-.7.6zm1.3-2.7h-1v-1h1v1zm11 3h1v1h-1v-1zm15.7 115.7-.7.7-.7-.7-.7-.7h2.7l-.6.7zm20-16-.7.7-.7-.7-.7-.7h2.7l-.6.7zm-3.2-8.7H385v-1.8l3.8-.8 3.8-.8 2 .3 11-3.8 9.5-.1v1.6l-4.5.3-4.5.3-14.6 4.8zM801 612h-1v-1h1v1zm11-1h-1v-1h1v1zm187-10h-1v-1h1v1zm7 7h-1v-1h1v1zm102 12h-1v-1h1v1zm7.7-2.3-.7.7v-2.7l.7.7.7.7-.7.6zm225.4 38.3-1.2-2h1l1.2 2h-1zm3.4-31.7-2.8.1-2.8.1v-.4l.5-1.4.5-1.4 2.2.2 2.2.2v2.6zm167.1 18.1-1.6-.6v-.8h1.9l.6 1 .6 1-1.5-.6zm117.4 29.7-2-1.2v-2l2 1.2v2zm54 22.9h-1v-1h1v1zm15 21h-1v-1h1v1zm225.9-34h-2.4l1.5-1 1.5-1h.6l-1.2 2zm5.1-3h-1v-1h1v1zm4-40h-1v-1h1v1zm29 37h-1v-1h1v1zm66.4 32.7-1.8 1.3h-2.6v-1.9l2.8-1.5 2.8-1.5.4 1.1.4 1.1-2 1.4zM2058 689h1v1h-1v-1zm-13 4h-1v-1h1v1zm8.1 13.2-1.3-.5-1.3-.5 1.9-.1 1.9-.1-1.2 1.2zm3.9.8h-1v-1h1v1zm11 6.7-.6.6-.6.6-1.4-.5-1.4-.5.6-.9.6-.9h2.9v1.6zm-.6-15.2-2.6 1.7-6.9-1.7-6.9-1.7-.6-1-.6-1-2.1-1-2.1-1 4.5.9 1.2-2 2.1.7 2.1.7 3.5.9 3.5.9h6.4l.6.9.6.9-2.7 1.8zm1.3-7.1-3.2-.1-5-.6 6-.7 6-.7.2-.2.2-.2-1 2.5h-3.2zm8.2-1.1-.4.3-4 2.9 1.4-1.8 1.4-1.8h2.1l-.5.4zm12.1-.4v-3.3l1.7 1.7 1.7 1.7-1.2 1.2-1.1-.7-1.1-.6zm57.4 1.2-5-6.6-1.5-2.5h.9l8 4.6-2.4 4.5zm5-9.8-.6.6-1.1-.9-1.1-.9-3-2.6-3-2.6 1.5.8 1.5.8 6.4 4.3-.6.5zm2.6-3.3h1v1h-1v-1zm3 1.9-1.2.7-1.2.7.7-1.2.7-1.2h.9v1zm87-64.9h-1v-1h1v1zm75.7-33.3-.7.7-.7-.7-.7-.7h2.7l-.6.7zM2489 456.8l-1.6.6-1.6.6.6-1 .6-1h1.9v.8zm6.1-115.6-1.3-.5-1.3-.5 1.9-.1 1.9-.1-1.2 1.2zm5.6 116.5-.7.7-.7-.7-.7-.7h2.7l-.6.7zM2546 525h-1v-1h1v1zm249-76h.8l.6 1.6.6 1.6-1-.6-1-.6v-2zm2 9h-1v-1h1v1zm-1.4-2.6-.4-1.2-.4-1.2h2l.6 1.6.6 1.6-2.4-.8zM2928 495h-1v-1h1v1zm16 7h1v1h-1v-1zm3 18.7v-.8l2 1.2v3.4l-1.9-3-.1-.8z"
   id="path331"
   inkscape:label="Layer 5 view" />
</svg>
