<svg version="1.1" id="svg6" xmlns="http://www.w3.org/2000/svg" x="0" y="0" viewBox="0 0 3500 1038" style="enable-background:new 0 0 3500 1038" xml:space="preserve">
    <style>
        .st1{fill:#2c0404}
    </style>
    <path id="path2" d="M1380 206.5v.5h1v-1h-1v.5m2 .6v1l1.5 2.9 1.5 2.9-.6 1.5-.6 1.5 1 .6 1 .6v-3.6l.6-3.1.6-3.1-2.6-1.2-2.6-1.2.2 1.2m10 1.3v.4l5.2 5 5.2 5-1.2 3.9-1.2 3.9 1 .3 1 .3-.5.8-.5.8 1 .6 1 .6v-2.3l2.5-2 2.5-2V220l-5.2-6.1-5.2-6.1h-5.5v.6m-2.8 14.3-2.2.4-3.6 4.4-3.6 4.4h-3.9l.3 6.2.3 6.2 1.6-.3 1.6-.3v4.6l.9 6.7.9 6.7.7.7.7.7.9-.9.9-.9.3-7.8.3-7.8-1.2-.7-1.2-.7-.3-6.3-.3-6.3 5.3-4.9 5.3-4.9-.8.1-.8.1-2.1.6m2.3 16.1-.5.7.4 10 .4 10 .9 3.5.9 3.5.2.8.2.8v6.1l1.1-.7 1.1-.7-.6-13.6-.6-13.6v-6.2l-1.5-.6-1.5-.6-.5.6m-6.6 28.6v.4l1.6.6 1.6.6-.6-1-.6-1h-1.9v.4m5.4 13.6-.6 1 .3 4.9.3 4.9-1.4 1.7-1.4 1.7-.3 7.6-.3 7.6 1.4-1.4 1.4-1.4.5-5 .5-5 .1-2.3.1-2.3.9.6.9.6 1.1-2 1.1-2v-7l-.6-1.6-.6-1.6h-2.7l-.7 1m-16.2 8.2-1 1.2-1.2 8-1.2 8v4.4h2v-4.4l2.5-7 2.5-7 .6-1.9.6-1.9-1.7.7-1.7.7.6-1 .6-1h-1.9l-.7 1.2m17.7 6.3v.5h1v-1h-1v.5m31 419v.5h1v-1h-1v.5m17.3.2.7.7.7-.7.7-.7h-2.7l.6.7m-13.3.8v.5h1v-1h-1v.5m3 0v.5h1v-1h-1v.5m2 0v.5h1v-1h-1v.5" style="fill-rule:evenodd;clip-rule:evenodd;fill:#732515"/>
    <path class="st1" d="m1409.4 223-.5-.4-.5-.5-1.3 2.2-1.3 2.2 1.8-1.7zM1722.5 1032.8l-4.7-2-4.7-2 .7-1.1.7-1.1-3.3 1.3-1.2-2-1.2-2h-2.4l-5-5h-2.1v-2.2l-3.5 1.4-2.7.8-2.7.8-1.7-5.5-1.7-5.5-1.8-1-1.8-1-1.6-3.2-1.6-3.2-2.5-2.7-2.5-2.7-2.7-7.8-2.8-7.8-6.5-2.7-6.5-2.7-6.1-4.1-6.1-4.1-5.1-1.9v1.9l-2.6-1-2.6-1-1.9 1-1.9 1-3.6-3.2-3.6-3.2-9.2-12.2-10.2-10.6-10.2-10.6-.7-9.2-.7-9.2-.6-3.7-.6-3.7-3.7-2.6-3.7-2.6-2.8-7.1-2.8-7.1-6-9.4-6-9.4-2.9-5.7-2.9-5.7 1-5.4 1-5.4-.9-2.4-.9-2.4-.7-5.9-.7-5.9-2.3-3-2.3-3-4-8.5-4-8.5-2.3-6-9.7-15-11.7-2-.2-2.5-.2-1.8-.2-1.8-4.1-4.9-3.7-.4-3.7-.4-4-.5-2.6 2 .4-8.8-1.3-6.7-1.3-6.7 1.1-4.8 1.1-4.8-2.3-4.4-8-9.5-4-4.2-4-4.2-18.7.2-18.7.2-.7.7-.7.7-4.8-1.8v2.2l-3.5-1.5-7.9-.2-7.9-.2-.9-1.5-.9-1.5-2.5-2.6-3.9-5-3.9-5-1.6-1.6-1.6-1.6-2.1-1.1-2.1-1.1h-5.1l-14.1-4.4-15.8-17.1-7.9-8.8-.6-5-.6-5-1.8-1.4-1.8-1.4-3.9-1.1-3.9-1.1-2.3.4-2.3.4v-2.2l3-3.5 3-3.5v-3.4l-1-.3-1-.3-1.2-12-1.3-3-1.3-3-4.3-3.6-4.3-3.6-11.9-9.1h-5.8l.7-2.2.7-2.2-.1-3 .6-1.5.6-1.5.8-5 1.3-3-.2-1.2-.2-1.2h2.2l-.3-1.9-.3-1.9 23.5-15 4.5-2.7 4.5-2.7 4.7-6.3 1.2-7.5 4.5-15.5 4.5-15.5 1.1-6.7 1.1-6.7 4.2-4.9 4.2-4.9 6.5-5.6 6.5-5.6 3.2-2.1 3.2-2.1V468l1.1-2.2 1.1-2.2 5.9-5.6 5.9-5.6.6-5.4.6-5.4.9-3.5.9-3.5.2-3.2.2-3.2-1.4-2.8-1.4-2.8-1.7-2-1.7-2-5.2-10V407l-4.1-9 2.2-3.1 2.2-3.1-.1-2.9-.1-2.9-1.5-3-1.5-3-1.2-5.5 7.9-11 4.5-6.6 4.5-6.6V346l-1.5-.6-1.5-.6V340l-1-1.7-1-1.7-6.2-16-7.3-7.5-4.7-.6-4.7-.6-.5-2-.5-2-1.5 1.3-1.5 1.3.3-7.5.3-7.5 1.4-1.7 1.4-1.7-.3-5.4-.3-5.4 1.6-.6 1.6-.6.6.6.6.6.7 3.8.7 3.8.1-7.8.1-7.8-1 .6-1 .6-.1-2.8-.1-2.8-.9-5-1.8-10 .1-7.5.1-7.5 3.5.6v-2.6l7.9-5.8-2.2-2.7h1.8l-1.2-.8-1.2-.8 1.2-3.8 1.2-3.8-4.6-4.6-4.6-4.6-1.6 1.3-1.6 1.3v1.7l1.3-.5 1.3-.5 2.7 2.5 2.7 2.5-.6 1-.6 1-4.1 1.1-4.1 1.1-.6-.6-.6-.6.2-12.4-1.9 6v3.6l-1-.6-1-.6.5-1.4.5-1.4-1.7-3.8-1.7-3.8-3-.3-1.4.5-1.4.5-1.7 1.5-1.7 1.5.7 3.9.7 3.9-6.6.3-6.6.3-1 6-2.2 1-2.2 1v9l-.6 3.6-.6 3.6-2.2.9-2.2.9-.3 5.2-.3 5.2 1.1 2 1.1 2h2.4l1.5 3.2 1.5 3.2 4.2.8 4.2.8v5l.9 1.7.9 1.7-1.6 13 1.7 1.9 1.7 1.9-.3.4-.3.4-1.5 3.5-1.5 3.5v10.9l-1 .6-1 .6v3.7l-7.3 1.4-17.6 5-17.6 5-15.8 5-15.8 5-4.3.2-1.1.8-1.1.8-6.9 1-6.9 1-5 .9-5 .9-10 2.7-10 2.7-4.6 1.5-4.6 1.5-1.9.4-1.9.4-7 2.2-7 2.2-10.5 2.9-10.5 2.9-2 .3-2 .3-1.3.8-1.3.8-3.2.5-3.2.5-3.5 1.1-3.5 1.1-1 .7-1 .7-6 1.8-6 1.8-3.3 1.4-3.3 1.4h-3l-18.9 9.8v-.7l-6.7 3.4-6.7 3.4h-4l-6.4-2.2-6.4-2.2-5.2 1.8-5.2 1.8-1 .8-1 .8-2.7.5-2.7.5-1.9.6-1.9.6-4.1-4.1-3 1.5-3 1.5v-1.3l2.6-3.1 2.6-3.1-1-.3-1-.3-6.1 3.2v-4.1l1.5-3.6 1.5-3.6v-3.2l-3.5 3.9-3.5 3.9v4.2l-.9-1.5-.9-1.5-1.5 3.5-1.5 3.5v-8.8l-3 2.5v7.9l-3.5 1.5-3.5 1.5-7.7 2.4-7.7 2.4-8.5 2.2-8.5 2.2-4 .9-4 .9-4 2.8-4 2.8-5.6 3.2-5.6 3.2-.6 3.1-.6 3.1v5.5l-2.2 1.5-2.2 1.5-2.2 1.9-2.2 1.9-5.2 4-3.2 2.5-3.2 2.5-4 2.9-4 2.9-5 5.2-5 5.2-6 3-5.9-.3-5.9-.3-5.4-1.1-5.4-1.1-3.4 2.3-3.4 2.3-3.7 5.8-3.7 5.8-4.2 3.7-4.2 3.7-2.9 1.5-2.9 1.5-4.4 2.8-4.4 2.8h-4.3l-.7.7-.7.7-1.2.3-1.2.3-7 1.9-7 1.9-8 .6-8 .6-6.2 1.1-6.2 1.1-7.1-3.8V498l-5.5-3.6-6-4.4h-1.9l-.4-1.2-.4-1.2-5.7-.3-5.7-.3-5.8 1.3-5.8 1.3-5 2.2-5 2.2-3.5 1-3.5 1-1.5.3-1.5.3-8 3.5-4.5 1.1-4.5 1.1-2.8 1-2.8 1-2.5 5.6-2.5 5.6-1.6 4-4.7 9.5-1.5.1-1.5.1-2 .5-2 .5-2.5.4-2.5.4-6.4.1-6.4.1-4.1-2.8-4.1-2.8-5.5-.1-5.5-.1-2.7 1.3-2.7 1.3-2.8.2-2.8.2-2.8 2.2-2.7 2.2-3.5 1.3-3.5 1.3v1.5l-11.5 5.4-.6 1-.6 1-10.7 5.2-1.5 4.5-1.5 4.5-.7.3-.7.3-6.1 1.4-6.1 1.4-2.8-2.3-2.8-2.3-1.2-2.8-1.2-2.8h-2.4l-2.5-4h-2.9l-1.3-1.8-1.3-1.8-6.5-4.5-1.1.7-1.1.7-7.1 1.4-7.1 1.4h-6.5l-3.3-5h-2.7l-.9-1.7-.9-1.7-6.9 1.1-6.9 1.1-7 .6-7 .6-3.8 1-3.8 1-4.1 4.5-4.1 4.5-14.9 11.2-1.4 3.6-1.4 3.6-1.6 2.9-1.6 2.9.7 5.6.7 5.6 3 4.5h-1.3l1.3 1.6 1.3 1.6 4.7-.3 4.7-.3-.7 1-.7 1-.3 10-.1 1.2-.1 1.5-4.2 2.7-4.2 2.7-3.7 2.1-3.7 2.1-4.6 4.3-4.6 4.1-2.5 4-2.5 4-2.2-.8-2.2-.8h-20l-6 .6-6 .6-1.3-1-1.3-1-3.2.6-3.2.6 7.5-6.2V623h-1.6l-1.4 1.2-1.4 1.2 1.9-2.3 1.9-2.3-2-2-4 3.5-1.2 2.3-1.2 2.3-2.6-2.6-2.6-2.6-2.1-.2-2.1-.2-5-.4-2.6-.4-2.6-.4-2.9 1.4-2.9 1.4-4.5 3.9v2.3l-12.5-.9-2.9-1.5-2.9-1.5h-11.6l-1.8 2-1.8 2-5.5 2.3-5.5 2.3-5.6 2.6-5.6 2.6-1.3 3.3-1.3 3.3-1.2-2.2-1.2-2.2-1.7-.6-1.7-.6-9.1 1.2-9.1 1.2-1.7.7-1.7.7-1.2 5-1.2 5 1.1 1.1 1.1 1.1v1.3l-7 1.1-8.5-4.4-3-3-3-3-3.2-1.3-3.2-1.3V644h-4.9l-.7-1.1-.7-1.1-4.1.6-4.1.6-2.3-5.9-2.3-5.9-3.6-3-3.6-3H267l-3-3.1-3-3.1.9-2.5.9-2.5v-8h-1.6l-2.4-6.6v-1.2l2.5-2.7 2.5-4.4V588l-1.8-3.7-1.8-3.7-2.3-4-2.3-4-1.6-1.8-1.6-1.8H248l-12.2 7.1-12.2 7.1-14.8 6.7h-6.6l-1.3 1.2-1.3 1.2-3.7 1.9-3.7 1.9v1.9l-1.5-.6-1.5-.6v1.9h-1.9l-3.4 2.2-3.4 2.2-5.7 3.1-.8.2-1 .6-3 1.5-3 1.5v1.9l-.8-.2-.8-.2-6.7 2.2-6.7 2.2h-2.9l-.6 1.5-.6 1.5-3 1-3 1-.7 2.2-.7 2.2-3.4 4.8-3.1 4.9v1.4l-3.3 3-3.3 3-1.1 4.5 2.9 3.7 2.9 3.7v3.3l-2.2.2-2.2.2-3.1 1.2-3.1 1.2-.5.6-.5.6-4.4 1.9-4.4 1.9-1.9-.1-1.9-.1-2 3.2-2 3.2-3 6.2-3 6.2-3.8 1.1-3.8 1.1-4.6.6-4.6.6-8.8-2.2-8.8-2.2-3.9-2.5L56 678v-3.6l2.2-2.2-2.6-7.2-3.3-.9-3.3-.9-1.6-1.6-1.6-1.6-2.9-.1-2.9-.1-1.5-.3-2-.6-2-.6-4-.6-4-.6-4-.7-1.5-.4-1.5-.4-4-.8-4-.8-4.3-1.8-4.2-2.1-1.5.6-1.5.5v11.4l2.4 2.4H0v373h1733v-1.8l-5.2-1.7-5.3-1.7zm-335.9-764.4-1.6-.6v-.8h1.9l.6 1 .6 1-1.5-.6zm-6.8-36.4 3.6-4.4 3.6-4.4 2.2-.4 2.2-.4.8-.1.8-.1-5.3 4.9-5.3 4.9.3 6.3.3 6.3 1.2.7 1.2.7-.3 7.8-.3 7.8-.9.9-.9.9-.7-.7-.7-.7-.9-6.7-.9-6.7V244l-1.6.3-1.6.3-.3-6.2-.3-6.2h3.8zm-8.8-11h1v1h-1v-1zm1 79.2 1.3-9.7 1-1.2 1-1.2h1.9l-.6 1-.6 1 1.6-.6 1.6-.6v2.1l1.2 1.3 1.2 1.3-.3 9.2-.3 9.2-3.4.6-3.4.6-1.7-1.7-1.7-1.7 1.2-9.6zm-7-78.2h-1v-1h1v1zm2.7-.3-.7.7-.7-.7-.7-.7h2.7l-.6.7zM1424 715h-1v-1h1v1zm4 1h-1v-1h1v1zm3 0h-1v-1h1v1zm2 0h-1v-1h1v1z"/>
</svg>
