<?xml version="1.0" encoding="UTF-8" standalone="no"?>
<svg
   version="1.1"
   id="Layer_1"
   x="0px"
   y="0px"
   viewBox="0 0 3500 1038"
   style="enable-background:new 0 0 3500 1038;"
   xml:space="preserve"
   sodipodi:docname="layer4.svg"
   inkscape:version="1.2.2 (732a01da63, 2022-12-09)"
   xmlns:inkscape="http://www.inkscape.org/namespaces/inkscape"
   xmlns:sodipodi="http://sodipodi.sourceforge.net/DTD/sodipodi-0.dtd"
   xmlns="http://www.w3.org/2000/svg"
   xmlns:svg="http://www.w3.org/2000/svg"><defs
   id="defs1126" />
<style
   type="text/css"
   id="style1120">
	.st0{fill:#7C241C;}
</style>
<sodipodi:namedview
   bordercolor="#eeeeee"
   borderopacity="1"
   id="namedview312"
   inkscape:current-layer="Layer_1"
   inkscape:cx="1757.2314"
   inkscape:cy="523.55371"
   inkscape:deskcolor="#505050"
   inkscape:pagecheckerboard="0"
   inkscape:pageopacity="0"
   inkscape:showpageshadow="0"
   inkscape:window-height="1017"
   inkscape:window-maximized="1"
   inkscape:window-width="1920"
   inkscape:window-x="-8"
   inkscape:window-y="-8"
   inkscape:zoom="0.34571429"
   pagecolor="#505050"
   showgrid="false">
	</sodipodi:namedview>
<path
   class="st0"
   d="M3499.9,444c-2.6-1.8-5-3.7-6.9-6h-1.4l0.9-0.7c-1-1.3-1.9-2.8-2.5-4.3h-0.1l0.1-0.1c-0.2-0.5-0.4-1.1-0.6-1.6  l-0.9,0.3l0.3-2.9c-0.2-1.4-0.3-2.8-0.2-4.4c0-0.2,0.1-0.5,0.1-0.7l-1.8-0.7l-2.4-0.9l0.8-0.1l0.8-0.1l-2.3-2.3  c-0.3-0.1-0.5-0.1-0.8-0.2c-0.6-0.1-1.2-0.3-1.8-0.5h-0.9c-0.5,0.2-1.1,0.3-1.7,0.3c-0.6,0-1.2-0.1-1.7-0.3h-0.1l0,0  c-0.6-0.2-1.1-0.5-1.5-0.9l-0.5,0.4l-3.5-3.4l-3.5-3.4v-1.8l-3-3v-3.5l-2.5-2.1l-2.5-2.1l-3,3l-0.2-6.6l-0.1-12l-4.2-4.6l-3.4-0.6  l-1.6-2.6h-5.6l-2.8-2.8l-4.2-0.1l-4.2-0.1l-2,0.4l-4.1,0.1l-4.1,0.1l-1-0.6l-1-0.6l-0.6,0.6l-0.6,0.6l-7.6,0.4l-9,4.4l-11.2,7.4  l-7.2,5.4l-7.2,5.4l-0.8,2.1l-0.8,2.1l1.6,5.4l-0.6,11.4l2.5,4.4l2.5,4.4l2,1.4l2,1.4l-1.6,1l-7,2.1l-11,4.6l-5.6,4l-0.6,3l-1.2,6.4  c0.4,1.2,0.4,2.6-0.4,4c-6.1,11.5-13.5,22-24.4,29.3c-2.7,1.8-5.5,3.4-8.4,5l-3.1,2.8l-1.1-0.5c-0.6,0.3-1.1,0.6-1.7,0.9v0.3  l-1.5,0.6c-0.7,0.4-1.4,0.8-2,1.2c-5.2,3.1-9.8,6.9-14.2,11.1c-8,7.5-15.9,15.3-23.3,23.3l0.1,0.1l-0.3,0.1  c-1.6,1.7-3.1,3.4-4.6,5.1c-0.6,0.6-1.1,1.3-1.5,2l0.2,0l-0.8,0.8c-5.2,8-5.7,18.4-12.9,25.2c-0.3,0.3-0.6,0.5-0.9,0.7l0.8,0.5  l-2.8,3.4l-1.6,4l0.3,1.5h-2l-13.8-13.6l-5.4-2.4l0.8-0.8l6.4-1.2l-1.2,3.6l3.2-4l1.2,4.2l6.5-0.2c0.1-1,0.6-2,1.5-2.9  c0.6-0.6,1.1-1.2,1.6-1.8l0.4-0.9l-1.4-3.4l-0.6-2.6l-0.6-0.4l-9.6-4.4l-3.6,1.1l-2.6-3h2.5l-1-2.8l2.6-3.6l-1-2.6h-2.6l-1.5-4.5  l0.4-2.4h-2.2l1.2-3.8l-5.2-5.6l3-0.6l1.1-2.4l1.1-2.4l-1.9-0.6l-1.9-0.6l-12.8,3.1l-12.8,3.1l-3.4,1.8c-0.8,1.3-2.2,2.3-4.2,2.3  c-0.5,0-1.2-0.1-1.9-0.1h-1.1l-4,9h-1.2c-0.2,0.6-0.4,1.1-0.7,1.6v2.2l-3.6,1.6l-1,0.2l-6.6,3.4l-0.9-0.5c-0.4,0.1-0.8,0.3-1.1,0.4  v1.1h-2.1l-9,4l1.2,1.8l-4,3.4v2.5l-4.9,3.2l-4.6-2.4l-3-2.6l-26,0.6l-13.2,1.6l-12.6-8.4l-9.2-4.6l-10.9-11.2h-4.2l-2-2l-7.4-0.6  v-1.4l-19.6,1l-6-4h2.4l1.2-4l-2.2-4.1l-2.2-4.1l1.6-0.9l1.6-0.9l-2-3.6l2.9-1.1l-0.6-2.9l-0.6-2.9l2.2-1.4v-3l-5-5.4l-2.6-6l-1.9-5  l0.4-7.4l-1.5-0.6l-1.5-0.6l-0.2,0.6l-3.6,11l-4.8,7.4v2.6l-2.4,3.6l-2.4,3.6l2.4,2.4l-7.2,6.4l-6.8,18.4l-6.8,18.5l-4.4-13.8  l-6.6-5.6h-2.4v-2h-3l-3.4-2l-13-5.2l-3.1-1.9l-3.1-1.9l-30.8-5l-12-3l-15-14.6l-11-5.1l-11-5.1l-6.8-1l-3.6-2.9l-3.6-2.9l-5.7-7.4  l-5.7-7.3l-9.6-2.4l-9.5-1.1l-9.5-1.1l-5.1-1.1l-5.1-1.1l-1.1-2.6l-1.1-2.6l-0.6-3.1l-0.6-3.1l2.8-1l-2.8-10.6l0.2-9v-3.8l-1.9-1.9  l-2.2,1.4l1,1.4l-2.9,3.4l-2.9,3.4l-2.5,6.1l-5.6,5.5h1.4l-3.6,4h4.3v2.9l-4.4,4h1.4l-2.1,2.4l-2.1,2.4l-3.1-0.4l-3.1-0.4l-7-0.1  l-7-0.1l-6.4,0.1l-6.4,0.1l-2.1-2.1l2.8-1.6l-0.7-1.1l-0.7-1.1l-1.7,0.9l-1.7,0.9l-3,1.4l-3,1.4l-3.4,3l-3.6,3l-1.8-0.6l-2.6,3.6  l-0.8-1l-11.5-31.4l-2,0.8c0.3,0.8,0.2,1.8-0.2,2.9c-3.3,8.8-6.6,17.6-10.3,26.2c-3.4,8.2-7.4,16.1-10.2,24.5  c-2.8,8.3-4.9,16.8-6.9,25.3c-0.6,2.7-1.4,5.5-2.2,8.2l0.1,0.1l-0.2,0.3c-0.4,1.5-0.9,3-1.4,4.5h0.9l-1.2,0.8  c-0.2,0.6-0.3,1.1-0.5,1.7c0.1,0.3,0.1,0.5,0.1,0.8l0.1,0.1l0,0.1c0.8,5.9-1.6,11.4-3.2,17.4c-0.2,0.7-0.4,1.4-0.5,2.2h0.9l-1.2,1.5  c-0.2,0.9-0.3,1.8-0.5,2.7l0.6,0.9h-0.7c-0.8,5.3-1,10.9-1.5,16.3l0.1,0l-0.1,0.2c-0.2,1.6-0.3,3.3-0.6,4.9c-1,6.7-2,13.5-2.8,20.2  l0,0.7l-0.1,0.1c-0.1,1.1-0.3,2.3-0.4,3.4l0.7,1.3l-0.9,0.3c-1.2,11.6-1.9,23.1-1.2,34.8c0,0.6,0,1.1-0.1,1.5c1,2.6,0.2,6-3.2,7  c-15.3,4.4-32,0.8-47.1,6c-8.8,3-13.4,11.2-19.1,18.1c-1.1,1.3-2.2,2.5-3.4,3.7v1l-2.5,1.5c-0.5,0.5-1,1-1.5,1.5v1.8l-1.5,0.8  c0,0.1,0,0.2,0,0.3v0.6h-0.2c-0.1,0.4-0.3,0.7-0.6,1.1c-2.4,3.6-4.3,8-7.6,10.7l0.1,0.6l-1,0.4c-0.5,0.7-0.9,1.3-1.4,2l1.4,1.7h-2.6  c-0.8,1.2-1.6,2.3-2.5,3.4l-1.4,2.4l-0.3-0.2c-1.3,1.7-2.7,3.4-4.1,5l-0.6,1.2l-0.5-0.1c-0.6,0.6-1.2,1.3-1.8,1.9l0.1,1.2l-1-0.3  c-2.9,2.7-6.1,5.2-9.7,7.4c-7.3,4.3-15.2,7.3-22.6,11.4c-8.3,4.6-16.3,9.8-24.5,14.5c-17.3,9.7-35,18.8-52.4,28.2  c-7.4,4-14.8,8.2-22.2,12.2l-0.8,1.2l-0.5-0.5c-0.6,0.3-1.2,0.6-1.7,0.9l-2,2.2l-6.7,2.3l-0.1-0.1c-0.6,0.3-1.1,0.5-1.7,0.8v1.4  l-1.2-0.8c-4.1,1.9-8.3,3.7-12.6,5.3c-0.1,0-0.1,0-0.2,0l-1.4,0.7l-9,0.4l-13,1.3l-7,0.2l-6.4-1.4l-6.4-0.8l-2.4-2l-12.9-1.2l-9.4-2  l0.3-0.7c-2-0.6-3.8-1.5-5.5-2.6c-0.5-0.3-0.8-0.6-1.1-1c-1.7-0.7-3.3-1.4-4.9-2.1c-7.6-3.6-14.1-9-22-12.1  c-14.8-5.9-31.3-5.6-47-4.9c-15.6,0.7-32,2.6-47.6,0.3l-0.2,0.5l-3-1.1c-1.2-0.3-2.3-0.6-3.4-0.9l-0.9,1.4l-4-1V750  c-0.8-0.3-1.6-0.7-2.4-1h-0.6v-0.3c-2.8-1.3-5.7-2.7-8.6-4c-0.6-0.3-1.2-0.6-1.9-0.8l-0.3,0.1v-0.2c-7.3-3.2-14.7-6.1-21.8-9.9  l-0.9,0.4l-2.1-2.1c-2.8-0.6-5.6-1-8.3-1.3v0.1h-1v-0.2c-17.6-1.4-35.5,3.5-52.6,8.1c-12.7,3.4-25.4,5.4-38.4,7.1  c-6.5,0.8-12.8,1.6-19.1,3.5c-6,1.8-11.7,3.4-18,3.2c-0.3,0-0.5,0-0.8-0.1l-6.6,1.6l-7-0.2l-4.6-2.6l-2,1.2v-1.9l-3.6-1l-7.4,3.6  v-1.7l-4-1.3v-3.7l-1.7-1.1l-2.7-9.6l-2.6-5v-4.3l-6-2.7V722h-3l-3.4,4l-0.6,2.6l-0.9,4l-2.4,10l-1.6,3.2l2,2l-2.2,1.3v3.9h-1  l-36.6-16.2l-36-15.4l-25.7-8.3l-4.1-2.9l9.4-4v-0.8l-11-11l1.2-9.2h-2.2l-1.8,3.2l-1-1.8l-1.4-6.6l4.9,1.2l1.2-3.4l-4.2-1l2.6-1.6  l-3.2-5.6l0.6-8.8l-3.6-5.2l-1.4-10.5l-1.8,1.2l1.2,1.8h-2.9l-3.2,8.1l-7,7v1.9h4.5l-10.4,6.2v1.8l2.5,0.2l3.8-0.4l-1.4,2.2h-2.9v3  l2.4,0.2l2-0.4l-3.9,4.6l-2.4,1.6v3.1l3-1.2v0.9l-6,3.1l-5-5v-2.3l3,2.6l2-2l-2.2-1.3v-2.1l3,1.2l3-1.2v-1.7l-3.8-1.2l-3.4-5.2V662  h-2l1.2-2l-1.3-4h-2.6l-3.4,7.6l-2.8,4.6l-6.2,6.4v2.2l1.8,0.6l-2.8,4l-5.4-5.4h4.5v-4.6l-8-8.3v-1.6l6.4-0.4l1.8-1.8l-1.3-2.2h-2.5  l-4.4-6v-1.2l4,2.1v-2h4v-2.6l-7-6.6V639h1l3.9,2.4l1.4-1.4l-4.8-7.6l-2.4-5.6h1.8l1,2.4l2.6-2.5l-4.2-7.6l-1.6-14.8l-2-0.7  l-5.8,10.4l-9.8,9.5h-3.1l0.9,2.5l6-0.2l-4.6,8.2l1,1.4l-4,2.8l1.2,3.2h-2.9l-3.4,3.8l-3-1.2l1.4,4.2l-2.2,4.2l-4.6-0.8l-2.6,1.6  l3.8,2.8l-9.2,2.3h-4.4l2.5,3h4.2l-5,4.2l0.5,1.7l-4,2.1v5.4l1.4-2.2l9-1.2l-6,5h-4l-7.9-5.9h-3.4l-1-4.8l2-2l-5.2-2l-1.4-2.2l2-2  l1.3,2.2h1.9v-3.9l-6-9.4V645l5,0.6v-1.3l-1.8-6.6l3.8,1.2l1.3-2.1l-3.1-3.1l-0.2-6.8l-0.5-2l-0.2-6h-3v3l-8.4,6l-4.6,1.2l-2.2-1.4  l2.4-2.8l3.7,1.2l4-1.3V623h-2.9l-3.4-3.4l-2.6-0.4l-3.6-2.2l4.4-1.2v-3.6l-1.9-1.2l1.2-5.6l-3.2-6.2V598l1.8,1.2l1.2-2l-3-4.2  l1-2.8h2.5v-5.6l-5.8-9.2v-12.2l-2-1.2l-5.6,10.4l-7.6,9l1.2,4.4l-3,2.4l1.2,1.8l-5.2,4v2.9l4.5-2.3l4.9-4.2l-7.9,10l-1.6,0.8  l-5.2,4.4l4.3,6.1l-6.8,5.2h-1.9l-2.8-3.4l3.4,1.2l0.8-2.4l-4.6-7V594h-3l-4.8,7.6l-1.4,4.3l-7,5.4l1.2,2l2-1.2l-2.6,4.2h-1.3  l-2.6-6l1.2-8.4l1.3-4.8l-2.2,0.8l-14.3,16l3.4,0.6l-3.5,3.8l-3.3-5.5l-1.4-3.6l5,1.2v-1l-3-8.5v-0.7l3.2,1.2l-0.6-4.8l3-2.2l-6.4-6  v-2l3.2-7.6l-1.8-1.8l-3.4,1.4l-2.4,4.6l-7.6,8.2l-5,3.2v2l5.8-0.8l-8.8,9.8v1.8h2.3l-5.8,4.4l-1,1.4l-3.4,0.4l-3.4,0.3l-1.6-6  l-0.8-4.6l-2.4-2.8h-2.7l-10.6-4.8l-2.4-4.2l7,1.2v-2.2l-8.4-8l6.4-1.4v-1.6l-4.2-1.3l-7.3-7.2l5.4-1.4l2.2-1.4l-2.2-2.6l-6-1.4  l-3.4-5.3l-2-1.4l1.3-1.3l6.6-0.4l0.8-2.5h-2.8l-4-4.4l-1.2-2.2l5,1v-4l-3-1.2v-2.2l-7-9.2l-1.2-4.6h-1.6l-1.4,8.5l-6,12.6l2.2,2.6  l-2.9,3.8v3.5h2.9l2-3.5v3.3l-7,10.4l0.9,0.9l4.2-2.2v1.8l-4.3,9.8l-1.8,1.2l-0.6,8.3l-1.4,1.4l1,2.6l-4.6,1.2h-2.4l-1.3-6.9  l-4.8-6.6v-2.9l3,2.6l1.1-1l1.1-1.1l-3.4-5.2h-1.6l-1.2-3.2l3,1.2v-6l-3-4.4l-0.5-10l1.6-5.8l-2.6,0.8l-2.2,3.8l-2.4,2.8v1.7  l-5.2,6.2l1.2,2l-6.2,7.8v2.2h2.2l-5.4,9.6l-5,5.4l1.2,4l-4.8,11l0.8,0.8l-6.8,6.6l-6.4-3.8l-2.9-6l-7-4.8l-12.6,0.4l-5.2-2v-4.8  l-2.8-8l0.8-0.8l-6.9-8.1l-5-1.3l-0.2-3.4l0.2-1.4l-3.4-1.8l-12.2-1.4l-12.6-3.6l-17.2,4.6h-5.2l-28.8-7l-20.6-7l-8.4,1.2l-2.6-6.3  l-3.2-1.6l-22-0.3l-19.2-2.8l-5.4-2l-9.6-8l-11.8-0.2l-1,0.3l-10.6,0.8l-1.9,1.2l-12.4,0.6l-9,3l-12,1.6l-11,0.1l-15-7.7l-6.4-4.8  l-9.1-3.9l1.4-3.6l2.6-5v-3.2l-3-2.5l0.4-0.4l0.4-0.4l-13.2-13.6l-1.9-2.6l-1.9-2.6l-16.2-3.4l-10.8-3l-6.2-4.4l-3.5-1.6l-3.5-1.6  l-7.8-3.6l-7.8-3.6v-2h-2.6l-2.5-2.5l-6.4-0.4l-11.5,2l-9.4,0.4l-9.4,0.4l-6.8-4.4l-6.8-4.4l-4.7-3.4l-1.8-4l-1.8-3l-2.2-5.4  l-5.2-3.4l-13.4-0.4l-10.4-1.4l-3.8,2l-5.8,1l-6,1.2l2-1.6l2-1.6h-2.8l3-3.5l1.2-3.6h-3.5l-6.8,5l-2.6-10.4l-2.6-10.4l-1.4-2.4H995  l-8-2l-2-0.6l-2-0.6l-15-0.5l-18,1.6l-15,2l-5.4,2l-18.6,18l-7,1.2l-8,2.1l-8,2.1l-17,5l-11,0.4l-5,2.6l-5,2.6l-5.8-0.6l-3.2,2.4  l-0.4,0.3c-2.4,3.4-5.8,4.2-9.4,3.6l-1,0.6l-0.4-1c-1.1-0.3-2.1-0.7-3.2-1.1l-0.4,0.2v-0.4c-2.9-1.3-5.8-3.1-7.9-4.7  c-2-1.4-3.9-3-5.9-4.3l-1.5,0.4l-2.8-2.6l-0.7-0.6c-0.1,0-0.2-0.1-0.3-0.1v0.4h-1v-0.9c-0.6-0.3-1.3-0.5-1.9-0.7l-0.7,0.5l-3.5-1.8  c-3.9-1-7.9-1.6-11.9-1.8l-0.1,0.1l-21,0.8l-4.5,2.4l-4.5,2.4l-0.5,0.6l-0.5,0.6l-8.6,2.6l-7,6.6h-1.5l-6.2,6.4l-2.4,7.5H729l-6.6-4  h2.4v-3.8l-2.5-2.9l-2.5-2.9l-1.1-4.9l-1.1-4.9l-2.2-5.5h-1.2l-3.6,12v4.9l-5.8,11.6l2,3.6l1.4-0.6l1.4-0.6l-2.2,4.4l-4.8,6.4v2.1  h4.8l-1.5,5.5l-13.4-0.6l-0.5,2.1l-0.5,2.1l-1.6,0.1l-1.6,0.1l-1,0.2c-0.5,0.4-1.2,0.7-2,0.9c-3.5,0.8-7,1.1-10.5,1.2v1.5l-2.5-0.9  l-1.7-0.6c-0.5,0-1,0-1.5,0l-2.3,0.9l-3,1.1v1.4l-3.5,3.9l-3.5,3.9v1.4l-1.8,1.9l-1.8,1.9l-5.2,11l-1.3,4l-7,3.5h-0.9  c-0.1,0.1-0.2,0.1-0.3,0.2c-0.5,0.3-1,0.5-1.5,0.6v1l-3.6,1.2l-3,1.9l-17.7,4.1l-19,19.6l-1.8,4.6l-2.8,1l-4.1-2.5  c-0.5-0.1-0.9-0.3-1.3-0.5c-2.4-1.4-3.6-1.9-5.9-2.8c-1-0.4-1.8-1-2.5-1.7l-2-0.8l-7.2-4.8l1-3.6l-2-1.2l0.8-6.6l-5-3.8v-3.3l2-2  l-3.4-4.4l-4.4-5.4v-1.6l1.9,1l1.9,1l1-1.6l-2.8-3.4l-2.8-3.4l-2.4-4.6l5.4,3.6l1.4-1.9l1.4-1.9l-1.6-2.6l-1.6-2.6l-2.3-2L550,486  h0.9l2.8,1.4l2.8,1.4l1.6-1l-1.4-3.4l-5.8-8.4l-1-9.6l-3-3.4l0.7-2.1l0.7-2.1h-2.8l-3.2,3.5l-1.4,5.6h-1.2l-3.6,7.6l-3.9,5.2  L528,485v2.2l3.6-1.4l3.5-1v2.8l-10.8,24l2.6,5l-2.6,3.4h-0.8c-0.2,0.7-0.6,1.4-1.1,2h0.9l-4.5,3.8v3.1l-2,1.2v3.8l-7.4-5l-1.1-1.2  l5.4,1l3.6-2.8l-4.5-3.8v-5.2l-7.4-7.4l2.4-0.6l2.4-0.6v-2.9l-2.3-1.1l-2.3-1.1l-5-6.6V494h-1.6l-0.4-7.6l-2-0.6v-4.5l-2.6-3.6  l-1,0.6l-1,0.6l-2.5,14.1l-0.9,0.6l-0.9,0.6v3.7l-1.7-0.1l-1.7-0.1l-1.1,5.5l-1.1,5.5l-2.1,5.5l-2.1,5.5l-3.6,9.4l-6.6-0.2l-1.4-2.2  l-0.4-2.8l-1.9-2.1l-1.9-2.1l-3.6-5.6l4.3,2.3l1.4-0.5l1.4-0.5v-3.9l-2.4-1l1.4-0.1l1.4-0.1l2.6-3.4l-2-2.6H464v-2h-2.9l-1-1.9  l-1-1.9V497l4.6,4.4l1.7-0.6l1.7-0.6l-7-12.6l-1-9.4l-1.1-1.1l-2.1,1.9l-2.1,1.9l-2.6,5.3l-2.6,5.3h-1.2l-3.6,6h2.2l2.2-1.1l2.2-1.1  l-2.5,2.4l-2.5,2.4l-1.3,1.9l-1.3,1.9l-1.9,3l-1.9,3l-2.2,2.5h1.8l2.5-3h1.9l-3.6,6.2l-2.4,1v2.8h-2v4h2.4l6.6-4l-3,5.6l-2.4,4  l-5.7,7.5l-2-1.2l-3.6-8.4l-3.6-3h-13.5l-5.6-4.2l-0.6-3.2l5.6-0.6l0.6-3l-2.9-1.9l-2.9-1.9l1-2.4l-1-0.6l-1-0.6l1-2.7l-2.4-2.9  l-2.4-2.9l-0.6-1.8l-0.6-1.8h3.9v-2.1l-7.4-7.4l-5.6-11v-2.4h-2l-0.9,2.2l-0.9,2.2l-1.6,5.4l-1.6,5.4v2.9l-1.9,3.7l-1.9,3.7l0.4,3.3  l0.4,3.3l-1.6,3.4l-1.6,3.4l1.4,2.4l2.6-3.6v2.3L378,512l-2.1,1.5l-2.4,5.8l-2.4,5.8l-1,2.3l3.1,1.4l3.1,1.4v3.2l-5,7.4v0.9h3.9  l7.5-6.5l-3.4,4.9l-3.4,4.9l-0.9,1.5c0.2,1.3-0.3,2.6-1.7,3.7c-0.5,0.4-0.9,0.7-1.2,1.1l-0.5,0.7l-3.5,5.7c-0.2,0.6-0.3,1.2-0.5,1.8  l0.6,0.8l1,1.2l-1.4,1.4l-0.1,0.7l-0.1,0.7l-4.6,7.6h-2l-1.6,0.2l-3.7,2l-0.1-0.1c-0.4,0.3-0.8,0.6-1.2,0.8l-1.4,2.9l-0.9,1.8  c0,1.3-0.4,2.7-1.4,3.7c-0.4,0.4-0.8,0.7-1.3,0.9l-3.7,4.6l-5.5,1.3v-2.9l-7.6-5.2l-7.4-3l1.1-4h1.4l2.9-5.5l2.9-5.5h1.2  c0-0.4,0.1-0.8,0.2-1.2c0.1-0.2,0.1-0.3,0.2-0.5V560h0.9c0.3-0.8,0.7-1.5,1.1-2.2v-4.6l-2.8-5.4l2.4-6.8l-2-14.8l-4-3.7l-10-2.6  l-8-3l-5-1l-11-0.6l-16.6-1.6l-4.4,2.2l-13.6,6l-0.4-0.2l-10,5.6v-0.5l-3,1l-8,2.3l-1.9,1.5l-1.9,1.5l-1.4,9.6l0.4,5.5l0.4,5.5l1,4  l0.6,2.1l0.6,2.1l-6,2.6l-2.4,3l-7.6,3.8l-1.9,2l-1.9,2l-2.4,8.2l-0.4,2.1l-0.4,2.1l-0.4,2.6l-0.4,2.6l-5.6,8.7l-6,7.4h-1.9  l-4.9-1.1l-4.9-1.1l-5.1-5.4L181,596v-4.9l-1.2-3.2h-2.4l-3.4-5.8V578l2.5,0.5l0.6-5.8l-2.1-2.8l-2.1-2.8V566h3v-1.1l-1.1-2.1  l-1.1-2.1l2.4-1.4l-2.3-4.3h-1.9l-3-10.4v-1.2l4,6.5h0.6l-0.1-8.2l-0.1-8.2l-1.1-2.8l-1.1-2.8v-8.8l-1.6-1l-7.4,8.4l-8,9.6v1.9h1.7  l5.6-4.4l-3.6,5.4H156v3h-1.6l-1.8,3l-1.8,3l0.4,2.6l-0.1,1.1l-0.1,1.1l-3.7,4l0.1,5.3l0.1,5.3l-1.9,1.1l-1.9,1.1l-4.5,3.7l1,2.8  h-1.6l-4.6-5.4V567h-5v-2h3v-3.1l-3.4-5.4l-5.2-5.8l3.4,1.2l1.1-1.4l1.1-1.4l-1.7-2.6l-1.7-2.6h-1.3l-1.7-5.8l-1.7-5.8v-9L120,522  l-0.9-1.5l-1.6,1.6l-1.6,1.6l-0.4,2.1l-0.4,2.1l-2,7.6l-2.8,4l-2.8,4l-0.1,3l-0.1,3l-1.7,1.3l-1.7,1.3v2l-3,2.4l0.6,1l0.6,1  l-3.1-0.6l-3.1-0.6l-0.6,1l-0.6,1H93l-7.5-7l0.3-4.2l0.2-4.2l0.4-9l-2.9-6l-4-3.6H78l-1.2-6.5l-2-8l-3.9-2.3l-3.9-2.3V504h-2.4l-7-6  H55v-3l-2.3-0.6l-2.3-0.6l-9,2H31l-0.1-0.8l-0.1-0.8l-1-6l-0.9-1l-0.9-1v-4.7l-1.5-0.6l-1.5-0.6v-2.2l-1.9-2.2l-1.9-2.2l-5.4-2  l-2.7-0.5l-2.7-0.5l-5.2-1.4L0.4,468l0.3,141.9L1,753L0.8,895.8L0.5,1038l1749.8-0.3l1750.2-0.2l0.6-544L3499.9,444z M1763,663h-1  v-1h1V663z M458,495h1v1h-1V495z M537,482.1L537,482.1l-1.1,2.1l-0.6-0.6l-0.6-0.6l2.5-3h0.8L537,482.1z M813,440h-1v-1h1V440z   M1014,436h-1v-1h1V436z M1582,556h-1v-1h1V556z M1669.3,620.2L1669.3,620.2l-2.1,2.1l-2-1.2l-1-4h2.8v2.2l4.4-1.2L1669.3,620.2z   M1766,671h-1v-1h1V671z M1786,640h-1v-1h1V640z M1845,682h-1v-1h1V682z M1848,664h-1v-1h1V664z M1857.1,703l-1.2-2h1l1.2,2H1857.1z   M3230,552h1v1h-1V552z M3467,412h-1v-1h1V412z"
   id="path1123" />
</svg>
