<?xml version="1.0" encoding="UTF-8" standalone="no"?>
<svg
   version="1.1"
   id="svg6"
   x="0"
   y="0"
   viewBox="0 0 3500 1038"
   style="enable-background:new 0 0 3500 1038"
   xml:space="preserve"
   sodipodi:docname="layer7.svg"
   inkscape:version="1.2.2 (732a01da63, 2022-12-09)"
   xmlns:inkscape="http://www.inkscape.org/namespaces/inkscape"
   xmlns:sodipodi="http://sodipodi.sourceforge.net/DTD/sodipodi-0.dtd"
   xmlns="http://www.w3.org/2000/svg"
   xmlns:svg="http://www.w3.org/2000/svg"><defs
   id="defs378" /><sodipodi:namedview
   id="namedview376"
   pagecolor="#505050"
   bordercolor="#eeeeee"
   borderopacity="1"
   inkscape:showpageshadow="0"
   inkscape:pageopacity="0"
   inkscape:pagecheckerboard="0"
   inkscape:deskcolor="#505050"
   showgrid="false"
   inkscape:zoom="0.69142857"
   inkscape:cx="1102.0661"
   inkscape:cy="591.52893"
   inkscape:window-width="1920"
   inkscape:window-height="1017"
   inkscape:window-x="-8"
   inkscape:window-y="-8"
   inkscape:window-maximized="1"
   inkscape:current-layer="svg6" />
    <style
   id="style370">
        .st1{fill:#2c0404}
    </style>
    
    <path
   class="st1"
   d="m 1722.5,1032.8 -4.7,-2 -4.7,-2 0.7,-1.1 0.7,-1.1 -3.3,1.3 -1.2,-2 -1.2,-2 h -2.4 l -5,-5 h -2.1 v -2.2 l -3.5,1.4 -2.7,0.8 -2.7,0.8 -1.7,-5.5 -1.7,-5.5 -1.8,-1 -1.8,-1 -1.6,-3.2 -1.6,-3.2 -2.5,-2.7 -2.5,-2.7 -2.7,-7.8 -2.8,-7.8 -6.5,-2.7 -6.5,-2.7 -6.1,-4.1 -6.1,-4.1 -5.1,-1.9 v 1.9 l -2.6,-1 -2.6,-1 -1.9,1 -1.9,1 -3.6,-3.2 -3.6,-3.2 -9.2,-12.2 -10.2,-10.6 -10.2,-10.6 -0.7,-9.2 -0.7,-9.2 -0.6,-3.7 -0.6,-3.7 -3.7,-2.6 -3.7,-2.6 -2.8,-7.1 -2.8,-7.1 -6,-9.4 -6,-9.4 -2.9,-5.7 -2.9,-5.7 1,-5.4 1,-5.4 -0.9,-2.4 -0.9,-2.4 -0.7,-5.9 -0.7,-5.9 -2.3,-3 -2.3,-3 -4,-8.5 -4,-8.5 -2.3,-6 -9.7,-15 -11.7,-2 -0.2,-2.5 -0.2,-1.8 -0.2,-1.8 -4.1,-4.9 -3.7,-0.4 -3.7,-0.4 -4,-0.5 -2.6,2 0.4,-8.8 -1.3,-6.7 -1.3,-6.7 1.1,-4.8 1.1,-4.8 -2.3,-4.4 -8,-9.5 -4,-4.2 -4,-4.2 -18.7,0.2 -18.7,0.2 -0.7,0.7 -0.7,0.7 -4.8,-1.8 v 2.2 l -3.5,-1.5 -7.9,-0.2 -7.9,-0.2 -0.9,-1.5 -0.9,-1.5 -2.5,-2.6 -3.9,-5 -3.9,-5 -1.6,-1.6 -1.6,-1.6 -2.1,-1.1 -2.1,-1.1 h -5.1 l -14.1,-4.4 -15.8,-17.1 -7.9,-8.8 -0.6,-5 -0.6,-5 -1.8,-1.4 -1.8,-1.4 -3.9,-1.1 -3.9,-1.1 -2.3,0.4 -2.3,0.4 v -2.2 l 3,-3.5 3,-3.5 v -3.4 l -1,-0.3 -1,-0.3 -1.2,-12 -1.3,-3 -1.3,-3 -4.3,-3.6 -4.3,-3.6 -11.9,-9.1 h -5.8 l 0.7,-2.2 0.7,-2.2 -0.1,-3 0.6,-1.5 0.6,-1.5 0.8,-5 1.3,-3 -0.2,-1.2 -0.2,-1.2 h 2.2 l -0.3,-1.9 -0.3,-1.9 23.5,-15 4.5,-2.7 4.5,-2.7 4.7,-6.3 1.2,-7.5 4.5,-15.5 4.5,-15.5 1.1,-6.7 1.1,-6.7 4.2,-4.9 4.2,-4.9 6.5,-5.6 6.5,-5.6 3.2,-2.1 3.2,-2.1 V 468 l 1.1,-2.2 1.1,-2.2 5.9,-5.6 5.9,-5.6 0.6,-5.4 0.6,-5.4 0.9,-3.5 c 2.0687,-5.54704 0.7509,-11.03938 -1.5,-15.5 l -1.7,-2 -1.7,-2 -5.2,-10 V 407 l -4.1,-9 2.2,-3.1 2.2,-3.1 -0.1,-2.9 -0.1,-2.9 -1.5,-3 -1.5,-3 -1.2,-5.5 7.9,-11 4.5,-6.6 4.5,-6.6 V 346 l -1.5,-0.6 -1.5,-0.6 V 340 l -1,-1.7 -1,-1.7 -6.2,-16 c -21.6361,-24.20117 -67.6074,1.01997 -87.8,7 l -15.8,5 -15.8,5 -4.3,0.2 -1.1,0.8 -1.1,0.8 c -12.957,1.69423 -21.6724,3.22556 -33.8,6.5 l -10,2.7 -4.6,1.5 -4.6,1.5 -1.9,0.4 -1.9,0.4 -7,2.2 -7,2.2 -10.5,2.9 -10.5,2.9 -2,0.3 -2,0.3 -1.3,0.8 -1.3,0.8 -3.2,0.5 -3.2,0.5 -3.5,1.1 -3.5,1.1 -1,0.7 -1,0.7 -6,1.8 -6,1.8 -3.3,1.4 -3.3,1.4 h -3 l -18.9,9.8 v -0.7 l -6.7,3.4 -6.7,3.4 h -4 l -6.4,-2.2 -6.4,-2.2 -5.2,1.8 -5.2,1.8 -1,0.8 -1,0.8 -2.7,0.5 -2.7,0.5 -1.9,0.6 -1.9,0.6 -4.1,-4.1 -3,1.5 -3,1.5 v -1.3 l 2.6,-3.1 2.6,-3.1 -1,-0.3 -1,-0.3 -6.1,3.2 v -4.1 l 1.5,-3.6 1.5,-3.6 v -3.2 l -3.5,3.9 -3.5,3.9 v 4.2 l -0.9,-1.5 -0.9,-1.5 -1.5,3.5 -1.5,3.5 v -8.8 l -3,2.5 v 7.9 l -3.5,1.5 -3.5,1.5 -7.7,2.4 -7.7,2.4 -8.5,2.2 -8.5,2.2 -4,0.9 -4,0.9 -4,2.8 -4,2.8 -5.6,3.2 -5.6,3.2 -0.6,3.1 -0.6,3.1 v 5.5 l -2.2,1.5 -2.2,1.5 -2.2,1.9 -2.2,1.9 -5.2,4 -3.2,2.5 -3.2,2.5 -4,2.9 -4,2.9 -5,5.2 -5,5.2 -6,3 -5.9,-0.3 -5.9,-0.3 -5.4,-1.1 -5.4,-1.1 -3.4,2.3 -3.4,2.3 -3.7,5.8 -3.7,5.8 -4.2,3.7 -4.2,3.7 -2.9,1.5 -2.9,1.5 -4.4,2.8 -4.4,2.8 h -4.3 l -0.7,0.7 -0.7,0.7 -1.2,0.3 -1.2,0.3 -7,1.9 -7,1.9 -8,0.6 -8,0.6 -6.2,1.1 -6.2,1.1 -7.1,-3.8 V 498 l -5.5,-3.6 -6,-4.4 h -1.9 l -0.4,-1.2 -0.4,-1.2 -5.7,-0.3 -5.7,-0.3 -5.8,1.3 -5.8,1.3 -5,2.2 -5,2.2 -3.5,1 -3.5,1 -1.5,0.3 -1.5,0.3 -8,3.5 -4.5,1.1 -4.5,1.1 -2.8,1 -2.8,1 -2.5,5.6 -2.5,5.6 -1.6,4 -4.7,9.5 -1.5,0.1 -1.5,0.1 -2,0.5 -2,0.5 -2.5,0.4 -2.5,0.4 -6.4,0.1 -6.4,0.1 -4.1,-2.8 -4.1,-2.8 -5.5,-0.1 -5.5,-0.1 -2.7,1.3 -2.7,1.3 -2.8,0.2 -2.8,0.2 -2.8,2.2 -2.7,2.2 -3.5,1.3 -3.5,1.3 v 1.5 l -11.5,5.4 -0.6,1 -0.6,1 -10.7,5.2 -1.5,4.5 -1.5,4.5 -0.7,0.3 -0.7,0.3 -6.1,1.4 -6.1,1.4 -2.8,-2.3 -2.8,-2.3 -1.2,-2.8 -1.2,-2.8 h -2.4 l -2.5,-4 h -2.9 l -1.3,-1.8 -1.3,-1.8 -6.5,-4.5 -1.1,0.7 -1.1,0.7 -7.1,1.4 -7.1,1.4 h -6.5 l -3.3,-5 h -2.7 l -0.9,-1.7 -0.9,-1.7 -6.9,1.1 -6.9,1.1 -7,0.6 -7,0.6 -3.8,1 -3.8,1 -4.1,4.5 -4.1,4.5 -14.9,11.2 -1.4,3.6 -1.4,3.6 -1.6,2.9 -1.6,2.9 0.7,5.6 0.7,5.6 3,4.5 h -1.3 l 1.3,1.6 1.3,1.6 4.7,-0.3 4.7,-0.3 -0.7,1 -0.7,1 -0.3,10 -0.1,1.2 -0.1,1.5 -4.2,2.7 -4.2,2.7 -3.7,2.1 -3.7,2.1 -4.6,4.3 -4.6,4.1 -2.5,4 -2.5,4 -2.2,-0.8 -2.2,-0.8 h -20 l -6,0.6 -6,0.6 -1.3,-1 -1.3,-1 -3.2,0.6 -3.2,0.6 7.5,-6.2 V 623 h -1.6 l -1.4,1.2 -1.4,1.2 1.9,-2.3 1.9,-2.3 -2,-2 -4,3.5 -1.2,2.3 -1.2,2.3 -2.6,-2.6 -2.6,-2.6 -2.1,-0.2 -2.1,-0.2 -5,-0.4 -2.6,-0.4 -2.6,-0.4 -2.9,1.4 -2.9,1.4 -4.5,3.9 v 2.3 l -12.5,-0.9 -2.9,-1.5 -2.9,-1.5 h -11.6 l -1.8,2 -1.8,2 -5.5,2.3 -5.5,2.3 -5.6,2.6 -5.6,2.6 -1.3,3.3 -1.3,3.3 -1.2,-2.2 -1.2,-2.2 -1.7,-0.6 -1.7,-0.6 -9.1,1.2 -9.1,1.2 -1.7,0.7 -1.7,0.7 -1.2,5 -1.2,5 1.1,1.1 1.1,1.1 v 1.3 l -7,1.1 -8.5,-4.4 -3,-3 -3,-3 -3.2,-1.3 -3.2,-1.3 V 644 h -4.9 l -0.7,-1.1 -0.7,-1.1 -4.1,0.6 -4.1,0.6 -2.3,-5.9 -2.3,-5.9 -3.6,-3 -3.6,-3 H 267 l -3,-3.1 -3,-3.1 0.9,-2.5 0.9,-2.5 v -8 h -1.6 l -2.4,-6.6 v -1.2 l 2.5,-2.7 2.5,-4.4 V 588 l -1.8,-3.7 -1.8,-3.7 -2.3,-4 -2.3,-4 -1.6,-1.8 -1.6,-1.8 H 248 l -12.2,7.1 -12.2,7.1 -14.8,6.7 h -6.6 l -1.3,1.2 -1.3,1.2 -3.7,1.9 -3.7,1.9 v 1.9 l -1.5,-0.6 -1.5,-0.6 v 1.9 h -1.9 l -3.4,2.2 -3.4,2.2 -5.7,3.1 -0.8,0.2 -1,0.6 -3,1.5 -3,1.5 v 1.9 l -0.8,-0.2 -0.8,-0.2 -6.7,2.2 -6.7,2.2 h -2.9 l -0.6,1.5 -0.6,1.5 -3,1 -3,1 -0.7,2.2 -0.7,2.2 -3.4,4.8 -3.1,4.9 v 1.4 l -3.3,3 -3.3,3 -1.1,4.5 2.9,3.7 2.9,3.7 v 3.3 l -2.2,0.2 -2.2,0.2 -3.1,1.2 -3.1,1.2 -0.5,0.6 -0.5,0.6 -4.4,1.9 -4.4,1.9 -1.9,-0.1 -1.9,-0.1 -2,3.2 -2,3.2 -3,6.2 -3,6.2 -3.8,1.1 -3.8,1.1 -4.6,0.6 -4.6,0.6 -8.8,-2.2 L 63.5,683 59.6,680.5 56,678 v -3.6 l 2.2,-2.2 -2.6,-7.2 -3.3,-0.9 -3.3,-0.9 -1.6,-1.6 -1.6,-1.6 -2.9,-0.1 -2.9,-0.1 -1.5,-0.3 -2,-0.6 -2,-0.6 -4,-0.6 -4,-0.6 -4,-0.7 -1.5,-0.4 -1.5,-0.4 -4,-0.8 -4,-0.8 -4.3,-1.8 -4.2,-2.1 -1.5,0.6 -1.5,0.5 v 11.4 L 2.4,665 H 0 v 373 h 1733 v -1.8 l -5.2,-1.7 z M 1424,715 h -1 v -1 h 1 z m 4,1 h -1 v -1 h 1 z m 3,0 h -1 v -1 h 1 z m 2,0 h -1 v -1 h 1 z"
   id="path373"
   inkscape:label="Layer 7 view"
   sodipodi:nodetypes="ccccccccccccccccccccccccccccccccccccccccccccccccccccccccccccccccccccccccccccccccccccccccccccccccccccccccccccccccccccccccccccccccccccccccccccccccccccccccccccccccccccccccccccccccccccccccccccccccccccccccccccccccccccccccccccccccccccccccccccccccccccccccccccccccccccccccccccccccccccccccccccccccccccccccccccccccccccccccccccccccccccccccccccccccccccccccccccccccccccccccccccccccccccccccccccccccccccccccccccccccccccccccccccccccccccccccccccccccccccccccccccccccccccccccccccccccccccccccccccccccccccccccccccccccccccccccccccccccccccccccccccccccccccccccccccccccccccccccccccccccccccccccccccccccccccccccccccccccccccccccccccccccccccccccccc" />
</svg>
