<?xml version="1.0" encoding="UTF-8" standalone="no"?>
<svg
   version="1.1"
   id="svg4"
   x="0px"
   y="0px"
   viewBox="0 0 3500 1038"
   style="enable-background:new 0 0 3500 1038;"
   xml:space="preserve"
   sodipodi:docname="layer8.svg"
   inkscape:version="1.2.2 (732a01da63, 2022-12-09)"
   xmlns:inkscape="http://www.inkscape.org/namespaces/inkscape"
   xmlns:sodipodi="http://sodipodi.sourceforge.net/DTD/sodipodi-0.dtd"
   xmlns="http://www.w3.org/2000/svg"
   xmlns:svg="http://www.w3.org/2000/svg"><defs
   id="defs1189" />
<style
   type="text/css"
   id="style1183">
	.st0{fill:#240404;}
</style>
<sodipodi:namedview
   bordercolor="#eeeeee"
   borderopacity="1"
   id="namedview6"
   inkscape:current-layer="svg4"
   inkscape:cx="1757.2314"
   inkscape:cy="523.55371"
   inkscape:deskcolor="#505050"
   inkscape:pagecheckerboard="0"
   inkscape:pageopacity="0"
   inkscape:showpageshadow="0"
   inkscape:window-height="1017"
   inkscape:window-maximized="1"
   inkscape:window-width="1920"
   inkscape:window-x="-8"
   inkscape:window-y="-8"
   inkscape:zoom="0.34571429"
   pagecolor="#505050"
   showgrid="false">
	</sodipodi:namedview>
<path
   class="st0"
   d="M3500.5,864.4l-0.7-164.1l-1.1,0.2l-1.1,0.2l-2.5,0.8l-2.5,0.8l-3.4,1.5l-3.4,1.5l-2.2,0.5l-14,6.4l-3,1.6  l-14,7.7l-4.3,2.1l-4.3,2.1l1.1,1.1l-5.6,3.6l-4.2,4.6l-4.2,4.6l0,0.6l0,0.6l-3.5,4.2l-3.4,4l-3.4,4l-7.1,7.4l-7.1,7.4l-8.8,10.2  l-1.2,2.4l-1.2,2.4l-5,7.4l-6.3-5.3l-6.2,2.2l-6.2,2.2l-6.4,3.7l-0.6-1l-0.6-1l1.2-17.4l-0.9,1l-0.9,1l-1.3,4.2l-1.3,4.2l0.5,7.3  l0.5,7.3l1.5,4l-1.8-2.4l-1.8-2.4l-3.5-9.2l-2.2-0.7l-0.1,1.8l-0.1,1.8l0,4l0.7,2.6l0.7,2.6l-2.2,0.6l-2.2,0.6l0.6,1l0.6,1  l-16.8-0.2l-16.8-0.2l-1.3,0.8l-1.3,0.8l-5.5-0.1l-5.5-0.1l-5.2,1.4l-5.2,1.4l-4.9,1.5l-4.9,1.5l-0.8-0.5l-0.8-0.5v2.1h-3.5l-3.7,2  l-3.7,2h-4.6l-2.4-1.7l-2.4-1.7l-3.5-3.4l-3.5-3.4l-5.1-7.4l-5-9l-3.4-3.2l-7.4-3.5l-0.1-1.6l-0.1-1.6l0.2-3.2l0.2-3.2l-2.3-7  l-0.7,0.1l-0.7,0.1l-6-1.5l-4-2l-4-2l-4-0.5l-4-0.5l-2.9-1.4l-2.9-1.4h-3.3l-1.9-1.8l-1.9-1.8l-4.8-2.2l-4.8-2.2l0-1.5l-8.6-5.5  l-2.7-5l-8.2-5.6l-1-1.2l-5-1.5l-2.7-3.2l-2.7-3.2l-13-7.8l-0.5-1.5l-0.5-1.5l-1.3-1.7l-1.3-1.7l8.5-8.2l-0.1-3.7l-0.1-3.7l-0.1-26  l0.1-6.6l0.1-6.6l1.4-5.9l1.4-5.9l-0.2-4.1l-0.2-4.1l-1.8-4.9l-1.8-4.9l-1.1-1.7l-1.1-1.7l-5.9-4l-5.9-4l-1.6,0l-1.6,0l-4.9-2.6  l-4.9-2.6l-0.6-0.9l-0.6-0.9l-5.2-0.4l-5.2-0.4l-2-1.2v1.8l-10.5,0.1l-2.2,0.7l-2.2,0.7l-6.3,0.5l-6.3,0.5l-2,0.3l-2,0.3l-3,0.8  l-3,0.8l-1.3,1l-1.3,1l-0.6-0.6l-0.6-0.6l-3.4,1.4l-3.4,1.4l-0.8-0.2l-0.8-0.2l-2.9,1.2l-2.9,1.2l-1.3-0.5l-1.3-0.5l-1.1,1.4  l-1.1,1.4l-1.4-0.5l-1.4-0.5v2.4l-1.4-0.5l-1.4-0.5l-1.2,1.4l-1.2,1.4h-3.4l-1.5,1.5l-0.7,0l-0.7,0l-12.5,4.7l-1.1,1.7l-4.4,0  l-2.9,1.5l-2.9,1.5h-2.5l-3.3,6.5l-2.1,15l-1.8,27l-0.1,9.1l-0.1,9.1l3.6,3.4l3.6,3.4l1.9,3.8l2,3.8l-0.6,1l-0.6,1l-4.7,2.1  l-4.7,2.1l-3.1,3.3l-3.1,3.3l-6.8,0.7l-6.8,0.7l1.4-2.3h-4.1v2.1l-0.9-0.6l-0.9-0.6l-6.3,5.9l-2.2-0.9l-2.2-0.9l-10-10l-3.8-4.2  l-3.8-4.2l-4.7-2.1l-4.7-2.1l-0.5-0.6l-0.5-0.6l-2.7-1.4l-2.7-1.4l-4.5-4.2l-13,0.2l-6.2,1.3l-8.9-4.5l-8.9-4.5l-12-3l-13-0.6  l-13-0.6l-3-2.1l-3-2.1l-1.8-1.8l-1.8-1.8h0.9l-2.4-5.1l-2.4-5.1l-1.8-1.3l-1.8-1.3l-3.8-0.6l-3.8-0.6l-8.1-3.2l-8.1-3.2l-2.3-2.1  l-2.3-2.1l-1.7-1.4l-1.7-1.4l-5.2-2l-5.2-2l-3.5-0.8l-3.5-0.8l-7-0.7l-7-0.7l-3.3-1.4l-3.3-1.4h-6.6l-9.5,2.4l-9.5,2.4l-8,3.3  l-3.2,1.4l-3.2,1.4h-2.8l-2.7,1.2l-2.7,1.2l0,1.5h-2v-1c-0.4,0.4-0.9,0.8-1.6,1c-3.1,1.3-6.3,2.6-9.5,3.8l-1.3,1.1l-0.6-0.4  c-0.5,0.2-1,0.3-1.5,0.5l-0.6,0.9l-2.2-0.1c-2.1,0.6-4.3,1.1-6.5,1.5l-0.5,0.5l-0.7-0.3c-0.7,0.1-1.4,0.1-2-0.1v1.6l-8.5-0.4l-2-1  l-2-1l-2-2.5l-2-2.5l-0.2-1.3l-0.2-1.3h1.5l0.1-7.2l0.1-7.2l-1.7-2.2l-0.2-4.7l-0.2-4.7h-1.7v-2.8l-0.9-0.3l-0.9-0.3l-0.3-2.6  l-0.3-2.6l-3.1-4.8l-0.7-3.8l-0.7-3.8l-0.6-1.6l-0.2-0.6c-0.2-0.3-0.4-0.7-0.5-1c-0.1-0.1-0.1-0.3-0.2-0.4l-3.8-1.4l-5-2.3l-2.7-1.9  l-2.7-1.9l-1,0.6l-1,0.6l-5.3-5.9h-5.9l-0.5-0.8l-0.5-0.8l-5.8-1.4l-5.8-1.4l-6.5-0.2l-6.5-0.2l-25.9-1.2l-0.7-0.7l-8.9,2.7V587  h-8.6l-2,1.3l-2,1.3l-7,2.7l-8.8,4.3l-8.8,4.3l-10.5,7.7l-2.3,2.9l-2.3,2.9l-1.7,2.6l-1.7,2.6l-4.1,5.4l-4.1,5.4l-3.6,3.8l-3.6,3.8  l-2.2,4.1l1.1-0.7l1.1-0.7v7.1h2v2.6l-15.8,2.4l-15.8,2.4l-3,0.3l-11,1.5l-2.5,0.4l-2.5,0.4l-22,3l-18,2.1l-9.5,1l-9.5,1l-14.5,1  l-14.5,1l-7.1,0.6l-7.1,0.6l-0.2-5.3l-0.2-5.3l0-12l0.1-3l-0.7-9l0.8-1.7l0.8-1.7l-0.8-0.5l-0.8-0.5l0.3-15.8l0.3-15.8l0.6-34  l0.6-34l0.3-24.6l0.3-24.6l0.8-1.3l0.8-1.3l0.2-14.1l0.2-14.1l1.8-11.2l1.8-11.2l-0.7-0.7l-0.7-0.7l-0.6,0.6l-0.6,0.6l-1.3,5.3  l-1.3,5.3l1.1-17l0.4-2.5l0.4-2.5l1-29.5h-0.7l-0.7,0.7l0,0l-0.7,0.7l0,3.1l0,3.1l-0.9-1.4l-0.9-1.4l-2.2,1.4v5.7l-0.9,0.3l-0.9,0.3  l-2.3,21l-1.2,23.3l-1.2-0.5l-1.2-0.5l-1.5,7.6l-0.3,8.5l-0.3,8.5l-0.2,3.5l-0.2,3.5l-0.8-3.3l-0.8-3.3l-0.6-0.6l-0.6-0.6l-0.1,42.9  l-0.1,42.9l-0.6,34l-0.4,1l0.5,2l-0.3,10l0.2,2.5l0.2,2.5l0,4l-1.4,45l0,4l0,4l0.6,3l0.6,3l-0.8,1.2l-0.8,1.2l-12.5,0.6l-12.5,0.6  l-61,0l-17-1l-9-0.5l-9-0.5l-7.5-0.5l-7.5-0.5l-7.5-1l-7.5-1l-4-0.5l-4-0.5l-3.5-0.6l-3.5-0.6l-4-0.4l-4-0.4l-23-4.2l-7-1l-3.5-0.9  l-3.5-0.9l-8-1.7l-8-1.7l-15-4l-5-1.4l-5-1.4l-8.8-2.7l-8.8-2.7l1.4-1.6l1.4-1.6l0.5-2.2l0.5-2.2l-2.4-3.3l-3.9,0.8l0.1,1.8l0.1,1.8  l-2.6-0.3l-2.6-0.3l-0.3-4.2l-0.3-4.2h-1.5l-1,1l-1,1l-2.5,0.4l-2.5,0.4l-0.6,2.4l-0.6,2.4l-2.2,0.3l-2.2,0.3v-3.1l-2.1-1.1  l-2.1-1.1l-1.3,1.3l-1.3,1.3l-0.5,4.2l-0.5,4.2h5.6l-0.5,3.5l-2.4,0.3l-2.4,0.3l-0.9,0.9l-0.9,0.9l2.1,2.1l6.8,0.2l1.2,1.6l1.2,1.6  l-1.1,3.5h2.3l-0.7,9.8l-0.7,9.8l-0.7,16l-1.1,25l-1,31l-0.9,15l-0.5,9l-0.5,9l-1.2,26l-0.6,54l-0.7,14l-0.7,14l-0.4,2.8l-0.4,2.8  l1-0.6l1-0.6v3.2l-1.1-0.6l-1.1-0.7l0,4.3l0,4.3l-0.1,6l-0.1,6l0.7,3.5l0.7,3.5l-1.9-5l0,4l0,4l-0.1,4l-0.1,4l-1.9-3.2  c0,0.1,0,0.1,0,0.2c-0.4,2.2-2.7,3.4-4.7,3.6c-0.1,0-0.1,0.1-0.2,0.2c0,0-0.1,0.1-0.1,0.1l-0.3,0.2l0,0c-0.4,0.3-0.8,0.7-1.2,1  c-1.1,0.9-2.5,1.4-3.8,1.4c-0.8,0.7-1.7,1.3-2.6,1.9l0.3,0.2h-0.7c-1.5,0.9-3.1,1.6-5,2c-0.2,0-0.5,0.1-0.7,0.1l-1.9,0.9l-2.8,1.3  l-20,8.5l-3.8,1.8l-3.6,1.7c0.1,0.4,0.1,0.9,0.1,1.4l0.6,2.3l-0.6-0.1l-0.5-0.1c-0.2,0.4-0.5,0.8-0.8,1.2l1.7,1.2l-2.3-0.7  c-0.4,0.3-1,0.6-1.6,0.7c-1.5,0.4-3.1,0.7-4.6,0.9l0.9,1.4l-3.4-0.4l-3.4-0.4v-0.5c-3.9-0.3-7.7-1.2-11.4-2.6l-0.6-0.1l-2.4-0.5  l-0.6-0.9c-0.4-0.2-0.7-0.3-1.1-0.5l0,0.8l-0.8-1.2c-1.1-0.5-2.2-1.1-3.2-1.6l-1.9-0.3l-1.4-1.5c-4.7-2.7-9.1-5.6-13.4-8.1l-0.8,0.2  l0.5-0.4c-1.1-0.7-1.8-1.7-2.1-2.7l-0.3-0.2l-2.9-0.3l-2.9-0.3l1.4,2.5l-1.2-1.1l-1.2-1.1l0.6-1.7l0.6-1.7l0.9,0.6l0.9,0.6v-2.2  l2,1.2v-2.2l0.8,0.4l0.8,0.4l1.3-0.5c0.2-0.3,0.5-0.7,0.8-1c0.6-0.6,1.2-1.1,1.7-1.7l-0.7-1.1l0.9,0.8c3.6-4.4,4.2-9.7,4.1-15.2  l-2.1,1.1l2.1-1.9c-0.1-2.3-0.2-4.7-0.4-7l-0.1,0l-1.3-0.4l0,0l0.6,2.8l0.6,2.8l-1.1-2.5l-1.1-2.5l1-0.7l0,0l0,0l0.7-0.5l0.6-0.5  c-0.1-3.5-0.3-6.9-0.7-10.2l-1,0.6l1-1c-0.2-1.3-0.4-2.5-0.7-3.8l0,0l-0.3-1.4c-1.1-4-3.1-7.7-6.7-10.9c-0.1,0-0.1-0.1-0.1-0.1h-0.6  v-0.6c-0.3-0.4-0.5-0.8-0.7-1.2l-5.8-3l-4.5-0.1l-4.5-0.1l-2.5-0.5l-2.5-0.5l-44,0l-11,1.9l-11,1.9l-10.2,5.5l-10.2,5.5l0.5,0.5  l0.5,0.5l0.2,8.5l0.2,8.5l-1.6,2.6l-0.4,8.6l-0.4,8.6l2.7,4l2.7,4l6.9,4.5l1.2,0l1.2,0l3.9,2.9l-0.4,0l-0.4,0l-10.9-3.5l-10.9-3.5  l-8.6,0l-8.6,0l-8,2.2l-1.6,1.5l-1.6,1.5l-2.9,0.7l-2.9,0.7l-6.1,11.4l-2.2,2.2l-5.3-2.1l-5.3-2.1l-11-3.1L1734,947l-14.5-1.1  l-10.8-3l-4.8-2.8l-4.8-2.8l0.1-0.1c-1.6-0.2-3.2-0.6-4.8-1.1c-1-0.4-2-0.8-3-1.2l-1.3-0.1l-1.5-0.1l-0.3-0.2  c-0.5,0.1-1.1,0.2-1.6,0.2c-1.1,0.3-2.2,0.1-3.4-0.5l0,0l-0.1,0c0,0-0.1,0-0.1,0l-0.1-0.1c-0.3-0.2-0.6-0.3-0.8-0.5l-1.7-1.1  l-3.1-1.1l-3.1-1.1l-6.9-0.2l-6.9-0.2l-2.5-0.4l-2.5-0.4v-0.3l-2-0.4l-2-0.4l-4-0.5l-4-2.2c-1.5-0.4-2.5-1.5-3-2.9l-1.8-0.4l0.6-0.6  l0.6-0.6l-2.5-3.1l-2.5-3.1l-2.3-2.5l-2.3-2.5l-5.6-7.7l-3.4-1.4l-3.3-1.4c-1.5,0-3-0.1-4.5-0.3l-0.8,0.3l-0.8-0.5  c-1.1-0.2-2.1-0.3-3.2-0.6c-0.3-0.1-0.6-0.2-0.9-0.3l-1.1-0.1l-4.4-0.6l-8.5-0.5l-8.5-0.5l-2.5-0.2l-2.5-0.2l-0.3-0.4  c-0.4,0-0.8-0.1-1.2-0.2l0,0.9l-2.2-0.3l-2.2-0.3l-4.6-1.1l-4.6-1.1l-19.2-0.5c-0.1,0.1-0.2,0.1-0.3,0.2c-4.5,2.7-9.9,3.2-15,3.1  c-1.9,0-3.7-0.2-5.6-0.4l-0.3,0.5l-2.2-0.8c-0.9-0.2-2-0.4-3-0.6l-4.7,1.3l-1.4,0.4c-1.3,1.4-2.3,3.3-3.6,4.5  c-2.5,2.5-5.6,4.2-8.9,5.4c-1.2,0.4-2.4,0.8-3.7,1.2l0,0.1l-0.2,0c-1.5,0.5-3,0.9-4.5,1.3l-1,1.2h-1.7c-0.5,0.7-1,1.4-1.6,2  l-0.1,0.2h-0.1c-5.7,6-16.1,7.5-24.5,9.3l0.3,0.5h-2.1v2.1l-2.7,2.8c-2.1,2.6-4.2,5.2-6.3,7.8v0.7l-2.1,1.9  c-1.3,1.7-2.6,3.5-3.9,5.2v1l-1.3,0.7c-1,1.3-2,2.7-3,4l0.2,0.6h-0.7c-1.8,2.4-3.5,4.7-5.3,7.1v0l1.2-0.7l1.2-0.7l-0.7,1.1l-0.7,1.1  l-1.2-0.5c-1.3,1.7-2.5,3.4-3.8,5.1c-1.6,2.2-4.1,2.5-6.2,1.8l-0.9,2.7l-1.9,0.1l-1.9,0.1l-1.9,0.2l-2.9,3.9l0.5,1.5l0.5,1.5  l-1.6-1.9l-1.6-1.9l0-1.1l0-1.1l1.1,1.5l1.1,1.5l-1.2-5.7l2.4,1.5l-0.6-1.7l-0.6-1.7h1.9l-0.6-1.5l-0.6-1.5h2l1-4h-3.7l-1,1.7  l-1,1.7l-0.5-0.5l-0.5-0.5l2-6.4l2-6.4l3.1-5.5l3.1-5.5l2.9-5.2l2.9-5.2h-1.8l-9.4,9.4v2.4l-3,2.4l-2.9,6.1l-2.9,6.1l-1.2,5.2  l-1.2,5.2l1.5,2.4l-1.2-0.7l-1.2-0.7l-0.2,2.1l-0.5,4l-0.3,1.2l-0.3,1.2l-1.6-10l-0.1-8.2l-0.1-8.3h-1.9l-1,1.9l-1,1.9l-0.6,3.4  l-0.6,3.4l-0.1,10.1l-0.1,10.1l0.7,1.2l0.7,1.2l0.3,4.5l0.3,4.5l-1.8-1.1v-3.2l-0.6,0.6l-0.6,0.6l-3.2-1l-3.2-1l-2.7,0  c-0.6,0.6-1.4,1.1-2.3,1.3c-4.7,1.1-8.7,0.5-12.4-1.1c-4.8-1.2-9.1-3.6-10.9-8.2c-1.2-1.2-2.4-2.5-3.6-3.8c-2-2.2-3.8-4.5-5.3-6.9  l-0.8-0.2l0.5-0.3c-1.5-2.4-2.8-4.9-3.9-7.5l-0.9-0.2l-1.5-3.2l-1.5-3.2l-2.8-1.2l-2.8-1.2l-6-2.4l-0.7-0.1l-0.7-0.1l-1.5-1.5h-3.7  l-1.7-1l-1.7-1l-3.9-1.7l-3.9-1.7l-3.1,0.2l-3.1,0.2l-2.7,3l-2.7,3l-1.1-2l-1.1-2h-3l-1-2.3c-0.9-0.9-1.7-1.8-2.4-2.7h-0.5v-0.6  c-0.6-0.8-1.2-1.6-1.8-2.4l-0.2,0.1l-0.4-1c-0.9-1.4-1.8-2.8-2.6-4.2l-0.9-0.9l-2.6-2.5l-2.8-3.8l-2.8-3.8l-1.4,0.5l-1.4,0.5v-1.6  l-3.2-0.2l-3.2-0.2l-3,0l-6,0.6l-6,0.6l-5,0.5l-5,0.5l-2.8,1.2l-2.8,1.2l-0.6,2.2l-0.6,2.2h-1.9l-3.3,3.4l-3.3,3.4l-1.9-1.7  l-1.9-1.7l0.4-1.8l0.4-1.8l-3.7-2.9l-6.2-2.7l-2.9,0.4l-2.9,0.4l-11,4.2l-5.8,1.8l-5.8,1.8v-2.6l-1.6-0.6l-1.6-0.6l0.6-1l0.6-1h-2.9  l-3.5-7.5l-1.4-0.8l-1.4-0.8l0.6-0.9l0.6-0.9h-1.9l-1.2-3.2l-1.2-3.2l-3.2-7l-0.1-1.4l-2.3-2.3l1.2-3.1l-1.1,0.7l-1.1,0.7l-0.6-1  l-0.6-1l2.6-0.1l-3.9-2.9h1.7l3.3,2.5l3.3,2.5l10.7,5.8l4.2-0.3l4.2-0.3l1-0.6l1-0.6v-3.7l-1.8-0.8l-1.8-0.8l-2.3-0.4l-2.3-0.4  l-7.8-4.9h-1.6l-2.9-4l-1-0.1l-1-0.1l-4.9-6.2l2.5,1.6l2.5,1.6l2,0.3l2,0.3l2.2,1.2l2.2,1.2h4.2l0.6-1.6l0.6-1.6l-6.8-6.5l-7.5-2.5  v-1.1l1.2,0.5l1.2,0.5l2.3-0.9l2.3-0.9l-1-1.9l-1-1.9l-3.4-1.6l-3.4-1.6l-1.3-1.5l-1.3-1.5h-2.7l-3.5-5.5l-2.6-1.6l-5.4-8.2  l-4.4-8.2l-0.1-1.9l-0.1-1.9l2.9,3.6l2.9,3.6l0.6-0.6l0.6-0.6v3.3h4.1l1.9-5l-3-6.5l-3-6.5l-1.4-1.4l-1.4-1.4l0.6-3.6l0.6-3.6  l4.3,2.5l4.3,2.5h4.1v-3.7l-2.2-2.9l-2.2-2.9l-1.8-1.8l-1.8-1.8l-1.3-3.1l-1.3-3.1l2.1-1.7l2.1-1.7l1,0.7l1,0.7l4,1.3l4,1.3l3.5,0.2  l3.5,0.2l-0.3-2.4l-0.3-2.4l-5.2-6.8l4.2,2.2l0.6,1l0.6,1l1.3-1.2l1.3-1.2l-0.4-2.2l-0.4-2.2l-3.7-3.9l-3.7-3.9l-7.2-5.4l-5.2-5.2  l-5.2-5.2l0.9-0.9l5.6,3.1l3.9,1.5l3.9,1.5h2.8v-2.8l-12.7-11.2l-0.5,0.5l-0.5,0.5l-1.4-2.7l-1.4-2.7l-5-7l-1.8-1.4l-1.8-1.4  l-6.5-6.8l-6.5-6.8l-1.6-2.3l-1.6-2.3l-1.3-1.4l-1.3-1.4l1-1l5.3,4.8l1.9,1.8l1.9,1.8l6.6,3.7l3.8,1.9l3.1,1.6l3.1,1.6l1.2-1.2  l1.2-1.2v-2.9l-4.8-4.3l-4.8-4.3l-2-0.1l-8.2-7.9l-8.2-7.9v-2.3l2.8,2l2.8,2l1.7-0.2l1.7-0.2l0.7-0.7l0.7-0.7l-3.2-4.5l-3.2-4.5  l1-2.5l0.7,2.3l0.7,2.3l1.2-0.4l1.2-0.4l3.8,1.8l3.8,1.8l2.2-0.8l2.2-0.8l2.5,0.9V689h2v-3h2v-2.8l-3-3l-3-3l0.6-1.6l0.6-1.6  l-1.4,0.3l-1.4,0.3l0.5-2.5h-3l0.2-0.8l0.2-0.8l-1.4-2.5l-1.4-2.5l-1.8-1.6l-1.8-1.6l0.6-0.6l0.6-0.6l-2.1-1.3l-2.1-1.3V656h-2.2  l2.5-3h-3l-0.7-3.6l-0.7-3.6l-1.4-0.6l-1.4-0.6l1.1-1.9l-2.1-3.6l-2.1-3.6l1.2-1.4l1.2-1.4h-2.4l0.6-0.9l0.6-0.9l-1.5-0.6l-1.5-0.6  l0.2-1.3l0.2-1.3l-0.8-4.2l-0.8-4.2l-1,0.6l-1,0.6l0.6-1l0.6-1l-1.6-3.2l-1.6-3.2l0.7-0.7l0.7-0.7l1.8,2.2l1.8,2.2h1.5l3.3,2.6  l3.4,2.6l1.1-0.7l1.1-0.7l-0.5-4.1l-0.5-4.1l-1.4-3.5h-1.9l0.7-1.2l0.7-1.2l-1.1,0.7l-1.1,0.7l-3-4.3l-3-4.3l-1.9-2.5l-1.9-2.5  l-0.7-3.2l-0.7-3.2h-1.4l-1.1-2.9l-1.1-2.9l0.6-0.6l0.6-0.6l4.9,7.2l1.6,1.6l1.6,1.6l5.4,3.9l5.4,3.9l2.7-3.7l-0.1-2.1l-1.3-1.7  l-1.3-1.7l-1.3,1.3v-2.5l-2.8-2.9l-2.8-2.9l-2.8-3.2l-2.8-3.2l-7.1-12l-2.4-6.5l-2.4-6.5l0.4-0.4l0.4-0.4l-1.4-1.4l-1.4-1.4l0.4-2.4  l0.4-2.4l-2-1.2l0-9.2l0-9.2l-1-4.5l-1-4.5l-0.4-3.5l-0.4-3.5l-0.6-2.5l-0.6-2.5l2.3,3.5l2.3,3.5l1.8,1.9l1.8,1.9v1.3l2.7,1.2  l2.7,1.2l2.2-2.2l-5.8-10.4l-1.2-1l-5.3-11l-2.9-11l-1.6-16l0.1-1.5l0.1-1.5l-1.6-2.8l-1.6-2.8h-1.5l-3.4,5.3l-3.4,5.3l-0.8,4  l-0.8,4l-0.2,1l-1.8,6l-1.8,6l-3.6,7.2l-3.6,7.2l-4.3,4l-4.3,4l-0.7,2.1l-0.7,2.1l1.1,1.1l4.5-1.7l4.5-1.7l2.8-2.8h2.1v-3h2l0,2.5  l-1.4,4.7l-1.4,4.7l-0.6,3.8l-0.6,3.8l-1.8,1.8l1.1,2.8h-2.2v4.6l-2.3,2.3l-0.3,2.3l-0.3,2.3l-1.3,3l-1.3,3l-0.2,0.5l-0.2,0.5  l-2.2,8l0.1,9l-2.6,4.7l-2.6,4.7l0.6,1.5l0.6,1.5h1.7l-1.2,2.3l-1.2,2.3l-9.9,13l-1.8,1.3l-1.8,1.3v2l3.1,3.1l1.7-0.8l1.7-0.8  l0.8-0.1l0.8-0.1l0.7-1l0.7-1l3.9-3l-2.3,3.2l-2.3,3.2l-1.3,0.8l-1.3,0.8l-2.4,6.1l-4.2,4.6l-4.2,4.6l-2.8,3.3l-2.8,3.4v1.3l1.8,1.6  l1.8,1.6l3.9-2.7l3.9-2.7l5.5-4.9l-0.5-0.8l-0.5-0.8l1.6-0.6l1.6-0.6h0.7l-0.9,3.2l-0.9,3.2l-1.3,0.8l-1.3,0.8l0.9,0l0.9,0l-2.4,2.4  v4.5l-1,0.6l-1,0.6l0.6,0.9l0.6,0.9h-2.1v2.7l-3.2,6.5l-1.4,0.5l-1.4,0.5v3.1l-7.7,11.6l-7.7,11.6l-0.6,0.5l-0.6,0.5l-2.6,6.5  l0.6,1.5l0.6,1.5h3.8l2.5-3l1.1,0.1l1.1,0.1l-1.2,0.5l-1.2,0.5l0.6,1.4l0.6,1.4h-2l-8.5,16.5l-1.5,1.8l-1.5,1.8h1.4l-1.2,2.2  l-1.2,2.2l0.2,0.8l0.2,0.8h-2.2l0.6,1.5l0.6,1.5h-2.2l0.6,1.5l0.6,1.5h-1.9l0.6,1.6l0.6,1.6l1.5-0.6l1.5-0.6l-0.6,2.8l-0.6,2.8  l1.1-2.5h2.5l1.2-2.6l1.2-2.6l4.8,1.2l4.6-7.5l0.7-1.5l0.7-1.5l0.1,1.2l0.1,1.2l-5.6,8.6l-3.2,8l-2.6,6.5h-1.5v2.7l-3.5,4.1  l-1.8,2.1l-1.8,2.1v1.7l-4,3.6v2.8l-8.3,7.9h1.2l-11.4,11.5l-2.6,3.5l-2.6,3.5l-1.2,3.4l1.4,1.1l1.4,1.1l2.2-1.2l2.1-1.2l0.5,0.5  l0.5,0.5l-9.2,9.5l-9.2,9.5l0.6,1.6l0.6,1.6l1.2-0.7l1.2-0.7l-0.7,1.8l-0.7,1.8l1.4-1.2l1.4-1.2l0.9,0.2l0.9,0.2l2.4-1.3l2.4-1.3  l-2.1,3l-2.1,3l-1.6,1.3l-1.6,1.3l-1.5,2.9l-1.5,2.9l0.5,1.4l0.5,1.4h3.6l2.2-1.6l2.2-1.6l0,0.8l0,0.8l2-3.5h2.5l1.4-1.9l1.4-1.9  l0.8,0.5l0.8,0.5l-5,8l-1.7,1.9l-1.7,1.9l-1.1,1.3l-1.1,1.3l-4.1,3.8l-4.1,3.8h-1.2l-2.8,2.9l-2.8,2.9l-1.3,0.4l-1.3,0.4l0.7,2.1  l0.7,2.1l2.5,0.5l2.5,0.5l1.1-1.7h4.6l3.7-1.6l3.7-1.6l1.4,0.5l1.4,0.5l1.1,2.8l1.1,2.8l-0.4,1.6l2.3-1.2l2.3-1.2l5.2-3.9l5.2-3.9  l0,0.8l0,0.8l-4.5,4.5l-4.5,4.5v2.5h-2.3l0.7,0.7l0.7,0.7l-6.9,7.1l-6.9,7.1l-4.1,4.5l-4.1,4.5v-1.5l-2.4,2.3l-2.4,2.3l-2.2,1.8  l-2.2,1.8l0.3,1.7l0.3,1.7l3.5,0.1l3.5,0.1l1.2-0.9l1.2-0.9l1.3,0.4l1.3,0.4l-5.2,5.2l-5.2,5.2l0,0.4l0,0.4l-1.6,3l-1.6,3l0.7,1.1  l0.7,1.1l2.6-0.5l2.6-0.5l-3.5,2.9l-3.5,2.9l-5.2,3.2l-5.2,3.2v3.3l2.9,2.4l4.1-1.3v-2l2.1,1.3l1.9-1.8l1.9-1.8v1.2l-6.9,6.9  l-6.9,6.9l-2.1,1.1l-2.1,1.1l-3.1,6.5l-4.7,3.7l-4.7,3.7l-1.7,1.3l-1.7,1.3l0.6,2.2l0.6,2.2l4,1.1l-0.7,1.1l-0.7,1.1h-2.8l-5.5-2.5  l-5.5-2.5h-1.2l-2.5-2.8l-2.5-2.8l0.7,1.4l0.7,1.4l-1.1-0.7l-1.1-0.7l-2.7-4.7l-2.7-4.7l-0.5-4l-1.2-4.1l-1.2-4.1l0.1-2.4l0.1-2.4  l-0.6-5.5l-0.6-5.5l-1-4.3l-1-4.3l0.5-0.9l0.5-0.9l-1-0.6l-1-0.6l0.6-0.9l0.6-0.9l-0.7-1.2l-0.7-1.2l-0.5-6.6l-0.5-6.6l0-3.8l0-3.8  h-1.5l0-5.5l-1.1-6l-0.5-4.5l-0.5-4.5l-1.3-5l-0.2-1.5l-0.2-1.5l-0.8-5.5l-0.8-5.5l-0.8-8l-0.6-4l-1.6-3.5l1-4h-1.7l0.1-3.5  l-0.5-2.2l-0.5-2.2l1.9-1.2l-3.3-3.3l2.2-0.7l-0.9-2.3l-0.9-2.3l-1.3-8.7l-0.3-2.5l-0.3-2.5l-0.7-7.5l-0.7-7.5l-0.3-5.5l-0.3-5.5  h-0.3l-0.4-7l-0.4-7l-1.6-5l0.2-6.5l0.2-6.5l-0.6-1l-0.6-1l-0.2-2l-0.2-2l-1-12l-1.1-2.9l-1-2.7c-0.6-0.9-0.8-2.1-0.6-3.3l-0.1-0.2  l-0.6-2.2l-0.5-2.2l1.8-1.1v2.3l1.5-0.6l1.5-0.6l0.2,0.4c1.6-0.3,3.3,0.2,4.7,1.4c6.3,5.1,12.9,10.2,16.8,17.5  c0.5,0.8,0.6,1.7,0.6,2.5l1.6,0.4l-0.4,5.6l-0.4,5.6l-0.5,3l-0.5,3l-1.1,14l-0.6,5.7l-0.6,5.7l-0.8,4.3l-0.8,4.3l1.8,7l1.8,7l1.4,1  l1.4,1l0.1,0.5l0.1,0.5l1.2,3l1.2,3l0.7,3.4l1.1,2l1.1,2l0.1,3.8l0.1,3.8l0.7,2.5l0.7,2.5h2.7l1.3-4.5l1.3-4.5l-0.1-3.3l-0.1-3.3  l-0.8-0.5l-0.8-0.5v-7.5l-3.2-4.9l-3.2-4.9l0.2-5.1l0.2-5.1l-2-0.5l-2-0.5v-3.6l2.4,2.4h1.4l2.3-5.5l0.4-2.3l0.4-2.3l4.2-6.2  l4.2-6.2l0.1-4l0.1-4l-6.9-14l0.3-0.9c-0.1-0.2-0.3-0.4-0.4-0.6h-1l-0.6-2.2c-1.7-2.4-3.2-4.9-4.8-7.3c-4.3-6.7-9.6-12.2-15.2-17.9  c-5.9-6-12.5-12.8-16.6-20.5l-0.2-0.1l-0.1-0.4c-2.5-4.9-4-10.2-3.8-16c0-0.2,0-0.4,0.1-0.6l-0.3-1.4l-0.4-2.5l-0.4-2.5l-1-13.6  l-0.7-1.2l-0.7-1.2l-0.3-10L874,619l-0.2-0.5l0.4-4.5l-0.8-1.3l-0.8-1.3l-0.4-8l-0.5-7l-0.5-7l-1.3-15l-1-3.8l-1-3.8l0.6-5.3  l-0.8-1.4l-0.8-1.4l0.1-23.6l0.1-23.6l1.3-5l1.1-27.5h-3.1l-1.3,1.9l-1.3,1.9l-1.1-2.7l-1.1-2.7l-0.5-14.5l-0.5-14.5l-0.6-1.6  l-0.6-1.6l-2.4-0.5l-2.4-0.5l-1.1,1.1l-1.1,1.1l-0.1-2.5l-0.1-2.5l-0.2-3l-0.2-3l-0.5-1l-0.6-7l-0.1-2.7l-0.1-2.7l-1.9-1l-1.9-1  l-1.6,0.6l-1.6,0.6v6.1l-0.5-0.5l-0.5-0.5l-0.6-4.9l-0.6-4.9l-0.9-4.9l-0.9-4.9l-0.6-0.9l-0.6-0.9h-3.8l-0.6,0.9l-0.6,0.9l-0.1,2.3  l-0.1,2.3l0.4,15.2l0.4,15.2l0.5,0.8l0.5,0.8l0.2,4l0.2,4l-0.3,12.3l1.5,7.3l1.5,7.3l1.2,21l0.2,3l0.2,3l0.7,1.2l0.7,1.2l-2.1,1.3  l0.7,1.1l0.7,1.1l0.3,3.1l0.3,3.1l1,13l0.7,2.5l0.7,2.5l0.1,3.7l0.1,3.7l0.5,0.5l0.5,0.5l-0.8,6.3l-0.8,6.3l-0.8,17.8l-0.4,0.2  c1.1,9.7,0,19.3-1.7,28.9c-1.8,10.1-3.8,20.2-7.2,29.9c-1.7,4.8-3.3,9.8-5.6,14.3l-0.4,3.3h1.9l1.6,5.5l0.4,1l1,2.9  c0.4,0.4,0.7,0.8,0.9,1.3l0.5-0.3l0.9-0.5v3l-0.9,0.6c0,0.7-0.1,1.4-0.3,2.1l0.4,0.6l-0.7,0.7c-0.4,1.5-1,3-1.9,4.4l0.3,0.6  l-1.4,1.1c-0.3,1.4-0.8,2.6-1.6,3.7v1l-2.3,2.3l-0.4,3.8l-0.4,3.8l2.4,7.4l1.7-1.1v2.9l1.5,1.3l1.5,1.3l-1.3,10.2l-0.6,5.6l-1.5,1.7  l-1.5,1.7l-0.7,2.4l-0.7,2.4l-0.2,5.6l-0.2,5.6l-0.8,3.8l-0.8,3.8l1,3.7l1,3.7l2.2,9l2.2,9l0.7,4l0.1,1.1l0.1,1.1l1.9,0.5l1.9,0.5  l1.9-1.9l-0.7-3.7l-0.7-3.7l-4.2-14.7l0.5-9.1l0.5-9.1l0-3.7l0-3.7l1.6-3l1.6-3h1.9l1.2,5.5l1.6,5.3l1.6,5.3l2.7,2.7l5.4,13.5  l1.8,0.4l1.8,0.4l2-2l-3.6-11.7l-5.3-9l-0.7-4.5l-0.7-4.5l-1.4-2.2l-1.4-2.2l-0.5-7.5l-0.5-7.5l1.5-2.8l1.5-2.8l1.5,0.5l0.1,1.5  l4.3,9.5h3l1-1.8l1-1.8l-1.5-5.4l-1.5-5.4l-1.5-2.8l-1.5-2.8l-0.9-9.2l-0.9-9.2l-0.9-3.5l-0.9-3.5l-1.2-2.2l-1.2-2.2h1.2l-2.8-2.8  l0.2-6.1l0.2-6.1l1.2-1.2l1.2-1.2V637h1.6l0.3-3.5l0.3-3.8l0.3-3.8h1.8l-1-4h1.8v-4.9l1.5,0.6l1.5,0.6l-0.9,1.7l-0.9,1.7l0.3,3.5  l0.3,3.5l0.8,1.4l0.8,1.4l0.2,4.5l0.2,4.5l1.5,3.5H852l1.5,2.4l1.5,2.4l-0.6,1.6l-0.6,1.6l1,2l1,2l-0.9,3.1l-0.9,3.1l0.7,0.7  l0.7,0.7l0.1,0.9l0.1,0.9l0.4,0.5l0.4,3l0.4,3l-2.1,1.3l3.3,3.3h-2.3l1.6,2.5l0.4,8l0.6,4l0.6,4l0.1,3l0.1,3l-0.1,2l-0.1,2l0.4,4.5  h1.4l-0.9,5.5l-0.4,1.2l-0.4,1.2l0.9,0.6l0.9,0.6l0.1,5.2l0.1,5.2l0.2,9l1,0.7l1,0.7l-1.4,0l-1.4,0l1,1.2l1,1.2l1.1,5.9l-1.5,2.3  l-1.5,2.3h3.2v7.1l1,1.9l1,1.9h-2.9l0.8,3.4l0.8,3.4l-0.2,3.1l-0.2,3.1h1.6l-0.6,3.5l1,1.8l0.2,8.1l0.2,8.1l0.8,2.2l0.8,2.2  l-1.1-0.4c0,0.9,0,1.7,0,2.6l1,1l-0.9,1.8c0,0.5,0,1,0,1.6l0.9-0.6v2.1h-0.9c0,0.5,0,1.1,0,1.6l0.8,0.8v4.2l-0.6,0.7  c0,0.3,0,0.6,0,0.9l0.9-0.5l-0.8,3c0,0.6,0.1,1.1,0.1,1.7l0.4,0.7l0.8,1.3l-1.1,0.8c0,0.3,0,0.6,0.1,1l0.8-0.3l-0.1,2.3l-0.1,2.3  l-0.4,0.6c0.1,1.3,0.2,2.6,0.3,3.8l0.1,0.1l1.7,1.8l-1.5,0.9c0,0.4,0.1,0.8,0.1,1.3l0.4,0l-0.3,1.8c0.1,0.9,0.1,1.7,0.2,2.6l1,1.2  l1.5,1.9l-1.8-1.4l-0.6-0.5c0.1,1,0.2,2,0.2,3.1l0.7,1.3h-0.6c0,0.6,0.1,1.2,0.1,1.8c0.1,1.8,0.2,3.6,0.2,5.4l0.6,2.5l0.8,3.2h-1.4  c0,1.1,0,2.2-0.1,3.2l0.4,0.8l-0.4,0.7c0,0.4,0,0.8,0,1.2h0.8l0.3,12.1c0.5,2.7,1.1,5.3,1.5,8l2.3,1.8l-2,0c0.1,0.8,0.2,1.6,0.2,2.4  l0.3,0.7l-0.3-0.2c0,0.6,0,1.2,0,1.8l1.1,0.4l-0.5,9.8h1.8l-1.6,2.5l0.3,5.9l0.3,5.9l0.5,0.8l0.5,0.8l1.2-0.7l1.2-0.7l-2.3,2.9  l0.5,3.2l0.5,3.2h1.4l-0.2,8.8l-0.2,8.8l-0.5,1c-0.1,1.2-0.7,2.3-1.5,3.2l-1.5,3.2H871v-1.7l-1-0.5c-1.3-0.5-2.5-1-3.6-1.6L866,950  V950c-2.1-1.3-3.6-3.1-4.6-5.6c-1.4-1.2-2.8-2.4-4.1-3.6l-2.3-1.2v-0.8c-0.6-0.6-1.3-1.2-1.9-1.7h-0.3l-1-1.3  c-1.6-1.5-3.1-3.1-4.6-4.7c-3.8-4.2-7.5-8.3-11.7-11.9l-0.4,0.2l-0.3-0.8c-1-0.9-2.1-1.7-3.1-2.5h-0.4l-0.1-0.4  c-1.3-0.9-2.7-1.8-4.1-2.7c-0.5-0.3-0.9-0.7-1.3-1l-4.2-1.1l-0.4,0.2l-0.4,0.2l-0.8-1.3l-0.8-1.3l-7.1-1.2l-7.1-1.2l-5.5,0.3  l-5.5,0.3l-2-2l-2-2h-2v-1.6l-7.9-4.4L776,901l-1.9-1l-1.9-1l-1.8,0l-1.8,0l-7.9-2.2l-3.6-3.7l-3.6-3.7L751,885l-2.4-4.5l0.1-0.5  l0.1-0.5l-0.9-2.5l-0.9-2.5l-1-1.8l-1-1.8l1-1.7l-1.5-1.2l-1.5-1.2l0.5-0.9l0.5-0.9h-1.7l-1.9-8.5l-1.9-8.5l-3.5-4.5l-3.5-4.5h-1.6  l-3-3l-5.8-3.2l-5.8-3.2l-13-9.1l-1-0.8l-1-0.8l-2.6-1.9l-2.6-1.9l-6.5-4.3l-6.5-4.3l-5.8-3l-6.1-6.2l-5.3-7.6l-5.3-7.6l-4.1-8.2  h-1.3l-2.4-4.2l-2.4-4.2l-2.9-2.3l-2.9-2.3l-27.5,0.3l-2-0.2l-17-1l-6.1-0.4l-6.1-0.4l-1.1-0.7l-1.1-0.7l-1.7,1.1l-5.9-0.9l-5.9-0.9  l-8-1l-5-1.1l-2.5-0.5l-2.5-0.5l-7-1.2l-0.7-0.4l-0.7-0.4l-8.3-0.5l-8.3-0.5l-6.4-1l-6.4-1l-3.9,2l-3.9,2l-3,3.4l-3,3.4l-8.5,7.2  l-8.5,7.2l-3-1l-3-1l-1,1.9l-1,1.9H473l-6.2,6.1l-6.2,6.1l-7,3.6l-3,0.6l-3,0.6l-10.5,0.5l-10.5,0.5l-10,2.6l-5-0.5l-5-0.5l-4.6,0  l-4.6,0l-1.9,1.7l-1.9,1.7l-6.9,6.2l-6.9,6.2l-4.1,3l-4.1,3l-1.2,1.1l-1.2,1.1l-3.3,1.3l-3.3,1.3l-4,2.7l-4,2.7l-4.5,2.5l-4.5,2.5  l-4.3,5.4l-4.3,5.4l-7.8,10l-2.4,4.6l-2.4,4.6l-1.6,2.4l-1.7,2.4l0,1.5l0,1.5l-2.2,2.8l-2.2,2.8l-2.3,2.9l-2.3,2.9H309l-12.8,10.4  l-12.8,10.4l-3.2,2.9l-3.2,2.9v2.3h-1.6l-6,5.8l-6,5.8l-3.2,1.9l-3.2,1.9v1.4l-2.8,1.4l-2.8,1.4l-2.9,1.5l-2.9,1.5l-3.1-0.3  l-3.1-0.3l-14.6-1.2l-2.5-1l-2.5-1l-4.2,0l-4.2,0l-13,0.8l-3.7-1.1l-3.7-1.1l-2.2-6l-1.7-3.4l-1.7-3.4l0.3-1.2l0.3-1.2l-1-0.6  l-1-0.6v-3.7l-1.5-0.6l-1.5-0.6V904l-5.2-7.7l-5.2-7.7l-9.2-9.2l-9.2-9.2H148v-1.5l-1.8-1l-1.8-1l-2.4-1.1l-2.4-1.1l-5-1.6l-5-1.6  l-4-0.6l-4-0.6l-6.1-0.1l-6.1-0.1l-1.8,1l-8-0.6l-12-1l-0.5-0.2l-0.5-0.2l-4,0.3l-4.8-0.9l-4.8-0.9v1.9l-0.8-0.5l-0.8-0.5L61,858.1  L50.5,858l-2.2,0l-2.2,0l-2.5,1l-2.5,1V858l-4.5,1.7l-8-0.3l-2.5,0.9l-2.5,0.9l-5.5,1l-5.5,1l-2,0.3l-2,0.3l-3.7,1l-3.7,1l-0.6-0.6  L0,864.7V1038l1750.2-0.3l1750.2-0.2l0.3-4.5l0.3-4.5L3500.5,864.4z M2132,802l-1.7,0l-1.8,0l-7.7,1.9l-7.7,1.9l-2.1,1.3l-2.1,0.4  l-2.1,0.4l-1.4,1.2l-1.4,1.2v3.9l-3.5,3.1l-3.5,3.1v7.3l-2.3,11.4l2.2,4.8l3.8,0.7l3.8,0.7l1.8,0.9l1.8,0.9v1.6l-1.9,2.1l-1.9,2.1  l-1.5,3.7l-1.5,3.7l0.9,1.7l0.9,1.7l1.6,1.3l1.6,1.3l0,1.6l0,1.6l-3.5,9.4l-2.9,7.6c1.2,1.8,1.5,4.3-0.2,6.4c-0.6,0.8-1.3,1.5-2,2.2  c0,0.5-0.1,0.9-0.2,1.4l0.3,0.4l0.6,1l-2.2,1.6l-2.2,1.6l-1.5,0l-1.5,0l0.8-0.4c-0.4,0.1-0.9,0.3-1.3,0.4v0.2l-0.2-0.1  c-0.6,0.2-1.2,0.3-1.8,0.5v0.3l-1.6,0.6l-1.6,0.6l0.5-0.8c-1.2,0.3-2.4,0.6-3.6,0.9c-1.8,0.5-3.7,0.9-5.6,1.3l-3.2,1.1l0,1.3l0,1.3  l-2-1.2v3l-0.8,0.3l-0.8,0.3l-2.4,4.5l-2.4,4.5l-4.1,4.5h1.6l-1.4,1.7l-1.4,1.7l1.5-0.8l1.5-0.8l-2,2l-2,2l-0.6-0.4  c-0.1,0.5-0.2,1-0.4,1.5l0.2,0.6l-2.6,2.2l-2.6,2.2l-1.5,0l-0.8,0l-0.8,0l0.3-2.1l0.1-0.9c-0.2-0.2-0.5-0.4-0.6-0.6l-0.3,0.2  l-1.1,0.7v-0.8l0.9-0.7c-1-1.8-0.8-4.2,0.4-5.8l0.1-0.3l0.5-1.4l-0.7,0h-0.7l0.3-6.2l0.3-6.3l-0.1-4.5l-0.1-3.5l0.4-6l0.4-6l1-89  l0.5-14.8l0.5-14.8l0.3-0.7l0.3-0.7l-0.1-8l-0.1-8l1.6-4.5h-2l0.9-1.8l0.9-1.8l-0.1-18.8l-0.1-18.8l1,0l0.4-13.7l0.4-13.7l0.1-8.2  l0,0l0.1-8.2h1.3l2.8,7.8l2.8,7.8l8.9,22l2.5,5.5l2.5,5.5l5.2,10l0.8,1.5l0.8,1.5l8.6,14.5l8.6,14.5l12.4,18l9.9,14l4.8,6l4.8,6V802  z M2333.1,719.5l-0.2,2l-1.6-2.2l-1.6-2.2h-1.8l0,1.8l0,1.8l2.9,3.9v1.9l-1.5-1.2l-1.5-1.2l-1.5,0.6l-1.5,0.6v4.3l1.5-0.6l1.5-0.6  l0.5,0.9l0.5,0.9l-5.5,0.6l0,4l-14,0.2l-2.2,1.2l-2.2,1.2l-3.3,0l-3.3,0l-4,1.1l-4,1.1l-2.4,3.3l-0.6,2.4l-0.6,2.4l-5,7.6l-5,7.6  l-5.3,3.5l-5.3,3.5l-1.9,1.1l-1.9,1.1l0.2,4.2l0.2,4.2l-2.2,0.8l-2.2,0.8l-8.5,1.2l-8.5,1.2l-60,9.9l-10.5-1.3v2.2l-5.8,0l-5.8,0  l-6.4,2l-6.4,2l-3.9,0.3l-3.9,0.3l-3.7-4.6l-3.7-4.6l-0.8-0.3l-0.8-0.3v-2l-3.8-4.8l-3.8-4.8l-5-6.4l-0.4-1.1l-0.4-1.1l-0.9-1  l-0.9-1l-4.9-7l-4.9-7l-6.3-10.3l-6.3-10.3l-1.9-3.2l-1.9-3.2l-11.6-23l-9.1-22l-1-1.7l-1-1.7l0-1.3l0-1.3l-1.5-2.8l-1.5-2.8l-1-3.2  l-1-3.2l-2.5-7l-2.5-7l1.2-0.8l1.2-0.8l4.3,0l4.3,0l-0.6-1l0,0l-0.6-1h1.6l9.5,3l9.5,3l11.5,3l11.5,3l30,6.2l5,0.9l5,0.9l43,6.1  l12,0.9l5,0.5l5,0.5l25,1.5h92.5l0.8,3l0.2,33l0.2,6L2333.1,719.5z M2523,703.9l-1,0.6l-1,0.6l-1.1,4.3l-1.1,4.3l-4.7-1.4l-4.7-1.4  l-3.8,0.6l-3.8,0.6l-1.7,1l-1.7,1l-18,7.2l-4.4,1.1l-4.1,8.4l0,1.4l0,1.4l-1.9-2.8l-1.8-2.8l-2.2-1.5l-2.2-1.5l-0.9,0.9l5.2,9.3  h-3.2v2.9l2.2,1.4l-1.4,0.9l-1.4,0.9l-5.3,0l-5.3,0l-1.7-4.5l-1.9-1.6l-1.9-1.6l-2-0.6l-2-0.6l-2.1-1.8l-2.1-1.8l-1.2-2.2l-1.2-2.2  l-3.6,2.7l-3.6,2.7l-5.6,0.9l-5.6,0.9l-14,0.3l-8.8-0.7l-8.8-0.7l-5.2-0.7l-5.2-0.7l-1-0.6l-4-0.6l-4-0.6l-3.8-0.2l-3.8-0.2v-2.4  l-1.1-0.4l-1.1-0.4l2.1-2.6l2.1-2.6V715h-1.7l-4.6,4h-0.8l1.5-2.5l2-2.7l2-2.7l-0.5-0.5l-0.5-0.5l-5.3,4.2l-2.6,4.4l-2.6,4.4h-1.1  l0.6-0.6l0.6-0.6l-1-1.9l-1-1.9h1.7l-0.5-7.5l-0.4-5.8l-0.4-5.8h1.2v-9h-1.9l1-1l1-1l-0.6-12.9l1-0.6l1-0.6l6.7-0.4l6.7-0.4l9.5-0.6  l9.5-0.6l9-0.9l9-0.9l8-0.6l8-0.6l1.5-0.4l1.5-0.4l8-1.1l5-0.5l5-0.5l11.5-1.6l11.5-1.6l1.5-0.4l1.5-0.4l5-0.6l5-0.6l10.5-1.6  l10.5-1.6l0.2-0.2h0l0.2-0.2l3.1-0.2l3.1-0.2l0.2,16.5l0.4,5l0.2,2.8l0.2,2.8l2.9,2.7l2.9,2.7l6.6,5l1.1,1.1l1.1,1.1l2.8,1.8  l2.8,1.8V703.9z"
   id="path1186" />
</svg>
