<svg version="1.1" id="Layer_1" x="0" y="0" viewBox="0 0 3500 1038" style="enable-background:new 0 0 3500 1038" xml:space="preserve" xmlns="http://www.w3.org/2000/svg">
    <style id="style2">
        .st1{fill:#9c3c1c}.st2{fill:#9c341c}
    </style>
    <path d="m1009.6 352-1.9 6h-3l.5 1.4.5 1.4-1.2 1.4-1.2 1.4 3.1-2.8 3.1-2.8.7.7.7.7.1 6.1.1 6.1.7-2.4.7-2.4 1.2 3.4 1.2 3.4 1.9 1.2 1.9 1.2v-2.8l-.8.5-.8.5-1.6-3-1.6-3V363l-.8.5-.8.5v-4h1.2l.7.7.7.7 2 .3 2 .3v-2.2l-.9.5-.9.5-2.7-4-2.7-4-1.1.7-1.1.7.7-1.2.7-1.2 1.2 1 1.2 1 .1-3.9.1-3.9h-2.2l-1.7 6m2.4-3.5v.5h1v-1h-1v.5m-1 2v.5h1v-1h-1v.5m4 3.5v1h2.2l-.6-1-.6-1h-.8v1m-6.2 1.5v.5h1v-1h-1v.5m-.9 6.3-1.2 2.8 1.5-1.9 1.5-1.9V359h-.6l-1.2 2.8m-3.1 3.7v.5h1v-1h-1v.5m7 0v.5h1v-1h-1v.5m1 12.3v2.1l1.1 2.8 1.1 2.8 2.2 2.3 2.2 2.3 2 1 2 1-2-1.9-2-1.9-2.5-2.9-2.5-2.9 1.7 1.3 1.7 1.3 1-.6 1-.6v2l1.5-.2 1.5-.2.6-.6.6-.6-2.9-.7-2.9-.7-2.1-2.1-2.1-2.1-.1-.8-.1-.8-.6-.6-.6-.6v1.9m-10.8 5.5-1.5 3.2-3.8 2.5-3.8 2.5 1.1.4 1.1.4 3.5-2.2 3.5-2.2v-2.6l1.1-.4 1.1-.4-.3-2.1-.3-2.1-1.7 3m-2 4.2v.5h1v-1h-1v.5m-2.8 6.2-3.2 3.6v1.6l2.8-2.7 2.8-2.7-.3-.7-.3-.7 1.3-.4 1.3-.4-.5-.6-.5-.6-3.4 3.6m-47.3 3.1-2.4 2.8 2.8-2.4 2.8-2.4v-.8h-.6l-2.6 2.8m45.2 2.8-2.4 2.4 1.2 1.2 1.2 1.2 1.4-1.9 1.4-1.9-.5-.9-.5-.9h2.2v-2l-.8.1-.8.1-2.4 2.6m-1.1 1.9v.5h1v-1h-1v.5m-47.7 5.4.6 2.1-.9-.5-.9-.5-1.6 3.1-1.6 3.1.6 1 .6 1 .9-.6.9-.6v2.6l2-3.8 2-3.8-.3-2.1-.3-2.1-1.4-.5-1.4-.5.8 2.1m9.3 1.4-1.8 1.3.7 3.2.7 3.2h1.4l1.3-2.1 1.3-2.1-1.2-.8-1.2-.8.6-1.6.6-1.6h-.6l-1.8 1.3m64.4.2v1.4l2.7 2.1 2.7 2.1.4-.4.4-.4-1.8-2.5-1.8-2.5-1.2-.5-1.2-.5v1.2m-65.2 1v.5h1v-1h-1v.5m-10 1v.5h1v-1h-1v.5m-1.6 2.7-.7 1.2 1.2-.7 1.2-.7v-1h-.8l-.9 1.2M2135 494.5v.5h1v-1h-1v.5m-10 21.8v1.4l-3.8 2.5-3.8 2.5-5.1 3.2-5.1 3.2h-1.6l-3.2 1.4-3.2 1.4-13.9 5.6-13.9 5.6-3.1.2-3.1.2-1.5 1.4-1.5 1.4 1.2.4 1.2.4v16.6l-4.2 3.3-4.2 3.3-1.8 2-1.8 2-5.1 6-5.1 6-2.9 4.3-2.9 4.3v1l2.8 4.5 2.8 4.5 3.2-3.1 3.2-3.1v-1.5l-2 .5-2 .5V596l2.8-2.6 2.8-2.6-1.4-.9-1.4-.8 1.1-.7 1.1-.7 1.6-3 1.6-3-2.1 1.1-2.1 1.1 2.3-4.1 2.3-4.1.5.4.5.4 1.7-1.4 1.7-1.4v2.8l2 2.1 2 2.1v1h-3.2l2.1 3.6 2.1 3.6-.5.8-.5.8 2 1.8 2 1.8v1.8l-1.2-.7-1.2-.7.7 1.2.7 1.2h2.6l.5 2.1.6 2.1-2.4-.5-2.4-.5.6 1.1.6 1.1 1.7 2 1.7 2 .5 2 .5 2-1.9.1-1.9.1v-2l-1 .6-1 .6 2.2 3.4 2.2 3.4h2.8l3.3-2 3.3-2 .6-1.6.6-1.6-1.5 1.3-1.5 1.3-.6-.6-.6-.6 2.6-3.1 2.6-3.1v-2l-1 .6-1 .6v-1.2l2.5-3.7 2.5-3.7.1 3.2.1 3.2.2 1 .2 1 .1 1 .1 1 2.6 2.6 2.6 2.6 1-.6 1-.6 1.4-3.3 1.4-3.3v-1.4l-1.2 1.2-1.2 1.2h-1.8l.7-2.2.7-2.2 1-2.5 1-2.5.2-1.5.2-1.5 1.2-2.3 1.2-2.3-2.2 1.2-2.2 1.2 2.6-3.8 2.6-3.8v-2.6l2.1-4.1 2.1-4.1.3.3.3.3.5 4.2.5 4.2 1.8 2.8 1.8 2.8-.2.3-.2.3 2.7 2.5 2.7 2.5-1.9.1-1.9.1-.8-.1-.8-.1v2l4.1 2.6 4.1 2.6-1.3.8-1.3.8-1.6-.5-1.6-.5 1.5 1.6 1.5 1.6 2.7.2 2.7.2v2.4l-1 .6-1 .6.6.9.6.9h4l.8-2.1.8-2.1-.2-5.1-.2-5.1-.7-2.3-.7-2.3-1.2.7-1.2.7-2.2.3-2.2.3-.6-1-.6-1h6.2v-2h-2.4l3.2-2.6 3.2-2.6v-7.2l-2.3 2.2-2.3 2.2h-2.8l1.6-1.2 1.6-1.2 2.3-4.5 2.3-4.5-2.1 1.9-2.1 1.9v-1.4l1.4-2.2 1.4-2.2.4-3.5.4-3.5h1.8l.6 4.4.6 4.4 3.4 2.8 3.4 2.8-1.4.9-1.4.9 1.3.4 1.3.4-1.1.7-1.1.7-2.6-2.1-2.6-2.1v6.2l1.4.5 1.4.5.5 2 .5 2 2.1.5 2.1.5v1.2l-1 1.5-1 1.5-1.8-1.1-1.8-1.1-.1 3.4-.1 3.4 3 1.5 3 1.5-.3 1-.3 1-.7-.1-.7-.1-1.4 1.3-1.4 1.3.4.7.4.7 2-.5 2-.5 1.6-3.1 1.6-3.1 3-6 3-6 2-2.2 2-2.2.2-2.9.2-2.9 2.8-4.9 2.8-4.9.5-5.3.5-5.3-3.7-3.6-3.7-3.6.4-8.6.4-8.6.8-1.8.8-1.8h-19l-.4-3-.4-3 1.1-.2 1.1-.2 9.4-.1h9.4l.3-1 .3-1-9.6-.2-9.6-.2-2.4-.6-2.4-.6v1.7m-4.1 7.4-4.5 3.6-8 3.7-8 3.7-13 5.1-13 5.1-2.9.6-2.9.6 3.1 3.1 3.1 3.1 1.6-1.6 1.6-1.6v-1.8l5.2-2.4 5.2-2.4 4.4-2.8 4.4-2.8h2.4l11.5-5.5 11.5-5.5h3.2v-6l-.2.1-.2.1-4.5 3.6m-465 14.8v.5h1v-1h-1v.5m196 4v.5h1v-1h-1v.5m216.1 12.6-.2 5.2 1.6-1.3 1.6-1.3.9-1.7.9-1.7-2.3-2.2-2.3-2.2-.2 5.2m79 1.5.1 1.9.5-1.3.5-1.3-.6-.6-.6-.6.1 1.9m-.1 2.9v.5h1v-1h-1v.5m-395 2v.5h1v-1h-1v.5m58 2v.5h1v-1h-1v.5m-57 3v.5h1v-1h-1v.5m2 0v.5h1v-1h-1v.5m-3 2v.5h1v-1h-1v.5m4 13v.5h1v-1h-1v.5m-13 1v.5h1v-1h-1v.5m-2 1v.5h1v-1h-1v.5m15 1v.5h1v-1h-1v.5m308 6v.5h1v-1h-1v.5m56 1v.5h1v-1h-1v.5m-93.8 8.2-6.2 1.5v2l-1-.6-1-.6v2l3.2-.6 3.2-.6 4.4-1.1 4.4-1.1.4-1.2.4-1.2-.8.1-.8.1-6.2 1.3m19.8 5.3-1.5.9 1.2 1.2 1.2 1.2.7-1.7.7-1.7-.4-.4-.4-.4-1.5.9m14-.5v.5h1v-1h-1v.5m-36 1.9-4.5 1.2-.3 1.8-.4 1.8 1.2-.8 1.3-.8-.7 1.1-.7 1.1 1.5 3.6 1.5 3.6-.6 1.5-.6 1.5-.9-.5-.9-.5.5 1.4.5 1.4 2.2 1 2.2 1 1.1-2.6 1.1-2.6 1.5-4.5 1.5-4.5-1.1-1.3-1.1-1.3.5-2 .5-2-.7.1-.7.1-3.9 1.2m-32.4.5-.5.9-10 4.2-10 4.2-.6 1-.6 1 1.4.9 1.4.9h-3.6v2l-2.5-.6-2.5-.6v4.2l3.2 1.7 3.2 1.7 4.2.1 4.2.1-2.3 1.2-2.3 1.2-.6 1.5-.6 1.5h-4.6l1.5.9 1.5.9 1.3-1.1 1.3-1.1.1.9.1.9-.1.8-.1.8h2.6l3.9 2.9 3.9 2.9 3.8-2.5 3.8-2.5-.5-.5-.5-.5-3.5.1-3.5.1v-2h1.6l2.5-2 2.5-2-2.1 1-2.1 1-1.8-1.3-1.8-1.3 3.2-1.9 3.2-1.9v-1.8l-1.5.6-1.5.6v-2l1.8-2 1.8-2-.1-.7-.1-.7 2.1-1.7 2.1-1.7-5 .4-5 .4-5.2 1.4-5.2 1.4.4-.7.4-.7 7.8-3.3 7.8-3.3 2.5-2.3 2.5-2.3h-2.4l-.9.7m75.8.3-.7 1.2 1.2-.7 1.2-.7v-1h-.8l-.9 1.2m26.1 3.9-3 1.9h-3.6l.4 1.2.4 1.2 1.6.3 1.6.3 3.3-3 3.3-3-.5-.4-.5-.4-3 1.9m-45.8 1.6-.7.7v2l1.2-1.2 1.2-1.2-.5-.5-.5-.5-.7.7M2018 617v1.3l.7-.7.7-.7-.7-.7-.7-.7v1.5m74.2.2-2.3 1.1.3 1.6.3 1.6h3l-.3-1.4-.3-1.4 1.2-1.4 1.2-1.4-.4.1-.4.1-2.3 1.1m-20.4 1.5-1.8.5v2.2l.6-.6.6-.6 2 1.1 2 1.1.9-1.4.9-1.4V618l-1.8.1-1.8.1-1.6.5m-2.8 3.8v.5h1v-1h-1v.5m2 .5v1h1.8l.6-1 .6-1h-3.2v1m575.2 2.5v.5h1v-1h-1v.5m-575.7 2.2 1.7 1.7.7-.7.7-.7-1.5-.9-1.5-.9h-2l1.9 1.5m-47.3-.2v.5h1v-1h-1v.5m581 9v.5h1v-1h-1v.5m3 0v.5h1v-1h-1v.5m-636 1v.5h1v-1h-1v.5m70 0v.5h1v-1h-1v.5m29 0v.5h1v-1h-1v.5m537 1v.5h1v-1h-1v.5m-620.8 3.7-2.2 1.1v3.4l2 .5 2 .5.6-.9.6-.9-1.8-.1-1.8-.1 2.2-1.6 2.2-1.6V641l-.8.1-.8.1-2.2 1m54 3.8-2.2.9v1h1.6l1.9-1.5 1.9-1.5h-1l-2.2 1.1m19.8 27.5v.5h1v-1h-1v.5m2 2.5v1.3l.7-.7.7-.7-.7-.7-.7-.7v1.5m453 131.5v.5h1v-1h-1v.5m-383 94v.5h1v-1h-1v.5m-21 3v.5h1v-1h-1v.5m6 12.6v1.1l1-.6 1-.6v-1h-2v1.1m16-.6v.5h1v-1h-1v.5" style="fill-rule:evenodd;clip-rule:evenodd;fill:#cb5c1b" id="path4"/>
    <path class="st1" d="m681.6 461.7-.7 1.6.8.8.8.8.1-2.5.2-2.4h-.6zm57.9 33.2-.5 1 1 .6 1 .6V494h-.9zM693.8 478h-.8v1.9l1 .6 1 .6-.6-1.5zm35.7 13.9 1.2 1.2 1.3 1.3.5-.6.6-.6-1.8-.6zM720 488l-2.5-.8-3-.1 4 1.8 2-.1h2zm-56.6-20.8-1.9 2.3 2.3-1.9 2.2-1.9v-.7h-.7zm-4.6 4.5 1.2.5 1.2-.5 1.3-.5h-5zm-16.3-.5 1.3.5 1.3.5 1.2-1.2-1.9.1zm-7-7.3 1.2 1.2 1.3 1.3.5-.6.6-.6-1.8-.6zm35.8-10.9h-1l-1.7 1.9-1.8 2 .7 1 .6 1.1h2.4l-1.5-1-1.4-.9 1.8-2zm258.6-30.2-1.4 1.7 1.7-1.4 1.8-1.3v-.8h-.8zm-31.4-11.6 1.3.5 1.3.5 1.2-1.2-1.9.1zm57 14 1.3.5 1.3.5 1.2-1.2-1.9.1zm4-1 1.3.5 1.3.5 1.2-1.2-1.9.1zm-13.1-7 .7-1.2h-.6l-1.3.9-1.4.8 1.8.7 1.7.7 1.1-1.1 1.1-1.1-3.8 1.4zM823 444.1v2.8l.8.5.8.5 1.1-1.7 1.1-1.7-1.9-.1-1.9-.3zm2 1.9h-1v-1h1v1zm-34.2 16h-.7l.5 1.3.5 1.4h2.9v-1.5l-1.6-.6zm7.8-4.8.4.7-1.7 1-1.8 1 1.2.1h1.2l.7-1.1.6-1.1 1.8.5 1.9.5.4-1.2.4-1.1h-5.5zM815 451v-2h-2v2h-2.9l-.5.9-.6.9 2.4-.2 2.4-.1-.4-.7-.5-.7 6.8.5v-2.4l-2.4.9zm-7.2 0h-1.4l-.1 3.2-.2 3.3.5-1.3.6-1.2.7.5.8.4-.5-2.4zm71.7-39.8 1.3.5 1.3.5 1.2-1.2-1.9.1zM754 503.1l-4-2.2v1l4 2.2zm-7.2-5.1-1.7.1-1.6.1 1.5.5 1.5.6 1.5 1.1 1.5 1.1-1.4-1.7zm34.4-26.1-2.2 1.8v3.1l-3 2.4v3.4l-2 2.2-2 2.1v3.2l-2.5 2.7-2.5 2.7v2.1l-2.8 1.7-2.7 1.7-2.9 2.5-2.8 2.6.4.5.5.4 4.2-4 4.2-4h2.9v-4.1l1.4-.5 1.3-.5 3.2-6.7 3.3-6.7.9-1.5 1-1.5.5-1.7.6-1.8h1.3l2.5-4h-.7zm76.3-39.7-1.3.5-1.2.5v2.7l-3.5 2 .8.1h.7l-1.7 2.8-1.7 2.7 2.5-2.5 2.5-2.5-.3-.7-.3-.7 1-.6 1-.6 1-2 1.1-1.9-.3.1zm9.1-10.2H864v2.1l1.8-1 1.7-.9 5.9-6.2h-1zm-33.1 22.9 1.2 1.2 1.3 1.3.5-.6.6-.6-1.8-.6zm-5.1-.7-.5.8h3l.5-.8.5-.9h-3zm20.2 1.3.6 1.5-1.6-.6-1.6-.6v1.9l1.3 1.3 1.4-1.1 1.3-1.1V444h-1.9zm-2.6 4.2v2.4l-1.2-.7-1.1-.7.8 1.2.7 1.3 1.1-1.1 1.1-1.1-.7-.7zm-1-1.2h-4.8l.5.7.4.8h3.9zm-403.5 4.7 1.3.5 1.3.5 1.2-1.2-1.9.1zm-55.7-20.5 1.2.5 1.2-.5 1.3-.5h-5zm15.1 3.3H399v.8l1.6.6 1.5.6-.6-1zm-7.4-2 3 2h2l-3-2zm45 17-3 .1 4 1.8 2 .1zm28.4 9H465v.8l1.6.6 1.5.6-.6-1zm-11.4-1.8 1.3.5 1.3.5 1.2-1.2-1.9.1zm-34-12.1 4 1.8 2 .1-3-2zm-38.4-11.5.1 1.9.5-1.3.5-1.3-1.2-1.2zm245.8 26.9.7 1.8.6 1.8.6-.6.6-.5-1.3-1.3zM355.8 497h-.8v.8l1.8 1.3 1.7 1.4-1.4-1.7zm-9-22.5.6-.5-1.3-1.3-1.2-1.2.7 1.8.6 1.8zm34.1-34.7-1.4 1.7 1.7-1.4 1.8-1.3v-.8h-.8zm-32 44.2-1.2-2.5-.3-.4-.4-.4v1.9l1.6 2 1.5 1.9zm27-10.5.7 1.8.6 1.8.6-.6.6-.5-1.3-1.3zm-1.4 7.6-.7 1 .5.5.5.5.5-1.6.6-1.5h-.8zm214.6 1.5.1 1.9.5-1.3.5-1.3-1.2-1.2zm-4.6 3.6 1.3.5 1.3.5 1.2-1.2-1.9.1zm-11.4 11.4.1 1.9.5-1.3.5-1.3-1.2-1.2zm4.9.4v.8l2 .5 2 .5.4-.7.5-.7-2.5-.2zm22.2-29-.9 1.2-1 1.3-.7 1.2-.7 1.2 4.1 2.2V474h-3.2l3.2-5zm23.1-19-3.6-4h-1l3.6 4zm-.3 4.3.7-.6.6-.7H622v1.8l1.8 1.3 1.7 1.4-1.2-1.6zm-21 7.2-1.3 1.5.4.5.5.4 1.2-1.9 1.2-2h-.8zm-105 8-2.5 1.4h2l2.5-1.4 2.5-1.4h-2zm24.5-.6 1.2 1.2 1.3 1.3.5-.6.6-.6-1.8-.6zm8 .3 1.3.5 1.3.5 1.2-1.2-1.9.1zm-41.5-.3 4 2.2v-1l-4-2.2zm46.7 1.1h-1l3.6 4h1zm-53.7-4.1 4 2.2v-1l-4-2.2zm58.6 16 .4.4v-3.8l-1-1.5-1.1-1.5.7 3 .7 3zm7.9 9.3 1.3.5 1.3.5 1.2-1.2-1.9.1zm776 35.9 4 1.8 2 .1-3-2zm-39-10.2-.6-1.9-2.2-1.2-2.1-1.1 4.2 5 4.2 5.1 1.8.4 1.9.5v-2.6l-2 .2-2 .2-.5-1.5-.4-1.3-1.7.2z" id="path6"/>
    <path class="st1" d="m1287.6 516.1-.5.4-.4.5h2.3v1.6l-2 .1 1 1 1.3 1.2 1.9-1 1.8-1v2.1h2.1l-1.2-2 1.8-.1 1.8-.1-5-1.3zm-97.1-48.8-3.5-1.8-3.5-1.7 2 1.9 2 1.9 1.8.2 1.9.1-.3-.3zm-10.3-10.8v6l.5-1.8.5-1.7-.5-1.3zm17.3 14.9-3-1.8-3-1.7 2.4 2 2.3 2.1h2.1l-.4-.3zm-18.5-23.7.1 1.9.1 1.9.5-1.3.5-1.3zm-1-7 .1 1.9.1 1.9.5-1.3.5-1.3zm293.8 96 1.2.5 1.2-.5 1.3-.5h-5zm-19.9.3h-2.9v.8l2 .5 2 .5-.6-.9zm-27.7-13.3 1.8.4 1.8-.4 1.7-.5h-7zm10.6.3h-.8v.8l1.8 1.3 1.7 1.4-1.4-1.7zm6.7 5.1h-3l2.3.9 2.2.9v2.2l1.1-.6 1-.7-1.8-1.4zm47.9-26.7-.6 1.5.4 2.3.4 2.3.5-3.7.5-3.8h-.7zm-102.9 18.5 1.2 1.2 1.3 1.3.5-.6.6-.6-1.8-.6zm-5.7-12.9h-2.1l.4.3.4.3 2 1.4 2 1.5-1.4-1.7zm-46.5 20.7 1.7.5 1.3-.5 1.2-.5h-6zm13.2-1.4 2.3.4 2.2.4 1.8-.4 1.7-.5-4 .1zm12.6-20.3-.6 1.1-.7 1 .6.6.6.6v-2.2l1.8-.4 1.7-.5-1.7-.1zm.6 16.7.7 1.1.6 1-1.2.5-1.3.5 1.2.1 1.2.1.6-.9.5-1-1.1-.7zm46.5-24.9-1-1 .6 2.9.6 2.8.4-1.9.4-1.8zm5 14.1-.6 1.8-.7 1.8 1.2-1.2 1.3-1.3-.6-.5zm-.7 5.1-3 2h2.4l1.2-2h-.3zm-18.6 1.8-1.4 1.7 1.7-1.4 1.8-1.3v-.8h-.8zm1.7-6.9-.6.9 2-.5 2-.5v-.8h-2.9zm-371.7-114.4v-1.6l.1-1.7-1.5-1.2-1.5-1.2.7-1.1.6-1-1.1.7-1.2.7v-2.9l.8-.5.7-.4-2.3.5-2.3-2.3 1.6 3.2 1.6 3.3 1 .6 1 .6.9 2.2zm-8.9-43.2.5-.4.4-.5-1.9-1.2-1.9-1.2-.7 1.3-.7 1.2.8-.7.8-.8 1.4 1.2zm17.9 43.7h1l2.2-4h-1zm8.6-11.8 1.3.5 1.3.5 1.2-1.2-1.9.1zm4-1 1.3.5 1.3.5 1.2-1.2-1.9.1zm-14.1 18.4-.6-1.6h-.8v1.9l1 .6 1 .6zM975.5 390l3 2h2l-3-2zm-4-1.8-4 .1h-4l2.3.4 2.2.4 1.8-.4zm32.6-16.2-1.5 2.2-1.5 2.2.6.9.6.9-1.9 1.5-1.8 1.5 3-1.5 1.8-1.5 1.8-1.5-1.2-.7-1.2-.7 2.6-3.2h-1.3zm-1.1 4v1h-1v-1h1zm4.3-11h-1l-1.6 1.8-1.7 1.9v2.1l1.7-.2 1.7-.3.2-1.2.2-1.1-.5 1-.5 1-1-.6-.9-.6 1.7-1.9zm-1.7-2.4-1.6 1.5v1.2l4-3.6v-.7h-.9zM994.9 395l-.4.1-1.9 1.4-2 1.5h2.2l2.4-3zm-1.9-3v.8l2 .5 2 .5.4-.7.5-.7-2.5-.2zm60.5-7.8 1.8.5 1.7.5 1.3-.5 1.2-.5h-3zm65.2 32.8 3.6 4h1l-3.6-4zm-9.2-6.8 1.3.5 1.3.5 1.2-1.2-1.9.1zm-6.7-1.5 1.2.5 1.2-.5 1.3-.5h-5zm49.8 14.5.5.8h2.9v-1.6h-3.9zm-16.1-1 1.3.5 1.3.5 1.2-1.2-1.9.1zm25 2.7 1.2 1.2 1.3 1.3.5-.6.6-.6-1.8-.6zm-.1-9-.4-.7-2.4-.4-2.5-.5.2.6.1.6-1.2 2.5-1.3 2.5 1.5-1.9 1.5-1.8 2.4-.2 2.5-.1zM1095 403h-.6l-2 1.6-1.9 1.5 2.3-1.1 2.2-1.1zm-24.7-17.4-1.8-.7 1.2 1.2 1.3 1.3.5-.6.6-.6zM1083 356h-2.1l-1 2.6-1 2.7.5.5.5.4.7-2.6.6-2.6.9.6.9.5zm3.5 32.3 2.2-1.4 2.2-1.3-1.2-.8-1.2-.8-1 .1-1 .1 1.3.5 1.3.5-1.3 1.6zm7 13.9-2.2-2.1-2.2-2.1h-1.2l.6 1 .6 1 2.2 1.1zm1065.8 63.3v9l.4-2.3.4-2.2-.4-2.2zm-29.8 50.5-3-2h-2l3 2zm26-63.9.5 5.2.5 5.2.3-4.4.3-4.4-.8-.8zm-10 64.1h-6l3.5 1zm74.5-120.5v-.7h-.7l-3.8 4.5 2.3-1.9zm-4 5.1v-.8h-.8l-1.3 1.8-1.4 1.7 1.7-1.4zm-4 3.2h-.6l-3.9 4.2-4 4.3 8.5-7.9zm29.3-37.3 1.2-.5h-6l3.5 1z" id="path8"/>
    <path class="st1" d="m2203.8 415.8 4.8-4.9 4.8-4.9h-1l-3.8 3.9-3.8 3.9-1.7-.1-1.7-.1-.3.5h.8v1h-1v-.6l-.5.9 1.6.2 1.8.2zm-.8-1.8h1v1h-1v-1zm40.1-45.7 1.3-1.3-.6-.5-.6-.6-.6 1.8-.7 1.8zm-15.1 17.5v-.8h-.8l-1.3 1.8-1.4 1.7 1.7-1.4zm9-15.7-.6-1.5-.6-1.6h-.8v1.9l1 .6zm-78.5 77.7.8-.8 1.6 1.3 1.6 1.2-1.4-1.7-1.3-1.8h-.7l-.7 1.2-.7 1.3zm9.8-5.8 2.7 2.2 1.2-3.2 1.1.7 1.1.7-1.4-1.7-1.4-1.7h-.8l-.6 1.5-.6 1.5-.8-.5-.8-.5-.7 1.3-.7 1.3.8-.7.9-.9zm2.7-2h1v1h-1v-1zm-1 2h1v1h-1v-1zm-240 167.7.1 1.9.1 1.9.5-1.3.5-1.3zM1752 569h1.9l1.2-2h-3.1zm125.8-18 .5 1.2.5 1.3.1-1.1.1-1.2-1.3-1.1-1.4-1.1v2.9l.8-.4zm112.2 55.2-1.5-.6-1.5-.5v.7l3 2.4zm-326.8-75.7.5-2 .5-2 2-2.5h-.8l-1.2 1.2-1.2 1.2.1 2.1zm357.9 70.7 1.2-1.2-1.9.1-1.9.1 1.3.5zm-9-35.6.1 1.9.5-1.3.5-1.3-1.2-1.2zm2.6 12.5 1.3 1.6-.7.6-.6.7h2.3v-1.8l-1.8-1.3-1.7-1.4zM1613.3 537l-4.6-5h-1l4.6 5zm636-158-3.6-4h-1l3.6 4zm1158 11 .5-.5.5-.5h-2.4l1.2-2h-.6l-1.3.9-1.4.8 1.8.7zm-115.5 34.7 2.2.4 2.2-.4 2.3-.4h-9zm3.2-4.5 1.2-.5 1.3-.5h-5l1.3.5zm-54.8 18.8h-.3l-.4.1-1.9 1.4-2 1.5h2.2zm-6.2 4.8v-.8h-.8l-2.3 2.1-2.4 2 2.7-1.7zm42.5-28.8-3-2-3 .1 4 1.8zm-14.5 6h-.6l-3.9 4.2-4 4.3 8.5-7.9zm17-3.6.5-.6.6-.6-1.8-.6-1.8-.7 1.2 1.2zm13 3.4-.6-.9-.5-.9h-2.9v.8l2 .5zm-839-66V353h-.8l-1.2 1.5-1.3 1.5 1.7-.6zm-9 9.3v1l3-1.6 3-1.6v-.9l-.5.1zm-12.3 5 3.7-2.2 3.6-2.1v-.8l-.5.1-3.8 2-3.9 2 .5.5zm22.9-18 1.4 1 1.5.9h-3.5v1.8l3 2.5-.5-1.6-.6-1.5 1.1-.7 1.2-.7-2.1-1.9-2-1.9h-1.1v3.1l.8-.5zM2279 391.2l1.2-.5 1.3-.5h-5l1.3.5zm644.3 72.3.4-3.8.4-3.7-.4-3.3-.4-3.2v7zM2470 391v.8l1.8 1.3 1.7 1.4-1.4-1.7-1.3-1.8zm5.5.5-1.4-1.7-1.3-1.8h-.8v.8l1.8 1.3zm-2361 60.7 1.3.5 1.3.5 1.2-1.2-1.9.1zm-8.5-13.5.1 1.9.1 1.9.5-1.3.5-1.3zm88.1 43-.9 1.7-1.9-1.4-1.8-1.5 1.4 1.7 1.3 1.8h1.7l2.2-4h-1zm-34.6-12.6-2.5 1.4-2.5 1.4 1.1.1h1l2-1.5 1.9-1.4h-.5zm3.3-1.4 1.2.5 1.2-.5 1.3-.5h-5zm9 2.3h-.8v.8l1.8 1.3 1.7 1.4-1.4-1.7zM59.6 434.5l-.3-.4-.3-.4v3.1l1.6.6 1.7.6-1.4-1.7zm6.5-10.8-1.2-1.2.7 1.8.6 1.8.6-.6.6-.5zM60.5 439l-3 2h2.4l1.2-2h-.3zm-16.6-11H42v.8l1.6.6 1.5.6-.6-1zm-8.2-5 3.6 4h1l-3.6-4zm50.8 25.2 1.3.5 1.3.5 1.2-1.2-1.9.1zm-7.4-.6.1 1.9.5-1.3.5-1.3-1.2-1.2zm2.4 1.6 1.3.5 1.3.5 1.2-1.2-1.9.1zm12.8-5.4-.6 1.7-.5.9-.5.9 1-.6 1.1-.7.5-2 .5-2h-.9zm6.8 1.8.1 1.9.5-1.3.5-1.3-1.2-1.2zm34.8 16.4H134v.8l1.6.6 1.5.6-.6-1zm197.3 23.9-.6 1.8-.7 1.8 1.2-1.2 1.3-1.3-.6-.5zM314.5 508l-.6 1 1.5-.6 1.6-.6v-.8h-1.9zm19.1-30.5-.3-.4-.3-.4v3.3h2.1l-.7 1.2-.7 1.1 1.2-.7 1.2-.8-1.3-1.6zm-49.9 55.6 1.1 1.1 1 1 1.3-.4 1.3-.4-2.3-.7zm36.2-27.3-1.4 1.7 1.7-1.4 1.8-1.3v-.8h-.8zm-104-21.8h-1.8l-.5.8-.5.8h3.8l-.5-.8zm-12.4 6.8 1.7 1.8 1.8 1.8.4-.5.5-.5-2.2-1.3zm13.5-1.1.1 1.9.1 1.9.5-1.3.5-1.3zm50.5 49.5 1.3.5 1.3.5 1.2-1.2-1.9.1zm-2.7-3.2h-.8v.8l1.8 1.3 1.7 1.4-1.4-1.7zm-7.1-6 4.6 5h1l-4.6-5zm-12.1-13 9.8 10h1l-9.8-10zm24.4 15v1.9l1.2.7 1.1.7-.7-1.1-.6-1 1.7-.5 1.8-.5-2.3-.1zm-46.5-28.8 1.8.5 1.7.5 1.3-.5 1.2-.5h-3zm1185.5 6.6 1.8 1.3 1.7 1.4-1.4-1.7-1.3-1.8h-.8zm-390.1-132.3 1.2-1.3 1.3-1.2-1.1-1.1-.7 1.7zm-3.8-2.2-2 .1.9 1.2 1 1.1-.7.6-.6.7h1.2l1.1-1.9 1-2zm2.6-7.4.3.4-.1-2.9-.1-2.9-.5 1.3-.5 1.3-1.6-1.3-1.7-1.3 2 2.5 2 2.5zm-1.3-5.9 1-1 1-1-2-2zm-3.8-11 2.2 1.6 2.2 1.5-.5 1-.6.9h2.1v-1.7l-1.8-1.6-1.9-1.7zm2.6-4-.5-1.2-.5-1.3v5l.5-1.3zm1.8 25.8 1.1 2.3 1.1-.7 1-.6-1.2-1.2v1.8l-3.1-3.9zm467.8 143.3.5-1.6.6-1.5h-.8l-.6 1.1-.7 1 .5.5zm123.5-2.1h1l-3.6-4h-1zm-110.5 3.7 1.2.5 1.2-.5 1.3-.5h-5zm106.7-3.7 1.7 1.6 1.6 1.6 1.1-.3 1-.4-2.7-1.3zm-531.3-139.2.5-2.8h-.8l-1.1 2.9.9 2.6zm17.9 24.2h1.9v-2.2l-2-2.5-2-2.6v2.1l1.5 1.2 1.6 1.3-.5 1.4zm267 113.6.1 1.9.5-1.3.5-1.3-1.2-1.2zM5.3 396H4.1l-.4.8-.5.7-1.1 7 1.1-3.5 1.2-3.5 1-.7 1.1-.8zm10.4 9.7-.5-1.2v6l.5-1.8.5-1.7zm8.3 3 .1 1.9.1 1.9.5-1.3.5-1.3zm922.2-4.7-.5-1.2-.5-1.3v5l.5-1.3zm15.8-14.2v-.8h-1.9l-.6 1-.6 1 1.5-.6zm-13.8 22.1-.6 1.8-.7 1.8 1.2-1.2 1.3-1.3-.6-.5zm8.6 4.2-1.4-.5-1.4-.5v3l1.9-1.1 2-1 .6-1 .6-1h-1l-.6 1.1zM2928 483.9v2l1.1.6 1 .7.4-.4.3-.3-1.4-1.3zm-55.5-68.7 1.3.5 1.3.5 1.2-1.2-1.9.1zm-23-10.2 3 2h2l-3-2zm47 16.2 1.3.5 1.3.5 1.2-1.2-1.9.1zm5 1 1.3.5 1.3.5 1.2-1.2-1.9.1zM2762.6 390l-1.5.1-1.6.1 1.5.5 1.5.6 2 .9 2 .9-1.9-1.5zm-20.1 10-3 2h2.4l1.2-2h-.3zm-15-4.8 1.3.5 1.3.5 1.2-1.2-1.9.1zm53-.9 2.8.4 2.7.4 2.3-.4 2.2-.4h-5zm28 0 2.8.4 2.7.4 2.3-.4 2.2-.4h-5zm23.5-.3h-1.4l7.9 5.9.9.1h.9l-4.1-3zm-27.5.2 1.3.5 1.3.5 1.2-1.2-1.9.1zm224.3 148.5 1.2.5 1.2-.5 1.3-.5h-5zm-26-25.7h-.8v.8l1.8 1.3 1.7 1.4-1.4-1.7zm3.9 4 3.6 4h1l-3.6-4zm6.1 6h-.8v.8l1.8 1.3 1.7 1.4-1.4-1.7zm6.3 4.8-1.3-1.8h-.8v.8l1.8 1.3 1.7 1.4zm30.4 4.4 1.3.5 1.3.5 1.2-1.2-1.9.1zm-108-47 1.3.5 1.3.5 1.2-1.2-1.9.1zm-6.7-1.5 1.2.5 1.2-.5 1.3-.5h-5zm-12.1-44.9-.5-1.3v5l.5-1.3.5-1.2zm3.1 34.2h-.8v1.9l1 .6 1 .6-.6-1.5zm68.3 24.8-1.3-1.8h-.8v.8l1.8 1.3 1.7 1.4zm-73.1-66.1.1 1.9.1 1.9.5-1.3.5-1.3zm46.8 60 1.2.5 1.2-.5 1.3-.5h-5zm13.7 3.5 1.3.5 1.3.5 1.2-1.2-1.9.1zM2484 402v.6l6.5 5.9-5.9-6.5zm15.5 10.9 1.2 1.2 1.3 1.3.5-.6.6-.6-1.8-.6zm52.4 24.1h-1.9v.8l1.6.6 1.5.6-.6-1zm-24-12h-1.9v.8l1.6.6 1.5.6-.6-1zm-77.7-41.5v6l.5-1.8.5-1.7-.5-1.3zm-1-18v6l.5-1.8.5-1.7-.5-1.3zm26.5 27.5 3.6 4h1l-3.6-4zm-27.7-20.3.1 1.9.1 1.9.5-1.3.5-1.3zm4.2-3.2v5l.5-1.3.5-1.2-.5-1.2zm-1.2 7.2.1 1.9.1 1.9.5-1.3.5-1.3zm-3-17.7h-.5l-6 4h2l5-4zm-.8 19.5v5l.5-1.3.5-1.2-.5-1.2zm-1.1 9.1.1 1.9.5-1.3.5-1.3-1.2-1.2zm23.4 10.4 3 2h2l-3-2zm4-2.5 2.3 2.6 2.2 2.5-.7.9-.8.8 1.2-.6 1.1-.7.5 1.2.5 1.3.1-1.1.1-1-3.2-3zm-16-1.3 1.3.5 1.3.5 1.2-1.2-1.9.1zm-1.6-25.2h-1l2.2 4h1zm197.6 27.2-1.3 1.4-1.3 1.4h2l.6-1.1.7-1-.3-.4zm6-2-1.3 1.4-1.3 1.4h2l.6-1.1.7-1-.3-.4zm3.1-.8-1.8-.3.4 1.2.4 1.2 1.8.3 1.8.3-.8-2.5-1.8-.2zm1.4 1.6h-1v-1h1v1zm-16.9 19.6.1 1.9.5-1.3.5-1.3-1.2-1.2zm1-5 .1 1.9.5-1.3.5-1.3-1.2-1.2zm.4-6.5-.7 1 .5.5.5.5.5-1.6.6-1.5h-.8zm19.5-10.7v2.4l1.7-.2 1.7-.3.4-1.1.3-1.1-2 .2zm19.4-1.8-1.1-.3-1.1-.4-.6 1.7-.6 1.7 1 1 .6-1.7.7-1.8.9 1.4 1 1.3-.4-1.4zm11.6-.2-9-.1.5.5.4.5 8.6.2 8.5.3v-1.3zm13.5-1.1-1.9.7-2 .7 2.4.6 2.4.6.3-.2.2-.3-.7-1zm-122.6 44-3.9-.1-4-.2v1.5l5 .1 5.1.1-1.1-.7zm-9.4-.2-1.3 1.4-1.3 1.5h3.1v-3h-.2zm-10.5 5.6 2.5-.5 2.5-.4v-.8h-5zm-6.5 1.4-.5.7 1.5-.2 1.4-.2 1.1-1.1h-3.1zm61-7.9 1.3.5 1.3.5 1.2-1.2-1.9.1zm4-1 1.3.5 1.3.5 1.2-1.2-1.9.1zm15-5.9-1.7 1.9-1.8 1.8h1.8l1.2-1.5 1.3-1.5-.4-.4zm-36 7.2-1.2-.8-1.2-.7-.7 1.2-.7 1.3.8-.7.8-.8 1.1.9 1.1.9 2-.9 2-.9-2 .2zm10.4-1.5h-1.8l-.5.8-.5.8h3.8l-.5-.8zm5 0h-1.8l-.6.9-.5 1 1.9-.2 2-.1-.5-.8zm-14.4-.8 1.3.5 1.3.5 1.2-1.2-1.9.1zm684.6 12.5-1.2-1.2.7 1.8.6 1.8.6-.6.6-.5zm48.8-42.9-1.4 1.7 1.7-1.4 1.8-1.3v-.8h-.8zm-26.4 4.5 2.3.4 2.2.4 1.8-.4 1.7-.5-4 .1zm-4.5 10.4v2.4l-.8-.5-.8-.5-6 1.9-5.9 1.8 1.1.1 1.1.1 4.8-1.5 4.8-1.4.8.5.8.4.6-1 .7-1.1-.6-.6zm.7-6.2.1-.7.2-.8h-.9l-.6.9-.5 1 1 .6 1 .6.1 2.2.1 2.2.5-1.3.5-1.3-.8-1.7zm-21 26.3-.5-1.3v5l.5-1.3.5-1.2zm-15.6-6.2.1 1.9.5-1.3.5-1.3-1.2-1.2zm-5.8 5.9v11l.4-2.7.4-2.8-.4-2.8zm-.2-5.9.1 1.9.5-1.3.5-1.3-1.2-1.2zm16 8 .1 1.9.5-1.3.5-1.3-1.2-1.2zm-4.6-19.7 1.2 1.2 1.3 1.3.5-.6.6-.6-1.8-.6zm6.9 7.2-1.9.1 1.3.5 1.3.5 1.2-1.2zm-5.5 15.7-1.4 1.7 1.7-1.4 1.8-1.3v-.8h-.8zm-5.7-2.3v6l.5-1.8.5-1.7-.5-1.3zm126.3-37.2 2.8.4 2.7.4 2.3-.4 2.2-.4h-5zm25.3-.6 1.2.5 1.2-.5 1.3-.5h-5zm13.7 4.8 2.3-1.9 2.2-1.9v-.7h-.7zm29-41 6.5-5.9v-.6h-.6zm-6 5 2.3-1.9 2.2-1.9v-.7h-.7zm-76.7 29.2 1.2.5 1.2-.5 1.3-.5h-5zm-1.3 2.6-4 1.6h3.3l3.2.1v-.8l-1.2-.5zm-21-8.1 1.3.5 1.3.5 1.2-1.2-1.9.1zm-5.3 1.5 1.8.4 1.8-.4 1.7-.5h-7zm56 .8v6l.5-1.8.5-1.7-.5-1.3zm.3 0-1.4-1.7-1.3-1.8h-.8v.8l1.8 1.3zm-11 10.7 3.5 1 1.3-.5 1.2-.5h-3zm-98.8 24-.6 2.2.3.3.3.3 1.1-2.5 1.2-2.5h-1.8zM3144 501.5l-1.3 1.5.4.5.5.4 1.2-1.9 1.2-2h-.8zm-4.6 8.1-.7 2.3-.6 2.4 1.1-1.1 1-1-.4-1.3zm-7.5 5.4h-1.9v.8l1.6.6 1.5.6-.6-1zm23.5-21.4-.7 2.3-.6 2.4 1.1-1.1 1-1-.4-1.3zm14.1-10.5-.7 1 .5.5.5.5.5-1.6.6-1.5h-.8zm-3.5 10.4-1.2 3 3.3-4.6-.7-2.3zm6.6-14-.3-.4-.3-.4v3.1l1.6.6 1.7.6-1.4-1.7zm-25.7 23 .7 1.8.6 1.8.6-.6.6-.5-1.3-1.3zm-26 18.3-1.4 1.7 1.7-1.4 1.8-1.3v-.8h-.8zm117.3-60.7-.5-1.8-.5-1.8-.2 3.4 1.1.7 1.1.6 1.1-1.1 1.2-1.2-1.7.6zm-1.4-15.1-.3.1-3.6 2.7.8.5.9.6 1.2-2 1.2-1.9zm10.2-10.2v-.8h-.8l-1.3 1.8-1.4 1.7 1.7-1.4zm-18.9 12.2h-.6l-3 2h2.4zm-.7 4.1-.1 2-.2 1.9h.7l.5-1.5.6-1.4-.7-.5zm33.6-25.3-5.5 5.7 11.5-10.9v-.6h-.6zm9-11.8h-.7l-2.4 2.8-2.4 2.7 2.7-2.4 2.8-2.4zm-22.1 43h-2.9v.8l2 .5 2 .5-.6-.9zm-.4-18.5 2.3-1.9 2.2-1.9v-.7h-.7zm2.4-6.7-1.4 1.7 1.7-1.4 1.8-1.3v-.8h-.8zm6.6 22.4 1.3.5 1.3.5 1.2-1.2-1.9.1zm-58.7 13.4-.3 6.6 1.5.9V461h-.8zm.5-10.1-.5 1.6.4.5.5.5.6-2.1.5-2h-.9zm4.9 8v5l.5-1.3.5-1.2-.5-1.2zm6.4 5.1-1.6 1.5v1.2l4-3.6v-.7h-.9zm1.9-7.7 1.2 1.2 1.3 1.3.5-.6.6-.6-1.8-.6zm-7.7 9.1h-.7l.2 1.9.1 2 .8-.5.7-.5-.6-1.4zm19.7-10.8-1.3 1.4-1.3 1.4h2l.6-1.1.7-1-.3-.4zm-1343.8 98.5-.5-1.2v6l.5-1.8.5-1.7zm-4.9 17.3h-.8v1.9l1 .6 1 .6-.6-1.5zm7 19h-.8v1.9l1 .6 1 .6-.6-1.5zm-87.3-30.8 1.3.5 1.3.5 1.2-1.2-1.9.1zm6.3-1.5 1.2.5 1.2-.5 1.3-.5h-5zm-22.3 9.7-2 1.3-3 1.2-3 1.1 3.8-.6 3.8-.5 2-2 1.9-1.9h-1.6zm6-2.4h2l3-2h-2zm198 44.2 1.3.5 1.3.5 1.2-1.2-1.9.1zm7.3-3.2h-.6l-.5 1.4-.6 1.4 1.3.5 1.4.5-.5-1.9zm22-35h-.7l.5 1.5.6 1.5h2zm-10.6-.1-.6 1.8-.7 1.8 1.2-1.2 1.3-1.3-.6-.5zm8.6-21.9-.3-1.1-1.5 1.4v3.1l1.1-1.1 1.1-1.1z" id="path10"/>
    <path class="st1" d="m2017.9 601 .4.5-.6-1.7-.6-1.8h3.9v-2l-2.4 1-2.3.9-1.4-1.2-1.3-1.2 3.9 5zm-16-32.2-1.4 1.7 1.7-1.4 1.8-1.3v-.8h-.8zm4.7-8.2-.6 1.7 1.5-1.3 1.5-1.2v-.8h-1.8zm-57.8 63.5-2.8-.1.4 2.2.3 2.3 2.2.1 2.1.2-2.1-.5-2.2-.5 1.4-.9 1.4-.9-3-.2 5-1.6zm-7.3 5.9-3 2h2.4l1.2-2h-.3zm-7.8-7h-1.7v.8l2.8 1.7 2.7 1.8-1.9-2.1zm-2.5-5.1-1.2-1.2.1 1.9.1 1.9.5-1.3zm24.3 3.6-1.4-1.7-1.3-1.8h-.8v.8l1.8 1.3zm20.5-4.5h-2.9l-.5.9-.6.9 2-.5 2-.5zm.7-1.9 1.1 1.1 1 1 1.3-.4 1.3-.4-2.3-.7zm-11.2 2.1 1.3.5 1.3.5 1.2-1.2-1.9.1zm-5.3-9.7v6l.5-1.8.5-1.7-.5-1.3zm3.6 3.5h-.8v4.9l1.6 1-.4-3zm-456.3-70.8 1.3.5 1.3.5 1.2-1.2-1.9.1zm80.4 6.6-1.4 1.7 1.7-1.4 1.8-1.3v-.8h-.8zm6.3-12.9-.6 1.8-.7 1.8 1.2-1.2 1.3-1.3-.6-.5zm-3.9-2.4-.5 1.6.4.5.5.5.6-2.1.5-2h-.9zm5.8-9.5-2.1 2.6-2.1 2.6v1.6l.9.5.9.5 2.3-2.8-1.3-.5-1.3-.5 3.8-4.3h-1.1zm-2.1 5v1h-1v-1h1zm14.5-2.5-1.4-1.7-1.3-1.8h-.8v.8l1.8 1.3zm-.5 6.6-.6-1.5-.6-1.6h-.8v1.9l1 .6zm-11.1-14.3-2.4 2.7 2.7-2.4 2.8-2.4v-.7h-.7zm11.1 3.1 1.3-2.2-1.2.7-1.2.8-1.4-1.2-1.5-1.2v2.8l2 .1zm-3-10.4v-3.4l-.9-.5-.9-.6-2.1 3.4-2.1 3.3v1.8l2.1-3.4 2.1-3.4.9 1.4zm7.1 36.3-1.3-1.8h-.8v.8l1.8 1.3 1.7 1.4zm-100.6-4.6 1.3.5 1.3.5 1.2-1.2-1.9.1zm506.6 63.5-1.2-1.2.7 1.8.6 1.8.6-.6.6-.5zm-493-56.9-1.3-1.8h-.8v.8l1.8 1.3 1.7 1.4zm-23.6-16.9.1-2.5.2-2.4h-.6l-1.3 3.3.8.8zm.3 4.1h-.8v1.9l1 .6 1 .6-.6-1.5zm-3.4-13.9-1.9.1 1.3.5 1.3.5 1.2-1.2zm44.7 50.6-2.6-.2-2.5-.1v1.7l2.4-.3 2.3-.3 1.9 1.5 1.9 1.4-1.7-1.9zm92.4-33.5 1.3.5 1.3.5 1.2-1.2-1.9.1zm49.2 19.7.3.4v-3.1l-1.6-.6-1.7-.6 1.4 1.7 1.3 1.8zm-.8 2.1 2.2 4h1l-2.2-4zm24.9 9h-.8v1.9l1 .6 1 .6-.6-1.5zm-35.7-60-.6 1.1-.7 1 .6.6.6.6.1-1.4.2-1.4 1.4 8 .2-4.3.1-4.2zm11.2 42.3-1-.6-1.1-.7-.6 1.7-.7 1.7-.9-1.4-1-1.5v2.4l.9.5.8.5 1.8-1.3zm-4.2-11.3-2.2-4h-1l2.2 4zm33.4 36.7-.8-1.1-.9-1.1.5 1.5.4 1.5 1.9.2 1.9.3-1.5-.7zm41 1.8 1.3.3 1.3.3-.6-1-.6-1-.9.6-.9.6v-1.7l1.2-1.2 1.2-1.2-2.8-2.6-2.8-2.6 1.2-1.9 1.2-1.9v-3.1l-1.2.7-1.2.7.6-1.7.6-1.7h-1.4l-1.1 1.2-1.1 1.2.4 1.1.4 1.1-1.2.7-1.2.7.7-1.4.7-1.4-1.6 2-1.6 2-.9-.2-.9-.2v2.1l2.2-.6 2.2-.6-1.7 1.4-1.7 1.4 1.3 1.3h-2.3l.2 2.2.2 2.2-1.1-.2-1.1-.2v2.9h1.5l.5-.8.7-1.2h.9v.9l-1.2.7-.7.4h.1l-3.8 4.3 1.5-.9 1.5-.9 1.5-2.1 1.5-2.1-.2-.7-.2-.7 1.5-1.2 1.5-1.2 1.5.6 1.5.6-.5 1.4-.5 1.4 1.5 1.3 1.5 1.3-.6 1-.6 1 1.1-.7 1.1-.7.6 1.3.6 1.3-.2-2.5-.6-2.1zm-8.8-4.8-.7.7-.7-.7-.7-.7h2.7l-.6.7zm7.2 2.8-.9-1.5-.9-1.5v-1.6l2 1.2 2 1.2-2.2 2.2zm-22.4.5h-6.8l.4.4.4.3 4.4.6 4.5.6-1.5-1zm-90-39.8 1.3.5 1.3.5 1.2-1.2-1.9.1zm-9 2 1.3.5 1.3.5 1.2-1.2-1.9.1zm-10.6 13.6-1.4 1.7 1.7-1.4 1.8-1.3v-.8h-.8zm-7.8-4.8-.6 1.1-.7 1 .5.5.5.5.5-1.6.6-1.5zm4.4 11.2 1.3.5 1.3.5 1.2-1.2-1.9.1zm33.3-21.5 1.2.5 1.2-.5 1.3-.5h-5zm594.7-120.5 1.3.5 1.3.5 1.2-1.2-1.9.1zm-9 .9-.7 1 .5.5.5.5.5-1.6.6-1.5h-.8zm4.2-38.4.5-1.7-.5-1.3-.5-1.2v6zm-8.9.2-3.3 3.6 3.8-3.5 3.8-3.5.5.3.6.4.4-.4.4-.5h-2.9zm8.7-5.4 8 7-6.9-7.5h-1.9l.4.2zm12 41.7 1.3.5 1.3.5 1.2-1.2-1.9.1zm21.5-26.4v-1l-2.6.6-2.6.7.7-1.1.6-1h-1.1l-.1.2-.1.3-.3 1.7-.3 1.6 2.9-1zm-16.5 25.4 1.3.5 1.3.5 1.2-1.2-1.9.1zm-53 28.3 2.3-1.9 2.2-1.9v-.7h-.7zm-1.2 2-.1 4.2-.2 4.1-1.2.5-1.3.5 1.3.1 1.3.1.5-1.4.5-1.4-.4-3.4zm23.6-56.7-1.4 1.7 1.7-1.4 1.8-1.3v-.8h-.8zm7.1-7.1v-.7h-.7l-3.8 4.5 2.3-1.9zm-9.5 43.3-.6 1 1.5-.6 1.6-.6v-.8h-1.9zm.5-33h-.8l-1.3 1.8-1.4 1.7 1.7-1.4 1.8-1.3zm-6.1 6.8-1.4 1.7 1.7-1.4 1.8-1.3v-.8h-.8zm156.3-45.1 3.8.4 3.8-.4 3.7-.4h-15zm-46.4-2 1.2.5 1.2-.5 1.3-.5h-5zm25 1 1.2.5 1.2-.5 1.3-.5h-5zm72.8 22.3 9.8 10h1l-9.8-10zm1.9-4.2.9-.9 1-.9-.9.1-6 2.9 2.5-.6zm-106.7-18.1 1.2.5 1.2-.5 1.3-.5h-5zm105.7 19.3-3 2h2l3-2zm-11.8-8 4.6 5h1l-4.6-5zm-126.2 45.2 1.3.5 1.3.5 1.2-1.2-1.9.1zm1.6-2.6.1 1.9.5-1.3.5-1.3-1.2-1.2zm-2.3-14.9 2.2.4 2.2-.4 2.3-.4h-9zm-12.3 1.5 3.5 1 1.3-.5 1.2-.5h-3zm15 1h-5l1.3.5 1.2.5 1.2-.5zm15.7-27.3-.6 1.8-.7 1.8 1.2-1.2 1.3-1.3-.6-.5zm-115 58.1 1.5.9 3.7-3.8 3.7-3.8h-3l-1.3.8-1.3.8h2.5v-1h1v1h-.9l-.6 1-.6 1-1.4-.5-1.4-.5-1.1 2.1-1.1 2.1-.9-.5-.9-.5-2.2 3.1-2.2 3.1-.6-.6-.6-.6-2.3 2.1-2.3 2.1.6 1.6.6 1.5 2.3-2.8 3.7-4.4.8.5.8.5 1.7-2.5 1.8-2.7zm1.4-1.4.6-1.6h1.8v.8l-3 2.5.6-1.7zm-10.7 10.4h-1.9l1.7-2 1.7-2h.6l-2.1 4zm7.1-6.1-1.2.7-1.2.7.7-1.2.7-1.2h.9v1zm0-2.9h1v1h-1v-1zm-120.5 120.2 1.3.5 1.3.5 1.2-1.2-1.9.1zm-31.6 47.6-1.4 1.7 1.7-1.4 1.8-1.3v-.8h-.8zm-10.4 8.4 1.3.5 1.3.5 1.2-1.2-1.9.1zm40.6-43.1-.4-2.8-.4-2.8-.2 3.9-.1 3.9 4-3.6v-.9l-1.4 1.1zm-22.6 24.4 6.5-5.9v-.6h-.6zm131.6-125.3 1.2-1.2-1.9.1-1.9.1 1.3.5zm-16.3 28.8h-.8v6h1.7l-.5-3zm7.1-3.2-2.4 2.7 2.7-2.4 2.8-2.4v-.7h-.7zm6.5-44.8h.6v1h-.9l-.2.4 1.6.2 1.5.2-1.1-1.8h.1l-1.5-.5z" id="path12"/>
    <path class="st1" d="m2179.1 435-.6 1-.6 1-.9-.6-.9-.6v2.1l1.2-.1 1.3-.1.7.1.7.1 1.4-1.7-1.1-.7-1.2-.5zm.9 2h-1v-1h1v1zm3.4 18.1-1.9.1 1.3.5 1.3.5 1.2-1.2zm-62.2 67.9h-1l-1.1 1.4-1.2 1.4 1.1.7 1.1.7.6-.6.6-.6h-2.5zm3.3.1-1.3 1.4-1.3 1.5h3.1v-3h-.2zm-17.1 8.4-2.1 1.4-.8-.7-.8-.7.7 1.3.7 1.2 1.9-1 1.9-1 .6-1 .6-1h-.7zm8.7-5.5-.6.9-.6.9.9.6.9.6.6-.9.6-.9-.9-.6-.9-.6zm.9 2h-1v-1h1v1zm17.5-9.8h-6l3.5 1zm19.7-14.3-.6 1.8-.7 1.8 1.2-1.2 1.3-1.3-.6-.5zm3.1-18.4v14l.4-3.8.4-3.7-.4-3.3zm1.4-31.7-.5-1.3v5l.5-1.3.5-1.2zm-27.2 70.5 4.3.4 4.3.4 3.7-.4 3.7-.4h-8zm14.6 32.3.1 1.9.5-1.3.5-1.3-1.2-1.2z" id="path14"/>
    <path class="st2" d="m1755 578.3-.5.8-.5.8 1.1.7 1.2.7-.7-2.4-.7-2.4-.1-1.1-.1-1.1-1.9-1.2-1.8-1.1v1.7l2 2.3zm-5.6-14.3-.6-.5-.6-.6-.6 1.8-.7 1.8 1.2-1.2zm-5.4 11.8v-.8h-.8l-1.3 1.8-1.4 1.7 1.7-1.4zm1.8-5.6.6-1.1.7-1.1h-2.2l1.2-2h-1l-.5.8-.5.8.8 1.3zm426.4-128.1 2.7-1.7 2.7-1.7.6-.7-1.3-.3-1.4-.3-2.3 1.3-2.3 1.3.6 1 .7 1.1zm2.2-2.9.7-1.2h.9v.9l-1.2.7-1.2.7.8-1.1zm-2.4.8h1v1h-1v-1zm-1153-56.6.4-.5.5-.5-2.2-1.3-2.2-1.3 1.7 1.8z" id="path16"/>
    <path class="st2" d="m2184.7 431.2 1.1-1.4 1.4-1.8h.8v.8l-1.8 1.4-1.4 1.1.4.4.4.4 2.2-2.3 2.2-2.3h-3.1l-2.2 2.6-2.2 2.6-5.6 3.6.6 1 .6 1 3-3.1 3.6-4zm-4.7 4.7-1.2.7-1.2.7.7-1.2.7-1.2h.9v1zM581 498v-2h-.5l-3 2h1.7zm365.4-91-.6-.5-.6-.6-.6 1.8-.7 1.8 1.2-1.2z" id="path18"/>
    <path class="st2" d="m3500.2 386.4-.7-47.1-11.2 8.3-11.3 8.4v1.9l-8.6 7.2-8.6 7.2-7.4 14.7-7.4 14.7-2.3 1.6-2.3 1.6h-4.2l-1.7-1.8-1.7-1.8V399l-2.9.6-2.9.6-3.3-3.1-3.3-3.1-2.4-1.9-2.4-1.9V384h-.5l-9.7 4.2 2.5 1 2.5 1 2.5 1.2 2.5 1.2.9 2.6.9 2.6-1.2 3-1.2 3-5.7 2.4-3.3-.7-3.3-.7 8-3.6-4-.1h-4l-3.9.9-3.9.9-1.4-.5-1.4-.5v-1.7l3.5 1.1-1.9-1.6-1.9-1.6h-6.6v1.7l4.5 2.3-4.2-.4-4.2-.4-6.1-4.2-6.1-4.2-7.3 1.1-4.5.7-4.5.7-1.9-.1-1.9-.1-2.1 1.1-2.1 1.1-1.2 1.7-1.2 1.7-3.6 1.7-3.6 1.7-9.6.5-9.6.5-2.3 1.5-2.3 1.5 1.1 1.8 1.1 1.8-2 5.8-1.1-.2-1.1-.2-2.8 1.1-2.8 1.1-5.5.5-5.5.5-.5.1-.5.1-4-.7-4-.7-5-2.5-5-2.5h-3l-8 7.3-8 7.3-5 4-5 4-2.9 2-2.9 2-1.6 1-1.6 1-4.7 3.2-4.7 3.2h-1l-5.9 3.4-5.9 3.4-4.8 1.2-4.8 1.2-1.8-1.1-1.8-1.1-.7 1.1-.7 1.1.2 8.6.2 8.6-1.7-1.6-1.7-1.7-3.4 2-3.4 2v2.4l-6-7v-2.6l-1 .6-1 .6.5.8.5.8-1.6 4.6-1.6 4.6-1.4 1.1-1.4 1.1-2-.6-2-.7v-3.7l-1-.6-1-.6.1 3.3.1 3.3-1.3 4.5-1.3 4.5-1.3 2-1.3 2V494h-3l-4-6.5v3.6l-.9 1.7-.9 1.7-3.2 7.3v3.8l-1.4 1.9-1.4 1.9-1.6-3.2-1.6-3.2.1-.7.1-.7-.9-.3-.9-.3-2.2 2.9-2.2 2.9-.7 2.8-.7 2.8-2 3.4-2 3.4-.8-1.3-.8-1.3-1-.1-1-.1-2-.2v-3h-3v4h-2l-4.3 5h-3.7c-.3.4-.6.7-.9 1v1.8l-1.8 2.2-1.8 2.2-4.8-4.1h-3.6l-1.5-2.1-1.5-2.1-2 4.5-2 4.5-2 1.1-2 1.1h-1.1l-1.9-2-1.9-2-2.6 2-2.6 2h-2.3l-5.7 2.9-5.7 2.9-3 1.5-3 1.5-2.8-.6-2.8-.6.6-2.4.6-2.4h-1.1l-6.7 1.9-6.7 1.9-7.3 2.1-7.3 2.1-3.5-1.2-3.5-1.2-2.2-4.6-2.2-4.6-2-1-2-1-6.3-6.5-6.3-6.5-4.2-7.5-4.2-7.5-6.5-1.3-6.5-1.3-1.5-.3-1.5-.3-1.1-.7-1.1-.7-11.9-2.5-11.9-2.5-9.4-2.5-9.4-2.5h-3.7l-.5-1.8-.5-1.8-2.1-4.4-2.1-4.4-.8-17.1-.8-17.1-2.3-8-2-2.4-6.3-3.5-6.3-3.5-3.8-.7-3.8-.7-1.9-1-1.9-1-11.1-2.3-11.1-2.3-8.9-4.1-8.9-4.1-7.5-3.6-7.5-3.6-3.5-2.5-3.5-2.5-31.5-.2-31.5-.2-4.3-2-4.3-2-8.1 4.8-8.1 4.8-1.4 1.2-1.4 1.2-1.7-1.4-1.7-1.4-3.2-1.7-3.2-1.7h-3.2v-1.8l-3.2-1-3.2-1-2.8.4-2.8.4-3.9-1.4-3.9-1.4v1.7l-9.2-.3-9.2-.3-1.2 1-1.2 1v-2.6l-1.5 1.9-1.5 1.9v-3.6l-1.2.5-1.2.5.2 1 .2 1-5-.1-5-.1-.5.8-.5.8-1.7-.2-1.7-.2-2.3.8-2.3.8-1.3-1.1-1.3-1.1-.6 1.6-.6 1.6-2.3-.3-2.3-.3-1.7 1.7-1.7 1.7-.9 1.8-.9 1.8-.6 5.8-.6 5.8-1 1.7-1 1.7-1.3 4.5-1.3 4.5-3.7 1.8-3.7 1.8-3.8.7-3.8.7-7.5-.1-7.5-.1-2.5-.7-2.5-.7 1.3.9 1.3.9-2.1.5-2.1.5-.6-1-.6-1-1.5 1.3-1.5 1.3-1.6.3-1.6.3-2.8.4-2.8.4v-1.5l-5.8.3-5.8.3-2.7.3-2.7.3-1.3 1.1-1.3 1.1-3.3.5-3.3.5-1.3 1.1-1.3 1.1-.6-.6-.6-.6-.6 1.5-.6 1.5-5.7-2.3-5.7-2.3-17.5-8.7-17.5-8.7-15-6.2-11-5.9-12.6-13-8.6-11.3-8.6-11.3-3.4-6.7-3.4-6.7v-1.6h3.3l-1.7-1.8-1.7-1.8v-1.2l1.8-.4 1.8-.4-1.8-.7-1.8-.7-.5 2-.5 2h-1.8v2.8l-2.4 1.6-2.4 1.6-5.8 3.2-5.8 3.2-4.5 2.3-4.5 2.3h-2l-4-4-4-4.1-1.5.4-1.5.4-1.1-1.2-1.1-1.2-11.3-4-11.3-4-17-.8-17-.8-29-.1-4.2.3-4.2.3-.9 1.1-.9 1.1-5.1 9.9-5.1 9.9v3.2l2.1 3.4 2 3.4-.3.2-.3.2-4.8 1.8-4.8 1.8-.6 1.5-.6 1.5-9.6-.8-9.6-.8-4.2-.1-4.2-.1-.8-.8-.8-.8 1.7.7 1.7.7v-1.1l-5.2-1.7-5.2-1.7-12-7-3.7-3.5-3.7-3.5.9-2.4.9-2.4v-.5l-3.6.4-3.6.4.5 1.4.5 1.4h-2.3l1.2 1.2 1.2 1.2v2.6l-4.8 5.3-4.8 5.3-6.8 8.6-6.8 8.6-8.4 7.8-8.4 7.8.5.8.5.8h-3.5l.6.6.6.6-1.2 1.3-1.2 1.3-.6-.4-.6-.4-1.2 1.4-1.2 1.4.8.5.7-1.2.7-1.2h.9v.9l-1.2.7-1.2.7.1.1.9.5 13-13.2 13-13.2 8.4-10.4 8.4-10.4 3.5-4.2v42l-.7 1.1-.7 1.1-10.6 5.4-10.6 5.4-5.6 7.5-5.6 7.5v8.6l-5.5 2.2h-14l-7-1.6-7-1.6-4.7-1.5-4.7-1.5-.6-1.5-.6-1.5 1 .6 1 .6 4.5-2.6 4.5-2.6-.6-1-.6-1-1.2.9-1.2.9-4.8 2.6-4.8 2.6v-2l-1.4 1.3-1.4 1.3 1 1.2 1 1.2h-2.5l2 2.5.6 22.3.6 22.3-1.7 3.7-1.7 3.7-2.4 3.8-2.4 3.8-2.4 9.6-2.4 9.6v13.6l3.6 3.5 3.6 3.5-.5 5.3-.5 5.3-2.8 4.9-2.8 4.9-.2 2.9-.2 2.9-2 2.2-2 2.2-3 6-3 6-1.6 3.1-1.6 3.1-2 .5-2 .5-.8-1.3 1.4-1.3 1.4-1.3.7.1.7.1.3-1 .3-1-3-1.5-3-1.5.1-3.4.1-3.4 1.8 1.1 1.8 1.1 1-1.5 1-1.5v-1.2l-2.1-.5-2.1-.5-.5-2-.5-2-1.4-.5-1.4-.5v-6.2l2.6 2.1 2.6 2.1 1-.6 1-.6-1.2-.8-1.2-.8 1.4-.5 1.4-.5-3.4-2.9-3.4-2.9-.6-4.2-.6-4.2h-2l-.4 3.3-.4 3.3-1.4 2.2-1.4 2.2v1.4l2.1-1.9 2.1-1.9-2.3 4.5-2.3 4.5-1.6 1.2-1.6 1.2h2.8l2.3-2.2 2.3-2.2v7.2l-3.2 2.6-3.2 2.6h2.5v2h-6.1l.6 1 .6 1 2.2-.3 2.2-.3 1.2-.7 1.2-.7.7 2.3.7 2.3.2 5.1.2 5.1-.8 2.1-.8 2.1h-3.9l-.6-.9-.6-.9 1-.6 1-.6V603l-2.7-.2-2.7-.2-1.5-1.6-1.5-1.6 1.6.5 1.6.5 1.3-.8 1.3-.8-4.1-2.6-4.1-2.6v-2l.8.1.8.1 1.9-.1 1.9-.1-2.7-2.5-2.7-2.5-.1-.8-.1-.8-1.5-2.3-1.5-2.3-.5-4.2-.5-4.2-.3-.4-.3-.4-2.2 4.9-2.1 4.9-2 3.9-2 3.9 1.6-.6 1.6-.6-1.2 2.2-1.2 2.2-.2 1.5-.2 1.5-1 2.5-1 2.5-.7 2.2-.7 2.2h1.7l2.4-2.4v1.5l-1.4 3.3-1.4 3.3-1 .6-1 .6-2.6-2.6-2.6-2.6-.1-1-.1-1-.5-2-.2-6.5-2.5 3.7-2.5 3.7v1.2l2-1.2v2l-2.6 3.1-2.6 3.1.6.6.6.6 1.5-1.3 1.5-1.3-.6 1.6-.6 1.6-3.3 2-3.3 2h-2.8l-2.2-3.4-2.2-3.4.9-.6.9-.6.4 1.2.4 1.2 1.2-.7 1.2-.7v-3.6l-1.6-1.3-1.6-1.3-1.8-3.4 2.4.5 2.4.5-.6-2.1-.5-2.1h-2.6l-.7-1.2-.7-1.2 1.2.7 1.2.7v-1.8l-2-1.8-2-1.8.5-.8.5-.8-2.1-3.6-2.1-3.6h3.2v-1.1l-2-2.1-2-2.1v-2.9l-1.3 1.1-1.3 1.1-.5-.5-.5-.5-1.5 2.3-1.5 2.3-.7 1.9-.7 1.9 1.5-.6 1.5-.6-1.5 2.9-1.5 2.9-1.1.7-1.1.7 1.4.8 1.4.9-2.8 2.6-2.8 2.6v2.2l2-.5 2-.5v1.6l-3.2 3.1-3.2 3.1-2.8-4.5-2.8-4.5v-4h-1.6l-1.7 2.9-1.7 2.9.5.5.5.5-2.6 3.8-2.5 3.8v3.3l1 1 1 1-1.5 4.5-1.5 4.5-1.1 2.6-1.1 2.6-2.2-1-2.2-1-.5-1.4-.5-1.4.9.5.9.5.6-1.5.6-1.5-1.9-4.5-1.9-4.5v-3.6l-.7-2.2-.7-2.2h2.8l-1-.7-1-.7-1.7-2.1-1.7-2.1 3.2.4 3.2.4-2-1.3-2-1.3.4-1.8.4-1.8-3.1-1.2v-2l3 2.5v-1.3l-3.1-6.2-3.1-6.2 2 1.8 2 1.8h1.6l-1.1-1.3-1.1-1.3-2.2-5.8 1.9 1.7 1.9 1.7h1.5l-2.1-3.4-2.1-3.4-1.9-5.9-1.9-5.9-.4 1.5-.2.8-.2.8-1.9 3.4-1.9 3.4-2.2 2.8-2.2 2.8v1.3l1.2-.7 1.2-.7-2.5 2.8-2.5 2.8 2.2-.6 2.2-.6v2l-3.2 4.6-3.2 4.6 1.6-.6 1.6-.6-2 3.6-2 3.6 1 1.2 1 1.2-2.1.7-2.1.7v1.8l1.6.9 1.6.9-2.3 1.6-2.3 1.6h-3.6v2l1.2.1 1.2.1 1.4-.2 1.4-.2-1.4 1.7-1.4 1.7 1.4.9 1.4.9-1.7.7-1.7.7v2.8h2.4l-2.1 1.7-2.1 1.7.1.7.1.7-3.5 4.1v1.9l1.5-.6 1.5-.6v1.8l-3.2 1.9-3.2 1.9 1.8 1.3 1.8 1.3 2.1-1 2.1-1-5 4.1h-1.6v1.9l3.5-.1 3.5-.1.5.5.5.5-3.8 2.5-3.8 2.5-3.9-2.9-3.9-2.9h-2.6l.1-.8.1-.8-.1-.9-.1-.9-1.3 1.1-1.3 1.1-1.5-.9-1.5-.9h3.8l2.2-2.4 2.2-2.4-3.6-.7-3.6-.7-2.8-1.4-2.8-1.4v-5l2.2 1.2 2.2 1.2.4-1.1.4-1.1 1.7-.1 1.7-.1-4.2-1.9-4.2-1.9V607h-2v6.1l-2.5 2.5-2.5 2.5h-3.4l.7.8.7.8 6.4 2.3-5 .4-3.5-.4v2l1.2.5 1.2.5-4 .1-4 .1 3 1.9-3 .2 5 1.6-3 .1-3 .1-3 1.6-3 1.6-.4-1.3-.4-1.3-3.4-3.2-3.4-3.2h1.6l-1.5-.9-1.5-.9-.5-6.7-.5-6.7-5.5-1.9-5.5-1.9-4.5 1.2-4.5 1.2-6.9 2.9-6.9 2.9-3.3-2.3-3.3-2.3-4.1-5.2-4.1-5.2v-8.8l-3-2.5v-2.5l-2.1-2.6-2.1-2.6 1.1-2.1 1.1-2.1-.6-2.3-.6-2.3 4-5.1v-11l-1.8-2.1-1.8-2.1-7.5-2-7.5-2-8.1-2.2-8.1-2.2-12.7 6.9-12.7 6.9-4.7 3.6-4.7 3.6.2.9.2.9-4.4.1-4.4.1-2.2 1-2.2 1-17.5 8.4v1.7l-8.5 1.4-4.5 2.6-4.5 2.6-.5.8-.5.8-2.6.7-2.6.7-.7-2.1-.7-2.1-1.1.7-1.1.7.6-1 .6-1-1.5-1.3-1.5-1.3.5-1.4.5-1.4-1.5-.6-1.5-.6-1.5 1.2-1.5 1.2 1 1.5-1.5 1.2-1.5 1.2v2.9l-2-1.2v2.1h-2.4l-2.9-2.8-2.9-2.8-7.7-.2-7.7-.2-2.3-.1-2.3-.1-.9-2.3-.9-2.3-1.6-1.3-1.6-1.3v-3.4l-1.2-1.2-1.2-1.2h-4.4l-3.4-1.4-3.4-1.4-4 .7-4 .7-2.6-2.8-2.6-2.8h2.8v-2l-5-3.3v-1.7l2.7 1.1.6-1.6.6-1.6h-1.9l-1.5-3.6-1.5-3.6.5-.9.5-.9-1.2-2.3-1.2-2.3 4.1 3.6.6-1 .6-1-1-.6-1-.6-2-4.1-2-4.1 1.2-.7 1.2-.7-1.9-4.2-1.9-4.2-.6-4.2-.6-4.2-2.8 6-2.8 6-1.9 2.7-1.9 2.7v3.5l2.1-1.9 2.1-1.9-2.6 5.2-2.6 5.2h-2v2.2l2.8-.7 2.8-.7-2.1 2.2-2.1 2.2-2.4-1.6-2.4-1.6-5.3-1.1-5.3-1.1-7.7 1.7-7.7 1.7-3.4 1-.5 1.7-.5 1.7-3.5 5.4-3.5 5.4 1.6 1.8 1.6 1.8-2.1.7-2.1.7-2.6-2.6-2.6-2.6h-1.3l.2-3.8.2-3.8-1.3-1.5-1.3-1.5-1.6-3.7-1.6-3.7 2.5.6 2.5.6v-1.8l-3-3.5-3-3.5v-1.4l1.5-1.5 1.5-1.5-2.5-2.5-2.5-2.5v-3.3l1.5 1.2 1.5 1.2 1.1-.7 1.1-.7-1.8-1.7-1.8-1.7 1.3.9 1.3.9.6-.6.6-.6-2.6-3.1-2.6-3.1v-2.4l-2 2.4-2 2.4v3.2l-2.8 3-2.8 3 1.8-.6 1.8-.6v1.5l-5 6.8v.5l1.8-.5 1.8-.5-2.6 2.3-2.6 2.3-.6 1.7-.6 1.7 1 .6 1 .6 1.5-1.2 1.5-1.2v2l-2.5 1.6-2.5 1.6-1.1 2.1-1.1 2.1 1.3.8 1.3.8-1.6 1.8-1.6 1.8.9 2.5h-1.8l-1.9-1.5-1.9-1.5h-2.6l-4 2.5-4 2.5-2.2 5.4-2.2 5.9-2.2 5.9-4.9 1.4-4.9 1.4-4.7 1.1-4.7 1.1-1.6-1.4-1.6-1.4-2.4.3-2.4.3v-2h2.4l-5-3.9h-2.4v-3.7l-3.7-4.8-3.4-9-5.4-6.4-14.4-2.9-2.6-1.7-2.6-1.7.6-1.9.6-1.9h-1.8l.2-3.2.2-3.2-3.9-5 3.3-.7-1.7-1.9-1.7-1.9h3.3v-.6l-2-3.9-2-3.9V499h-1.8l-1.3 3.2-1.3 3.2-.7-1.9-.7-1.9-.1 2.8-.1 2.8-2.5 3.8-2.5 3.8.6 1.5.6 1.5-3.3 2.6-3.3 2.6h1.6l1.9-1 1.9-1v1.4l-4.4 4.7 1.4.8 1.4.8-3.1 1.6-3.1 1.6v1.5l1.1 1.1 1.1 1.1-3.7.7-3.7.7h-10.2l-2.8-1.1-2.8-1.1-1.8 1.8-1.8 1.8-1.2-.4-1.2-.4-2.7-2.5-2.7-2.5-3.2-2.9h-1.2l-3.1-2.9-3.1-2.9-7-.5-7-.5-.6-.6-.6-.6-.3-2.5-.3-2.5-.7-1.1-.7-1.1h-2.8l-1.6 2.5-1.6 2.5h-1.9l.6-.9.6-.9-1-.6-1-.6V515h4v-1.9l-2.5-3.7-2.5-3.7v-6.6l-.9-.5-.9-.5-6.1 6.9-6.1 6.9v1.2l2.4-.6 2.4-.6-.6 2.2-.6 2.2-3.4 3.4-3.4 3.4-1.2-.4-1.2-.4-4.4-10.8-2-1.6-2-1.6-9.5-.2-9.5-.2-.6 2.6-.6 2.6 1.3 1.5 1.3 1.5-1.2 1.2-1.2 1.2v4.5l2.1 1.1 2.1 1.1-.9.9-.9.9-13.4.8-13.4.8-4-.2-4-.2-6.5-1.7-6.5-1.7-7.2-2.5-7.2-2.5.4-.7.4-.7-2.9.4-2.9.4.5.9.5.9h-2.1v-1.9l-1.6.6-1.6.6.8.6.8.6.2 1.1.2 1.1-2-.5-2-.5-3.6-4.4-3.6-4.4-5.1-2.9-5.1-2.9-11.1-5.5-11.1-5.5-9.4-3.2-9.4-3.1-7.5-4.9-7.5-4.9-3-1.3-3-1.3-3-2.8-5.5-2.5-5.5-2.5-1.5-1.3-1.5-1.3-2-.3-2-.3-.5-.5-.5-.5-3.2-2.3-3.2-2.3V454l-1.6-10.8-1.6-10.8-1-3.8-1-3.8-3.3 2-3.3 2h-2l-2.6-2.5-2.6-2.5v-3.2l2.1 1.1 2.1 1.1.5-.5.5-.5-2.8-3.1-2.8-3.1-2.1.6-2.1.6-1.8 3.1-1.8 3.1 3.3-1.3v1.4l-2 3.2-2 3.2h-2.1l-2.3-2.5-2.3-2.5-2.8-1.1-2.8-1.1-7.7.5-7.7.5-2.4-3.2-2.4-3.2-1.5-3-1.5-3-4.5-1-4.5-1-6.2.1-6.2.1v-2.6l-2.2-.7-2.2-.7 1.9-1.5 1.9-1.5-1.2-.5-1.2-.5-2.3-2-2.3-2 3.4 1.1.6-1 .6-1-1.4-1.7-1.4-1.7-1.7-4-.1-2.7-.1-2.7 2 .6 2 .6-1.1-1.4-1.1-1.4-2.5-4.7-2.5-4.7 1.4.5 1.4.5v-2.3l-2-3.9-2-3.9v-5.7l-.7-.7-.7-.7-2.6 5.8-2.6 5.8-1.8 2.5-1.8 2.5v3.9l2.1-1.9 2.1-1.9-2.6 5.2-2.6 5.2h-2v2.2l2.6-.6 2.6-.6-1.1 2-1.1 2h-2l-2.4-1.6-2.4-1.6-5.8-.5-5.8-.5-8 2.1-8 2.1-1.6 2.6-3.6 6-3.6 6 1 1.6 1 1.6-.6.6-.6.6h-3.7v-2l-2.3-1.1-2.3-1.1-.2-4.1-.2-4.1-1.8-2.1-1.8-2.1-1.4-2.5-1.4-2.5-1.3-2.5-1.3-2.5v-6.2h3.6l2.3 1.8.7-1.1.7-1.1-1.2-1.2v2.4l-2.5-1.6-2.5-1.6-.6-2-.6-2-1.8 2.8-.1-1.5-.1-1.5.1-4.5.1-4.5-1.6 2-1.3 1.7.2.3-.3-.2-.2.2h-1.8l-1.3 1.3-1.3 1.3 2-.7 2-.7-4 4.7 3.5-1.3v1.1l-6.4 9.4 1.7-1.4 1.7-1.4.5.5.5.5-2.4 1.9-2.4 1.9-.7 2.2-.7 2.2h3l1-2.8 1-2.8.1 2.3.1 2.3-1.6 2.5-1.6 2.5-2.6 1.4-2.6 1.4h3l2.4-2.4v2l-.9 1.4-.9 1.4-1-.6-1-.6-1.3 1.7-1.3 1.7.8-.7.8-.7 3 3-.8.7-.8.7-.4-1.2-.4-1.2h-2l1.2 2H994v-2.1l-.9.6-.9.6-5.7-2.4-1.5-1.2-1.5-1.2-6-2.1-6-2.1h-8.8l-5.6 3.2-5.6 3.2h-2v2.7l-1.8 1.3-1.8 1.3v4.1l1.4.5 1.4.5v12l-.9.5-.9.5-1.6-.6-1.6-.6.5-.8.5-.8-1.6-.6-1.6-.6.5-1.4.5-1.4-1.4-.5-1.4-.5-1.2 6.2-1.2 6.2-.4-1.8-.4-1.8H935v2h-3.9l-.6 1-.6 1-1.7-.8-1.7-.8-4.4-2.3-4.4-2.3-11.2-3.8-2.1-1.4-2.1-1.4-11.5.1-11.5.1-2.1 1.2-2.1 1.2-6.2 6-6.2 6v1l-2.9 2.9-2.9 2.9-1.4 3.1-1.4 3.1-1.5-.6-1.5-.6.7.7.7.7-1.6 3.1-1.6 3.1-.9 1.5-.9 1.5-1.1 2.5-1.1 2.5-1.2-1.6-1.2-1.6-9.5-4.6.6-1 .6-1-3.7.7-3.7.7.7-1.1.7-1.1h-1.8l-1.1 2.4-1.1 2.4-3.1-.4-3.1-.4.4 2.4.4 2.4-1.4-.5-1.4-.5-1.3.8-1.3.8-3 .2-3.7.3.6 1.6.6 1.6-1-.6-1-.6-.1 1.3-.1 1.3-.8-2-.8-2-1.2 2.6-1.2 2.6-1.9-.5-1.9-.5-.9 2.4-.9 2.4-.1-1.2.6-.2h-3l-.1 1.2-.1 1.2.2 1.3.2 1.3-1.3-.3-1.3-.3-.7-.9-.7-.9-1.8 3.2-1.8 3.2h-2.4v1.6l-1.8 2-1.8 2-1.3 1.9-1.3 1.9-1.2 3-3 6.2-3 6.2-1.4.5-1.4.5v4.1h-2.9l-4.2 4-4.2 4h-.3l-3.2-2.8-3.2-2.8-2.8-1.4-2.8-1.4-.6-.8-.6-.8-1.4-.2-1.4-.2-1-.6-1-.6-3.5-.7-3.5-.7-1.2-1-1.2-1-1 .6-1 .6V491h-5v-1.7l-6.9-1.7-6.9-1.7h-3l-.5-1.9-.5-1.9-5.1-.7-5.1-.7-1.8-3-1.8-3H689l-.6-1.8-.6-1.8-3.4-3.8-3.4-3.8.3-3.5.3-3.5-1.6-3.1-1.6-3.1-.6-2.9-.6-2.9-1.1-.4-1.1-.4-.7 2.7-.7 2.7-3.2 4-3.2 4 1.2.4 1.2.4-1.5 2.8-1.5 2.8 1.2.5 1.2.5-1.6.1-1.6.1-2.2 2.3-2.2 2.3v2.4h-3.6l-2.9-1.5-2.9-1.5h-3.6l-.6 1.5-.6 1.5h-4.9l-1.6-1.6-1.6-1.6v-2.6l-2.2-.8-2.2-.8-2.5.1-2.5.1-8.7-11.1 1.3-.8 1.3-.8-2.6-2.8-2.6-2.8-2.7-5.8-2.7-5.8h-1l-.2 3-.2.8-.2.8-3.6 8-1.5 3.2-1.5 3.2.7 1.1.7 1.1.9-.6.9-.6v1.7l-3 2.9-3 2.9.6 1.8.6 1.8-2.6 3.8-2.6 3.8 1.5.3 1.5.3v.7l-1 2.7-1 2.7-1.8-1.6-1.8-1.6-.6.6-.6.6 1.1 2 1.1 2-3.2-.7-3.2-.7.3 2.7.3 2.7-2.5.4-2.5.4-.8 1.2-.8 1.2v5.4l-1 2.6-1 2.6h-8l-.9-2.2-.9-2.2-1.3-1.7-1.3-1.7-4.2-2.2-4.2-2.2-4.7 2.1-4.7 2.1h-4.9l-1.9-1-1.9-1-1.7-3.2-1.7-3.2-.1-.5-.1-.5-.8-4.1-.8-4.1-2.2-2-2.2-2-2.7-.6-2.7-.6-.8 1.4-.8 1.4-2.2-.8-2.2-.8v-1.9l-6.9-2.3-2 1.1-2 1.1h-9.6l-2.5 1.4-2.5 1.4H492l-2.7-1.4-2.7-1.4-3.8-1.6-3.8-1.6h-4.8l-5-2.5-5-2.5-3.3-.6-3.3-.6-9-3-4-1.7-6.5-2-6.5-2-11-4.5-11-4.5-19-8.1h-6.2l-.6 2.5-.6 2.5-2.5 3.7-2.5 3.7v2.5l2.1 2.7 2.1 2.7-2.4 4.5-2.4 4.5-1 1.9-1 1.9H374v4.2l2 2.8 2 2.8-2.5 5.1-2.5 5h-2.9l-3.6 3.7-3.6 3.7-.6 2.6-.6 2.6-1.9 2.5-1.9-1-1.9-1-5.1-10.4-2.5-4.4-2.5-4.4 1-.6 1-.6-2.4-5.4-2.4-5.4-.6-1.8-.6-1.8-.9.5-.9.5-3.2 6.7-3.2 6.7 1.2.7 1.2.7-1.7 2.6-1.7 2.6.6 1 .6 1-3.7 6.3-3.7 6.3-3.5 3.7-3.5 3.7-2.2.6-2.2.6-5.5 9.3-5.5 9.3-2.3 2.2-2.3 2.1-1.9.4-1.9.3-1.1 3.1-1.1 3.1-2.5-1.3-2.5-1.3h-3.4l-.5-.9-.5-.9h-13l1 1.8 1 1.8-1.3 1.8-1.3 1.8-2.1-.7-2.1-.7-13.3-14.5-13.3-14.5-4.8-2.9-4.9-3.8h-4.4l-2.2-.6-2.2-.6-1.7-4.2-1.7-4.2-.7-4.5-.7-4.5h-3l-1.8 3.8-1.8 3.8-1.4.5-1.4.5-2.5-1.8-2.5-1.8v-3.6h-2v2.1l-1-.6-1-.6V479h-1.7l-2.3 5h-1.9l-3.9-4.5-3.9-4.5-2.7-1-2.7-1h-4.8l-3.7-2.5-3.7-2.5H160v1.9l-3.8 2-6.6-2.5-6.6-2.5-7.2-3.6-7.2-3.6-3.8-3.8-3.8-3.8-4.9.6-4.9.6v-4.5l-2.8 1.1-1.3-7.4-.1-2.7-.1-2.7-.7.5-.7.5-1.3 4.5-1.3 4.5H101v-4.4l-1.3 1.7-1.3 1.7-1.1-2.2-1.1-2.2-.7 2.2-.7 2.2-3 1.5-3 1.5-9.8 1.3v-2.8l-1.8-5.7-1.8-5.7h-1.6l-1.6 3.7-1.5 3.7-1.3-2.5-1.3-2.5.9-.5.9-.5-2-6.7-2-6.7H64v2.4l-2.1 4.4-2.1 4.4.7.7.7.7.8-1.8.9-1.5v1.6l-1.5 3-1.5 3h-2.1l-5.2-4.8-5.2-4.8-4.9-2.9-4.9-2.9-1.9-1-1.9-1-1.6-5.5-1.6-5.5-1.6 3.2-1.6 3.2H26l-3.4-14H21l-.1 3.5-1.8 3.4-1.8 3.4-1.1-3.4-1.1-3.4-.4-2.5-.4-2.5-1.9 3.8-1.9 3.8-.8-1.3-.7-1.4-1.6-5.8-1.7-5.7H4v3.6l-2 3.9-1.5 3 .3 156.7.2 157.6-.2 158.4L.5 1038l1749.8-.3 1750.2-.2.2-302 .2-302-.7-47.1zM2199 419h-1v-1h1v1zm5-5.2-1.8 1.4-1.8 1.4 1.4-1.8 1.4-1.8h.8v.8zm-35 28.2h1v1h-1v-1zm-102.6 165.2.7-1.2h.9v.9l-1.2.7-1.2.7.8-1.1zM1876 551h1v1h-1v-1zM998 395h-1v-1h1v1zm-76 31h-1v-1h1v1zm28-30h1v1h-1v-1zm27.2 19.1-1.8 5.3-9.2 2.9-9.2 2.9-1.8-1.6-1.8-1.6H951l1.6-2.5 1.6-2.5.1-5.4.1-5.4 1.7.1 1.7.1-.5 1.4-.5 1.4 2.7 1.6-1.4 1.8-1.4 1.8 3-2.6 3-2.6 2.7-1.7 2.7-1.7h4l.7 1.1.7 1.1 2.3-.6 2.3-.6.5.9.5.9-1.9 5.5zm19.8-13-1 1.9h-1.8l-.7-1.2-.7-1.2 1.8-1.3 1.8-1.3.9.5.9.5-1.2 2.1zm14-23.1h-1v-1h1v1zm14.8 34.6-.4.4-2.7-2.1-2.7-2.1V407l2.5 1 1.8 2.5 1.8 2.5-.3.6zM1087 383h-1v-1h1v1zm116 95v-2h.9l1.2 2h-2.1zm84 46h-1v-1h1v1zm3 3h-1v-1h1v1zm4-2v-2h.9l1.2 2h-2.1zm40 6h-1v-1h1v1zm155-10h-1v-1h1v1zm113 9h-1v-1h1v1zm370 108h-1v-1h1v1zm18 4.8-2.2 1.6-2.2 1.6 1.8.1 1.8.1-.6.9-.6.9-2-.5-2-.5v-3.5l2.2-1.1 2.2-1.1.8-.1.8-.1v1.7zm9-49.9-1.2.7-1.2.7.7-1.2.7-1.2h.9v1zm19 25.4v-2.7l.7.7.7.7-.7.7-.7.6zm6 9.7h-1v-1h1v1zm17 9h1v1h-1v-1zm.6 9.5-1.9 1.5h-1.6v-1.1l2.2-.9 2.2-.9h1l-1.9 1.4zm1.9-40.6 1.5-.9 1.5-.9.4.4.4.4-.7 1.7-.7 1.7-2.4-2.4zm3.7 8.3-1.2 1.2v-2.1l.7-.7.7-.7.5.5.5.5-1.2 1.3zM2059 604h1v1h-1v-1zm2 70h-1v-1h1v1zm1.7 2.7-.7.7v-2.7l.7.7.7.7-.7.6zm6.3-54.7h1v1h-1v-1zm2 16h-1v-1h1v1zm1.7-9.4-.7.7-1.7-1.7-1.7-1.7h2l2.9 1.9-.8.8zm.2-4.6h-1.9v-2h3.1l-1.2 2zm4.1-5.2v.8l-.9 1.4-.9 1.4-2-1.1-2-1.1-.6.6-.6.6v-2.2l1.8-.5 1.8-.5 1.8-.1 1.8-.1-.2.8zm17.1-1.4-1.2 1.4.3 1.4.3 1.4h-3l-.3-1.6-.3-1.6 2.3-1.1 2.3-1.1.4-.1.4-.1-1.2 1.4zm-.9-4.3-3.3 3-1.6-.3-1.6-.3-.4-1.2-.4-1.2h3.6l3-1.9 3-1.9.5.4.5.4-3.3 3zM2112 905h-1v-1h1v1zm7 11.9-2 1.2V916h2v.9zm13-15.9h1v1h-1v-1zm2 16h-1v-1h1v1zm54-457.2-3 1.3-3 1.3-1.4 3.3-1.4 3.3-4.3 5.8-4.3 5.8-3.6 4.1-3.6 4.1-1.1 1.9-1.1 1.9-.5-.5-.5-.5-1.3-32-.5-2.7-.5-2.7 1.3-1.4 1.3-1.4 7.4 2.3 7.4 2.3 6.4 1.2 6.4 1.2v1.4zm14-1.8h-1v-1h1v1zm30-33h-1v-1h1v1zm61.5-24-1.7 5.1.5 1.8.5 1.8-6.8-.5-6.8-.5-8.3 3.2-8.3 3.2-10.6 1.9-10.5 1.8-.2-.2-.2-.2-.4-22.2-.4-22.2h1.3l2.4 2.6 2.4 2.6 5.5 3.8 5.5 3.8 6.5 2.6 6.5 2.6 7.5 1 7.5 1 4.2.3 4.2.3.6.6.6.6-1.5 5.2zm153.2-12.5-.8.9-.8.9-3.8-2.3-3.8-2.3-6.2-5.9-6.2-5.9 12.2-6.2 12.2-6.2.4 2 .4 2-1.7 11.5-1.9 11.5zM2480 403l-7.8-3.6-7.8-3.6-7.3-1.4-7.3-1.4h-.5l.8-5.8.8-5.8 1.2-8.2 1.2-8.2h.6l5.4 10.5 5.5 7.6 5.5 7.6 4.9 5.5 4.9 5.5v1.3zm36 405h-1v-1h1v1zm89-171h-1v-1h1v1zm3 2h-1v-1h1v1zm0-2h-1v-1h1v1zm39-11h-1v-1h1v1zm511-127h-1v-1h1v1zm54-29.3-2.2 1.9-2.2 1.9-4.6 2.6.2-6 .2-6h1.9l3.4 2.1 3.4 2.1v1.4zm58.2-39-.3 13.7-1 1.9-1 1.9-2.5-.5-2.5-.5-1.6 3.9-1.5 3.9h-3.6l-.6 1.8-.6 1.8-2.5 1.2-2.5 1.2-.6-1-.6-1-5.1-1.9-2.3 2.1-2.3 2.1-.9-.6-.9-.6-.6-4-.6-4h-2v2.2l-2.8-.6-2.8-.6-2.7 5.5-2.7 5.5-1.2-.4-1.2-.4-1 1.8-1 1.8-5.2-2.6-5.2-2.6v-1.4l4.2-1.3 4.2-1.3 6.5-3.9 6.5-3.9 5.1-3.2 5.1-3.2 11.8-8.9 7.2-6.9 7.2-6.9 2.2-1.9 2.2-1.9h.2l-.5 13.7zm38.7-7.7-.4 2.8-.4 2.8-2.4 9-1.1.7-1.1.7h1.6l-1.6 2.5-.2 1.3-.2 1.3-1.2 1.5-1.2 1.5-1.3-.5-1.3-.5-1.1 1.3-1.1 1.3 1.3 1.3h-2l-2.6-6.8-2.6-6.8-.3-1.9-.3-1.9-1.2-.4-1.2-.4-.7 2.6-.7 2.6-2.6 2.8-2.6 2.8-1.8 2.7-1.8 2.7-.9-.9-.4-12.4-.4-12.4-.4-2 .2-1.5.2-1.5 2.9 3.8 3.8 1.4 3.8 1.4 14-.1 5.3-1.4 5.3-1.4-1.3 2zM0 408.4V1038h.5V407.5z" id="path20"/>
    <path class="st2" d="M1020 385h-3v.8l3 2.4zm-12.4-22.8-.7-1.2h2.1v-2.2l-1.4 1.1-1.4 1.2-1.1-1.8-1-1.8.2 2.2.1 2.2.5-.4.4-.5 1.5 1.3 1.3 1 .1-.1zm8.1 3.1-1.7-1.7v3.3l1.1.6 1 .7.7-.6.6-.6zm-2.7-2.8 2 1.3 2 1.2v-2.5l-2-1.3-2-1.2zm1-7.5v1.9l1 .6 1 .6-.6-1.5-.6-1.6z" id="path22"/>
</svg>
