<?xml version="1.0" encoding="UTF-8" standalone="no"?>
<svg
   version="1.1"
   id="svg20"
   x="0px"
   y="0px"
   viewBox="0 0 3500 1038"
   style="enable-background:new 0 0 3500 1038;"
   xml:space="preserve"
   sodipodi:docname="layer1.svg"
   inkscape:version="1.2.2 (732a01da63, 2022-12-09)"
   xmlns:inkscape="http://www.inkscape.org/namespaces/inkscape"
   xmlns:sodipodi="http://sodipodi.sourceforge.net/DTD/sodipodi-0.dtd"
   xmlns="http://www.w3.org/2000/svg"
   xmlns:svg="http://www.w3.org/2000/svg"><defs
   id="defs14" />
<style
   type="text/css"
   id="style2">
	.st0{fill-rule:evenodd;clip-rule:evenodd;fill:#FFE16A;}
	.st1{fill-rule:evenodd;clip-rule:evenodd;fill:#FCCC36;}
	.st2{fill:#EB831C;}
</style>
<sodipodi:namedview
   bordercolor="#eeeeee"
   borderopacity="1"
   id="namedview22"
   inkscape:current-layer="svg20"
   inkscape:cx="1836.0537"
   inkscape:cy="660.95041"
   inkscape:deskcolor="#505050"
   inkscape:pagecheckerboard="0"
   inkscape:pageopacity="0"
   inkscape:showpageshadow="0"
   inkscape:window-height="1017"
   inkscape:window-maximized="1"
   inkscape:window-width="1920"
   inkscape:window-x="-8"
   inkscape:window-y="-8"
   inkscape:zoom="0.69142857"
   pagecolor="#505050"
   showgrid="false">
	</sodipodi:namedview>
<g
   id="g1541"
   inkscape:label="Sun light">
	<path
   id="path14"
   class="st0"
   d="M1680.6,527.1c-7,0.1-7.7,0.4-7.4,1.7c0.2,1,1.1,1.6,2.1,1.5c0.9-0.2,1.7,0.2,1.7,0.8s1,1,2.2,1   c1.2,0,5.1,0.7,8.7,1.6c4.9,1.2,6.9,1.4,8.3,0.5c1-0.6,2.7-1.1,3.8-1.1c3.6,0,8.5-3.5,7.4-5.2c-0.3-0.4-8.1-0.8-17.5-0.8   C1686,527.1,1682.9,527.1,1680.6,527.1z M1762.6,531.3c-4.7,0-5.4,0.3-4.6,1.2c1.6,1.9,9.2,4.3,16,5.1c3,0.4,5.7,0.8,6,1.1   s-1.5,2.2-4,4.3c-4.5,3.8-10.2,6-15.9,6c-1.6,0-5.8,0.9-9.3,2s-7.4,2-8.6,2s-2.1,0.6-2,1.2c0.2,0.9-3.9,1.2-16.2,1.3   c-9.1,0-17.1,0.5-17.9,0.9c-0.9,0.6-1.2,0.5-0.8-0.2s-2.6-0.9-9.6-0.7c-5.6,0.2-13.7,0.4-18,0.4s-7.6,0.4-7.5,0.8s-0.2,0.8-0.8,0.8   s-0.9-0.3-0.8-0.7s-0.9-0.6-2.2-0.5c-1.9,0.2-2.5,0.8-2.5,2.5c0,2.1,0.4,2.2,4.8,1.9c2.6-0.2,5.2-0.4,5.8-0.6   c0.6-0.1,2.1-0.2,3.4-0.1c3.7,0.2,1.6,1.5-2.8,1.7c-4.9,0.3-8.1,1.3-9.9,3.1c-1.6,1.6-1.8,1.5,2.9,3.1c4.5,1.5,10.8,2.1,13.3,1.2   c1.1-0.4,3.1-0.1,4.4,0.6c1.4,0.7,2.9,1,3.4,0.7c0.6-0.3,0.7-0.1,0.2,0.6c-0.4,0.7-1.5,0.9-2.5,0.6s-2.3,0.1-3.1,1   c-0.9,1-1.5,1.2-2,0.5c-1.1-1.7-5-2.1-5-0.5c0,0.8-0.4,1.4-0.8,1.4s-0.9,1.2-1,2.8c-0.2,2.5-0.1,2.6,1.1,1c0.7-1,1.7-1.8,2.1-1.8   s0.2,0.7-0.5,1.5c-1.8,2.2-0.8,4.2,1.1,2.2c1-1,1.9-1.2,2.5-0.6s1.4,0.4,2.3-0.6c1.8-2.2,2.8-1.9,4.5,1.3c1.5,2.9,1.5,2.9-1.5,2.5   c-1.8-0.2-3,0.1-3,0.8c0,0.6,0.3,0.9,0.6,0.5c0.3-0.3,1.3,0.1,2.1,0.9c1.7,1.7,6.2,1.1,7.5-0.9c0.5-0.7,0.8-0.4,0.8,0.9   c0,1.1,0.6,2.1,1.3,2.1s3.1,0.3,5.2,0.7c2.5,0.4,3.5,0.4,2.6-0.2s-1-1.1-0.3-1.6c0.6-0.4,1.4,0,1.9,0.7c1.3,2.2,5.3,3.1,5.3,1.2   c0-0.9-0.4-1.6-1-1.6s-1-0.4-1-0.8s1.5-0.9,3.4-1s3.8-0.2,4.2-0.3c0.5-0.1,1.5-0.1,2.4,0c1.2,0.1,1.1,0.5-0.4,1.6   c-1.7,1.3-1.7,1.5-0.2,1.5c0.9,0,1.7,0.7,1.7,1.5s0.4,1.5,1,1.5s1-0.7,1-1.5s0.4-1.5,1-1.5s1,0.6,1,1.2c0,0.8,0.3,0.8,1-0.2   c0.8-1.3,1-1.2,1,0.3s0.7,1.8,3.8,1.5c2.9-0.2,3.7-0.7,3.5-2.1c-0.2-1,0.2-1.8,0.9-1.8s0.9,0.8,0.6,2c-0.3,1.1-0.2,2.1,0.1,2.2   c2.7,0.6,12,0.4,13.3-0.3c1-0.5,1.9-0.5,2.2,0s2.2,0.9,4.1,0.9c2.7,0,3.8-0.5,4.4-2.1c0.8-2.1,0.8-2.1,1.9-0.1   c0.8,1.4,2.2,2,5.1,2.2c3.8,0.2,4.1,0,4.1-2.5c0.1-2.5,0.1-2.5,0.9-0.6c0.5,1.2,1.5,2.3,2.2,2.5c2.7,0.9,19.6,0.1,21.6-1   c1.2-0.6,2.3-0.8,2.6-0.3s4.4,0.8,9.1,0.7c7-0.1,8.8-0.4,9.6-1.8c0.5-0.9,1.4-1.7,2-1.7c0.7,0,0.6,0.5-0.2,1.5   c-1,1.2-0.9,1.5,0.8,1.5c1.1,0,3.4-0.3,5.1-0.6c2.6-0.5,3-1,2.5-2.9c-0.3-1.3,0-2.6,0.6-3c0.8-0.5,1-0.1,0.5,1.3   c-0.4,1.1-0.2,2.3,0.4,2.7s0.8,1.1,0.4,1.7c-0.4,0.7,0.2,0.8,1.7,0.3c3.2-1,3.4-1.3,2.1-2.7c-1.5-1.5-1.5-2.8-0.2-2.8   c0.6,0,1.5,1,2.1,2.3c1,2.2,1.3,2.3,8.2,1.4c3.9-0.5,8.3-1,9.7-1.1s3.1-0.4,3.8-0.4c0.7-0.1,1.2-0.6,1.2-1.2s-0.4-0.8-0.9-0.5   c-1.3,0.8-2.1-1.9-0.9-3.5c0.8-1.2,0.9-1.2,0.6,0.1c-0.7,2.5,3.5,3.9,8.8,2.9c2.6-0.5,5.1-1.5,5.6-2.1c0.6-0.9,0.8-0.9,0.8-0.1   c0,0.7,1,1.2,2.3,1.1c4.2-0.1,7.8-1,7.8-2c0-0.5-0.4-0.7-1-0.4s-1,0.1-1-0.5s0.6-0.9,1.4-0.6c1.7,0.7,6-2.8,5.2-4.2   c-0.3-0.5-5-1.2-10.3-1.6c-5.4-0.4-11.6-0.8-13.9-1c-3.5-0.3-4.1-0.1-3.7,1.3c0.5,1.5,0.4,1.5-0.5,0.1c-0.7-1.1-3.2-1.9-7.3-2.3   c-3.5-0.4-7.8-1.1-9.8-1.6c-5.6-1.4-8.4-1.8-18.3-2.5c-5.1-0.4-10.3-0.8-11.5-1c-2.3-0.4-22-1.5-34.2-2c-9.8-0.4-10-0.4-10-1.9   c0-1.4,3.1-3.1,11-6.3c2.5-1,5.2-2.4,6.2-3.2c2-1.6,14.7-4.5,16.7-3.7c2.3,0.9,5.2-0.5,6.1-3c0.8-2.2,6.1-5.6,14.3-9.3   c4.6-2.1,4.9-3.4,0.5-2.4c-5.3,1.2-36.3,0.2-38.6-1.2c-0.4-0.2-6.3-0.7-13-1C1766.2,531.3,1764.2,531.3,1762.6,531.3L1762.6,531.3z   " />
	<path
   id="path16"
   class="st1"
   d="M1664,558.1c-0.5,0.6-0.7,15.6-0.6,34.9l0.1,37.5l207.2,0.3L2078,631v-54l-2.7-0.7   c-2.2-0.5-3.2-0.1-5.5,2.5c-1.5,1.7-3.7,3.2-4.8,3.2s-2.2,0.4-2.5,0.9s-1.8,0.6-3.5,0.1c-1.6-0.5-3.1-0.7-3.3-0.5   c-0.5,0.5-13.5,1.7-18.3,1.7c-2.2,0-3.4,0.2-2.8,0.5c2,0.8,1.5,4.4-0.8,5c-1.6,0.4-1.8,0.8-0.9,1.9c1.5,1.8,0.8,2.4-4.3,3.5   c-7.7,1.6-9.8,1.8-9.8,0.9c0-0.5-1.5-0.5-3.4-0.1s-4.1,0.3-5-0.2c-1.1-0.6-1.6-0.5-1.6,0.3c0,0.9-0.4,0.8-1.5-0.1   c-1.2-1-1.5-1-1.5,0c0,0.9-0.3,1-1.3,0.1c-1.3-1.1-18.1-2.4-28.2-2.3c-2.8,0-7.5,0.1-10.6,0.2c-3.3,0-7.7-0.7-10.6-1.8   c-4.4-1.7-7.2-1.9-23.3-1.6c-12.2,0.2-18.7,0-19.6-0.8c-1-0.8-1.3-0.8-1.3,0c0,2.1-2,1.2-3.2-1.4c-1.1-2.3-0.8-2.9,2.8-6.5   c3.5-3.5,4.5-3.9,8.9-4c5.2,0,8.5-1.3,7.2-2.7c-0.4-0.4-4.2-0.9-8.5-1c-4.2-0.1-12.4-0.6-18.2-1c-11.6-0.9-15.3-0.6-14.4,0.8   c0.8,1.4-3.4,4.9-5.2,4.2c-0.8-0.3-1.4,0-1.4,0.6s0.4,0.9,1,0.5s1-0.2,1,0.4c0,1-3.6,1.9-7.8,2c-1.2,0-2.3-0.5-2.3-1.1   c0-0.9-0.2-0.9-0.8,0.1c-0.4,0.7-2.9,1.6-5.6,2.1c-5.3,1-9.5-0.4-8.8-2.9c0.3-1.3,0.2-1.3-0.6-0.1c-1.1,1.6-0.4,4.4,0.9,3.5   c0.5-0.3,0.9-0.1,0.9,0.5s-0.6,1.1-1.2,1.2c-0.7,0.1-2.4,0.3-3.8,0.4s-5.7,0.7-9.7,1.1c-6.9,0.8-7.2,0.8-8.2-1.4   c-0.6-1.3-1.5-2.3-2.1-2.3c-1.4,0-1.3,1.3,0.2,2.8c1.4,1.4,1.1,1.7-2.1,2.7c-1.5,0.5-2.2,0.4-1.7-0.3c0.4-0.6,0.2-1.3-0.4-1.7   c-0.6-0.4-0.8-1.6-0.4-2.7c0.5-1.4,0.3-1.8-0.5-1.3c-0.7,0.4-0.9,1.7-0.6,3c0.5,1.9,0.1,2.4-2.5,2.9c-1.7,0.3-4,0.6-5.1,0.6   c-1.7,0-1.8-0.3-0.8-1.5c0.8-1,0.9-1.5,0.2-1.5c-0.6,0-1.5,0.8-2,1.7c-0.8,1.4-2.6,1.7-9.6,1.8c-4.7,0.1-8.9-0.3-9.1-0.7   c-0.3-0.5-1.5-0.3-2.6,0.3c-2,1.1-18.9,1.9-21.6,1c-0.7-0.2-1.7-1.4-2.2-2.5c-0.8-1.9-0.9-1.9-0.9,0.6c-0.1,2.5-0.4,2.7-4.1,2.5   c-2.9-0.1-4.4-0.7-5.1-2.2c-1.1-2-1.1-2-1.9,0.1c-0.6,1.6-1.6,2.1-4.4,2.1c-2,0-3.8-0.4-4.1-0.9s-1.3-0.5-2.2,0   c-1.4,0.7-10.7,0.9-13.3,0.3c-0.4-0.1-0.4-1.1-0.1-2.2c0.3-1.2,0-2-0.6-2s-1,0.8-0.9,1.8c0.2,1.4-0.5,1.8-3.5,2.1   c-3.1,0.3-3.8,0-3.8-1.5s-0.2-1.6-1-0.3c-0.6,1-1,1.1-1,0.2c0-0.7-0.5-1.2-1-1.2s-1,0.7-1,1.5s-0.4,1.5-1,1.5s-1-0.7-1-1.5   s-0.8-1.5-1.7-1.5c-1.5,0-1.4-0.2,0.2-1.5c1.5-1.1,1.6-1.5,0.4-1.6c-0.8-0.1-1.9-0.1-2.4,0s-2.4,0.2-4.2,0.3   c-1.9,0.1-3.4,0.5-3.4,1s0.4,0.8,1,0.8s1,0.7,1,1.6c0,1.9-4,1-5.3-1.2c-0.4-0.8-1.3-1.1-1.9-0.7c-0.7,0.4-0.6,1,0.3,1.6   s-0.1,0.7-2.6,0.2c-2.2-0.4-4.6-0.7-5.2-0.7c-0.7,0-1.3-0.9-1.3-2.1c0-1.3-0.3-1.6-0.8-0.9c-1.3,2-5.8,2.6-7.5,0.9   c-0.8-0.8-1.8-1.2-2.1-0.9s-0.6,0.1-0.6-0.5c0-0.7,1.2-1,3-0.8c3,0.3,3,0.3,1.5-2.5c-1.7-3.2-2.6-3.5-4.5-1.3   c-0.8,1-1.6,1.2-2.3,0.6c-0.6-0.6-1.5-0.4-2.5,0.6c-1.9,1.9-3,0-1.1-2.2c0.7-0.8,0.9-1.5,0.5-1.5s-1.4,0.8-2.1,1.8   c-1.2,1.6-1.3,1.5-1.1-1c0.1-1.5,0.5-2.8,1-2.8c0.4,0,0.8-0.6,0.8-1.4c0-1.6,3.9-1.3,5,0.5c0.4,0.7,1.1,0.5,2-0.5   c0.7-0.9,2.1-1.3,3.1-1s2.1,0,2.5-0.6c0.4-0.7,0.3-0.9-0.2-0.6s-2.1,0-3.4-0.7c-1.4-0.7-3.3-1-4.4-0.6c-2.6,0.9-8.8,0.3-13.3-1.2   c-4.7-1.6-4.6-1.5-2.9-3.1c1.8-1.8,5-2.8,9.9-3.1c4.4-0.2,6.5-1.5,2.8-1.7c-1.3-0.1-2.9,0-3.4,0.1c-0.6,0.1-3.1,0.4-5.7,0.6   c-4.4,0.3-4.7,0.2-5.1-2.4C1664.1,558.1,1664,558.1,1664,558.1L1664,558.1z" />
</g>
<g
   id="g2008"
   inkscape:label="Layer 1 view">
	<path
   class="st2"
   d="M2705,420.4c-1.7,0-3.4,0-4.8,0c-0.4,0.1-0.8,0.1-1.2,0.1c-13.6,0-27-1.5-40.6-2.1   c-13.1-0.6-25.8-2.5-38.7-4.6c-13.2-2.2-27.1-5-40.6-4.3c-0.8,0-1.6,0.1-2.5,0.2c-2.1,0.7-5.4,1.2-10.2,1.7c-0.2,0-0.4,0-0.5,0.1   c-4.3,2-8.5,4.1-13.2,5.1c-4.9,1-9.6,3-14.5,3.8c-0.6,0.1-1.2,0.1-1.7,0c-1.3,0.4-8.1-1.2-8.8-2.2c-0.7-1-10.5-3-15-3   c-1.8,0-3.6-0.4-4.3-0.8c-0.1,0-0.3,0-0.4-0.1c-0.1,0-0.2,0-0.3-0.1c-0.2,0-0.3,0-0.5-0.1c-0.2,0-0.5-0.1-0.7-0.3   c-0.1,0-0.1,0-0.2,0c-0.3,0.2-0.5,0.2-0.5-0.1c-0.9-0.2-1.6-0.6-2.1-1.1c0,0,0,0,0,0c-0.5-0.3-1.9-0.8-3-1s-4.8-1.7-8.3-3.3   c-3.4-1.6-11.1-5.3-17-8.1s-11.2-5.1-11.8-5.1s-1-0.4-1-0.9s-1.2-1.4-2.8-2c-1.5-0.6-5-2.4-7.8-4.1c-2.8-1.6-6-3.4-7.3-4   c-1.3-0.6-4.9-2.2-8-3.7c-3.1-1.4-7.5-3.4-9.7-4.4c-6.1-2.7-17.2-7-18.2-7c-0.5,0-1.9-1.1-3.2-2.4s-3.7-2.8-5.4-3.1   c-1.7-0.4-3.6-1-4.1-1.3c-1.9-1.2-10-3.1-13.5-3.1c-6.3-0.1-21.6-7.3-29.2-13.8c-1.8-1.6-5.4-4.3-8-6c-4.4-3-5.1-3.2-14.9-3.3   l-10.3-0.1l-2.7,3.3l-2.7,3.3l-14.9-0.7c-8.2-0.4-19.6-0.7-25.3-0.8c-11.3-0.1-10.8,0.1-22.6-8.5c-2.8-2-7.2-4.7-10-6.1   c-2.8-1.4-5.9-3.4-7-4.4s-3.8-2.5-6-3.2c-4-1.4-5.3-3.4-6.9-10.9c-0.7-3.1-6.8-9.7-16.3-17.6c-5.1-4.2-7.2-5.3-11.1-5.8l-4.9-0.6   l-0.5-4.6c-0.3-2.5-0.1-5.7,0.4-7c0.7-1.9,0.6-2.9-0.6-4.1s-1.8-1.3-2.3-0.4c-2,3.2-34.6,5.6-33.4,2.5c0.3-0.7,0.2-2.4-0.2-3.9   c-0.5-2.2-1.1-2.5-3.1-2c-1.5,0.4-3.4,0-4.9-1s-3.4-1.4-4.8-1c-1.8,0.4-3.1-0.2-5.2-2.4c-2.3-2.4-2.5-3-1.1-3   c2.7,0,1.3-2.5-1.6-2.8c-1.9-0.2-3-1.3-4.1-4.2c-0.8-2.1-2-4.1-2.6-4.5c-1.1-0.7-3.1,3.4-2.4,4.7c0.8,1.4-1.1,0.8-6.4-2   c-3.3-1.7-5.3-3.4-5.3-4.5c0-1.2-0.4-1.7-0.9-1.7s-1,0.6-1.3,1.7c-0.6,2.2-19.1,10.2-23.6,10.2c-1.7,0-3.2,0.5-3.2,1s1.1,1,2.5,1   c3.1,0,7.7,4.3,6.8,6.4c-0.8,2.2-6.2,2.1-6-0.1c0.1-0.9-0.4-1.8-1.1-2.1s-1.2,0.4-1.2,1.6c0,1.1-0.4,2.1-1,2.1c-0.5,0-1,1.5-1,3.2   c0,1.8-0.1,4.1-0.3,5.2c-0.2,1.4,0.3,2,1.7,2c2.3,0,4.5,1.2,4.5,2.5c0,1.5-5.1,4.4-7.9,4.5c-2.2,0.1-2.6,0.6-2.9,3.8   c-0.3,3-0.8,3.8-3,4.3c-1.5,0.4-5.4,3.3-8.7,6.6c-5.2,5.1-25.9,18.8-28.5,18.8c-1.7,0-7,5.2-7,6.9c0,1-1.6,4-3.5,6.7   s-4,6.6-4.5,8.6c-0.8,2.9-2.8,5.1-9.8,10.6c-6.1,4.8-9.3,8.1-10.6,10.9c-1.5,3.4-3.1,4.7-10,8.3c-20.2,10.6-31.4,17.6-37.7,23.7   c-5,4.8-9.3,7.7-18.9,12.5c-12.8,6.4-12.9,6.6-15.1,14.6c-0.9,3.2-1.6,4.2-3.1,4.2c-1.1,0-4.6,0.9-7.9,2c-3.2,1.1-9.2,2.3-13.2,2.6   c-4.7,0.4-7.9,1.2-8.9,2.3c-0.9,0.9-2.8,2.5-4.3,3.5c-1.5,1.1-3.7,2.8-4.9,3.8c-3.8,3.3-9.9,6.5-21.2,11.1   c-6.1,2.4-13.5,5.6-16.5,6.9c-3,1.4-7.4,2.8-9.8,3.2c-0.8,0.1-1.6,0.3-2.2,0.5c-0.1,1.1-0.8,2.1-2.1,2.6c-2.6,1-4.7,2.6-7.4,3.4   c-0.9,0.2-1.7,0.5-2.5,0.7c-0.9,0.7-1.7,1-2.8,1c-0.2,0.1-0.5,0.2-0.7,0.3c-1.8,0.8-3.4,1.7-5.1,2.5c0,0.1-0.1,0.1-0.1,0.2   c-0.7,1.2-1.5,1.8-3.1,2.1c-0.2,0.1-0.5,0.2-0.8,0.3c-2.6,0.6-4.6,2.2-6.6,3.7c0.1,0.7-0.3,1.1-1.5,1.1c-0.7,0.5-1.5,1.1-2.3,1.5   c-0.3,0.1-0.5,0.3-0.8,0.4c-0.3,0.4-0.8,0.7-1.4,0.7c-2.8,1.3-5.9,2.2-8.7,3.4c-3.2,1.3-6.1,3-9,4.7c0,0.1,0,0.1,0,0.2   c0,1.1-5.3,3.4-7.1,3.3c-1.4,0.5-2.9,1-4.4,1.2c-6.9,1.2-14,0.6-21,0.8c-1,0-2.1,0-3.1,0c-0.5,0.1-3.4,0.2-6.7,0.3   c-3.7,0.1-7.1,0.7-7.5,1.3c-0.5,0.8-1.6,1.4-2.6,1.7c-2.8,3.7-8.1,4.8-12.6,6c-0.5,0.5-1.1,0.8-2,0.9c-1.3,0.1-2.5,0.3-3.8,0.6   c-0.8,0.7-2,1.2-3,1c-2.5,1-5,2.5-7.5,3.9c0,0-0.1,0.1-0.1,0.1c-0.4,0.4-1.1,0.8-1.7,1c-1.1,0.6-2.2,1.3-3.2,1.9   c-0.3,0.3-0.9,0.6-1.5,0.8c-0.7,0.3-1.3,0.7-2,1c-0.3,0.2-0.7,0.3-1,0.5c0,0,0,0.1,0,0.1c0,0.3-0.4,0.4-1,0.4   c-6.9,3.2-13.7,6.9-20.8,9.3c-0.5,0.2-1,0.2-1.4,0.1c0,0,0,0-0.1,0c-1.8,0.1-5,0.8-7.2,1.4c-2.2,0.6-5.1,1.3-6.5,1.5   s-4.5,0.7-7,1.1c-5.1,0.9-13.8-1.1-15.6-3.6c-0.8-1.1-3.1-1.5-8.2-1.6c-3.1-0.1-5.7-0.3-6.8-0.7c0,0-0.1,0.1-0.1,0.1   c-0.6,0.5-1.3,0.8-2.1,0.8c-1.4,1.3-4.3,1.5-12.3,0.9c-5.4-0.4-12-2.5-12-3.8c0-2-8.3-9.1-11.3-9.6c-5.1-0.9-26.9-0.9-30.7,0   c-1.9,0.5-6.2,1-9.5,1.1c-3.3,0.2-7.3,0.8-8.8,1.4c-1,0.4-2.1,0.7-2.8,0.7c-0.8,0.5-1.6,0.9-2.4,1.2c-0.8,0.8-3.2,1.1-5.5,1   c-2,0.1-4.1,0-6.2-0.3c-0.1,0-0.1,0-0.2,0c-0.4,0.1-0.9,0-1.7-0.2c0,0,0,0-0.1,0c-5.3-0.6-11.1-1.4-15.2-4.8   c-0.1-0.1-0.2-0.1-0.3-0.2c-0.5-0.4-0.9-0.9-1.3-1.4c-2.6-0.5-14.3-6.4-16.3-8.4c-1.2-1.2-3.8-4.7-5.8-7.7c-3.2-5-4-5.7-7.8-6.3   c-2.3-0.4-9.5-2.9-16-5.6s-12.1-5-12.6-5s-2.7-1.2-4.8-2.7c-6.5-4.4-20.9-12-24.3-12.7c-1.7-0.4-5.8-2.5-9.2-4.6   c-3.4-2.1-6.5-3.9-7.1-3.9s-0.8-0.3-0.6-0.8c0.3-0.4-2-2.5-5.1-4.8c-3-2.2-6.6-5.1-8-6.5c-5-5.1-25.1-34.8-28.5-42   c-2.8-6-5.3-9.4-12.9-17.1c-15.8-16-18-18.6-17.3-20.3c0.3-0.9,0.1-1.6-0.5-1.6s-1.4,0.7-1.7,1.5c-0.5,1.3-0.9,1.3-3.4,0   c-1.6-0.8-3.9-1.5-5.2-1.5c-2.5,0-7-2.5-10.5-5.9c-1.2-1.2-2.5-2.1-2.9-2.1c-1,0-12.1-9.7-17.4-15.2c-6.4-6.7-8.1-7.2-17.6-4.4   c-4.3,1.3-10,2.8-12.6,3.4l-4.7,1.1l-17.9-13.1l-5.8,0.6c-5.6,0.6-5.9,0.5-10.1-3c-2.3-2-5.8-4.1-7.8-4.6   c-3.9-1.1-7.1-3.1-15.3-9.6c-2.9-2.3-6.1-4.2-7.1-4.2s-2.6-0.9-3.6-2c-1-1.1-5.2-3.6-9.4-5.6s-8.8-4.5-10.3-5.5   c-3.2-2.3-3.6-2.2-18.3,6.2c-20,11.3-21.3,12-23.2,12c-2.7,0-12.5,6.1-17.5,10.9c-4.5,4.3-5.5,4.5-12.7,3.1   c-4.2-0.8-4.9-0.6-11.5,3.2c-3.8,2.3-11.1,6.8-16.2,10.2c-13,8.6-25.3,16-28.3,16.8c-1.4,0.4-9.2,0.9-17.3,1.2l-14.8,0.5l-10.5,6.7   c-10.6,6.8-16.1,9.3-20.2,9.4c-1.3,0-4.2,0.9-6.5,1.9s-6.1,2.7-8.5,3.7c-4,1.7-7.2,4.7-9.7,8.9c-0.6,1.1-3.6,2.2-8.1,3.1   c-7.4,1.4-16,5.1-18.3,8c-2.9,3.5-4.7,3.7-10.2,0.8c-2.9-1.5-5.5-3-5.8-3.3c-0.8-0.8-13.5-4.7-26.2-7.9c-6.2-1.6-16.7-4.7-23.3-7   s-12.9-4.3-14-4.5s-6-1.8-11-3.5c-14.9-5.1-22.4-7.3-24.3-7c-1,0.1-5.6-0.3-10.2-0.9c-4.6-0.6-10.8-1.3-13.5-1.4   c-4.6-0.2-5.1-0.5-6.7-3.7c-1.4-2.8-2.7-3.8-6.5-4.8c-7.5-2.1-13.3-3-19.1-3.1c-4.9-0.1-5.7-0.4-9.3-4c-7-7-13.3-8.1-33.7-6.2   c-6.3,0.6-9,1.3-11,3c-6.8,5.6-20.4,12.7-24.5,13c-5.1,0.3-12.5,2.9-15.1,5.3c-2.8,2.6-14.6,8.9-16.8,8.9c-0.9,0-2,0.5-2.3,1   s-1.3,1-2.1,1s-3.8,1.1-6.7,2.4s-8.1,3.2-11.7,4.2s-7.2,2.3-8,3s-2.6,1.5-4,1.9c-2.4,0.7-11.7,5.1-17,8.1c-8.9,5-25.4,10.4-33,10.9   c-1.4,0.1-3.4,0.5-4.5,1s-5,2-8.7,3.4l-6.7,2.5l3,1.8c1.6,1,3.5,1.8,4.2,1.8c2.4,0-4.9,6.1-10.9,9.2c-3.5,1.8-6.2,3.4-6,3.8   c3.1,5.5,3.7,8.2,2.4,11.4c-2.1,5-6.3,6.4-12.4,4.1c-2.6-1-7.1-3.3-10.1-5.2c-3.2-2-8.6-4.1-13.5-5.3c-5.8-1.4-8.7-2.6-9.9-4.2   c-1-1.2-1.8-2.5-1.8-2.8s-1.7-0.7-3.8-0.8c-2.1-0.1-5.2-1.1-7-2.2c-1.8-1.1-5.2-2.4-7.5-3c-3.9-1-7.4-2.4-13.8-5.3   c-1.4-0.6-4.3-2.4-6.6-3.9s-6.1-3.5-8.5-4.4c-2.4-0.9-4.8-2-5.4-2.4c-0.6-0.4-3.4-1.5-6.2-2.4c-2.9-0.9-5.2-2.1-5.2-2.5   c0-0.4-1.4-1-3-1.2c-2-0.3-5,0.6-9.2,2.7c-3.4,1.7-8,3.9-10.2,4.8c-2.2,0.9-6.7,3.2-10,5.1c-15.3,8.8-27,13.7-33.6,14.2   c-3.1,0.2-8.7,1.5-12.5,2.8c-3.8,1.3-8.5,2.7-10.4,3.1c-1.9,0.4-5.3,1.5-7.6,2.5c-5.5,2.5-21.9,4.3-38.9,4.4   c-14.7,0-20-0.7-22.4-3.1c-0.9-0.9-2.3-1.2-4-0.8c-3.6,0.9-17.8,0.6-22.4-0.4c-2.1-0.5-3.8-0.7-3.8-0.5s-1.8-0.5-4-1.6   c-2.2-1.1-4.8-2-5.8-2s-4.1,2.3-6.8,5.1s-11.7,10.2-20,16.5c-8.3,6.3-18.1,14.2-22,17.5c-8.5,7.4-11.2,7.6-13.1,1.2   c-1.3-4.4-0.7-10.1,1.4-14.1c1.4-2.7,0.8-2.7-4.9-0.8c-7,2.5-10.7,2-14.6-1.9l-3.4-3.4l-10.8,5.5c-11.5,5.9-16.7,6.9-21.6,4.3   c-3-1.6-5-5-5-8.6c0-2.5-0.2-2.5-4.1-1.8c-2.3,0.4-6.3,0.7-9,0.7c-4.2,0-5.2-0.4-7.5-3.2c-2.5-3-2.8-3.1-5.1-1.8   c-6.5,3.6-12.8,5.4-16.1,4.4c-3-0.8-3.8-0.5-9.8,3.9c-3.6,2.7-9.1,6-12.1,7.3c-3,1.4-7.9,4.4-10.8,6.7L0,466.2V1038h2714V420.2   L2705,420.4z M2128.3,258.6c1.1-0.8,1.6-1.1,2.2-0.9c0.6,0.2,1.1,0.8,2.2,2.1c1.2,1.5,1.8,3,1.5,3.4c-0.7,0.6-4.4,1.2-6.9,0.9   C2125.2,263.9,2125.9,260.2,2128.3,258.6z M1669.5,526.9c0.4-0.7,6.8-0.9,19-0.7c20.3,0.4,23.1,1.2,17.3,4.7   c-1.9,1.1-4.3,2.1-5.4,2.1s-2.5,0.4-3,0.9c-1.7,1.6-4.9,1.8-7.7,0.4c-1.5-0.7-3.1-1.3-3.5-1.2c-1.8,0.4-9.3-1.5-9.3-2.2   c0-0.5-0.6-0.6-1.4-0.3s-2.1-0.2-2.9-1c-0.9-0.9-2.1-1.6-2.7-1.6C1669.4,528,1669.2,527.5,1669.5,526.9z M2134.6,578.8   c-0.2,1.3-0.6,2.6-1.1,3.8c-0.4,0.9-0.9,1.7-1.4,2.5c-0.4,0.5-0.6,1.1-0.9,1.8c-0.2,0.6-0.6,1.2-0.9,1.8c-0.3,0.6-0.7,1.3-1,1.9   c-0.4,0.8-0.8,1.6-1.2,2.3c-0.5,1-1.1,1.8-1.7,2.7c-0.6,0.8-1.1,1.6-1.7,2.4c-0.6,0.7-1,1.4-1.5,2.1c-0.4,0.5-0.6,1.1-0.9,1.6   c-0.3,0.5-0.4,1-0.6,1.5c-0.1,0.1,0,0.7-0.2,0.7c0,0,0,0.1-0.1,0.1c-0.3,0.9-0.6,1.8-1,2.6c-0.4,1-0.9,1.8-1.6,2.7   c-0.6,0.7-1.1,1.5-1.6,2.2c-0.7,0.9-1.4,1.8-2.2,2.6c-0.8,0.8-1.5,1.6-2.1,2.4c-0.5,0.7-0.9,1.4-1.3,2.2c-0.5,1-1.1,1.9-1.8,2.8   c-0.7,0.7-1.3,1.4-1.9,2.2c-0.7,0.9-1.4,1.8-2.1,2.6c-0.7,0.7-1.3,1.5-2,2.2c-0.8,0.7-1.6,1.4-2.6,1.9c-0.1,0-0.1,0-0.2,0.1   c-0.4,0.3-0.8,0.6-1.3,0.8c0,0,0,0,0,0c-0.2,0.5-0.5,0.9-1,1.3c-0.1,0.1-0.4,0.3-0.5,0.4c-0.4,0.3-0.8,0.4-1.2,0.5   c-0.5,0.3-1,0.6-1.4,0.9c-0.2,0.3-0.9,0.5-0.9,0.9c-0.3,0.7-0.7,1.3-1.2,2c-0.5,0.7-1.2,1.3-1.9,1.9c-0.2,0.5-0.5,1-0.9,1.3   c-0.2,0.2-0.3,0.3-0.4,0.2c-0.2,0.1-0.5,0.2-0.7,0.3c-0.2,0.2-0.3,0.3-0.4,0.5c-0.5,0.5-0.7,1.1-1,1.7c-0.3,0.9-0.9,1.7-1.5,2.5   c-0.5,0.8-1,1.5-1.4,2.3c-0.4,0.8-0.8,1.6-1.3,2.4c-0.6,1-1.2,2-1.9,3c-0.9,1.1-1.8,2.1-2.8,3.2c-0.9,1-1.9,1.9-2.8,2.8   c-0.7,0.7-1.3,1.4-1.9,2.1c-0.5,0.8-1.1,1.5-1.7,2.3c-0.2,1-0.8,2-1.9,2.3c-0.2,0.2-0.4,0.4-0.6,0.6c-0.8,0.9-1.6,1.7-2.4,2.6   c-0.6,0.7-1.3,1.5-1.8,2.3c-0.1,0.1-0.2,0.3-0.3,0.4c0,0,0.1-0.1,0.1,0c0,0,0,0.1,0,0.1c0,0.1,0,0.3,0,0.4c0,0.3-0.1,0.8-0.1,1.1   c-0.3,1.6-1.3,3-2.3,4.2c-0.8,0.9-1.7,1.8-2.5,2.7c-0.7,0.8-1.3,1.7-1.8,2.6c-0.5,0.9-1,1.7-1.5,2.6c-0.5,1-0.8,2-1.1,3   c-0.5,1.4-1.1,2.8-1.6,4.1c-0.4,0.9-0.8,1.9-1.1,2.8c-0.3,0.9-0.7,1.8-1.1,2.6c-0.6,1-1.2,1.9-1.9,2.8c-0.7,1-1.5,1.9-2.4,2.9   c-0.1,0.1-0.2,0.3-0.3,0.4c0.1,1.4-0.7,3-2.4,3.2c-0.2,0.4-0.5,0.7-0.7,1c-0.4,0.5-0.7,0.9-1.1,1.4c0,0.1-0.1,0.2-0.1,0.2   c0.1,0.1-0.2,0-0.2,0.1c-0.2,0.2-0.3,0.4-0.5,0.6c-0.5,0.7-1.1,1.3-1.6,1.9c-0.5,0.6-0.8,1.3-1.1,2c-0.3,0.9-0.7,1.7-1.2,2.5   c-0.4,0.8-0.8,1.6-1.2,2.4c-0.5,1.1-1.3,1.8-2.2,2.7c-0.7,0.7-1.4,1.3-2.1,1.9c-0.7,0.6-1.5,1.1-2.2,1.7c-0.7,0.5-1.2,1.1-1.8,1.7   c-0.6,0.6-1.3,1-1.9,1.6c-0.7,0.8-1.7,1.1-2.6,1.5c-1,0.4-2,0.6-3,0.9c-1,0.2-1.9,0.6-2.8,0.9c-0.9,0.5-1.9,0.9-2.8,1.5   c-0.8,0.5-1.7,1-2.4,1.6c-0.5,0.5-1.1,1-1.7,1.5c-0.1,0.3,0.1,0.8-0.3,0.8c-0.2,0-0.2-0.2-0.3-0.3c-0.9,0.5-2,0.8-3,1.2   c-1.1,0.4-2.2,0.9-3.4,1.3c-0.1,0.1-0.2,0.1-0.4,0.2c-0.1,0-0.1,0.1-0.2,0.1c-0.8,0.3-1.5,0.7-2.3,1c-0.8,0.3-1.6,0.7-2.4,1.1   c-0.9,0.5-1.9,0.9-2.9,1.3c-1.3,0.5-2.6,1-3.9,1.6c-1.3,0.6-2.7,1.1-4,1.6c-1.4,0.6-2.9,0.9-4.4,1.3c-0.3,0.4-0.6,0.7-1,0.9   c-1.4,0.6-2.8,1-4.3,1.4c-0.1,0.3-0.3,0.4-0.8,0.5c-0.5,0.1-1.1,0.2-1.6,0.4c-0.8,0.3-1.7,0.6-2.6,0.9c-0.9,0.3-1.8,0.6-2.8,0.6   c0,0-0.1,0-0.1,0c-3.5,2.1-7.4,3.6-11.4,4.6c-3.5,0.9-7.1,1.3-10.5,2.3c-0.6,0.2-1.2,0.4-1.8,0.5c0,0-0.1,0-0.1,0   c-0.2,0.1-0.4,0.2-0.6,0.2c0,0-0.1,0.1-0.1,0.1c-0.2,0.1-0.3,0.2-0.5,0.1c-5,2-10.5,3-16,3.6c-6.1,2.6-12.2,4.2-19,5.2   c-1.2,0.2-2.3,0.4-3.5,0.6c-0.7,0.2-1.3,0.4-2,0.4c-0.1,0-0.2,0-0.4,0c-6,1.2-12,2.7-18,4c-1.4,0.3-2.8,0.6-4.2,0.9   c-1.3,0.6-2.7,1.1-4,1.5c-1.3,0.4-2.6,0.6-4,0.8c-1.1,0.2-2.3,0.2-3.4,0.4c-0.6,0.1-1.2,0.1-1.8,0.2c-0.4,0.1-0.9,0.2-1.1,0.2   c-0.2,0.1-0.5,0.1-0.7,0.1c-2.8,0.2-5.5,1-8.4,1.1c-3.3,0.1-6.6,0-10,0c-4.2,0-9.5,0.9-13.7-0.8c-0.3,0-0.7,0-1,0   c-2.3,0.1-4.6,0.1-6.9,0.1c-0.9,0-1.8,0-2.8,0c-0.2,0.2-0.7,0.1-0.9,0c-0.4,0-0.9,0-1.3,0c-1.5,0-3,0-4.5,0c-1.7,0-3.4,0-5.1,0   c-1.2,0-2.3-0.1-3.5-0.2c-0.4,0-0.5-0.3-0.8-0.4c-1,0.1-2,0.1-2.9,0.1c-0.9-0.1-1.9-0.3-2.8-0.5c-0.1,0-0.4,0.2-0.4,0.1   c0-0.1-0.6-0.2-0.7-0.4c-0.2-0.1-0.5-0.1-0.7-0.2c-1.3-0.2-2.5-0.5-3.7-0.9c-1.2-0.3-2.5-0.5-3.7-0.7c-1.6-0.3-3.2-0.7-4.8-1   c-1.4-0.3-2.8-0.8-4.2-1.1c-0.2-0.1-0.5-0.1-0.7-0.2c-0.2,0-0.3,0.3-0.5,0.3c-0.8,0-0.6-0.2-0.3-0.5c-1-0.3-2-0.6-3-0.9   c-1.2-0.3-2.4-0.6-3.7-0.9c-0.3,0-0.7-0.1-0.9-0.2c-0.1,0-0.1,0-0.2,0c-1.1-0.3-2.2-0.6-3.3-1c-1.1-0.5-2.2-1-3.2-1.6   c-1.2-0.8-2.5-1.4-3.7-2.2c-1.4-0.8-2.7-1.8-4-2.8c-1.2-1-2.4-1.9-3.6-2.9c-1.4-1-2.8-2-4.3-2.9c-1.5-0.8-2.8-1.8-4.3-2.6   c-1.4-0.7-2.8-1.5-4.2-2.2c-1.3-0.7-2.6-1.5-3.7-2.5c-1.4-1.3-2.7-2.8-4.3-3.9c-1.5-1-3-2-4.6-2.8c-1-0.5-2-1-3.1-1.5   c-0.3,0-0.3,0-0.6,0c-2.7-0.6-4.7-1.7-6.2-2.8c-0.2,0-0.4-0.1-0.7-0.2c-1.9-0.6-3.8-1.2-5.7-1.9c-1.6-0.6-3.2-1.2-4.8-1.9   c-1.5-0.7-2.9-1.6-4.3-2.6c-1.3-0.9-2.6-1.7-4-2.4c-1.5-0.8-3.2-1.3-4.8-2c-0.6-0.2-1.3-0.5-1.9-0.8c-0.8-0.2-1.4-0.4-1.8-0.7   c-0.4-0.2-0.7-0.3-1.1-0.5c-1.1-0.4-2.3-0.9-3.4-1.4c-0.3,0.1-0.7-0.2-0.9,0.1c-0.3,0.6-0.4,0-0.5-0.8c-1.3-0.6-2.5-1.2-3.7-1.8   c-0.1,0-0.2-0.1-0.3-0.2c0,0-0.1,0-0.1,0c-0.8-0.4-1.7-0.9-2.5-1.3c-0.3,0.6-0.4,0.6-0.5-0.2c-0.5-0.3-1-0.5-1.5-0.8   c-0.7-0.4-1.4-0.8-2.1-1.1c-0.4-0.1-0.7-0.3-0.9-0.4c-0.6-0.3-1.3-0.6-1.9-0.9c-2.2-0.9-4.5-1.6-6.9-2.3c-2.6-0.7-5.2-1.4-7.8-2.1   c-0.5-0.1-0.5-0.5-0.8-0.7c-2.1-0.9-4.2-1.9-6.2-2.9c-3.4-1.4-6.7-2.8-10-4.4c-2.8-1.3-5.4-2.9-8.1-4.5c-0.5-0.3-1-0.6-1.5-1   c-0.2-0.1-0.5-0.1-0.8-0.2c-3-1.3-6-2.5-9-3.9c-0.3-0.1-0.5-0.2-0.7-0.4c-0.5,0.1-1.1,0.1-1.9-0.3c-0.6-0.3-1.2-0.6-1.8-0.9   c-1.2-0.6-2.5-1.2-3.7-1.7c-1.4-0.6-2.8-1.1-4.1-1.7c-1.3-0.6-2.5-1.1-3.7-1.8c-1.1-0.6-2.3-1.2-3.4-1.7c-1.2-0.5-2.3-1-3.6-1.3   c-0.9-0.2-1-0.7-1.3-1.2c-0.5,0-1.1-0.2-1.7-0.6c-1.1-0.7-2.2-1.5-3.3-2.2c-1.5-0.8-3-1.6-4.5-2.2c-1.8-0.7-3.5-1.6-5.2-2.4   c-1.3-0.6-2.6-1.4-3.8-2.2c-1-0.6-1.9-1.2-2.9-1.7c-1.1-0.6-2.1-1.4-3.1-2.2c-1.3-1-2.5-2.1-3.7-3.1c-0.9-0.8-1.9-1.6-2.9-2.4   c-0.7-0.5-1.4-1-2.2-1.4c-1.1-0.7-2.3-1.2-3.5-1.8c-1.5-0.8-2.9-1.5-4.4-2.2c-1.3-0.6-2.6-1.4-3.8-2.2c-1.3-0.8-2.5-1.7-3.9-2.4   c-1.3-0.7-2.6-1.4-3.9-2.2c-1.2-0.6-2.3-1.3-3.4-2c-1.4-0.9-2.7-1.8-4.1-2.7c-1.4-0.9-2.8-1.9-4.1-2.9c-1.2-0.8-2.3-1.6-3.5-2.4   c-1.1-0.8-2.2-1.6-3.3-2.4c-1.2-0.8-2.4-1.7-3.5-2.6c-1.4-1-2.9-2.1-4.4-3.1c-1.3-1-2.6-1.9-3.9-2.9c-0.9-0.8-1.9-1.4-2.9-2.1   c-1.1-0.8-2.1-1.6-3.2-2.4c-1.1-0.8-2.2-1.6-3.3-2.3c-1.5-0.9-3-1.7-4.5-2.6c-1.4-0.8-2.8-1.6-4.1-2.5c-1.2-0.8-2.4-1.6-3.5-2.5   c-1-0.8-2-1.6-2.9-2.5c0,0,0,0,0,0c-0.2-0.1-0.3-0.1-0.4-0.2c-0.3-0.2-0.8-0.6-1.1-0.8c-0.2-0.2-0.2-0.2-0.5-0.6   c-0.5-0.6-0.7-1-1-1.9c-0.4-1.5-0.1-3,0.6-4.3c0-0.4,0.1-0.9,0.5-1.4c3.6-4.5,6.1-6.7,10.3-9.1c2.7-1.5,4.2-2.3,5-2.5   c0.5-0.2,1-0.4,1.5-0.6c0.1-0.5,0.7-1,1.6-0.9c1.3,0.1,1.9-0.9,2.4-3.8c0.2-1.1,0.4-1.3,0.7-2c0,0,0-0.1,0-0.1   c-0.1-0.3-0.1-0.6-0.2-0.9c-0.3-1.5-0.6-2.9-1-4.3c-0.3-1.1-0.1-2,0.3-2.5c-1.4-3.7-2.4-5-5.5-5.5c-1.7-0.3-2.7-0.7-3.3-1.3   c-2.5-0.4-4.8-1.1-7.3-1.6c-1-0.2-1.8-0.8-2.4-1.5c-0.3,0-0.7-0.1-1-0.1c-1.5,0-3-0.7-3.3-1.6s-1.1-1.3-1.7-0.9   c-0.8,0.5-0.7,0,0.1-1.5c0.6-1.2,1.7-2,2.3-1.8s1.8-0.2,2.5-0.9c0.3-0.3,0.7-0.1,1.1-0.3c0.3-0.4,0.8-0.8,1.4-1.1   c0.1-0.1,0.2-0.1,0.3-0.2c0.6-0.3,1.1-0.4,1.5-0.4c0.9-2.2,7.9-5.1,11.5-4.9c0.5-0.2,1-0.3,1.6-0.3c4.4-0.1,8.8,0.2,13.2,0.6   c1.1-0.2,2.2-0.2,2.9,0c1.9,0.4,21,0.4,41.3,0c2.8-0.1,5.4,0,7.2,0.2c1,0,1.9,0,2.9,0.1c1.7-0.2,3.5-0.3,5.2-0.4   c1.1-0.1,2.3-0.1,3.3-0.1c5.8,0,11.7,0.3,17.5,0.5c4.8-0.1,10.5-0.2,16.3-0.3c13.6-0.2,25-0.6,25.2-0.8c0.3-0.3,2.4-0.4,4.8-0.2   c7.4,0.4,10.6,0.4,37.8-0.1c23-0.4,31.6-0.5,48.9-0.2c1.9,0,3.6-0.5,3.8-1.1s1.2-1.2,2.2-1.2s3.3-0.6,5.2-1.4s7.5-2,12.4-2.6   c9.1-1.2,12.1-2.3,16.4-6.1c1.7-1.4,2.1-2.3,1.2-2.6c-0.7-0.2-1-0.9-0.7-1.4c0.3-0.5-0.7-0.9-2.3-0.9c-3.9,0-14.8-3.8-16.4-5.6   c-1.1-1.3-0.2-1.5,7.2-1.3l0,0c4.6,0.1,13.2,0.8,18.9,1.5c17.8,2.1,31,2.7,34.7,1.4c1.9-0.6,4.2-0.8,5.1-0.4c1.3,0.6,1,1-1.8,2   c-5.8,2.1-15.2,8.2-16.4,10.7c-1,2-2.2,2.4-7.6,3c-8.7,0.9-12.2,1.7-14,3.3c-0.8,0.7-4.7,2.5-8.5,4c-13.2,5.2-12.4,6.4,4.5,6.9   c15.4,0.5,47.2,3,53,4.1c15,2.9,29.3,4.4,50,5c6.3,0.2,16.2,0.7,22,1.1c5.8,0.4,12.8,0.8,15.7,0.8c9.2,0.1,8.1,3.5-1.2,3.6   c-4.5,0-5.4,0.5-8.9,4c-3.6,3.6-3.8,4.2-2.8,6.5c1.2,2.6,3.2,3.5,3.2,1.4c0-0.8,0.4-0.8,1.3,0c0.9,0.7,7.4,1,19.6,0.8   c16.1-0.3,18.9-0.1,23.3,1.6c3,1.1,7.4,1.9,10.6,1.8c3.1,0,7.8-0.1,10.6-0.2c10.1-0.2,26.9,1.2,28.2,2.3c1,0.8,1.3,0.8,1.3-0.1   c0-1,0.3-1,1.5,0c1.1,0.9,1.5,0.9,1.5,0.1c0-0.8,0.5-0.9,1.6-0.3c0.9,0.5,3.1,0.6,5,0.2s3.4-0.4,3.4,0.1c0,0.9,2.1,0.7,9.8-0.9   c5.1-1.1,5.9-1.6,4.3-3.5c-0.9-1.1-0.7-1.5,0.9-1.9c2.2-0.6,2.8-4.3,0.8-5c-0.7-0.3,0.6-0.5,2.8-0.5c4.8,0,17.8-1.2,18.3-1.7   c0.2-0.2,1.6,0,3.3,0.5s3.1,0.4,3.5-0.1c0.3-0.5,1.5-0.9,2.5-0.9s3.2-1.4,4.8-3.2c2.3-2.6,3.3-3,5.5-2.5l2.7,0.7l0,0.1   c0.5-0.5,1.2-0.9,2.2-0.9c0.7,0,1.3,0.2,1.8,0.6c2.3-0.1,14.2-0.2,27.1-0.2l21.1-0.1c0.4-1.4,1.2-2,2-1.8c0.7,0.1,1.2,0.8,1.4,1.8   h0.2l-0.2,0.3C2134.6,578.2,2134.6,578.5,2134.6,578.8z M2181.8,277.7c-4,4-4.9,4.4-10.1,4.8c-4.2,0.3-5.7,0.1-5.7-0.9   c0-0.7-0.9-2.1-2-3.1c-3-2.7-2.5-3.5,2.2-3.6c2.3,0,6.1-0.4,8.2-0.8c2.2-0.4,5.7-0.8,7.9-0.8h3.9L2181.8,277.7z"
   id="path8" />
	<path
   class="st2"
   d="M3499.6,418.1L3499.6,418.1c-0.6-0.6-1.1-0.8-1.1-0.5s-1.5,0.2-3.2-0.3c-1.8-0.5-7.2-1.6-12.1-2.5   c-8.3-1.4-17.4-3.8-25.6-6.9c-10.8-4-29-8.6-34-8.6c-3.6,0-9,2.5-10.8,5.1c-0.7,1-1.9,1.9-2.7,1.9c-0.7,0-3.8,1.1-6.7,2.5   c-2.9,1.4-6.6,2.5-8.1,2.5s-9.8-1.4-18.4-3.1c-14.2-2.8-29.2-7.4-42.8-13.2c-3.6-1.5-8.3-2.3-16.5-2.8c-13.4-0.8-14.6-1.3-25-10.4   c-6.4-5.6-9.1-7.2-19-11c-6.3-2.5-13.5-5-16-5.6c-2.5-0.6-5.2-1.3-6-1.5s-9,2.8-18.1,6.6l-16.6,7l-10.7,9.9   c-10.2,9.5-10.9,9.9-15.2,9.9c-3.2,0-7,1.2-13.7,4.4c-13.4,6.4-16.4,6.9-35.1,6.3c-14.2-0.5-16.5-0.3-19.6,1.2   c-1.9,1-6.1,2.3-9.3,3c-5.6,1.1-6,1.5-12.9,9.9c-3.9,4.8-10.5,12.1-14.6,16.4c-6.3,6.5-8.2,7.8-12.1,8.7c-2.6,0.5-4.9,0.8-5.1,0.6   c-0.2-0.2,0.1-0.4,0.7-0.4c0.6,0,1.2-0.6,1.2-1.4c0-1.6-4.9-1.9-6.7-0.5c-0.7,0.6-1.4,0.6-1.8-0.1c-1.4-2.2-4.4-0.9-7.9,3.6   c-2,2.6-3.6,5.4-3.6,6.3c0,0.9-1.6,2.5-3.5,3.6c-3.1,1.7-4,1.7-8.2,0.6l-4.7-1.3l-3.8,4.1c-3.5,3.8-4.1,4-7.4,3.4   c-3.9-0.7-9-3.8-13.1-7.9c-3.2-3.2-7.7-12.8-6.3-13.3c0.1,0,0.1-0.1,0.2-0.1c-0.5-0.9-1-1.8-1.4-2.7c-1.2-0.5-1.7-1.4-1.5-2.8   c0.1-0.5,0-1-0.1-1.5c-0.1-0.3-0.1-0.5-0.2-0.8c-0.2-0.7-0.5-1.3-0.9-1.8c-0.9-1.2-1-1.5-0.1-0.7c0.2,0.2,0.4,0.3,0.5,0.4   c-0.2-1.3-0.4-2.6-0.4-3.9c-0.1,0-0.3,0.1-0.4,0.1c-1,0.4-1.2-0.5-1-3.8c0.4-5.3-1.3-7.1-7.6-7.9c-12.4-1.5-20.9-3-25.2-4.3   c-3.8-1.2-5.1-1.3-7-0.3c-1.3,0.7-6.4,2.1-11.3,3.1c-8.9,1.8-9,1.8-11.5-0.1c-2.2-1.7-13.5-8.9-24.8-15.8   c-3.5-2.2-4.6-2.2-24.5-2.2c-10.1,0-17.8,0.3-20.1,0.8c-0.4,0.6-1,1-1.7,1.3c-2.3,2-5.3,2.4-8.7,3.1c-2.2,0.4-4.3,1-6.6,0.5   c-1.8-0.5-2.8-2-4.2-2.8c-0.5-0.3-0.9-0.6-1.3-1c-2.5-1-5.4-0.8-4.7,0.8c0.4,1.1,0.1,1.3-1.4,0.9c-1.1-0.3-2.8-0.1-3.9,0.6   c-1.6,1-2.5,1-4.8-0.2c-1.5-0.8-3.2-1.9-3.6-2.5c-1.1-1.4-5.1,4.2-5.2,7.4c-0.1,2.6,0.4,3.6,3.7,7c1.7,1.7,1.6,1.8-0.8,3.1   c-1.4,0.7-2.5,2.2-2.5,3.2c0,2.8,4.4,3.3,11.2,1.5c2.5-0.7,4.2-1,5.4-1.1c0.2-0.1,0.4-0.2,0.6-0.3c0.6-0.2,1.2-0.2,1.8-0.1   c0.1,0,0.3,0,0.4,0c1.7,0,3.4-0.2,5.1-0.2c2.1,0,3.8,1.3,4.6,3.1c0.5,0.3,2.2,0.5,4.3,0.5c2.5-0.1,4.5-0.1,4.5,0   c0,0.1-1.9,1.4-4.2,2.7c-7.5,4.4-40.5,38.6-46.5,48.2c-8,12.9-11,19.1-15.7,33c-2,5.9-1.9,5.4-4.5,17c-1.1,5-2.7,11-3.4,13.5   c-0.8,2.5-1.7,6.5-2,9c-0.4,2.5-1.5,9-2.5,14.5c-5.3,28.5-4.8,53.1,1.5,69.9c6.5,17.2,22.1,35.6,43,50.8c7.4,5.4,28.2,15.6,35,17.2   c0.6,0.1,4.1,1.2,8,2.3s10.4,3,14.5,4.1c30.3,8.1,76.5,10.2,98,4.3c10.7-2.9,28.2-10.2,35.5-14.7c2.2-1.4,4.9-2.9,6-3.4   c2.7-1.2,19.9-13.9,23.6-17.4c1-1,2.2-1.8,2.6-1.8c0.4,0,5,4.2,10.3,9.2c16.5,16,36.1,32.1,55,44.8c5.2,3.5,9.7,6.7,10,7   c0.8,0.8,8.9,6,9.4,6c0.2,0,4.4,2.5,9.3,5.5c8,5,46.1,24.5,57.6,29.4c2.6,1.1,6.7,2.9,9,3.9s6.9,3.1,10.1,4.5   c3.2,1.4,6.4,2.6,7,2.6s2.9,0.9,5.1,1.9c6.1,2.9,18.5,7.5,34,12.6c7.7,2.5,14.9,5,16,5.5s4.7,1.7,8,2.5c3.3,0.9,8.5,2.5,11.5,3.6   s6.7,2.2,8.2,2.4s3.5,0.8,4.5,1.3s2,0.9,2.3,0.9s3,0.7,6.1,1.6c3.1,0.9,6.5,1.8,7.5,2s2.6,0.6,3.4,0.9c5.3,1.9,23.7,6.4,34,8.4   c1.4,0.3,4.1,0.9,6,1.4s4.9,1.1,6.5,1.4c1.6,0.3,5.9,1,9.5,1.6s8.8,1.3,11.5,1.6c2.8,0.2,5.6,0.7,6.3,0.9c1.6,0.6,38.2,0.5,42.7,0   c1.6-0.2,6.8-0.8,11.5-1.4c4.7-0.6,10.1-1.4,12-2c1.9-0.5,5.1-1.2,7-1.5c6.2-0.9,19.5-4.7,20.7-5.9   C3500.9,825.5,3501.3,419.8,3499.6,418.1z M3002.9,461.9L3002.9,461.9c-1.8-1.4-1.8-1.4,0-1.5c1,0,3.1,1,4.6,2.2s3.5,2.7,4.5,3.2   c1.5,0.9,1.2,1.4-2.3,4.6c-3.6,3.2-4.1,3.4-4.6,1.7c-0.3-1-0.1-2.5,0.6-3.3c1-1.2,0.9-1.5-0.3-1.5c-1,0-1.4-0.6-1-2   C3004.6,464.1,3004.1,462.8,3002.9,461.9z M3022.4,477.3L3022.4,477.3c-6.9,4.3-12,5.6-15.4,3.9c-1.5-0.8-2.9-2.3-3.1-3.4   c-0.3-1.8,0.3-2,4.1-2.1c2.6-0.1,5.8-1,7.6-2.1c3.1-1.9,5.9-2,5.9-0.1c0,0.5,1.2,0.9,2.8,0.9   C3026.8,474.4,3026.7,474.6,3022.4,477.3z"
   id="path10" />
</g>
</svg>
