<?xml version="1.0" encoding="UTF-8" standalone="no"?>
<svg
   version="1.1"
   id="svg4"
   x="0px"
   y="0px"
   viewBox="0 0 3500 1038"
   style="enable-background:new 0 0 3500 1038;"
   xml:space="preserve"
   sodipodi:docname="layer5.svg"
   inkscape:version="1.2.2 (732a01da63, 2022-12-09)"
   xmlns:inkscape="http://www.inkscape.org/namespaces/inkscape"
   xmlns:sodipodi="http://sodipodi.sourceforge.net/DTD/sodipodi-0.dtd"
   xmlns="http://www.w3.org/2000/svg"
   xmlns:svg="http://www.w3.org/2000/svg"><defs
   id="defs7" />
<style
   type="text/css"
   id="style2">
	.st0{fill:#5C1414;}
</style>
<sodipodi:namedview
   bordercolor="#eeeeee"
   borderopacity="1"
   id="namedview334"
   inkscape:current-layer="svg4"
   inkscape:cx="2303.5757"
   inkscape:cy="499.06545"
   inkscape:deskcolor="#505050"
   inkscape:pagecheckerboard="0"
   inkscape:pageopacity="0"
   inkscape:showpageshadow="0"
   inkscape:window-height="1017"
   inkscape:window-maximized="1"
   inkscape:window-width="1920"
   inkscape:window-x="-8"
   inkscape:window-y="-8"
   inkscape:zoom="0.97782766"
   pagecolor="#505050"
   showgrid="false">
	</sodipodi:namedview>
<path
   id="path1142"
   class="st0"
   d="M3499.6,388.1l-8.1,6.1l-8.1,6.1l-3.4,4v8.4l-7.2,27.6l-3.8,15l-1.9,5.4l-1.9,5.4l-1.4,1.1  l-1.4,1.1l-3.4,6.4l-4.4,2.4l-5,0.7l-8.4,4l-2.2-1.4l-1.3,1.9l-4,1.9l-4,1.9h-1l-4.5,2.4l-4.5,2.4l-2,0.4l-2,0.4l-3.5,0.6l-3.5,0.6  l-2.9,1.4l-2.9,1.4h-4.7V494l-4.2-1.1l-4.2-1.1l-4.8-1.4l0.7,1.1l0.7,1.1l-7,2.4l-1.6,2.4l-7,3.6l-8.6,4.6l-5-1v-1.9l-1.8,1l-2.5-3  h-1.9l-7.8-5.6v-2l-2-1.4l-2-1.4v-2.7l-6.5-6.1l-12-8.4l-8.8-4.6l-51.2,1l-3.5,0.6l-3.5,0.6l-25.2,9.9l-5.1,2.6l-5.1,2.6l-0.2,5  l-0.4,1.5l-2.6,6l-0.7,13l-2,16.8l3.6,2.7l3.5,1.2v3.5l2.1,2.1l-10.6,9l-6.5,4.5l1,1.8l-2.1,1.3l1,1.6l-4.4,4.4l-9,7.9h-1.6  l-5.6,5.8l-4,2.2l-4.8-0.9l-6.4-1.2v-1.5l-7.6-0.2l-20-3.2l-12,2l-43,5l-21.6,2.3l-4.8,5.8l-6.2,20.4l-2.8,3.2l-5.8,1.2l-27.8,12  h-2.2l-8-3.2v-4.9l3-6h-0.9l-6.8,4l-3.2-1.2v1.9l-5,2.3v-2h-2.8l-0.8,2.3l-10.4,1v1.2h-5.6l-7-4.8l-6-7.9l-3.4-3.2l1.2-1.8l-2.2-1.4  l-0.6-11.2l1.4,0.8l0.6-1.8l9.5,4.6h0.1c1,0,1.9,0.3,2.6,0.7c0.8-0.2,1.6-0.1,2.5,0.2c4.5,1.5,9,3.3,13.2,5.5l0.3-0.3l14.1,7.4v-1.4  l2.7,2.2l1-1l2.3,2.8l4.8-1l4.4-4.6l-4.6-1.6l-1-0.3l-2.6-1.1c-1.9-0.1-3.6-0.6-5.3-1.3h-0.1l-0.1-0.1c-0.5-0.2-1.1-0.5-1.6-0.7  c-1.4-0.7-2.8-1.5-4.3-2.1h-2.5v-0.7l0,0c-1.7-0.2-2.9-1-3.7-2.1l-4.8-1.4l-9-4l-3-0.6v-0.3l-4.6-0.8l-8.8-4h-2.2l-2.8-6.4l-2.6-3.2  l-3.4-1.2l2.7-8.6l2.6-6.4l2,0.2l1.2-0.1l1.3-0.1v-2.8l-3-2.5v-4h-2v-2.8l-2.4-1.2l4.5,1.1l-0.6-5.8l-1.1-1.9l-1.4-5.6h-2v-3.9  l3,1.2l3.2-1.2l-2-2.4l-0.7-4l-1-1l-5-7l-1.3-2.9l-1.3-2.9l3,2.6l2.4-1.4l-0.7-4.1l-0.7-4.1l-7-17l-2.2-13l-0.7-0.9l-0.7-0.9  l-7.2,10.6v3.4l-0.9,0.6l-0.9,0.6l-5.8,8.4l-5.3,8l-0.9,1.1l-0.9,1.1l0.5,2.1l0.5,2.1l6.8-4.4v-2.4h3.2l-0.8,1.6l-4.9,10l-2.6,2.6  v2.7l-8.5,9.6l-4.4,4.8c0.3,0.4,0.5,0.9,0.7,1.3l0.3,0.5l5.4-1.2l-5.8,5.6l-1.5,0.2c-1.3,1.1-3,1.7-4.6,1c-4.1-1.7-8.5-3.5-11.7-6.9  c-1.9-2-3-4.3-3.5-6.8h-0.5l-0.2-4l-0.2-1.6l-1-2l0.4-10l0.4-8l-1.6-6.6l-2.4-1.1l-2.4-1.1v-0.5c-0.9-0.1-1.8-0.2-2.6-0.4  c-5.3-0.8-10.8-1.7-15.2-4.9c0,0,0,0-0.1-0.1l-1.1,0.1v-1c-0.4-0.3-0.9-0.7-1.3-1l-1.2,0.2l-7-3.4l-7-3.4h-1l-1.2-1.2  c-1.1-0.4-2.1-0.9-3.2-1.4h-1.1l-1.6-1.3c-1.7-0.8-3.5-1.7-5.3-2.5c-0.2-0.1-0.3-0.2-0.5-0.2h-0.7l-6.6-2.4l-2.2,2.2l-2.9-1.4  l-2.9-1.4l1.2-3h-2.4l0.8-2.4l-1.5-5.3l2-2l-1.8-2.6l-0.5-5v-4l-2.4-5.4l-3.6-1l-2-5.6l-1.8-4l-0.7-2.4l-0.7-2.4l-3.5-3.9l-3.5-3.9  l-0.9,0.6l-0.9,0.6l1,4.4l1,10.4l-1.1,0.4l-1.1,0.4l3.6,7l0.2,10.6l2.8,1.6l-2.6,1.6l-0.8-2.4h-3.8l1.2-17h-3.9l-4.2-4.4l-1.4-5.6  h-1.8l0.3-1.5l-1.6-6l-1.6-1l-7.2-15.4v-3l-4-4v-3h-2V382l-4.6-4.6l-29.8-6.4l-8.5-1.4l-8.5-1.4l-7.9-1.9l-2.1,1.4l-22,0.4l-2.2-1.8  l-4.9,2.4l-5,2.4h-3.2l-6,3l-3.9,0.1l-3.9,0.1l-4-0.6l-6-4.1l-6.3-1.9l-6.3-1.9l-0.6-0.9l-0.6-0.9l-0.9,1.4l-0.9,1.4v-2.5h-4.8  l-5.9-5h-2.2v-2h-3.9l-5.6,2.4l-2.6,2.6h-3.4l-1.9-1.4l-1.9-1.4l1.2-1.9l-3-2.4l1.2-7.8h-1.9l-1.2-2.6l-1.2-2.6l0.9,0.6l0.9,0.6  l1.2-2l-4.8-11.6l-0.7-3.3l-3,4.6l-3,4.6l-0.2,3.6l-5.2,5.4v1.6l1.6-0.6l1.6-0.6l-1.3,1.6l-1.3,1.6l-4.4-4h-2.5l-9.4-4.3l-7-6.4  l-19.2-2.6l-4.4,2.4l-0.6-0.6l-0.6-0.6l2.2-5h-2l-1.2,3l-1.9-0.6l-1.9-0.6v2.3l-0.9-0.6l-0.9-0.6l-2,3.4l-12.8-3.4l-10-1l-4.6-0.6  l-4.6-0.6l-18,10.6l-2.5,7.6l-5.8,5v1.8l-7.6,3.4l-4.3,2.9l-4.3,2.9h-0.9v-5.6l-1.4-1.9l-1.4-1.9l-4.4,12l-20.4,3.5l-13.6,3.4l-5,14  l0.9,2.6l0.9,2.6l-3.1,2.1l-3.1,2.1l-6.8,1.6l-6,2.6l-9.8,2.6l-6.6,5.9l-6.6,5.9l-11,7.6l-3.6,12.4l-2.8-1v1.9l-1.5-0.6l-1.5-0.6  v4.7l-4.2,2.6l0.5,1.4l0.5,1.4l-4.4-0.4v2.8l-10,4l-1.6,1.4l-1.6,1.4h-2l-6,2.9l-6,2.9l-3.4,5l-9.6,5.4l-4,3.6l-9.6,4.2l-5.5,1.4  l-5.5,1.4l-7.2,3.7l-7.3,3.7l-13,5.4l-13,5.4l-10.8,4.6l-2.4,4.6l-1.4,4.6l6.4,6.4l-2.6,4.2l-3.2,5.4l2.2,3.5l-0.7,10.7l-2.3,8.3  L2207,563l-5,4.6l1.1,2.8l-2.2,0.6l-2.3,0.6l3.8,4.2l-3.4-1.3v5.3l-6,2.1v3l-11.8,12.4l-5.2,25.8l-2.6,23l-10.2,10.4l-2.7,7.9  l1.8,7.4l-4.6,6.3l-4.6-1.2v2.3l-3-2.6l-4.2-6l2.6,1.6l-1.4-4.8l-4.8-10.8v-0.8l3.8,2h4.1v-1.9l-3.5-2h3.6v-1.3l-5.4-10.8l2.7-1.6  l-4.8-14.6l-0.4-12.6l-1.2-1.2l-4,4.8v2.2l-3,2.5v3l-4.5,5.6l-4.4,5.6l1.9,1.9l4.4-3.8l-4.8,8.8l-10,10.2l-5.6,3.8l2.1,2.1l5.6-3.6  l-2.6,3.2l1.2,1.8l-4,3.6v2.9l4.5-2.9l4-1.3l-6,5.1l-8.2,5.4l-3.8,2.2l1.4,1.5l6.2-2.2v1.2l-3.4,3.6h4.4l7.4-4l5-3.4l-3.2,4.9  l-7.3,3.8h-7l-1.2,2l6,2.3l-5,2.6h-2.8v2.2l7-1.3v1.6l-1.8,2.8l-2-1.2l-9.1-1.1l-1.3,2.1h3.1v2l5.2,1.2l-6.2,3v2.6l4.2,1.4l3.5-3.2  h4.3v2l-8,4h-4l-4.6-2.2l-3.8-5l4.4,2.4l1.8-1.8l-1.3-3.3h-1.7l1.2-5.9l-6.2-18.8v-5.4l-3.6,0.6l-0.6,6.2l-9.6,10l-11.4,1.4l-11-2.2  l1.2-2l-2.8-1.8l15.2,1.2l1.5-2.4l-3.2-3.2l-3.6-0.4l-3.4-0.8l-1.4-1.4l2.4-2.9l4.8,1.8l1.2-2h3.6l2.5-3l-0.8-0.8l-5-1l-13.4-4.4  l-1.2-4.6l-8-8.3v-1.2l6.5,6l5.8,3.6l5.8,1.6l1.3-2.2l-7.6-6.6h2l8.2,2.8l8.2-0.8l2.2-1.4l-2.8-1.8h-3.6l-14.4-6.2l-4.1-4.2  l-4.1-4.2l-1.4-4.4h2.2l2.2,1.2l2.2,1.2l4.2,3.2l9.5,0.5l-1.2-3.2V627h-3.9l-1.2-1.8l4.3-1.3l4.2-1.3l-1-1.8l-7.4,0.6l-8.6-9  l-1.1-3.8l-1.1-3.8l1.2,1.5l1.2,1.5l5.4,3.5h3l1.4-2.2l-2.8-1.8h6.2l5.4-2.8l-2-1.2l-8.4-1l-5.4-3.8l-2.2-7.2h1.8v1.8l7.2,4.4  l1.8-1.8l-8.2-11.4h1.1l-1.9-5.1l-0.8-4.8l1.7-7.4l-2-5.8h-0.9l-2.4,2.8l-2.4,2.8v2.4l-6.5,4.8l-3.8,1.4l2.4,2.4l6.6-2.4h2.8  l-5.2,4.8l-6.8,3.6l-9.5,0.8v-2.1l-4-2.2l0.8,4.6l0.2,1.6l7.5,3.4l-9.5,0.6v1.8l2.1,1.1l2.1,1.2l14.2-1.4l3.4-1l-2.4,6.6l-2,1.4  h-6.6l0.8,2.5l4.8,0.6l1.8,1.6l-7.2,1.4l-6.7-1.4l-1.3-2l-3.6,1.4l4.6,5l4.2,0.2l-3.8,1.6l-8.2-1.4l-1,1l5.4,4.6l-4.4,1.2l2.2,2.2  h9.8l8.8-3.2l0.8,0.8l-3.2,6.8l-7.4,3.8l-1,0.2l-7,2.4l-7.6-0.7l-2.8-2.3l-1.2,1.8l3.5,3.2l5,2.2l-6.4-1.2l-1.4,2.4l2.9,2.9l4.4,0.4  v1.6h7.9l5.1-1.9v1.4l-1.6,2.6l-7.4,4l-5,0.4v1.2l2.4,2.4h6.7l8-3.8v1.5l-4.5,6.5l-9,5l-11.5,0.2v2.9l1.3-1.3l2.6,2.2l6.6,0.2  l-6,2.6h-2.6l0.8,2.4l6.6,0.6l6.4-2.2l-3.2,3.2l-9,1.6l-7.7-3.8l-1.2,1.4l-1.4,5.6l3.6-0.6l4.8,3.4l1.6-1l4.2,2.2l2.4-1.8l4-1.4  l-7.5,6.2v1.9h3v-1.7l7.4-1.2l0.8,0.8l-6.6,3.4l-11.4-1l-2.6,1.6l-5.7-1.6v2.9h2.8l3.2,6.6l10.6-1.4l2.8,2.6l9.2-4.8l3.6-3.2  l0.8,0.8l-1.6,4.1l-17.8,7.4h-8.4v2h-3v2.9l2.2,1.4l-3.2,3.6l-0.6,3.6l-0.2,2.4h-5v1.9l2.9,1.5l3,1.5h2.1v-3h5.1l-1.2,2h4.7l2.4-2.4  v2.1l-5,2.4l-3.4,0.1l-10.8,3.6l-0.8,2.2l5.2,1.2l3-2.5l-1.2,3.2h-1.8v3.1l-10,9.8l-3-1.2l-1.8,5l-2.6,1l-3.5-1.8v-4.8l2.2-5  l-4.4-7.2h2.4l-2.5-3h6.2v-2.1l-3.6-1.2l-3.5-4.2v-1.5h9.6l3-2l-4.5-3.8v-3l-2.4-1l9.4-0.2l1.2-1.9l-4-2l-4.6-0.2l3.6-1V698l-8-1.2  l2.2-2.6l-1.2-2l-5.4-1.2l-5-3.8h2.5v-3h-1.7l1-4.8l-4.3-2.3l2.4-3l-2.8-1.8l4.4-1.2V669l-9.6-6.8l-3-3.8l-2.4-4.2l1.6-1l9.4,3.4  l3.3-3.3l-4.2-1.4v-1.4l-6-3.5v-3l6.4,2.6l5.6-0.6v-1.7l-4.3-1.4l-8.7-5.3V635h5.2l-1.2-3h1.9v-3.4l-5.6-4.6l6,3h3.5v-1.7l-9-8.8v-3  l-2.4-2.4h3.4v-2h3.9l1-1.6l-4.7-2.5l0.8-3.4l-6.2-6.9l-2-3.6h1.2l5.8,4.2l2-1.2l-8.6-9l-2.6-13.1h-2.2l-2,1.4l-5.5,11l-5.2,6.4  l3.6,1.4l0.8-2.4h1.9l-4.1,8.1l-5.8,3.6l-4.2,5.4h2l5-1.8l-0.4,2.8l-4.4,4.6v1.4h3.6l1.9-1.5l-4.6,4v2.6l4-1.3v1.1l-11,6.2v0.9  l4.4,1.6l-6.6,3.4l1.2,2h2.9v2.2l-4,1v2l6-0.8l-4.4,4.7h-1.7v2l5.6-1.4l6-2.8l-12,11.1h-1.3l-1.2,3.2l4.6-1.2l2.4,3.8l3.5-1.2  l-7.6,5.4l-6.8,1.2v1.7l2.4,0.2l2.4-0.4v1.2l-5.8,2l1,2.8h3.3l8.8-4l1,1l-7.2,3l-1.2,3l-4.4,1.2l-3.1,6.6l2,4.6l3.2-1.3l3.5-1v3  l-6.2,1.2h-4.8l-1.2,3.2l2.3,2.3l-5.6,4.4l1.6,1.6l8.4-2.2l0.7,0.7l-11.2,7.4l-6.6,1.4l-0.6,4.6l8.4-0.8l-6.6,5.6l7.6,0.1l-2.2,4.2  l4.2-2.2v1l-9,9v3.6l2.9,3.9v3.5l-11.5,5.7l-0.6,1.6h-4.8v3.9l3.8,2l11.1-0.7l-2.1,1.4l-2,1.4l1.1,2.9l-3,1.2l1,1.6l-4.2,2.2  l2.4,2.8l-2.5,3h-2.3l-8.8,9l-6.6,2.2l-5.6-2.8l-16.8,2.8l-6,2.4l-5.9,2.4h-2.5l-10.4,7h-4.4l-5.9-6.2l-12.2-6.9l-5.2-4.8l-12.8-1.4  l-1.9-1.3l-2.5-6.2l-10-7.6l1.4-3.2l3-10l1.6-10.4l3.2-9.6l-9.5-14.6l-39.6,1.2l-15.4,4l-11.4,1.8l-3.1-3.5l3.2-3.2h2.4l-4.8-4h-2.5  l-3.4-3.8l10.4,1l-1-2.8l-3.8-0.6l-5-3.9h3.5v-3.8l-4.5-3.3l4.6,2.2l2-1.2l-8.1-9.1l-3-10.2l1.2-8.4l-1.2-3.2l-2.6,2.2l-2.6,8.6  l-6.2,17.8l-6.4,6.6l2.1,1.3l4.8-4.6v2l-5.9,7.9l-0.1,2.4l1.8,1.1l6.4-6.5l-1.4,5l-6.6,7l-2.2,4.2l1,1l3.8-3.8h2.1l-3.2,4.4v1.7  l2.3-1.4l-1.3,3.5v0.8h-3.8l-6,7.6l-11.6,3.6l-2.4-3.2h-2.2l-1.4-2.4l0.4-7.6l-5.1-2.3l1.2-4l-2.6-1.6l2.6-3l-5.6-3.2l6.5,1.2v-1.3  l-12.8-12.6l1.2-4.2l1.8,1v-2.9l-7-7V673h3v-1.6l-3.4-5l3,2.4l1.3-1.3v-4.2l-1.6,2.6l-4.2-8.6l-1.4-10l-1.8-3.4l-3,1.2v2.4l-9,11.8  l-3,3.6v1h3.3l2.7-3.5l-2.8,8.2l-3.4,6.8l-3,3.4l1.4,2.2l6-5.7l-2.2,4.2l-7,5.8l-5.2,3.6l1.1,1.8l5-2h0.9v3.8l-11,9.4v1.8h3.1  l-3.2,3.2v3.5l-2.5,2.7l2.4,1v2.8h-2v3.1l-2-1.2v3.6l3,5.8l-0.6,1.1l-0.6,1l2.4-1.4v2.2l3.6-2l2.1,0.2l2,0.2l-0.9,2.4l-3.4,1.2  l-3.4,2.4l-21.2-13.8l-1.5-4l-0.3-3l-0.2-5.2l-4-4.2v-1.9l-4.4-1.4l-3.5-3.7v-2.7l-8-6.4V686h-2.2l1.2-3.2l-2,1.2l1-6.6l0.8-3.8  l-1.8-4.6l-17.2-8.2l1.4-2.2l-2.1,1.3l-11.8-5.2l-3.4-3.4l2-2l-4.6-3.2h3.4v-2h-2.2l2.3-2.8l-5.4-4.4l-0.6-4h2V630l-2.8-1.6  l-5.2-8.4v-1l4,2.4l1.3-1.3l-5.8-7.6l-3.6-5.6l0.8-0.8l5.6,5.8l2.8-1v-3.3l-9-12v-2.8l3.6,3.4h3.3v-2.7l-6-7.6l-2.2-7.8l1.2-4  l-3.8-1l0.8-5.8h-1.1l-4,4.4v2.6l-6.3,9.6l-7.6,11.4l2.2,1.4l9-9.6l-2,5.4l-4,8l-5,7.4v3.6l2.4,0.8l3.5-1.8v1l-8.8,10.8l1.8,3.4  l1.8-1.2v1.7l-7.2,6.8l-2.8,5.2l1.2,1.2h3.8l-1.3,2.1l-3-1.2l-3.7,3.3l-7-4.8l0.8-2l2.6,0.6l4.9-1.2l-4-4.4l-1.4-7.4l-2.6-1  l-4.2-5.8l4.3,0.1l0.8-3.6h-3.1l-4.3-4.5l-3.8-7.4v-6l-2.8-1.6l-0.7-6h-3l-1.2,10l-5.5,13l-1.6,2l-1.4,6.5h2.3l-6.4,8.2l2.8,1.8h1.6  l5.4-3.6l-6.4,9.4l-2,1.2v5.9l2.5,0.1l-7.6,7v1h4.1l-2.1,4h-2.4l-9.7-8.7l4.2-1.1v-2.1l-2.5-2.2l-6.5-3.9V635l5.3,0.6l0.8-2.3  l-5.8-6.6l-1.4-3.8l3.6,1.4h1l2.4-0.2v-2.9l-6-4.2l-2-14h-2.9l-1.2,5.6l-7.4,14.6l3.2,2.4l-4.8,6v2.6l3.2,1.2l-5,4.6l-3,13.3  l-1.3,1.3l-3.4-2l-4-6.8l-3.1-5.9l-3.1-6l-15-4.6l-4-3.2l3.6-2.8l-1.4-2.2l-5.4-3.1l-5.4-3l2.2-4.4l2.1-1.4l-8.2-7.6l-4.5-12.5h-2.4  l-3.4,14.4l-3.4,9l-4.6,8.6v2.6l2.9,2.4l4-2.2l2.2,8.2l-1.2,3l-7.6-1.2l-12.8,15.6l-1.6,0.6v2.8h1.9l7.6-6.4l3.5-2.9v6.1l-3.6,4.6  l-48.2-3.4l-19.3,3.3c-0.7,0.5-1.7,0.8-2.8,0.8c-1.5,0-2.6-0.5-3.4-1.3l-0.6,1.6l-5.4-1.4l-1.2-0.9c-0.4,0.1-0.9,0.1-1.4,0  c-2-0.2-4-0.6-5.9-1h-2l-0.4-0.6c-1-0.3-1.9-0.5-2.8-0.9l-0.3,0.1l-2.4,0.4l0.1-1.4c-0.4-0.2-0.8-0.3-1.2-0.5l0.2,0.4l-0.4-0.4  c-2.5-1-4.9-2.1-7.3-3.4l-1.6,0.4v-1.3c-2.8-1.6-5.6-3.3-8.3-5.2l-0.8,1.5l-4.8-4.6v-0.8c-0.9-0.7-1.8-1.3-2.7-2l-1.3,1.5l-0.2-0.7  l-0.2-2.1c-4-2.9-8.1-5.8-12.3-8.4h-0.2v-0.1c-5.8-3.5-11.9-6.3-18.6-7.6c-0.3-0.1-0.7-0.1-1-0.2c-8.2-1.5-16.8-1.7-25.3-1.6v1.9  l-1.6-1.9c-2.1,0-4.2,0.1-6.2,0.2l-1.2,1.2h-2.7l0.3-1.1c-4.5,0.2-9,0.4-13.4,0.5c-1.4,0-2.9,0-4.3,0.1l-0.2,0.5h-1.6v-0.5  c-4.9,0-9.8-0.1-14.7-0.3l-1.3,2.2V615c-3.3-0.1-6.7-0.3-10-0.6l-0.2,1.3l-3.8,3.4v-1.9l2.2-2.2l-0.5-0.8c-4.6-0.4-9.1-0.9-13.7-1.5  l-0.2,0.7h-2.5l0.2-1c-1.4-0.2-2.9-0.4-4.3-0.6h-1.2v-0.2c-5.7-0.9-11.3-1.9-17-2.9c-0.3,0.1-0.6,0.1-1,0.1l0.8,2.9l-2.5,0.9  l-2.4-1.5l0.4-0.3h-0.8l-0.6,1.1l-1,1.9h-1.9l1.6-3.5c-0.7-0.4-1.3-0.9-1.7-1.5v0.1h-6.1l1.2-1.8l-4-1.2v-0.6  c-3.6-0.8-7.2-1.5-10.8-2.3l-0.5,1h-2.7l-0.8-1.8c-7.4-1.6-14.8-3.1-22.2-4.5l0.4,0.4l-1.4,1.4v-1.9c-7-1.3-14-2.6-21-3.6  c-33.7-5-67.3-1.9-101,2c-14,1.6-26.9,4.9-40.4,8.4c-6.8,1.7-14.6,3.3-21.8,2.5l0.1,0.5l-0.6-0.6c-4.2-0.5-8.2-1.8-11.8-4.4  c-1.5-1.1-2.4-2.6-2.4-4.3h-1l-5.4-6.1l-11.2-3.2l-49-0.6l-18-1l-6-1l-23-1.4l-11-0.4l-8-1.2l-20-1.2l-7-1l-27-1l-9.6-2.2l-1.2,1.2  l-4-2.2l-8.2,0.2l-3.3-1l-3.5-0.9l-8-1.2l-12-2.2l-9.4-3.2l-1.6,1.6l2.4,3.9v8h2.1l2.8,6.6l-1.2,4.8l-4,4.4l-6.2,1l-11,0.7l-8.7-0.9  L508,598l-11.6,3l-26,0.8l-18,7.2l-14.6,8.4l-3.4,10l-9.8,16.5l-4.1,4.1l-4.1,4.1l-8.4,5.8l-0.6-0.9l-0.6-0.9l3.1-4.8l3.1-4.8  l1.9-2.8l1.9-2.8l-0.6-0.9l-0.6-0.9l5.1-1.3l-0.4-0.7l-0.4-0.7l1.9-3.2l1.9-3.2v-0.9l-2.5,0.9l-7-14.2l-3.6-4.2l-1.4-2l-2.1-1.8  L405,606l-4.9,1.1l-4.9,1.1l-14,5.3l-2.6,2.8l-2.6,2.8l-8.2-8v-1h3.8l0.6-2.1l0.6-2.1l-1.6-2.6l-1.6-2.6l-2.1-2.5l-2.1-2.5l2.6,2.2  l2.6,2.2h5.4v-2.8l-2.6-1.7l-2.6-1.7l-1.9-1.9l-1.9-2v-2h2.3l-0.6-3.4l-0.6-3.4l3-1.2l-4.6-5.1l-4.6-5.1v-2l3.6,1.4l3.5,1v-2.9  l-9.3-9.8l2.6-0.3l2.6-0.3v-2.7l-6-6.6v-1.4l-2.3-5.6l-0.4-4l-0.4-4l-0.4-1.2l-0.4-1.2h-1.9l-1.4,4.4l-6.4,13.1l-6.4,13.1v2.4h2.1  l2.1-3.5l2.1-3.5l0.4,0.4l0.4,0.4l-3.1,8.4l-3.1,8.4l-2.9,4l-2.9,4v4.3l1.4,1.4l4.6-3v2.1l-1.9,3.8l-1.9,3.8l1,4l-3.3,7.8l-1.9,5.7  l-1.9,5.7v1.2l1.6-0.3l1.6-0.3l5-9l-0.6,3.3L337,615l-4,5.5l-0.6,4l-5.4,8v3.5h-2v-2l-5.6-5.6L305,616.2l-2.1-1.1l-2.1-1.1l-6.6,1.2  l-0.6,1.5l-13,6.2l-7,3.1l-8,2.6L265,629l-0.5,0.5l-6,3.1l-0.4,6l1.1,6l1.1,6l3,2.6l8-1.2l1.9-1l1.9-1l1.6,2l1.6,2l5,0.7l2.4,2.4  v5.1l2.4,0.2l-7,1.8l-14,0.9l-19,1.1h-4l-2.5,2.1l-4.3,0.7l-4.3,0.7l-21-0.1l-5.3-1.6l-5.3-1.7L199,664l-2.9-2.1l-3.8-1.5l-3.8-1.5  l-2.3-1c-3.7-0.9-7.2-2.6-10.3-4.9H175v-0.6c-0.7-0.5-1.4-1.1-2-1.7l-3-0.7v-0.5c-0.6-0.2-1.1-0.4-1.7-0.6l-0.1,0.1l-0.1-0.1  c-4.8-1.8-9.6-3.6-14.3-5.6c-1.2-0.5-2-1.3-2.6-2.3h-0.1l-1-0.7c-1.5-0.3-3-0.7-4.4-1.2c-0.3-0.1-0.5-0.2-0.7-0.3l-0.6-0.1l-4-0.8  l-4-0.9l-3.7-1.5c-1.2-0.2-2.5-0.5-3.6-0.8v0.9l-1.9-1.7l0,0c-0.8-0.4-1.6-1-2.2-1.6l-1.5,0.3l-5-2.1l-4.5-3.9V622h-2v-2.3l-10-9.8  l-6-1.2l1-11.2l3.2-44l0.8-1.2l0.7-6.9l0.7-6.9l0.4-0.7l0.4-0.7l2.2-30.7v-12l-1.2-4.3l-1.2-4.3l-0.9,0.6l-0.9,0.6l-0.7,4.7  l-0.7,4.7l-1.4,1l-1.4,1l-0.3,1.5l-0.3,1.5l-1.6,9.6l-0.8,0.5l-0.8,0.5l-0.7-2.2l-0.7-2.2l-0.8,8l-0.8,8L89.5,537l-0.6,13.5l-0.8,7  l-0.6,8l-0.6,8L86,577l-0.9,3.5l-1.2,10.7l-1.2,10.7l-3.1-2.2l-3.1-2.2l-5.3-5.5l-5.3-5.5l-3-6l-1.2-2l-1.2-2l-1.8-2.7l-1.8-2.7  l-4.2-1.1l-4.2-1.1l-2-1.6l-6.8-2.3l-6.8-2.3v-1.4l-2.6-1.2l-2.6-1.2l-9.6-0.6l-9.7-0.6l-2,0.1l-3.2,0.6l-2.8,0.5L0.7,579L1,600  l-0.3,20.8l-0.3,20.8v-82.4H0V1038h0.5V653.5L1,846l-0.3,96.2L0.5,1038l1749.8-0.3l1750.3-0.2l0.4-399L3499.6,388.1z M2928,495h-1  v-1h1V495z M2144,649L2144,649h0.8l2.8,3.6l-3.6-2.8V649z M2046,600h1v1h-1V600z M2019,633h-1v-1h1V633z M2027,680h-1v-1h1V680z   M2027,665h-1v-1h1V665z M1933,639h-1v-1h1V639z M1915.9,680h-2.4l3-2h0.6L1915.9,680z M1683,695h-1v-1h1V695z M1598.7,714.7  L1598.7,714.7l-0.7,0.7l-1.4-1.4h2.7L1598.7,714.7z M0.7,650.2l-0.4,3.3v-12l0.4,2.7l0.4,2.7L0.7,650.2z M346.7,554.7l-0.7,0.7v-2.7  l1.4,1.4L346.7,554.7z M348,552h-1v-1h1V552z M359,555h1v1h-1V555z M391.5,646H385v-1.8l7.6-1.6l2,0.3l11-3.8l9.5-0.1v1.6l-9,0.6  L391.5,646z M801,612h-1v-1h1V612z M812,611h-1v-1h1V611z M999,601h-1v-1h1V601z M1006,608h-1v-1h1V608z M1108,620h-1v-1h1V620z   M1115.7,617.7l-0.7,0.7v-2.7l1.4,1.4L1115.7,617.7z M1341.1,656l-1.2-2h1l1.2,2H1341.1z M1338.9,624.5v-0.4l1-2.8l4.4,0.4v2.6h0.2  L1338.9,624.5z M1511.6,642.4L1511.6,642.4l-1.6-0.6V641h1.9l1.2,2L1511.6,642.4z M1629,672.1l-2-1.2v-2l2,1.2V672.1z M1698,716h-1  v-1h1V716z M1923.9,682h-2.4l3-2h0.6L1923.9,682z M1929,679h-1v-1h1V679z M1962,676h-1v-1h1V676z M2028.4,708.7L2028.4,708.7  l-1.8,1.3h-2.6v-1.9l5.6-3l0.8,2.2L2028.4,708.7z M2058,689h1v1h-1V689z M2045,693h-1v-1h1V693z M2053.1,706.2l-1.3-0.5l-1.3-0.5  l3.8-0.2L2053.1,706.2z M2057,707h-1v-1h1V707z M2068.1,713.7h-0.1l-1.2,1.2l-2.8-1l1.2-1.8h2.9L2068.1,713.7L2068.1,713.7z   M2067.4,698.5L2067.4,698.5l-2.6,1.7l-13.8-3.4l-1.2-2l-4.2-2l4.5,0.9l1.2-2l4.2,1.4l7,1.8h6.4l1.2,1.8L2067.4,698.5z   M2068.7,691.4l-3.2-0.1l-5-0.6l12-1.4l0.4-0.4l-1,2.5H2068.7z M2076.9,690.3L2076.9,690.3l-0.4,0.3l-4,2.9l2.8-3.6h2.1  L2076.9,690.3z M2089,689.9L2089,689.9v-3.3l3.4,3.4l-1.2,1.2l-1.1-0.7L2089,689.9z M2146.4,691.1l-5-6.6l-1.5-2.5h0.9l8,4.6  L2146.4,691.1z M2151.4,681.3l-0.6,0.6l-2.2-1.8l-6-5.2l3,1.6l6.4,4.3L2151.4,681.3L2151.4,681.3z M2154,678h1v1h-1V678z   M2154.6,681.3l1.4-2.4h0.9v1h0.1L2154.6,681.3z M2795,449h0.8l0.6,1.6l0.6,1.6l-1-0.6l-1-0.6L2795,449L2795,449z M2797,458h-1v-1h1  V458z M2795.6,455.4L2795.6,455.4l-0.8-2.4h2l0.6,1.6l0.6,1.6L2795.6,455.4z M2945,503h-1v-1h1V503z M2947,520.7v-0.8l2,1.2v3.4  l-1.9-3L2947,520.7z" />
</svg>
