<?xml version="1.0" encoding="UTF-8" standalone="no"?>
<svg
   version="1.1"
   id="Layer_1"
   x="0px"
   y="0px"
   viewBox="0 0 3500 1038"
   style="enable-background:new 0 0 3500 1038;"
   xml:space="preserve"
   sodipodi:docname="layer3.svg"
   inkscape:version="1.2.2 (732a01da63, 2022-12-09)"
   xmlns:inkscape="http://www.inkscape.org/namespaces/inkscape"
   xmlns:sodipodi="http://sodipodi.sourceforge.net/DTD/sodipodi-0.dtd"
   xmlns="http://www.w3.org/2000/svg"
   xmlns:svg="http://www.w3.org/2000/svg"><defs
   id="defs325" />
<style
   type="text/css"
   id="style2">
	.st0{fill:#CB5C1B;}
	.st1{fill:#9C3C1C;}
	.st2{fill:#9C341C;}
</style>
<sodipodi:namedview
   bordercolor="#eeeeee"
   borderopacity="1"
   id="namedview212"
   inkscape:current-layer="Layer_1"
   inkscape:cx="1548.2438"
   inkscape:cy="519.21488"
   inkscape:deskcolor="#505050"
   inkscape:pagecheckerboard="0"
   inkscape:pageopacity="0"
   inkscape:showpageshadow="0"
   inkscape:window-height="1017"
   inkscape:window-maximized="1"
   inkscape:window-width="1920"
   inkscape:window-x="-8"
   inkscape:window-y="-8"
   inkscape:zoom="0.69142857"
   pagecolor="#505050"
   showgrid="false">
	</sodipodi:namedview>
<g
   id="g281"
   inkscape:label="Far back">
	<path
   id="path193"
   class="st0"
   d="M948.1,408.1c0.4,0.7,0.5,1.6,0.5,2.4l0.2-0.5l-0.3-2.1l-0.3-2.1h-0.1   C948.3,406.5,948.3,407.3,948.1,408.1L948.1,408.1z M954.5,411.5c0-0.9,0.1-1.7,0.5-2.5c0.1-0.1,0.1-0.3,0.2-0.4l-1.4,1l1.1,5   c0-0.2,0.1-0.4,0.1-0.5C954.6,413.3,954.5,412.4,954.5,411.5L954.5,411.5z M2089.5,613h-3.6l0.8,2.4l3.2,0.6l6.6-6l-1-0.8   L2089.5,613z M2094.5,616.1l-2.3,1.1l-2.3,1.1l0.6,3.2h3l-0.6-2.8l2.4-2.8L2094.5,616.1z M2068.4,626.2l1.9,1.5l1.7,1.7l1.4-1.4   l-3-1.8H2068.4z M2070.8,623h0.2v1h1.8l1.2-2h-3.2V623z" />
	<path
   id="path195"
   class="st0"
   d="M2144.7,528.3l1.6-3.6h-19l-0.8-6l2.2-0.4l9.4-0.1h9.4l0.6-2l-19.2-0.4l-4.8-1.2v1.7h0.9v1.4   l-7.6,5l-10.2,6.4h-1.6l-6.4,2.8l-27.8,11.2l-6.2,0.4l-3,2.8l2.4,0.8v16.6l-8.4,6.6l-3.6,4l-10.2,12l-5.8,8.6v1l5.6,9l6.4-6.2v-1.5   l-4,1V596l5.6-5.2l-1.4-0.9l-1.4-0.8l1.1-0.7l1.1-0.7l3.2-6l-4.2,2.2l4.6-8.2l1,0.8l3.4-2.8v2.8l4,4.2v1h-3.2l4.2,7.2l-1,1.6l4,3.6   v1.8l-2.4-1.4l1.4,2.4h2.6l0.5,2.1l0.6,2.1l-4.8-1l1.2,2.2l1.7,2l1.4,1.7h0.3v0.3l1,4l-3.8,0.2v-2l-2,1.2l4.4,6.8h2.8l6.6-4   l1.2-3.2l-3,2.6l-1.2-1.2l5.2-6.2v-2l-2,1.2v-1.2l5-7.4l0.2,6.4l0.4,2l0.2,2l5.2,5.2l2-1.2l2.8-6.6v-1.4l-2.4,2.4h-1.8l1.4-4.4l2-5   l0.4-3l2.4-4.6l-4.4,2.4l5.2-7.6v-2.6l4.2-8.2l0.6,0.6l1,8.4l3.6,5.6l-0.4,0.6l5.4,5l-3.8,0.2l-1.6-0.2v2l8.2,5.2l-2.6,1.6l-3.2-1   l3,3.2l5.4,0.4v2.4l-2,1.2l1.2,1.8h4l1.6-4.2l-0.4-10.2l-0.5-1.5h-0.6v-1h0.3l-0.6-2.1l-2.4,1.4l-4.4,0.6l-1.2-2h6.2v-2h-2.4   l6.4-5.2v-7.2l-4.6,4.4h-2.8l3.2-2.4l4.6-9l-4.2,3.8v-1.4l2.8-4.4l0.8-7h1.8l1.2,8.8l6.8,5.6l-2.8,1.8l2.6,0.8l-2.2,1.4l-5.2-4.2   v6.2l2.8,1l1,4l4.2,1v1.2l-2,3l-3.6-2.2l-0.2,6.8l6,3l-0.6,2l-1.4-0.2l-2.8,2.6l0.8,1.4l4-1l3.2-6.2l6-12l4-4.4l0.4-5.8l5.6-9.8   l1-10.6l-7.4-7.2L2144.7,528.3L2144.7,528.3z M2064,591h-1v-1h1V591z M2070.1,557.7l-3.2,2.6l0.4-10.4l4.6,4.4L2070.1,557.7z    M2124.9,525.9h-3.2l-23,11h-2.4l-8.8,5.6l-10.4,4.8v1.8l-3.2,3.2l-6.2-6.2l5.8-1.2l26-10.2l16-7.4l4.5-3.6l4.5-3.6l0.4-0.2   L2124.9,525.9L2124.9,525.9z M2147.2,555.9l-1,2.6l-0.1-1.9l-0.1-1.9L2147.2,555.9L2147.2,555.9z M2146,559h1v1h-1V559z    M2071.8,618.7l-1.8,0.5v2.2l1.2-1.2l4,2.2l1.8-2.8V618l-3.6,0.2L2071.8,618.7z M1988.9,610.8l5-4.6h-2.4l-0.9,0.7l-0.5,0.9   l-20,8.4l-1.2,2l2.8,1.8h-3.6v2l-5-1.2v4.2l6.4,3.4l8.4,0.2l-4.6,2.4l-1.2,3h-4.6l3,1.8l2.6-2.2l0.2,1.8l-0.2,1.6h2.6l7.8,5.8   l7.6-5l-1-1l-7,0.2v-2h1.6l5-4l-4.2,2l-3.6-2.6l6.4-3.8v-1.8l-3,1.2v-2l3.6-4l-0.2-1.4l4.2-3.4l-10,0.8l-10.4,2.8l0.8-1.4   L1988.9,610.8z M2028.3,605l-1.4,0.2l-3.9,1.2l-4.5,1.2l-0.3,1.8l-0.4,1.8l1.2-0.8l1.3-0.8l-1.4,2.2l3,7.2l-1.2,3l-1.8-1l1,2.8   l4.4,2l2.2-5.2l3-9l-2.2-2.6L2028.3,605z M1986.2,642.2l-2.2,1.1v3.4l4,1l1.2-1.8l-3.6-0.2l4.4-3.2V641l-1.6,0.2L1986.2,642.2z    M2025.2,599.7l-6.2,1.5v2l-2-1.2v2l6.4-1.2l8.8-2.2l0.8-2.4l-1.6,0.2L2025.2,599.7z" />
	<path
   id="path197"
   class="st0"
   d="M2046.5,604.1l-1.5,0.9l-1.5,0.9l2.4,2.4l1.4-3.4L2046.5,604.1z M2046,613.4v2l2.4-2.4l-1-1   L2046,613.4z M2040.2,646l-2.2,0.9v1h1.6l3.8-3h-1L2040.2,646z" />
</g>
<g
   id="g289"
   inkscape:label="Layer 3 view">
	<polygon
   id="polygon169"
   class="st1"
   points="534.7,470 533.7,470 537.3,474 538.3,474  " />
	<polygon
   id="polygon171"
   class="st1"
   points="573.1,497.6 573.2,499.5 574.2,496.9 573,495.7  " />
	<polygon
   id="polygon173"
   class="st1"
   points="578,498 578,498.8 582,499.8 582.4,499.1 582.9,498.4 580.4,498.2  " />
	<path
   id="path175"
   class="st1"
   d="M499.5,468.1l-0.3,0.2c-0.7,0.9-1.8,1.6-3.2,1.8l-1.5,0.8h2l2.5-1.4l2.5-1.4H499.5z" />
	<path
   id="path177"
   class="st1"
   d="M523.3,469.7l-0.1-0.1l-1.7-0.6l2.5,2.5l0.5-0.6l0.1-0.1C524.1,470.5,523.6,470.1,523.3,469.7z" />
	<path
   id="path179"
   class="st1"
   d="M539,477.1L539,477.1l-1.1-1.6l1.4,6l0.3,0.4l0.4,0.4v-0.7C539.1,480.3,539,478.6,539,477.1z" />
	<polygon
   id="polygon181"
   class="st1"
   points="584.5,486.2 587.1,487.2 588.3,486 586.4,486.1  " />
	<path
   id="path183"
   class="st1"
   d="M637.3,464.6l-1.8-0.7l0,0l2.5,2.5l0.5-0.6l0.6-0.6L637.3,464.6z" />
	<polygon
   id="polygon185"
   class="st1"
   points="602,461.5 600.7,463 601.1,463.5 601.6,463.9 602.8,462 604,460 603.2,460  " />
	<polygon
   id="polygon187"
   class="st1"
   points="600.2,469 599.3,470.2 598.3,471.5 596.9,473.9 601,476.1 601,474 597.8,474 601,469     " />
	<polygon
   id="polygon189"
   class="st1"
   points="383.1,434.6 383.2,436.5 384.2,433.9 383,432.7  " />
	<polygon
   id="polygon191"
   class="st1"
   points="380.9,439.8 379.5,441.5 381.2,440.1 383,438.8 383,438 382.2,438  " />
	<polygon
   id="polygon193"
   class="st1"
   points="385.8,432.7 387,433.2 388.2,432.7 389.5,432.2 384.5,432.2  " />
	<polygon
   id="polygon195"
   class="st1"
   points="375.9,473.5 376.6,475.3 377.2,477.1 377.8,476.5 378.4,476 377.1,474.7  " />
	<polygon
   id="polygon197"
   class="st1"
   points="374.5,481.1 373.8,482.1 374.8,483.1 375.3,481.5 375.9,480 375.1,480  " />
	<polygon
   id="polygon199"
   class="st1"
   points="347.4,481.1 347,480.7 347,482.6 348.6,484.6 350.1,486.5 347.7,481.5  " />
	<polygon
   id="polygon201"
   class="st1"
   points="355.8,497 355,497 355,497.8 356.8,499.1 358.5,500.5 357.1,498.8  " />
	<polygon
   id="polygon203"
   class="st1"
   points="393.5,434 396.5,436 398.5,436 395.5,434  " />
	<path
   id="path205"
   class="st1"
   d="M488,468.7v0.2l4,2.2v-1l-0.8-0.4C490.1,469.4,489.1,469.1,488,468.7z" />
	<polygon
   id="polygon207"
   class="st1"
   points="400.9,436 399,436 399,436.8 400.6,437.4 402.1,438 401.5,437  " />
	<path
   id="path209"
   class="st1"
   d="M483.4,466.7c-0.8-0.4-1.6-0.8-2.4-1.1v0.4l4,2.2v-0.6C484.5,467.2,484,466.9,483.4,466.7z" />
	<polygon
   id="polygon211"
   class="st1"
   points="642.5,471.2 645.1,472.2 646.3,471 644.4,471.1  " />
	<polygon
   id="polygon213"
   class="st1"
   points="344.9,471.5 345.6,473.3 346.2,475.1 346.8,474.5 347.4,474  " />
	<path
   id="path215"
   class="st1"
   d="M872.4,416l-5.8,6h-0.9c-0.1,0.2-0.3,0.3-0.4,0.5c-0.2,0.2-0.7,0.6-1.3,1v0.7l1.8-1l1.7-0.9   l5.9-6.2h-1V416z" />
	<polygon
   id="polygon217"
   class="st1"
   points="879.5,411.2 882.1,412.2 883.3,411 881.4,411.1  " />
	<polygon
   id="polygon219"
   class="st1"
   points="898.5,411.2 901.1,412.2 902.3,411 900.4,411.1  " />
	<polygon
   id="polygon221"
   class="st1"
   points="658.8,471.7 660,472.2 661.2,471.7 662.5,471.2 657.5,471.2  " />
	<polygon
   id="polygon223"
   class="st1"
   points="846,449.7 846,452.1 844.8,451.4 843.7,450.7 844.5,451.9 845.2,453.2 846.3,452.1    847.4,451 846.7,450.3  " />
	<polygon
   id="polygon225"
   class="st1"
   points="833.5,444.9 836,447.4 836.5,446.8 837.1,446.2 835.3,445.6  " />
	<path
   id="path227"
   class="st1"
   d="M840.4,448.5h-0.2l0.5,0.7l0.4,0.8h3.9v-0.7C843.4,449.7,841.6,449.5,840.4,448.5z" />
	<path
   id="path229"
   class="st1"
   d="M852.9,439.4c-0.9,0.9-1.6,2-2.3,3l3.9-3.9l-0.5-1.1C853.9,438.1,853.5,438.8,852.9,439.4z" />
	<path
   id="path231"
   class="st1"
   d="M857.5,432.2l-1,0.4c-0.2,0.8-0.7,1.6-1.5,2.2l0,0v1.1l-0.7,0.4c0,0.2,0,0.5-0.1,0.7l0.8-0.5   l1-0.6l1-2l1.1-1.9l-0.3,0.1L857.5,432.2z" />
	<polygon
   id="polygon233"
   class="st1"
   points="1136.5,422.2 1139.1,423.2 1140.3,422 1138.4,422.1  " />
	<polygon
   id="polygon235"
   class="st1"
   points="1287.2,520 1286.8,518.7 1285.1,518.9 1284.5,516.9 1283.9,515 1281.7,513.8    1279.6,512.7 1283.8,517.7 1288,522.8 1289.8,523.2 1291.7,523.7 1291.7,521.1 1287.7,521.5  " />
	<polygon
   id="polygon237"
   class="st1"
   points="929.9,422.8 928.5,424.5 930.2,423.1 932,421.8 932,421 931.2,421  " />
	<polygon
   id="polygon239"
   class="st1"
   points="1326.5,527 1323.5,527.1 1327.5,528.9 1329.5,529  " />
	<polygon
   id="polygon241"
   class="st1"
   points="959.5,424.2 962.1,425.2 963.3,424 961.4,424.1  " />
	<path
   id="path243"
   class="st1"
   d="M946.3,417.4c-0.4,0.3-0.9,0.5-1.5,0.7l0.9,0.2l0,0l0,0l1.6,0.8l1.1-1.1l1.1-1.1l-3.8,1.4   L946.3,417.4z" />
	<polygon
   id="polygon245"
   class="st1"
   points="955.5,425.2 958.1,426.2 959.3,425 957.4,425.1  " />
	<path
   id="path247"
   class="st1"
   d="M848.8,445.9l0.4,1.1l-0.8-0.3c-0.1,0.2-0.2,0.3-0.3,0.5c-0.3,0.5-0.8,1-1.3,1.3l0.5,0.5l1.4-1.1   l1.3-1.1V444h-0.2C849.5,444.6,849.1,445.3,848.8,445.9z" />
	<polygon
   id="polygon249"
   class="st1"
   points="693.8,478 693,478 693,479.9 694,480.5 695,481.1 694.4,479.6  " />
	<path
   id="path251"
   class="st1"
   d="M748.1,499.8c-0.5-0.3-1-0.6-1.4-1.1c-0.2-0.2-0.4-0.4-0.6-0.6l-1,0.1l-1.6,0.1l1.5,0.5l1.5,0.6   l1.5,1.1l1.5,1.1L748.1,499.8L748.1,499.8z" />
	<polygon
   id="polygon253"
   class="st1"
   points="663.4,467.2 661.5,469.5 663.8,467.6 666,465.7 666,465 665.3,465  " />
	<polygon
   id="polygon255"
   class="st1"
   points="681.6,461.7 680.9,463.3 682.5,464.9 682.6,462.4 682.8,460 682.2,460  " />
	<polygon
   id="polygon257"
   class="st1"
   points="671.3,453 670.3,453 668.6,454.9 666.8,456.9 667.5,457.9 668.1,459 670.5,459    669,458 667.6,457.1 669.4,455.1  " />
	<path
   id="path259"
   class="st1"
   d="M813.4,451.8l-0.5-0.6c-0.2,0.1-0.4,0.1-0.6,0.2h-0.1c-0.4,0.5-0.9,1-1.6,1.3l0.8-0.1l2.4-0.1   L813.4,451.8z" />
	<path
   id="path261"
   class="st1"
   d="M818.2,449.8l-0.9,0.3L815,451v-0.4c-0.6,0.2-1.2,0.3-1.9,0.5l6.6,0.5v-2.3   C819.2,449.5,818.7,449.6,818.2,449.8z" />
	<polygon
   id="polygon263"
   class="st1"
   points="750,501.9 754,504.1 754,503.1 750,500.9  " />
	<path
   id="path265"
   class="st1"
   d="M767,496.3v1.3l-2.8,1.7l-2.7,1.7l-2.9,2.5l-2.8,2.6l0.4,0.5l0.5,0.4l8.4-8h2.9v-3.2   C767.7,496,767.3,496.2,767,496.3z" />
	<path
   id="path267"
   class="st1"
   d="M769.4,494.4l1.3-0.5l2.1-4.5C771.7,491.1,770.6,492.8,769.4,494.4z" />
	<path
   id="path269"
   class="st1"
   d="M802.7,456.6c-0.8,0.3-1.6,0.8-2.4,1.5l0.7,0.2l1.9,0.5l0.4-1.2l0.4-1   C803.4,456.6,803,456.6,802.7,456.6z" />
	<polygon
   id="polygon271"
   class="st1"
   points="1360.7,523.7 1361.4,524.8 1362,525.8 1360.8,526.3 1359.5,526.8 1361.9,527    1362.5,526.1 1363,525.1 1361.9,524.4  " />
	<polygon
   id="polygon273"
   class="st1"
   points="1386.5,520.9 1387.7,522.1 1389,523.4 1389.5,522.8 1390.1,522.2 1388.3,521.6  " />
	<polygon
   id="polygon275"
   class="st1"
   points="1197.5,471.4 1194.5,469.6 1191.5,467.9 1193.9,469.9 1196.2,472 1198.3,472    1197.9,471.7  " />
	<polygon
   id="polygon277"
   class="st1"
   points="1292.5,517.5 1287.6,516.1 1287.1,516.5 1286.7,517 1289,517 1289,518.6 1287,518.7    1288,519.7 1289.3,520.9 1291.2,519.9 1293,518.9 1293,521 1295.1,521 1293.9,519 1297.5,518.8  " />
	<polygon
   id="polygon279"
   class="st1"
   points="1347.5,527.3 1349.8,527.7 1352,528.1 1353.8,527.7 1355.5,527.2 1351.5,527.3  " />
	<polygon
   id="polygon281"
   class="st1"
   points="1334.3,528.7 1336,529.2 1337.3,528.7 1338.5,528.2 1332.5,528.2  " />
	<polygon
   id="polygon283"
   class="st1"
   points="1392.9,519.8 1391.5,521.5 1393.2,520.1 1395,518.8 1395,518 1394.2,518  " />
	<polygon
   id="polygon285"
   class="st1"
   points="1394.6,512.9 1394,513.8 1398,512.8 1398,512 1395.1,512  " />
	<polygon
   id="polygon287"
   class="st1"
   points="1471.8,536.7 1473,537.2 1474.2,536.7 1475.5,536.2 1470.5,536.2  " />
	<polygon
   id="polygon289"
   class="st1"
   points="1484.5,514.1 1483.8,515.1 1484.8,516.1 1485.3,514.5 1485.9,513 1485.1,513  " />
	<polygon
   id="polygon291"
   class="st1"
   points="1497.8,517.7 1499,518.2 1500.2,517.7 1501.5,517.2 1496.5,517.2  " />
	<polygon
   id="polygon293"
   class="st1"
   points="1489.4,502.4 1488.8,503.9 1489.6,508.5 1490.1,504.8 1490.6,501 1489.9,501  " />
	<polygon
   id="polygon295"
   class="st1"
   points="1451.9,537 1449,537 1449,537.8 1453,538.8 1452.4,537.9  " />
	<polygon
   id="polygon297"
   class="st1"
   points="1408.5,520 1410.9,520 1412.1,518 1411.5,518  " />
	<polygon
   id="polygon299"
   class="st1"
   points="1406.8,500.7 1407.4,503.5 1407.8,501.6 1408.2,499.8 1406.2,497.8  " />
	<polygon
   id="polygon301"
   class="st1"
   points="1424.2,523.7 1426,524.1 1427.8,523.7 1429.5,523.2 1422.5,523.2  " />
	<polygon
   id="polygon303"
   class="st1"
   points="1434.8,524 1434,524 1434,524.8 1435.8,526.1 1437.5,527.5 1436.1,525.8  " />
	<polygon
   id="polygon305"
   class="st1"
   points="1412.2,512.9 1411.6,514.7 1410.9,516.5 1412.1,515.3 1413.4,514 1412.8,513.5  " />
	<polygon
   id="polygon307"
   class="st1"
   points="1441.5,529.1 1438.5,529.1 1440.8,530 1443,530.9 1443,533.1 1444.1,532.5    1445.1,531.8 1443.3,530.4  " />
	<polygon
   id="polygon309"
   class="st1"
   points="1031.9,399 1032.9,399 1035.1,395 1034.1,395  " />
	<polygon
   id="polygon311"
   class="st1"
   points="1055.3,384.7 1057,385.2 1058.3,384.7 1059.5,384.2 1053.5,384.2  " />
	<polygon
   id="polygon313"
   class="st1"
   points="1040.5,387.2 1043.1,388.2 1044.3,387 1042.4,387.1  " />
	<polygon
   id="polygon315"
   class="st1"
   points="1044.5,386.2 1047.1,387.2 1048.3,386 1046.4,386.1  " />
	<polygon
   id="polygon317"
   class="st1"
   points="1068.5,384.9 1069.7,386.1 1071,387.4 1071.5,386.8 1072.1,386.2 1070.3,385.6  " />
	<polygon
   id="polygon319"
   class="st1"
   points="1071.8,374.9 1072.7,377.5 1073.2,374.8 1073.7,372 1072.9,372  " />
	<polygon
   id="polygon321"
   class="st1"
   points="963.5,388.3 965.8,388.7 968,389.1 969.8,388.7 971.5,388.2 967.5,388.3  " />
	<polygon
   id="polygon323"
   class="st1"
   points="1412.5,512.5 1411.1,510.8 1409.8,509 1409,509 1409,509.8 1410.8,511.1  " />
	<polygon
   id="polygon325"
   class="st1"
   points="1089,393.8 1090.5,395 1092.1,396.3 1091.6,397.7 1091.1,399 1093,399 1093,396.8    1091,394.3 1089,391.7  " />
	<polygon
   id="polygon327"
   class="st1"
   points="1029.8,403 1029,403 1029,404.9 1030,405.5 1031,406.1 1030.4,404.6  " />
	<polygon
   id="polygon329"
   class="st1"
   points="975.5,390 978.5,392 980.5,392 977.5,390  " />
	<polygon
   id="polygon331"
   class="st1"
   points="1079.9,358.6 1078.9,361.3 1079.4,361.8 1079.9,362.2 1080.6,359.6 1081.2,357    1082.1,357.6 1083,358.1 1083,356 1080.9,356  " />
	<polygon
   id="polygon333"
   class="st1"
   points="1118.7,417 1122.3,421 1123.3,421 1119.7,417  " />
	<polygon
   id="polygon335"
   class="st1"
   points="1086.5,388.3 1088.7,386.9 1090.9,385.6 1088.5,384 1087.5,384.1 1086.5,384.2    1089.1,385.2 1087.8,386.8  " />
	<polygon
   id="polygon337"
   class="st1"
   points="1179,447.7 1179.1,449.6 1179.2,451.5 1180.2,448.9  " />
	<polygon
   id="polygon339"
   class="st1"
   points="1180.2,456.5 1180.2,462.5 1180.7,460.7 1181.2,459 1180.7,457.7  " />
	<polygon
   id="polygon341"
   class="st1"
   points="1178,440.7 1178.1,442.6 1178.2,444.5 1179.2,441.9  " />
	<polygon
   id="polygon343"
   class="st1"
   points="1190.5,467.3 1187,465.5 1183.5,463.8 1185.5,465.7 1187.5,467.6 1189.3,467.8    1191.2,467.9 1190.9,467.6  " />
	<polygon
   id="polygon345"
   class="st1"
   points="1093.5,402.2 1091.3,400.1 1089.1,398 1087.9,398 1089.1,400 1091.3,401.1  " />
	<polygon
   id="polygon347"
   class="st1"
   points="1092.4,404.6 1090.5,406.1 1092.8,405 1095,403.9 1095,403 1094.4,403  " />
	<polygon
   id="polygon349"
   class="st1"
   points="1102.8,408.7 1104,409.2 1105.2,408.7 1106.5,408.2 1101.5,408.2  " />
	<polygon
   id="polygon351"
   class="st1"
   points="1109.5,410.2 1112.1,411.2 1113.3,410 1111.4,410.1  " />
	<polygon
   id="polygon353"
   class="st1"
   points="2143,517.2 2145.5,516.2 2139.5,516.2  " />
	<polygon
   id="polygon355"
   class="st1"
   points="2244.7,375 2248.3,379 2249.3,379 2245.7,375  " />
	<polygon
   id="polygon357"
   class="st1"
   points="1608.9,516.9 1609.9,516.5 1607.2,515.2 1604.5,514 1606.2,515.6 1607.8,517.2  " />
	<polygon
   id="polygon359"
   class="st1"
   points="2277.8,390.7 2279,391.2 2280.2,390.7 2281.5,390.2 2276.5,390.2  " />
	<polygon
   id="polygon361"
   class="st1"
   points="2434.7,366.1 2430.8,368.1 2431.3,368.6 2431.7,369.1 2435.4,366.9 2439,364.8    2439,364 2438.5,364.1  " />
	<polygon
   id="polygon363"
   class="st1"
   points="2447.5,359 2441.5,363 2443.5,363 2448.5,359  " />
	<polygon
   id="polygon365"
   class="st1"
   points="2215.5,399.5 2217.8,397.6 2220,395.7 2220,395 2219.3,395  " />
	<polygon
   id="polygon367"
   class="st1"
   points="2236.5,366.2 2240,367.2 2241.3,366.7 2242.5,366.2  " />
	<polygon
   id="polygon369"
   class="st1"
   points="2213.9,401.8 2212.5,403.5 2214.2,402.1 2216,400.8 2216,400 2215.2,400  " />
	<polygon
   id="polygon371"
   class="st1"
   points="2450,361.9 2450,361 2449.5,361.1 2444,364.1 2444,365.1 2447,363.5  " />
	<polygon
   id="polygon373"
   class="st1"
   points="2235.8,367 2235,367 2235,368.9 2236,369.5 2237,370.1 2236.4,368.6  " />
	<polygon
   id="polygon375"
   class="st1"
   points="2207.5,408.2 2203.5,412.5 2212,404.6 2212,404 2211.4,404  " />
	<polygon
   id="polygon377"
   class="st1"
   points="2225.9,386.8 2224.5,388.5 2226.2,387.1 2228,385.8 2228,385 2227.2,385  " />
	<polygon
   id="polygon379"
   class="st1"
   points="2452.2,369.5 2452.2,374.5 2452.7,373.2 2453.2,372 2452.7,370.8  " />
	<polygon
   id="polygon381"
   class="st1"
   points="2455.9,369 2454.9,369 2457.1,373 2458.1,373  " />
	<polygon
   id="polygon383"
   class="st1"
   points="2456.5,355.7 2455.9,354.2 2457,353.5 2458.2,352.8 2456.1,350.9 2454.1,349    2453,349 2453,352.1 2454.6,351.1 2456,352.1 2457.5,353 2454,353 2454,354.8 2457,357.3  " />
	<polygon
   id="polygon385"
   class="st1"
   points="2457.5,394.2 2460.1,395.2 2461.3,394 2459.4,394.1  " />
	<polygon
   id="polygon387"
   class="st1"
   points="2471.5,398 2469.5,398 2472.5,400 2474.5,400  " />
	<polygon
   id="polygon389"
   class="st1"
   points="2449.7,366.7 2449.2,365.5 2449.2,371.5 2449.7,369.7 2450.2,368  " />
	<polygon
   id="polygon391"
   class="st1"
   points="2448.1,374.6 2448.2,376.5 2449.2,373.9 2448,372.7  " />
	<polygon
   id="polygon393"
   class="st1"
   points="2447.2,378.5 2447.2,383.5 2447.7,382.2 2448.2,381 2447.7,379.8  " />
	<polygon
   id="polygon395"
   class="st1"
   points="2451.1,378.6 2451.2,380.5 2452.2,377.9 2451,376.7  " />
	<polygon
   id="polygon397"
   class="st1"
   points="2450.2,383.5 2450.2,389.5 2450.7,387.7 2451.2,386 2450.7,384.7  " />
	<polygon
   id="polygon399"
   class="st1"
   points="2446.1,387.6 2446.2,389.5 2447.2,386.9 2446,385.7  " />
	<polygon
   id="polygon401"
   class="st1"
   points="2243.2,365.9 2242.6,367.7 2241.9,369.5 2243.1,368.3 2244.4,367 2243.8,366.5  " />
	<polygon
   id="polygon403"
   class="st1"
   points="1874.8,577 1874,577 1874,578.9 1876,580.1 1875.4,578.6  " />
	<polygon
   id="polygon405"
   class="st1"
   points="1982.5,615.2 1985.1,616.2 1986.3,615 1984.4,615.1  " />
	<path
   id="path407"
   class="st1"
   d="M2170.8,439l-1.2,3l-1.6-1l-1.4,2.6l0.8-0.7l0.9-0.9l2.7,2.2l1.2-3.2l2.2,1.4l-2.8-3.4H2170.8z    M2171,443h-1v-1h1V443z M2172,441h-1v-1h1V441z" />
	<polygon
   id="polygon409"
   class="st1"
   points="1930.2,613.5 1931.2,610.9 1930,609.7  " />
	<polygon
   id="polygon411"
   class="st1"
   points="1607.7,532 1612.3,537 1613.3,537 1608.7,532  " />
	<polygon
   id="polygon413"
   class="st1"
   points="1663,526.4 1663.1,528.5 1663.2,530.5 1664.2,526.5 1666.2,524 1665.4,524  " />
	<path
   id="path415"
   class="st1"
   d="M1772.2,576.4l-1.7,0.6l3.8-0.6l3.8-0.5l0.6-0.6C1776.5,576.1,1774.2,576.5,1772.2,576.4z" />
	<path
   id="path417"
   class="st1"
   d="M1786.7,569.8c-0.3,0.4-0.7,0.8-1.1,1.2h0.9l3-2h-1.2C1787.8,569.3,1787.2,569.5,1786.7,569.8z" />
	<polygon
   id="polygon419"
   class="st1"
   points="1881.8,596 1881,596 1881,597.9 1883,599.1 1882.4,597.6  " />
	<polygon
   id="polygon421"
   class="st1"
   points="2155.5,452.1 2156.5,462.5 2156.8,458.1 2157.1,453.7 2156.3,452.9  " />
	<polygon
   id="polygon423"
   class="st1"
   points="2124.5,514 2127.5,516 2129.5,516 2126.5,514  " />
	<polygon
   id="polygon425"
   class="st1"
   points="2021.1,601.2 2022.3,600 2018.5,600.2  " />
	<polygon
   id="polygon427"
   class="st1"
   points="2159.8,446 2159.1,446 2158.4,447.2 2157.7,448.5 2158.5,447.8 2159.3,447    2160.9,448.3 2162.5,449.5 2161.1,447.8  " />
	<polygon
   id="polygon429"
   class="st1"
   points="1990,606.2 1988.5,605.6 1987,605.1 1987,605.8 1990,608.2  " />
	<polygon
   id="polygon431"
   class="st1"
   points="2159.3,465.5 2159.3,474.5 2159.7,472.2 2160.1,470 2159.7,467.8  " />
	<polygon
   id="polygon433"
   class="st1"
   points="2011.1,577 2011.6,578.5 2012.2,580 2014.2,580 2011.8,577  " />
	<polygon
   id="polygon435"
   class="st1"
   points="1989.8,612 1989.2,612 1988.7,613.4 1988.1,614.8 1989.4,615.3 1990.8,615.8    1990.3,613.9  " />
	<polygon
   id="polygon437"
   class="st1"
   points="2001.2,576.9 2000.6,578.7 1999.9,580.5 2001.1,579.3 2002.4,578 2001.8,577.5  " />
	<polygon
   id="polygon439"
   class="st1"
   points="2009.5,553.9 2008,555.3 2008,558.4 2010.2,556.2 2009.8,555  " />
	<polygon
   id="polygon441"
   class="st1"
   points="2484,402 2484,402.6 2490.5,408.5 2484.6,402  " />
	<polygon
   id="polygon443"
   class="st1"
   points="2475.7,393 2479.3,397 2480.3,397 2476.7,393  " />
	<path
   id="path445"
   class="st1"
   d="M2501.8,413.8l-0.5-0.2l-1.8-0.7l1.2,1.2l1.3,1.3l0.5-0.6l0.4-0.4   C2502.5,414.2,2502.2,414,2501.8,413.8z" />
	<polygon
   id="polygon447"
   class="st1"
   points="333.6,477.5 333.3,477.1 333,476.7 333,480 335.1,480 334.4,481.2 333.7,482.3    334.9,481.6 336.1,480.8 334.8,479.2  " />
	<polygon
   id="polygon449"
   class="st1"
   points="2013.5,576.5 2014.7,578.1 2016,579.7 2015.3,580.3 2014.7,581 2017,581 2017,579.2    2015.2,577.9  " />
	<polygon
   id="polygon451"
   class="st1"
   points="1604.7,510 1608.3,514 1609.3,514 1605.7,510  " />
	<polygon
   id="polygon453"
   class="st1"
   points="2012.1,565.6 2012.2,567.5 2013.2,564.9 2012,563.7  " />
	<polygon
   id="polygon455"
   class="st1"
   points="958.9,391 960.4,390.4 962,389.8 962,389 960.1,389  " />
	<polygon
   id="polygon457"
   class="st1"
   points="2472.1,392.8 2470.8,391 2470,391 2470,391.8 2471.8,393.1 2473.5,394.5  " />
	<polygon
   id="polygon459"
   class="st1"
   points="2473.5,395.5 2475.8,398.1 2478,400.6 2477.3,401.5 2476.5,402.3 2477.7,401.7    2478.8,401 2479.3,402.2 2479.8,403.5 2479.9,402.4 2480,401.4 2476.8,398.4  " />
	<path
   id="path461"
   class="st1"
   d="M2208.6,409.9L2208.6,409.9l-3.8,3.9l-1.7-0.1l-1.7-0.1l-0.3,0.5h0.8v1h-1v-0.6l-0.5,0.9l1.6,0.2   l1.8,0.2l4.8-4.9l4.8-4.9h-1L2208.6,409.9z M2204,415h-1v-1h1V415z" />
	<polygon
   id="polygon463"
   class="st1"
   points="2451,354.5 2449.7,356 2451.4,355.4 2453,354.8 2453,353 2452.2,353  " />
	<polygon
   id="polygon465"
   class="st1"
   points="2727.5,395.2 2730.1,396.2 2731.3,395 2729.4,395.1  " />
	<path
   id="path467"
   class="st1"
   d="M2620.1,432.8l-0.1,0.1l1.9-0.2l2-0.1l-0.2-0.3C2622.5,432.5,2621.3,432.7,2620.1,432.8z" />
	<path
   id="path469"
   class="st1"
   d="M2624.9,432.2h-0.4l0,0l2.6,1l0.9-0.9C2627,432.3,2625.9,432.2,2624.9,432.2z" />
	<polygon
   id="polygon471"
   class="st1"
   points="59.6,434.5 59.3,434.1 59,433.7 59,436.8 60.6,437.4 62.3,438 60.9,436.3  " />
	<polygon
   id="polygon473"
   class="st1"
   points="64.9,422.5 65.6,424.3 66.2,426.1 66.8,425.5 67.4,425 66.1,423.7  " />
	<polygon
   id="polygon475"
   class="st1"
   points="57.5,441 59.9,441 61.1,439 60.5,439  " />
	<polygon
   id="polygon477"
   class="st1"
   points="94.3,443.8 93.7,445.5 93.2,446.4 92.7,447.3 93.7,446.7 94.8,446 95.8,442 94.9,442     " />
	<polygon
   id="polygon479"
   class="st1"
   points="101.1,445.6 101.2,447.5 102.2,444.9 101,443.7  " />
	<polygon
   id="polygon481"
   class="st1"
   points="333.2,485.9 332.6,487.7 331.9,489.5 334.4,487 333.8,486.5  " />
	<polygon
   id="polygon483"
   class="st1"
   points="3291.4,419.9 3290.9,419 3288,419 3288,419.8 3292,420.8  " />
	<polygon
   id="polygon485"
   class="st1"
   points="3240.2,439 3239.9,439 3239.5,439.1 3237.6,440.5 3235.6,442 3237.8,442  " />
	<polygon
   id="polygon487"
   class="st1"
   points="3204.2,468 3203.7,466.8 3203.2,465.5 3203.2,470.5 3203.7,469.2  " />
	<polygon
   id="polygon489"
   class="st1"
   points="106.1,440.6 106.2,442.5 107.2,439.9 106,438.7  " />
	<polygon
   id="polygon491"
   class="st1"
   points="3295,420.2 3296.2,419.7 3297.5,419.2 3292.5,419.2 3293.8,419.7  " />
	<polygon
   id="polygon493"
   class="st1"
   points="2475.5,391.5 2474.1,389.8 2472.8,388 2472,388 2472,388.8 2473.8,390.1  " />
	<polygon
   id="polygon495"
   class="st1"
   points="15.2,404.5 15.2,410.5 15.7,408.7 16.2,407 15.7,405.7  " />
	<polygon
   id="polygon497"
   class="st1"
   points="3.7,396.8 3.2,397.5 2.1,404.5 3.2,401 4.4,397.5 5.4,396.8 6.5,396 4.1,396  " />
	<polygon
   id="polygon499"
   class="st1"
   points="24.1,410.6 24.2,412.5 25.2,409.9 24,408.7  " />
	<polygon
   id="polygon501"
   class="st1"
   points="319.9,505.8 318.5,507.5 320.2,506.1 322,504.8 322,504 321.2,504  " />
	<polygon
   id="polygon503"
   class="st1"
   points="114.5,452.2 115.8,452.7 117.1,453.2 118.3,452 116.4,452.1  " />
	<polygon
   id="polygon505"
   class="st1"
   points="225.3,503.7 227,504.2 228.3,503.7 229.5,503.2 223.5,503.2  " />
	<polygon
   id="polygon507"
   class="st1"
   points="314.5,508 313.9,509 315.4,508.4 317,507.8 317,507 315.1,507  " />
	<polygon
   id="polygon509"
   class="st1"
   points="217.1,491.6 217.2,493.5 218.2,490.9 217,489.7  " />
	<polygon
   id="polygon511"
   class="st1"
   points="171.8,470 171,470 171,470.8 172.8,472.1 174.5,473.5 173.1,471.8  " />
	<polygon
   id="polygon513"
   class="st1"
   points="157,470.5 154.5,471.9 155.6,472 156.6,472 158.6,470.5 160.5,469.1 159.5,469.1  " />
	<polygon
   id="polygon515"
   class="st1"
   points="135.9,462 134,462 134,462.8 135.6,463.4 137.1,464 136.5,463  " />
	<polygon
   id="polygon517"
   class="st1"
   points="214.1,484 213.1,485.6 216.9,485.6 215.9,484  " />
	<polygon
   id="polygon519"
   class="st1"
   points="194.1,481.7 193.2,483.4 191.3,482 189.5,480.5 190.9,482.2 192.2,484 193.9,484    196.1,480 195.1,480  " />
	<polygon
   id="polygon521"
   class="st1"
   points="203.5,490.8 205.2,492.6 207,494.4 207.4,493.9 207.9,493.4  " />
	<polygon
   id="polygon523"
   class="st1"
   points="3270,414 3269.3,414 3266.9,416.8 3264.5,419.5 3267.2,417.1 3270,414.7  " />
	<polygon
   id="polygon525"
   class="st1"
   points="3261,425.8 3255.5,431.5 3267,420.6 3267,420 3266.4,420  " />
	<polygon
   id="polygon527"
   class="st1"
   points="3256.5,454.2 3259.1,455.2 3260.3,454 3258.4,454.1  " />
	<polygon
   id="polygon529"
   class="st1"
   points="3249.9,431.8 3248.5,433.5 3250.2,432.1 3252,430.8 3252,430 3251.2,430  " />
	<polygon
   id="polygon531"
   class="st1"
   points="3262,421 3261.4,421 3257.5,425.2 3253.5,429.5 3262,421.6  " />
	<polygon
   id="polygon533"
   class="st1"
   points="3275,426.7 3275.1,428.6 3275.2,430.5 3276.2,427.9  " />
	<polygon
   id="polygon535"
   class="st1"
   points="3273.5,413 3270.5,413.1 3274.5,414.9 3276.5,415  " />
	<polygon
   id="polygon537"
   class="st1"
   points="3276.2,437.5 3276.2,443.5 3276.7,441.7 3277.2,440 3276.7,438.7  " />
	<polygon
   id="polygon539"
   class="st1"
   points="3269.1,428.6 3269.2,430.5 3270.2,427.9 3269,426.7  " />
	<polygon
   id="polygon541"
   class="st1"
   points="3269.3,434.5 3269.3,445.5 3269.7,442.8 3270.1,440 3269.7,437.2  " />
	<polygon
   id="polygon543"
   class="st1"
   points="3247.5,438.5 3249.8,436.6 3252,434.7 3252,434 3251.3,434  " />
	<polygon
   id="polygon545"
   class="st1"
   points="3227.5,447 3224.5,449 3226.9,449 3228.1,447  " />
	<polygon
   id="polygon547"
   class="st1"
   points="3223.5,461.2 3222.2,462.6 3220.9,464 3222.9,464 3223.5,462.9 3224.2,461.9    3223.9,461.5  " />
	<polygon
   id="polygon549"
   class="st1"
   points="3234,443 3233.2,443 3230.9,445.1 3228.5,447.1 3231.2,445.4 3234,443.8  " />
	<polygon
   id="polygon551"
   class="st1"
   points="3227.4,451.1 3227.3,453.1 3227.1,455 3227.8,455 3228.3,453.5 3228.9,452.1    3228.2,451.6  " />
	<polygon
   id="polygon553"
   class="st1"
   points="3247,434.8 3247,434 3246.2,434 3244.9,435.8 3243.5,437.5 3245.2,436.1  " />
	<polygon
   id="polygon555"
   class="st1"
   points="3247.9,457 3245,457 3245,457.8 3249,458.8 3248.4,457.9  " />
	<polygon
   id="polygon557"
   class="st1"
   points="3236.5,445.1 3232.9,447.8 3233.7,448.3 3234.6,448.9 3235.8,446.9 3237,445    3236.8,445  " />
	<polygon
   id="polygon559"
   class="st1"
   points="3238.2,460.1 3237.2,456.5 3237,459.9 3238.1,460.6 3239.2,461.2 3240.3,460.1    3241.5,458.9 3239.8,459.5  " />
	<polygon
   id="polygon561"
   class="st1"
   points="3285.5,424.2 3288.1,425.2 3289.3,424 3287.4,424.1  " />
	<polygon
   id="polygon563"
   class="st1"
   points="3315.5,404.3 3317.8,404.7 3320,405.1 3321.8,404.7 3323.5,404.2 3319.5,404.3  " />
	<polygon
   id="polygon565"
   class="st1"
   points="3341.9,399.8 3340.5,401.5 3342.2,400.1 3344,398.8 3344,398 3343.2,398  " />
	<polygon
   id="polygon567"
   class="st1"
   points="2739.5,402 2741.9,402 2743.1,400 2742.5,400  " />
	<polygon
   id="polygon569"
   class="st1"
   points="3311,414.7 3311,417.1 3309.4,416.1 3303.4,418 3297.5,419.8 3298.6,419.9    3299.7,420 3304.5,418.5 3309.3,417.1 3310.1,417.6 3310.9,418 3311.5,417 3312.2,415.9 3311.6,415.3  " />
	<polygon
   id="polygon571"
   class="st1"
   points="3360.2,393.7 3362,394.1 3363.8,393.7 3365.5,393.2 3358.5,393.2  " />
	<polygon
   id="polygon573"
   class="st1"
   points="3476.4,357 3470.5,363.5 3477,357.6 3477,357  " />
	<polygon
   id="polygon575"
   class="st1"
   points="3464.5,368.5 3466.8,366.6 3469,364.7 3469,364 3468.3,364  " />
	<polygon
   id="polygon577"
   class="st1"
   points="3365.5,392.2 3368.1,393.2 3369.3,392 3367.4,392.1  " />
	<polygon
   id="polygon579"
   class="st1"
   points="3276.5,414.9 3277.7,416.1 3279,417.4 3279.5,416.8 3280.1,416.2 3278.3,415.6  " />
	<polygon
   id="polygon581"
   class="st1"
   points="3441.5,404.5 3443.8,402.6 3446,400.7 3446,400 3445.3,400  " />
	<polygon
   id="polygon583"
   class="st1"
   points="3280.5,416.9 3281.7,418.1 3283,419.4 3283.5,418.8 3284.1,418.2 3282.3,417.6  " />
	<polygon
   id="polygon585"
   class="st1"
   points="3211.5,462.9 3212.7,464.1 3214,465.4 3214.5,464.8 3215.1,464.2 3213.3,463.6  " />
	<polygon
   id="polygon587"
   class="st1"
   points="3285.1,436.6 3285.2,438.5 3286.2,435.9 3285,434.7  " />
	<polygon
   id="polygon589"
   class="st1"
   points="3281.9,439.8 3280.5,441.5 3282.2,440.1 3284,438.8 3284,438 3283.2,438  " />
	<polygon
   id="polygon591"
   class="st1"
   points="3291.8,424.7 3294,425.1 3296.2,424.7 3298.5,424.3 3289.5,424.3  " />
	<polygon
   id="polygon593"
   class="st1"
   points="3290.2,433.5 3290.2,438.5 3290.7,437.2 3291.2,436 3290.7,434.8  " />
	<polygon
   id="polygon595"
   class="st1"
   points="3306.7,429.2 3306.1,431.4 3306.7,432 3307.8,429.5 3309,427 3307.2,427  " />
	<polygon
   id="polygon597"
   class="st1"
   points="3291.9,441.5 3292.6,443.3 3293.2,445.1 3293.8,444.5 3294.4,444 3293.1,442.7  " />
	<polygon
   id="polygon599"
   class="st1"
   points="3311.7,408.5 3311.8,407.8 3312,407 3311.1,407 3310.5,407.9 3310,408.9 3311,409.5    3312,410.1 3312.2,414.5 3313.2,411.9 3312.4,410.2  " />
	<path
   id="path601"
   class="st1"
   d="M2921.5,436.6c0-0.1,0-0.3,0.1-0.4l-0.5-0.5l0.1,1.9l0.1,1.9l0.1-0.4   C2921.4,438.3,2921.4,437.5,2921.5,436.6z" />
	<polygon
   id="polygon603"
   class="st1"
   points="2928,483.9 2928,485.9 2929.1,486.5 2930.1,487.2 2930.5,486.8 2930.8,486.5    2929.4,485.2  " />
	<path
   id="path605"
   class="st1"
   d="M2923.3,460.3v3.2l0.2-2.1C2923.4,461.1,2923.4,460.7,2923.3,460.3z" />
	<path
   id="path607"
   class="st1"
   d="M2970.1,495.2h-3.6l1.3,0.5l1.2,0.5l1.2-0.5l0.7-0.3C2970.6,495.4,2970.4,495.3,2970.1,495.2z" />
	<path
   id="path609"
   class="st1"
   d="M2982.9,499.1l-1.4,0.1l2.6,1l0.5-0.5C2984,499.5,2983.5,499.3,2982.9,499.1z" />
	<polygon
   id="polygon611"
   class="st1"
   points="2832,394 2830.6,394 2838.5,399.9 2839.4,400 2840.3,400 2836.2,397  " />
	<polygon
   id="polygon613"
   class="st1"
   points="2804.5,394.2 2807.1,395.2 2808.3,394 2806.4,394.1  " />
	<polygon
   id="polygon615"
   class="st1"
   points="2901.5,422.2 2904.1,423.2 2905.3,422 2903.4,422.1  " />
	<polygon
   id="polygon617"
   class="st1"
   points="2783.3,394.7 2786,395.1 2788.3,394.7 2790.5,394.3 2780.5,394.3  " />
	<polygon
   id="polygon619"
   class="st1"
   points="2762.6,390 2761.1,390.1 2759.5,390.2 2761,390.7 2762.5,391.3 2764.5,392.2    2766.5,393.1 2764.6,391.6  " />
	<polygon
   id="polygon621"
   class="st1"
   points="2811.3,394.7 2814,395.1 2816.3,394.7 2818.5,394.3 2808.5,394.3  " />
	<polygon
   id="polygon623"
   class="st1"
   points="2872.5,415.2 2875.1,416.2 2876.3,415 2874.4,415.1  " />
	<polygon
   id="polygon625"
   class="st1"
   points="2896.5,421.2 2899.1,422.2 2900.3,421 2898.4,421.1  " />
	<polygon
   id="polygon627"
   class="st1"
   points="2849.5,405 2852.5,407 2854.5,407 2851.5,405  " />
	<polygon
   id="polygon629"
   class="st1"
   points="3139.4,509.6 3138.7,511.9 3138.1,514.3 3139.2,513.2 3140.2,512.2 3139.8,510.9  " />
	<polygon
   id="polygon631"
   class="st1"
   points="3144,501.5 3142.7,503 3143.1,503.5 3143.6,503.9 3144.8,502 3146,500 3145.2,500     " />
	<polygon
   id="polygon633"
   class="st1"
   points="3169.5,483.1 3168.8,484.1 3169.8,485.1 3170.3,483.5 3170.9,482 3170.1,482  " />
	<polygon
   id="polygon635"
   class="st1"
   points="3155.4,493.6 3154.7,495.9 3154.1,498.3 3155.2,497.2 3156.2,496.2 3155.8,494.9  " />
	<polygon
   id="polygon637"
   class="st1"
   points="3146.9,502.5 3147.6,504.3 3148.2,506.1 3148.8,505.5 3149.4,505 3148.1,503.7  " />
	<polygon
   id="polygon639"
   class="st1"
   points="3166,493.5 3164.8,496.5 3168.1,491.9 3167.4,489.6  " />
	<polygon
   id="polygon641"
   class="st1"
   points="3203.8,472 3203.1,472 3203.3,473.9 3203.4,475.9 3204.2,475.4 3204.9,474.9    3204.3,473.5  " />
	<polygon
   id="polygon643"
   class="st1"
   points="3172.6,479.5 3172.3,479.1 3172,478.7 3172,481.8 3173.6,482.4 3175.3,483    3173.9,481.3  " />
	<polygon
   id="polygon645"
   class="st1"
   points="3198.3,457.5 3197.8,459.1 3198.2,459.6 3198.7,460.1 3199.3,458 3199.8,456    3198.9,456  " />
	<polygon
   id="polygon647"
   class="st1"
   points="3197.8,467.6 3197.5,474.2 3199,475.1 3199,461 3198.2,461  " />
	<polygon
   id="polygon649"
   class="st1"
   points="3028.8,542.7 3030,543.2 3031.2,542.7 3032.5,542.2 3027.5,542.2  " />
	<polygon
   id="polygon651"
   class="st1"
   points="3131.9,515 3130,515 3130,515.8 3131.6,516.4 3133.1,517 3132.5,516  " />
	<polygon
   id="polygon653"
   class="st1"
   points="3049.5,536.2 3052.1,537.2 3053.3,536 3051.4,536.1  " />
	<polygon
   id="polygon655"
   class="st1"
   points="3209.6,470.6 3208,472.1 3208,473.3 3212,469.7 3212,469 3211.1,469  " />
	<polygon
   id="polygon657"
   class="st1"
   points="3120.9,520.8 3119.5,522.5 3121.2,521.1 3123,519.8 3123,519 3122.2,519  " />
	<polygon
   id="polygon659"
   class="st1"
   points="1684.7,557.9 1684.7,557.9 1685,558.3 1685,555.2 1683.4,554.6 1681.7,554    1683.1,555.7 1684.4,557.5  " />
	<polygon
   id="polygon661"
   class="st1"
   points="1972.6,617.9 1972,618.8 1976,617.8 1976,617 1973.1,617  " />
	<polygon
   id="polygon663"
   class="st1"
   points="1965.5,617.2 1965.5,617.2 1968.1,618.2 1969.3,617  " />
	<polygon
   id="polygon665"
   class="st1"
   points="1680.1,540 1677.9,536 1676.9,536 1679.1,540  " />
	<polygon
   id="polygon667"
   class="st1"
   points="1672.5,510.1 1671.8,511.1 1672.4,511.7 1673,512.3 1673.1,510.9 1673.3,509.5    1674.7,517.5 1674.9,513.2 1675,509 1673.1,509  " />
	<polygon
   id="polygon669"
   class="st1"
   points="1684.3,551.3 1684.3,551.3 1683.3,550.7 1682.2,550 1681.6,551.7 1680.9,553.4    1680,552 1679,550.5 1679,552.9 1679.9,553.4 1680.7,553.9  " />
	<polygon
   id="polygon671"
   class="st1"
   points="1963.8,611 1963,611 1963,615.9 1964.6,616.9 1964.2,613.9  " />
	<polygon
   id="polygon673"
   class="st1"
   points="1933.7,623 1932,623 1932,623.8 1934.8,625.5 1937.5,627.3 1935.6,625.2  " />
	<polygon
   id="polygon675"
   class="st1"
   points="1930.2,620.5 1931.2,617.9 1931.2,617.9 1930,616.7  " />
	<polygon
   id="polygon677"
   class="st1"
   points="1948.8,624.1 1948.8,624.1 1946,624 1946.4,626.2 1946.7,628.5 1948.9,628.6    1951,628.8 1948.9,628.3 1946.7,627.8 1949.5,626 1946.5,625.8 1951.5,624.2  " />
	<polygon
   id="polygon679"
   class="st1"
   points="1938.5,632 1940.9,632 1942.1,630 1941.5,630  " />
	<polygon
   id="polygon681"
   class="st1"
   points="1683.9,560 1686.1,564 1687.1,564 1684.9,560  " />
	<polygon
   id="polygon683"
   class="st1"
   points="1960.2,607.5 1960.2,613.5 1960.7,611.7 1961.2,610 1960.7,608.7  " />
	<polygon
   id="polygon685"
   class="st1"
   points="1952.8,618 1952,618 1952,618.8 1953.8,620.1 1955.5,621.5 1955.5,621.5    1954.1,619.8  " />
	<polygon
   id="polygon687"
   class="st1"
   points="1525.1,547.8 1523.8,546 1523,546 1523,546.8 1524.8,548.1 1526.5,549.5  " />
	<polygon
   id="polygon689"
   class="st1"
   points="1587.9,546.8 1587.9,546.8 1586.5,548.5 1588.2,547.1 1590,545.8 1590,545    1589.2,545  " />
	<polygon
   id="polygon691"
   class="st1"
   points="1543.1,571.7 1543.1,571.7 1540.5,571.5 1538,571.4 1538,573.1 1540.4,572.8    1542.7,572.5 1544.6,574 1546.5,575.4 1544.8,573.5  " />
	<polygon
   id="polygon693"
   class="st1"
   points="1594.2,533.9 1594.2,533.9 1593.6,535.7 1592.9,537.5 1594.1,536.3 1595.4,535    1594.8,534.5  " />
	<polygon
   id="polygon695"
   class="st1"
   points="1590.3,531.5 1589.8,533.1 1590.2,533.6 1590.7,534.1 1591.3,532 1591.8,530    1590.9,530  " />
	<polygon
   id="polygon697"
   class="st1"
   points="1501.8,535 1501,535 1501,536.9 1503,538.1 1502.4,536.6  " />
	<polygon
   id="polygon699"
   class="st1"
   points="1498.4,521.1 1498.4,521.1 1496.5,521.2 1499.1,522.2 1500.3,521  " />
	<path
   id="path701"
   class="st1"
   d="M1501.1,526.2l-1.2,3.1l1.5,1.5C1500.9,529.3,1500.8,527.7,1501.1,526.2z" />
	<path
   id="path703"
   class="st1"
   d="M1596.1,521.7v0.3l0,0l-4.2,5.2v1.6l1.8,1l2.3-2.8l-2.6-1l3.8-4.3H1596.1z M1594,527v1h-1v-1   H1594z" />
	<polygon
   id="polygon705"
   class="st1"
   points="1976.7,615.1 1976.7,615.1 1978.8,617.2 1981.4,616.4 1979.1,615.7  " />
	<polygon
   id="polygon707"
   class="st1"
   points="1612.5,549.1 1611.8,550.1 1612.8,551.1 1613.3,549.5 1613.9,548 1613.1,548  " />
	<polygon
   id="polygon709"
   class="st1"
   points="1606.9,519.2 1605.5,518 1604,516.8 1604,519.6 1606,519.7 1608,519.9 1609.3,517.7    1608.1,518.4  " />
	<polygon
   id="polygon711"
   class="st1"
   points="1596.9,516.8 1596.9,516.8 1594.5,519.5 1597.2,517.1 1600,514.7 1600,514    1599.3,514  " />
	<polygon
   id="polygon713"
   class="st1"
   points="1620.9,552.8 1620.9,552.8 1619.5,554.5 1621.2,553.1 1623,551.8 1623,551    1622.2,551  " />
	<polygon
   id="polygon715"
   class="st1"
   points="1617.5,559.2 1617.5,559.2 1620.1,560.2 1621.3,559  " />
	<polygon
   id="polygon717"
   class="st1"
   points="1606.8,528 1606,528 1606,529.9 1608,531.1 1607.4,529.6  " />
	<polygon
   id="polygon719"
   class="st1"
   points="1605,509.5 1605,506.1 1604.1,505.6 1603.2,505 1601.1,508.4 1599,511.7 1599,513.5    1601.1,510.1 1603.2,506.7 1604.1,508.1  " />
	<polygon
   id="polygon721"
   class="st1"
   points="1605.8,521 1605,521 1605,521.8 1606.8,523.1 1608.5,524.5 1608.5,524.5    1607.1,522.8  " />
	<polygon
   id="polygon723"
   class="st1"
   points="1612.1,545.8 1612.1,545.8 1610.8,544 1610,544 1610,544.8 1611.8,546.1    1613.5,547.5  " />
	<polygon
   id="polygon725"
   class="st1"
   points="2268.8,390.1 2269.5,389 2270.1,388 2269,388 2268.9,388.2 2268.8,388.5    2268.5,390.2 2268.2,391.8 2274,389.8 2274,389.8 2274,388.8 2271.4,389.4  " />
	<polygon
   id="polygon727"
   class="st1"
   points="2280,394.2 2281.3,393.7 2282.5,393.2 2276.5,393.2  " />
	<polygon
   id="polygon729"
   class="st1"
   points="2291.5,394.2 2286.5,394.2 2287.8,394.7 2289,395.2 2290.2,394.7  " />
	<polygon
   id="polygon731"
   class="st1"
   points="2289.5,409.2 2289.5,409.2 2292.1,410.2 2293.3,409 2291.4,409.1  " />
	<polygon
   id="polygon733"
   class="st1"
   points="2231.8,379.9 2228.5,383.5 2236.1,376.5 2236.6,376.8 2237.2,377.2 2237.6,376.8    2238,376.3 2235.1,376.3  " />
	<polygon
   id="polygon735"
   class="st1"
   points="2248.5,381.5 2241.6,374 2239.7,374 2240.1,374.2 2240.5,374.5  " />
	<path
   id="path737"
   class="st1"
   d="M2246,417.2h-0.5l0,0l2.6,1l0.4-0.4C2247.6,417.8,2246.8,417.6,2246,417.2z" />
	<polygon
   id="polygon739"
   class="st1"
   points="2240.2,375.5 2240.2,381.5 2240.7,379.7 2241.2,378 2240.7,376.7  " />
	<polygon
   id="polygon741"
   class="st1"
   points="2415.7,364 2420.3,369 2421.3,369 2416.7,364  " />
	<polygon
   id="polygon743"
   class="st1"
   points="2428.5,370.8 2429.4,369.9 2430.4,369 2429.5,369.1 2423.5,372 2426,371.4  " />
	<polygon
   id="polygon745"
   class="st1"
   points="2427.5,372 2424.5,374 2426.5,374 2429.5,372  " />
	<polygon
   id="polygon747"
   class="st1"
   points="2427.6,375 2426.6,375 2436.4,385 2437.4,385  " />
	<polygon
   id="polygon749"
   class="st1"
   points="2288.8,391.7 2291,392.1 2293.2,391.7 2295.5,391.3 2286.5,391.3  " />
	<polygon
   id="polygon751"
   class="st1"
   points="2068.1,558.1 2068.1,558.1 2067.3,552.5 2067.1,556.4 2067,560.3 2071,556.7    2071,555.8 2069.6,556.9  " />
	<polygon
   id="polygon753"
   class="st1"
   points="2045.5,582.5 2052,576.6 2052,576 2051.4,576  " />
	<polygon
   id="polygon755"
   class="st1"
   points="2069.5,545.2 2069.5,545.2 2072.1,546.2 2073.3,545  " />
	<polygon
   id="polygon757"
   class="st1"
   points="2160.8,486 2160,486 2160,492 2161.7,492 2161.2,489  " />
	<polygon
   id="polygon759"
   class="st1"
   points="2167.9,482.8 2167.9,482.8 2165.5,485.5 2168.2,483.1 2171,480.7 2171,480    2170.3,480  " />
	<polygon
   id="polygon761"
   class="st1"
   points="2037.9,592.8 2037.9,592.8 2036.5,594.5 2038.2,593.1 2040,591.8 2040,591    2039.2,591  " />
	<polygon
   id="polygon763"
   class="st1"
   points="2027.5,601.2 2027.5,601.2 2030.1,602.2 2031.3,601  " />
	<polygon
   id="polygon765"
   class="st1"
   points="2018.1,604.7 2016.9,603.5 2017.6,605.3 2018.2,607.1 2018.8,606.5 2019.4,606  " />
	<polygon
   id="polygon767"
   class="st1"
   points="2006.6,560.6 2006,562.3 2007.5,561 2009,559.8 2009,559 2007.2,559  " />
	<polygon
   id="polygon769"
   class="st1"
   points="2016.3,597.9 2014.9,596.7 2013.6,595.5 2017.5,600.5 2018.3,601.5 2017.7,599.8    2017.1,598 2021,598 2021,596 2018.6,597  " />
	<polygon
   id="polygon771"
   class="st1"
   points="2177,439.8 2175.9,438 2176,438 2174.5,437.5 2174.4,438 2175,438 2175,439    2174.1,439 2173.9,439.4 2175.5,439.6  " />
	<polygon
   id="polygon773"
   class="st1"
   points="2225,392 2224.2,392 2222.9,393.8 2221.5,395.5 2223.2,394.1 2225,392.8  " />
	<polygon
   id="polygon775"
   class="st1"
   points="2218.9,398.8 2217.5,400.5 2219.2,399.1 2221,397.8 2221,397 2220.2,397  " />
	<polygon
   id="polygon777"
   class="st1"
   points="2226.9,388.8 2226.9,388.8 2225.5,390.5 2227.2,389.1 2229,387.8 2229,387    2228.2,387  " />
	<polygon
   id="polygon779"
   class="st1"
   points="2176.4,456.1 2174.5,456.2 2175.8,456.7 2177.1,457.2 2178.3,456  " />
	<polygon
   id="polygon781"
   class="st1"
   points="2229.5,385.5 2231.8,383.6 2234,381.7 2234,381 2233.3,381  " />
	<polygon
   id="polygon783"
   class="st1"
   points="2001.9,568.8 2001.9,568.8 2000.5,570.5 2002.2,569.1 2004,567.8 2004,567    2003.2,567  " />
	<path
   id="path785"
   class="st1"
   d="M2198.1,418.3l-2.6,1.6h2.5v-1h1v1h-0.9l-1.2,2l-2.8-1l-1.1,2.1l-1.1,2.1l-1.8-1l-2.2,3.1   l-2.2,3.1l-0.6-0.6l-0.6-0.6l-2.3,2.1l-2.3,2.1l0.6,1.6l0.6,1.5l2.3-2.8l3.7-4.4l1.6,1l1.7-2.5l1.8-2.7l0,0l1.5,0.9l7.4-7.6   L2198.1,418.3L2198.1,418.3z M2182.9,434h-1.9l3.4-4h0.6L2182.9,434z M2187.6,429.3l1.4-2.4h0.9v1h0.1L2187.6,429.3z M2191,426h-1   v-1h1V426z M2196,422.8l-3,2.5l0.6-1.7l0,0l0.6-1.6h1.8L2196,422.8L2196,422.8z" />
	<path
   id="path14"
   class="st1"
   d="M2179.1,435l-0.6,1l-0.6,1l-0.9-0.6l-0.9-0.6v2.1l1.2-0.1l1.3-0.1l0.7,0.1l0.7,0.1l1.4-1.7   l-1.1-0.7L2179.1,435L2179.1,435z M2180,437h-1v-1h1V437z M2183.4,455.1l-1.9,0.1l1.3,0.5l1.3,0.5l1.2-1.2L2183.4,455.1   L2183.4,455.1z M2121.2,523h-1l-1.1,1.4l-1.2,1.4l1.1,0.7l1.1,0.7l0.6-0.6l0.6-0.6h-2.5L2121.2,523L2121.2,523z M2124.5,523.1   l-1.3,1.4l-1.3,1.5h3.1v-3h-0.2L2124.5,523.1z M2107.4,531.5l-2.1,1.4l-0.8-0.7l-0.8-0.7l0.7,1.3l0.7,1.2l1.9-1l1.9-1l0.6-1l0.6-1   h-0.7L2107.4,531.5L2107.4,531.5z M2116.1,526l-0.6,0.9l-0.6,0.9l0.9,0.6l0.9,0.6l0.6-0.9l0.6-0.9l-0.9-0.6L2116.1,526z M2117,528   h-1v-1h1V528z M2134.5,518.2h-6l3.5,1L2134.5,518.2z M2154.2,503.9l-0.6,1.8l-0.7,1.8l1.2-1.2l1.3-1.3l-0.6-0.5L2154.2,503.9   L2154.2,503.9z M2157.3,485.5v14l0.4-3.8l0.4-3.7l-0.4-3.3L2157.3,485.5z M2158.7,453.8l-0.5-1.3v5l0.5-1.3l0.5-1.2L2158.7,453.8z    M2131.5,524.3l4.3,0.4l4.3,0.4l3.7-0.4l3.7-0.4H2131.5z M2146.1,556.6l0.1,1.9l0.5-1.3l0.5-1.3l-1.2-1.2L2146.1,556.6   L2146.1,556.6z" />
	<path
   id="path788"
   class="st2"
   d="M3500.2,386.4l-0.7-47.1l-11.2,8.3L3477,356v1.9l-17.2,14.4l-14.8,29.4l-2.3,1.6l-1.9,1.3   c-0.1,2.4-1.7,4.6-4.8,4.4c-15.7-0.9-31.1-1.6-45.7-7.2c-0.8,0.7-1.9,1.2-3.3,1.2c-1.6,0-2.7-0.6-3.5-1.5l-2.4-0.2l-12.2-8.4   l-7.3,1.1l-9,1.4l-1.9-0.1l-1.9-0.1l-2.1,1.1l-2.1,1.1l-2.4,3.4l-7.2,3.4l-19.2,1l-4.6,3l2.2,3.6l-2,5.8l-2.2-0.4l-2.8,1.1   l-2.8,1.1l-11,1l-0.5,0.1l-0.5,0.1l-8-1.4l-10-5h-3l-16,14.6l-10,8l-5.8,4l-3.2,2l-9.4,6.4h-1l-5.9,3.4l-5.9,3.4l-9.6,2.4l-1.8-1.1   l-1.8-1.1l-0.7,1.1l-0.7,1.1l0.2,8.6l0.2,8.6l-1.7-1.6l-1.7-1.7l-6.8,4v2.4l-6-7v-2.6l-1,0.6l-1,0.6l1,1.6l-1.6,4.6l-1.6,4.6   l-1.4,1.1l-1.4,1.1l-2-0.6l-2-0.7v-3.7l-1-0.6l-1-0.6l0.2,6.6l-2.6,9l-2.6,4V494h-3l-4-6.5v3.6l-1.8,3.4l-3.2,7.3v3.8l-1.4,1.9   l-1.4,1.9l-3.2-6.4l0.2-1.4l-1.8-0.6l-2.2,2.9l-2.2,2.9l-0.7,2.8l-0.7,2.8l-4,6.8l-1.6-2.6l-4-0.4v-3h-3v4h-2l-4.3,5h-3.7   c-0.3,0.4-0.6,0.7-0.9,1v1.8l-3.6,4.4l-4.8-4.1h-3.6l-3-4.2l-4,9l-4,2.2h-1.1l-3.8-4l-5.2,4h-2.3l-11.4,5.8l-6,3l-5.6-1.2l1.2-4.8   h-1.1l-13.4,3.8l-14.6,4.2l-7-2.4l-3.5-7.3c-2.8-1.9-5.4-4-7.4-5.8c-6.2-5.7-12-12.1-16.3-19.3c-2.1-3.6-4.5-6.5-8.6-7.8   c-0.6-0.2-1.2-0.4-1.8-0.6l-4.7-0.9l-3-0.6l-2.2-1.4l-23.8-5l-4.1-1.1c-1.6-0.2-3.3-0.4-5-0.7c-3-0.5-5.7-1.4-8.1-2.8l-1.6-0.4   h-3.7l-1-3.6l-0.2-0.4c-2.3-2-3.5-4.7-3.6-7.6l-0.4-0.8l-0.8-16.7c-0.1-0.6-0.2-1.2-0.2-1.8c-0.7-6-1.6-12.1-1.3-18.1l-1.6-5.6   l-2-2.4l-12.6-7l-7.6-1.4l-3.8-2l-22.2-4.6l-8.9-4.1l-8.9-4.1l-7.5-3.6l-7.5-3.6l-7-5l-63-0.4l-8.6-4l-16.2,9.6l-2.8,2.4l-1.7-1.4   l-1.7-1.4l-6.4-3.4h-3.2v-1.8l-6.4-2l-2.8,0.4l-2.8,0.4l-2.3-0.8c-9.3,1.3-18.7,1.5-28.1,2.5c-9,1-17.2,3-26,2.5l-0.1,0.3l-4.6-0.6   l-3.4,3.4l-0.5,1c-0.3,2.1-0.6,4.1-1,6.1c-0.3,1.5-0.7,3-1.1,4.4l-0.4,3.6l-2,3.3c0,2.4-0.7,5.1-2.1,7.2l-0.5,1.9l-7.4,3.6   l-3.4,0.6c-0.4,0.1-0.8,0.2-1.3,0.2l-2.9,0.5l-7.5-0.1h-0.8c-0.5,0.1-1.1,0.1-1.6,0.2c-3.8,0.3-7.5,0.7-11.3,1l-0.4,0.1v-0.1   c-1.3,0.1-2.5,0.2-3.8,0.4l-0.3,0.3l-3.2,0.6l-2.8,0.4l-2.8,0.4v-0.8c-9.6,1.2-18.9,3.1-28.4,5.6c-0.1,0-0.1,0-0.2,0l-0.2,0.2   l-0.1-0.1c-0.6,0.1-1.1,0.2-1.6,0.3l-0.7,1.7l-8.8-3.6c-6.6-1.7-13.3-6-18.3-8.8c-0.4-0.2-0.9-0.5-1.3-0.7l-2.6-1.3   c-0.6-0.3-1-0.4-0.6-0.3l-0.2-0.1c-2.7-1.1-5.4-2.3-8-3.8c-1-0.5-2-1.1-2.9-1.7l-3.6-1.8l-15-6.2l-11-5.9l-12.6-13l-17.2-22.6   l-6.8-13.4V358h3.3l-3.4-3.6v-1.2l1.8-0.4l1.8-0.4l-3.6-1.4l-1,4h-1.8v2.8l-2.4,1.6l-2.4,1.6l-11.6,6.4l-9,4.6h-2l-4-4l-4-4.1   l-1.5,0.4l-1.5,0.4l-2.2-2.4l-22.6-8l0,0c-3.7,0.5-7.4,0.7-11.1,0.6c-2,0-4.1-0.2-6.2-0.4c-2.1,0.1-4.1,0.1-6.2,0.1   c-13.6,0-28.6,1.6-42-1.8l-5.9,0.4l-0.9,1.1l-0.9,1.1l-5.1,9.9l0,0c-0.1,1.9-0.7,3.8-1.6,5.3c-0.7,1.2-1.6,2.3-2.7,3.1l-0.8,1.5   v3.2l2.1,3.4l2,3.4l-0.6,0.4l-9.6,3.6l-1.2,3l-19.2-1.6l-4.2-0.1l-4.2-0.1l-1.6-1.6l3.4,1.4v-1.1l-10.4-3.4l-12-7l-7.4-7l0.9-2.4   l0.9-2.4v-0.5l-3.6,0.4l-3.6,0.4l0.5,1.4l0.5,1.4h-2.3l2.4,2.4v2.6l-9.6,10.6l-6.8,8.6l-6.8,8.6l-8.4,7.8l-2.4,2.2h0.3v0.8   l-1.8,1.4l-1.8,1.4l1.4-1.8l-3.5,3.2h0.7v1h-1v-0.7l-0.3,0.3l1,1.6h-3.5l0.6,0.6l0.6,0.6l-2.4,2.6l-0.6-0.4l-0.6-0.4l-1.2,1.4   l-1.2,1.4l0.8,0.5l0.9,0.5l26-26.4l8.4-10.4l8.4-10.4l3.5-4.2v42l-0.7,1.1l-0.7,1.1l-0.2,0.1c-0.7,0.7-1.6,1.3-2.8,1.4l-4.3,2.2   c-0.1,0.1-0.2,0.2-0.3,0.3c-0.1,0.1-0.2,0.2-0.3,0.3c-0.4,0.3-0.8,0.6-1.2,0.9c-0.1,0-0.1,0.1-0.2,0.1c-0.9,0.5-1.8,0.7-2.8,0.8   l-9.1,4.6l-6.8,9.1c0,0.8-0.2,1.6-0.7,2.2c-2.1,2.9-2.5,6.4-2.8,9.9c-0.3,3.6-3.7,5.1-6.4,4.6h-14l-7-1.6l-7-1.6l-9.4-3l-1.2-3   l1,0.6l1,0.6l4.5-2.6l4.5-2.6l-1.2-2l-1.1,0.8h0.8v1h-1v-0.8l-1.1,0.8l-4.8,2.6l-4.8,2.6v-2l-2.8,2.6l2,2.4h-2.5l2,2.5l1.2,44.6   l-3.4,7.4l-4.8,7.6l-4.8,19.2v13.6l7.2,7l-1,10.6l-5.6,9.8l-0.4,5.8l-4,4.4l-6,12l-3.2,6.2l-4,1l-0.8-1.3l2.8-2.6l1.4,0.2l0.6-2   l-6-3l0.2-6.8l3.6,2.2l2-3v-1.2l-4.2-1l-1-4l-2.8-1v-6.2l5.2,4.2l2-1.2l-2.4-1.6l2.8-1l-6.8-5.8l-1.2-8.4h-2l-0.8,6.6l-2.8,4.4v1.4   l4.2-3.8l-4.6,9l-3.2,2.4h2.8l4.6-4.4v7.2l-6.4,5.2h2.5v2h-6.1l1.2,2l4.4-0.6l2.4-1.4l1.4,4.6l0.4,10.2l-1.6,4.2h-3.9l-1.2-1.8   l2-1.2V603l-5.4-0.4l-3-3.2l3.2,1l2.6-1.6l-8.2-5.2v-2l1.6,0.2l3.8-0.2l-5.4-5l-0.2-1.6l-3-4.6l-1-8.4l-0.6-0.8l-2.2,4.9l-2.1,4.9   l-4,7.8l3.2-1.2l-2.4,4.4l-0.4,3l-2,5l-1.4,4.4h1.7l2.4-2.4v1.5l-2.8,6.6l-2,1.2l-5.2-5.2l-0.2-2l-0.5-2l-0.2-6.5l-5,7.4v1.2l2-1.2   v2l-5.2,6.2l1.2,1.2l3-2.6l-1.2,3.2l-6.6,4h-2.8l-4.4-6.8l1.8-1.2l0.8,2.4l2.4-1.4v-3.6l-3.2-2.6l-1.8-3.4l4.8,1l-0.6-2.1l-0.5-2.1   h-2.6l-1.4-2.4l2.4,1.4v-1.8l-4-3.6l1-1.6l-4.2-7.2h3.2v-1.1l-4-4.2v-2.9l-2.6,2.2l-1-1l-3,4.6l-1.4,3.8l3-1.2l-3,5.8l-2.2,1.4   l1.4,0.8l1.4,0.9l-5.6,5.2v2.2l4-1v1.6l-6.4,6.2l-5.6-9v-4h-1.6l-3.4,5.8l1,1l-2.6,3.8l-2.5,3.8v3.3l2,2l-3,9l-2.2,5.2l-4.4-2   l-1-2.8l1.8,1l1.2-3l-3.8-9v-3.6l-1.4-4.4h2.8l-2-1.4l-3.4-4.2l6.4,0.8l-4-2.6l0.8-3.6l-3.1-1.2v-2l3,2.5v-1.3l-6.2-12.4l4,3.6h1.6   l-2.2-2.6l-2.2-5.8l3.8,3.4h1.5l-4.2-6.8l-3.8-11.8l-0.4,1.5l-0.4,1.6l-3.8,6.8l-4.4,5.6v1.3l2.4-1.4l-5,5.6l4.4-1.2v2l-6.4,9.2   l3.2-1.2l-4,7.2l2,2.4l-4.2,1.4v1.8l3.2,1.8l-4.6,3.2h-3.6v2l2.4,0.2l2.8-0.4l-2.8,3.4l2.8,1.8l-3.4,1.4v2.8h2.4l-4.2,3.4l0.2,1.4   l-3.5,4.1v1.9l3-1.2v1.8l-6.4,3.8l3.6,2.6l4.2-2l-5,4.1h-1.6v1.9l7-0.2l1,1l-7.6,5l-7.8-5.8h-2.6l0.2-1.6l-0.2-1.8l-2.6,2.2l-3-1.8   h3.8l4.4-4.8l-7.2-1.4l-5.6-2.8v-5l4.4,2.4l0.8-2.2l3.4-0.2l-8.4-3.8V607h-2v6.1l-5,5h-3.4l1.4,1.6l6.4,2.3l-5,0.4l-3.5-0.4v2   l2.4,1l-8,0.2l3,1.9l-3,0.2l5,1.6l-6,0.2l-6,3.2l-0.8-2.6l-6.8-6.4h1.6l-3-1.8l-1-13.4l-11-3.8l-9,2.4l-13.8,5.8l-6.6-4.6   l-8.2-10.4v-8.8l-3-2.5v-2.5l-4.2-5.2l2.2-4.2l-1.2-4.6l4-5.1v-8.5c-0.3-1.4-0.8-2.8-1.4-4.2l-0.2-0.3v0.3h-1v-1h0.4l-1.4-1.6   l-15-4l-16.2-4.4l-25.4,13.8l-9.4,7.2l0.4,1.8l-8.8,0.2l-4.4,2l-10.7,5.1c-1.9,1.8-4.3,3.3-6.8,4.2v0.8l-8.5,1.4l-9,5.2l-1,1.6   l-5.2,1.4l-1.4-4.2l-2.2,1.4l1.2-2l-3-2.6l1-2.8l-3-1.2l-3,2.4l1,1.5l-3,2.4v2.9l-2-1.2v2.1h-2.4l-5.5-5.3c-1.9,0-3.9-0.2-5.7-0.5   l-7-0.2c-2.6,1-4.9,0.8-6.9-0.2h-0.7l-0.2-0.4c-3.5-2.3-5.9-7-6.5-11.8l-0.7-0.7h-4.4l-6.8-2.8l-8,1.4l-5.2-5.6h2.8v-2l-5-3.3v-1.7   l2.7,1.1l1.2-3.2h-1.9l-3-7.2l1-1.8l-2.4-4.6l4.1,3.6l1.2-2l-2-1.2l-4-8.2l2.4-1.4l-3.8-8.4l-1.2-8.4l-5.6,12l-3.8,5.4v3.5l4.2-3.8   l-5.2,10.4h-2v2.2l5.6-1.4l-4.2,4.4l-4.8-3.2l-1.9-0.4c-3.9,0-8-0.7-11.9,0.1c-4.3,0.9-7.9,2.4-12.4,2.4c-0.6,0-1.2-0.1-1.7-0.3   l-1.5,0.4l-1,3.4l-7,10.8l3.2,3.6l-4.2,1.4l-5.2-5.2h-1.3l0.4-7.6l-2.6-3l-3.2-7.4l5,1.2v-1.8l-6-7v-1.4l3-3l-5-5v-3.3l3,2.4   l2.2-1.4l-3.6-3.4l2.6,1.8l1.2-1.2l-2.6-3.1l-2.6-3.1v-2.4l-2,2.4l-2,2.4v3.2l-5.6,6l3.6-1.2v1.5l-5,6.8v0.5l3.6-1l-5.2,4.6   l-1.2,3.4l2,1.2l3-2.4v2l-5,3.2l-2.2,4.2l2.6,1.6l-3.2,3.6l0.9,2.5h-1.8l-3.8-3h-2.6l-8,5l-2.2,5.4l-4.4,11.8l-9.8,2.8l-9.4,2.2   l-3.2-2.8l-4.8,0.6v-2h2.4l-5-3.9h-2.4v-3.7l-3.7-4.8l-3.4-9l-5-5.9c-1,0.5-2.1,0.7-3.5,0.3c-2.2-0.6-4.5-1.5-6.7-2.8l-4.7-0.9   l-5.2-3.4l1.2-3.8h-1.8l0.4-6.4l-3.9-5l3.3-0.7l-3.4-3.8h3.3v-0.6l-4-7.8V499h-1.8l-2.6,6.4l-0.7-1.9l-0.7-1.9l-0.2,5.6l-5,7.6   l1.2,3l-6.6,5.2h1.6l3.8-2v1.4l-4.4,4.7l2.8,1.6l-6.2,3.2v1.5l2.2,2.2l-7.4,1.4H1462l-5.6-2.2l-3.6,3.6l-2.4-0.8l-5.4-5l-3.2-2.9   h-1.2l-6.2-5.8l-14-1l-1.2-1.2l-0.6-5l-1.4-2.2h-2.8l-3.2,5h-1.9l1.2-1.8l-2-1.2V515h4v-1.9l-5-7.4v-6.6l-1.8-1l-6.1,6.9l-6.1,6.9   v1.2l2.4-0.6l2.4-0.6l-1.2,4.4l-6.8,6.8l-2.4-0.8l-4.4-10.8l-2-1.6l-0.6-0.5c-2.6,0.4-5.3,0.3-7.8,0.3c-4.3-0.1-8.6-0.5-12.9-0.9   l-0.4,1.6c0.1,0.3,0.1,0.5,0.2,0.8c0.3,1.1,0.3,2,0,2.9l1.7,2l-2.4,2.4v4.5l4.2,2.2l-1.8,1.8l-26.8,1.6l-8-0.4l-13-3.4l-14.4-5   l0.8-1.4l-5.8,0.8l1,1.8h-2.1v-1.9l-3.2,1.2l1.6,1.2l0.4,2.2l-4-1l-7.2-8.8l-5.1-2.9l-5.1-2.9l-22.2-11l-9.4-3.2l-9.4-3.1l-7.5-4.9   l-7.5-4.9l-6-2.6l-3-2.8l-11-5l-3-2.6l-4-0.6l-1-1l-6.4-4.6V454l-3.2-21.6l-2-7.6l-6.6,4h-2l-0.3-0.2c-4,2-9.4,1.9-13.4,0.2   l-0.5,0.8h-2.1l-4.6-5l-2.8-1.1l-2.8-1.1l-15.4,1l-4.8-6.4l-3-6l-9-2l-6.2,0.1l-6.2,0.1v-2.6l-4.4-1.4l3.8-3l-2.4-1l-4.6-4l3.4,1.1   l1.2-2l-2.8-3.4l-1.7-4l-0.2-5.4l2,0.6l2,0.6l-1.1-1.4l-1.1-1.4l-5-9.4l2.8,1v-2.3l-2-3.9l-2-3.9v-5.7l-1.4-1.4l-5.2,11.6l-3.6,5   v3.9l2.1-1.9l2.1-1.9l-5.2,10.4h-2v2.2l2.6-0.6l2.6-0.6l-2.2,4h-2l-2.4-1.6l-2.4-1.6l-11.6-1l-8,2.1l-8,2.1l-1.6,2.6l-7.2,12l1,1.6   l1,1.6l-0.6,0.6l-0.6,0.6h-3.7v-2l-2.3-1.1l-2.3-1.1l-0.1-1.7c-2.8,0.3-5.2-1-7.1-3.1c-1.8-2-3-6.4-5.1-7.8   c-1.1-0.8-2.9-0.3-4.3-0.4c-0.5,0-1.1-0.1-1.6-0.1c-0.6,0.3-1.3,0.6-1.8,1c-0.2,0.5-0.5,0.9-0.9,1.2c0,0.1-0.1,0.2-0.1,0.3   c-0.3,1.6-0.6,3.2-1.1,4.8c-0.4,1.4-1.4,2.4-2.7,3l-1,1.8l-1,1.9h-1.8l-1.4-2.4l1.3-1c-1.5-0.4-2.7-1.5-3.1-3.4V397l-4.5-1.9   l-3-2.4l-6-2.1l-6-2.1h-8.8l-10.6,6c-0.3,2.1-1.7,4-4.3,4.3l-1.9,1.4v2.1c1.1,0.6,1.8,1.6,2.2,2.8l0.6,0.2v12l-1.8,1l-1.3-0.5   c-0.6,0.3-1.3,0.4-2.1,0.4c-0.9,0-1.7-0.2-2.4-0.6c-0.6,0.3-1.3,0.4-2,0.4c-0.3,0-0.6,0-0.8-0.1l-0.9,4.9l-0.8-3.6H935v2h-3.9   l-1.2,2l-3.4-1.6l-8.8-4.6l-11.2-3.8l-2.1-1.4l-2.1-1.4l-11.5,0.1l-11.5,0.1l-4.2,2.4l-9.5,9.2c-0.1,0.1-0.2,0.2-0.3,0.3   c-0.1,0.1-0.2,0.2-0.3,0.3l-2.2,2.2v1l-2.9,2.9l-2.9,2.9l-0.4,0.9c-0.1,0.3-0.3,0.7-0.5,1l-0.5,1.2l-1.4,3.1l-0.2-0.1   c-0.2,0.6-0.6,1.1-1,1.6c-2.2,2.2-3.2,5.1-4.8,7.8c-0.3,0.4-0.6,0.8-1,1.2l-1.7,3.9l-1.2-1.6l-0.9-1.2c-1.5-0.1-3-0.8-3.8-2.1   l-5.9-2.8c-0.6,0-1.2,0.1-1.9,0.2c-3.5,0.4-6.5,2.6-9.8,3.8c-0.9,0.4-1.9,0.7-2.9,0.9l0.2,1l-1.6-0.6c-1.1,0.3-2.2,0.6-3.4,0.9   l-0.5,0.3l-0.8,0.1c-0.2,0.1-0.5,0.1-0.7,0.2h-0.1c-0.7,0.9-1.7,1.6-3.1,1.8c-0.2,0.6-0.5,1.1-0.9,1.6v0.1l-0.1-0.1   c-0.5,0.6-1.2,1-2.1,1.3v0.1v-0.1c-0.1,0-0.2,0.1-0.3,0.1c-1.1,0.3-2.1,0.4-3,0.4c-0.1,0-0.2,0.1-0.4,0.2l-0.3,0.6l-0.6-0.1   c-1.9,1.2-3.8,3.2-5,4.4c-0.8,0.8-1.6,1.6-2.4,2.4l0.1,0.7l-0.6-0.1c-1.6,1.7-3.2,3.4-4.8,5.1c-3.5,3.6-7.1,6.9-10,11   c-2.1,2.9-4,5.8-5.9,8.8l-2,4.1l-1.1,0.4c-0.1,0.2-0.2,0.3-0.4,0.5c-0.4,0.6-0.9,1-1.4,1.3v2.9H765l-8.4,8h-0.3l-6.4-5.6l-2.8-1.4   l-2.8-1.4l-1.2-1.6l-2.8-0.4l-1-0.6l-1-0.6l-7-1.4l-0.9-0.8c-0.8-0.2-1.6-0.5-2.4-0.7h-0.1l-1,0.6v-1c-1.2-0.3-2.3-0.6-3.5-1H722   v-0.4c-3.6-1.1-7.2-2.2-10.7-3.9c-0.1,0-0.1-0.1-0.1-0.1l-3-0.7h-3l-0.5-1.9l-0.5-1.9l-10.2-1.4l-3.6-6H689l-1.2-3.6l-6.8-7.6   l0.6-7l-1.6-3.1l-1.6-3.1l-0.6-2.9l-0.6-2.9l-1.1-0.4l-1.1-0.4l-1.4,5.4l-6.4,8l1.2,0.4l1.2,0.4l-3,5.6l2.4,1l-1.6,0.1l-1.6,0.1   l-4.4,4.6v2.4h-3.6l-5.8-3h-3.6l-1.2,3h-4.9l-1.6-1.6l-1.6-1.6v-2.6l-4.3-1.6c-0.6,0.3-1.4,0.5-2.2,0.5c-0.7,0-1.4-0.1-1.9-0.4h-1   l-4.8-6.1c-1.4-0.6-2.3-1.9-2.6-3.3l-1.3-1.7l1.4-0.9c0.1-0.5,0.3-1,0.6-1.4l-0.9-0.9c-1.9-0.5-2.9-1.9-3.3-3.5l-0.4-0.5l-5.4-11.6   h-1l-0.2,3l-0.4,1.6l-3.6,8l-3,6.4l0.7,1.1l0.7,1.1l0.9-0.6l0.9-0.6v1.7l-3,2.9l-3,2.9l1.2,3.6l-5.2,7.6l3,0.6v0.7l-2,5.4l-1.8-1.6   l-1.8-1.6l-0.6,0.6l-0.6,0.6l2.2,4l-4.9-1.1c-0.2,0.9-0.6,1.8-1.2,2.5l0.3,2.6l-2.5,0.4l-2.5,0.4l-1.6,2.4v5.4l-1,2.6l-1,2.6h-8   l-1.8-4.4l-2.6-3.4l-8.4-4.4l-4.7,2.1l-4.7,2.1h-4.9l-3.8-2l-3.4-6.4l-0.2-1l-0.8-4.1l-0.8-4.1l-4.4-4l-2.7-0.6h-0.2   c-0.9,1-2.3,1.6-3.7,1.6l-0.4,0.6l-4.4-1.6v-1.9l-6.9-2.3l-2,1.1l-2,1.1h-9.6l-2.5,1.4l-2.5,1.4H492l-2.7-1.4l-2.7-1.4l-3.8-1.6   L479,465h-4.8l-6-3c-8.1-1.8-16.4-3.6-24.4-6.1c-6.2-1.9-12.5-4.5-18.5-7c-3.2-1.3-6.5-2.8-9.1-5.1l-6.6-2.7l-19-8.1h-6.2l-0.6,2.5   l-0.6,2.5l-5,7.4v2.5l2.1,2.7l2.1,2.7l-2.4,4.5l-2.4,4.5l-1,1.9l-1,1.9H374v4.2l4,5.6l-2.5,5.1l-2.5,5h-2.9l-3.6,3.7l-3.6,3.7   l-0.6,2.6l-0.6,2.6l-1.9,2.5l-1.9-1l-1.9-1l-5.1-10.4l-2.5-4.4l-2.5-4.4l1-0.6l1-0.6l-2.4-5.4l-2.4-5.4l-0.6-1.8l-0.6-1.8l-0.9,0.5   l-0.9,0.5l-6.4,13.4l2.4,1.4l-1.7,2.6l-1.7,2.6l0.6,1l0.6,1l-7.4,12.6l-7,7.4l-2.2,0.6l-2.2,0.6l-11,18.6l-2.3,2.2l-2.3,2.1   l-1.9,0.4l-1.9,0.3l-1.1,3.1l-1.1,3.1l-5-2.6h-3.4l-0.4-0.7c-1-0.3-2-0.7-3-1.1h-8.2c-0.2,0.1-0.4,0.2-0.5,0.2c0.2,0.7,0.1,1,0,1   c0,0.6-0.1,1.2-0.3,1.7l0.4,0.7l-2.6,3.6l-2.1-0.7l-2.1-0.7l0,0c-1.1-0.4-2.1-1.1-2.5-2.2c-0.1-0.3-0.2-0.5-0.3-0.8l-2.1-2.3   c-1.8-1.4-3.3-2.9-4.6-5l0,0l-1.2-1.3c-0.3-0.1-0.6-0.2-1-0.4c-3.5-1.8-4.9-4.6-6.3-7.5l-8.6-9.4l-4.8-2.9L230,504h-4.4l-2.2-0.6   l-2.2-0.6l-3.4-8.4l-0.7-4.5l-0.7-4.5h-3l-1.8,3.8l-1.8,3.8l-1.4,0.5L207,494l-5-3.6v-3.6h-2v2.1l-1-0.6l-1-0.6V479h-1.7l-2.3,5   h-1.9l-3.9-4.5l-3.9-4.5l-5.4-2h-4.8l-3.7-2.5l-3.7-2.5h-1.9c-0.1,0-0.1,0.1-0.2,0.1c-1.6,0.8-3.3,0.8-4.7,0.1v1.8l-3.8,2l-6.6-2.5   l-6.6-2.5l-7.2-3.6l-7.2-3.6l-7.6-7.6l-4.9,0.6l-4.9,0.6v-4.5l-2.8,1.1l-1.3-7.4l-0.1-2.7l-0.1-2.7l-0.7,0.5l-0.7,0.5l-1.3,4.5   l-1.3,4.5H101v-4.4l-2.6,3.4l-1.1-2.2l-1.1-2.2l-1.4,4.4l-3.5,1.8c-0.2,0.2-0.5,0.3-0.7,0.4c-0.3,0.1-0.5,0.2-0.8,0.3l-0.9,0.5   l-0.5,0.1c-1.9,0.7-3.8,1.1-5.9,1.2c-0.5,0-1-0.1-1.4-0.2l-1.9,0.3v-1.5c-0.9-1-1.5-2.3-1.5-3.7c0-0.6,0.1-1.1,0.3-1.6l-2.3-7.4   h-1.6l-1.6,3.7l-1.5,3.7l-1.3-2.5l-1.3-2.5l1.8-1l-4-13.4H64v2.4l-2.1,4.4l-2.1,4.4l1.4,1.4l0.8-2l0.9-1.5v1.6l-3,6h-2.1l-5.2-4.8   l-5.2-4.8l-1.6-1c-1.4,0-2.8-0.5-4-1.5c-0.9-0.8-1.8-1.6-2.6-2.4l-1.1-0.7c-0.4-0.2-0.7-0.4-1.1-0.6l-1.4-0.7l-1.9-1l-1.6-5.5   l-1.6-5.5l-3.2,6.4H26l-3.4-14H21l-0.1,3.5l-1.8,3.4l-1.8,3.4l-1.1-3.4l-1.1-3.4l-0.4-2.5l-0.4-2.5l-1.9,3.8l-1.9,3.8l-0.8-1.3   L9,408.5l-1.6-5.8L5.7,397H4v3.6l-2,3.9l-1.5,3l0.3,156.7L1,721.8L0.8,880.2L0.5,1038l1749.8-0.3l1750.2-0.2l0.4-604L3500.2,386.4z    M2193.5,425l-1.2,0.7l-1,0.6l0.6-1l0.7-1.2h0.9V425z M2066.4,607.2L2066.4,607.2l0.7-1.2h0.9v0.9l-2.4,1.4L2066.4,607.2z M922,426   h-1v-1h1V426z M977.2,415.1l-1.8,5.3l-9.2,2.9l-9.2,2.9l-1.8-1.6l-1.8-1.6H951l3.2-5l0.1-5.4l0.1-5.4l1.7,0.1h0.2   c0.8-0.6,1.8-1,3.1-1c1.1,0,2,0.3,2.7,0.8c0.3-0.1,0.6-0.1,1-0.1c1.3,0,2.3,0.4,3.1,1l2-1.2h4l0.7,1.1l0.7,1.1l2.3-0.6l2.3-0.6   l0.5,0.9l0.5,0.9L977.2,415.1L977.2,415.1z M1025.8,413.6l-0.4,0.4l-2.7-2.1l-2.7-2.1V407l2.5,1l3.6,5L1025.8,413.6L1025.8,413.6z    M1087,383h-1v-1h1V383z M1203,478v-2h0.9l1.2,2H1203z M1287,524h-1v-1h1V524z M1290,527h-1v-1h1V527z M1294,525v-2h0.9l1.2,2H1294   z M1334,531h-1v-1h1V531z M1489,521h-1v-1h1V521z M1602,530h-1v-1h1V530z M1972,638h-1v-1h1V638z M1990,642.8l-4.4,3.2l3.6,0.2   l-1.2,1.8l-4-1v-3.5l4.4-2.2l1.6-0.2V642.8z M1996.6,594.3l1.4-2.4h0.9v1h0.1L1996.6,594.3z M2018.7,617.7L2018.7,617.7l-0.7,0.6   v-2.7l1.4,1.4L2018.7,617.7z M2024,628h-1v-1h1V628z M2043.5,605.9l3-1.8l0.8,0.8l-1.4,3.4L2043.5,605.9z M2047.2,614.2l-1.2,1.2   v-2.1l1.4-1.4l1,1L2047.2,614.2z M2059,604h1v1h-1V604z M2069,622h1v1h-1V622z M2072.7,628.6l-0.7,0.7l-3.4-3.4h2l2.9,1.9   L2072.7,628.6z M2072.9,624h-1.9v-2h3.1L2072.9,624z M2077,618.8L2077,618.8v0.8l-1.8,2.8l-4-2.2l-1.2,1.2v-2.2l3.6-1l3.6-0.2   L2077,618.8z M2094.1,617.4L2094.1,617.4l-1.2,1.4l0.6,2.8h-3l-0.6-3.2l4.6-2.2l0.8-0.2L2094.1,617.4z M2089.9,616.1l-3.2-0.6   l-0.8-2.4h3.6l6-3.8l1,0.8L2089.9,616.1z M2182,462.4l-2.8,6.6l-8.6,11.6l-3.6,4.1l-3.6,4.1l-1.1,1.9l-1.1,1.9l-1-1l-1.3-32l-1-5.4   l1.3-1.4l1.3-1.4l14.8,4.6l12.8,2.4v1.4l0,0L2182,462.4z M2202,458h-1v-1h1V458z M2232,425h-1v-1h1V425z M2293.5,401l-0.7,2.2   c0.2,1.3-0.1,2.6-0.8,3.7l0.8,2.8l-13.6-1l-16.6,6.4l-1.4,0.2c-0.8,0.5-1.7,0.7-2.7,0.8c-3,0.1-5.9,1.3-8.9,1.6   c-0.6,0.1-1.3,0.1-1.9,0l-6.3,1.1l-0.4-0.4l-0.8-44.4h1.3l2.4,2.6l2.4,2.6l11,7.6l6.5,2.6l6.5,2.6l15,2l8.4,0.6l0.6,0.6l0.6,0.6   L2293.5,401L2293.5,401z M2446.7,388.5l-0.8,0.9l-0.8,0.9l-7.6-4.6l-6.2-5.9l-6.2-5.9l24.4-12.4l0.8,4l-1.7,11.5L2446.7,388.5z    M2480.1,403l-7.9-3.6l-7.8-3.6l-7.3-1.4l-7.3-1.4h-0.5l1.6-11.6l2.4-16.4h0.6l5.4,10.5l5.5,7.6l5.5,7.6l9.8,11V403z M3158,499h-1   v-1h1V499z M3209.8,471.6l-2.2,1.9l-4.6,2.6l0.4-12h1.9l3.4,2.1l3.4,2.1v1.4l0,0L3209.8,471.6z M3270.2,430.7l-0.3,13.7l-1,1.9   l-1,1.9l-5-1l-1.6,3.9l-1.5,3.9h-3.6l-1.2,3.6l-5,2.4l-1.2-2l-5.1-1.9l-2.3,2.1l-2.3,2.1l-0.9-0.6l-0.9-0.6l-1.2-8h-2v2.2l-2.8-0.6   l-2.8-0.6l-5.4,11l-1.2-0.4l-1.2-0.4l-2,3.6l-5.2-2.6l-5.2-2.6v-1.4l8.4-2.6l6.5-3.9l6.5-3.9l10.2-6.4l11.8-8.9l7.2-6.9l7.2-6.9   l2.2-1.9l2.2-1.9h0.2L3270.2,430.7L3270.2,430.7z M3308.9,423L3308.9,423l-0.8,5.6l-2.4,9l-2.2,1.4h1.6l-1.6,2.5l-0.4,2.6l-2.4,3   l-2.6-1l-2.2,2.6l1.3,1.3h-2l-5.2-13.6l-0.3-1.9l-0.3-1.9l-1.2-0.4l-1.2-0.4l-0.7,2.6l-0.7,2.6l-5.2,5.6l-3.6,5.4l-0.9-0.9   l-0.4-12.4l-0.4-12.4l-0.4-2l0.4-3l2.9,3.8l3.8,1.4l3.8,1.4l14-0.1l5.3-1.4l5.3-1.4L3308.9,423z" />
</g>

</svg>
