<?xml version="1.0" encoding="UTF-8" standalone="no"?>
<svg
   viewBox="0 0 3500 1038"
   style="enable-background:new 0 0 3500 1038"
   xml:space="preserve"
   version="1.1"
   id="svg20"
   sodipodi:docname="layer1.svg"
   inkscape:version="1.2.2 (732a01da63, 2022-12-09)"
   xmlns:inkscape="http://www.inkscape.org/namespaces/inkscape"
   xmlns:sodipodi="http://sodipodi.sourceforge.net/DTD/sodipodi-0.dtd"
   xmlns="http://www.w3.org/2000/svg"
   xmlns:svg="http://www.w3.org/2000/svg"><defs
   id="defs24"><pattern
     id="EMFhbasepattern"
     patternUnits="userSpaceOnUse"
     width="6"
     height="6"
     x="0"
     y="0" /></defs><sodipodi:namedview
   id="namedview22"
   pagecolor="#505050"
   bordercolor="#eeeeee"
   borderopacity="1"
   inkscape:showpageshadow="0"
   inkscape:pageopacity="0"
   inkscape:pagecheckerboard="0"
   inkscape:deskcolor="#505050"
   showgrid="false"
   inkscape:zoom="0.69142857"
   inkscape:cx="1834.6074"
   inkscape:cy="659.50413"
   inkscape:window-width="1920"
   inkscape:window-height="1017"
   inkscape:window-x="-8"
   inkscape:window-y="-8"
   inkscape:window-maximized="1"
   inkscape:current-layer="svg20" />
    
    <g
   id="g1541"
   inkscape:label="Sun light"><path
     id="path14"
     style="fill-rule:evenodd;clip-rule:evenodd;fill:#ffe16a"
     d="m 1680.625,527.08398 c -6.975,0.0656 -7.6508,0.4418 -7.4258,1.7168 0.2,1 1.1016,1.6 2.1016,1.5 0.9,-0.2 1.6992,0.19883 1.6992,0.79883 0,0.6 0.9992,1 2.1992,1 1.2,0 5.1012,0.69961 8.7012,1.59961 4.9,1.2 6.8988,1.4 8.2988,0.5 1,-0.6 2.7008,-1.09961 3.8008,-1.09961 3.6,0 8.5004,-3.49922 7.4004,-5.19922 -0.3,-0.4 -8.1,-0.80078 -17.5,-0.80078 -3.925,-0.025 -6.9504,-0.0375 -9.2754,-0.0156 z m 82.002,4.17774 c -4.7204,-0.0375 -5.377,0.26328 -4.627,1.23828 1.6,1.9 9.2,4.29961 16,5.09961 3,0.4 5.7,0.79961 6,1.09961 0.3,0.3 -1.5,2.20078 -4,4.30078 -4.5,3.8 -10.2004,6 -15.9004,6 -1.6,0 -5.7988,0.9 -9.2988,2 -3.5,1.1 -7.4016,2 -8.6016,2 -1.2,0 -2.1,0.59922 -2,1.19922 0.2,0.9 -3.8992,1.20078 -16.1992,1.30078 -9.1,0 -17.1004,0.50039 -17.9004,0.90039 -0.9,0.6 -1.1988,0.49883 -0.7988,-0.20117 0.4,-0.7 -2.6016,-0.89922 -9.6016,-0.69922 -5.6,0.2 -13.7,0.40039 -18,0.40039 -4.3,0 -7.6,0.39883 -7.5,0.79883 0.1,0.4 -0.1988,0.80078 -0.7988,0.80078 -0.6,0 -0.9008,-0.29922 -0.8008,-0.69922 0.1,-0.4 -0.8992,-0.6 -2.1992,-0.5 -1.9,0.2 -2.5,0.8 -2.5,2.5 0,2.1 0.3988,2.19844 4.7988,1.89844 2.6,-0.2 5.2008,-0.39961 5.8008,-0.59961 0.6,-0.1 2.1004,-0.19961 3.4004,-0.0996 3.7,0.2 1.5992,1.49922 -2.8008,1.69922 -4.9,0.3 -8.1004,1.30156 -9.9004,3.10156 -1.6,1.6 -1.7996,1.49961 2.9004,3.09961 4.5,1.5 10.8008,2.09922 13.3008,1.19922 1.1,-0.4 3.1004,-0.10039 4.4004,0.59961 1.4,0.7 2.8984,1.00117 3.3984,0.70117 0.6,-0.3 0.7012,-0.10039 0.2012,0.59961 -0.4,0.7 -1.5,0.89961 -2.5,0.59961 -1,-0.3 -2.2996,0.1 -3.0996,1 -0.9,1 -1.5,1.2 -2,0.5 -1.1,-1.7 -5,-2.1 -5,-0.5 0,0.8 -0.4008,1.40039 -0.8008,1.40039 -0.4,0 -0.9,1.20078 -1,2.80078 -0.2,2.5 -0.1004,2.6 1.0996,1 0.7,-1 1.6996,-1.80078 2.0996,-1.80078 0.4,0 0.2,0.7 -0.5,1.5 -1.8,2.2 -0.7984,4.19922 1.1016,2.19922 1,-1 1.9,-1.19961 2.5,-0.59961 0.6,0.6 1.3988,0.40039 2.2988,-0.59961 1.8,-2.2 2.8,-1.89922 4.5,1.30078 1.5,2.9 1.5,2.9 -1.5,2.5 -1.8,-0.2 -3,0.0988 -3,0.79883 0,0.6 0.2996,0.9 0.5996,0.5 0.3,-0.3 1.3016,0.10039 2.1016,0.90039 1.7,1.7 6.2,1.09961 7.5,-0.90039 0.5,-0.7 0.7988,-0.39961 0.7988,0.90039 0,1.1 0.6008,2.09961 1.3008,2.09961 0.7,0 3.0992,0.30117 5.1992,0.70117 2.5,0.4 3.4996,0.39883 2.5996,-0.20117 -0.9,-0.6 -0.9988,-1.09961 -0.2988,-1.59961 0.6,-0.4 1.4004,-7.8e-4 1.9004,0.69922 1.3,2.2 5.2988,3.10117 5.2988,1.20117 0,-0.9 -0.4,-1.59961 -1,-1.59961 -0.6,0 -1,-0.40078 -1,-0.80078 0,-0.4 1.5004,-0.9 3.4004,-1 1.9,-0.1 3.7992,-0.20078 4.1992,-0.30078 0.5,-0.1 1.5004,-0.1 2.4004,0 1.2,0.1 1.0996,0.50156 -0.4004,1.60156 -1.7,1.3 -1.6992,1.5 -0.1992,1.5 0.9,0 1.6992,0.7 1.6992,1.5 0,0.8 0.4,1.5 1,1.5 0.6,0 1,-0.7 1,-1.5 0,-0.8 0.4,-1.5 1,-1.5 0.6,0 1,0.59922 1,1.19922 0,0.8 0.3,0.80078 1,-0.19922 0.8,-1.3 1,-1.20117 1,0.29883 0,1.5 0.7008,1.8 3.8008,1.5 2.9,-0.2 3.7,-0.69961 3.5,-2.09961 -0.2,-1 0.2004,-1.80078 0.9004,-1.80078 0.7,0 0.8996,0.8 0.5996,2 -0.3,1.1 -0.2004,2.10117 0.1,2.20117 2.7,0.6 12.0008,0.39922 13.3008,-0.30078 1,-0.5 1.8992,-0.5 2.1992,0 0.3,0.5 2.1996,0.90039 4.0996,0.90039 2.7,0 3.8004,-0.49961 4.4004,-2.09961 0.8,-2.1 0.8004,-2.09961 1.9004,-0.0996 0.8,1.4 2.1996,1.99922 5.0996,2.19922 3.8,0.2 4.0996,0 4.0996,-2.5 0.1,-2.5 0.1004,-2.49961 0.9004,-0.59961 0.5,1.2 1.5012,2.3 2.2012,2.5 2.7,0.9 19.5996,0.1 21.5996,-1 1.2,-0.6 2.2996,-0.80078 2.5996,-0.30078 0.3,0.5 4.3996,0.80117 9.0996,0.70117 7,-0.1 8.7996,-0.40078 9.5996,-1.80078 0.5,-0.9 1.4,-1.69922 2,-1.69922 0.7,0 0.6008,0.5 -0.1992,1.5 -1,1.2 -0.8992,1.5 0.8008,1.5 1.1,0 3.3996,-0.30156 5.0996,-0.60156 2.6,-0.5 3,-0.99844 2.5,-2.89844 -0.3,-1.3 -4e-4,-2.6 0.5996,-3 0.8,-0.5 1,-0.10117 0.5,1.29883 -0.4,1.1 -0.1996,2.30117 0.4004,2.70117 0.6,0.4 0.8004,1.09922 0.4004,1.69922 -0.4,0.7 0.1992,0.80078 1.6992,0.30078 3.2,-1 3.3996,-1.30117 2.0996,-2.70117 -1.5,-1.5 -1.4992,-2.79883 -0.1992,-2.79883 0.6,0 1.4996,0.99883 2.0996,2.29883 1,2.2 1.2992,2.30039 8.1992,1.40039 3.9,-0.5 8.3012,-0.99961 9.7012,-1.09961 1.4,-0.1 3.0988,-0.40039 3.7988,-0.40039 0.7,-0.1 1.2012,-0.59922 1.2012,-1.19922 0,-0.6 -0.4004,-0.8 -0.9004,-0.5 -1.3,0.8 -2.1004,-1.9 -0.9004,-3.5 0.8,-1.2 0.8996,-1.20039 0.5996,0.0996 -0.7,2.5 3.5008,3.90039 8.8008,2.90039 2.6,-0.5 5.0996,-1.50156 5.5996,-2.10156 0.6,-0.9 0.8008,-0.89961 0.8008,-0.0996 0,0.7 0.9988,1.19961 2.2988,1.09961 4.2,-0.1 7.8008,-1 7.8008,-2 0,-0.5 -0.4,-0.69844 -1,-0.39844 -0.6,0.3 -1,0.1 -1,-0.5 0,-0.6 0.6004,-0.90156 1.4004,-0.60156 1.7,0.7 5.9992,-2.79922 5.1992,-4.19922 -0.3,-0.5 -4.9988,-1.19961 -10.2988,-1.59961 -5.4,-0.4 -11.6004,-0.8 -13.9004,-1 -3.5,-0.3 -4.1012,-0.10117 -3.7012,1.29883 0.5,1.5 0.4,1.50156 -0.5,0.10156 -0.7,-1.1 -3.1988,-1.90078 -7.2988,-2.30078 -3.5,-0.4 -7.8008,-1.09961 -9.8008,-1.59961 -5.6,-1.4 -8.3988,-1.8 -18.2988,-2.5 -5.1,-0.4 -10.3,-0.8 -11.5,-1 -2.3,-0.4 -22.0012,-1.5 -34.2012,-2 -9.8,-0.4 -10,-0.40039 -10,-1.90039 0,-1.4 3.1,-3.10078 11,-6.30078 2.5,-1 5.2012,-2.39922 6.2012,-3.19922 2,-1.6 14.6992,-4.49922 16.6992,-3.69922 2.3,0.9 5.1996,-0.5 6.0996,-3 0.8,-2.2 6.1008,-5.60078 14.3008,-9.30078 4.6,-2.1 4.9,-3.40039 0.5,-2.40039 -5.3,1.2 -36.2996,0.20078 -38.5996,-1.19922 -0.4,-0.2 -6.3,-0.7 -13,-1 -2.575,-0.075 -4.6004,-0.12617 -6.1738,-0.13867 z" /><path
     id="path16"
     style="fill-rule:evenodd;clip-rule:evenodd;fill:#fccc36"
     d="m 1663.9922,558.11719 c -0.516,0.56433 -0.6856,15.57033 -0.5918,34.88281 l 0.1,37.5 207.1992,0.30078 L 2078,631 v -54 l -2.6992,-0.69922 c -2.2,-0.5 -3.2,-0.1 -5.5,2.5 -1.5,1.7 -3.7008,3.19922 -4.8008,3.19922 -1.1,0 -2.2,0.40039 -2.5,0.90039 -0.3,0.5 -1.8,0.59961 -3.5,0.0996 -1.6,-0.5 -3.1008,-0.7 -3.3008,-0.5 -0.5,0.5 -13.4988,1.69922 -18.2988,1.69922 -2.2,0 -3.4008,0.2 -2.8008,0.5 2,0.8 1.5012,4.4 -0.7988,5 -1.6,0.4 -1.8004,0.80039 -0.9004,1.90039 1.5,1.8 0.7992,2.4 -4.3008,3.5 -7.7,1.6 -9.7988,1.80039 -9.7988,0.90039 0,-0.5 -1.5004,-0.49961 -3.4004,-0.0996 -1.9,0.4 -4.1,0.29883 -5,-0.20117 -1.1,-0.6 -1.5996,-0.49922 -1.5996,0.30078 0,0.9 -0.4,0.80039 -1.5,-0.0996 -1.2,-1 -1.5,-1 -1.5,0 0,0.9 -0.3008,0.99961 -1.3008,0.0996 -1.3,-1.1 -18.0992,-2.40078 -28.1992,-2.30078 -2.8,0 -7.5016,0.10117 -10.6016,0.20117 -3.3,0 -7.6996,-0.70078 -10.5996,-1.80078 -4.4,-1.7 -7.1988,-1.89961 -23.2988,-1.59961 -12.2,0.2 -18.7016,-7.8e-4 -19.6016,-0.80078 -1,-0.8 -1.2988,-0.8 -1.2988,0 0,2.1 -2.0012,1.20156 -3.2012,-1.39844 -1.1,-2.3 -0.7992,-2.9 2.8008,-6.5 3.5,-3.5 4.5004,-3.9 8.9004,-4 5.2,0 8.4992,-1.30117 7.1992,-2.70117 -0.4,-0.4 -4.2,-0.9 -8.5,-1 -4.2,-0.1 -12.3992,-0.6 -18.1992,-1 -11.6,-0.9 -15.3004,-0.59922 -14.4004,0.80078 0.8,1.4 -3.3992,4.89922 -5.1992,4.19922 -0.8,-0.3 -1.4004,-3.9e-4 -1.4004,0.59961 0,0.6 0.4,0.9 1,0.5 0.6,-0.4 1,-0.19961 1,0.40039 0,1 -3.6008,1.9 -7.8008,2 -1.2,0 -2.2988,-0.49961 -2.2988,-1.09961 0,-0.9 -0.2008,-0.90039 -0.8008,0.0996 -0.4,0.7 -2.8996,1.59961 -5.5996,2.09961 -5.3,1 -9.5008,-0.39844 -8.8008,-2.89844 0.3,-1.3 0.2004,-1.30156 -0.5996,-0.10156 -1.1,1.6 -0.3996,4.4 0.9004,3.5 0.5,-0.3 0.9004,-0.1 0.9004,0.5 0,0.6 -0.6012,1.10117 -1.2012,1.20117 -0.7,0.1 -2.3988,0.30039 -3.7988,0.40039 -1.4,0.1 -5.7012,0.69961 -9.7012,1.09961 -6.9,0.8 -7.1992,0.79961 -8.1992,-1.40039 -0.6,-1.3 -1.4996,-2.30078 -2.0996,-2.30078 -1.4,0 -1.3008,1.30078 0.1992,2.80078 1.4,1.4 1.1004,1.69922 -2.0996,2.69922 -1.5,0.5 -2.2012,0.40117 -1.7012,-0.29883 0.4,-0.6 0.2016,-1.30117 -0.3984,-1.70117 -0.6,-0.4 -0.8004,-1.59922 -0.4004,-2.69922 0.5,-1.4 0.3,-1.80078 -0.5,-1.30078 -0.7,0.4 -0.8996,1.7 -0.5996,3 0.5,1.9 0.1,2.40039 -2.5,2.90039 -1.7,0.3 -4.0016,0.59961 -5.1016,0.59961 -1.7,0 -1.7988,-0.3 -0.7988,-1.5 0.8,-1 0.8992,-1.5 0.1992,-1.5 -0.6,0 -1.5,0.80117 -2,1.70117 -0.8,1.4 -2.5996,1.69883 -9.5996,1.79883 -4.7,0.1 -8.8996,-0.29922 -9.0996,-0.69922 -0.3,-0.5 -1.4996,-0.29922 -2.5996,0.30078 -2,1.1 -18.9016,1.9 -21.6016,1 -0.7,-0.2 -1.6992,-1.4 -2.1992,-2.5 -0.8,-1.9 -0.9004,-1.90039 -0.9004,0.59961 -0.1,2.5 -0.3996,2.7 -4.0996,2.5 -2.9,-0.1 -4.3996,-0.70117 -5.0996,-2.20117 -1.1,-2 -1.1004,-1.99844 -1.9004,0.10156 -0.6,1.6 -1.6004,2.09961 -4.4004,2.09961 -2,0 -3.7996,-0.40039 -4.0996,-0.90039 -0.3,-0.5 -1.2992,-0.5 -2.1992,0 -1.4,0.7 -10.7008,0.90078 -13.3008,0.30078 -0.4,-0.1 -0.3996,-1.10117 -0.1,-2.20117 0.3,-1.2 4e-4,-2 -0.5996,-2 -0.6,0 -1.0004,0.80078 -0.9004,1.80078 0.2,1.4 -0.5,1.79961 -3.5,2.09961 -3.1,0.3 -3.8008,0 -3.8008,-1.5 0,-1.5 -0.2,-1.60078 -1,-0.30078 -0.6,1 -1,1.10117 -1,0.20117 0,-0.7 -0.5,-1.20117 -1,-1.20117 -0.5,0 -1,0.7 -1,1.5 0,0.8 -0.4,1.5 -1,1.5 -0.6,0 -1,-0.7 -1,-1.5 0,-0.8 -0.7992,-1.5 -1.6992,-1.5 -1.5,0 -1.4008,-0.2 0.1992,-1.5 1.5,-1.1 1.6004,-1.49961 0.4004,-1.59961 -0.8,-0.1 -1.9004,-0.1 -2.4004,0 -0.5,0.1 -2.3992,0.20078 -4.1992,0.30078 -1.9,0.1 -3.4004,0.5 -3.4004,1 0,0.5 0.4,0.79883 1,0.79883 0.6,0 1,0.70156 1,1.60156 0,1.9 -4.0008,0.99883 -5.3008,-1.20117 -0.4,-0.8 -1.2984,-1.09922 -1.8984,-0.69922 -0.7,0.4 -0.6012,0.99961 0.2988,1.59961 0.9,0.6 -0.1,0.69922 -2.5996,0.19922 -2.2,-0.4 -4.5992,-0.69922 -5.1992,-0.69922 -0.7,0 -1.3008,-0.89961 -1.3008,-2.09961 0,-1.3 -0.3008,-1.60039 -0.8008,-0.90039 -1.3,2 -5.8,2.60039 -7.5,0.90039 -0.8,-0.8 -1.7996,-1.20039 -2.0996,-0.90039 -0.3,0.3 -0.5996,0.1 -0.5996,-0.5 0,-0.7 1.2,-1.00078 3,-0.80078 3,0.3 3,0.3 1.5,-2.5 -1.7,-3.2 -2.6,-3.49883 -4.5,-1.29883 -0.8,1 -1.6008,1.19961 -2.3008,0.59961 -0.6,-0.6 -1.5,-0.40039 -2.5,0.59961 -1.9,1.9 -2.9996,7.8e-4 -1.0996,-2.19922 0.7,-0.8 0.9,-1.5 0.5,-1.5 -0.4,0 -1.3996,0.79883 -2.0996,1.79883 -1.2,1.6 -1.2996,1.5 -1.0996,-1 0.1,-1.5 0.5,-2.79883 1,-2.79883 0.4,0 0.7988,-0.60039 0.7988,-1.40039 0,-1.6 3.9,-1.3 5,0.5 0.4,0.7 1.1,0.5 2,-0.5 0.7,-0.9 2.1016,-1.3 3.1016,-1 1,0.3 2.1,3.9e-4 2.5,-0.59961 0.4,-0.7 0.2988,-0.89961 -0.2012,-0.59961 -0.5,0.3 -2.1004,-0.001 -3.4004,-0.70117 -1.4,-0.7 -3.2984,-0.99961 -4.3984,-0.59961 -2.6,0.9 -8.8008,0.30078 -13.3008,-1.19922 -4.7,-1.6 -4.6004,-1.50156 -2.9004,-3.10156 1.8,-1.8 5.0004,-2.79961 9.9004,-3.09961 4.4,-0.2 6.5008,-1.49922 2.8008,-1.69922 -1.3,-0.1 -2.9004,-3.9e-4 -3.4004,0.0996 -0.6,0.1 -3.1012,0.39961 -5.7012,0.59961 -4.4,0.3 -4.6996,0.19961 -5.0996,-2.40039 -0.037,-0.0937 -0.073,-0.11965 -0.1074,-0.082 z" /></g>
    
<g
   id="g2008"
   inkscape:label="Layer 1 view"><path
     id="path18"
     style="display:inline;fill:#eb831c"
     inkscape:label="Main view"
     d="m 2111.0254,242.17578 c -0.475,0 -1.0262,0.57461 -1.3262,1.72461 -0.6,2.2 -19.0996,10.19922 -23.5996,10.19922 -1.7,0 -3.1992,0.5 -3.1992,1 0,0.5 1.1,1 2.5,1 3.1,0 7.6988,4.30039 6.7988,6.40039 -0.8,2.2 -6.2,2.10025 -6,-0.0996 0.1,-0.9 -0.3996,-1.79961 -1.0996,-2.09961 -0.7,-0.3 -1.1992,0.39961 -1.1992,1.59961 0,1.1 -0.4,2.09961 -1,2.09961 -0.5,0 -1,1.49922 -1,3.19922 0,1.8 -0.1008,4.10117 -0.3008,5.20117 -0.2,1.4 0.3012,2 1.7012,2 2.3,0 4.5,1.2 4.5,2.5 0,1.5 -5.1004,4.4 -7.9004,4.5 -2.2,0.1 -2.6004,0.59883 -2.9004,3.79883 -0.3,3 -0.8,3.80078 -3,4.30078 -1.5,0.4 -5.3992,3.29961 -8.6992,6.59961 -5.2,5.09985 -25.9,18.80078 -28.5,18.80078 -1.7,0 -7,5.20039 -7,6.90039 0,1 -1.6,3.99922 -3.5,6.69922 -1.9,2.7 -4,6.59961 -4.5,8.59961 -0.8,2.9 -2.8008,5.09961 -9.8008,10.59961 -6.1,4.79985 -9.2996,8.10039 -10.5996,10.90039 -1.5,3.4 -3.1,4.70078 -10,8.30078 -20.2,10.59985 -31.4012,17.59937 -37.7012,23.69922 -5,4.79985 -9.2984,7.7 -18.8984,12.5 -12.8,6.39985 -12.9016,6.59976 -15.1016,14.59961 -0.9,3.2 -1.5996,4.20117 -3.0996,4.20117 -1.1,0 -4.6004,0.9 -7.9004,2 -3.2,1.1 -9.1992,2.29961 -13.1992,2.59961 -4.7,0.4 -7.9004,1.20078 -8.9004,2.30078 -0.9,0.9 -2.7988,2.5 -4.2988,3.5 -1.5,1.1 -3.7004,2.79883 -4.9004,3.79883 -3.8,3.3 -9.9012,6.49961 -21.2012,11.09961 -6.1,2.4 -13.5,5.60039 -16.5,6.90039 -3,1.4 -7.3988,2.80117 -9.7988,3.20117 -2.5,0.4 -4.2012,1.2 -4.2012,2 0,1.5 -3.5,2.9 -5,2 -0.5,-0.3 -2.1996,0.6 -3.5996,2 -2.2,2.2 -3.2,2.5 -6,2 -1.9,-0.3 -3.2992,-0.30078 -3.1992,0.19922 0.1,0.4 -0.3,1.8 -1,3 -1,1.7 -2.1012,2.19922 -5.2012,2.19922 -2.9,0 -4,0.40156 -4,1.60156 0,0.9 -0.4,1.29844 -1,0.89844 -0.6,-0.3 -0.6984,0.10039 -0.3984,0.90039 0.4,1.1 0,1.59961 -1.5,1.59961 -1.2,0 -2.4012,0.7 -2.7012,1.5 -0.4,1 -1.2988,1.30039 -2.7988,0.90039 -1.5,-0.4 -2.5004,-3.9e-4 -2.9004,1.09961 -0.3,0.9 -1.1012,1.3 -1.7012,1 -0.6,-0.4 -1.7988,7.8e-4 -2.7988,0.80078 -2.3,1.9 -5.2012,2.89922 -5.2012,1.69922 0,-0.5 -0.9,-0.1 -2,1 -1.1,1.1 -2,2.40078 -2,2.80078 0,1.3 -6.9996,4.09961 -7.5996,3.09961 -0.3,-0.5 -1,-0.59883 -1.5,-0.29883 -1.8,1.1 -5.6004,1.6 -15.9004,2 -5.8,0.2 -10.5,0.4 -10.5,0.5 0,0.1 -3.0988,0.19883 -6.7988,0.29883 -3.7,0.1 -7.1,0.70078 -7.5,1.30078 -1,1.5 -4.2012,2.60039 -4.2012,1.40039 0,-1.8 -1.5,-1.00117 -2.5,1.29883 -0.6,1.2 -1.5992,2.1 -2.1992,2 -0.7,-0.1 -1.1992,0.30039 -1.1992,0.90039 0,0.7 -1.2,0.89922 -3,0.69922 -1.7,-0.2 -3,-0.0996 -3,0.40039 0,0.5 -0.7016,0.80078 -1.6016,0.80078 -0.9,0 -2.2996,0.69961 -3.0996,1.59961 -0.9,0.9 -2.4,1.39961 -3.5,1.09961 -1.8,-0.5 -3.5988,0.59961 -7.2988,4.09961 -0.7,0.7 -2.0004,1.20117 -2.9004,1.20117 -0.9,0 -1.5996,0.4 -1.5996,1 0,0.5 -1.1,1.29961 -2.5,1.59961 -1.4,0.3 -2.5,1.00039 -2.5,1.40039 0,0.4 -1.0012,0.49922 -2.2012,0.19922 -1.5,-0.4 -1.9004,-0.20039 -1.4004,0.59961 0.5,0.7 0.2012,0.90156 -0.7988,0.60156 -0.9,-0.3 -1.5996,-0.20117 -1.5996,0.29883 0,0.5 -1.0012,0.99961 -2.2012,1.09961 -1.2,0.1 -2.5996,0.90117 -3.0996,1.70117 -0.5,0.9 -1.2992,1.3 -1.6992,1 -0.5,-0.3 -1.2,-0.1 -1.5,0.5 -0.3,0.6 -1.5016,1 -2.6016,1 -1.1,0 -2.2,0.59883 -2.5,1.29883 -0.3,0.7 -1.8992,1.4 -3.6992,1.5 -1.8,0.1 -4.9992,0.80039 -7.1992,1.40039 -2.2,0.6 -5.1,1.3 -6.5,1.5 -1.4,0.2 -4.5,0.69961 -7,1.09961 -5.1,0.9 -13.8016,-1.09961 -15.6016,-3.59961 -0.8,-1.1 -3.0992,-1.49961 -8.1992,-1.59961 -3.9,-0.1 -7.1992,-0.5 -7.1992,-1 0,-0.5 -0.6008,-0.19922 -1.3008,0.80078 -1.3,1.7 -3.8992,1.99844 -12.6992,1.39844 -5.4,-0.4 -12,-2.49883 -12,-3.79883 0,-2 -8.3008,-9.09961 -11.3008,-9.59961 -5.1,-0.9 -26.8992,-0.9 -30.6992,0 -1.9,0.5 -6.2,0.99961 -9.5,1.09961 -3.3,0.2 -7.3008,0.80039 -8.8008,1.40039 -1.6,0.6 -3.1996,0.89961 -3.5996,0.59961 -0.4,-0.3 -1.1004,0.2 -1.4004,1 -0.7,1.7 -8.3004,1.89922 -10.4004,0.19922 -0.8,-0.7 -1.1992,-0.59883 -1.1992,0.20117 0,0.8 -0.8012,0.9 -2.2012,0.5 -1.2,-0.4 -2.8,-0.70117 -3.5,-0.70117 -0.7,0 -1.1992,-0.29922 -1.1992,-0.69922 0,-0.4 -0.8004,-0.50078 -1.9004,-0.30078 -1,0.3 -2.6004,-0.19961 -3.4004,-1.09961 -0.9,-0.9 -2.4996,-1.59961 -3.5996,-1.59961 -1.1,0 -2.0996,-0.5 -2.0996,-1 0,-0.5 -0.4004,-1 -0.9004,-1 -1.9,0 -14.4996,-6.30039 -16.5996,-8.40039 -1.2,-1.2 -3.8008,-4.69922 -5.8008,-7.69922 -3.2,-4.99985 -3.9988,-5.70078 -7.7988,-6.30078 -2.3,-0.4 -9.5,-2.89961 -16,-5.59961 -6.5,-2.7 -12.0996,-5 -12.5996,-5 -0.5,0 -2.7008,-1.20117 -4.8008,-2.70117 -6.5,-4.4 -20.9008,-11.99922 -24.3008,-12.69922 -1.7,-0.4 -5.7992,-2.49961 -9.1992,-4.59961 -3.4,-2.1 -6.4996,-3.90039 -7.0996,-3.90039 -0.6,0 -0.7996,-0.30078 -0.5996,-0.80078 0.3,-0.4 -2.0016,-2.49883 -5.1016,-4.79883 -3,-2.2 -6.6,-5.1 -8,-6.5 -5,-5.09985 -25.1,-34.80015 -28.5,-42 -2.8,-5.99985 -5.2984,-9.39976 -12.8984,-17.09961 C 1310.0008,363.80094 1307.8,361.2 1308.5,359.5 c 0.3,-0.9 0.1,-1.59961 -0.5,-1.59961 -0.6,0 -1.3992,0.7 -1.6992,1.5 -0.5,1.3 -0.9004,1.3 -3.4004,0 -1.6,-0.8 -3.9012,-1.5 -5.2012,-1.5 -2.5,0 -7,-2.50039 -10.5,-5.90039 -1.2,-1.2 -2.4984,-2.09961 -2.8984,-2.09961 -1,0 -12.1004,-9.70132 -17.4004,-15.20117 -6.4,-6.69985 -8.0996,-7.19844 -17.5996,-4.39844 -4.3,1.3 -10.0016,2.79844 -12.6016,3.39844 l -4.6992,1.10156 -17.9004,-13.10156 -5.7988,0.60156 c -5.6,0.6 -5.9016,0.5 -10.1016,-3 -2.3,-2 -5.7988,-4.10156 -7.7988,-4.60156 -3.9,-1.1 -7.1008,-3.09976 -15.3008,-9.59961 -2.9,-2.3 -6.0996,-4.19922 -7.0996,-4.19922 -1,0 -2.5996,-0.9 -3.5996,-2 -1,-1.1 -5.2004,-3.59961 -9.4004,-5.59961 -4.2,-2 -8.8008,-4.5 -10.3008,-5.5 -3.2,-2.3 -3.5988,-2.20063 -18.2988,6.19922 -20,11.29985 -21.3012,12 -23.2012,12 -2.7,0 -12.5,6.10054 -17.5,10.90039 -4.5,4.3 -5.4992,4.49961 -12.6992,3.09961 -4.2,-0.8 -4.9,-0.60078 -11.5,3.19922 -3.8,2.3 -11.0992,6.80117 -16.1992,10.20117 -13,8.59985 -25.3008,15.99883 -28.3008,16.79883 -1.4,0.4 -9.2008,0.90117 -17.30078,1.20117 l -14.79883,0.5 -10.5,6.69922 C 963.80054,365.39946 958.29907,367.9 954.19922,368 c -1.3,0 -4.2,0.90039 -6.5,1.90039 -2.3,1 -6.1,2.69922 -8.5,3.69922 -4,1.7 -7.19922,4.70039 -9.69922,8.90039 -0.6,1.1 -3.59961,2.19961 -8.09961,3.09961 -7.39985,1.4 -16.00078,5.1 -18.30078,8 -2.9,3.5 -4.69922,3.70078 -10.19922,0.80078 -2.9,-1.5 -5.50078,-3.00078 -5.80078,-3.30078 -0.8,-0.8 -13.49937,-4.70039 -26.19922,-7.90039 -6.19985,-1.6 -16.70093,-4.7 -23.30078,-7 -6.59985,-2.3 -12.9,-4.3 -14,-4.5 -1.1,-0.2 -6.00015,-1.8 -11,-3.5 -14.89985,-5.1 -22.39883,-7.3 -24.29883,-7 -1,0.1 -5.60132,-0.29844 -10.20117,-0.89844 -4.6,-0.6 -10.8,-1.30039 -13.5,-1.40039 -4.6,-0.2 -5.09922,-0.50117 -6.69922,-3.70117 -1.4,-2.8 -2.7,-3.79883 -6.5,-4.79883 -7.49985,-2.1 -13.29961,-2.99961 -19.09961,-3.09961 -4.89985,-0.1 -5.70078,-0.4 -9.30078,-4 -6.99985,-6.99985 -13.29952,-8.10117 -33.69922,-6.20117 -6.29985,0.6 -9,1.3 -11,3 -6.79985,5.59985 -20.4,12.7 -24.5,13 -5.09985,0.3 -12.50156,2.90078 -15.10156,5.30078 -2.8,2.6 -14.59883,8.90039 -16.79883,8.90039 -0.9,0 -2.00078,0.5 -2.30078,1 -0.3,0.5 -1.29961,1 -2.09961,1 -0.8,0 -3.79922,1.09844 -6.69922,2.39844 -2.9,1.3 -8.10117,3.20117 -11.70117,4.20117 -3.6,1 -7.2,2.3 -8,3 -0.8,0.7 -2.6,1.50039 -4,1.90039 -2.4,0.7 -11.70015,5.09961 -17,8.09961 -8.89985,5 -25.40015,10.40039 -33,10.90039 -1.4,0.1 -3.4,0.5 -4.5,1 -1.1,0.5 -4.99922,1.99844 -8.69922,3.39844 l -6.70117,2.5 3,1.80078 c 1.6,1 3.50117,1.80078 4.20117,1.80078 2.4,0 -4.90054,6.09922 -10.90039,9.19922 -3.5,1.8 -6.2,3.40078 -6,3.80078 3.1,5.5 3.70039,8.19844 2.40039,11.39844 -2.1,4.99985 -6.30054,6.40156 -12.40039,4.10156 -2.6,-1 -7.09961,-3.30117 -10.09961,-5.20117 -3.2,-2 -8.6,-4.09883 -13.5,-5.29883 -5.79985,-1.4 -8.70039,-2.60117 -9.90039,-4.20117 -1,-1.2 -1.80078,-2.49883 -1.80078,-2.79883 0,-0.3 -1.69883,-0.70078 -3.79883,-0.80078 -2.1,-0.1 -5.2,-1.09922 -7,-2.19922 -1.8,-1.1 -5.2,-2.4 -7.5,-3 -3.9,-1 -7.40093,-2.40078 -13.80078,-5.30078 -1.4,-0.6 -4.29961,-2.40039 -6.59961,-3.90039 -2.3,-1.5 -6.1,-3.50039 -8.5,-4.40039 -2.4,-0.9 -4.80039,-1.99844 -5.40039,-2.39844 -0.6,-0.4 -3.39922,-1.50039 -6.19922,-2.40039 -2.9,-0.9 -5.20117,-2.1 -5.20117,-2.5 0,-0.4 -1.4,-1.00117 -3,-1.20117 -2,-0.3 -4.99922,0.60117 -9.19922,2.70117 -3.4,1.7 -7.99922,3.89883 -10.19922,4.79883 -2.2,0.9 -6.7,3.20156 -10,5.10156 C 350.50108,414.60063 338.79907,419.5 332.19922,420 c -3.1,0.2 -8.70015,1.50078 -12.5,2.80078 -3.8,1.3 -8.49844,2.69961 -10.39844,3.09961 -1.9,0.4 -5.30156,1.5 -7.60156,2.5 -5.5,2.5 -21.89874,4.30039 -38.89844,4.40039 -14.6997,0 -20.00039,-0.70156 -22.40039,-3.10156 -0.9,-0.9 -2.3,-1.19883 -4,-0.79883 -3.6,0.9 -17.80039,0.59961 -22.40039,-0.40039 -2.1,-0.5 -3.80078,-0.7 -3.80078,-0.5 0,0.2 -1.8,-0.49961 -4,-1.59961 -2.2,-1.1 -4.79883,-2 -5.79883,-2 -1,0 -4.10078,2.29961 -6.80078,5.09961 -2.7,2.8 -11.70015,10.20015 -20,16.5 -8.29985,6.29985 -18.1,14.2 -22,17.5 -8.49985,7.39985 -11.19961,7.59907 -13.09961,1.19922 -1.3,-4.4 -0.69961,-10.09961 1.40039,-14.09961 1.4,-2.7 0.79946,-2.69883 -4.90039,-0.79883 -6.99985,2.5 -10.69961,1.99961 -14.59961,-1.90039 L 117,444.5 106.19922,450 c -11.49985,5.89985 -16.699686,6.90078 -21.599611,4.30078 -2.999955,-1.6 -5,-5.00156 -5,-8.60156 0,-2.5 -0.199669,-2.49883 -4.099609,-1.79883 -2.29997,0.4 -6.300045,0.69922 -9,0.69922 -4.19994,0 -5.20003,-0.39922 -7.5,-3.19922 -2.499969,-3 -2.799654,-3.10078 -5.099609,-1.80078 C 47.400481,443.19961 41.100736,445 37.800781,444 34.800826,443.2 33.99991,443.50054 28,447.90039 c -3.59994,2.7 -9.099654,5.99883 -12.099609,7.29883 -2.999955,1.4 -7.9008251,4.40117 -10.8007816,6.70117 L 0,466.19922 V 1038 H 2714 V 420.19922 l -9,0.20117 c -4.9,0.1 -9,-0.0996 -9,-0.59961 0,-0.4 -1.3996,-0.50117 -3.0996,-0.20117 -2.4,0.5 -3.5,0.20078 -4.5,-1.19922 -0.7,-1 -1.4004,-1.40078 -1.4004,-0.80078 0,0.6 -1.2008,0.90117 -2.8008,0.70117 -1.5,-0.2 -7.6992,-0.60039 -13.6992,-0.90039 -6,-0.3 -12.7008,-0.90039 -14.8008,-1.40039 -3.3,-0.8 -3.7988,-0.70078 -3.2988,0.69922 0.5,1.3 0.2996,1.30078 -0.9004,0.30078 -0.8,-0.7 -1.9,-0.89961 -2.5,-0.59961 -0.6,0.4 -1,0.1 -1,-0.5 0,-0.8 -0.4996,-0.80078 -1.5996,0.19922 -1.4,1.1 -1.8008,1.10117 -2.8008,-0.29883 -0.9,-1.2 -1.7004,-1.40117 -2.9004,-0.70117 -1.2,0.7 -1.6992,0.60078 -1.6992,-0.19922 0,-0.8 -0.9996,-0.99961 -3.0996,-0.59961 -1.7,0.3 -2.7996,0.29883 -2.5996,-0.20117 0.3,-0.4 -1.2012,-0.69922 -3.2012,-0.69922 -2,0.1 -4.7004,-0.20117 -5.9004,-0.70117 -1.2,-0.5 -3.9,-0.9 -6,-1 -2.1,-0.1 -4.3,-0.59961 -5,-1.09961 -0.7,-0.5 -1.6992,-0.59883 -2.1992,-0.29883 -0.6,0.4 -1.0996,0.0988 -1.0996,-0.70117 0,-1 -0.2004,-1.00025 -0.9004,0.0996 -0.7,1.2 -1.2992,1.10078 -3.1992,-0.19922 -1.3,-0.9 -3.1016,-1.59961 -4.1016,-1.59961 -1,0 -1.7988,-0.5 -1.7988,-1 0,-0.5 -0.8996,-1 -2.0996,-1 -1.2,0 -1.8004,0.39961 -1.4004,1.09961 0.5,0.8 0.099,0.79975 -1.2012,0.0996 -2.3,-1.2 -7.1984,-1.29975 -7.8984,-0.0996 -0.3,0.5 -1.2,0.60078 -2,0.30078 -0.8,-0.3 -2.2,-7.8e-4 -3,0.69922 -1.2,1 -1.5,1.00025 -1.5,-0.0996 0,-0.9 -0.3008,-1.00078 -0.8008,-0.30078 -1.4,2 -4.9,3.00078 -13.5,3.80078 -2.6,0.2 -5.5996,1.19961 -6.5996,2.09961 -1,0.9 -2.2012,1.6 -2.7012,1.5 -0.5,-0.1 -1.1996,-2.5e-4 -1.5996,0.0996 -0.4,0.1 -1.1988,0.4 -1.7988,0.5 -0.6,0.1 -1.1012,0.3 -1.2012,0.5 -0.3,0.3 -4.6,1.00078 -7,1.30078 -1,0.1 -1.7988,0.59961 -1.7988,1.09961 0,0.5 -0.7,0.60078 -1.5,0.30078 -0.8,-0.3 -1.5,-0.1 -1.5,0.5 0,0.6 -0.9,0.79961 -2,0.59961 -1.1,-0.3 -2,-0.20117 -2,0.29883 0,0.9 -8.2,-0.9 -9,-2 -0.7,-1 -10.5,-3 -15,-3 -2.1,0 -4.2,-0.5 -4.5,-1 -0.3,-0.6 -1.1012,-0.69883 -1.7012,-0.29883 -0.6,0.4 -0.8004,0.19961 -0.4004,-0.40039 0.4,-0.6 0.2012,-1.39922 -0.2988,-1.69922 -0.6,-0.3 -1,-0.1 -1,0.5 0,0.6 -0.4,0.8 -1,0.5 -0.5,-0.3 -1.9,-0.8 -3,-1 -1.1,-0.2 -4.8008,-1.70078 -8.3008,-3.30078 -3.4,-1.6 -11.1,-5.29961 -17,-8.09961 -5.9,-2.8 -11.1988,-5.09961 -11.7988,-5.09961 -0.6,0 -1,-0.40039 -1,-0.90039 0,-0.5 -1.2008,-1.4 -2.8008,-2 -1.5,-0.6 -5.0008,-2.39961 -7.8008,-4.09961 -2.8,-1.6 -5.9988,-3.4 -7.2988,-4 -1.3,-0.6 -4.9,-2.20117 -8,-3.70117 -3.1,-1.4 -7.5012,-3.40039 -9.7012,-4.40039 -6.1,-2.7 -17.1992,-7 -18.1992,-7 -0.5,0 -1.8992,-1.09844 -3.1992,-2.39844 -1.3,-1.3 -3.7004,-2.80156 -5.4004,-3.10156 -1.7,-0.4 -3.5996,-0.99883 -4.0996,-1.29883 -1.9,-1.2 -10,-3.09961 -13.5,-3.09961 -6.3,-0.1 -21.6012,-7.30093 -29.2012,-13.80078 -1.8,-1.6 -5.4,-4.3 -8,-6 -4.4,-3 -5.1004,-3.20078 -14.9004,-3.30078 l -10.2988,-0.0996 -2.7012,3.30078 L 2315,342.69922 2300.0996,342 c -8.2,-0.4 -19.5988,-0.70078 -25.2988,-0.80078 -11.3,-0.1 -10.8016,0.1 -22.6016,-8.5 -2.8,-2 -7.2,-4.69961 -10,-6.09961 -2.8,-1.4 -5.9,-3.40039 -7,-4.40039 -1.1,-1 -3.8,-2.49922 -6,-3.19922 -4,-1.4 -5.2984,-3.40054 -6.8984,-10.90039 -0.7,-3.1 -6.8008,-9.69976 -16.3008,-17.59961 -5.1,-4.2 -7.1996,-5.30078 -11.0996,-5.80078 L 2190,284.09961 2189.5,279.5 c -0.3,-2.5 -0.1,-5.7 0.4004,-7 0.7,-1.9 0.6004,-2.89961 -0.5996,-4.09961 -1.2,-1.2 -1.8008,-1.30039 -2.3008,-0.40039 -2,3.2 -34.6004,5.6 -33.4004,2.5 0.3,-0.7 0.2008,-2.40039 -0.1992,-3.90039 -0.5,-2.2 -1.0996,-2.5 -3.0996,-2 -1.5,0.4 -3.4004,0 -4.9004,-1 -1.5,-1 -3.4008,-1.4 -4.8008,-1 -1.8,0.4 -3.0992,-0.20039 -5.1992,-2.40039 -2.3,-2.4 -2.4996,-3 -1.0996,-3 2.7,0 1.2984,-2.49883 -1.6016,-2.79883 -1.9,-0.2 -2.9996,-1.30117 -4.0996,-4.20117 -0.8,-2.1 -1.9996,-4.1 -2.5996,-4.5 -1.1,-0.7 -3.1004,3.40117 -2.4004,4.70117 0.8,1.4 -1.1004,0.8 -6.4004,-2 -3.3,-1.7 -5.2988,-3.4 -5.2988,-4.5 0,-1.15 -0.4,-1.72461 -0.875,-1.72461 z m 19.4746,15.48633 c 0.575,0.1625 1.1492,0.83867 2.1992,2.13867 1.2,1.5 1.8,2.99844 1.5,3.39844 -0.7,0.6 -4.3984,1.20039 -6.8984,0.90039 -2.1,-0.2 -1.4,-3.9 1,-5.5 1.05,-0.75 1.6242,-1.1 2.1992,-0.9375 z m 51.8008,15.63867 h 3.8984 l -4.3984,4.39844 c -4,3.99985 -4.9016,4.40078 -10.1016,4.80078 -4.2,0.3 -5.6992,0.0996 -5.6992,-0.90039 0,-0.7 -0.9,-2.09961 -2,-3.09961 -3,-2.7 -2.5008,-3.49961 2.1992,-3.59961 2.3,0 6.1012,-0.40078 8.2012,-0.80078 2.2,-0.4 5.7004,-0.79883 7.9004,-0.79883 z M 1688.5,526.19922 c 20.3,0.4 23.1008,1.20117 17.3008,4.70117 -1.9,1.1 -4.3004,2.09961 -5.4004,2.09961 -1.1,0 -2.5,0.40039 -3,0.90039 -1.7,1.6 -4.9012,1.80039 -7.7012,0.40039 -1.5,-0.7 -3.1,-1.30117 -3.5,-1.20117 -1.8,0.4 -9.2988,-1.49922 -9.2988,-2.19922 0,-0.5 -0.6004,-0.60078 -1.4004,-0.30078 -0.8,0.3 -2.1004,-0.2 -2.9004,-1 -0.9,-0.9 -2.0992,-1.59961 -2.6992,-1.59961 -0.5,0 -0.7004,-0.49961 -0.4004,-1.09961 0.4,-0.7 6.8,-0.90117 19,-0.70117 z m 77.4746,5.70117 h 0 c 4.6014,0.10046 13.1949,0.8003 18.8925,1.5 17.7996,2.1 30.9993,2.70039 34.6993,1.40039 1.9,-0.6 4.1996,-0.80039 5.0996,-0.40039 1.3,0.6 1.0011,1 -1.7989,2 -5.7999,2.1 -15.2004,8.19922 -16.4003,10.69922 -1,2 -2.1999,2.4 -7.5997,3 -8.6999,0.9 -12.2,1.70078 -14,3.30078 -0.8,0.7 -4.7002,2.5 -8.5,4 -13.1998,5.2 -12.3998,6.40039 4.5,6.90039 15.3997,0.5 47.2001,2.99961 53,4.09961 14.9997,2.9 29.3002,4.4 50,5 6.2998,0.2 16.2001,0.69961 22,1.09961 5.7998,0.4 12.7993,0.80078 15.6993,0.80078 9.2,0.1 8.1005,3.49961 -1.1993,3.59961 -4.4999,0 -5.4004,0.5 -8.9003,4 -3.6,3.6 -3.8008,4.2 -2.8008,6.5 1.2,2.6 3.2011,3.50039 3.2011,1.40039 0,-0.8 0.3989,-0.8 1.2989,0 0.9,0.7 7.4018,0.99883 19.6015,0.79883 16.0998,-0.3 18.8989,-0.10039 23.2989,1.59961 3,1.1 7.3997,1.90078 10.5996,1.80078 3.1,0 7.8016,-0.0992 10.6015,-0.19922 10.0999,-0.2 26.8993,1.19883 28.1993,2.29883 0.9999,0.8 1.3008,0.80025 1.3007,-0.0996 0,-1 0.3001,-1 1.5,0 1.1,0.9 1.5,0.89975 1.5,0.0996 0,-0.8 0.4996,-0.89883 1.5996,-0.29883 0.9,0.5 3.1,0.59922 5,0.19922 1.9,-0.4 3.4005,-0.40025 3.4004,0.0996 0,0.9 2.0989,0.69961 9.7989,-0.90039 5.1,-1.1 5.9007,-1.6 4.3007,-3.5 -0.9,-1.1 -0.6995,-1.49844 0.9004,-1.89844 2.2,-0.6 2.7989,-4.3 0.7989,-5 -0.7,-0.3 0.6007,-0.5 2.8007,-0.5 4.7998,0 17.7989,-1.20117 18.2989,-1.70117 0.2,-0.2 1.6008,0 3.3008,0.5 1.6999,0.5 3.1,0.40025 3.5,-0.0996 0.2999,-0.5 1.5,-0.90039 2.5,-0.90039 0.9999,0 3.2008,-1.39922 4.8007,-3.19922 2.3,-2.6 3.3001,-3 5.5,-2.5 l 2.6993,0.69922 0.1992,27.20117 0.2011,27.19922 0.5997,-54.5 2.6992,-0.0996 c 1.5,-0.1 13.9005,-0.20117 27.4004,-0.20117 l 21.0957,-0.0859 c 0.3605,-1.41858 1.2361,-2.0132 2.0332,-1.83594 0.6535,0.14532 1.2315,0.78202 1.3828,1.82227 h 0.1894 l -0.1855,0.29297 c 0.02,0.29119 0.036,0.58654 -0.014,0.93164 -0.1904,1.31084 -0.5862,2.57363 -1.0937,3.79297 -0.3542,0.88937 -0.881,1.68947 -1.3868,2.49609 -0.4148,0.52494 -0.6166,1.14645 -0.8613,1.75586 -0.2294,0.63511 -0.592,1.21033 -0.8672,1.82422 -0.3308,0.64454 -0.6589,1.2902 -0.9922,1.93359 -0.3664,0.79534 -0.7757,1.56711 -1.2226,2.32032 -0.4944,0.96178 -1.1049,1.84705 -1.7461,2.71484 -0.5547,0.82387 -1.1205,1.64232 -1.7285,2.42773 -0.5664,0.66957 -0.9933,1.43434 -1.5293,2.125 -0.4063,0.48293 -0.6308,1.08363 -0.9063,1.64454 -0.277,0.48339 -0.4366,1.00816 -0.5859,1.5371 -0.1288,0.11088 -2e-4,0.70313 -0.1816,0.70313 -0.019,0 -0.048,0.0915 -0.066,0.0937 -0.3081,0.87688 -0.6098,1.7544 -0.9941,2.60156 -0.4003,0.96305 -0.9476,1.84752 -1.5547,2.69141 -0.5626,0.73135 -1.0833,1.49107 -1.6328,2.23242 -0.6966,0.92134 -1.4469,1.79642 -2.2266,2.64844 -0.776,0.75333 -1.474,1.57978 -2.1386,2.43164 -0.5079,0.66789 -0.8923,1.40458 -1.2637,2.15234 -0.521,0.9632 -1.114,1.88368 -1.7832,2.75 -0.6723,0.69916 -1.2993,1.43681 -1.8652,2.22461 -0.7239,0.87412 -1.4014,1.7864 -2.1446,2.64453 -0.6968,0.7289 -1.2904,1.53929 -2.0176,2.23828 -0.7757,0.73676 -1.6415,1.37059 -2.5781,1.88477 -0.058,0.0328 -0.1246,0.0393 -0.1836,0.0684 -0.3626,0.34974 -0.8177,0.61335 -1.2656,0.83008 -0.037,0.0315 -0.1075,0.0609 -0.1543,0.0762 -0.103,0.0464 -0.2094,0.11001 -0.3086,0.14844 -0.1252,0.0333 -0.5247,0.11296 -0.9043,0.17187 0.1384,0.2241 0.3151,0.42759 0.4121,0.67383 0.1031,0.26172 -0.3765,0.42149 -0.5957,0.59766 -0.3573,0.28699 -0.7889,0.41798 -1.2363,0.46093 -0.4886,0.25582 -0.9593,0.57521 -1.4082,0.88868 -0.1711,0.25899 -0.9071,0.51351 -0.8731,0.86914 -0.2885,0.7106 -0.735,1.34007 -1.1582,1.9746 -0.6195,0.90124 -1.4835,1.58244 -2.3203,2.26954 -0.027,0.0232 -0.053,0.049 -0.08,0.0723 -0.059,0.13315 0.014,0.28871 -0.059,0.4043 -0.5897,0.88462 -0.7656,0.87962 -0.875,0.41992 -0.3673,0.34653 -0.7154,0.7106 -1.0196,1.11524 -0.4918,0.49919 -0.7309,1.11794 -1.0156,1.73828 -0.3488,0.91099 -0.9258,1.68341 -1.4805,2.47265 -0.5122,0.75476 -1.0047,1.50671 -1.4355,2.31055 -0.4207,0.8067 -0.8168,1.62655 -1.2832,2.4082 -0.5679,1.02967 -1.2318,2.00156 -1.9043,2.96485 -0.8674,1.09763 -1.8031,2.14667 -2.7656,3.16211 -0.908,0.95015 -1.8576,1.8591 -2.752,2.82226 -0.6687,0.66818 -1.2958,1.37748 -1.9101,2.0957 -0.563,0.77625 -1.1307,1.54929 -1.7071,2.31641 -0.1461,0.1937 -0.3176,0.36583 -0.4668,0.55664 0.2133,0.44207 -0.033,0.78616 -0.8652,1.03516 -0.3746,0.44452 -0.7215,0.9124 -1.1191,1.33789 -0.8318,0.85713 -1.6369,1.73879 -2.4376,2.625 -0.6304,0.73172 -1.2554,1.4677 -1.8046,2.26367 -0.093,0.13586 -0.2084,0.25856 -0.2813,0.40625 -0.017,0.0342 0.07,-0.068 0.1035,-0.0488 0.036,0.0205 0.022,0.0803 0.02,0.1211 0,0.13646 -0.015,0.27224 -0.027,0.4082 -0.028,0.32663 -0.084,0.78445 -0.1211,1.11328 -0.3006,1.63359 -1.258,2.97867 -2.2871,4.23633 -0.8029,0.93447 -1.6728,1.80947 -2.4707,2.74804 -0.7255,0.78373 -1.2553,1.70177 -1.7734,2.62696 -0.4757,0.87019 -1.005,1.71139 -1.4688,2.58789 -0.4818,0.95118 -0.7951,1.97762 -1.1445,2.98242 -0.5398,1.37739 -1.0512,2.76924 -1.6309,4.13086 -0.4042,0.93326 -0.7713,1.87947 -1.1211,2.83398 -0.3041,0.90355 -0.7114,1.76841 -1.1464,2.61524 -0.5565,0.9845 -1.2296,1.89474 -1.8926,2.80859 -0.736,0.99397 -1.5414,1.93643 -2.3594,2.86328 -0.1443,0.16586 -0.2659,0.35024 -0.4062,0.51954 -0.1781,1.34179 -0.5193,2.25663 -1.0508,1.90234 -0.1651,-0.11006 -0.4344,0.28779 -0.6465,0.32031 -0.4376,0.66568 -0.8776,1.33058 -1.3672,1.95899 -0.3615,0.4714 -0.7381,0.93055 -1.1133,1.39062 0.021,0.0618 -0.1095,0.17568 -0.072,0.23047 0.07,0.11707 -0.1862,0.0122 -0.1876,0.0937 -0.1686,0.20897 -0.3398,0.41611 -0.5039,0.62891 -0.5017,0.67224 -1.1057,1.26028 -1.6171,1.92382 -0.451,0.6204 -0.7997,1.29809 -1.125,1.99024 -0.282,0.87557 -0.7408,1.66817 -1.1875,2.46679 -0.4485,0.76468 -0.7919,1.58063 -1.2012,2.36524 -0.5138,1.0513 -1.3367,1.84766 -2.1563,2.6543 -0.6821,0.67839 -1.4174,1.29294 -2.1386,1.92773 -0.7355,0.57269 -1.482,1.13387 -2.209,1.7168 -0.6692,0.4679 -1.202,1.09893 -1.7988,1.65429 -0.6052,0.56325 -1.2989,1.02726 -1.8965,1.59766 -0.7293,0.75478 -1.6583,1.14712 -2.6368,1.46289 -0.9725,0.37048 -1.9743,0.6498 -2.9707,0.94531 -0.9647,0.23152 -1.8911,0.55844 -2.8046,0.94141 -0.9406,0.46878 -1.8956,0.91963 -2.8008,1.45508 -0.8434,0.48165 -1.6992,0.99342 -2.4336,1.63476 -0.5359,0.51453 -1.0941,0.99562 -1.6699,1.45899 -0.081,0.29639 0.052,0.7832 -0.2618,0.7832 -0.1599,0 -0.1548,-0.24641 -0.2929,-0.32031 -0.9257,0.51581 -1.957,0.82295 -2.9532,1.17773 -1.1246,0.42705 -2.246,0.86041 -3.3671,1.29688 -0.1224,0.0516 -0.2412,0.11147 -0.3633,0.16406 -0.098,0.0298 -0.144,0.0854 -0.2403,0.11133 -0.767,0.33512 -1.5341,0.67475 -2.289,1.03711 -0.8153,0.34805 -1.6294,0.68964 -2.4199,1.0918 -0.9283,0.47279 -1.892,0.86632 -2.8536,1.26367 -1.2813,0.53825 -2.5887,1.00772 -3.8671,1.55273 -1.3245,0.55715 -2.6523,1.11064 -3.9864,1.64453 -1.5118,0.59665 -3.0902,0.98503 -4.6758,1.32617 -0.8941,0.18225 -1.785,0.38879 -2.6757,0.5879 -0.091,0.0809 -0.3662,0.0828 -0.416,0.16601 -0.3,0.6 -0.9997,0.80039 -1.5997,0.40039 -0.2547,-0.15279 -0.2958,0.16052 -0.4589,0.25391 0.2379,0.82556 0.2108,1.24903 -0.7168,1.4082 -0.5455,0.0849 -1.0912,0.16948 -1.6036,0.38672 -0.838,0.33315 -1.6913,0.63002 -2.5546,0.89062 -0.8917,0.30079 -1.8025,0.58251 -2.754,0.56641 -0.2313,-5.5e-4 -0.4558,-0.0439 -0.6835,-0.0684 -0.038,0.008 -0.093,0.16211 -0.1289,0.16211 -0.1238,0 -0.015,-0.15413 -0.1036,-0.18555 -0.1444,-0.0197 -0.2906,-0.0188 -0.4336,-0.0449 -0.4889,0.16389 -0.9743,0.34281 -1.4628,0.50781 v 0.0215 c 0.019,0.0965 -0.1581,-0.0216 -0.1739,0.0391 -0.6671,0.22649 -1.3387,0.44123 -1.9961,0.69336 -0.7517,0.31098 -1.5312,0.53624 -2.3047,0.78516 l -0.4257,0.48242 v -0.33984 c -0.334,0.10284 -0.6556,0.2435 -0.9922,0.33789 -1.2016,0.27363 -2.4,0.55492 -3.5918,0.86718 -0.4535,0.14008 -0.9198,0.23009 -1.377,0.35547 -0.072,1.11524 -0.3309,1.09512 -0.8144,0.21094 -0.4658,0.11573 -0.9227,0.26708 -1.3946,0.35937 -0.7195,0.1114 -1.4229,0.30412 -2.1289,0.48243 -0.6179,0.10508 -1.3105,0.21737 -1.6015,0.72656 -0.6,1 -0.7989,1.00156 -0.7989,0.10156 0,-0.10578 -0.1966,-0.086 -0.2265,-0.18164 -0.5298,0.163 -1.0572,0.33684 -1.586,0.50195 -0.5136,0.19623 -1.0338,0.36413 -1.5507,0.54688 -0.1922,0.59015 -0.3505,1.25277 -0.8379,1.53125 -0.6391,0.39946 -0.7735,-0.0463 -0.5957,-1.02539 -0.053,0.0171 -0.1037,0.0378 -0.1563,0.0547 -0.9902,0.30274 -1.9647,0.64998 -2.9336,1.01367 -0.067,0.0167 -0.6278,0.65685 -0.5136,0.45703 0.083,-0.15165 -0.043,-0.14703 0,-0.26172 -0.9662,0.32605 -1.8978,0.74026 -2.8536,1.0957 -0.8564,0.2667 -1.7087,0.53909 -2.584,0.73828 -1.4864,0.19678 -2.9803,0.3166 -4.4628,0.55469 -1.5806,0.28446 -3.1716,0.50923 -4.7618,0.73242 -0.6521,0.11467 -1.3015,0.24156 -1.9531,0.35743 -0.025,0.0139 -0.037,0.0332 -0.061,0.0469 -1.5431,0.89053 -3.1936,1.6722 -4.9453,2.04102 -0.5546,0.0808 -1.1099,0.12364 -1.6661,0.13476 -0.5954,0.0313 -1.4161,0.28464 -1.6992,0.66211 -0.4,0.4 -1.3,0.39922 -2,0.19922 -0.6868,-0.29432 -2.0455,-0.0835 -3.041,0.49023 -0.9915,0.40839 -1.9386,0.89736 -2.8672,1.4375 -1.2351,0.66186 -2.5436,1.17759 -3.9531,1.30079 -0.7794,0.0274 -2.599,0.0187 -3.3828,-0.48047 -0.3155,0.0818 -0.6234,0.17928 -0.9453,0.24804 -2.3029,0.4167 -4.6278,0.69774 -6.9571,0.91407 -0.03,0.0857 -0.2539,-0.0147 -0.2539,0.0898 0,0.8 -0.2988,0.79922 -0.7988,0.19922 -0.045,-0.0567 -0.374,-0.0689 -0.4531,-0.125 -0.4945,0.0575 -0.9895,0.10819 -1.4844,0.16211 -1.0212,0.39572 -2.0551,0.76208 -3.0605,1.19726 -1.5505,0.77728 -3.0714,1.61245 -4.6192,2.39453 -1.4802,0.73762 -3.0333,1.30755 -4.6133,1.78907 -1.301,0.36141 -2.6428,0.56005 -3.9726,0.78711 -1.1357,0.22226 -2.2953,0.22979 -3.4414,0.35742 -0.6107,0.0896 -1.2258,0.14359 -1.8399,0.20703 -0.6443,0.17498 -1.2582,0.29989 -1.3086,0.13281 -0.065,-0.21658 -0.054,-0.1926 -0.1093,-0.375 -0.4145,0.0913 -0.9041,0.10733 -1.4805,0.008 -1.3162,-0.23285 -2.6428,-0.30652 -3.9766,-0.32032 -1.2406,2e-4 -2.4821,0.0172 -3.7226,0.0274 -1.1877,0.01 -2.3748,0.0126 -3.5625,0.0156 -1.1563,0.002 -2.3123,3.5e-4 -3.4688,0.002 -0.7149,0.002 -1.4292,0.0356 -2.1426,0.0859 -0.1626,0.80384 -0.5652,1.15595 -1.4453,0.75586 -0.9,-0.3 -2.2992,-0.10039 -3.1992,0.59961 -1.2972,1.01926 -1.2841,0.84239 -0.416,-0.75586 -0.1477,0.0257 -0.2956,0.0492 -0.4434,0.0742 -0.693,0.12519 -1.3938,0.17906 -2.0957,0.21484 -0.9645,1.095 -1.7799,1.19913 -2.0234,0.0801 -1.8183,0.0554 -3.635,0.1543 -5.4531,0.22461 -2.2931,0.0784 -4.5886,0.11017 -6.8828,0.13477 -0.9211,0.01 -1.8425,0.0114 -2.7637,0.0156 -0.2456,0.16111 -0.651,0.12297 -0.916,0.004 -0.4427,0.002 -0.8855,0.007 -1.3282,0.008 -1.4974,0.003 -2.9947,0.005 -4.4921,0.006 -1.7064,5.3e-4 -3.4129,-10e-5 -5.1192,0 -1.162,-0.0494 -2.3256,-0.11076 -3.4804,-0.25 -0.386,-0.0465 -0.482,-0.26802 -0.7735,-0.38086 -0.9767,0.088 -1.9543,0.12845 -2.9355,0.0625 -0.9354,-0.12439 -1.8644,-0.29554 -2.791,-0.47851 -0.057,-0.0458 -0.3868,0.24603 -0.3868,0.14062 0,-0.11403 -0.5693,-0.23215 -0.6621,-0.35352 -0.2446,-0.0512 -0.4902,-0.0982 -0.7344,-0.15039 -1.2582,-0.22661 -2.4937,-0.54686 -3.7304,-0.86523 -1.2249,-0.2808 -2.4617,-0.50918 -3.6973,-0.73828 -1.6035,-0.26801 -3.1765,-0.66926 -4.7598,-1.03125 -1.4174,-0.27895 -2.7821,-0.75825 -4.1757,-1.13281 -0.2303,-0.0557 -0.4566,-0.12683 -0.6856,-0.1875 -0.1889,0.0439 -0.2603,0.25976 -0.4551,0.25976 -0.7815,0 -0.6022,-0.24702 -0.3105,-0.4707 -1.006,-0.28574 -2.0078,-0.58748 -3.0117,-0.87891 -1.2122,-0.34089 -2.4451,-0.59367 -3.6739,-0.86523 -0.2769,-0.0277 -0.6801,-0.10149 -0.8652,-0.19336 -0.073,-0.0172 -0.1461,-0.0312 -0.2187,-0.0488 -1.1003,-0.30408 -2.2085,-0.59599 -3.2793,-0.99414 -1.1155,-0.45047 -2.1694,-1.02199 -3.2188,-1.60547 -1.2148,-0.75071 -2.4649,-1.43969 -3.6836,-2.18359 -1.4201,-0.80232 -2.6862,-1.8352 -3.9687,-2.83399 -1.1818,-0.99791 -2.406,-1.94623 -3.6367,-2.88281 -1.399,-1.03827 -2.8208,-2.03174 -4.3067,-2.94141 -1.4544,-0.8306 -2.8114,-1.83911 -4.3008,-2.60546 -1.4186,-0.70182 -2.7916,-1.48958 -4.1933,-2.22266 -1.3325,-0.69977 -2.5723,-1.51508 -3.7129,-2.49414 -1.4227,-1.30715 -2.7148,-2.77164 -4.291,-3.89844 -1.4751,-1.04349 -3.0107,-1.97914 -4.6192,-2.79883 -1.021,-0.51819 -2.0412,-1.03788 -3.0722,-1.53515 -0.2522,-0.0415 -0.3166,0.0259 -0.6368,-0.0469 -2.6519,-0.64824 -4.7164,-1.67504 -6.2187,-2.75976 -0.2193,-0.0339 -0.4487,-0.083 -0.6953,-0.16211 -1.9077,-0.61237 -3.8078,-1.23584 -5.6856,-1.93555 -1.6106,-0.63904 -3.246,-1.22464 -4.8379,-1.91016 -1.5016,-0.7132 -2.8901,-1.64441 -4.2617,-2.57812 -1.2912,-0.90252 -2.6477,-1.70922 -4.0449,-2.43555 -1.5422,-0.76256 -3.1632,-1.34682 -4.7578,-1.98633 -0.6326,-0.23556 -1.2543,-0.4947 -1.877,-0.7539 -0.7987,-0.17873 -1.4451,-0.38892 -1.7578,-0.71875 -0.3695,-0.15272 -0.7368,-0.31192 -1.1094,-0.45703 -1.1439,-0.4195 -2.2596,-0.91069 -3.3671,-1.41797 -0.2556,0.10908 -0.7343,-0.23234 -0.8887,0.11523 -0.2512,0.58608 -0.3911,0.0262 -0.502,-0.7539 -1.2503,-0.58212 -2.4963,-1.17197 -3.7187,-1.81055 -0.1015,-0.0452 -0.235,-0.0893 -0.3223,-0.16211 -0.028,-0.0151 -0.062,-0.0278 -0.09,-0.043 -0.8295,-0.42922 -1.6573,-0.85402 -2.4864,-1.2832 -0.2926,0.61292 -0.44,0.62044 -0.455,-0.24024 -0.4919,-0.25643 -0.9865,-0.51136 -1.4746,-0.77539 -0.7091,-0.38073 -1.4189,-0.76517 -2.1329,-1.14062 -0.3679,-0.0784 -0.6559,-0.25549 -0.8671,-0.44532 -0.6321,-0.3206 -1.2687,-0.63257 -1.9161,-0.91796 -2.2379,-0.90592 -4.5492,-1.63025 -6.8593,-2.32813 -2.5944,-0.736 -5.2024,-1.40498 -7.8125,-2.08203 -0.5312,-0.13778 -0.4512,-0.49393 -0.7832,-0.72852 -2.1079,-0.89605 -4.16,-1.91868 -6.2461,-2.86523 -3.3586,-1.42699 -6.7287,-2.82587 -10.0117,-4.42188 -2.7629,-1.33986 -5.4187,-2.88036 -8.0547,-4.45117 -0.5177,-0.31501 -1.0223,-0.64712 -1.5332,-0.97265 -0.2443,-0.0534 -0.5037,-0.13262 -0.7754,-0.2461 -3.0161,-1.25979 -6.0357,-2.51256 -9.0117,-3.86523 -0.2604,-0.11836 -0.4905,-0.24872 -0.6915,-0.38672 -0.532,0.0809 -1.1378,0.0801 -1.8925,-0.28125 -0.605,-0.2897 -1.2046,-0.59384 -1.8242,-0.85156 -1.237,-0.57024 -2.4685,-1.1562 -3.709,-1.71875 -1.3703,-0.59235 -2.7689,-1.11163 -4.1465,-1.68555 -1.2501,-0.5725 -2.5042,-1.13911 -3.7168,-1.78906 -1.1274,-0.60414 -2.2563,-1.20656 -3.4238,-1.73047 -1.1792,-0.47038 -2.3484,-1.02504 -3.5801,-1.33203 -0.8903,-0.22193 -1.0015,-0.7478 -1.3496,-1.19727 -0.4988,-0.0124 -1.0873,-0.19109 -1.7422,-0.62109 -1.114,-0.7314 -2.1779,-1.5331 -3.334,-2.19922 -1.4705,-0.81356 -2.9593,-1.57435 -4.5195,-2.20117 -1.8088,-0.67546 -3.5175,-1.57785 -5.25,-2.42188 -1.3222,-0.62267 -2.5594,-1.39877 -3.8047,-2.1582 -0.9733,-0.56655 -1.9312,-1.1588 -2.9043,-1.72656 -1.1156,-0.60098 -2.079,-1.43053 -3.0918,-2.18164 -1.256,-1.02619 -2.4861,-2.08186 -3.7363,-3.11524 -0.9369,-0.81289 -1.9013,-1.59563 -2.8711,-2.36914 -0.6839,-0.54304 -1.4243,-0.98934 -2.2051,-1.375 -1.1279,-0.66694 -2.3059,-1.24133 -3.4668,-1.84766 -1.4555,-0.76944 -2.939,-1.48484 -4.4121,-2.21874 -1.3382,-0.63087 -2.5856,-1.41875 -3.8418,-2.19532 -1.3033,-0.7763 -2.5344,-1.68842 -3.8789,-2.39258 -1.2908,-0.72978 -2.5896,-1.44477 -3.8828,-2.16992 -1.1695,-0.61583 -2.3078,-1.29653 -3.4219,-2.00781 -1.3882,-0.86807 -2.7391,-1.79655 -4.0742,-2.74414 -1.3952,-0.94591 -2.8019,-1.86702 -4.1211,-2.91797 -1.1645,-0.78778 -2.3053,-1.60873 -3.4746,-2.38867 -1.1096,-0.80666 -2.2441,-1.57555 -3.3418,-2.39844 -1.2151,-0.82208 -2.3828,-1.7115 -3.5469,-2.60351 -1.4425,-1.04048 -2.9023,-2.05836 -4.3691,-3.06446 -1.2959,-0.95353 -2.6004,-1.90014 -3.8672,-2.89258 -0.9234,-0.75016 -1.8945,-1.42915 -2.8555,-2.1289 -1.066,-0.7901 -2.1206,-1.59691 -3.1738,-2.4043 -1.0656,-0.84668 -2.1846,-1.60689 -3.3457,-2.31445 -1.5033,-0.86715 -3.0126,-1.72557 -4.5254,-2.57617 -1.4012,-0.77338 -2.7854,-1.57438 -4.0918,-2.5 -1.1954,-0.78904 -2.3853,-1.58222 -3.5039,-2.47852 -1.0257,-0.78521 -1.9946,-1.63678 -2.9199,-2.53711 -1.0227,-0.99481 -1.109,-1.89069 -0.834,-2.58789 -0.292,-0.27118 -0.5703,-0.55671 -0.8301,-0.85937 -1.2,-1.39768 -0.9613,-2.74744 -0.1719,-3.32618 -0.5488,-0.63332 -0.7227,-1.47016 0,-2.37109 3.6,-4.5 6.095,-6.69961 10.2949,-9.09961 2.6668,-1.53857 4.2035,-2.32202 4.9707,-2.50781 0.4853,-0.21758 0.9827,-0.40748 1.4864,-0.57813 0.1214,-0.52957 0.734,-1.00549 1.6484,-0.91406 1.3,0.1 1.8945,-0.90078 2.3945,-3.80078 0.1531,-1.0716 0.4464,-1.2741 0.7149,-1.99023 -0.01,-0.0459 -0.022,-0.0893 -0.031,-0.13672 -0.063,-0.31674 -0.1245,-0.63248 -0.1875,-0.94922 -0.2768,-1.45829 -0.6104,-2.90503 -0.9746,-4.34375 -0.2866,-1.13235 -0.1047,-1.98673 0.2988,-2.50586 -1.3891,-3.72878 -2.3506,-4.9874 -5.5175,-5.47461 -2.5592,-0.47393 -3.5864,-1.17618 -3.791,-2.17969 -0.5197,0.11016 -1.1739,0.0585 -1.9356,-0.24023 -0.1294,-0.0507 -0.2575,-0.1031 -0.3867,-0.1543 -0.3293,-0.0552 -0.3699,0.36954 -0.8867,0.0742 -1.1,-0.6 -1.9024,-0.69883 -1.9024,-0.29883 0,0.4 -0.4953,0.2 -1.1953,-0.5 -0.7,-0.7 -2.4023,-1.20117 -3.9023,-1.20117 -1.5,0 -3.0028,-0.69961 -3.3028,-1.59961 -0.3,-0.9 -1.0972,-1.30039 -1.6972,-0.90039 -0.8,0.5 -0.7009,0 0.1015,-1.5 0.5999,-1.2 1.7008,-1.99883 2.3008,-1.79883 0.6,0.2 1.8,-0.20039 2.5,-0.90039 0.2639,-0.26387 0.7323,-0.12433 1.1309,-0.26367 0.3061,-0.40446 0.7723,-0.7929 1.4179,-1.11133 0.1138,-0.0561 0.228,-0.11187 0.3418,-0.16797 0.5623,-0.27728 1.0743,-0.4029 1.5196,-0.41406 1.03,-2.59263 11.0042,-6.37672 13.289,-4.44336 0.8999,0.7 2.0996,0.7 4.0996,0 1.7,-0.7 3.1012,-0.69975 3.7012,-0.0996 0.5,0.5 2.0996,0.59922 3.5996,0.19922 1.5,-0.4 3.4996,-0.59883 4.5996,-0.29883 1.8999,0.4 21.0009,0.4 41.3008,0 5.1,-0.1 9.5988,0.19961 9.7988,0.59961 0.3,0.4 1.0012,0.4 1.7012,0 1.3,-0.9 9.6991,-1.10078 9.1992,-0.30078 -0.2,0.3 1.3008,0.40078 3.3008,0.30078 2,-0.1 14.8004,-0.39961 28.4004,-0.59961 13.5995,-0.2 24.9992,-0.60078 25.1992,-0.80078 0.3,-0.3 2.4008,-0.39922 4.8008,-0.19922 7.3997,0.4 10.5992,0.40025 37.7988,-0.0996 22.9999,-0.4 31.6006,-0.50117 48.9004,-0.20117 1.9,0 3.6008,-0.49961 3.8008,-1.09961 0.2,-0.6 1.1992,-1.19922 2.1992,-1.19922 1,0 3.2992,-0.60039 5.1992,-1.40039 1.9,-0.8 7.5004,-1.99961 12.4004,-2.59961 9.0999,-1.2 12.1004,-2.30171 16.4004,-6.10156 1.7,-1.4 2.0992,-2.29961 1.1992,-2.59961 -0.7,-0.2 -0.9992,-0.90039 -0.6992,-1.40039 0.3,-0.5 -0.7008,-0.89844 -2.3008,-0.89844 -3.8998,0 -14.7984,-3.80156 -16.3984,-5.60156 -1.0994,-1.29926 -0.1969,-1.49825 7.1914,-1.29883 z m 198.4258,219.67383 c -0.01,-0.004 -0.048,0.0619 -0.059,0.0606 0.021,-0.007 0.043,-0.0144 0.062,-0.0215 v -0.0391 z" /><path
     d="m 3499.5953,418.08814 c -0.6,-0.6 -1.1,-0.8 -1.1,-0.5 0,0.3 -1.5,0.2 -3.2,-0.3 -1.8,-0.5 -7.2,-1.6 -12.1,-2.5 -8.3,-1.4 -17.4,-3.8 -25.6,-6.9 -10.8,-4 -29,-8.6 -34,-8.6 -3.6,0 -9,2.5 -10.8,5.1 -0.7,1 -1.9,1.9 -2.7,1.9 -0.7,0 -3.8,1.1 -6.7,2.5 -2.9,1.4 -6.6,2.5 -8.1,2.5 -1.5,0 -9.8,-1.4 -18.4,-3.1 -14.2,-2.8 -29.2,-7.4 -42.8,-13.2 -3.6,-1.5 -8.3,-2.3 -16.5,-2.8 -13.4,-0.8 -14.6,-1.3 -25,-10.4 -6.4,-5.6 -9.1,-7.2 -19,-11 -6.3,-2.5 -13.5,-5 -16,-5.6 -2.5,-0.6 -5.2,-1.3 -6,-1.5 -0.8,-0.2 -9,2.8 -18.1,6.6 l -16.6,7 -10.7,9.9 c -10.2,9.5 -10.9,9.9 -15.2,9.9 -3.2,0 -7,1.2 -13.7,4.4 -13.4,6.4 -16.4,6.9 -35.1,6.3 -14.2,-0.5 -16.5,-0.3 -19.6,1.2 -1.9,1 -6.1,2.3 -9.3,3 -5.6,1.1 -6,1.5 -12.9,9.9 -3.9,4.8 -10.5,12.1 -14.6,16.4 -6.3,6.5 -8.2,7.8 -12.1,8.7 -2.6,0.5 -4.9,0.8 -5.1,0.6 -0.2,-0.2 0.1,-0.4 0.7,-0.4 0.6,0 1.2,-0.6 1.2,-1.4 0,-1.6 -4.9,-1.9 -6.7,-0.5 -0.7,0.6 -1.4,0.6 -1.8,-0.1 -1.4,-2.2 -4.4,-0.9 -7.9,3.6 -2,2.6 -3.6,5.4 -3.6,6.3 0,0.9 -1.6,2.5 -3.5,3.6 -3.1,1.7 -4,1.7 -8.2,0.6 l -4.7,-1.3 -3.8,4.1 c -3.5,3.8 -4.1,4 -7.4,3.4 -3.9,-0.7 -9,-3.8 -13.1,-7.9 -3.2,-3.2 -7.7,-12.8 -6.3,-13.3 0.1,0 0.1,-0.1 0.2,-0.1 -0.5,-0.9 -1,-1.8 -1.4,-2.7 -1.2,-0.5 -1.7,-1.4 -1.5,-2.8 0.1,-0.5 0,-1 -0.1,-1.5 -0.1,-0.3 -0.1,-0.5 -0.2,-0.8 -0.2,-0.7 -0.5,-1.3 -0.9,-1.8 -0.9,-1.2 -1,-1.5 -0.1,-0.7 0.2,0.2 0.4,0.3 0.5,0.4 -0.2,-1.3 -0.4,-2.6 -0.4,-3.9 -0.1,0 -0.3,0.1 -0.4,0.1 -1,0.4 -1.2,-0.5 -1,-3.8 0.4,-5.3 -1.3,-7.1 -7.6,-7.9 -12.4,-1.5 -20.9,-3 -25.2,-4.3 -3.8,-1.2 -5.1,-1.3 -7,-0.3 -1.3,0.7 -6.4,2.1 -11.3,3.1 -8.9,1.8 -9,1.8 -11.5,-0.1 -2.2,-1.7 -13.5,-8.9 -24.8,-15.8 -3.5,-2.2 -4.6,-2.2 -24.5,-2.2 -12.1,0 -20.8,0.5 -20.8,1 0,0.5 -0.9,0.9 -2,0.9 -1.1,0 -2,0.4 -2,1 0,0.5 -1.5,0.1 -3.4,-1 -2.5,-1.5 -3.6,-1.7 -4.2,-0.8 -0.5,0.8 -0.3,0.9 0.4,0.5 1.2,-0.7 1.6,0.6 0.6,1.7 -0.9,0.9 -3.5,-0.3 -2.8,-1.4 0.3,-0.5 -0.2,-0.9 -1,-0.9 -0.8,0 -1.9,0.9 -2.3,2 -0.7,2 -0.8,2 -2.7,0.2 -2.5,-2.3 -7.9,-2.7 -7,-0.6 0.4,1.1 0.1,1.3 -1.4,0.9 -1.1,-0.3 -2.8,-0.1 -3.9,0.6 -1.6,1 -2.5,1 -4.8,-0.2 -1.5,-0.8 -3.2,-1.9 -3.6,-2.5 -1.1,-1.4 -5.1,4.2 -5.2,7.4 -0.1,2.6 0.4,3.6 3.7,7 1.7,1.7 1.6,1.8 -0.8,3.1 -1.4,0.7 -2.5,2.2 -2.5,3.2 0,2.8 4.4,3.3 11.2,1.5 4.4,-1.2 6.4,-1.4 7.3,-0.6 1,0.8 1.9,0.8 3.6,-0.1 1.7,-0.9 2.4,-0.9 2.6,-0.1 0.2,0.6 1.2,1.1 2.3,1.1 1.1,0 1.9,0.4 1.9,0.9 0,0.5 2,0.8 4.5,0.7 2.5,-0.1 4.5,-0.1 4.5,0 0,0.1 -1.9,1.4 -4.2,2.7 -7.5,4.4 -40.5,38.6 -46.5,48.2 -8,12.9 -11,19.1 -15.7,33 -2,5.9 -1.9,5.4 -4.5,17 -1.1,5 -2.7,11 -3.4,13.5 -0.8,2.5 -1.7,6.5 -2,9 -0.4,2.5 -1.5,9 -2.5,14.5 -5.3,28.5 -4.8,53.1 1.5,69.9 6.5,17.2 22.1,35.6 43,50.8 7.4,5.4 28.2,15.6 35,17.2 0.6,0.1 4.1,1.2 8,2.3 3.9,1.1 10.4,3 14.5,4.1 30.3,8.1 76.5,10.2 98,4.3 10.7,-2.9 28.2,-10.2 35.5,-14.7 2.2,-1.4 4.9,-2.9 6,-3.4 2.7,-1.2 19.9,-13.9 23.6,-17.4 1,-1 2.2,-1.8 2.6,-1.8 0.4,0 5,4.2 10.3,9.2 16.5,16 36.1,32.1 55,44.8 5.2,3.5 9.7,6.7 10,7 0.8,0.8 8.9,6 9.4,6 0.2,0 4.4,2.5 9.3,5.5 8,5 46.1,24.5 57.6,29.4 2.6,1.1 6.7,2.9 9,3.9 2.3,1 6.9,3.1 10.1,4.5 3.2,1.4 6.4,2.6 7,2.6 0.6,0 2.9,0.9 5.1,1.9 6.1,2.9 18.5,7.5 34,12.6 7.7,2.5 14.9,5 16,5.5 1.1,0.5 4.7,1.7 8,2.5 3.3,0.9 8.5,2.5 11.5,3.6 3,1.1 6.7,2.2 8.2,2.4 1.5,0.2 3.5,0.8 4.5,1.3 1,0.5 2,0.9 2.3,0.9 0.3,0 3,0.7 6.1,1.6 3.1,0.9 6.5,1.8 7.5,2 1,0.2 2.6,0.6 3.4,0.9 5.3,1.9 23.7,6.4 34,8.4 1.4,0.3 4.1,0.9 6,1.4 1.9,0.5 4.9,1.1 6.5,1.4 1.6,0.3 5.9,1 9.5,1.6 3.6,0.6 8.8,1.3 11.5,1.6 2.8,0.2 5.6,0.7 6.3,0.9 1.6,0.6 38.2,0.5 42.7,0 1.6,-0.2 6.8,-0.8 11.5,-1.4 4.7,-0.6 10.1,-1.4 12,-2 1.9,-0.5 5.1,-1.2 7,-1.5 6.2,-0.9 19.5,-4.7 20.7,-5.9 1.5,-1 1.9,-406.7 0.2,-408.4 z m -496.7,43.8 c -1.8,-1.4 -1.8,-1.4 0,-1.5 1,0 3.1,1 4.6,2.2 1.5,1.2 3.5,2.7 4.5,3.2 1.5,0.9 1.2,1.4 -2.3,4.6 -3.6,3.2 -4.1,3.4 -4.6,1.7 -0.3,-1 -0.1,-2.5 0.6,-3.3 1,-1.2 0.9,-1.5 -0.3,-1.5 -1,0 -1.4,-0.6 -1,-2 0.2,-1.2 -0.3,-2.5 -1.5,-3.4 z m 19.5,15.4 c -6.9,4.3 -12,5.6 -15.4,3.9 -1.5,-0.8 -2.9,-2.3 -3.1,-3.4 -0.3,-1.8 0.3,-2 4.1,-2.1 2.6,-0.1 5.8,-1 7.6,-2.1 3.1,-1.9 5.9,-2 5.9,-0.1 0,0.5 1.2,0.9 2.8,0.9 2.5,0 2.4,0.2 -1.9,2.9 z"
     style="display:inline;fill:#eb831c"
     id="path1740"
     inkscape:label="Egde" /></g></svg>
