<?xml version="1.0" encoding="UTF-8" standalone="no"?>
<svg
   width="3500"
   height="1038"
   version="1.1"
   id="svg353"
   sodipodi:docname="layer6.svg"
   inkscape:version="1.2.2 (732a01da63, 2022-12-09)"
   xmlns:inkscape="http://www.inkscape.org/namespaces/inkscape"
   xmlns:sodipodi="http://sodipodi.sourceforge.net/DTD/sodipodi-0.dtd"
   xmlns="http://www.w3.org/2000/svg"
   xmlns:svg="http://www.w3.org/2000/svg">
  <defs
     id="defs357" />
  <sodipodi:namedview
     id="namedview355"
     pagecolor="#505050"
     bordercolor="#eeeeee"
     borderopacity="1"
     inkscape:showpageshadow="0"
     inkscape:pageopacity="0"
     inkscape:pagecheckerboard="0"
     inkscape:deskcolor="#505050"
     showgrid="false"
     inkscape:zoom="0.48891383"
     inkscape:cx="2095.4613"
     inkscape:cy="560.42595"
     inkscape:window-width="1920"
     inkscape:window-height="1017"
     inkscape:window-x="-8"
     inkscape:window-y="-8"
     inkscape:window-maximized="1"
     inkscape:current-layer="svg353" />
  <path
     d="m1573.361 639.835-.638 2.334-.846-1.334-.846-1.335-.016 3.102-.015 3.102-2.25 3.328-2.25 3.328-6.741 3.644-6.741 3.644-.548.549-.549.549 3.866-.707 3.867-.707 1.189-.735 1.19-.735-.521-.843-.522-.843 1.476.216 1.476.217.563.562.562.563-5.03 3.836-5.031 3.836.83.83.83.83 1.667-.64 1.667-.64v-1.904l.915.566.916.565 3.127-2.631 3.126-2.631.582.581.581.582-2.198 4.217-2.199 4.218-3.025 4.575-3.025 4.576-4.807 3.75-4.808 3.75H1546v2h3.608l4.446-2.849 4.446-2.848 1.905-2.152 1.905-2.151h2.115l-4.925 5-4.925 5h1.838l5.703-4 5.702-4h1.228l-1.639 2.502-1.639 2.502.513 1.961.513 1.961-1.459 1.211-1.458 1.21-3.057 6.577-3.056 6.576-.917 1.75-.917 1.75h.927l1.619-1.619 1.619-1.619.449.448.448.449-1.746 1.692-1.746 1.693-2.709 2.018-2.71 2.019-4.614 6.067-4.614 6.068.823-.364.824-.363 5.132-2.702 5.131-2.701 5.614-6.293 5.614-6.293.119 2 .12 2-.052 8.947-.051 8.947-1.133 2.053-1.134 2.053-3.943 2.75-3.944 2.75H1554v2.333l-.611-.611-.611-.611-5.139 1.864-5.139 1.864-3.259.662-3.258.662.57.922.57.922 2.188-.463 2.189-.463 6-.543 6-.544-2.838 1.581-2.839 1.582.517.516.517.517 3.131-.687 3.13-.688 5.941-4.944 5.941-4.944.093.787.092.786-.169 4.275-.17 4.276-.763 2.724-.763 2.725.815 2.982.816 2.981-2.616 3.775-2.616 3.775-6.232 3.068-6.231 3.068-9.13-.325-9.131-.324.003.715.002.715 1.934 1.035 1.935 1.035h12.013l.528.854.527.854-2.468 1.124-2.469 1.125-.015 1.772-.016 1.771-.734-1.083-.735-1.083-8.25.083-8.249.083-.001.65v.651l4.75 1.033 4.75 1.034 7.272.575 7.272.575 3.728-1.912 3.728-1.911 2.424-2.598 2.425-2.597H1563v3.086l-5.009 4.615-5.009 4.614.456.457.457.456 3.319-2.052 3.32-2.051 2.407-2.563 2.408-2.562h1.769l-.673 1.088-.672 1.089.047 8.39.046 8.391-3.117 3.521-3.117 3.521h-1.532l-4.528 3.056-4.529 3.057-9.575-.468-9.575-.467.402 1.161.403 1.161 3.212-.322 3.211-.322 1.44 1.194 1.439 1.195v1.712l-2.572-1.172-2.571-1.171-.784 1.268-.784 1.269-5.395 1.314-5.394 1.314 9 .126 9 .126-1.435.908-1.435.908-5.817.675-5.817.675-.598.968-.598.968.399.399.399.399 3.451.415 3.451.414 5.5-.761 5.5-.761 3.5-1.599 3.5-1.599 1.984-1.27 1.983-1.27 4.357-2.86 4.356-2.86.934.934.935.935-2.525 3.72-2.524 3.72-.026.705-.026.706-5.019 3.406-5.02 3.405-5.205 1.704-5.204 1.703 3.267.724 3.267.724-3.489 2.368-3.489 2.368-4.308 1.462-4.308 1.463-3.731.7-3.731.7-.548.886-.548.887 3.809.115 3.809.116 1.5.149 1.5.149 2.75-.695 2.75-.694v1.535l-5.5 1.87-5.5 1.869V853h4.05l5.725-2 5.725-2 4.25-2.979 4.25-2.98v1.649l-2 1.81-2 1.81V851h2.304l5.098-5.25 5.098-5.25 2.134-3 2.133-3 .707.674.708.674-2.591 5.158-2.591 5.158v2.629l-3.277 2.853-3.276 2.854-3.974 2-3.973 2-.562.754-.561.754-5.189 1.233-5.188 1.232v1.409l1.212.749 1.212.749 3.538-.237 3.538-.237 5.351-3.019 5.351-3.018.566.565.565.566-4.333 4-4.333 4 .699.699.698.699 4.718-1.257 4.718-1.256 2.904-1.443 2.903-1.442h.457l.062 4.25.061 4.25-3.694 3.257-3.693 3.257-2 .442-2 .442-9.326 2.051-9.325 2.051H1524v1.84l7.108 1.616 7.108 1.617 1.511 1.511 1.511 1.511-.369.292-.369.292-5.799.911-5.799.91-.01 1-.01 1 2.309.65 2.309.651 6.25.099 6.25.1v1.751l-2.499 5.375-2.498 5.374-.988 1.5-.988 1.5-2.389 5.5-2.389 5.5-.607 3.5-.606 3.5-.617 4-.617 4-.525.856-.526.855-2.375-2.562-2.376-2.562V933h-2.333l.56-.561.561-.56-2.264-2.264-2.264-2.264-3.74-2.207-3.74-2.206-1.14.935-1.14.936-3.4-.403-3.4-.402-1.35 1.121-1.35 1.12V924h-4.118l.723 1.17.723 1.17-1.664-.639-1.664-.638v1.691l-4.492-.506-4.492-.506-1.411 1.171-1.411 1.17-.395-1.185-.395-1.185-2.329 1.247-2.329 1.246-.752-1.216-.752-1.216-.43 1.29-.43 1.291-5.941.14-5.941.141-.735-1.068-.734-1.068-.016 1.725-.015 1.725-2.5-.95-2.5-.95-.015 1.225-.016 1.225-.823-1.297-.823-1.298L1454 929.5l-1.323 1.595-.778-1.258-.777-1.257-1.811 1.58-1.811 1.581-3.75-.157-3.75-.156v1.509l-1.389-.533-1.389-.533-5.361-.407-5.361-.408-3.5-.601-3.5-.601-10 .044-10 .044-2.266.345-2.265.344-1.185 1.185L1392.6 933h4.4v1.67l6.466-.146 6.465-.146.503 1.311.503 1.311h4.818l1.236 1.489 1.236 1.489.839-.519.839-.518 1.456 2.779 1.457 2.78h1.682l-.202.607-.202.606 2.452 1.313 2.452 1.312v2.448l1.5.576 1.5.575 1.75-.656 1.75-.655-1.372 1.687-1.373 1.687H1435l-.118.75-.119.75.119 1.309.118 1.309.895-.553.895-.554.764 1.745.764 1.744-.159.75-.159.75h3v2.135l2-.635 2-.635v1.968l-1.25.505-1.25.504 1.309.079 1.309.079-.618 1-.618 1h2.714l3.952 4.494 3.952 4.494 2.759 3.006 2.758 3.006h3.101l-.548.886-.548.887 2.09.546 2.089.546-.659 1.068-.66 1.067H1468v2.143l1.429 1.428 1.428 1.429H1473v3h1.865l.601 1.892.6 1.892 2.173.568 2.174.569-.659.658-.659.659 1.22 1.22 1.221 1.221 1.482.581 1.482.582-1.398.079-1.399.079 3.14 3 3.139 3H1491l-.118.75-.119.75.119 1.417.118 1.416.583-.583.584-.583 1.916 1.916L1496 1019v1.235l3.75 3.66 3.75 3.661 5.95 5.222 5.949 5.222h190.235l-.605-4.25-.605-4.25.946-4 .945-4 3.361-3.316 3.361-3.316-.659-1.065-.658-1.065-.231-4.103-.232-4.103 1.582-1.157 1.582-1.156 1.599-4.78 1.599-4.779 3.874-1.341 3.874-1.341 1.625-1.471 1.625-1.47 3.441-.444 3.442-.444 2.5-.973 2.5-.972 6.662-3.102 6.661-3.102h1.172l4.753-3.38 4.752-3.381 4.052-2.039 4.052-2.039 5.284-4.75 5.284-4.751.813 1.316.813 1.315 1.719-.659 1.718-.659-2.368-1.856-2.367-1.856-3.713-1.985-3.714-1.985-4.286-6.348-4.287-6.348-.604.452-.604.453-2.737-3.253-2.737-3.252-.804.497-.804.497-.605-1.577-.605-1.576v-9.995l-2.896.636-2.897.636-3.726-1.556-3.725-1.557h-10.626l-2.577-.98-2.578-.98-1.112-2.441-1.112-2.441-1.136.436-1.137.436-4.865-5.015-4.865-5.015H1713v-3.577l2-3.923 2-3.923V888.4l1.133-1.133 1.132-1.132.035-15.729.034-15.728-2.917-2.334-2.917-2.334-1-.033-1-.033-4-3.025-4-3.026.406-.697.407-.696-9.195-5-9.196-5-6.661-5.75-6.661-5.75h-8.282l-8.081-1.088-8.081-1.087-2.828 1.942-2.828 1.942-7.382 4.145-7.383 4.146h-5.98l1.373-1.664 1.372-1.663-2 1.041-2 1.041-7.644.698-7.645.698-.664-1.076-.665-1.075 1.809-.006 1.809-.005 3.75-1.042 3.75-1.041v-2.168l-3.468.563-3.468.563-7.179-2.032-7.178-2.031-4.604-2.856-4.603-2.856-2.746-3.487-2.746-3.486 1.746.429 1.746.428 5.5 1.589 5.5 1.589 13.156.174 13.156.175.761-.75.76-.75-.744-.744-.744-.745-5.673-.564-5.672-.564 2.5-.634 2.5-.634 3.75-.603 3.75-.603v-1.783l-3.75.687-3.75.687-5-.067-5-.067-4.5-.78-4.5-.78-6-1.922-6-1.923-1.5-.996-1.5-.996 6.686.647 6.686.647 1.814-.79 1.814-.79 4.328-.219 4.327-.219 1.123-1.123L1607.4 796h4.482l.618-1 .618-1H1605v-3l-2.75-.128-2.75-.127-2.232-.235-2.232-.235-1.268-.963-1.268-.962-4-1.187-4-1.187-2.5-2.255-2.5-2.255-2.75-3.31-2.75-3.309.005-2.674.004-2.673 2.954 3 2.953 3 1.516 1.265 1.515 1.264 2.777 1.056 2.776 1.056.388-.156.388-.156.612.848.612.848 6.145 1.605 6.145 1.604 4.91-.776 4.909-.776 4.079-1.098 4.079-1.098 1.125-1.356 1.125-1.356-2.657.508-2.657.508.674-1.091.674-1.091-7.988.555-7.987.555-5.038-1.209-5.038-1.208V774l4.25-.082 4.25-.082 2.923-.476 2.923-.475 1.827-.978 1.827-.977v-1.88l-2.565.975-2.565.975-3.185-.032-3.185-.032 1.862-1.41 1.862-1.41 5.388-.673 5.388-.673v-1.707l1.664.638 1.664.639-.828-1.34-.828-1.34 1.51.58 1.511.579 4.403-3.933 4.404-3.933-4 1.594-4 1.595-4 .454-4 .454-7.5 1.111-7.5 1.111-2-.038-2-.039-3-1.239-3-1.239-1.68-.186-1.679-.186-3.821-2.87-3.82-2.869-.735-1.053-.734-1.053-.016-5.857-.015-5.857 1.5.576 1.5.575v-1.978l3.988 2.035 3.987 2.034 5.875.614 5.874.614.603-.977.604-.976-5.292-1.27-5.292-1.269-4.673-3.392-4.674-3.391v-1.947l3.59 2.017 3.59 2.016 7.951 1.07 7.951 1.07 3.424-.642 3.424-.642.439-.712.44-.711-4.428.353-4.428.352-2.476-.622-2.477-.621.015-1.731.016-1.731.765 1.204.766 1.205 2.219-.167 2.219-.168v-.344l-2.567-1.682-2.567-1.682-1.229 1.021-1.23 1.02-2.953-.385-2.954-.384-1-.074-1-.073-3.301-3.094-3.3-3.093.404-1.152.404-1.152 1.802.329 1.801.33-4.085-4.641-4.086-4.641-1.01-4.709-1.01-4.709-.012-12.82-.012-12.82 2.203 1.614 2.202 1.613 3 1.973 3 1.974 1.391.003 1.391.004-4.685-4.123-4.684-4.123.426-.426.426-.426 3.825 2.148 3.825 2.149 3.318.263 3.319.264.488-.791.489-.791-2.202-.699-2.203-.699-7.062-4.51-7.062-4.511-.735-1.112-.734-1.113-.016-1.309-.015-1.309 1 .618 1 .618V664h7.178l-2.589-3.077-2.589-3.076v-1.982l2.25.63 2.25.63-2.042-1.812-2.041-1.813-1.276-2.56-1.275-2.56.464-4.046.465-4.047-.897-1.394-.898-1.393-.639 2.335M791.75 678.717l-2.75.416V999l.75.005.75.005 4.75-1.703 4.75-1.702V994h3.07l2.465-1.615L808 990.77v1.366l2.75-1.925 2.75-1.926 1.5.494 1.5.495-.707-.761-.707-.76 2.457-3.221 2.457-3.221v-4.001l1.933-1.749 1.932-1.749-.53-1.38-.529-1.381 1.597-1.597 1.597-1.597.111-2.178.11-2.179-.171-2.166-.171-2.167 1.702-.952 1.702-.953-.476-2.493-.477-2.494 1.807-1.128 1.807-1.129-.543-1.415-.543-1.415 1.793-2.094 1.793-2.094h3.312l3.753-1.568 3.754-1.569 1.055 1.055 1.055 1.055 1.985-1.737 1.986-1.736-.828 1.408-.829 1.407 2.158-.564 2.158-.564-.561.906-.56.907h3.718l1.2-1.2 1.2-1.2v2.513l3.25-1.806 3.25-1.807.5-.5.5-.5 1-.056 1-.056 2.743-.8 2.743-.801-.552-.894-.552-.893h3.389l2.29-2.472 2.291-2.472.507 1.222.506 1.222.66-2.158.66-2.157 2.008-.525 2.008-.525-.588-.952-.588-.951 2.892-1.198 2.893-1.198.502-1.922.503-1.922 1.342.46 1.343.461 3-3.91 3-3.91 1.097-.047 1.097-.046 2.403-2.095 2.403-2.095-.317-1.505-.317-1.506.885.547.885.547 1.403-1.947 1.403-1.946h2.488l1.181-2.25 1.181-2.25 1.375-.811 1.375-.812-.58-.938-.58-.939h2.236l-.532-.86-.531-.861 3.972-1.791 3.973-1.792v-1.814l1 .618 1 .618 1.25-.781 1.25-.781 1.4-.211 1.4-.212.835-1.317.834-1.316.016 1.225.015 1.225 3-.475 3-.475 3.05-.485 3.049-.485-.686 1.112-.687 1.111 1.803-1.009 1.803-1.009 2.733.784 2.733.783 1.101-1.101L959 882.6v2.71l2.006-1.816 2.006-1.815.626.625.625.626 1.808-.968 1.808-.967.649 1.051.65 1.051 1.469-1.219 1.469-1.219 3.692-.211 3.692-.21 4.762-2.171 4.763-2.172 10.737-.964 10.738-.965 2.25-.089 2.25-.089v-1.664l1.75-.002 1.75-.003 4-.67 4-.671.5-.695.5-.695 8.25.056 8.249.056.001.809v.809l.951-.587.95-.588 3.776 2.024 3.776 2.024 1.524-.479 1.523-.48 2.379 3.484 2.379 3.484h2.86l-.55.89-.55.891 9.241 2.239 9.241 2.239 9 2.508 9 2.508 2.623 1.322 2.623 1.323.519-.518.519-.519 3.735 1.56 3.734 1.561 5.624 1.587 5.623 1.588 3.357.377 3.357.376 1.323 1.099 1.324 1.099 3.07.087 3.069.087v1.463l2.524.482 2.524.483.451-.731.452-.731 4.102-.55 4.102-.551 1.923-1.739 1.922-1.74v1.337l3.418-1.428 3.419-1.429.581.582.582.581v-2.134l3.034.21 3.034.21-.503-1.309-.502-1.31 2.718-.118 2.719-.119.75.119.75.118v-2.214l1.427.548 1.427.547 1.233-1.486 1.233-1.486 1.415.543 1.414.542 1.506-1.506 1.506-1.506.816.504.815.503 2.782-1.443 2.783-1.444.821.508.822.508v-1.748l3.25-1.497 3.25-1.497 41.128.164 41.128.164 4.372 2.905 4.372 2.906 4.505 8.492 4.505 8.493 4.282 6.462 4.282 6.463 4.098 1.878 4.098 1.879.85-1.341.849-1.341.016 1.809.015 1.809 1.08-.667 1.08-.668 1.488 2.125 1.489 2.125.998-.616.998-.617 1.402 1.85 1.401 1.85.032-1.473.032-1.472 1.476 2.107 1.475 2.106 3.775.724 3.774.723 5.925.367 5.926.367.574.776.575.775 3 .093 3 .093 4 .407 4 .407.623.853.623.853 1.903-1.018 1.903-1.018 1.474.807 1.474.808 4.5-.69 4.5-.69 3.25.671 3.25.671V934.4l-1.036-1.036-1.036-1.036-4.51.684-4.51.685.653-2.974.653-2.973-1.107.684-1.107.684-.121-1.809-.121-1.809-.016-2.25-.016-2.25H1379v-3.23l-3.695-3.385-3.696-3.385h-1.727l.618-1 .618-1H1368v-2.118l-.821.507-.82.507-3.153-1.917-3.152-1.917-.636-2.531-.635-2.531H1357v-3h-2.786l-.576-1.5-.575-1.5 1.218-.063 1.219-.064-2.25-.904-2.25-.905v-2.608l-3.08-3.737-3.081-3.737.407-1.22.406-1.219-1.831-1.966-1.832-1.966.573-1.806.573-1.805h-2.223l.163-1.25.162-1.25-.119-1.205-.118-1.204-2.554-2.554-2.554-2.554.613-.991.613-.992h-1.973l-1.765-4-1.765-4h-1.948l.619-.619.619-.619-1.203-1.196-1.202-1.197-4.5-2.516-4.5-2.516-2.25.195-2.25.195v-1.862l-2 .635-2 .635v-1.809l-6.25.495-6.25.496-4.652.091-4.651.092.55.895.55.895-2.618-.501-2.618-.5.58.939.581.94-5.683-.606-5.684-.605.479.774.479.775-4.407.171-4.406.17v-1.784l-1.41.541-1.409.541-2.964-1.533-2.963-1.532-.68.679-.68.68.553-1.469.553-1.47-6.25-2.911-6.25-2.91-1.25.204-1.25.205v-2.206l-.815.504-.815.503-5.433-1.592-5.433-1.593-1.1-1.505-1.101-1.505-1.16.717-1.16.717-.827-2.235-.827-2.235-.673 1.09-.674 1.09-3.001-1.498-3.002-1.497.577-.933.577-.933-3.067-.614-3.066-.613v-1.548l-4.031-2.101-4.031-2.101-1.219-.006-1.219-.006-2.673-1.395-2.672-1.394-5.043-1.082-5.042-1.081-1.535.589-1.535.589V808h-3.693l-3.403-1.672-3.404-1.671-.612-.914-.612-.914-.642.104-.643.103-2.495-.626-2.496-.627v-1.901l-1.155.713-1.154.714.598-.967.597-.967-2.372-2.76-2.371-2.76.367-1.907.367-1.907-1.188.229-1.189.23-.026-1.5-.027-1.5-.782-1.25-.783-1.25.809-.03.809-.031-1.771-1.031-1.771-1.031.549-.889.55-.889-2.029-3.785-2.028-3.784v-2.286l-2.055-1.372-2.055-1.372-.229-1.579-.228-1.58-3.535-4.92-3.535-4.921-.161-.769-.16-.77-2.094-2.23-2.094-2.231-2.177-2.815-2.177-2.814-3.25-3.631-3.25-3.631v-1.727l-1 .618-1 .618v-4.236l-.933.577-.933.576-2.557-4.267-2.558-4.268-.01.939-.009.938-2-2.147-2-2.146V720l-.75.118-.75.119-1.417-.119-1.416-.118.615-.615.616-.616-3.589-3.384-3.589-3.385H1098v-1.865l-2.015-.64-2.014-.639.573-.928.574-.928-1.809-.004-1.809-.003-3.294-2.009-3.293-2.008-1.884 1.009-1.884 1.008-1.526-.586-1.526-.585-2.168 1.518-2.168 1.518-2.321-.882-2.322-.883-2.307.614-2.307.615-6-.166-6-.165-3.25-.49-3.25-.49v1.702l-2.902-.107-2.901-.106.418-.681.418-.681-.903-.558-.903-.558-1.166 1.404-1.165 1.404-2.813-.806-2.813-.807-6.635.309-6.635.309v-1.397l-9.75.125-9.75.125-1.75-.879-1.75-.879v1.766l-3 .085-3 .085v-1.542l-3.5-.132-3.5-.131v2.184l-1.25-1.023-1.25-1.023-5.5-.724-5.5-.724-3.25-.05-3.25-.051v-1.895l-1.395 1.158-1.395 1.157-3.855-.611-3.855-.611-3.994-.01-3.994-.009-.68-1.1-.68-1.1-1.763 1.435-1.763 1.436.618-1.651.618-1.652-1.181.18-1.181.179-1.111.695-1.11.695-.66-.66-.66-.66-1.729-.233-1.73-.233-4-.522-4-.523v-.343l-2.752-.326-2.751-.326-2.999-.473-2.998-.473-.015 1.163-.016 1.163-.734-1.101-.735-1.101-2.72-.505-2.719-.504.521.844.522.844-1.802-.643-1.802-.642-.961-.536-.961-.535-3.789-.006-3.789-.007-.001-.554v-.554l-3.75.031-3.749.031-1.25.778-1.25.778v-2.363l-1.25.937-1.25.937-3.275-1.123-3.275-1.123.775-.852.775-.852-1.254.722-1.254.722-3.985-2.239-3.985-2.24-.642.643-.643.643-2.033-1.088-2.033-1.088-3.086-.322-3.085-.322-4.229-.684-4.23-.684.6-.971.6-.971-2.323 1.244-2.322 1.243-.384-1.15-.383-1.149-.958.592-.959.592-1.456-1.208-1.456-1.209v2.315l-2.021-1.081-2.02-1.081-1.046.646-1.046.646-1.312-1.794-1.313-1.795-2.621 1.718-2.621 1.717v-2.164l-.926.572-.926.573-4.329-1.47-4.328-1.47-2.246.169-2.245.17v1.341l-3.25-.319-3.25-.32v-.292l-2.5-.267-2.5-.267-2.75.415"
     fill="#430c14"
     fill-rule="evenodd"
     id="path349"
     inkscape:label="Distant" />
  <path
     d="m2484.291 275.238-.975 1.262.76 32.941.759 32.941.69 9.059.691 9.059.412.687.413.688.113 8.812.114 8.813-3.251 7-3.252 7-2.365 6.348-2.365 6.349.961 1.796.962 1.797 2.962 1.032 2.962 1.033.672 3.579.671 3.579-.693 4.744-.693 4.743-3.061 3.193-3.061 3.194-.477 4.966-.477 4.966 1.618 3.244 1.619 3.244V456h1.767l.49-1.876.491-1.876-2.041-4.717-2.042-4.716 1.295-3.657 1.294-3.658 1.035-1.297 1.034-1.298.823 1.298.823 1.297.016 4.556.015 4.555 2.452 3.323 2.451 3.323-2.451 4.838-2.452 4.839.012 2.283.012 2.283 2.572-4.5 2.571-4.5.43-.43.43-.43-.091 3.43-.09 3.43.7 16 .7 16-.092 5.195-.091 5.195-1.93 3.602-1.931 3.601-2.272-3.192-2.273-3.191-4.669-4.819-4.67-4.819-2.65-1.008-2.651-1.008-1.758.631-1.759.632.593-.669.593-.669-1.749-5.168-1.75-5.168-1.843-.299-1.844-.298-2.588-.224-2.587-.225 1.058-2.801 1.057-2.802-2.229-2.229-2.228-2.229-6.242-.019-6.241-.019-4.25 2.883-4.25 2.883v3.761l1.19 1.905 1.19 1.906-1.229 1.479-1.228 1.48-2.837-1.071-2.837-1.07-3.682 2.172-3.681 2.172h-1.97l-1.876 1.75-1.877 1.75.219 3.154.219 3.153-4.153-3.403-4.154-3.404H2401v3l1.25.035 1.25.036-2.385 1.322-2.385 1.322 1.151.712 1.152.711-.576.931-.575.931h-5.628l-4.877 2.07-4.877 2.069-6.236 3.073-6.235 3.073-13.265-.63-13.264-.63-9.25-.651-9.25-.651V509h-3.778l.139-1.75.139-1.75-4.851-2.316-4.85-2.316.417-.417.416-.417 3.411.978 3.411.979 1.773-.563 1.773-.563v-1.648l-4-1.6-4-1.601v-1.134l.919.568.92.568 1.614-1.614 1.615-1.615-.652-2.144-.653-2.145-1.536-1.75-1.537-1.75-1.095-.001-1.095-.001-2.906-2.499-2.905-2.499h3.193l.624-1.01.624-1.009-2.065-2.626-2.065-2.625v-1.543l1.862.487 1.863.487.531-2.032.532-2.033-.869-.298-.87-.298-1.426-4.75-1.427-4.75h2.68l-.106-2.25-.107-2.25-2.916-3.135-2.916-3.134-.554-6.116-.555-6.115h-1.684l-.57 2.75-.571 2.75-2.114 5.5-2.115 5.5-2.916 4.299-2.916 4.299 1.054 1.269 1.053 1.269-1.528 2.182-1.528 2.182h3.513l-1.2 1.2-1.2 1.2v1.845l1.581-1.312 1.581-1.312-.708 3.939-.707 3.94-1.374 3.372-1.373 3.372v.97l1.633-.627 1.633-.626-6.329 6.766-6.33 6.766 1.629.314 1.63.314 3.067-1.586 3.067-1.586-.007.775-.006.776-1.744 2.554-1.743 2.554-2.167 2.113-2.166 2.112-.584-.583-.583-.583v3.537l-6-.556-6-.556v2.026l-1.191-.736-1.191-.736-4.559.231-4.559.23-.347.988-.347.988-1.39-1.153-1.39-1.153-2.763.689-2.763.69-1.764 1.59-1.764 1.59.581 1.832.582 1.832h-2.253l.687 1.112.687 1.112-1.074.664-1.074.664-.668 3.474-.667 3.474-.053 1.488-.053 1.488-1.408 1.407-1.407 1.408 1.324.839 1.324.839-1.357.016-1.357.015.576 1.5.575 1.5h-2.17l.478 2.5.478 2.5h-1.39v2.912l.634-.391.633-.392 1.317 2.186 1.318 2.185-1.317-1.25-1.318-1.25h-1.992l3.196 3.298 3.196 3.297v2.663l3.42 3.785 3.419 3.785.74-.664.74-.664-.648 1.802-.648 1.802.875-.541.875-.541 1.364 1.681 1.363 1.681-1.5-.832-1.5-.831 5.644 5.889 5.645 5.89 1.668 3.322 1.669 3.322-.695 5.561-.695 5.56-1.826 6.031-1.826 6.031.517.837.517.836h-1.984l.086 3.25.087 3.25 2.046 3.939 2.046 3.939.197 1.561.197 1.561.963 6.431.962 6.43-.503 2.07-.504 2.069-.762 1-.762 1-.702 5-.702 5-1.614 2.5-1.614 2.5.223.75.222.75h-3.063l-.575 1.5-.576 1.5h-2.904l.618 1 .618 1H2253v2.118l-1-.618-1-.618V670l-.75-.212-.75-.213-2.278 1.263-2.278 1.262.544.881.545.881-1.171.723-1.171.724.714-1.154.713-1.155h-2l-.618 1-.618 1h-4l.505.818.506.818-1.842 1.327-1.842 1.328-.379-.396-.379-.395-1.773 1.5-1.772 1.5-2.399 2.432-2.4 2.432.463.749.463.749-1.171.723-1.171.724.813-1.404.813-1.405-4.223 4.36-4.223 4.36.528 1.378.529 1.378-1.132-.238-1.132-.238-1.318 2.5-1.317 2.5-.014-1.417-.015-1.416-.692.692-.693.693-.336 2.202-.336 2.203-1.118 1.022-1.118 1.021.801-1.405.801-1.404-1.035.64-1.035.639-.474 2.48-.474 2.48 1.026.342 1.026.342.161 2.193.162 2.193h-1.911l1.373 1.692 1.372 1.692-1.221-.733-1.22-.733-.624 2.484-.623 2.484.608.985.609.985-2.014.639-2.015.64-.118 1.182-.119 1.183.107.714.106.714-1.345-.516-1.345-.516-.637 4.65-.638 4.651.603 2.401.603 2.402h-5.153l.8-2.16.799-2.161-1.208-5.195-1.207-5.195-1.441-2.895-1.441-2.894-1.257.275-1.258.275.634-1.025.633-1.025h-2.055l.541-1.41.541-1.409-1.94-.616-1.939-.615-7.383.425-7.383.424-5.5 2.18-5.5 2.179-1.565 1.409-1.565 1.408-3.185 1.11-3.185 1.111V729l1.25.015 1.25.016-1.5.947-1.5.947-.106 3.538-.106 3.537h1.83l-.591.956-.591.956 1.449 3.467 1.449 3.468-3.765 3.827-3.765 3.826-4.34 4-4.339 4 .849-1.5.849-1.5-2.631 2.395-2.63 2.396.623 1.009.624 1.009-1.194-.738-1.194-.738-4.152 4.334-4.152 4.333 1.441-2.049 1.442-2.049-2.417 2.549-2.417 2.549-.583.007-.583.008-2.354 1.659-2.354 1.66 2.12.466 2.119.466-2.266-.133-2.265-.133-.296-2.073-.297-2.074-2.703-1.07-2.704-1.07 2.691-.107 2.691-.106.543-.879.543-.878-1.562-3.13-1.561-3.13-2.673-1.452-2.672-1.451 3.25-.04 3.25-.04v-3l-1.25-.039-1.25-.039 3.337-1.45 3.337-1.449-.405-1.215-.405-1.216-3.432-.962-3.432-.962 1.75-.407 1.75-.408v-.923l-1.747-2.667-1.748-2.667 1.588.61 1.588.609 1.41-.892 1.409-.892-1.309-.016-1.309-.015.659-1.067.66-1.067-1.351.253-1.35.253-4.254-.775-4.254-.774.563-.912.563-.911 3.191-.059 3.191-.059-1.884-1.191-1.884-1.191-2.866-2.339-2.866-2.339v-3.378l-2.106-1.803-2.107-1.804 2.108-1.476 2.109-1.477.884.547.885.547 1.131-1.362 1.131-1.363-.61-1.588-.61-1.589-2.157-.66-2.158-.661-1.262-1.01-1.263-1.01 1.158-1.395 1.158-1.395-3.177-3.953-3.177-3.954 1.531.588 1.532.588v-2.494l1.75-1.279 1.75-1.279-2.806-5.542-2.806-5.542 1.205-2.252 1.205-2.252.739 1.998.739 1.997 1.612 1.338 1.612 1.338v-5.115l-1.119-2.815-1.12-2.815-1.379-7-1.38-7-.001-1.45-.001-1.45 1.2 1.2 1.2 1.2h7.367l.547-2.091.546-2.091-2.451.615-2.451.616-2.36-2.361-2.361-2.36-1.684-5.794-1.685-5.795.619-3.664.619-3.665-1.059-2.786-1.059-2.787-1.206.402-1.205.402-1.622 5.429-1.622 5.43-1.791 3.5-1.791 3.5-3.626 4.47-3.625 4.47-.116 1.836-.116 1.835 1.56-.598 1.56-.599-1.944 2.182-1.944 2.181-5 4.84-5 4.84 2.381.021 2.38.022 4.87-3.498 4.869-3.499v1.764l-3.918 3.54-3.917 3.539-2.583 1.692-2.582 1.692V683h4.131l1.98-1.06 1.98-1.059-1.245 1.995-1.246 1.995-.8-.495-.8-.494V686l-.75-.159-.75-.159-1.75.766-1.75.766V690l1.75-.006 1.75-.006 2.899-1.512 2.899-1.512.34.341.34.34-4.489 5.259-4.489 5.259v1.674l-3.551 2.195-3.552 2.195.324 1.636.325 1.637 2.977.115 2.977.116.905.134.905.135-1.903 2.102-1.902 2.103-2.503 1.239-2.502 1.238-2.185-.591-2.185-.591-2.703-2.364-2.704-2.363.679 2.863.678 2.864.087 1 .087 1-.377 1.455-.377 1.454 1.167.046 1.166.045.541.54.54.541-1.937.146-1.938.146-.588-.953-.589-.953-.838.518-.837.518.523-2.002.523-2.001h-3.134l-.947 1.692-.946 1.692 1.608 2.455 1.608 2.454 3.843 2.784 3.843 2.784-4.296.85-4.296.849-.331 1.72-.332 1.72 4.824.009 4.823.01-4.25 2.547-4.25 2.547v4.673l1.509.579 1.508.579 2.63-1 2.63-1 .457.456.456.457-2.059 1.763-2.059 1.762 1.087 1.309 1.086 1.309h-3.177l-3.534 1.685-3.534 1.685v1.591l3.119-.363 3.12-.363-2.87 2.351-2.869 2.352-1.805.616-1.805.616.412 1.165.413 1.165-1.876 2.68-1.875 2.68.974.602.975.602-.508 1.323-.508 1.323 4.052-.405 4.051-.405v1.066l-4.928 2.497-4.928 2.498-.322 2.269-.322 2.27-2.714.313-2.714.313-2.599 3.089-2.599 3.089 1.261.779 1.261.78-2.948.652-2.948.652-1.218.373-1.218.373-.591-.957-.591-.956H2019v6.626l-2.75 2.565-2.75 2.565-2.25 1.157-2.25 1.157v-1.903l-2.75-1.005-2.75-1.004 3.75-.079L2011 801l-.061-.75-.061-.75-4.189-3.024-4.189-3.025-3.191-5.975-3.192-5.976.928-.937.929-.937 2.263 2.038 2.263 2.038 1.75.618 1.75.617v-1.704l2.129-.557 2.129-.556-3.461-4.045-3.462-4.044-2.769-5.088-2.769-5.087 4.003 2.042 4.004 2.043 1.284-1.547 1.283-1.546-1.435-.909-1.436-.908-.562-.016-.562-.015-2.214-2.995-2.214-2.995-1.821-5.849-1.82-5.849 4.399 2.459 4.398 2.458.528-.528.528-.527-1.593-2.432-1.593-2.431-3.013-8.255-3.013-8.255-1.546-2.991-1.547-2.991.602-1.568.602-1.569 2.911 2.789 2.911 2.789 1.559-.599 1.56-.598v-1.849l-1.547-.594-1.547-.593.297-1.532.297-1.531-2.388-1.232-2.388-1.232.224-.888.223-.888-1.336-.938-1.335-.938 1.5.451 1.5.451-.238 1.089-.238 1.089 1.482-.569 1.483-.569-.665-1.145-.664-1.145-2.823-4.17-2.823-4.17 3.078 1.536 3.077 1.535 1.145-1.145 1.145-1.145-2.752-2.22-2.752-2.221-.394-2-.395-2-1.109-4.848-1.109-4.848 1.094-6.034 1.094-6.034-1.068-1.068L1993 670.6l-.015 1.45-.016 1.45-.835-1.318-.836-1.318-1.279 4.568-1.279 4.568h-1.605l-.677 2.132-.677 2.132-.875-1.382-.875-1.382-.016 3.168-.015 3.168-.607 1.582-.607 1.582h-2.904l.619 1.002.619 1.002-2.56.973-2.56.973v1.168l1.25-.625 1.25-.624-4.75 4.37-4.75 4.369v1.512l2.962-.467 2.962-.467-1.446 2.207-1.446 2.207-3.266 2.432-3.266 2.431-1.25-.275-1.25-.276v1.594l3.026 2.857 3.027 2.856 2.115-.553 2.114-.553-3.254 3.358-3.254 3.357-6.363 4.336-6.363 4.336-.024 1.25L1954 737h3v2.178l3.25-2.713 3.25-2.712 1.215-2.127 1.214-2.126.036 1.115.035 1.115-1.967 2.501-1.967 2.501.467.634.467.634-.684-.518-.685-.517-3.146 3.05-3.147 3.05-4.919 1.867-4.919 1.867.253.82.254.819 6.7-.099 6.7-.1-3.689 3.381-3.689 3.38-2.514.125-2.515.125-1 .25-1 .25-.833.125-.834.125v3h5.067l-1.033 1.033-1.033 1.033-3.917.346-3.917.346-.302 1.991-.303 1.99 2.125.556 2.125.556 3.583-.582 3.583-.581-.784 1.268-.783 1.268 1.29.797 1.29.797-1.626 1.627-1.627 1.626-.285-.087-.286-.088-4.272.684-4.272.683-.487.788-.487.788 1.42 1.42 1.42 1.42 7.089-.444 7.089-.445v1.849l-2.404 2.09-2.403 2.09-7.847 1.967-7.846 1.967-.307 1.538-.307 1.538 2.182.693 2.182.692.86-1.357.859-1.357.016 1.321.015 1.322-1.634 1.634-1.634 1.634 1.059.353 1.06.353 4.171-2.128 4.172-2.129.456.456.455.456-3.302 2-3.303 2-2.25.681-2.25.682v2.929l-2.25.833-2.25.832.165.774.164.773 1.336.847 1.335.846 3 .111 3 .111-4.5 1.366-4.5 1.366-2.816.574-2.817.574.329 1.707.328 1.707 2.988.639 2.988.639-1.551.119-1.55.118-2.701 1.25-2.701 1.25-.598 1.851-.598 1.85.85.767.849.768 3.18.593 3.179.593.492-1.211.491-1.211.079 1.269.079 1.269 2.75-.54 2.75-.54-2.5 1.214-2.5 1.213-4.937 2.307-4.937 2.308-1.563.015-1.563.016 1.405.889 1.405.889-5.122 2.596-5.122 2.595h-1.201l.635-2 .635-2h-2.017l-.586.949-.587.949-3.08-.39-3.08-.39-.455-.454-.455-.455 3.04-1.517 3.04-1.516 1.91.499 1.909.499.77-1.244.769-1.245-2.157.564-2.156.564v-2l2-.523 2-.523V824h-3.869l-6.953 1.463-6.953 1.462-6.16-.992-6.16-.992-.703.404-.702.405-2-.805-2-.804 3.816-.071 3.816-.07 8.756-2.081 8.756-2.081 1.306-.807 1.306-.807-.755-1.223-.755-1.222-6.623.638-6.623.637-5.063.589-5.063.588-4.437-2.228-4.437-2.229-2.25-2.061-2.25-2.062V805h2.28l1.11 1.517 1.11 1.516 6 1.812 6 1.811 6.651.238 6.65.237.614-.994.614-.993-2.264-.672-2.265-.673-9.127-4.387-9.127-4.388-1.727-2.635-1.726-2.635 1.353.809 1.354.809 2.757 2.007 2.757 2.007 1.153-1.153 1.153-1.153-2.41-2.124-2.41-2.123 2 .653 2 .653 5 .515 5 .515 3.5.222 3.5.222 3.75-.928 3.75-.928V793h-5.897l-8-2.527-8.001-2.528-1.811-2.302-1.811-2.303-.998.333-.998.332-3.992-3.457-3.992-3.457 2.5.318 2.5.318 5.5 2.627 5.5 2.626 5.833.01 5.834.01-.376-1.127-.376-1.128-5.457-2.1-5.458-2.101 6.5-.615 6.5-.615 3.822-1.636 3.822-1.636-.631-1.021-.631-1.021h-12.029l-7.677-2.559-7.676-2.558-6.812-4.546-6.812-4.547.361-.36.36-.36 6.321 2.553 6.321 2.553 14.131.03 14.13.031 2.831-1.125 2.832-1.124-.406-1.217-.405-1.216-2.426-.688-2.426-.689 2.298-.718 2.299-.719-.358-1.62-.358-1.621-1.44.381-1.441.381-4.5.926-4.5.925-4.5-.595-4.5-.595-3.713-.538-3.713-.538-2.787-.838-2.787-.837 2.185-.086 2.185-.086 2.815-1.116 2.815-1.116 3.544-.247 3.545-.247 1.955-1.137 1.956-1.136 2.75-.976 2.75-.975V739h-8v-3h-10.882l-.618-1-.618-1h-4.764l-.618-1-.618-1h-3.995l-4.943-4.866-4.944-4.867.015-1.383.016-1.384.734 1.101.735 1.1 4 2.504 4 2.504.76.125.761.125 2.989 1.546 2.99 1.546v-1.001l2.62.995 2.619.996 4.859.11 4.859.109 6.573-1.88 6.573-1.88 2.698-2.905 2.699-2.904-1.085.612-1.086.612-7.557 1.561-7.557 1.56-4.56-.47-4.56-.469-3.797-2.005-3.798-2.004 5-.118 5-.119 2.303-.427 2.303-.428 2.947-1.524 2.947-1.523v-3.182l-2.25.71-2.25.71-3 .512-3 .513 4.147-3.117 4.147-3.117.627-1.632.626-1.632-.37-.37-.37-.37-3.708 1.549-3.708 1.549-5.196 1.002-5.195 1.001-6.115-.64-6.115-.639-2.718-2.336-2.719-2.336-.504-7.895-.505-7.896 1.838-.072 1.838-.073 3.403 1.525 3.403 1.526 7.884-.456 7.884-.457 1.163-1.163L1890.4 689h-6.592l-5.248-1.526-5.248-1.525-1.737-1.271-1.738-1.27 8.909.881 8.909.881 4.237-1.141 4.237-1.141-.394-1.184-.395-1.183-3.92.364-3.92.364-1.5.079-1.5.079-4.5-.829-4.5-.828-4.308-3.086-4.308-3.086-3.28-4.567-3.281-4.566-.566-4.222-.567-4.223.739-.456.739-.457 4.416 2.206 4.416 2.207h24l2-.84 2-.84-7.39-1.9-7.391-1.901-5.323-.223-5.324-.222 1.214-.772 1.214-.771 2.203-.016 2.203-.015 2.547-1.161 2.547-1.16V648l-3.25-.128-3.25-.127-2.222-.235-2.221-.234-4.573-1.281-4.573-1.28-2.864-3.474-2.864-3.475-.415-4.633-.416-4.633.306-.399.306-.398 3.768 2.548 3.768 2.549 2 .577 2 .577 1.396-.876 1.395-.876-3.082-1.594-3.082-1.594-.71-1.257-.71-1.257 1.346 1.25 1.347 1.25h11.6l-.011-.75-.01-.75-10.003-4.84-10.002-4.841-.987-1.844-.987-1.844v-4.012l2.624 1.361 2.625 1.362 1.375-.528 1.376-.528-.002-.643-.003-.643-3.022-3.5-3.023-3.5-1.531-5.197-1.53-5.198-1.319.507-1.319.506-1.874 4.191-1.874 4.191-2.708 2.5-2.707 2.5-3.433 2.959-3.432 2.959.495 1.291.496 1.291h2.856l2.715-1.685 2.715-1.684 2.411-2.066 2.412-2.065-.494 1-.493 1-1.746 3.815-1.746 3.816-2.965 4.393-2.965 4.394-4.137 3.541-4.137 3.541H1829v3.063l1.492.572 1.491.573 3.566-2.104 3.565-2.104h1.131l-1.245 1.5-1.245 1.5h3.821l3.462-2.959 3.462-2.96.5-.04.5-.041-.095 3.198-.094 3.198-1.156.386-1.155.385v2.903l-1.742 2.715-1.742 2.715-.708 1-.708 1-3.732 4.322-3.732 4.323-3.915 1.997-3.915 1.998.465.464.465.465 4.355-.978 4.355-.979.422.423.422.422-1.902.772-1.903.771-3.243 1.966-3.242 1.965V668h2.923l-4.212 3.975-4.211 3.975 2.8.025 2.799.025 2.899-1.499 2.899-1.499 4.301-2.907 4.302-2.906 3-3.73 3-3.73.8-1.364.799-1.365h1.493l-.046 10.904-.046 10.903-2.743 2.542-2.742 2.542-6.523 3.113-6.523 3.113-5.049 1.499-5.048 1.5.415 1.192.416 1.192 4.398-.277 4.399-.276 2.5-.54 2.5-.539-1.901 1.413-1.902 1.414 1.171.723 1.171.724 3.731-1.231 3.73-1.23 4.146-3.465 4.146-3.465.654-.126.654-.125.148 9.814.149 9.815-2.835 3.553-2.835 3.554-5.382 2.464-5.381 2.463-8.982-.07-8.982-.07v1.931l2.38 1.559 2.38 1.56 5.858.07 5.858.07-3.488 1.763-3.488 1.764-4.5.643-4.5.643-3.25-.943-3.25-.943.015 1.18.016 1.18.79 1.245.79 1.244 11.836.965 11.836.965 5.451-3.618 5.45-3.618.513-1.336.513-1.336.951.589.952.588-5.167 5.462-5.166 5.463.535.535.534.535 1.951-.619 1.95-.62 3.625-3.52 3.625-3.52.13 1.798.129 1.798.325 7.195.324 7.196-4.843 4.054-4.843 4.055h-1.502l-1.234 1.688-1.235 1.689-9.375.276-9.376.276-1.25.036-1.25.035v3.187l2 .523 2 .523v1.676l-3.75.624-3.75.623-1.25.391-1.25.39v2.638l3.198.243 3.197.244.469.469.469.469h-4.088l-1.135 1.367-1.135 1.368 1.536 1.274 1.535 1.274 6.973-.648 6.974-.648 4.253-1.663 4.254-1.662 3.644-2.831 3.644-2.831h1.555l1.834-1.661 1.835-1.66.394.41.393.411-2.004 4.237-2.005 4.238-5.959 3.979-5.959 3.979-3.436.645-3.436.645v1.642l2.086.662 2.085.662-2.147 2.286-2.148 2.286-7.188 2.164-7.188 2.165-1.5.814-1.5.814v1.782l5.5.5 5.5.5-2.75.769-2.75.769v3.222l4.25-.484 4.25-.485 4.665-2.132 4.664-2.131 1.635-1.635 1.635-1.635-.658 2.621-.658 2.621h3.835l1.579-1.25 1.579-1.25 4.612-6.36 4.612-6.36v1.991l-1.494 2.865-1.494 2.864-.006 2.146-.006 2.147-3.326 2.92-3.326 2.92-6.586 3.684-6.587 3.683h-5.057l-.718 1.162-.718 1.162 2.128 1.723 2.128 1.724 4.781-1.011 4.781-1.011.5-.725.5-.725 2.371-1.249 2.37-1.25-.809 1.35-.81 1.35-1.811 1.307-1.811 1.306v2.673l1.582.607 1.582.607h3.116l1.11-1.437 1.11-1.437 3.823-.688 3.822-.688-.322 3.343-.323 3.343-3.398 2.282-3.398 2.282.898.081.898.082-11.942 3.378-11.942 3.378-4.832.22-4.831.221.334 1.001.334 1.001 3.439 1.243 3.44 1.243 3.059.076 3.059.076 1.94 1.419 1.94 1.418-2.999.685-2.999.686-2.932.692-2.932.692-.36 1.081-.361 1.081 1.793.735 1.792.736 8 .637 8 .638.32 2.25.319 2.25h2.231l6.815-3.527 6.815-3.527v5.809l-1.441 1.196-1.44 1.195.519 1.354.52 1.354-2.079 4.7-2.079 4.7v4.501l-1.441 1.196-1.44 1.195.518 1.35.518 1.351-2.067 1.106-2.067 1.106-1.552 3-1.551 3 .6.97.6.971h-1.841l-3.266 7.75-3.266 7.75-1.787 5.158-1.787 5.159-3.836 3.546-3.835 3.547-5 2.706-5 2.706-3.752 2.925-3.752 2.924-.646 4.039-.645 4.038-5.75 7.126-5.749 7.126-2.646 2.464-2.645 2.464-2.207-1.263-2.208-1.263 2.351 2.041 2.352 2.042-1.702.653-1.703.653-.813-1.315-.813-1.316-5.284 4.751-5.284 4.75-4.052 2.039-4.052 2.039-4.752 3.381-4.753 3.38h-1.172l-6.661 3.102-6.662 3.102-2.5.972-2.5.973-3.442.444-3.441.444-1.625 1.47-1.625 1.471-3.874 1.341-3.874 1.341-1.599 4.779-1.599 4.78-1.582 1.156-1.582 1.157.232 4.103.231 4.103.658 1.065.659 1.065-3.361 3.316-3.361 3.316-.928 4-.929 4 .521 4 .521 4 897.25.251 897.25.25V429l-.75-.083-.75-.084-2.5-.424-2.5-.423-11-.293-11-.292-3 .888-3 .887-1.5.605-1.5.605-1.069.074-1.07.073-2.43 1.555-2.431 1.556-4 1.597-4 1.597-4 1.77-4 1.77-.5.077-.5.076-1.5.952-1.5.952-5 2.584-5 2.583-3.738 2.449-3.737 2.449-.127 2-.126 2-.338 2.903-.338 2.904-.504 1.314-.505 1.315.973.601.973.601-.572.925-.571.925-.343 5.256-.342 5.256-.74 1.829-.739 1.828.029 2.672.029 2.671.108 1.257.108 1.256 7.192 4.61 7.193 4.61 1.057.162 1.058.161 1.312.82 1.312.819-3.312 2.435-3.312 2.435-.553 4.53-.553 4.531.635.392.635.393.065 11.936.064 11.935.686 3.125.687 3.124 4.417 5.175 4.417 5.174v2.31l-2 1.81-2 1.81v2.298l-2.838 4.475-2.838 4.475-7.412 1.708-7.412 1.707-4.336.655-4.335.655-.555 1.609-.554 1.608-3.468 7.5-3.467 7.5-1.548 1.75-1.547 1.75h-18.372l-1.254-5.607-1.255-5.606-1.365-3.267-1.365-3.266-2.289-.613-2.29-.614-2.5-.044-2.5-.044 1.71-.997 1.71-.996.682-3.64.683-3.64-4.392-13.281-4.393-13.282-2 .698-2 .699-16.978-.27-16.977-.269-1.523.67-1.522.671-1.5.325-1.5.325-3 .14-3 .141-3 1.091-3 1.092-1.286 1.257-1.287 1.257-1.448 3.467-1.449 3.466-1.015.628-1.015.627v18.547l4 3.215 4 3.214v1.929l-6.525 2.988-6.525 2.989h-1.807v10.823l-1.597 3.089-1.597 3.088-2.725-.1-2.724-.099-2.5-.745-2.5-.744-1.5 1.204-1.5 1.204-5.5 3.014-5.5 3.015-6 3.523-6 3.523-1.869 1.852-1.869 1.853-3.268 5.166-3.268 5.165.154 4.585.155 4.584H3235v3.191l-2.191 3.077-2.19 3.076-6.31 6.31-6.309 6.309v2.154l-3.462 3.692-3.461 3.691-2.789 3.084-2.788 3.083-2.377 1.27-2.377 1.269-.623-.853-.623-.853-4-.191-4-.191-3.282-.61-3.282-.611.259-1.198.259-1.199-1.624-4-1.623-4-2.86-2.5-2.86-2.5-3.493-1.373-3.494-1.372-3-.011-3-.01-4.5 1.674-4.5 1.674-1.662 1.961-1.663 1.962.493 3.127.493 3.127-6.255-4.879-6.256-4.88-3.048-2.75-3.048-2.75h-1.638l-1.208-1.019-1.208-1.018-2.455-2.027-2.455-2.027-3.331-2.058-3.33-2.058-10.047-1.405-10.047-1.404-.832.514-.832.514-.343-1.028-.343-1.028-2.992-.532-2.993-.531-3.691-2.542-3.692-2.542-.907.561-.907.561-1.902-1.753-1.901-1.752-3.25-1.334-3.25-1.335v-1.507l-3.25-.8-3.25-.801-2.101-.173-2.101-.174-1.142-.706-1.142-.706-4.206-.507-4.206-.507-1.215-1.734-1.215-1.735-4.086-4.086-4.086-4.086-.017-.867-.018-.868-2.482-2.355-2.483-2.355V614h-2.887l-3.307-4.109-3.306-4.109-1.5-1.427-1.5-1.427-8.5-8.322-8.5-8.322-1.75-2.153-1.75-2.154v-1.971l-3.616-4.003-3.617-4.003H2987v-1.725l-5.359-.63-5.359-.629-3.688-1.541-3.688-1.541-1.203.203-1.203.203-5-.812-5-.812-3.92-1.374-3.921-1.374-2.874-.506-2.875-.506-3.205-1.747-3.205-1.747-6.191-4.145-6.191-4.145-2.183-.693-2.182-.692-3.619-2.144-3.62-2.143-4.477-1.151-4.478-1.152-12.085.439-12.084.439-2.95-3.287-2.949-3.288-1.891-2.937-1.891-2.937-3.044-2.561-3.044-2.561-3.478-3.76-3.478-3.759-6.082-2.23-6.083-2.23-.75.237-.75.238v-2l-1.75-.015-1.75-.016-1.244-.79-1.244-.789-.922-4.445-.923-4.445-.529-2-.528-2-.902-3-.903-3 1.921-2 1.921-2-.563-2.822-.563-2.821-3.068-4.273-3.069-4.273 1.743-3.656 1.743-3.655h1.901l2.364-2.552 2.365-2.551v-1.958l-4.25-7.151-4.25-7.152.201-.67.2-.67-2.016-7.898-2.016-7.898-.185-1.5-.184-1.5-1.5-1.617-1.5-1.618-3.975-.72-3.975-.72-3.525-.348-3.525-.347-7.315-1.565-7.316-1.565-19.684.037-19.685.037-6.5 1.383-6.5 1.384-7.281 2.04-7.282 2.04-1.08.667-1.081.668-.853-1.378-.854-1.378-4.808 2.575-4.808 2.576-2.727-.909-2.726-.909v-1.77l-1.399.537-1.399.536-.66-1.068-.66-1.068h-11.073l-2.655 1.869-2.654 1.869-2.25.698-2.25.699v1.41l-3.75 1.976-3.75 1.976-1 1.203-1 1.204-6.793 4.979-6.794 4.979-.948.319-.948.319-.366 3.153-.366 3.153-3.453 3.555-3.452 3.555-3.94.574-3.94.574-1.797-2.532-1.796-2.532h2.711l1.731-1.266 1.731-1.266-1.613-3.234-1.613-3.234-1.177-.118-1.177-.119-.83.145-.83.145-5.371.457-5.372.458-.798.134-.799.135-1.917-.119-1.916-.118.69-.69.69-.69 4.727-.377 4.726-.376 3.788-2.596 3.788-2.595-.788-.754-.788-.753-2.5-.406-2.5-.406 2.75-1.154 2.75-1.153v-2.119l-5.067.672-5.068.673-4.182-1.356-4.183-1.355-2.276-1.152-2.276-1.153 2.984-.596 2.984-.597 3.537 1.478 3.538 1.478 2.004-1.252 2.005-1.252v-2.384l-1.868-.593-1.868-.593-1.787-1.975-1.787-1.974h9.865l2.472-1.646 2.473-1.647 1.25-1.544 1.25-1.545v-1.568l-2.565.975-2.565.975-4.185-.045-4.185-.045-3-1.374-3-1.374 1.75-.081L2627 411v-2.882l-1-.618-1-.618v-2l.853.527.852.527 1.826-1.335 1.826-1.335-2.459-2.459-2.46-2.46 2.281-1.72 2.281-1.72V392l-2.25-.022-2.25-.022 2.281-1.756 2.282-1.756.218-2.948.219-2.948-6.225-3.024-6.224-3.024-.026-.75-.025-.75 3.25-.015 3.25-.016 1.1-.734 1.1-.735.523-1.5.522-1.5-1.915-2.11-1.916-2.11-1.953-5.14-1.953-5.14h2.042l.984-2.591.985-2.59-3.11-4.608-3.11-4.609-.829-2.18-.829-2.18 6.208.498 6.208.498 1.263-1.521 1.263-1.522-2.946-2.097-2.946-2.098-1.845-.015-1.846-.016 1.5-.969 1.5-.969-.872-.016-.873-.015 1.148-1.383 1.147-1.382-4.313-4.438-4.313-4.437-1.289-4.303-1.289-4.303 1.077-1.077L2616 306.6v5.464l2.25.852 2.25.851.294-.261.294-.261.49-2.701.49-2.702-1.493-2.992-1.493-2.992-2.007-7.316-2.007-7.315.091-4.507.09-4.507-.693-1.123-.694-1.123-.868.537-.868.536-2.922 6.23-2.923 6.23-1.223 3.767-1.224 3.767-5.466 8.072-5.465 8.072 1.07 1.289 1.069 1.289-3.602 2.872-3.601 2.872-2.58 2.086-2.579 2.086.755 1.223.755 1.222 3.155-.659 3.155-.659-1.5 1.463-1.5 1.463-4.5 2.262-4.5 2.263-1.44.696-1.441.697-.395 1.186-.396 1.187 2.919.583 2.92.584V342H2579v3h-2.245l1.237 1.49 1.237 1.491 2.635-.54 2.636-.54-3.5 1.981-3.5 1.982-3.754.657-3.754.656.563.912.563.911H2575v2h3.833l.41 1.23.411 1.231-2.327 2.509-2.327 2.51V368h7l-.022.75-.022.75-1.728 2.19-1.728 2.19-5.145 2.56-5.145 2.56h-2.128l-3.516 1.75-3.517 1.75-.024 1.281-.025 1.282 1.586.608 1.586.609 5.664-1.575 5.664-1.575 2-.766 2-.766-4.354 4.145-4.354 4.145-2.146.306-2.146.306-.282 2-.282 2 2.077 1.287 2.078 1.287 3.446-.647 3.445-.646-.543-.879-.543-.879 1.474.565 1.474.566 2.078-1.112 2.078-1.112v1.249l-2.25 1.931-2.25 1.931-2.852 1.558-2.853 1.558-4.647 1.411-4.648 1.41-2.128.011-2.127.011-1.119 1.348-1.119 1.348 1.751 1.585 1.751 1.585 5.443.722 5.442.722-1.947.718-1.947.719-5.249.72-5.249.72-.654 1.058-.654 1.058 1.791 1.31 1.791 1.31 1.862-.997 1.862-.996V419h3v-1.723l2.558.489 2.558.489-.558 1.454-.558 1.455V423h-3.882l-.687 1.112-.687 1.112 1.378.872 1.378.873-1.635.016-1.635.015-5.115 1.652-5.115 1.652v2.52l4.164.704 4.164.703 4.056-.056 4.056-.056 1.414-1.809 1.415-1.81-.634 1.832-.635 1.832v.812l-3.938.63-3.939.63-.43 1.132-.43 1.132.836 2.25.837 2.25h3.397l-.692.692-.693.693-2.224.28-2.224.279-3.521.503-3.521.503-2.843-1.475-2.844-1.475h-1.004l.479 2.509.48 2.508-1.387-1.151-1.387-1.151-.712.712-.712.712 2.134 3.897 2.135 3.896-1.125-.216-1.124-.216-1.346-1.25-1.345-1.25H2540v2.846l2.999 2.999 2.999 2.999 3.561 1.175 3.56 1.175 1.412.208 1.411.207.647.647.647.647-2.868.618-2.868.617-2.297.931-2.297.931-3.203.011-3.203.011-3.797.627-3.796.628.296 1.539.297 1.54 3 .889 3 .89 2 .305 2 .305 3 .137 3 .138-5.462 2.542-5.462 2.542-3.788-.64-3.788-.64v5.24l1.479 3.539 1.478 3.539-3.055-2.571-3.055-2.571h-1.649l.1 3.531.1 3.53 1.202-.461 1.203-.462-.18 1.181-.179 1.181-.787 1.259-.786 1.259.595 1.875.595 1.875-2.621.658-2.622.658.53 1.381.53 1.382-2.889 1.007-2.89 1.007-4.378 4.57-4.378 4.569h-4.461l.618 1 .618 1h-1.855l-.584-7.25-.583-7.25-.973-13-.973-13-.683-11-.683-11-.389-.649-.388-.648 1.975-4.352 1.974-4.351.022-5.706.022-5.705-2.362-3.48-2.361-3.48-.069-9.547-.069-9.548-.758-1.267-.758-1.267 5.439 5.901 5.438 5.902 1.359 1.923 1.359 1.923-1.089 4.176-1.089 4.175-1.014 5.9-1.014 5.9 2.915 5.382 2.915 5.382-.921 3.211-.921 3.212v3.631l1.007-.622 1.007-.623 1.491-2.883 1.491-2.884.352-2.302.351-2.302-2.252-3.501-2.253-3.501-.664-2.25-.665-2.25h1.205l2.568 1.682 2.567 1.682 2.397 3.798 2.398 3.798v2.826l1.582.607 1.582.607h.47l-.571-3.75-.571-3.75-1.736-3.18-1.735-3.18-4.011-2.254-4.01-2.254.011-2.066.011-2.066.62-3.75.62-3.75H2515v2.311l2.551 3.345 2.551 3.344H2522v-2.718l-3.464-7.498-3.465-7.498-5.925-6.055-5.925-6.056-2.104-6.337-2.105-6.338-.597-3.5-.597-3.5-.505-9.246-.506-9.247 3.792 3.747 3.791 3.746.74 6.708.739 6.708 2.178 4.792 2.178 4.792.435-1.141.434-1.141-1.547-6.671-1.547-6.671v-3.758l4.105 2.687 4.105 2.688-.644 6.536-.644 6.536 1.474 6.319 1.474 6.319.44.441.441.44-.223-13.772-.223-13.773-2.839-3.02-2.838-3.019-3.897-5.75-3.896-5.75h-2.898l-.653-1.75-.652-1.75-1.816-1.307-1.816-1.306v-24.005l-1 .618-1 .618v16.215l-.556-.556-.557-.556-.501-30.361-.501-30.36-.109-1.25-.109-1.25h-2.528l-.39 2.25-.39 2.25-.807-7.233-.807-7.234-1.24-1.029-1.24-1.029-.974 1.263M788.247 858.25 788 1038l363.75-.033 363.75-.034-2.207-1.842-2.208-1.843.708-.707.707-.708-1.132.334-1.131.333-7.119-6.489-7.118-6.489V1019l-1.917-1.917-1.916-1.916-.584.583-.583.583-.118-1.416-.119-1.417.119-.75.118-.75h-3.018l-3.036-2.902-3.037-2.901 1.296-.52 1.295-.519-1.321-.079-1.322-.079-1.381-1.381-1.381-1.381.659-.659.659-.658-2.174-.569-2.173-.568-.6-1.892-.601-1.892H1473v-3h-2.143l-1.428-1.429-1.429-1.428V988h-3.118l.66-1.067.659-1.068-2.089-.546-2.09-.546.548-.887.548-.886h-3.101l-2.758-3.006-2.759-3.006-3.952-4.494-3.952-4.494h-2.714l.565-.915.565-.914-1.256-.507-1.256-.506 1.25-.079L1445 965v-2.135l-2 .635-2 .635V962h-3l.159-.75.159-.75-.764-1.744-.764-1.745-.895.554-.895.553-.118-1.309-.119-1.309.119-.75.118-.75h-2.245l1.373-1.687 1.372-1.687-1.75.655-1.75.656-1.5-.575-1.5-.576v-2.448l-2.452-1.312-2.452-1.313.202-.606.202-.607h-1.682l-1.457-2.78-1.456-2.779-.839.518-.839.519-1.236-1.489-1.236-1.489h-4.818l-.503-1.311-.503-1.311-6.465.146-6.466.146V933h-4.245l1.107-1.333 1.106-1.334H1392v2.549l1 .618 1 .618v1.629l-3.25-.671-3.25-.671-4.5.687-4.5.686-1.526-.804-1.526-.804-1.843 1.031-1.843 1.032-.631-.867-.631-.866-4-.407-4-.407-3-.093-3-.093-.575-.775-.574-.776-5.926-.367-5.925-.367-3.774-.723-3.775-.724-1.475-2.106-1.476-2.107-.032 1.472-.032 1.473-1.401-1.85-1.402-1.85-.998.617-.998.616-1.489-2.125-1.488-2.125-1.08.668-1.08.667-.015-1.809-.016-1.809-.849 1.341-.85 1.341-4.098-1.879-4.098-1.878-4.282-6.463-4.282-6.462-4.505-8.493-4.505-8.492-4.372-2.906-4.372-2.905-41.128-.164-41.128-.164-3.25 1.497-3.25 1.497v1.748l-.822-.508-.821-.508-2.783 1.444-2.782 1.443-.815-.503-.816-.504-1.506 1.506-1.506 1.506-1.414-.542-1.415-.543-1.233 1.486-1.233 1.486-1.427-.547-1.427-.548V894l-.75-.118-.75-.119-2.719.119-2.718.118.502 1.31.503 1.309-3.034-.21-3.034-.21v2.134l-.582-.581-.581-.582-3.419 1.429-3.418 1.428v-1.337l-1.922 1.74-1.923 1.739-4.102.551-4.102.55-.452.731-.451.731-2.524-.483-2.524-.482v-1.463l-3.069-.087-3.07-.087-1.324-1.099-1.323-1.099-3.357-.376-3.357-.377-5.623-1.588-5.624-1.587-3.734-1.561-3.735-1.56-.519.519-.519.518-2.623-1.323-2.623-1.322-9-2.508-9-2.508-9.241-2.239-9.241-2.239.55-.891.55-.89h-2.86l-2.379-3.484-2.379-3.484-1.523.48-1.524.479-3.776-2.024-3.776-2.024-.95.588-.951.587v-.809l-.001-.809-8.249-.056-8.25-.056-.5.695-.5.695-4 .671-4 .67-1.75.003-1.75.002v1.664l-2.25.089-2.25.089-10.738.965-10.737.964-4.763 2.172-4.762 2.171-3.692.21-3.692.211-1.469 1.219-1.469 1.219-.65-1.051-.649-1.051-1.808.967-1.808.968-.625-.626-.626-.625-2.006 1.815L959 885.31v-2.71l-1.101 1.101-1.101 1.101-2.733-.783-2.733-.784-1.803 1.009-1.803 1.009.687-1.111.686-1.112-3.049.485L943 884l-3 .475-3 .475-.015-1.225-.016-1.225-.834 1.316-.835 1.317-1.4.212-1.4.211-1.25.781-1.25.781-1-.618-1-.618v1.814l-3.973 1.792-3.972 1.791.531.861.532.86h-2.236l.58.939.58.938-1.375.812-1.375.811-1.181 2.25-1.181 2.25h-2.488l-1.403 1.946-1.403 1.947-.885-.547-.885-.547.317 1.506.317 1.505-2.403 2.095-2.403 2.095-1.097.046-1.097.047-3 3.91-3 3.91-1.343-.461-1.342-.46-.503 1.922-.502 1.922-2.893 1.198-2.892 1.198.588.951.588.952-2.008.525-2.008.525-.66 2.157-.66 2.158-.506-1.222-.507-1.222-2.291 2.472-2.29 2.472h-3.389l.552.893.552.894-2.743.801-2.743.8-1 .056-1 .056-.5.5-.5.5-3.25 1.807-3.25 1.806V939.6l-1.2 1.2-1.2 1.2h-3.718l.56-.907.561-.906-2.158.564-2.158.564.829-1.407.828-1.408-1.986 1.736-1.985 1.737-1.055-1.055-1.055-1.055-3.754 1.569-3.753 1.568h-3.312l-1.793 2.094-1.793 2.094.543 1.415.543 1.415-1.807 1.129-1.807 1.128.477 2.494.476 2.493-1.702.953-1.702.952.171 2.167.171 2.166-.11 2.179-.111 2.178-1.597 1.597-1.597 1.597.529 1.381.53 1.38-1.932 1.749L820 977.31v4.001l-2.457 3.221-2.457 3.221.707.76.707.761-1.5-.495-1.5-.494-2.75 1.926-2.75 1.925v-1.366l-2.465 1.615L803.07 994H800v1.605l-4.75 1.702-4.75 1.703-.747-.005-.747-.005-.256-160.25-.256-160.25-.247 179.75"
     fill="#2c0c0c"
     fill-rule="evenodd"
     id="path351"
     inkscape:label="Layer 6 view" />
</svg>
